<svg width="495" height="260" viewBox="0 0 495 260зтзь" fill="none" xmlns="http://www.w3.org/2000/svg">
<g opacity="0.75" filter="url(#filter0_f_4815_1763)">
<path d="M397.5 48V45.5H395H100H97.5V48V224V226.5H100H395H397.5V224V48Z" stroke="url(#paint0_linear_4815_1763)" stroke-width="5"/>
</g>
<path d="M0 112.5H38.6863C40.808 112.5 42.8429 113.343 44.3431 114.843L47.6569 118.157C49.1571 119.657 51.192 120.5 53.3137 120.5H100" stroke="url(#paint1_linear_4815_1763)"/>
<path d="M0 127H31.1716C32.9826 127 34.7194 127.719 36 129V129C37.2806 130.281 39.0174 131 40.8284 131H100" stroke="url(#paint2_linear_4815_1763)"/>
<path d="M0 142H100" stroke="url(#paint3_linear_4815_1763)"/>
<g filter="url(#filter1_f_4815_1763)">
<circle cx="56" cy="142" r="2" fill="#ED9513"/>
</g>
<circle cx="56" cy="142" r="1" fill="#ED9513"/>
<g filter="url(#filter2_f_4815_1763)">
<circle cx="87" cy="131" r="2" fill="#F4B62B"/>
</g>
<circle cx="87" cy="131" r="2" fill="#F4B62B"/>
<path d="M0 159.5H31.1863C33.308 159.5 35.3429 158.657 36.8431 157.157L38.1569 155.843C39.6571 154.343 41.692 153.5 43.8137 153.5H100" stroke="url(#paint4_linear_4815_1763)"/>
<g filter="url(#filter3_b_4815_1763)">
<rect x="100" y="48" width="294.999" height="176" rx="12" fill="white" fill-opacity="0.15"/>
<rect x="99.5" y="47.5" width="295.999" height="177" rx="12.5" stroke="url(#paint5_linear_4815_1763)"/>
<g clip-path="url(#clip0_4815_1763)">
<g opacity="0.25" clip-path="url(#clip1_4815_1763)">
<path fill-rule="evenodd" clip-rule="evenodd" d="M125.23 73.0768H116.628L120.386 69.3188C120.686 69.0185 120.686 68.5256 120.386 68.2253C120.086 67.9249 119.601 67.9249 119.3 68.2253L114.225 73.3002C113.925 73.6005 113.925 74.0857 114.225 74.386L119.3 79.4609C119.601 79.7613 120.086 79.7613 120.386 79.4609C120.686 79.1606 120.686 78.6754 120.386 78.3751L116.628 74.617H125.23C125.653 74.617 126 74.2705 126 73.8469C126 73.4234 125.653 73.0768 125.23 73.0768Z" fill="#5F6368"/>
<path fill-rule="evenodd" clip-rule="evenodd" d="M145.77 74.617H154.372L150.614 78.3751C150.314 78.6754 150.314 79.1683 150.614 79.4686C150.914 79.769 151.399 79.769 151.7 79.4686L156.775 74.3937C157.075 74.0934 157.075 73.6082 156.775 73.3079L151.708 68.2253C151.407 67.9249 150.922 67.9249 150.622 68.2253C150.321 68.5256 150.321 69.0107 150.622 69.3111L154.372 73.0768H145.77C145.347 73.0768 145 73.4234 145 73.8469C145 74.2705 145.347 74.617 145.77 74.617Z" fill="#5F6368"/>
</g>
<path d="M171 74C171 66.268 177.268 60 185 60H340.999C348.731 60 354.999 66.268 354.999 74C354.999 81.732 348.731 88 340.999 88H185C177.268 88 171 81.732 171 74Z" fill="#020617" fill-opacity="0.05"/>
<path d="M171 74C171 66.268 177.268 60 185 60H340.999C348.731 60 354.999 66.268 354.999 74C354.999 81.732 348.731 88 340.999 88H185C177.268 88 171 81.732 171 74Z" stroke="#020617" stroke-opacity="0.07"/>
<g opacity="0.25">
<path fill-rule="evenodd" clip-rule="evenodd" d="M192 72H191.5V71C191.5 69.62 190.38 68.5 189 68.5C187.62 68.5 186.5 69.62 186.5 71V72H186C185.45 72 185 72.45 185 73V78C185 78.55 185.45 79 186 79H192C192.55 79 193 78.55 193 78V73C193 72.45 192.55 72 192 72ZM187.5 72V71C187.5 70.17 188.17 69.5 189 69.5C189.83 69.5 190.5 70.17 190.5 71V72H187.5Z" fill="#5F6368"/>
</g>
<g opacity="0.25">
<path d="M203.957 68.5H205.229V77.5645L205.119 79H203.957V68.5ZM210.226 75.2402V75.3838C210.226 75.9215 210.162 76.4206 210.034 76.8809C209.907 77.3366 209.72 77.7331 209.474 78.0703C209.228 78.4076 208.927 78.6696 208.571 78.8564C208.216 79.0433 207.808 79.1367 207.348 79.1367C206.878 79.1367 206.466 79.057 206.11 78.8975C205.759 78.7334 205.463 78.4987 205.222 78.1934C204.98 77.888 204.786 77.5189 204.641 77.0859C204.499 76.653 204.401 76.1654 204.347 75.623V74.9941C204.401 74.4473 204.499 73.9574 204.641 73.5244C204.786 73.0915 204.98 72.7223 205.222 72.417C205.463 72.1071 205.759 71.8724 206.11 71.7129C206.461 71.5488 206.869 71.4668 207.334 71.4668C207.799 71.4668 208.211 71.5579 208.571 71.7402C208.931 71.918 209.232 72.1732 209.474 72.5059C209.72 72.8385 209.907 73.2373 210.034 73.7021C210.162 74.1624 210.226 74.6751 210.226 75.2402ZM208.954 75.3838V75.2402C208.954 74.8711 208.92 74.5247 208.852 74.2012C208.783 73.873 208.674 73.5859 208.523 73.3398C208.373 73.0892 208.175 72.8932 207.929 72.752C207.683 72.6061 207.38 72.5332 207.02 72.5332C206.701 72.5332 206.423 72.5879 206.186 72.6973C205.953 72.8066 205.755 72.9548 205.591 73.1416C205.427 73.3239 205.292 73.5335 205.188 73.7705C205.087 74.0029 205.012 74.2445 204.962 74.4951V76.1426C205.035 76.4616 205.153 76.7692 205.317 77.0654C205.486 77.3571 205.709 77.5964 205.987 77.7832C206.27 77.9701 206.618 78.0635 207.033 78.0635C207.375 78.0635 207.667 77.9951 207.908 77.8584C208.154 77.7171 208.353 77.5234 208.503 77.2773C208.658 77.0312 208.772 76.7464 208.845 76.4229C208.918 76.0993 208.954 75.7529 208.954 75.3838ZM213.34 72.7656V79H212.075V71.6035H213.306L213.34 72.7656ZM215.65 71.5625L215.644 72.7383C215.539 72.7155 215.438 72.7018 215.343 72.6973C215.252 72.6882 215.147 72.6836 215.028 72.6836C214.737 72.6836 214.479 72.7292 214.256 72.8203C214.033 72.9115 213.843 73.0391 213.688 73.2031C213.534 73.3672 213.41 73.5632 213.319 73.791C213.233 74.0143 213.176 74.2604 213.148 74.5293L212.793 74.7344C212.793 74.2878 212.836 73.8685 212.923 73.4766C213.014 73.0846 213.153 72.7383 213.34 72.4375C213.527 72.1322 213.764 71.8952 214.051 71.7266C214.342 71.5534 214.689 71.4668 215.09 71.4668C215.181 71.4668 215.286 71.4782 215.404 71.501C215.523 71.5192 215.605 71.5397 215.65 71.5625ZM216.598 75.3838V75.2266C216.598 74.6934 216.675 74.1989 216.83 73.7432C216.985 73.2829 217.208 72.8841 217.5 72.5469C217.792 72.2051 218.145 71.9408 218.56 71.7539C218.974 71.5625 219.439 71.4668 219.954 71.4668C220.474 71.4668 220.941 71.5625 221.355 71.7539C221.775 71.9408 222.13 72.2051 222.422 72.5469C222.718 72.8841 222.944 73.2829 223.099 73.7432C223.254 74.1989 223.331 74.6934 223.331 75.2266V75.3838C223.331 75.917 223.254 76.4115 223.099 76.8672C222.944 77.3229 222.718 77.7217 222.422 78.0635C222.13 78.4007 221.777 78.665 221.362 78.8564C220.952 79.0433 220.487 79.1367 219.968 79.1367C219.448 79.1367 218.981 79.0433 218.566 78.8564C218.152 78.665 217.796 78.4007 217.5 78.0635C217.208 77.7217 216.985 77.3229 216.83 76.8672C216.675 76.4115 216.598 75.917 216.598 75.3838ZM217.862 75.2266V75.3838C217.862 75.7529 217.906 76.1016 217.992 76.4297C218.079 76.7533 218.209 77.0404 218.382 77.291C218.56 77.5417 218.781 77.7399 219.045 77.8857C219.309 78.027 219.617 78.0977 219.968 78.0977C220.314 78.0977 220.617 78.027 220.877 77.8857C221.141 77.7399 221.36 77.5417 221.533 77.291C221.706 77.0404 221.836 76.7533 221.923 76.4297C222.014 76.1016 222.06 75.7529 222.06 75.3838V75.2266C222.06 74.862 222.014 74.5179 221.923 74.1943C221.836 73.8662 221.704 73.5768 221.526 73.3262C221.353 73.071 221.134 72.8704 220.87 72.7246C220.61 72.5788 220.305 72.5059 219.954 72.5059C219.608 72.5059 219.302 72.5788 219.038 72.7246C218.778 72.8704 218.56 73.071 218.382 73.3262C218.209 73.5768 218.079 73.8662 217.992 74.1943C217.906 74.5179 217.862 74.862 217.862 75.2266ZM227.04 77.6875L228.94 71.6035H229.774L229.61 72.8135L227.676 79H226.862L227.04 77.6875ZM225.762 71.6035L227.382 77.7559L227.498 79H226.644L224.497 71.6035H225.762ZM231.593 77.708L233.138 71.6035H234.396L232.249 79H231.401L231.593 77.708ZM229.959 71.6035L231.818 77.585L232.03 79H231.224L229.234 72.7998L229.07 71.6035H229.959ZM240.251 77.0381C240.251 76.8558 240.21 76.6872 240.128 76.5322C240.05 76.3727 239.889 76.2292 239.643 76.1016C239.401 75.9694 239.036 75.8555 238.549 75.7598C238.139 75.6732 237.767 75.5706 237.435 75.4521C237.106 75.3337 236.826 75.1901 236.594 75.0215C236.366 74.8529 236.19 74.6546 236.067 74.4268C235.944 74.1989 235.883 73.9323 235.883 73.627C235.883 73.3353 235.947 73.0596 236.074 72.7998C236.206 72.54 236.391 72.3099 236.628 72.1094C236.869 71.9089 237.159 71.7516 237.496 71.6377C237.833 71.5238 238.209 71.4668 238.624 71.4668C239.216 71.4668 239.722 71.5716 240.142 71.7812C240.561 71.9909 240.882 72.2712 241.105 72.6221C241.329 72.9684 241.44 73.3535 241.44 73.7773H240.176C240.176 73.5723 240.114 73.374 239.991 73.1826C239.873 72.9867 239.697 72.8249 239.465 72.6973C239.237 72.5697 238.957 72.5059 238.624 72.5059C238.273 72.5059 237.988 72.5605 237.77 72.6699C237.555 72.7747 237.398 72.9092 237.298 73.0732C237.202 73.2373 237.154 73.4105 237.154 73.5928C237.154 73.7295 237.177 73.8525 237.223 73.9619C237.273 74.0667 237.359 74.1647 237.482 74.2559C237.605 74.3424 237.779 74.4245 238.002 74.502C238.225 74.5794 238.51 74.6569 238.856 74.7344C239.463 74.8711 239.962 75.0352 240.354 75.2266C240.745 75.418 241.037 75.6527 241.229 75.9307C241.42 76.2087 241.516 76.5459 241.516 76.9424C241.516 77.266 241.447 77.5622 241.311 77.8311C241.178 78.0999 240.985 78.3324 240.729 78.5283C240.479 78.7197 240.178 78.8701 239.827 78.9795C239.481 79.0843 239.091 79.1367 238.658 79.1367C238.007 79.1367 237.455 79.0205 237.004 78.7881C236.553 78.5557 236.211 78.2549 235.979 77.8857C235.746 77.5166 235.63 77.127 235.63 76.7168H236.901C236.92 77.0632 237.02 77.3389 237.202 77.5439C237.384 77.7445 237.608 77.888 237.872 77.9746C238.136 78.0566 238.398 78.0977 238.658 78.0977C239.005 78.0977 239.294 78.0521 239.526 77.9609C239.763 77.8698 239.943 77.7445 240.066 77.585C240.189 77.4255 240.251 77.2432 240.251 77.0381ZM246.496 79.1367C245.981 79.1367 245.514 79.0501 245.095 78.877C244.68 78.6992 244.322 78.4508 244.021 78.1318C243.725 77.8128 243.497 77.4346 243.338 76.9971C243.178 76.5596 243.099 76.0811 243.099 75.5615V75.2744C243.099 74.6729 243.188 74.1374 243.365 73.668C243.543 73.194 243.785 72.793 244.09 72.4648C244.395 72.1367 244.742 71.8883 245.129 71.7197C245.516 71.5511 245.917 71.4668 246.332 71.4668C246.861 71.4668 247.316 71.5579 247.699 71.7402C248.087 71.9225 248.403 72.1777 248.649 72.5059C248.896 72.8294 249.078 73.2122 249.196 73.6543C249.315 74.0918 249.374 74.5703 249.374 75.0898V75.6572H243.851V74.625H248.109V74.5293C248.091 74.2012 248.023 73.8822 247.904 73.5723C247.79 73.2624 247.608 73.0072 247.357 72.8066C247.107 72.6061 246.765 72.5059 246.332 72.5059C246.045 72.5059 245.781 72.5674 245.539 72.6904C245.298 72.8089 245.09 72.9867 244.917 73.2236C244.744 73.4606 244.609 73.75 244.514 74.0918C244.418 74.4336 244.37 74.8278 244.37 75.2744V75.5615C244.37 75.9124 244.418 76.2428 244.514 76.5527C244.614 76.8581 244.757 77.127 244.944 77.3594C245.136 77.5918 245.366 77.7741 245.635 77.9062C245.908 78.0384 246.218 78.1045 246.564 78.1045C247.011 78.1045 247.389 78.0133 247.699 77.8311C248.009 77.6488 248.28 77.4049 248.513 77.0996L249.278 77.708C249.119 77.9495 248.916 78.1797 248.67 78.3984C248.424 78.6172 248.121 78.7949 247.761 78.9316C247.405 79.0684 246.984 79.1367 246.496 79.1367ZM251.121 78.3301C251.121 78.1159 251.187 77.9359 251.319 77.79C251.456 77.6396 251.652 77.5645 251.907 77.5645C252.162 77.5645 252.356 77.6396 252.488 77.79C252.625 77.9359 252.693 78.1159 252.693 78.3301C252.693 78.5397 252.625 78.7174 252.488 78.8633C252.356 79.0091 252.162 79.082 251.907 79.082C251.652 79.082 251.456 79.0091 251.319 78.8633C251.187 78.7174 251.121 78.5397 251.121 78.3301ZM256.3 73.0732V79H255.028V71.6035H256.231L256.3 73.0732ZM256.04 75.0215L255.452 75.001C255.457 74.4951 255.523 74.028 255.65 73.5996C255.778 73.1667 255.967 72.7907 256.218 72.4717C256.468 72.1527 256.781 71.9066 257.154 71.7334C257.528 71.5557 257.961 71.4668 258.453 71.4668C258.799 71.4668 259.118 71.5169 259.41 71.6172C259.702 71.7129 259.955 71.8656 260.169 72.0752C260.383 72.2848 260.549 72.5537 260.668 72.8818C260.786 73.21 260.846 73.6064 260.846 74.0713V79H259.581V74.1328C259.581 73.7454 259.515 73.4355 259.383 73.2031C259.255 72.9707 259.073 72.8021 258.836 72.6973C258.599 72.5879 258.321 72.5332 258.002 72.5332C257.628 72.5332 257.316 72.5993 257.065 72.7314C256.815 72.8636 256.614 73.0459 256.464 73.2783C256.313 73.5107 256.204 73.7773 256.136 74.0781C256.072 74.3743 256.04 74.6888 256.04 75.0215ZM260.832 74.3242L259.984 74.584C259.989 74.1784 260.055 73.7887 260.183 73.415C260.315 73.0413 260.504 72.7087 260.75 72.417C261.001 72.1253 261.308 71.8952 261.673 71.7266C262.037 71.5534 262.454 71.4668 262.924 71.4668C263.32 71.4668 263.671 71.5192 263.977 71.624C264.286 71.7288 264.546 71.8906 264.756 72.1094C264.97 72.3236 265.132 72.5993 265.241 72.9365C265.351 73.2738 265.405 73.6748 265.405 74.1396V79H264.134V74.126C264.134 73.7113 264.068 73.39 263.936 73.1621C263.808 72.9297 263.626 72.7679 263.389 72.6768C263.156 72.5811 262.878 72.5332 262.555 72.5332C262.277 72.5332 262.031 72.5811 261.816 72.6768C261.602 72.7725 261.422 72.9046 261.276 73.0732C261.131 73.2373 261.019 73.4264 260.941 73.6406C260.868 73.8548 260.832 74.0827 260.832 74.3242ZM270.639 79.1367C270.124 79.1367 269.657 79.0501 269.237 78.877C268.823 78.6992 268.465 78.4508 268.164 78.1318C267.868 77.8128 267.64 77.4346 267.48 76.9971C267.321 76.5596 267.241 76.0811 267.241 75.5615V75.2744C267.241 74.6729 267.33 74.1374 267.508 73.668C267.686 73.194 267.927 72.793 268.232 72.4648C268.538 72.1367 268.884 71.8883 269.271 71.7197C269.659 71.5511 270.06 71.4668 270.475 71.4668C271.003 71.4668 271.459 71.5579 271.842 71.7402C272.229 71.9225 272.546 72.1777 272.792 72.5059C273.038 72.8294 273.22 73.2122 273.339 73.6543C273.457 74.0918 273.517 74.5703 273.517 75.0898V75.6572H267.993V74.625H272.252V74.5293C272.234 74.2012 272.165 73.8822 272.047 73.5723C271.933 73.2624 271.751 73.0072 271.5 72.8066C271.249 72.6061 270.908 72.5059 270.475 72.5059C270.188 72.5059 269.923 72.5674 269.682 72.6904C269.44 72.8089 269.233 72.9867 269.06 73.2236C268.886 73.4606 268.752 73.75 268.656 74.0918C268.561 74.4336 268.513 74.8278 268.513 75.2744V75.5615C268.513 75.9124 268.561 76.2428 268.656 76.5527C268.757 76.8581 268.9 77.127 269.087 77.3594C269.278 77.5918 269.508 77.7741 269.777 77.9062C270.051 78.0384 270.361 78.1045 270.707 78.1045C271.154 78.1045 271.532 78.0133 271.842 77.8311C272.152 77.6488 272.423 77.4049 272.655 77.0996L273.421 77.708C273.261 77.9495 273.059 78.1797 272.812 78.3984C272.566 78.6172 272.263 78.7949 271.903 78.9316C271.548 79.0684 271.126 79.1367 270.639 79.1367ZM278.312 79.1367C277.798 79.1367 277.33 79.0501 276.911 78.877C276.496 78.6992 276.139 78.4508 275.838 78.1318C275.542 77.8128 275.314 77.4346 275.154 76.9971C274.995 76.5596 274.915 76.0811 274.915 75.5615V75.2744C274.915 74.6729 275.004 74.1374 275.182 73.668C275.359 73.194 275.601 72.793 275.906 72.4648C276.212 72.1367 276.558 71.8883 276.945 71.7197C277.333 71.5511 277.734 71.4668 278.148 71.4668C278.677 71.4668 279.133 71.5579 279.516 71.7402C279.903 71.9225 280.22 72.1777 280.466 72.5059C280.712 72.8294 280.894 73.2122 281.013 73.6543C281.131 74.0918 281.19 74.5703 281.19 75.0898V75.6572H275.667V74.625H279.926V74.5293C279.908 74.2012 279.839 73.8822 279.721 73.5723C279.607 73.2624 279.424 73.0072 279.174 72.8066C278.923 72.6061 278.581 72.5059 278.148 72.5059C277.861 72.5059 277.597 72.5674 277.355 72.6904C277.114 72.8089 276.907 72.9867 276.733 73.2236C276.56 73.4606 276.426 73.75 276.33 74.0918C276.234 74.4336 276.187 74.8278 276.187 75.2744V75.5615C276.187 75.9124 276.234 76.2428 276.33 76.5527C276.43 76.8581 276.574 77.127 276.761 77.3594C276.952 77.5918 277.182 77.7741 277.451 77.9062C277.725 78.0384 278.035 78.1045 278.381 78.1045C278.827 78.1045 279.206 78.0133 279.516 77.8311C279.826 77.6488 280.097 77.4049 280.329 77.0996L281.095 77.708C280.935 77.9495 280.732 78.1797 280.486 78.3984C280.24 78.6172 279.937 78.7949 279.577 78.9316C279.222 79.0684 278.8 79.1367 278.312 79.1367Z" fill="#202124"/>
</g>
<g opacity="0.25">
<path fill-rule="evenodd" clip-rule="evenodd" d="M340.361 71.8401L336.968 71.5456L335.643 68.4259C335.405 67.858 334.591 67.858 334.353 68.4259L333.028 71.5526L329.642 71.8401C329.025 71.8892 328.773 72.6603 329.242 73.0669L331.815 75.2963L331.044 78.6053C330.904 79.2083 331.556 79.685 332.089 79.3625L334.998 77.6098L337.907 79.3695C338.44 79.692 339.092 79.2153 338.952 78.6124L338.181 75.2963L340.754 73.0669C341.223 72.6603 340.978 71.8892 340.361 71.8401ZM334.998 76.2988L332.362 77.8903L333.063 74.8897L330.736 72.8706L333.806 72.6042L334.998 69.7789L336.197 72.6112L339.267 72.8777L336.94 74.8967L337.641 77.8973L334.998 76.2988Z" fill="#5F6368"/>
</g>
<g opacity="0.5">
<path fill-rule="evenodd" clip-rule="evenodd" d="M375.166 71C375.991 71 376.666 70.325 376.666 69.5C376.666 68.675 375.991 68 375.166 68C374.341 68 373.666 68.675 373.666 69.5C373.666 70.325 374.341 71 375.166 71ZM375.166 72.5C374.341 72.5 373.666 73.175 373.666 74C373.666 74.825 374.341 75.5 375.166 75.5C375.991 75.5 376.666 74.825 376.666 74C376.666 73.175 375.991 72.5 375.166 72.5ZM375.166 77C374.341 77 373.666 77.675 373.666 78.5C373.666 79.325 374.341 80 375.166 80C375.991 80 376.666 79.325 376.666 78.5C376.666 77.675 375.991 77 375.166 77Z" fill="#5F6368"/>
</g>
</g>
<g opacity="0.75" filter="url(#filter4_f_4815_1763)">
<mask id="path-19-outside-1_4815_1763" maskUnits="userSpaceOnUse" x="204.625" y="107.618" width="84" height="94" fill="black">
<rect fill="white" x="204.625" y="107.618" width="84" height="94"/>
<path d="M233.208 120.895C228.25 122.261 223.325 123.746 218.439 125.351C217.993 125.495 217.596 125.762 217.294 126.121C216.992 126.48 216.797 126.917 216.732 127.382C213.847 149.022 220.511 164.812 228.46 175.213C231.825 179.662 235.838 183.581 240.366 186.838C242.167 188.108 243.76 189.024 245.015 189.613C245.64 189.908 246.148 190.112 246.54 190.227C246.713 190.279 246.889 190.323 247.066 190.357C247.242 190.323 247.416 190.279 247.587 190.227C247.982 190.109 248.493 189.904 249.117 189.613C250.367 189.024 251.965 188.103 253.766 186.838C258.294 183.581 262.308 179.662 265.672 175.213C273.621 164.817 280.285 149.022 277.401 127.382C277.336 126.917 277.141 126.48 276.839 126.121C276.537 125.762 276.14 125.495 275.693 125.351C272.304 124.242 266.583 122.436 260.924 120.9C255.146 119.333 249.831 118.172 247.066 118.172C244.307 118.172 238.987 119.328 233.208 120.895ZM231.823 115.533C237.472 113.997 243.474 112.618 247.066 112.618C250.658 112.618 256.661 113.997 262.309 115.533C268.088 117.095 273.913 118.943 277.338 120.062C278.771 120.535 280.04 121.402 281.002 122.565C281.963 123.727 282.577 125.136 282.773 126.632C285.876 149.939 278.676 167.212 269.941 178.639C266.235 183.526 261.818 187.83 256.838 191.409C255.117 192.65 253.292 193.739 251.382 194.662C249.924 195.35 248.357 195.912 247.066 195.912C245.775 195.912 244.213 195.35 242.751 194.662C240.841 193.739 239.015 192.65 237.295 191.409C232.314 187.83 227.897 183.526 224.192 178.639C215.456 167.212 208.256 149.939 211.359 126.632C211.555 125.136 212.169 123.727 213.131 122.565C214.092 121.402 215.362 120.535 216.794 120.062C221.767 118.433 226.778 116.923 231.823 115.533Z"/>
</mask>
<path d="M233.208 120.895C228.25 122.261 223.325 123.746 218.439 125.351C217.993 125.495 217.596 125.762 217.294 126.121C216.992 126.48 216.797 126.917 216.732 127.382C213.847 149.022 220.511 164.812 228.46 175.213C231.825 179.662 235.838 183.581 240.366 186.838C242.167 188.108 243.76 189.024 245.015 189.613C245.64 189.908 246.148 190.112 246.54 190.227C246.713 190.279 246.889 190.323 247.066 190.357C247.242 190.323 247.416 190.279 247.587 190.227C247.982 190.109 248.493 189.904 249.117 189.613C250.367 189.024 251.965 188.103 253.766 186.838C258.294 183.581 262.308 179.662 265.672 175.213C273.621 164.817 280.285 149.022 277.401 127.382C277.336 126.917 277.141 126.48 276.839 126.121C276.537 125.762 276.14 125.495 275.693 125.351C272.304 124.242 266.583 122.436 260.924 120.9C255.146 119.333 249.831 118.172 247.066 118.172C244.307 118.172 238.987 119.328 233.208 120.895ZM231.823 115.533C237.472 113.997 243.474 112.618 247.066 112.618C250.658 112.618 256.661 113.997 262.309 115.533C268.088 117.095 273.913 118.943 277.338 120.062C278.771 120.535 280.04 121.402 281.002 122.565C281.963 123.727 282.577 125.136 282.773 126.632C285.876 149.939 278.676 167.212 269.941 178.639C266.235 183.526 261.818 187.83 256.838 191.409C255.117 192.65 253.292 193.739 251.382 194.662C249.924 195.35 248.357 195.912 247.066 195.912C245.775 195.912 244.213 195.35 242.751 194.662C240.841 193.739 239.015 192.65 237.295 191.409C232.314 187.83 227.897 183.526 224.192 178.639C215.456 167.212 208.256 149.939 211.359 126.632C211.555 125.136 212.169 123.727 213.131 122.565C214.092 121.402 215.362 120.535 216.794 120.062C221.767 118.433 226.778 116.923 231.823 115.533Z" fill="white"/>
<path d="M233.208 120.895L231.9 116.069L231.89 116.072L231.881 116.075L233.208 120.895ZM218.439 125.351L219.974 130.11L219.986 130.106L219.999 130.102L218.439 125.351ZM216.732 127.382L211.78 126.685L211.778 126.703L211.775 126.721L216.732 127.382ZM228.46 175.213L232.449 172.198L232.441 172.187L232.433 172.177L228.46 175.213ZM240.366 186.838L237.447 190.897L237.466 190.911L237.485 190.924L240.366 186.838ZM245.015 189.613L247.15 185.091L247.138 185.086L245.015 189.613ZM246.54 190.227L247.993 185.443L247.967 185.435L247.942 185.427L246.54 190.227ZM247.066 190.357L246.119 195.267L247.073 195.451L248.027 195.264L247.066 190.357ZM247.587 190.227L246.158 185.436L246.142 185.44L246.126 185.445L247.587 190.227ZM249.117 189.613L251.232 194.144L251.239 194.14L251.247 194.136L249.117 189.613ZM253.766 186.838L256.64 190.93L256.663 190.913L256.686 190.897L253.766 186.838ZM265.672 175.213L261.7 172.176L261.692 172.187L261.684 172.198L265.672 175.213ZM277.401 127.382L282.357 126.721L282.355 126.703L282.352 126.685L277.401 127.382ZM275.693 125.351L274.139 130.103L274.149 130.107L274.159 130.11L275.693 125.351ZM260.924 120.9L262.234 116.075L262.233 116.075L260.924 120.9ZM231.823 115.533L230.512 110.708L230.504 110.71L230.496 110.712L231.823 115.533ZM262.309 115.533L260.997 120.358L261.004 120.36L262.309 115.533ZM277.338 120.062L278.906 115.314L278.899 115.312L278.891 115.309L277.338 120.062ZM282.773 126.632L277.816 127.282L277.817 127.292L282.773 126.632ZM269.941 178.639L265.969 175.602L265.963 175.61L265.957 175.618L269.941 178.639ZM256.838 191.409L253.92 187.348L253.912 187.354L256.838 191.409ZM251.382 194.662L253.514 199.185L253.536 199.174L253.559 199.164L251.382 194.662ZM242.751 194.662L240.574 199.164L240.599 199.176L240.625 199.188L242.751 194.662ZM237.295 191.409L240.22 187.354L240.212 187.348L237.295 191.409ZM224.192 178.639L228.176 175.618L228.17 175.61L228.164 175.602L224.192 178.639ZM211.359 126.632L216.315 127.292L216.317 127.282L211.359 126.632ZM216.794 120.062L215.237 115.311L215.226 115.314L216.794 120.062ZM231.881 116.075C226.844 117.462 221.842 118.971 216.879 120.601L219.999 130.102C224.809 128.522 229.655 127.06 234.536 125.716L231.881 116.075ZM216.904 120.593C215.564 121.025 214.373 121.825 213.467 122.903L221.12 129.339C220.818 129.699 220.421 129.966 219.974 130.11L216.904 120.593ZM213.467 122.903C212.561 123.98 211.976 125.291 211.78 126.685L221.683 128.078C221.617 128.543 221.422 128.98 221.12 129.339L213.467 122.903ZM211.775 126.721C208.696 149.825 215.83 166.921 224.488 178.249L232.433 172.177C225.192 162.703 218.999 148.22 221.688 128.042L211.775 126.721ZM224.472 178.229C228.138 183.077 232.512 187.348 237.447 190.897L243.286 182.779C239.164 179.814 235.511 176.247 232.449 172.198L224.472 178.229ZM237.485 190.924C239.482 192.332 241.328 193.406 242.892 194.14L247.138 185.086C246.193 184.643 244.853 183.884 243.248 182.752L237.485 190.924ZM242.88 194.134C243.604 194.476 244.382 194.806 245.139 195.026L247.942 185.427C247.947 185.429 247.882 185.41 247.733 185.349C247.588 185.291 247.396 185.208 247.15 185.091L242.88 194.134ZM245.088 195.011C245.427 195.114 245.771 195.199 246.119 195.267L248.013 185.448C248.006 185.446 247.999 185.445 247.993 185.443L245.088 195.011ZM248.027 195.264C248.372 195.196 248.712 195.111 249.048 195.009L246.126 185.445C246.119 185.447 246.112 185.449 246.105 185.45L248.027 195.264ZM249.016 195.018C249.749 194.8 250.511 194.48 251.232 194.144L247.003 185.082C246.474 185.328 246.216 185.418 246.158 185.436L249.016 195.018ZM251.247 194.136C252.803 193.404 254.65 192.327 256.64 190.93L250.893 182.746C249.28 183.879 247.93 184.645 246.987 185.089L251.247 194.136ZM256.686 190.897C261.62 187.348 265.994 183.077 269.66 178.229L261.684 172.198C258.622 176.247 254.968 179.814 250.847 182.779L256.686 190.897ZM269.644 178.25C278.303 166.926 285.436 149.824 282.357 126.721L272.445 128.042C275.134 148.221 268.94 162.708 261.7 172.176L269.644 178.25ZM282.352 126.685C282.156 125.291 281.572 123.98 280.665 122.903L273.012 129.339C272.71 128.98 272.515 128.543 272.45 128.078L282.352 126.685ZM280.665 122.903C279.759 121.825 278.568 121.025 277.228 120.593L274.159 130.11C273.712 129.966 273.314 129.699 273.012 129.339L280.665 122.903ZM277.248 120.599C273.819 119.477 268.008 117.642 262.234 116.075L259.615 125.726C265.158 127.23 270.79 129.008 274.139 130.103L277.248 120.599ZM262.233 116.075C256.579 114.541 250.612 113.172 247.066 113.172V123.172C249.049 123.172 253.713 124.125 259.616 125.726L262.233 116.075ZM247.066 113.172C243.528 113.172 237.559 114.535 231.9 116.069L234.517 125.721C240.414 124.122 245.086 123.172 247.066 123.172V113.172ZM233.135 120.358C238.897 118.791 244.254 117.618 247.066 117.618V107.618C242.695 107.618 236.047 109.203 230.512 110.708L233.135 120.358ZM247.066 117.618C249.879 117.618 255.235 118.791 260.997 120.358L263.621 110.708C258.086 109.203 251.438 107.618 247.066 107.618V117.618ZM261.004 120.36C266.661 121.889 272.393 123.706 275.785 124.815L278.891 115.309C275.433 114.179 269.514 112.301 263.614 110.706L261.004 120.36ZM275.771 124.81C276.309 124.988 276.787 125.314 277.149 125.752L284.854 119.377C283.293 117.491 281.232 116.082 278.906 115.314L275.771 124.81ZM277.149 125.752C277.511 126.189 277.742 126.72 277.816 127.282L287.731 125.982C287.412 123.553 286.415 121.264 284.854 119.377L277.149 125.752ZM277.817 127.292C280.725 149.136 273.995 165.103 265.969 175.602L273.913 181.675C283.358 169.321 291.027 150.741 287.73 125.972L277.817 127.292ZM265.957 175.618C262.553 180.107 258.495 184.061 253.92 187.348L259.755 195.469C265.141 191.599 269.918 186.944 273.925 181.66L265.957 175.618ZM253.912 187.354C252.428 188.425 250.853 189.364 249.205 190.161L253.559 199.164C255.731 198.113 257.807 196.875 259.763 195.463L253.912 187.354ZM249.25 190.14C248.656 190.42 248.129 190.631 247.69 190.766C247.224 190.91 247.034 190.912 247.066 190.912V200.912C249.536 200.912 251.959 199.918 253.514 199.185L249.25 190.14ZM247.066 190.912C247.099 190.912 246.911 190.91 246.446 190.767C246.006 190.631 245.478 190.419 244.876 190.137L240.625 199.188C242.175 199.916 244.595 200.912 247.066 200.912V190.912ZM244.928 190.161C243.28 189.364 241.705 188.425 240.22 187.354L234.369 195.463C236.326 196.875 238.402 198.113 240.574 199.164L244.928 190.161ZM240.212 187.348C235.637 184.061 231.58 180.107 228.176 175.618L220.207 181.66C224.215 186.944 228.991 191.599 234.377 195.469L240.212 187.348ZM228.164 175.602C220.138 165.103 213.407 149.136 216.315 127.292L206.403 125.972C203.105 150.741 210.775 169.321 220.219 181.675L228.164 175.602ZM216.317 127.282C216.39 126.72 216.621 126.189 216.983 125.752L209.278 119.377C207.717 121.264 206.72 123.553 206.402 125.982L216.317 127.282ZM216.983 125.752C217.345 125.314 217.823 124.988 218.362 124.81L215.226 115.314C212.901 116.082 210.839 117.491 209.278 119.377L216.983 125.752ZM218.351 124.814C223.248 123.209 228.183 121.722 233.151 120.353L230.496 110.712C225.374 112.123 220.286 113.656 215.237 115.311L218.351 124.814Z" fill="url(#paint6_linear_4815_1763)" mask="url(#path-19-outside-1_4815_1763)"/>
</g>
<path d="M227.394 105.521C219.843 107.587 212.343 109.835 204.901 112.262C204.221 112.48 203.616 112.884 203.156 113.427C202.696 113.97 202.4 114.631 202.3 115.333C197.908 148.07 208.056 171.955 220.163 187.689C225.287 194.419 231.399 200.347 238.296 205.274C241.039 207.195 243.465 208.581 245.376 209.471C246.328 209.917 247.102 210.227 247.699 210.4C247.963 210.48 248.23 210.546 248.5 210.597C248.768 210.545 249.032 210.48 249.293 210.4C249.895 210.222 250.672 209.912 251.624 209.471C253.527 208.581 255.961 207.188 258.704 205.274C265.601 200.347 271.713 194.419 276.837 187.689C288.944 171.963 299.092 148.07 294.7 115.333C294.6 114.631 294.304 113.97 293.844 113.427C293.384 112.884 292.779 112.48 292.099 112.262C286.938 110.585 278.224 107.852 269.606 105.529C260.805 103.159 252.71 101.403 248.5 101.403C244.298 101.403 236.195 103.151 227.394 105.521ZM225.285 97.41C233.888 95.0869 243.029 93 248.5 93C253.971 93 263.112 95.0869 271.715 97.41C280.516 99.7725 289.388 102.568 294.605 104.261C296.786 104.977 298.72 106.289 300.184 108.047C301.648 109.805 302.583 111.937 302.882 114.2C307.607 149.456 296.642 175.585 283.338 192.871C277.694 200.263 270.968 206.775 263.382 212.188C260.762 214.066 257.981 215.713 255.073 217.11C252.853 218.149 250.466 219 248.5 219C246.534 219 244.155 218.149 241.927 217.11C239.019 215.713 236.238 214.066 233.618 212.188C226.032 206.775 219.306 200.263 213.662 192.871C200.358 175.585 189.393 149.456 194.118 114.2C194.417 111.937 195.352 109.805 196.816 108.047C198.28 106.289 200.214 104.977 202.395 104.261C209.969 101.796 217.601 99.512 225.285 97.41Z" fill="url(#paint7_linear_4815_1763)"/>
<path d="M227.394 105.521C219.843 107.587 212.343 109.835 204.901 112.262C204.221 112.48 203.616 112.884 203.156 113.427C202.696 113.97 202.4 114.631 202.3 115.333C197.908 148.07 208.056 171.955 220.163 187.689C225.287 194.419 231.399 200.347 238.296 205.274C241.039 207.195 243.465 208.581 245.376 209.471C246.328 209.917 247.102 210.227 247.699 210.4C247.963 210.48 248.23 210.546 248.5 210.597C248.768 210.545 249.032 210.48 249.293 210.4C249.895 210.222 250.672 209.912 251.624 209.471C253.527 208.581 255.961 207.188 258.704 205.274C265.601 200.347 271.713 194.419 276.837 187.689C288.944 171.963 299.092 148.07 294.7 115.333C294.6 114.631 294.304 113.97 293.844 113.427C293.384 112.884 292.779 112.48 292.099 112.262C286.938 110.585 278.224 107.852 269.606 105.529C260.805 103.159 252.71 101.403 248.5 101.403C244.298 101.403 236.195 103.151 227.394 105.521Z" fill="url(#paint8_linear_4815_1763)"/>
<path d="M233.583 121.277C228.625 122.643 223.7 124.129 218.814 125.734C218.368 125.878 217.971 126.144 217.669 126.503C217.367 126.862 217.172 127.299 217.107 127.764C214.222 149.405 220.886 165.194 228.835 175.596C232.2 180.045 236.213 183.963 240.741 187.22C242.542 188.491 244.135 189.407 245.39 189.995C246.015 190.29 246.523 190.495 246.915 190.609C247.088 190.662 247.264 190.705 247.441 190.739C247.617 190.705 247.791 190.662 247.962 190.609C248.357 190.491 248.868 190.287 249.492 189.995C250.742 189.407 252.34 188.485 254.141 187.22C258.669 183.963 262.683 180.045 266.047 175.596C273.996 165.199 280.66 149.405 277.776 127.764C277.711 127.299 277.516 126.862 277.214 126.503C276.912 126.144 276.515 125.878 276.068 125.734C272.679 124.625 266.958 122.818 261.299 121.283C255.521 119.716 250.206 118.555 247.441 118.555C244.682 118.555 239.362 119.71 233.583 121.277ZM232.198 115.915C237.847 114.38 243.849 113 247.441 113C251.033 113 257.036 114.38 262.684 115.915C268.463 117.477 274.288 119.325 277.713 120.444C279.146 120.917 280.415 121.785 281.377 122.947C282.338 124.109 282.952 125.519 283.148 127.014C286.251 150.321 279.051 167.594 270.316 179.021C266.61 183.908 262.193 188.212 257.213 191.791C255.492 193.032 253.667 194.121 251.757 195.045C250.299 195.732 248.732 196.294 247.441 196.294C246.15 196.294 244.588 195.732 243.126 195.045C241.216 194.121 239.39 193.032 237.67 191.791C232.689 188.212 228.272 183.908 224.567 179.021C215.831 167.594 208.631 150.321 211.734 127.014C211.93 125.519 212.544 124.109 213.506 122.947C214.467 121.785 215.737 120.917 217.169 120.444C222.142 118.815 227.153 117.305 232.198 115.915Z" fill="white"/>
<path d="M233.583 121.277C228.625 122.643 223.7 124.129 218.814 125.734C218.368 125.878 217.971 126.144 217.669 126.503C217.367 126.862 217.172 127.299 217.107 127.764C214.222 149.405 220.886 165.194 228.835 175.596C232.2 180.045 236.213 183.963 240.741 187.22C242.542 188.491 244.135 189.407 245.39 189.995C246.015 190.29 246.523 190.495 246.915 190.609C247.088 190.662 247.264 190.705 247.441 190.739C247.617 190.705 247.791 190.662 247.962 190.609C248.357 190.491 248.868 190.287 249.492 189.995C250.742 189.407 252.34 188.485 254.141 187.22C258.669 183.963 262.683 180.045 266.047 175.596C273.996 165.199 280.66 149.405 277.776 127.764C277.711 127.299 277.516 126.862 277.214 126.503C276.912 126.144 276.515 125.878 276.068 125.734C272.679 124.625 266.958 122.818 261.299 121.283C255.521 119.716 250.206 118.555 247.441 118.555C244.682 118.555 239.362 119.71 233.583 121.277Z" fill="white"/>
<mask id="path-23-outside-2_4815_1763" maskUnits="userSpaceOnUse" x="210" y="112" width="75" height="86" fill="black">
<rect fill="white" x="210" y="112" width="75" height="86"/>
<path fill-rule="evenodd" clip-rule="evenodd" d="M218.814 125.734C223.7 124.129 228.625 122.643 233.583 121.277C239.362 119.71 244.682 118.555 247.441 118.555C250.206 118.555 255.521 119.716 261.299 121.283C266.958 122.818 272.679 124.625 276.068 125.734C276.515 125.878 276.912 126.144 277.214 126.503C277.516 126.862 277.711 127.299 277.776 127.764C280.66 149.405 273.996 165.199 266.047 175.596C262.683 180.045 258.669 183.963 254.141 187.22C252.34 188.485 250.742 189.407 249.492 189.995C248.868 190.287 248.357 190.491 247.962 190.609C247.791 190.662 247.617 190.705 247.441 190.739C247.264 190.705 247.088 190.662 246.915 190.609C246.523 190.495 246.015 190.29 245.39 189.995C244.135 189.407 242.542 188.491 240.741 187.22C236.213 183.963 232.2 180.045 228.835 175.596C220.886 165.194 214.222 149.405 217.107 127.764C217.172 127.299 217.367 126.862 217.669 126.503C217.971 126.144 218.368 125.878 218.814 125.734ZM247.441 113C243.849 113 237.847 114.38 232.198 115.915C227.153 117.305 222.142 118.815 217.169 120.444C215.737 120.917 214.467 121.785 213.506 122.947C212.544 124.109 211.93 125.519 211.734 127.014C208.631 150.321 215.831 167.594 224.567 179.021C228.272 183.908 232.689 188.212 237.67 191.791C239.39 193.032 241.216 194.121 243.126 195.045C244.588 195.732 246.15 196.294 247.441 196.294C248.732 196.294 250.299 195.732 251.757 195.045C253.667 194.121 255.492 193.032 257.213 191.791C262.193 188.212 266.61 183.908 270.316 179.021C279.051 167.594 286.251 150.321 283.148 127.014C282.952 125.519 282.338 124.109 281.377 122.947C280.415 121.785 279.146 120.917 277.713 120.444C274.288 119.325 268.463 117.477 262.684 115.915C257.036 114.38 251.033 113 247.441 113ZM247.383 125.382C241.018 125.39 234.916 127.921 230.415 132.42C225.914 136.919 223.383 143.019 223.375 149.382C223.383 155.745 225.914 161.845 230.415 166.344C234.916 170.844 241.018 173.375 247.383 173.382C253.748 173.376 259.85 170.845 264.351 166.345C268.852 161.846 271.384 155.745 271.39 149.382C271.383 143.019 268.851 136.919 264.35 132.42C259.85 127.921 253.748 125.39 247.383 125.382ZM253.63 139.386C252.423 139.394 251.233 139.676 250.151 140.21C249.069 140.744 248.122 141.517 247.382 142.47C246.642 141.517 245.696 140.744 244.614 140.21C243.532 139.676 242.343 139.394 241.136 139.386C236.636 139.386 232.977 143.258 232.977 148.026V157.472C232.977 157.981 233.179 158.47 233.54 158.83C233.9 159.19 234.388 159.392 234.898 159.392C235.407 159.392 235.895 159.19 236.256 158.83C236.616 158.47 236.818 157.981 236.818 157.472V148.019C236.818 145.37 238.761 143.219 241.149 143.219C243.537 143.219 245.48 145.376 245.48 148.019V157.466C245.48 157.975 245.683 158.463 246.043 158.823C246.403 159.183 246.891 159.386 247.401 159.386C247.91 159.386 248.399 159.183 248.759 158.823C249.119 158.463 249.321 157.975 249.321 157.466V148.019C249.321 145.37 251.264 143.219 253.652 143.219C256.04 143.219 257.983 145.376 257.983 148.019V157.466C257.983 157.975 258.186 158.463 258.546 158.823C258.906 159.183 259.395 159.386 259.904 159.386C260.413 159.386 260.902 159.183 261.262 158.823C261.622 158.463 261.825 157.975 261.825 157.466V148.019C261.789 143.258 258.131 139.386 253.63 139.386Z"/>
</mask>
<path fill-rule="evenodd" clip-rule="evenodd" d="M218.814 125.734C223.7 124.129 228.625 122.643 233.583 121.277C239.362 119.71 244.682 118.555 247.441 118.555C250.206 118.555 255.521 119.716 261.299 121.283C266.958 122.818 272.679 124.625 276.068 125.734C276.515 125.878 276.912 126.144 277.214 126.503C277.516 126.862 277.711 127.299 277.776 127.764C280.66 149.405 273.996 165.199 266.047 175.596C262.683 180.045 258.669 183.963 254.141 187.22C252.34 188.485 250.742 189.407 249.492 189.995C248.868 190.287 248.357 190.491 247.962 190.609C247.791 190.662 247.617 190.705 247.441 190.739C247.264 190.705 247.088 190.662 246.915 190.609C246.523 190.495 246.015 190.29 245.39 189.995C244.135 189.407 242.542 188.491 240.741 187.22C236.213 183.963 232.2 180.045 228.835 175.596C220.886 165.194 214.222 149.405 217.107 127.764C217.172 127.299 217.367 126.862 217.669 126.503C217.971 126.144 218.368 125.878 218.814 125.734ZM247.441 113C243.849 113 237.847 114.38 232.198 115.915C227.153 117.305 222.142 118.815 217.169 120.444C215.737 120.917 214.467 121.785 213.506 122.947C212.544 124.109 211.93 125.519 211.734 127.014C208.631 150.321 215.831 167.594 224.567 179.021C228.272 183.908 232.689 188.212 237.67 191.791C239.39 193.032 241.216 194.121 243.126 195.045C244.588 195.732 246.15 196.294 247.441 196.294C248.732 196.294 250.299 195.732 251.757 195.045C253.667 194.121 255.492 193.032 257.213 191.791C262.193 188.212 266.61 183.908 270.316 179.021C279.051 167.594 286.251 150.321 283.148 127.014C282.952 125.519 282.338 124.109 281.377 122.947C280.415 121.785 279.146 120.917 277.713 120.444C274.288 119.325 268.463 117.477 262.684 115.915C257.036 114.38 251.033 113 247.441 113ZM247.383 125.382C241.018 125.39 234.916 127.921 230.415 132.42C225.914 136.919 223.383 143.019 223.375 149.382C223.383 155.745 225.914 161.845 230.415 166.344C234.916 170.844 241.018 173.375 247.383 173.382C253.748 173.376 259.85 170.845 264.351 166.345C268.852 161.846 271.384 155.745 271.39 149.382C271.383 143.019 268.851 136.919 264.35 132.42C259.85 127.921 253.748 125.39 247.383 125.382ZM253.63 139.386C252.423 139.394 251.233 139.676 250.151 140.21C249.069 140.744 248.122 141.517 247.382 142.47C246.642 141.517 245.696 140.744 244.614 140.21C243.532 139.676 242.343 139.394 241.136 139.386C236.636 139.386 232.977 143.258 232.977 148.026V157.472C232.977 157.981 233.179 158.47 233.54 158.83C233.9 159.19 234.388 159.392 234.898 159.392C235.407 159.392 235.895 159.19 236.256 158.83C236.616 158.47 236.818 157.981 236.818 157.472V148.019C236.818 145.37 238.761 143.219 241.149 143.219C243.537 143.219 245.48 145.376 245.48 148.019V157.466C245.48 157.975 245.683 158.463 246.043 158.823C246.403 159.183 246.891 159.386 247.401 159.386C247.91 159.386 248.399 159.183 248.759 158.823C249.119 158.463 249.321 157.975 249.321 157.466V148.019C249.321 145.37 251.264 143.219 253.652 143.219C256.04 143.219 257.983 145.376 257.983 148.019V157.466C257.983 157.975 258.186 158.463 258.546 158.823C258.906 159.183 259.395 159.386 259.904 159.386C260.413 159.386 260.902 159.183 261.262 158.823C261.622 158.463 261.825 157.975 261.825 157.466V148.019C261.789 143.258 258.131 139.386 253.63 139.386Z" fill="url(#paint9_linear_4815_1763)"/>
<path fill-rule="evenodd" clip-rule="evenodd" d="M218.814 125.734C223.7 124.129 228.625 122.643 233.583 121.277C239.362 119.71 244.682 118.555 247.441 118.555C250.206 118.555 255.521 119.716 261.299 121.283C266.958 122.818 272.679 124.625 276.068 125.734C276.515 125.878 276.912 126.144 277.214 126.503C277.516 126.862 277.711 127.299 277.776 127.764C280.66 149.405 273.996 165.199 266.047 175.596C262.683 180.045 258.669 183.963 254.141 187.22C252.34 188.485 250.742 189.407 249.492 189.995C248.868 190.287 248.357 190.491 247.962 190.609C247.791 190.662 247.617 190.705 247.441 190.739C247.264 190.705 247.088 190.662 246.915 190.609C246.523 190.495 246.015 190.29 245.39 189.995C244.135 189.407 242.542 188.491 240.741 187.22C236.213 183.963 232.2 180.045 228.835 175.596C220.886 165.194 214.222 149.405 217.107 127.764C217.172 127.299 217.367 126.862 217.669 126.503C217.971 126.144 218.368 125.878 218.814 125.734ZM247.441 113C243.849 113 237.847 114.38 232.198 115.915C227.153 117.305 222.142 118.815 217.169 120.444C215.737 120.917 214.467 121.785 213.506 122.947C212.544 124.109 211.93 125.519 211.734 127.014C208.631 150.321 215.831 167.594 224.567 179.021C228.272 183.908 232.689 188.212 237.67 191.791C239.39 193.032 241.216 194.121 243.126 195.045C244.588 195.732 246.15 196.294 247.441 196.294C248.732 196.294 250.299 195.732 251.757 195.045C253.667 194.121 255.492 193.032 257.213 191.791C262.193 188.212 266.61 183.908 270.316 179.021C279.051 167.594 286.251 150.321 283.148 127.014C282.952 125.519 282.338 124.109 281.377 122.947C280.415 121.785 279.146 120.917 277.713 120.444C274.288 119.325 268.463 117.477 262.684 115.915C257.036 114.38 251.033 113 247.441 113ZM247.383 125.382C241.018 125.39 234.916 127.921 230.415 132.42C225.914 136.919 223.383 143.019 223.375 149.382C223.383 155.745 225.914 161.845 230.415 166.344C234.916 170.844 241.018 173.375 247.383 173.382C253.748 173.376 259.85 170.845 264.351 166.345C268.852 161.846 271.384 155.745 271.39 149.382C271.383 143.019 268.851 136.919 264.35 132.42C259.85 127.921 253.748 125.39 247.383 125.382ZM253.63 139.386C252.423 139.394 251.233 139.676 250.151 140.21C249.069 140.744 248.122 141.517 247.382 142.47C246.642 141.517 245.696 140.744 244.614 140.21C243.532 139.676 242.343 139.394 241.136 139.386C236.636 139.386 232.977 143.258 232.977 148.026V157.472C232.977 157.981 233.179 158.47 233.54 158.83C233.9 159.19 234.388 159.392 234.898 159.392C235.407 159.392 235.895 159.19 236.256 158.83C236.616 158.47 236.818 157.981 236.818 157.472V148.019C236.818 145.37 238.761 143.219 241.149 143.219C243.537 143.219 245.48 145.376 245.48 148.019V157.466C245.48 157.975 245.683 158.463 246.043 158.823C246.403 159.183 246.891 159.386 247.401 159.386C247.91 159.386 248.399 159.183 248.759 158.823C249.119 158.463 249.321 157.975 249.321 157.466V148.019C249.321 145.37 251.264 143.219 253.652 143.219C256.04 143.219 257.983 145.376 257.983 148.019V157.466C257.983 157.975 258.186 158.463 258.546 158.823C258.906 159.183 259.395 159.386 259.904 159.386C260.413 159.386 260.902 159.183 261.262 158.823C261.622 158.463 261.825 157.975 261.825 157.466V148.019C261.789 143.258 258.131 139.386 253.63 139.386Z" fill="url(#paint10_linear_4815_1763)"/>
<path d="M233.583 121.277L233.321 120.312L233.318 120.313L233.583 121.277ZM218.814 125.734L219.121 126.685L219.126 126.684L218.814 125.734ZM261.299 121.283L261.561 120.317L261.561 120.317L261.299 121.283ZM276.068 125.734L275.757 126.684L275.761 126.685L276.068 125.734ZM277.214 126.503L277.979 125.86L277.979 125.86L277.214 126.503ZM277.776 127.764L278.767 127.632L278.766 127.625L277.776 127.764ZM266.047 175.596L265.253 174.988L265.249 174.992L266.047 175.596ZM254.141 187.22L254.716 188.039L254.725 188.032L254.141 187.22ZM249.492 189.995L249.915 190.901L249.918 190.9L249.492 189.995ZM247.962 190.609L247.676 189.651L247.67 189.653L247.962 190.609ZM247.441 190.739L247.252 191.721L247.443 191.758L247.633 191.721L247.441 190.739ZM246.915 190.609L247.206 189.652L247.196 189.649L246.915 190.609ZM245.39 189.995L245.817 189.091L245.815 189.09L245.39 189.995ZM240.741 187.22L240.157 188.032L240.165 188.037L240.741 187.22ZM228.835 175.596L229.633 174.992L229.63 174.988L228.835 175.596ZM217.107 127.764L216.116 127.625L216.115 127.632L217.107 127.764ZM217.669 126.503L218.434 127.147L218.434 127.147L217.669 126.503ZM232.198 115.915L231.936 114.95L231.933 114.951L232.198 115.915ZM217.169 120.444L216.858 119.494L216.855 119.495L217.169 120.444ZM213.506 122.947L214.276 123.584H214.276L213.506 122.947ZM211.734 127.014L212.725 127.146L212.726 127.144L211.734 127.014ZM224.567 179.021L225.363 178.417L225.361 178.414L224.567 179.021ZM237.67 191.791L238.255 190.98L238.253 190.979L237.67 191.791ZM243.126 195.045L242.69 195.945L242.7 195.95L243.126 195.045ZM251.757 195.045L252.183 195.949L252.192 195.945L251.757 195.045ZM257.213 191.791L256.629 190.979L256.628 190.98L257.213 191.791ZM270.316 179.021L269.521 178.414L269.519 178.417L270.316 179.021ZM283.148 127.014L282.157 127.144L282.157 127.146L283.148 127.014ZM281.377 122.947L280.606 123.584L280.606 123.584L281.377 122.947ZM277.713 120.444L278.027 119.495L278.024 119.494L277.713 120.444ZM262.684 115.915L262.422 116.88L262.423 116.881L262.684 115.915ZM230.415 132.42L229.708 131.713L229.708 131.713L230.415 132.42ZM247.383 125.382L247.384 124.382L247.381 124.382L247.383 125.382ZM223.375 149.382L222.375 149.381L222.375 149.384L223.375 149.382ZM230.415 166.344L229.708 167.052L229.708 167.052L230.415 166.344ZM247.383 173.382L247.381 174.382H247.384L247.383 173.382ZM264.351 166.345L265.058 167.053L265.058 167.053L264.351 166.345ZM271.39 149.382L272.39 149.383L272.39 149.381L271.39 149.382ZM264.35 132.42L265.057 131.713L265.057 131.713L264.35 132.42ZM250.151 140.21L249.709 139.313H249.709L250.151 140.21ZM253.63 139.386V138.386L253.623 138.386L253.63 139.386ZM247.382 142.47L246.592 143.083L247.381 144.101L248.171 143.084L247.382 142.47ZM244.614 140.21L245.057 139.314L245.057 139.313L244.614 140.21ZM241.136 139.386L241.143 138.386H241.136V139.386ZM233.54 158.83L232.833 159.537L232.833 159.537L233.54 158.83ZM236.256 158.83L236.963 159.537L236.963 159.537L236.256 158.83ZM246.043 158.823L246.75 158.116L246.043 158.823ZM248.759 158.823L248.052 158.116L248.759 158.823ZM258.546 158.823L259.253 158.116L259.253 158.116L258.546 158.823ZM261.262 158.823L260.555 158.116L260.555 158.116L261.262 158.823ZM261.825 148.019H262.825L262.825 148.012L261.825 148.019ZM233.318 120.313C228.344 121.683 223.404 123.174 218.502 124.784L219.126 126.684C223.997 125.084 228.906 123.603 233.849 122.241L233.318 120.313ZM247.441 117.555C244.526 117.555 239.076 118.752 233.321 120.312L233.845 122.242C239.647 120.669 244.838 119.555 247.441 119.555V117.555ZM261.561 120.317C255.807 118.757 250.362 117.555 247.441 117.555V119.555C250.049 119.555 255.234 120.674 261.038 122.248L261.561 120.317ZM276.379 124.783C272.982 123.672 267.243 121.859 261.561 120.317L261.037 122.248C266.673 123.777 272.376 125.578 275.757 126.684L276.379 124.783ZM277.979 125.86C277.556 125.357 277 124.983 276.375 124.782L275.761 126.685C276.029 126.772 276.267 126.932 276.448 127.147L277.979 125.86ZM278.766 127.625C278.675 126.974 278.402 126.363 277.979 125.86L276.448 127.147C276.63 127.362 276.746 127.624 276.786 127.903L278.766 127.625ZM266.841 176.203C274.933 165.621 281.69 149.565 278.767 127.632L276.785 127.896C279.63 149.244 273.06 164.778 265.253 174.988L266.841 176.203ZM254.725 188.032C259.335 184.717 263.42 180.728 266.845 176.199L265.249 174.992C261.946 179.362 258.004 183.21 253.557 186.408L254.725 188.032ZM249.918 190.9C251.229 190.283 252.877 189.33 254.716 188.039L253.566 186.402C251.803 187.64 250.254 188.531 249.066 189.09L249.918 190.9ZM248.248 191.568C248.711 191.429 249.271 191.202 249.915 190.901L249.069 189.089C248.464 189.371 248.004 189.553 247.676 189.651L248.248 191.568ZM247.633 191.721C247.843 191.68 248.05 191.628 248.254 191.566L247.67 189.653C247.531 189.695 247.391 189.73 247.249 189.758L247.633 191.721ZM246.625 191.566C246.831 191.629 247.04 191.681 247.252 191.721L247.631 189.758C247.487 189.73 247.346 189.695 247.206 189.652L246.625 191.566ZM244.963 190.899C245.608 191.204 246.17 191.433 246.635 191.569L247.196 189.649C246.876 189.556 246.422 189.376 245.817 189.091L244.963 190.899ZM240.165 188.037C242.005 189.335 243.649 190.283 244.966 190.9L245.815 189.09C244.622 188.53 243.08 187.646 241.318 186.403L240.165 188.037ZM228.038 176.199C231.462 180.728 235.548 184.717 240.157 188.032L241.325 186.408C236.878 183.21 232.937 179.362 229.633 174.992L228.038 176.199ZM216.115 127.632C213.192 149.565 219.95 165.616 228.041 176.203L229.63 174.988C221.822 164.772 215.253 149.244 218.098 127.896L216.115 127.632ZM216.903 125.86C216.48 126.363 216.208 126.974 216.116 127.625L218.097 127.903C218.136 127.624 218.253 127.362 218.434 127.147L216.903 125.86ZM218.507 124.782C217.882 124.983 217.326 125.357 216.903 125.86L218.434 127.147C218.615 126.932 218.853 126.772 219.121 126.685L218.507 124.782ZM232.461 116.88C238.132 115.338 244.005 114 247.441 114V112C243.693 112 237.562 113.421 231.936 114.95L232.461 116.88ZM217.48 121.395C222.438 119.77 227.434 118.265 232.464 116.879L231.933 114.951C226.872 116.345 221.846 117.86 216.858 119.494L217.48 121.395ZM214.276 123.584C215.118 122.567 216.229 121.808 217.483 121.394L216.855 119.495C215.245 120.027 213.816 121.002 212.735 122.309L214.276 123.584ZM212.726 127.144C212.897 125.835 213.435 124.601 214.276 123.584L212.735 122.309C211.654 123.617 210.963 125.202 210.743 126.884L212.726 127.144ZM225.361 178.414C216.767 167.172 209.662 150.16 212.725 127.146L210.743 126.882C207.601 150.481 214.895 168.016 223.772 179.628L225.361 178.414ZM238.253 190.979C233.354 187.458 229.009 183.224 225.363 178.417L223.77 179.625C227.536 184.592 232.024 188.966 237.086 192.603L238.253 190.979ZM243.561 194.144C241.704 193.246 239.928 192.187 238.255 190.98L237.085 192.602C238.852 193.877 240.728 194.996 242.69 195.945L243.561 194.144ZM247.441 195.294C246.386 195.294 244.996 194.819 243.551 194.14L242.7 195.95C244.181 196.645 245.914 197.294 247.441 197.294V195.294ZM251.33 194.14C249.892 194.818 248.496 195.294 247.441 195.294V197.294C248.968 197.294 250.706 196.646 252.183 195.949L251.33 194.14ZM256.628 190.98C254.954 192.187 253.179 193.246 251.321 194.144L252.192 195.945C254.155 194.996 256.03 193.877 257.798 192.602L256.628 190.98ZM269.519 178.417C265.874 183.224 261.529 187.458 256.629 190.979L257.796 192.603C262.858 188.966 267.347 184.592 271.113 179.625L269.519 178.417ZM282.157 127.146C285.221 150.16 278.115 167.172 269.521 178.414L271.11 179.628C279.988 168.016 287.281 150.481 284.14 126.882L282.157 127.146ZM280.606 123.584C281.448 124.601 281.985 125.835 282.157 127.144L284.14 126.884C283.919 125.202 283.229 123.617 282.147 122.309L280.606 123.584ZM277.4 121.394C278.653 121.808 279.765 122.567 280.606 123.584L282.147 122.309C281.066 121.002 279.638 120.027 278.027 119.495L277.4 121.394ZM262.423 116.881C268.177 118.436 273.984 120.278 277.403 121.395L278.024 119.494C274.592 118.372 268.748 116.518 262.945 114.95L262.423 116.881ZM247.441 114C250.877 114 256.751 115.338 262.422 116.88L262.946 114.95C257.321 113.421 251.189 112 247.441 112V114ZM231.122 133.127C235.435 128.815 241.284 126.39 247.384 126.382L247.381 124.382C240.752 124.39 234.396 127.027 229.708 131.713L231.122 133.127ZM224.375 149.384C224.382 143.286 226.809 137.439 231.122 133.127L229.708 131.713C225.02 136.399 222.383 142.753 222.375 149.381L224.375 149.384ZM231.122 165.637C226.809 161.325 224.382 155.479 224.375 149.381L222.375 149.384C222.383 156.011 225.02 162.365 229.708 167.052L231.122 165.637ZM247.384 172.382C241.284 172.375 235.435 169.949 231.122 165.637L229.708 167.052C234.396 171.738 240.752 174.374 247.381 174.382L247.384 172.382ZM263.644 165.638C259.331 169.95 253.482 172.376 247.382 172.382L247.384 174.382C254.014 174.375 260.37 171.739 265.058 167.053L263.644 165.638ZM270.39 149.381C270.384 155.479 267.958 161.326 263.644 165.638L265.058 167.053C269.746 162.366 272.383 156.011 272.39 149.383L270.39 149.381ZM263.643 133.127C267.957 137.439 270.383 143.286 270.39 149.384L272.39 149.381C272.382 142.753 269.745 136.399 265.057 131.713L263.643 133.127ZM247.381 126.382C253.482 126.39 259.33 128.815 263.643 133.127L265.057 131.713C260.369 127.027 254.013 124.39 247.384 124.382L247.381 126.382ZM250.594 141.107C251.541 140.639 252.581 140.393 253.637 140.386L253.623 138.386C252.265 138.395 250.926 138.712 249.709 139.313L250.594 141.107ZM248.171 143.084C248.819 142.25 249.647 141.574 250.594 141.107L249.709 139.313C248.491 139.915 247.425 140.784 246.592 141.857L248.171 143.084ZM244.171 141.107C245.117 141.574 245.945 142.25 246.592 143.083L248.172 141.857C247.339 140.785 246.274 139.915 245.057 139.314L244.171 141.107ZM241.13 140.386C242.185 140.393 243.225 140.639 244.171 141.107L245.057 139.313C243.839 138.712 242.501 138.395 241.143 138.386L241.13 140.386ZM233.977 148.026C233.977 143.755 237.241 140.386 241.136 140.386V138.386C236.031 138.386 231.977 142.76 231.977 148.026H233.977ZM233.977 157.472V148.026H231.977V157.472H233.977ZM234.247 158.122C234.074 157.95 233.977 157.716 233.977 157.472H231.977C231.977 158.246 232.285 158.989 232.833 159.537L234.247 158.122ZM234.898 158.392C234.653 158.392 234.419 158.295 234.247 158.122L232.833 159.537C233.38 160.084 234.123 160.392 234.898 160.392V158.392ZM235.549 158.122C235.376 158.295 235.142 158.392 234.898 158.392V160.392C235.672 160.392 236.415 160.084 236.963 159.537L235.549 158.122ZM235.818 157.472C235.818 157.716 235.721 157.95 235.549 158.122L236.963 159.537C237.51 158.989 237.818 158.246 237.818 157.472H235.818ZM235.818 148.019V157.472H237.818V148.019H235.818ZM241.149 142.219C238.115 142.219 235.818 144.916 235.818 148.019H237.818C237.818 145.823 239.407 144.219 241.149 144.219V142.219ZM246.48 148.019C246.48 144.923 244.184 142.219 241.149 142.219V144.219C242.89 144.219 244.48 145.829 244.48 148.019H246.48ZM246.48 157.466V148.019H244.48V157.466H246.48ZM246.75 158.116C246.577 157.943 246.48 157.709 246.48 157.466H244.48C244.48 158.24 244.788 158.983 245.336 159.53L246.75 158.116ZM247.401 158.386C247.157 158.386 246.922 158.288 246.75 158.116L245.336 159.53C245.884 160.078 246.626 160.386 247.401 160.386V158.386ZM248.052 158.116C247.879 158.289 247.645 158.386 247.401 158.386V160.386C248.175 160.386 248.918 160.078 249.466 159.53L248.052 158.116ZM248.321 157.466C248.321 157.709 248.225 157.943 248.052 158.116L249.466 159.53C250.014 158.983 250.321 158.24 250.321 157.466H248.321ZM248.321 148.019V157.466H250.321V148.019H248.321ZM253.652 142.219C250.618 142.219 248.321 144.916 248.321 148.019H250.321C250.321 145.823 251.911 144.219 253.652 144.219V142.219ZM258.983 148.019C258.983 144.923 256.687 142.219 253.652 142.219V144.219C255.393 144.219 256.983 145.829 256.983 148.019H258.983ZM258.983 157.466V148.019H256.983V157.466H258.983ZM259.253 158.116C259.08 157.943 258.983 157.709 258.983 157.466H256.983C256.983 158.24 257.291 158.983 257.839 159.53L259.253 158.116ZM259.904 158.386C259.66 158.386 259.426 158.288 259.253 158.116L257.839 159.53C258.387 160.078 259.13 160.386 259.904 160.386V158.386ZM260.555 158.116C260.383 158.288 260.148 158.386 259.904 158.386V160.386C260.678 160.386 261.421 160.078 261.969 159.53L260.555 158.116ZM260.825 157.466C260.825 157.709 260.728 157.943 260.555 158.116L261.969 159.53C262.517 158.983 262.825 158.24 262.825 157.466H260.825ZM260.825 148.019V157.466H262.825V148.019H260.825ZM253.63 140.386C257.525 140.386 260.793 143.756 260.825 148.027L262.825 148.012C262.786 142.759 258.736 138.386 253.63 138.386V140.386Z" fill="white" mask="url(#path-23-outside-2_4815_1763)"/>
</g>
<path d="M494.999 149.75H456.313C454.191 149.75 452.156 148.907 450.656 147.407L447.342 144.093C445.842 142.593 443.807 141.75 441.686 141.75H394.999" stroke="url(#paint11_linear_4815_1763)"/>
<path d="M494.999 160.75H446.313C444.191 160.75 442.156 159.907 440.656 158.407L439.342 157.093C437.842 155.593 435.807 154.75 433.686 154.75H394.999" stroke="url(#paint12_linear_4815_1763)"/>
<path d="M495 130.75H395" stroke="url(#paint13_linear_4815_1763)"/>
<g filter="url(#filter5_f_4815_1763)">
<circle cx="407" cy="131" r="2" fill="#BC52AD"/>
</g>
<circle cx="407" cy="131" r="1" fill="#BC52AD"/>
<g filter="url(#filter6_f_4815_1763)">
<circle cx="430" cy="142" r="2" fill="#668E4F"/>
</g>
<circle cx="430" cy="142" r="2" fill="#668E4F"/>
<path d="M495 111.25H465.814C463.692 111.25 461.657 112.093 460.157 113.593L456.843 116.907C455.343 118.407 453.308 119.25 451.186 119.25H395" stroke="url(#paint14_linear_4815_1763)"/>
<defs>
<filter id="filter0_f_4815_1763" x="65" y="13" width="365" height="246" filterUnits="userSpaceOnUse" color-interpolation-filters="sRGB">
<feFlood flood-opacity="0" result="BackgroundImageFix"/>
<feBlend mode="normal" in="SourceGraphic" in2="BackgroundImageFix" result="shape"/>
<feGaussianBlur stdDeviation="15" result="effect1_foregroundBlur_4815_1763"/>
</filter>
<filter id="filter1_f_4815_1763" x="50" y="136" width="12" height="12" filterUnits="userSpaceOnUse" color-interpolation-filters="sRGB">
<feFlood flood-opacity="0" result="BackgroundImageFix"/>
<feBlend mode="normal" in="SourceGraphic" in2="BackgroundImageFix" result="shape"/>
<feGaussianBlur stdDeviation="2" result="effect1_foregroundBlur_4815_1763"/>
</filter>
<filter id="filter2_f_4815_1763" x="81" y="125" width="12" height="12" filterUnits="userSpaceOnUse" color-interpolation-filters="sRGB">
<feFlood flood-opacity="0" result="BackgroundImageFix"/>
<feBlend mode="normal" in="SourceGraphic" in2="BackgroundImageFix" result="shape"/>
<feGaussianBlur stdDeviation="2" result="effect1_foregroundBlur_4815_1763"/>
</filter>
<filter id="filter3_b_4815_1763" x="69" y="17" width="356.999" height="238" filterUnits="userSpaceOnUse" color-interpolation-filters="sRGB">
<feFlood flood-opacity="0" result="BackgroundImageFix"/>
<feGaussianBlur in="BackgroundImageFix" stdDeviation="15"/>
<feComposite in2="SourceAlpha" operator="in" result="effect1_backgroundBlur_4815_1763"/>
<feBlend mode="normal" in="SourceGraphic" in2="effect1_backgroundBlur_4815_1763" result="shape"/>
</filter>
<filter id="filter4_f_4815_1763" x="175.625" y="77.6177" width="142.883" height="153.294" filterUnits="userSpaceOnUse" color-interpolation-filters="sRGB">
<feFlood flood-opacity="0" result="BackgroundImageFix"/>
<feBlend mode="normal" in="SourceGraphic" in2="BackgroundImageFix" result="shape"/>
<feGaussianBlur stdDeviation="15" result="effect1_foregroundBlur_4815_1763"/>
</filter>
<filter id="filter5_f_4815_1763" x="401" y="125" width="12" height="12" filterUnits="userSpaceOnUse" color-interpolation-filters="sRGB">
<feFlood flood-opacity="0" result="BackgroundImageFix"/>
<feBlend mode="normal" in="SourceGraphic" in2="BackgroundImageFix" result="shape"/>
<feGaussianBlur stdDeviation="2" result="effect1_foregroundBlur_4815_1763"/>
</filter>
<filter id="filter6_f_4815_1763" x="424" y="136" width="12" height="12" filterUnits="userSpaceOnUse" color-interpolation-filters="sRGB">
<feFlood flood-opacity="0" result="BackgroundImageFix"/>
<feBlend mode="normal" in="SourceGraphic" in2="BackgroundImageFix" result="shape"/>
<feGaussianBlur stdDeviation="2" result="effect1_foregroundBlur_4815_1763"/>
</filter>
<linearGradient id="paint0_linear_4815_1763" x1="100.297" y1="48" x2="414.328" y2="96.2366" gradientUnits="userSpaceOnUse">
<stop stop-color="#F4B62B"/>
<stop offset="0.5" stop-color="#BC52AD"/>
<stop offset="1" stop-color="#668E4F"/>
</linearGradient>
<linearGradient id="paint1_linear_4815_1763" x1="0" y1="112.5" x2="100" y2="112.5" gradientUnits="userSpaceOnUse">
<stop stop-color="#F8FAFC"/>
<stop offset="1" stop-color="#F6CB53"/>
</linearGradient>
<linearGradient id="paint2_linear_4815_1763" x1="8.53106e-07" y1="127.5" x2="100" y2="127.5" gradientUnits="userSpaceOnUse">
<stop stop-color="#F1F5F9"/>
<stop offset="1" stop-color="#F4B62B"/>
</linearGradient>
<linearGradient id="paint3_linear_4815_1763" x1="0" y1="142.5" x2="100" y2="142.5" gradientUnits="userSpaceOnUse">
<stop stop-color="#E2E8F0"/>
<stop offset="0.55" stop-color="#F4B62B"/>
<stop offset="1" stop-color="#BC52AD"/>
</linearGradient>
<linearGradient id="paint4_linear_4815_1763" x1="0" y1="159.5" x2="100" y2="159.5" gradientUnits="userSpaceOnUse">
<stop stop-color="#F8FAFC"/>
<stop offset="1" stop-color="#F4B62B"/>
</linearGradient>
<linearGradient id="paint5_linear_4815_1763" x1="100.297" y1="48" x2="414.327" y2="96.2363" gradientUnits="userSpaceOnUse">
<stop stop-color="#F4B62B"/>
<stop offset="0.5" stop-color="#BC52AD"/>
<stop offset="1" stop-color="#4F868E"/>
</linearGradient>
<linearGradient id="paint6_linear_4815_1763" x1="210.698" y1="112.618" x2="289.606" y2="118.945" gradientUnits="userSpaceOnUse">
<stop stop-color="#668E4F"/>
<stop offset="0.5" stop-color="#BC52AD"/>
<stop offset="1" stop-color="#F4B62B"/>
</linearGradient>
<linearGradient id="paint7_linear_4815_1763" x1="193" y1="138.868" x2="304" y2="138.868" gradientUnits="userSpaceOnUse">
<stop offset="0.005" stop-color="white" stop-opacity="0"/>
<stop offset="0.49" stop-color="white" stop-opacity="0"/>
<stop offset="0.495" stop-color="white" stop-opacity="0.8"/>
<stop offset="0.985" stop-color="white" stop-opacity="0"/>
</linearGradient>
<linearGradient id="paint8_linear_4815_1763" x1="193" y1="138.868" x2="304" y2="138.868" gradientUnits="userSpaceOnUse">
<stop offset="0.005" stop-color="white" stop-opacity="0"/>
<stop offset="0.49" stop-color="white" stop-opacity="0"/>
<stop offset="0.495" stop-color="white" stop-opacity="0.8"/>
<stop offset="0.985" stop-color="white" stop-opacity="0"/>
</linearGradient>
<linearGradient id="paint9_linear_4815_1763" x1="211" y1="139.654" x2="284.299" y2="139.654" gradientUnits="userSpaceOnUse">
<stop stop-color="#9AC2C6"/>
<stop offset="0.5" stop-color="#69A0A7"/>
<stop offset="0.5" stop-color="#4F868E"/>
<stop offset="1" stop-color="#69A0A7"/>
</linearGradient>
<linearGradient id="paint10_linear_4815_1763" x1="247.441" y1="151.279" x2="247.441" y2="196.294" gradientUnits="userSpaceOnUse">
<stop stop-color="#4F868E" stop-opacity="0"/>
<stop offset="1" stop-color="#BC52AD"/>
</linearGradient>
<linearGradient id="paint11_linear_4815_1763" x1="494.999" y1="149.75" x2="394.999" y2="149.75" gradientUnits="userSpaceOnUse">
<stop stop-color="#F1F5F9"/>
<stop offset="0.83" stop-color="#668E4F"/>
</linearGradient>
<linearGradient id="paint12_linear_4815_1763" x1="494.999" y1="160.25" x2="394.999" y2="160.25" gradientUnits="userSpaceOnUse">
<stop stop-color="#F8FAFC"/>
<stop offset="1" stop-color="#86AD6E"/>
</linearGradient>
<linearGradient id="paint13_linear_4815_1763" x1="495" y1="130.25" x2="395" y2="130.25" gradientUnits="userSpaceOnUse">
<stop stop-color="#E2E8F0"/>
<stop offset="0.44" stop-color="#668E4F"/>
<stop offset="0.9" stop-color="#BC52AD"/>
</linearGradient>
<linearGradient id="paint14_linear_4815_1763" x1="495" y1="113.25" x2="395" y2="113.25" gradientUnits="userSpaceOnUse">
<stop stop-color="#F8FAFC"/>
<stop offset="1" stop-color="#86AD6E"/>
</linearGradient>
<clipPath id="clip0_4815_1763">
<rect width="294.999" height="52" fill="white" transform="translate(100 48)"/>
</clipPath>
<clipPath id="clip1_4815_1763">
<rect width="47" height="16" fill="white" transform="translate(112 66)"/>
</clipPath>
</defs>
</svg>
