<svg width="268" height="128" viewBox="0 0 268 128" fill="none" xmlns="http://www.w3.org/2000/svg">
<g filter="url(#filter0_bd_6417_7272)">
<path d="M14 64C14 36.3858 36.3858 14 64 14H204C231.614 14 254 36.3858 254 64C254 91.6142 231.614 114 204 114H64C36.3858 114 14 91.6142 14 64Z" fill="white" fill-opacity="0.05" shape-rendering="crispEdges"/>
<path d="M14.5 64C14.5 36.6619 36.6619 14.5 64 14.5H204C231.338 14.5 253.5 36.6619 253.5 64C253.5 91.3381 231.338 113.5 204 113.5H64C36.6619 113.5 14.5 91.3381 14.5 64Z" stroke="url(#paint0_linear_6417_7272)" shape-rendering="crispEdges"/>
</g>
<path d="M0.5 64C0.5 28.9299 28.9299 0.5 64 0.5H204C239.07 0.5 267.5 28.9299 267.5 64C267.5 99.0701 239.07 127.5 204 127.5H64C28.9299 127.5 0.5 99.0701 0.5 64Z" stroke="url(#paint1_linear_6417_7272)"/>
<path opacity="0.9" d="M74.99 65.7426L59.0825 74.9726C57.7325 75.7551 56 74.8076 56 73.2301V54.7701C56 53.1951 57.73 52.2451 59.0825 53.0301L74.99 62.2601C75.2971 62.4354 75.5524 62.6888 75.7299 62.9946C75.9075 63.3004 76.001 63.6477 76.001 64.0013C76.001 64.3549 75.9075 64.7023 75.7299 65.0081C75.5524 65.3139 75.2971 65.5673 74.99 65.7426Z" fill="white"/>
<path d="M103.552 62.16C102.976 62.16 102.424 62.0907 101.896 61.952C101.368 61.808 100.885 61.5973 100.448 61.32C100.016 61.0373 99.6587 60.688 99.376 60.272C99.0933 59.8507 98.92 59.36 98.856 58.8H100.872C100.957 59.1893 101.125 59.5173 101.376 59.784C101.632 60.0507 101.955 60.2533 102.344 60.392C102.733 60.5307 103.168 60.6 103.648 60.6C104.075 60.6 104.472 60.536 104.84 60.408C105.208 60.28 105.507 60.0907 105.736 59.84C105.965 59.584 106.08 59.2693 106.08 58.896C106.08 58.4747 105.931 58.1467 105.632 57.912C105.339 57.672 104.917 57.4827 104.368 57.344L102.104 56.808C101.517 56.6747 101.005 56.48 100.568 56.224C100.136 55.968 99.8 55.632 99.56 55.216C99.32 54.7947 99.2 54.28 99.2 53.672C99.2 52.9787 99.3893 52.3787 99.768 51.872C100.152 51.3653 100.672 50.976 101.328 50.704C101.984 50.4267 102.723 50.288 103.544 50.288C104.483 50.288 105.275 50.4453 105.92 50.76C106.565 51.0693 107.056 51.4853 107.392 52.008C107.728 52.5307 107.899 53.104 107.904 53.728H105.936C105.893 53.264 105.757 52.8987 105.528 52.632C105.299 52.36 105.008 52.1627 104.656 52.04C104.304 51.9173 103.915 51.856 103.488 51.856C102.731 51.856 102.168 52.0187 101.8 52.344C101.432 52.6693 101.248 53.0507 101.248 53.488C101.248 53.8987 101.384 54.224 101.656 54.464C101.928 54.704 102.344 54.8907 102.904 55.024L105.056 55.528C105.776 55.6773 106.355 55.9067 106.792 56.216C107.229 56.5253 107.547 56.8933 107.744 57.32C107.947 57.7413 108.048 58.208 108.048 58.72C108.048 59.392 107.856 59.9867 107.472 60.504C107.093 61.0213 106.568 61.4267 105.896 61.72C105.224 62.0133 104.443 62.16 103.552 62.16ZM113.699 62.16C112.905 62.16 112.203 61.992 111.595 61.656C110.993 61.3147 110.521 60.8293 110.179 60.2C109.843 59.5707 109.675 58.8213 109.675 57.952C109.675 57.104 109.827 56.352 110.131 55.696C110.441 55.0347 110.886 54.5147 111.467 54.136C112.054 53.7573 112.761 53.568 113.587 53.568C114.403 53.568 115.089 53.7413 115.643 54.088C116.198 54.4347 116.619 54.92 116.907 55.544C117.195 56.1627 117.339 56.888 117.339 57.72V58.312H111.619C111.614 58.7813 111.689 59.1973 111.843 59.56C111.998 59.9227 112.227 60.208 112.531 60.416C112.835 60.6187 113.211 60.72 113.659 60.72C114.118 60.72 114.515 60.6187 114.851 60.416C115.193 60.208 115.419 59.8933 115.531 59.472H117.307C117.211 60.048 116.982 60.536 116.619 60.936C116.262 61.336 115.825 61.64 115.307 61.848C114.795 62.056 114.259 62.16 113.699 62.16ZM111.611 57.104H115.499C115.499 56.704 115.427 56.344 115.283 56.024C115.145 55.6987 114.934 55.4427 114.651 55.256C114.369 55.064 114.011 54.968 113.579 54.968C113.153 54.968 112.793 55.072 112.499 55.28C112.206 55.488 111.985 55.7573 111.835 56.088C111.686 56.4133 111.611 56.752 111.611 57.104ZM122.936 62.16C122.141 62.16 121.44 61.992 120.832 61.656C120.229 61.3147 119.757 60.8293 119.416 60.2C119.08 59.5707 118.912 58.8213 118.912 57.952C118.912 57.104 119.064 56.352 119.368 55.696C119.677 55.0347 120.122 54.5147 120.704 54.136C121.29 53.7573 121.997 53.568 122.824 53.568C123.64 53.568 124.325 53.7413 124.88 54.088C125.434 54.4347 125.856 54.92 126.144 55.544C126.432 56.1627 126.576 56.888 126.576 57.72V58.312H120.856C120.85 58.7813 120.925 59.1973 121.08 59.56C121.234 59.9227 121.464 60.208 121.768 60.416C122.072 60.6187 122.448 60.72 122.896 60.72C123.354 60.72 123.752 60.6187 124.088 60.416C124.429 60.208 124.656 59.8933 124.768 59.472H126.544C126.448 60.048 126.218 60.536 125.856 60.936C125.498 61.336 125.061 61.64 124.544 61.848C124.032 62.056 123.496 62.16 122.936 62.16ZM120.848 57.104H124.736C124.736 56.704 124.664 56.344 124.52 56.024C124.381 55.6987 124.17 55.4427 123.888 55.256C123.605 55.064 123.248 54.968 122.816 54.968C122.389 54.968 122.029 55.072 121.736 55.28C121.442 55.488 121.221 55.7573 121.072 56.088C120.922 56.4133 120.848 56.752 120.848 57.104ZM135.583 62.16C134.794 62.16 134.106 61.992 133.519 61.656C132.933 61.3147 132.477 60.8267 132.151 60.192C131.831 59.5573 131.671 58.7947 131.671 57.904C131.671 57.04 131.829 56.2827 132.143 55.632C132.458 54.9813 132.906 54.4747 133.487 54.112C134.074 53.7493 134.775 53.568 135.591 53.568C136.381 53.568 137.066 53.7413 137.648 54.088C138.229 54.4347 138.677 54.9307 138.991 55.576C139.312 56.2213 139.472 56.9973 139.472 57.904C139.472 58.7413 139.32 59.48 139.016 60.12C138.717 60.7547 138.277 61.2533 137.695 61.616C137.12 61.9787 136.416 62.16 135.583 62.16ZM135.591 60.68C136.039 60.68 136.407 60.5573 136.695 60.312C136.989 60.0667 137.207 59.7307 137.352 59.304C137.496 58.8773 137.568 58.392 137.568 57.848C137.568 57.3413 137.504 56.8747 137.376 56.448C137.247 56.0213 137.037 55.68 136.743 55.424C136.455 55.1627 136.071 55.032 135.591 55.032C135.138 55.032 134.762 55.152 134.463 55.392C134.17 55.6267 133.951 55.9573 133.807 56.384C133.663 56.8053 133.591 57.2933 133.591 57.848C133.591 58.3493 133.655 58.816 133.783 59.248C133.911 59.6747 134.122 60.0213 134.415 60.288C134.709 60.5493 135.101 60.68 135.591 60.68ZM144.325 62.16C143.92 62.16 143.528 62.1013 143.149 61.984C142.776 61.8613 142.44 61.6853 142.141 61.456C141.843 61.2213 141.605 60.9333 141.429 60.592C141.253 60.2507 141.165 59.8533 141.165 59.4V53.728H143.117V59.176C143.117 59.624 143.259 59.992 143.541 60.28C143.829 60.568 144.261 60.712 144.837 60.712C145.36 60.712 145.779 60.576 146.093 60.304C146.408 60.0267 146.565 59.6293 146.565 59.112V53.728H148.501V62H147.005L146.789 60.384C146.688 60.8373 146.509 61.1947 146.253 61.456C146.003 61.712 145.707 61.8933 145.365 62C145.029 62.1067 144.683 62.16 144.325 62.16ZM150.865 62V53.728H152.729V55.52C152.863 55.1093 153.052 54.76 153.297 54.472C153.548 54.1787 153.841 53.9547 154.177 53.8C154.513 53.6453 154.879 53.568 155.273 53.568C155.369 53.568 155.463 53.5733 155.553 53.584C155.644 53.5947 155.711 53.6133 155.753 53.64V55.504C155.695 55.4773 155.617 55.4587 155.521 55.448C155.431 55.4373 155.351 55.432 155.281 55.432C154.881 55.4 154.527 55.416 154.217 55.48C153.913 55.544 153.655 55.6533 153.441 55.808C153.233 55.9573 153.076 56.1493 152.969 56.384C152.863 56.6133 152.809 56.8827 152.809 57.192V62H150.865ZM163.359 62L160.303 53.728H162.087L164.071 59.52H164.175L166.151 53.728H167.943L164.895 62H163.359ZM169.434 62V53.728H171.298V62H169.434ZM169.402 52.28V50.44H171.33V52.28H169.402ZM176.775 62.16C176.199 62.16 175.652 62.0693 175.135 61.888C174.623 61.7013 174.191 61.4107 173.839 61.016C173.492 60.6213 173.274 60.112 173.183 59.488H174.895C174.97 59.792 175.1 60.04 175.287 60.232C175.479 60.424 175.703 60.5653 175.959 60.656C176.22 60.7413 176.49 60.784 176.767 60.784C177.263 60.784 177.663 60.6987 177.967 60.528C178.271 60.3573 178.423 60.0933 178.423 59.736C178.423 59.4747 178.338 59.2667 178.167 59.112C178.002 58.9573 177.73 58.84 177.351 58.76L175.783 58.4C175.079 58.2453 174.516 57.9893 174.095 57.632C173.674 57.2747 173.46 56.7707 173.455 56.12C173.45 55.6293 173.572 55.192 173.823 54.808C174.074 54.424 174.447 54.1227 174.943 53.904C175.439 53.68 176.05 53.568 176.775 53.568C177.74 53.568 178.514 53.784 179.095 54.216C179.682 54.6427 179.983 55.2533 179.999 56.048H178.343C178.284 55.6907 178.116 55.4133 177.839 55.216C177.562 55.0133 177.202 54.912 176.759 54.912C176.3 54.912 175.924 55 175.631 55.176C175.338 55.352 175.191 55.6213 175.191 55.984C175.191 56.2347 175.3 56.432 175.519 56.576C175.743 56.72 176.082 56.8427 176.535 56.944L178.023 57.304C178.45 57.4107 178.799 57.5547 179.071 57.736C179.343 57.9173 179.554 58.1173 179.703 58.336C179.858 58.5493 179.964 58.7707 180.023 59C180.087 59.224 180.119 59.432 180.119 59.624C180.119 60.1573 179.98 60.6133 179.703 60.992C179.431 61.3653 179.044 61.6533 178.543 61.856C178.047 62.0587 177.458 62.16 176.775 62.16ZM182 62V53.728H183.864V62H182ZM181.968 52.28V50.44H183.896V52.28H181.968ZM189.645 62.16C188.856 62.16 188.168 61.992 187.581 61.656C186.995 61.3147 186.539 60.8267 186.213 60.192C185.893 59.5573 185.733 58.7947 185.733 57.904C185.733 57.04 185.891 56.2827 186.205 55.632C186.52 54.9813 186.968 54.4747 187.549 54.112C188.136 53.7493 188.837 53.568 189.653 53.568C190.443 53.568 191.128 53.7413 191.709 54.088C192.291 54.4347 192.739 54.9307 193.053 55.576C193.373 56.2213 193.533 56.9973 193.533 57.904C193.533 58.7413 193.381 59.48 193.077 60.12C192.779 60.7547 192.339 61.2533 191.757 61.616C191.181 61.9787 190.477 62.16 189.645 62.16ZM189.653 60.68C190.101 60.68 190.469 60.5573 190.757 60.312C191.051 60.0667 191.269 59.7307 191.413 59.304C191.557 58.8773 191.629 58.392 191.629 57.848C191.629 57.3413 191.565 56.8747 191.437 56.448C191.309 56.0213 191.099 55.68 190.805 55.424C190.517 55.1627 190.133 55.032 189.653 55.032C189.2 55.032 188.824 55.152 188.525 55.392C188.232 55.6267 188.013 55.9573 187.869 56.384C187.725 56.8053 187.653 57.2933 187.653 57.848C187.653 58.3493 187.717 58.816 187.845 59.248C187.973 59.6747 188.184 60.0213 188.477 60.288C188.771 60.5493 189.163 60.68 189.653 60.68ZM195.394 62V53.728H197.298V54.912C197.426 54.6987 197.599 54.4933 197.818 54.296C198.042 54.0987 198.317 53.9387 198.642 53.816C198.967 53.6933 199.349 53.632 199.786 53.632C200.298 53.632 200.773 53.7333 201.21 53.936C201.653 54.1387 202.007 54.456 202.274 54.888C202.546 55.32 202.682 55.8773 202.682 56.56V62H200.73V56.792C200.73 56.248 200.581 55.8453 200.282 55.584C199.983 55.3173 199.607 55.184 199.154 55.184C198.845 55.184 198.551 55.2373 198.274 55.344C197.997 55.4453 197.77 55.6027 197.594 55.816C197.423 56.024 197.338 56.2853 197.338 56.6V62H195.394Z" fill="white"/>
<path opacity="0.75" d="M99.05 80V71.324H100.508V80H99.05ZM102.451 80V73.796H103.879V74.684C103.975 74.524 104.104 74.37 104.269 74.222C104.437 74.074 104.643 73.954 104.887 73.862C105.131 73.77 105.417 73.724 105.745 73.724C106.129 73.724 106.485 73.8 106.813 73.952C107.145 74.104 107.411 74.342 107.611 74.666C107.815 74.99 107.917 75.408 107.917 75.92V80H106.453V76.094C106.453 75.686 106.341 75.384 106.117 75.188C105.893 74.988 105.611 74.888 105.271 74.888C105.039 74.888 104.819 74.928 104.611 75.008C104.403 75.084 104.233 75.202 104.101 75.362C103.973 75.518 103.909 75.714 103.909 75.95V80H102.451ZM112.133 81.992C111.801 81.992 111.587 81.964 111.491 81.908C111.395 81.856 111.347 81.83 111.347 81.83L111.341 80.858L111.887 80.822C112.147 80.79 112.329 80.716 112.433 80.6C112.537 80.488 112.589 80.312 112.589 80.072V73.796H114.047V80.102C114.047 80.734 113.899 81.206 113.603 81.518C113.311 81.834 112.821 81.992 112.133 81.992ZM112.559 72.71V71.33H114.071V72.71H112.559ZM118.059 80.12C117.755 80.12 117.461 80.076 117.177 79.988C116.897 79.896 116.645 79.764 116.421 79.592C116.197 79.416 116.019 79.2 115.887 78.944C115.755 78.688 115.689 78.39 115.689 78.05V73.796H117.153V77.882C117.153 78.218 117.259 78.494 117.471 78.71C117.687 78.926 118.011 79.034 118.443 79.034C118.835 79.034 119.149 78.932 119.385 78.728C119.621 78.52 119.739 78.222 119.739 77.834V73.796H121.191V80H120.069L119.907 78.788C119.831 79.128 119.697 79.396 119.505 79.592C119.317 79.784 119.095 79.92 118.839 80C118.587 80.08 118.327 80.12 118.059 80.12ZM125.281 80.12C124.849 80.12 124.439 80.052 124.051 79.916C123.667 79.776 123.343 79.558 123.079 79.262C122.819 78.966 122.655 78.584 122.587 78.116H123.871C123.927 78.344 124.025 78.53 124.165 78.674C124.309 78.818 124.477 78.924 124.669 78.992C124.865 79.056 125.067 79.088 125.275 79.088C125.647 79.088 125.947 79.024 126.175 78.896C126.403 78.768 126.517 78.57 126.517 78.302C126.517 78.106 126.453 77.95 126.325 77.834C126.201 77.718 125.997 77.63 125.713 77.57L124.537 77.3C124.009 77.184 123.587 76.992 123.271 76.724C122.955 76.456 122.795 76.078 122.791 75.59C122.787 75.222 122.879 74.894 123.067 74.606C123.255 74.318 123.535 74.092 123.907 73.928C124.279 73.76 124.737 73.676 125.281 73.676C126.005 73.676 126.585 73.838 127.021 74.162C127.461 74.482 127.687 74.94 127.699 75.536H126.457C126.413 75.268 126.287 75.06 126.079 74.912C125.871 74.76 125.601 74.684 125.269 74.684C124.925 74.684 124.643 74.75 124.423 74.882C124.203 75.014 124.093 75.216 124.093 75.488C124.093 75.676 124.175 75.824 124.339 75.932C124.507 76.04 124.761 76.132 125.101 76.208L126.217 76.478C126.537 76.558 126.799 76.666 127.003 76.802C127.207 76.938 127.365 77.088 127.477 77.252C127.593 77.412 127.673 77.578 127.717 77.75C127.765 77.918 127.789 78.074 127.789 78.218C127.789 78.618 127.685 78.96 127.477 79.244C127.273 79.524 126.983 79.74 126.607 79.892C126.235 80.044 125.793 80.12 125.281 80.12ZM131.596 80.048C131.104 80.048 130.722 79.984 130.45 79.856C130.182 79.724 129.996 79.538 129.892 79.298C129.788 79.058 129.736 78.772 129.736 78.44V74.828H128.728V73.796H129.778L130.144 71.954H131.194V73.79H132.58V74.828H131.194L131.2 78.386C131.2 78.57 131.22 78.706 131.26 78.794C131.304 78.878 131.372 78.934 131.464 78.962C131.56 78.986 131.686 78.998 131.842 78.998H132.61V79.922C132.526 79.954 132.402 79.982 132.238 80.006C132.078 80.034 131.864 80.048 131.596 80.048ZM140.13 80.132C139.578 80.132 139.064 80.042 138.588 79.862C138.116 79.678 137.708 79.426 137.364 79.106C137.024 78.786 136.77 78.42 136.602 78.008L137.784 77.384C137.932 77.68 138.108 77.946 138.312 78.182C138.52 78.418 138.762 78.604 139.038 78.74C139.318 78.872 139.638 78.938 139.998 78.938C140.562 78.938 141.014 78.782 141.354 78.47C141.698 78.154 141.87 77.734 141.87 77.21C141.87 76.886 141.79 76.598 141.63 76.346C141.474 76.094 141.26 75.898 140.988 75.758C140.72 75.614 140.414 75.542 140.07 75.542C139.866 75.542 139.674 75.56 139.494 75.596C139.318 75.632 139.14 75.7 138.96 75.8C138.78 75.896 138.586 76.042 138.378 76.238C138.338 76.258 138.308 76.268 138.288 76.268C138.272 76.264 138.242 76.252 138.198 76.232L137.076 75.776L137.472 71.324H142.866L142.812 72.542H138.66L138.462 74.954C138.77 74.738 139.08 74.582 139.392 74.486C139.704 74.39 140.048 74.342 140.424 74.342C140.976 74.342 141.478 74.45 141.93 74.666C142.382 74.882 142.742 75.2 143.01 75.62C143.278 76.04 143.412 76.554 143.412 77.162C143.412 77.77 143.276 78.296 143.004 78.74C142.736 79.184 142.356 79.528 141.864 79.772C141.376 80.012 140.798 80.132 140.13 80.132ZM147.8 80.132C146.796 80.132 146.006 79.754 145.43 78.998C144.858 78.242 144.572 77.14 144.572 75.692C144.572 74.716 144.704 73.896 144.968 73.232C145.232 72.564 145.606 72.06 146.09 71.72C146.574 71.376 147.146 71.204 147.806 71.204C148.798 71.204 149.582 71.586 150.158 72.35C150.738 73.11 151.028 74.22 151.028 75.68C151.028 77.132 150.74 78.238 150.164 78.998C149.592 79.754 148.804 80.132 147.8 80.132ZM147.806 78.914C148.37 78.914 148.79 78.664 149.066 78.164C149.342 77.664 149.48 76.838 149.48 75.686C149.48 74.51 149.34 73.666 149.06 73.154C148.78 72.642 148.36 72.386 147.8 72.386C147.24 72.386 146.816 72.644 146.528 73.16C146.244 73.676 146.102 74.518 146.102 75.686C146.102 76.834 146.244 77.66 146.528 78.164C146.816 78.664 147.242 78.914 147.806 78.914ZM157.704 80.12C157.272 80.12 156.862 80.052 156.474 79.916C156.09 79.776 155.766 79.558 155.502 79.262C155.242 78.966 155.078 78.584 155.01 78.116H156.294C156.35 78.344 156.448 78.53 156.588 78.674C156.732 78.818 156.9 78.924 157.092 78.992C157.288 79.056 157.49 79.088 157.698 79.088C158.07 79.088 158.37 79.024 158.598 78.896C158.826 78.768 158.94 78.57 158.94 78.302C158.94 78.106 158.876 77.95 158.748 77.834C158.624 77.718 158.42 77.63 158.136 77.57L156.96 77.3C156.432 77.184 156.01 76.992 155.694 76.724C155.378 76.456 155.218 76.078 155.214 75.59C155.21 75.222 155.302 74.894 155.49 74.606C155.678 74.318 155.958 74.092 156.33 73.928C156.702 73.76 157.16 73.676 157.704 73.676C158.428 73.676 159.008 73.838 159.444 74.162C159.884 74.482 160.11 74.94 160.122 75.536H158.88C158.836 75.268 158.71 75.06 158.502 74.912C158.294 74.76 158.024 74.684 157.692 74.684C157.348 74.684 157.066 74.75 156.846 74.882C156.626 75.014 156.516 75.216 156.516 75.488C156.516 75.676 156.598 75.824 156.762 75.932C156.93 76.04 157.184 76.132 157.524 76.208L158.64 76.478C158.96 76.558 159.222 76.666 159.426 76.802C159.63 76.938 159.788 77.088 159.9 77.252C160.016 77.412 160.096 77.578 160.14 77.75C160.188 77.918 160.212 78.074 160.212 78.218C160.212 78.618 160.108 78.96 159.9 79.244C159.696 79.524 159.406 79.74 159.03 79.892C158.658 80.044 158.216 80.12 157.704 80.12ZM164.341 80.12C163.745 80.12 163.219 79.994 162.763 79.742C162.311 79.486 161.957 79.122 161.701 78.65C161.449 78.178 161.323 77.616 161.323 76.964C161.323 76.328 161.437 75.764 161.665 75.272C161.897 74.776 162.231 74.386 162.667 74.102C163.107 73.818 163.637 73.676 164.257 73.676C164.869 73.676 165.383 73.806 165.799 74.066C166.215 74.326 166.531 74.69 166.747 75.158C166.963 75.622 167.071 76.166 167.071 76.79V77.234H162.781C162.777 77.586 162.833 77.898 162.949 78.17C163.065 78.442 163.237 78.656 163.465 78.812C163.693 78.964 163.975 79.04 164.311 79.04C164.655 79.04 164.953 78.964 165.205 78.812C165.461 78.656 165.631 78.42 165.715 78.104H167.047C166.975 78.536 166.803 78.902 166.531 79.202C166.263 79.502 165.935 79.73 165.547 79.886C165.163 80.042 164.761 80.12 164.341 80.12ZM162.775 76.328H165.691C165.691 76.028 165.637 75.758 165.529 75.518C165.425 75.274 165.267 75.082 165.055 74.942C164.843 74.798 164.575 74.726 164.251 74.726C163.931 74.726 163.661 74.804 163.441 74.96C163.221 75.116 163.055 75.318 162.943 75.566C162.831 75.81 162.775 76.064 162.775 76.328ZM171.13 80.12C170.562 80.12 170.056 79.996 169.612 79.748C169.172 79.496 168.826 79.132 168.574 78.656C168.322 78.176 168.196 77.598 168.196 76.922C168.196 76.278 168.314 75.714 168.55 75.23C168.79 74.742 169.128 74.362 169.564 74.09C170.004 73.814 170.526 73.676 171.13 73.676C171.614 73.676 172.04 73.772 172.408 73.964C172.776 74.156 173.07 74.422 173.29 74.762C173.514 75.102 173.648 75.488 173.692 75.92H172.45C172.418 75.732 172.348 75.554 172.24 75.386C172.132 75.214 171.986 75.076 171.802 74.972C171.622 74.864 171.402 74.81 171.142 74.81C170.674 74.81 170.296 74.982 170.008 75.326C169.72 75.67 169.576 76.198 169.576 76.91C169.576 77.566 169.712 78.088 169.984 78.476C170.26 78.864 170.654 79.058 171.166 79.058C171.422 79.058 171.642 79.002 171.826 78.89C172.01 78.774 172.154 78.632 172.258 78.464C172.366 78.292 172.434 78.12 172.462 77.948H173.674C173.638 78.368 173.508 78.742 173.284 79.07C173.06 79.398 172.764 79.656 172.396 79.844C172.028 80.028 171.606 80.12 171.13 80.12ZM177.717 80.12C177.125 80.12 176.609 79.994 176.169 79.742C175.729 79.486 175.387 79.12 175.143 78.644C174.903 78.168 174.783 77.596 174.783 76.928C174.783 76.28 174.901 75.712 175.137 75.224C175.373 74.736 175.709 74.356 176.145 74.084C176.585 73.812 177.111 73.676 177.723 73.676C178.315 73.676 178.829 73.806 179.265 74.066C179.701 74.326 180.037 74.698 180.273 75.182C180.513 75.666 180.633 76.248 180.633 76.928C180.633 77.556 180.519 78.11 180.291 78.59C180.067 79.066 179.737 79.44 179.301 79.712C178.869 79.984 178.341 80.12 177.717 80.12ZM177.723 79.01C178.059 79.01 178.335 78.918 178.551 78.734C178.771 78.55 178.935 78.298 179.043 77.978C179.151 77.658 179.205 77.294 179.205 76.886C179.205 76.506 179.157 76.156 179.061 75.836C178.965 75.516 178.807 75.26 178.587 75.068C178.371 74.872 178.083 74.774 177.723 74.774C177.383 74.774 177.101 74.864 176.877 75.044C176.657 75.22 176.493 75.468 176.385 75.788C176.277 76.104 176.223 76.47 176.223 76.886C176.223 77.262 176.271 77.612 176.367 77.936C176.463 78.256 176.621 78.516 176.841 78.716C177.061 78.912 177.355 79.01 177.723 79.01ZM182.029 80V73.796H183.457V74.684C183.553 74.524 183.683 74.37 183.847 74.222C184.015 74.074 184.221 73.954 184.465 73.862C184.709 73.77 184.995 73.724 185.323 73.724C185.707 73.724 186.063 73.8 186.391 73.952C186.723 74.104 186.989 74.342 187.189 74.666C187.393 74.99 187.495 75.408 187.495 75.92V80H186.031V76.094C186.031 75.686 185.919 75.384 185.695 75.188C185.471 74.988 185.189 74.888 184.849 74.888C184.617 74.888 184.397 74.928 184.189 75.008C183.981 75.084 183.811 75.202 183.679 75.362C183.551 75.518 183.487 75.714 183.487 75.95V80H182.029ZM191.424 80.12C190.604 80.12 189.96 79.838 189.492 79.274C189.024 78.71 188.79 77.908 188.79 76.868C188.79 76.22 188.884 75.658 189.072 75.182C189.264 74.702 189.546 74.332 189.918 74.072C190.29 73.808 190.748 73.676 191.292 73.676C191.548 73.676 191.78 73.708 191.988 73.772C192.2 73.832 192.388 73.912 192.552 74.012C192.716 74.112 192.854 74.222 192.966 74.342C193.082 74.462 193.172 74.582 193.236 74.702V71.084H194.706V80H193.626L193.464 78.728C193.412 78.876 193.338 79.032 193.242 79.196C193.15 79.356 193.024 79.506 192.864 79.646C192.708 79.786 192.512 79.9 192.276 79.988C192.04 80.076 191.756 80.12 191.424 80.12ZM191.724 79.046C192.248 79.046 192.63 78.876 192.87 78.536C193.114 78.192 193.236 77.624 193.236 76.832C193.232 76.38 193.176 76 193.068 75.692C192.964 75.384 192.804 75.152 192.588 74.996C192.372 74.84 192.09 74.762 191.742 74.762C191.302 74.762 190.94 74.924 190.656 75.248C190.376 75.572 190.236 76.1 190.236 76.832C190.236 77.56 190.366 78.112 190.626 78.488C190.886 78.86 191.252 79.046 191.724 79.046ZM198.786 80.12C198.354 80.12 197.944 80.052 197.556 79.916C197.172 79.776 196.848 79.558 196.584 79.262C196.324 78.966 196.16 78.584 196.092 78.116H197.376C197.432 78.344 197.53 78.53 197.67 78.674C197.814 78.818 197.982 78.924 198.174 78.992C198.37 79.056 198.572 79.088 198.78 79.088C199.152 79.088 199.452 79.024 199.68 78.896C199.908 78.768 200.022 78.57 200.022 78.302C200.022 78.106 199.958 77.95 199.83 77.834C199.706 77.718 199.502 77.63 199.218 77.57L198.042 77.3C197.514 77.184 197.092 76.992 196.776 76.724C196.46 76.456 196.3 76.078 196.296 75.59C196.292 75.222 196.384 74.894 196.572 74.606C196.76 74.318 197.04 74.092 197.412 73.928C197.784 73.76 198.242 73.676 198.786 73.676C199.51 73.676 200.09 73.838 200.526 74.162C200.966 74.482 201.192 74.94 201.204 75.536H199.962C199.918 75.268 199.792 75.06 199.584 74.912C199.376 74.76 199.106 74.684 198.774 74.684C198.43 74.684 198.148 74.75 197.928 74.882C197.708 75.014 197.598 75.216 197.598 75.488C197.598 75.676 197.68 75.824 197.844 75.932C198.012 76.04 198.266 76.132 198.606 76.208L199.722 76.478C200.042 76.558 200.304 76.666 200.508 76.802C200.712 76.938 200.87 77.088 200.982 77.252C201.098 77.412 201.178 77.578 201.222 77.75C201.27 77.918 201.294 78.074 201.294 78.218C201.294 78.618 201.19 78.96 200.982 79.244C200.778 79.524 200.488 79.74 200.112 79.892C199.74 80.044 199.298 80.12 198.786 80.12Z" fill="white"/>
<mask id="mask0_6417_7272" style="mask-type:alpha" maskUnits="userSpaceOnUse" x="14" y="14" width="240" height="100">
<path d="M14 63.9999C14 36.3857 36.3858 13.9999 64 13.9999H204C231.614 13.9999 254 36.3857 254 63.9999C254 91.6142 231.614 114 204 114H64C36.3858 114 14 91.6142 14 63.9999Z" fill="white"/>
</mask>
<g mask="url(#mask0_6417_7272)">
<g opacity="0.6" filter="url(#filter1_f_6417_7272)">
<ellipse cx="133.5" cy="114" rx="74.5" ry="19" fill="white"/>
</g>
</g>
<defs>
<filter id="filter0_bd_6417_7272" x="-86" y="-86" width="440" height="300" filterUnits="userSpaceOnUse" color-interpolation-filters="sRGB">
<feFlood flood-opacity="0" result="BackgroundImageFix"/>
<feGaussianBlur in="BackgroundImageFix" stdDeviation="50"/>
<feComposite in2="SourceAlpha" operator="in" result="effect1_backgroundBlur_6417_7272"/>
<feColorMatrix in="SourceAlpha" type="matrix" values="0 0 0 0 0 0 0 0 0 0 0 0 0 0 0 0 0 0 127 0" result="hardAlpha"/>
<feMorphology radius="13" operator="dilate" in="SourceAlpha" result="effect2_dropShadow_6417_7272"/>
<feOffset/>
<feComposite in2="hardAlpha" operator="out"/>
<feColorMatrix type="matrix" values="0 0 0 0 1 0 0 0 0 1 0 0 0 0 1 0 0 0 0.05 0"/>
<feBlend mode="normal" in2="effect1_backgroundBlur_6417_7272" result="effect2_dropShadow_6417_7272"/>
<feBlend mode="normal" in="SourceGraphic" in2="effect2_dropShadow_6417_7272" result="shape"/>
</filter>
<filter id="filter1_f_6417_7272" x="-11" y="24.9999" width="289" height="178" filterUnits="userSpaceOnUse" color-interpolation-filters="sRGB">
<feFlood flood-opacity="0" result="BackgroundImageFix"/>
<feBlend mode="normal" in="SourceGraphic" in2="BackgroundImageFix" result="shape"/>
<feGaussianBlur stdDeviation="35" result="effect1_foregroundBlur_6417_7272"/>
</filter>
<linearGradient id="paint0_linear_6417_7272" x1="134" y1="14" x2="134" y2="114" gradientUnits="userSpaceOnUse">
<stop stop-color="white" stop-opacity="0.25"/>
<stop offset="1" stop-color="white" stop-opacity="0"/>
</linearGradient>
<linearGradient id="paint1_linear_6417_7272" x1="134" y1="0" x2="134" y2="128" gradientUnits="userSpaceOnUse">
<stop stop-color="white" stop-opacity="0.15"/>
<stop offset="1" stop-color="white" stop-opacity="0"/>
</linearGradient>
</defs>
</svg>
