<svg width="175" height="60" viewBox="0 0 175 60" fill="none" xmlns="http://www.w3.org/2000/svg">
<g filter="url(#filter0_d_3153_2579)">
<path d="M9 9V43H154L166 51V9H9Z" fill="#1B0C1A"/>
</g>
<g filter="url(#filter1_d_3153_2579)">
<path fill-rule="evenodd" clip-rule="evenodd" d="M8.375 9C8.375 8.65482 8.65482 8.375 9 8.375H166C166.345 8.375 166.625 8.65482 166.625 9V51C166.625 51.2305 166.498 51.4423 166.295 51.551C166.092 51.6598 165.845 51.6479 165.653 51.52L153.811 43.625H9C8.65482 43.625 8.375 43.3452 8.375 43V9ZM9.625 9.625V42.375H154C154.123 42.375 154.244 42.4115 154.347 42.48L165.375 49.8322V9.625H9.625Z" fill="#8C367F"/>
</g>
<g filter="url(#filter2_d_3153_2579)">
<path d="M23.4375 26.5625V24.9375H24.25V26.5625H23.4375ZM21.8125 29V26.5625H21V21.6875H22.625V26.5625H23.4375V29H21.8125ZM24.25 29V26.5625H25.0625V21.6875H26.6875V26.5625H25.875V29H24.25Z" fill="#8C367F"/>
<path d="M28.28 29V21.6875H29.905V24.9375H31.53V21.6875H33.155V29H31.53V25.75H29.905V29H28.28Z" fill="#8C367F"/>
<path d="M37.9975 25.75V23.3125H36.3725V25.75H37.9975ZM34.7475 29V23.3125H35.56V22.5H36.3725V21.6875H37.9975V22.5H38.81V23.3125H39.6225V29H37.9975V26.5625H36.3725V29H34.7475Z" fill="#8C367F"/>
<path d="M42.0275 29V28.1875H42.84V22.5H42.0275V23.3125H41.215V21.6875H46.09V23.3125H45.2775V22.5H44.465V28.1875H45.2775V29H42.0275Z" fill="#8C367F"/>
<path d="M54.15 25.75V23.3125H52.525V25.75H54.15ZM50.9 29V23.3125H51.7125V22.5H52.525V21.6875H54.15V22.5H54.9625V23.3125H55.775V29H54.15V26.5625H52.525V29H50.9Z" fill="#8C367F"/>
<path d="M57.3675 29V21.6875H58.9925V22.5H59.805V23.3125H60.6175V22.5H61.43V21.6875H63.055V29H61.43V24.9375H60.6175V25.75H59.805V24.9375H58.9925V29H57.3675Z" fill="#8C367F"/>
<path d="M67.865 29V28.1875H68.6775V22.5H67.865V21.6875H71.115V22.5H70.3025V28.1875H71.115V29H67.865Z" fill="#8C367F"/>
<path d="M79.175 25.75V23.3125H77.55V25.75H79.175ZM75.925 29V23.3125H76.7375V22.5H77.55V21.6875H79.175V22.5H79.9875V23.3125H80.8V29H79.175V26.5625H77.55V29H75.925Z" fill="#8C367F"/>
<path d="M84.0175 29V28.1875H83.205V27.375H82.3925V23.3125H83.205V22.5H84.0175V21.6875H87.2675V22.5H88.08V24.125H86.455V22.5H84.83V23.3125H84.0175V27.375H84.83V28.1875H86.455V26.5625H85.6425V25.75H88.08V29H84.0175Z" fill="#8C367F"/>
<path d="M93.735 24.9375V22.5H92.11V24.9375H93.735ZM89.6725 29V28.1875H90.485V22.5H89.6725V21.6875H94.5475V22.5H95.36V24.9375H94.5475V26.5625H95.36V29H93.735V26.5625H92.9225V25.75H92.11V29H89.6725Z" fill="#8C367F"/>
<path d="M96.9525 29V28.1875H97.765V22.5H96.9525V21.6875H102.64V23.3125H101.827V22.5H99.39V24.9375H101.015V24.125H101.827V26.5625H101.015V25.75H99.39V28.1875H101.827V27.375H102.64V29H96.9525Z" fill="#8C367F"/>
<path d="M104.232 29V28.1875H105.045V22.5H104.232V21.6875H109.92V23.3125H109.107V22.5H106.67V24.9375H108.295V24.125H109.107V26.5625H108.295V25.75H106.67V28.1875H109.107V27.375H109.92V29H104.232Z" fill="#8C367F"/>
<path d="M111.512 29V28.1875H112.325V22.5H111.512V21.6875H114.762V22.5H113.95V28.1875H114.762V29H111.512Z" fill="#8C367F"/>
<path d="M116.355 29V21.6875H117.98V23.3125H118.792V24.125H119.605V24.9375H120.417V21.6875H122.042V29H120.417V27.375H119.605V26.5625H118.792V25.75H117.98V29H116.355Z" fill="#8C367F"/>
<path d="M125.26 29V28.1875H124.448V27.375H123.635V23.3125H124.448V22.5H125.26V21.6875H128.51V22.5H129.323V24.125H127.698V22.5H126.073V23.3125H125.26V27.375H126.073V28.1875H127.698V26.5625H126.885V25.75H129.323V29H125.26Z" fill="#8C367F"/>
<path d="M134.945 29V28.1875H135.757V22.5H134.945V23.3125H134.132V21.6875H139.007V23.3125H138.195V22.5H137.382V28.1875H138.195V29H134.945Z" fill="#8C367F"/>
<path d="M143.85 28.1875V27.375H144.662V23.3125H143.85V22.5H143.037V23.3125H142.225V27.375H143.037V28.1875H143.85ZM142.225 29V28.1875H141.412V27.375H140.6V23.3125H141.412V22.5H142.225V21.6875H144.662V22.5H145.475V23.3125H146.287V27.375H145.475V28.1875H144.662V29H142.225Z" fill="#8C367F"/>
<path d="M149.505 29V27.375H151.13V29H149.505ZM149.505 26.5625V24.9375H150.318V24.125H151.13V22.5H149.505V23.3125H147.88V22.5H148.692V21.6875H151.943V22.5H152.755V24.125H151.943V24.9375H151.13V26.5625H149.505Z" fill="#8C367F"/>
</g>
<defs>
<filter id="filter0_d_3153_2579" x="1" y="1" width="173" height="58" filterUnits="userSpaceOnUse" color-interpolation-filters="sRGB">
<feFlood flood-opacity="0" result="BackgroundImageFix"/>
<feColorMatrix in="SourceAlpha" type="matrix" values="0 0 0 0 0 0 0 0 0 0 0 0 0 0 0 0 0 0 127 0" result="hardAlpha"/>
<feOffset/>
<feGaussianBlur stdDeviation="4"/>
<feComposite in2="hardAlpha" operator="out"/>
<feColorMatrix type="matrix" values="0 0 0 0 0.737255 0 0 0 0 0.321569 0 0 0 0 0.678431 0 0 0 0.28 0"/>
<feBlend mode="normal" in2="BackgroundImageFix" result="effect1_dropShadow_3153_2579"/>
<feBlend mode="normal" in="SourceGraphic" in2="effect1_dropShadow_3153_2579" result="shape"/>
</filter>
<filter id="filter1_d_3153_2579" x="0.375" y="0.375" width="174.25" height="59.25" filterUnits="userSpaceOnUse" color-interpolation-filters="sRGB">
<feFlood flood-opacity="0" result="BackgroundImageFix"/>
<feColorMatrix in="SourceAlpha" type="matrix" values="0 0 0 0 0 0 0 0 0 0 0 0 0 0 0 0 0 0 127 0" result="hardAlpha"/>
<feOffset/>
<feGaussianBlur stdDeviation="4"/>
<feComposite in2="hardAlpha" operator="out"/>
<feColorMatrix type="matrix" values="0 0 0 0 0.737255 0 0 0 0 0.321569 0 0 0 0 0.678431 0 0 0 0.28 0"/>
<feBlend mode="normal" in2="BackgroundImageFix" result="effect1_dropShadow_3153_2579"/>
<feBlend mode="normal" in="SourceGraphic" in2="effect1_dropShadow_3153_2579" result="shape"/>
</filter>
<filter id="filter2_d_3153_2579" x="13" y="13.6875" width="147.755" height="23.3125" filterUnits="userSpaceOnUse" color-interpolation-filters="sRGB">
<feFlood flood-opacity="0" result="BackgroundImageFix"/>
<feColorMatrix in="SourceAlpha" type="matrix" values="0 0 0 0 0 0 0 0 0 0 0 0 0 0 0 0 0 0 127 0" result="hardAlpha"/>
<feOffset/>
<feGaussianBlur stdDeviation="4"/>
<feComposite in2="hardAlpha" operator="out"/>
<feColorMatrix type="matrix" values="0 0 0 0 0.737255 0 0 0 0 0.321569 0 0 0 0 0.678431 0 0 0 0.28 0"/>
<feBlend mode="normal" in2="BackgroundImageFix" result="effect1_dropShadow_3153_2579"/>
<feBlend mode="normal" in="SourceGraphic" in2="effect1_dropShadow_3153_2579" result="shape"/>
</filter>
</defs>
</svg>
