<svg width="105" height="52" viewBox="0 0 105 52" fill="none" xmlns="http://www.w3.org/2000/svg">
<g filter="url(#filter0_d_3153_2467)">
<path d="M95.2704 16.7403V35.2643C95.2704 39.1651 92.0988 42.3367 88.198 42.3367H16.7403C12.8395 42.3367 9.66333 39.1651 9.66333 35.2643V16.7403C9.66333 12.8395 12.8395 9.66785 16.7403 9.66785H88.198C92.0988 9.66785 95.2704 12.8395 95.2704 16.7403ZM86.6259 35.0638C86.6259 34.6354 86.2795 34.2846 85.8512 34.2846H69.9155C69.4871 34.2846 69.1362 34.6354 69.1362 35.0638C69.1362 35.4922 69.4871 35.8385 69.9155 35.8385H85.8512C86.2795 35.8385 86.6259 35.4922 86.6259 35.0638ZM61.5261 26.6197C61.5261 26.1914 61.1752 25.8451 60.7469 25.8451H54.1803L58.8238 21.2015C58.9697 21.0557 59.0517 20.8597 59.0517 20.6547C59.0517 20.4496 58.9697 20.2491 58.8238 20.1033C58.5231 19.8025 58.0309 19.8025 57.7256 20.1033L53.0821 24.7514V18.1803C53.0821 17.7519 52.7357 17.4056 52.3074 17.4056C51.879 17.4056 51.5327 17.7519 51.5327 18.1803V24.7468L46.8846 20.1033C46.5929 19.8116 46.0826 19.8116 45.7909 20.1033C45.4993 20.3949 45.4856 20.9008 45.7909 21.2015L50.4345 25.8451H43.8679C43.4395 25.8451 43.0886 26.1914 43.0886 26.6197C43.0886 27.0481 43.4395 27.399 43.8679 27.399L50.4345 27.3944L45.7909 32.0425C45.6451 32.1884 45.5631 32.3843 45.5631 32.5894C45.5631 32.7944 45.6451 32.9904 45.7909 33.1362C46.0826 33.4324 46.5929 33.4324 46.8846 33.1362L51.5327 28.4927V35.0638C51.5327 35.4922 51.879 35.8385 52.3074 35.8385C52.7357 35.8385 53.0821 35.4922 53.0821 35.0638V28.4927L57.7256 33.1362C58.0218 33.4324 58.5322 33.4324 58.8238 33.1362C59.1292 32.8354 59.1292 32.3433 58.8238 32.0425L54.1803 27.399H60.7469C61.1752 27.399 61.5261 27.0481 61.5261 26.6197ZM35.4238 26.6197C35.4238 26.1914 35.0775 25.8451 34.6492 25.8451H28.078L32.7261 21.2015C32.8719 21.0557 32.954 20.8597 32.954 20.6547C32.954 20.4496 32.8719 20.2491 32.7261 20.1033C32.4254 19.8025 31.9332 19.8025 31.6279 20.1033L26.9843 24.7468V18.1803C26.9843 17.7519 26.638 17.4056 26.2097 17.4056C25.7813 17.4056 25.435 17.7519 25.435 18.1803V24.7468L20.7869 20.1033C20.4861 19.8025 19.994 19.8025 19.6932 20.1033C19.3924 20.404 19.3879 20.8962 19.6932 21.2015L24.3367 25.8451H17.7702C17.3418 25.8451 16.9955 26.1914 16.9955 26.6197C16.9955 27.0481 17.3418 27.3944 17.7656 27.3944H24.3367L19.6886 32.0425C19.5428 32.1884 19.4608 32.3843 19.4608 32.5894C19.4608 32.7944 19.5428 32.9904 19.6886 33.1362C19.9848 33.4324 20.4952 33.4324 20.7869 33.1362L25.4304 28.4927V35.0638C25.4304 35.4922 25.7813 35.8385 26.2097 35.8385C26.638 35.8385 26.9843 35.4922 26.9843 35.0638V28.4927L31.6279 33.1362C31.9241 33.4324 32.4345 33.4324 32.7261 33.1362C32.8719 32.9904 32.954 32.7944 32.954 32.5894C32.954 32.3843 32.8719 32.1884 32.7261 32.0425L28.0826 27.3944H34.6492C35.0775 27.3944 35.4238 27.0481 35.4238 26.6197Z" fill="#200E1E"/>
<path d="M96.8241 16.7402V35.2643C96.8241 40.0172 92.9553 43.886 88.1978 43.886H16.7401C11.9826 43.886 8.11377 40.0172 8.11377 35.2643V16.7402C8.11377 11.9873 11.9826 8.11389 16.7401 8.11389H88.1978C92.9553 8.11389 96.8241 11.9873 96.8241 16.7402ZM95.2702 35.2643V16.7402C95.2702 12.8395 92.0986 9.66782 88.1978 9.66782H16.7401C12.8393 9.66782 9.66314 12.8395 9.66314 16.7402V35.2643C9.66314 39.165 12.8393 42.3367 16.7401 42.3367H88.1978C92.0986 42.3367 95.2702 39.165 95.2702 35.2643Z" fill="#4C335C"/>
<path d="M85.8512 34.2845C86.2795 34.2845 86.6258 34.6354 86.6258 35.0638C86.6258 35.4921 86.2795 35.8385 85.8512 35.8385H69.9155C69.4871 35.8385 69.1362 35.4921 69.1362 35.0638C69.1362 34.6354 69.4871 34.2845 69.9155 34.2845H85.8512Z" fill="#8C3680"/>
<path d="M60.7468 25.845C61.1752 25.845 61.5261 26.1913 61.5261 26.6197C61.5261 27.048 61.1752 27.3989 60.7468 27.3989H54.1803L58.8238 32.0425C59.1291 32.3432 59.1291 32.8354 58.8238 33.1362C58.5322 33.4324 58.0218 33.4324 57.7256 33.1362L53.082 28.4926V35.0637C53.082 35.4921 52.7357 35.8384 52.3074 35.8384C51.879 35.8384 51.5327 35.4921 51.5327 35.0637V28.4926L46.8846 33.1362C46.5929 33.4324 46.0825 33.4324 45.7909 33.1362C45.6451 32.9903 45.5631 32.7944 45.5631 32.5893C45.5631 32.3843 45.6451 32.1883 45.7909 32.0425L50.4344 27.3944H43.8679C43.4395 27.3989 43.0886 27.048 43.0886 26.6197C43.0886 26.1913 43.4395 25.845 43.8679 25.845H50.4344L45.7909 21.2015C45.4856 20.9007 45.4856 20.4086 45.7909 20.1032C46.0962 19.7979 46.5929 19.8116 46.8846 20.1032L51.5327 24.7468V18.1802C51.5327 17.7518 51.879 17.4055 52.3074 17.4055C52.7357 17.4055 53.082 17.7518 53.082 18.1802V24.7513L57.7256 20.1032C58.0309 19.8025 58.5231 19.8025 58.8238 20.1032C58.9696 20.2491 59.0517 20.445 59.0517 20.6546C59.0517 20.8643 58.9696 21.0556 58.8238 21.2015L54.1803 25.845H60.7468Z" fill="#8C3680"/>
<path d="M34.6493 25.845C35.0776 25.845 35.424 26.1913 35.424 26.6197C35.424 27.048 35.0776 27.3944 34.6493 27.3944H28.0827L32.7262 32.0425C32.8721 32.1883 32.9541 32.3843 32.9541 32.5893C32.9541 32.7944 32.8721 32.9903 32.7262 33.1362C32.4346 33.4324 31.9242 33.4324 31.628 33.1362L26.9845 28.4926V35.0637C26.9845 35.4921 26.6336 35.8384 26.2098 35.8384C25.786 35.8384 25.4305 35.4921 25.4305 35.0637V28.4926L20.787 33.1362C20.4954 33.4324 19.985 33.4324 19.6888 33.1362C19.5429 32.9903 19.4609 32.7944 19.4609 32.5893C19.4609 32.3843 19.5429 32.1883 19.6888 32.0425L24.3369 27.3944H17.7657C17.3419 27.3944 16.9956 27.048 16.9956 26.6197C16.9956 26.1913 17.3419 25.845 17.7703 25.845H24.3369L19.6933 21.2015C19.388 20.8962 19.388 20.4086 19.6933 20.1032C19.9986 19.7979 20.4862 19.8025 20.787 20.1032L25.4351 24.7468V18.1802C25.4351 17.7518 25.7814 17.4055 26.2098 17.4055C26.6381 17.4055 26.9845 17.7518 26.9845 18.1802V24.7468L31.628 20.1032C31.9333 19.8025 32.4255 19.8025 32.7262 20.1032C32.8721 20.2491 32.9541 20.445 32.9541 20.6546C32.9541 20.8643 32.8721 21.0556 32.7262 21.2015L28.0781 25.845H34.6493Z" fill="#8C3680"/>
</g>
<defs>
<filter id="filter0_d_3153_2467" x="0.11377" y="0.113892" width="104.71" height="51.7722" filterUnits="userSpaceOnUse" color-interpolation-filters="sRGB">
<feFlood flood-opacity="0" result="BackgroundImageFix"/>
<feColorMatrix in="SourceAlpha" type="matrix" values="0 0 0 0 0 0 0 0 0 0 0 0 0 0 0 0 0 0 127 0" result="hardAlpha"/>
<feOffset/>
<feGaussianBlur stdDeviation="4"/>
<feComposite in2="hardAlpha" operator="out"/>
<feColorMatrix type="matrix" values="0 0 0 0 0.737255 0 0 0 0 0.321569 0 0 0 0 0.678431 0 0 0 0.28 0"/>
<feBlend mode="normal" in2="BackgroundImageFix" result="effect1_dropShadow_3153_2467"/>
<feBlend mode="normal" in="SourceGraphic" in2="effect1_dropShadow_3153_2467" result="shape"/>
</filter>
</defs>
</svg>
