<svg width="105" height="112" viewBox="0 0 105 112" fill="none" xmlns="http://www.w3.org/2000/svg">
<g filter="url(#filter0_d_3153_2337)">
<path d="M96.4618 80.444V98.7442C96.4618 100.335 94.5192 101.664 90.8425 102.594C87.6723 103.392 83.2805 103.851 78.7933 103.851C74.3062 103.851 69.9263 103.392 66.762 102.594C63.0913 101.664 61.1486 100.335 61.1486 98.7442V80.444C61.1486 78.3464 65.1769 75.7662 76.511 75.3729V71.8928C76.511 70.7487 75.5754 69.8131 74.4313 69.8131H57.3646V70.3554C57.3646 71.6663 56.292 72.733 54.981 72.733H49.308C49.308 72.733 49.2544 72.733 49.2246 72.7271L49.308 71.0168H54.981C55.3505 71.0168 55.6484 70.7189 55.6484 70.3554V64.6645L57.3527 64.5811C57.3587 64.6108 57.3587 64.6347 57.3587 64.6645V65.2068H74.4313C78.12 65.2068 81.1173 68.2041 81.1173 71.8928V75.3848C92.4395 75.7602 96.4618 78.3405 96.4618 80.444ZM94.7457 98.7442V91.9151C91.9985 93.5956 85.8131 94.6682 78.7933 94.6682C71.7736 94.6682 65.6119 93.5956 62.8648 91.9151V98.7442C62.8648 99.8943 68.4842 102.135 78.7933 102.135C89.1025 102.135 94.7457 99.8943 94.7457 98.7442ZM94.7457 89.5613V82.7978C91.9985 84.4783 85.8131 85.5568 78.7933 85.5568C71.7736 85.5568 65.6119 84.4783 62.8648 82.7978V89.5613C62.8648 90.7114 68.4842 92.952 78.7933 92.952C89.1025 92.952 94.7457 90.7114 94.7457 89.5613Z" fill="#335F66"/>
<path d="M94.7456 91.915V98.7441C94.7456 99.8942 89.1143 102.135 78.7932 102.135C68.4722 102.135 62.8647 99.8942 62.8647 98.7441V91.915C65.6119 93.5955 71.7914 94.6681 78.7932 94.6681C85.7951 94.6681 91.9985 93.5955 94.7456 91.915ZM71.6484 97.6953C71.6484 96.9504 71.0465 96.3486 70.3016 96.3486C69.5567 96.3486 68.9549 96.9504 68.9549 97.6953C68.9549 98.4402 69.5627 99.054 70.3016 99.054C71.0405 99.054 71.6484 98.4461 71.6484 97.6953ZM66.6666 97.1232C66.6666 96.3783 66.0588 95.7765 65.3199 95.7765C64.5809 95.7765 63.9731 96.3783 63.9731 97.1232C63.9731 97.8681 64.575 98.47 65.3199 98.47C66.0647 98.47 66.6666 97.8681 66.6666 97.1232Z" fill="#18282B"/>
<path d="M94.7456 82.7977V89.5612C94.7456 90.7113 89.1143 92.9519 78.7932 92.9519C68.4722 92.9519 62.8647 90.7113 62.8647 89.5612V82.7977C65.6119 84.4782 71.7914 85.5568 78.7932 85.5568C85.7951 85.5568 91.9985 84.4782 94.7456 82.7977ZM71.6484 88.5959C71.6484 87.8569 71.0465 87.2491 70.3016 87.2491C69.5567 87.2491 68.9549 87.8569 68.9549 88.5959C68.9549 89.3348 69.5627 89.9426 70.3016 89.9426C71.0405 89.9426 71.6484 89.3407 71.6484 88.5959ZM66.6666 88.0238C66.6666 87.2849 66.0588 86.6771 65.3199 86.6771C64.5809 86.6771 63.9731 87.2849 63.9731 88.0238C63.9731 88.7627 64.575 89.3765 65.3199 89.3765C66.0647 89.3765 66.6666 88.7687 66.6666 88.0238Z" fill="#18282B"/>
<path d="M93.2202 45.1188V45.2677C93.1487 51.8882 87.589 57.2633 80.8135 57.2633H54.4389V62.2867H54.9811C56.2623 62.2867 57.3111 63.3057 57.3528 64.581L55.6486 64.6644C55.6486 64.3009 55.3506 64.0029 54.9811 64.0029H49.3082C48.9327 64.0029 48.6407 64.2949 48.6407 64.6644V65.2067H46.9305V64.6644C46.9305 63.3534 47.9972 62.2867 49.3082 62.2867H49.8504V57.2633H23.4996C17.2307 57.2633 11.951 52.6808 11.224 46.5966C11.1108 45.7325 11.0571 44.9221 11.0571 44.1832C11.0571 37.515 14.9543 31.3951 20.9908 28.5646C21.992 22.5579 27.3193 18.035 33.4273 18.035C35.1495 18.035 36.8061 18.3746 38.3674 19.0361C42.4255 12.3143 49.8027 8.14893 57.6568 8.14893C69.4973 8.14893 79.3357 17.3437 80.1283 29.1068C87.7201 30.6383 93.2202 37.3482 93.2202 45.1188ZM91.504 45.2558V45.1188C91.504 37.8845 86.3197 31.8122 79.1867 30.6681C78.7815 30.6204 78.4657 30.2808 78.4478 29.8636C78.0307 18.6487 68.9014 9.86513 57.6568 9.86513C50.1126 9.86513 43.1406 13.959 39.4638 20.5556C39.2433 20.9668 38.7487 21.1217 38.3316 20.9132C36.818 20.1445 35.1674 19.7512 33.4273 19.7512C27.951 19.7512 23.3029 23.8391 22.6177 29.2499C22.5819 29.5597 22.3912 29.8219 22.0992 29.9411C16.4381 32.4081 12.7733 38.0037 12.7733 44.1832C12.7733 44.8268 12.821 45.5478 12.9223 46.388C13.5599 51.6141 18.1126 55.5471 23.4996 55.5471H80.8135C86.6534 55.5471 91.4504 50.9288 91.504 45.2558Z" fill="#335F66"/>
<path d="M91.5039 45.1189V45.2559C91.4503 50.9289 86.6533 55.5472 80.8134 55.5472H23.4995C18.1125 55.5472 13.5598 51.6142 12.9222 46.3881C12.8209 45.5479 12.7732 44.8269 12.7732 44.1833C12.7732 38.0038 16.438 32.4083 22.0991 29.9412C22.3911 29.822 22.5818 29.5598 22.6175 29.25C23.3028 23.8392 27.9508 19.7513 33.4272 19.7513C35.1672 19.7513 36.8179 20.1446 38.3315 20.9133C38.7486 21.1218 39.2432 20.9669 39.4637 20.5557C43.1404 13.9591 50.1125 9.86523 57.6566 9.86523C68.9013 9.86523 78.0305 18.6488 78.4477 29.8637C78.4656 30.2809 78.7814 30.6205 79.1866 30.6682C86.3196 31.8123 91.5039 37.8846 91.5039 45.1189ZM88.286 45.828C88.6853 45.828 88.9952 45.5181 88.9952 45.1189C88.9952 39.13 84.7047 34.0947 78.7873 33.1531C78.7516 33.1531 78.7158 33.1531 78.6801 33.1531C78.5251 33.1531 78.3762 33.2008 78.251 33.2961C78.1021 33.4034 78.0067 33.5703 77.9769 33.755C77.9531 33.9516 77.9948 34.1423 78.108 34.2913C78.2212 34.4403 78.3821 34.5356 78.5728 34.5654C83.7929 35.4056 87.5769 39.8451 87.5829 45.1248C87.5829 45.5241 87.8927 45.834 88.286 45.834V45.828ZM75.2656 30.6861C75.6589 30.6742 75.9568 30.3464 75.9449 29.9472C75.5754 20.0969 67.5427 12.374 57.6566 12.374C57.2633 12.374 56.9475 12.6839 56.9475 13.0831C56.9475 13.4824 57.2633 13.7922 57.6566 13.7922C66.7799 13.7922 74.187 20.9133 74.5266 30.0068C74.5386 30.3941 74.8603 30.6861 75.2656 30.6861ZM63.8421 38.8321C63.8063 38.3434 63.425 37.974 62.9542 37.974C62.4834 37.974 62.0961 38.3494 62.0961 38.8321C62.0842 44.368 57.5672 48.879 52.0373 48.8969C46.4715 48.879 41.9605 44.368 41.9724 38.8321C41.9724 34.482 44.7792 30.6563 48.867 29.3155L46.3106 32.003C46.1557 32.1639 46.0723 32.3844 46.0782 32.6109C46.0842 32.8433 46.1795 33.0578 46.3464 33.2187C46.698 33.5405 47.2343 33.5226 47.562 33.2008L51.5784 28.9878C51.9479 28.6064 52.073 28.0701 51.924 27.5636C51.7631 27.0451 51.3758 26.6816 50.8574 26.5565L45.2082 25.1859C44.9877 25.1323 44.7553 25.1621 44.5587 25.2812C44.362 25.4064 44.225 25.5971 44.1713 25.8235C44.07 26.2883 44.3561 26.7531 44.8089 26.8544L48.4678 27.6649C43.6171 29.2023 40.286 33.7073 40.286 38.85C40.2682 45.3274 45.5538 50.6131 52.0611 50.625C58.5445 50.6131 63.8242 45.3274 63.8421 38.8321ZM37.5151 24.0954C37.5985 23.9345 37.6104 23.7438 37.5508 23.565C37.4913 23.3863 37.3661 23.2433 37.2052 23.1598C36.0253 22.5699 34.762 22.2719 33.4391 22.2719C29.2261 22.2719 25.6447 25.4183 25.1143 29.5837C25.0726 29.971 25.3468 30.3166 25.746 30.3762H25.8056C26.1631 30.3762 26.4611 30.1081 26.5147 29.7446C26.9497 26.2883 29.9292 23.6783 33.4391 23.6783C34.5594 23.6783 35.6142 23.9226 36.5676 24.4112C36.9192 24.5781 37.3423 24.441 37.5151 24.0954ZM17.9397 39.0287C18.0291 38.8619 18.0469 38.6772 17.9933 38.5043C17.9397 38.3196 17.8086 38.1647 17.6358 38.0753H17.6298C17.5285 38.0217 17.4212 37.9978 17.3199 37.9978C17.0577 37.9978 16.8075 38.1408 16.6823 38.3852C15.4309 40.9058 15.0078 43.8079 15.4965 46.549C15.5561 46.8887 15.8481 47.133 16.1937 47.133C16.2235 47.133 16.2771 47.133 16.295 47.133C16.7062 47.0555 16.9564 46.6861 16.8909 46.3047C16.444 43.8555 16.8134 41.2753 17.9397 39.0347V39.0287Z" fill="#18282B"/>
<path d="M88.9952 45.1188C88.9952 45.518 88.6853 45.8279 88.286 45.8279C87.8868 45.8279 87.5829 45.518 87.5829 45.1188C87.5769 39.8391 83.7929 35.3996 78.5728 34.5594C78.3821 34.5296 78.2212 34.4342 78.108 34.2853C77.9948 34.1363 77.9531 33.9456 77.9769 33.749C78.0067 33.5642 78.1021 33.3974 78.251 33.2901C78.3762 33.1948 78.5252 33.1471 78.6801 33.1471C78.7158 33.1471 78.7516 33.1471 78.7874 33.1471C84.7047 34.0886 88.9952 39.124 88.9952 45.1128V45.1188Z" fill="#335F66"/>
<path d="M75.9449 29.9471C75.9568 30.3463 75.6589 30.6741 75.2656 30.686C74.8604 30.686 74.5386 30.394 74.5267 30.0067C74.187 20.9132 66.7799 13.7922 57.6566 13.7922C57.2633 13.7922 56.9475 13.4823 56.9475 13.083C56.9475 12.6838 57.2633 12.3739 57.6566 12.3739C67.5427 12.3739 75.5754 20.0968 75.9449 29.9471Z" fill="#335F66"/>
<path d="M70.3018 89.9426C71.0456 89.9426 71.6486 89.3397 71.6486 88.5959C71.6486 87.8521 71.0456 87.2491 70.3018 87.2491C69.558 87.2491 68.9551 87.8521 68.9551 88.5959C68.9551 89.3397 69.558 89.9426 70.3018 89.9426Z" fill="#335F66"/>
<path d="M70.3018 96.3486C71.0467 96.3486 71.6486 96.9505 71.6486 97.6954C71.6486 98.4403 71.0467 99.054 70.3018 99.054C69.5569 99.054 68.9551 98.4462 68.9551 97.6954C68.9551 96.9445 69.5629 96.3486 70.3018 96.3486Z" fill="#335F66"/>
<path d="M65.3199 86.6771C66.0588 86.6771 66.6666 87.2849 66.6666 88.0239C66.6666 88.7628 66.0588 89.3766 65.3199 89.3766C64.581 89.3766 63.9731 88.7687 63.9731 88.0239C63.9731 87.279 64.575 86.6771 65.3199 86.6771Z" fill="#335F66"/>
<path d="M65.3199 98.47C66.0637 98.47 66.6666 97.867 66.6666 97.1232C66.6666 96.3794 66.0637 95.7765 65.3199 95.7765C64.5761 95.7765 63.9731 96.3794 63.9731 97.1232C63.9731 97.867 64.5761 98.47 65.3199 98.47Z" fill="#335F66"/>
<path d="M62.9543 37.9739C63.4251 37.9739 63.8065 38.3434 63.8422 38.832C63.8244 45.3273 58.5447 50.613 52.0612 50.6249C45.554 50.613 40.2683 45.3273 40.2862 38.8499C40.2862 33.7072 43.6173 29.2022 48.4679 27.6648L44.8091 26.8543C44.3562 26.753 44.0702 26.2882 44.1715 25.8234C44.2251 25.597 44.3622 25.4063 44.5588 25.2812C44.7555 25.162 44.9879 25.1322 45.2083 25.1858L50.8575 26.5564C51.3759 26.6815 51.7633 27.045 51.9242 27.5635C52.0731 28.07 51.948 28.6063 51.5785 28.9877L47.5622 33.2007C47.2344 33.5225 46.6981 33.5404 46.3465 33.2186C46.1797 33.0577 46.0843 32.8432 46.0784 32.6108C46.0784 32.3843 46.1558 32.1638 46.3108 32.003L48.8672 29.3154C44.7793 30.6562 41.9726 34.4819 41.9726 38.832C41.9607 44.3679 46.4717 48.8789 52.0374 48.8968C57.5674 48.8789 62.0843 44.3679 62.0962 38.832C62.0962 38.3493 62.4717 37.9739 62.9543 37.9739Z" fill="#335F66"/>
<path d="M55.6484 64.6644V70.3553C55.6484 70.7188 55.3505 71.0167 54.981 71.0167H49.308C48.9326 71.0167 48.6406 70.7247 48.6406 70.3553V64.6644C48.6406 64.2949 48.9326 64.0029 49.308 64.0029H54.981C55.3505 64.0029 55.6484 64.3009 55.6484 64.6644Z" fill="#18282B"/>
<path d="M49.308 71.0167L49.2245 72.727C47.9433 72.6853 46.9243 71.6365 46.9243 70.3553V69.813H29.8577C28.7135 69.813 27.778 70.7486 27.778 71.8927V75.3668C35.6201 75.6052 43.4681 77.2558 43.4681 80.4439V98.7441C43.4681 100.335 41.5255 101.664 37.8428 102.594C34.6726 103.392 30.2808 103.851 25.7936 103.851C21.3065 103.851 16.9325 103.392 13.7623 102.594C10.0916 101.664 8.14893 100.335 8.14893 98.7441V80.4499C8.14893 77.1605 16.2115 75.6707 23.1836 75.3847V71.8927C23.1836 68.2041 26.181 65.2067 29.8577 65.2067H48.6405V70.3553C48.6405 70.7247 48.9325 71.0167 49.308 71.0167ZM41.7519 98.7441V91.915C38.9988 93.5955 32.8134 94.6681 25.7936 94.6681C18.7739 94.6681 12.6182 93.5955 9.86513 91.915V98.7441C9.86513 99.8942 15.4905 102.135 25.7936 102.135C36.0968 102.135 41.7519 99.8942 41.7519 98.7441ZM41.7519 89.5612V82.7977C38.9988 84.4782 32.8134 85.5568 25.7936 85.5568C18.7739 85.5568 12.6182 84.4782 9.86513 82.7977V89.5612C9.86513 90.7113 15.4905 92.9519 25.7936 92.9519C36.0968 92.9519 41.7519 90.7113 41.7519 89.5612Z" fill="#335F66"/>
<path d="M41.752 91.915V98.7441C41.752 99.8942 36.1207 102.135 25.7937 102.135C15.4667 102.135 9.86523 99.8942 9.86523 98.7441V91.915C12.6183 93.5955 18.7919 94.6681 25.7937 94.6681C32.7956 94.6681 38.9989 93.5955 41.752 91.915ZM18.6548 97.6953C18.6548 96.9504 18.047 96.3486 17.3081 96.3486C16.5691 96.3486 15.9613 96.9504 15.9613 97.6953C15.9613 98.4402 16.5632 99.054 17.3081 99.054C18.0529 99.054 18.6548 98.4461 18.6548 97.6953ZM13.6731 97.1232C13.6731 96.3783 13.0652 95.7765 12.3204 95.7765C11.5755 95.7765 10.9736 96.3783 10.9736 97.1232C10.9736 97.8681 11.5814 98.47 12.3204 98.47C13.0593 98.47 13.6731 97.8681 13.6731 97.1232Z" fill="#18282B"/>
<path d="M41.752 82.7977V89.5612C41.752 90.7113 36.1207 92.9519 25.7937 92.9519C15.4667 92.9519 9.86523 90.7113 9.86523 89.5612V82.7977C12.6183 84.4782 18.7919 85.5568 25.7937 85.5568C32.7956 85.5568 38.9989 84.4782 41.752 82.7977ZM18.6548 88.5959C18.6548 87.8569 18.047 87.2491 17.3081 87.2491C16.5691 87.2491 15.9613 87.8569 15.9613 88.5959C15.9613 89.3348 16.5632 89.9426 17.3081 89.9426C18.0529 89.9426 18.6548 89.3407 18.6548 88.5959ZM13.6731 88.0238C13.6731 87.2849 13.0652 86.6771 12.3204 86.6771C11.5755 86.6771 10.9736 87.2849 10.9736 88.0238C10.9736 88.7627 11.5814 89.3765 12.3204 89.3765C13.0593 89.3765 13.6731 88.7687 13.6731 88.0238Z" fill="#18282B"/>
<path d="M37.5508 23.565C37.6104 23.7437 37.5985 23.9344 37.515 24.0953C37.3422 24.4409 36.9191 24.578 36.5676 24.4111C35.6141 23.9225 34.5594 23.6782 33.4391 23.6782C29.9292 23.6782 26.9497 26.2882 26.5147 29.7445C26.461 30.108 26.1631 30.3761 25.8055 30.3761H25.746C25.3467 30.3165 25.0726 29.9709 25.1143 29.5836C25.6446 25.4182 29.226 22.2719 33.4391 22.2719C34.762 22.2719 36.0253 22.5698 37.2052 23.1597C37.3661 23.2432 37.4912 23.3862 37.5508 23.565Z" fill="#335F66"/>
<path d="M17.3079 89.9426C18.0517 89.9426 18.6547 89.3397 18.6547 88.5959C18.6547 87.8521 18.0517 87.2491 17.3079 87.2491C16.5641 87.2491 15.9612 87.8521 15.9612 88.5959C15.9612 89.3397 16.5641 89.9426 17.3079 89.9426Z" fill="#335F66"/>
<path d="M17.3079 96.3486C18.0468 96.3486 18.6547 96.9505 18.6547 97.6954C18.6547 98.4403 18.0468 99.054 17.3079 99.054C16.569 99.054 15.9612 98.4462 15.9612 97.6954C15.9612 96.9445 16.563 96.3486 17.3079 96.3486Z" fill="#335F66"/>
<path d="M17.9932 38.5043C18.0469 38.6771 18.029 38.8618 17.9396 39.0287C16.8133 41.2693 16.4439 43.8495 16.8908 46.2987C16.9564 46.6801 16.7061 47.0496 16.2949 47.127C16.277 47.127 16.2234 47.127 16.1936 47.127C15.848 47.127 15.556 46.8827 15.4964 46.543C15.0077 43.8019 15.4308 40.8998 16.6822 38.3792C16.8074 38.1348 17.0577 37.9918 17.3199 37.9918C17.4212 37.9918 17.5284 38.0157 17.6297 38.0633H17.6357C17.8085 38.1587 17.9396 38.3136 17.9932 38.4983V38.5043Z" fill="#335F66"/>
<path d="M12.3204 86.6771C13.0653 86.6771 13.6731 87.2849 13.6731 88.0239C13.6731 88.7628 13.0653 89.3766 12.3204 89.3766C11.5755 89.3766 10.9736 88.7687 10.9736 88.0239C10.9736 87.279 11.5815 86.6771 12.3204 86.6771Z" fill="#335F66"/>
<path d="M12.3204 95.7765C13.0653 95.7765 13.6731 96.3783 13.6731 97.1232C13.6731 97.8681 13.0653 98.47 12.3204 98.47C11.5755 98.47 10.9736 97.8681 10.9736 97.1232C10.9736 96.3783 11.5815 95.7765 12.3204 95.7765Z" fill="#335F66"/>
</g>
<defs>
<filter id="filter0_d_3153_2337" x="0.148926" y="0.148926" width="104.313" height="111.702" filterUnits="userSpaceOnUse" color-interpolation-filters="sRGB">
<feFlood flood-opacity="0" result="BackgroundImageFix"/>
<feColorMatrix in="SourceAlpha" type="matrix" values="0 0 0 0 0 0 0 0 0 0 0 0 0 0 0 0 0 0 127 0" result="hardAlpha"/>
<feOffset/>
<feGaussianBlur stdDeviation="4"/>
<feComposite in2="hardAlpha" operator="out"/>
<feColorMatrix type="matrix" values="0 0 0 0 0.266667 0 0 0 0 0.498039 0 0 0 0 0.533333 0 0 0 0.6 0"/>
<feBlend mode="normal" in2="BackgroundImageFix" result="effect1_dropShadow_3153_2337"/>
<feBlend mode="normal" in="SourceGraphic" in2="effect1_dropShadow_3153_2337" result="shape"/>
</filter>
</defs>
</svg>
