<svg width="73" height="84" viewBox="0 0 73 84" fill="none" xmlns="http://www.w3.org/2000/svg">
<g filter="url(#filter0_d_3153_2323)">
<path d="M44.8069 38.823C44.9781 38.823 45.1692 38.7553 45.3683 38.6239C45.9973 38.3094 46.4352 37.4733 46.5467 36.8045L47.0683 30.8684C47.12 30.2314 46.9369 29.7377 46.5587 29.5148C46.2163 29.3117 45.7584 29.3675 45.3125 29.6661C44.2376 30.311 43.509 31.6806 43.6165 32.8511L44.2416 38.1541C44.2416 38.4368 44.353 38.6557 44.5481 38.7632C44.6278 38.8031 44.7153 38.823 44.8069 38.823ZM45.9774 39.2768C45.7783 39.1813 45.5474 39.2131 45.3125 39.3525C44.7512 39.6909 44.2416 40.5588 44.2416 41.1759C44.2416 41.5103 44.357 41.7651 44.564 41.8965C44.6556 41.9522 44.7671 41.9801 44.8865 41.9801C45.0338 41.9801 45.2011 41.9403 45.3722 41.8527C45.9336 41.5143 46.4432 40.6464 46.4432 40.0213C46.3795 39.6511 46.2163 39.3843 45.9774 39.2768ZM51.6348 31.4974C52.2598 36.267 49.6083 41.9403 45.7306 44.1419C43.9987 45.1333 42.2549 45.2726 40.8097 44.5361C39.253 43.7398 38.2577 42.0279 38.0069 39.7108C37.3938 35.1005 40.0334 29.4829 43.8992 27.1738L43.9151 27.1658C45.6549 26.1785 47.3987 26.0312 48.82 26.7518C50.3488 27.5281 51.376 29.256 51.6348 31.4974Z" fill="#200E1E"/>
<path d="M63.4072 59.4618H63.5067C63.2917 63.6581 60.676 67.2292 55.7273 70.0798C50.3327 73.2011 43.2341 74.8295 35.7414 74.6543C28.7622 74.4911 21.9303 72.7672 16.9936 69.9206C12.009 67.0461 9.26196 63.2002 9.26196 59.0876V57.7897C11.0695 61.4644 14.6924 64.5061 19.7606 66.6042C24.4545 68.551 30.3348 69.63 36.3186 69.6419H36.446C42.3821 69.6419 48.2186 68.5988 52.8926 66.6958C57.9648 64.6335 61.5957 61.6276 63.4072 57.9967V59.4618Z" fill="#200E1E"/>
<path d="M60.1904 46.0131C62.6388 48.6328 63.7138 51.5471 63.2997 54.4494C62.7862 58.0564 60.059 61.4604 55.6239 64.0363C45.0894 70.1913 27.7829 70.1913 17.0414 64.0363C12.5346 61.4007 9.76765 57.9609 9.25805 54.3499C8.844 51.4436 9.92292 48.5213 12.3833 45.8937C12.4749 46.9925 12.4749 49.2459 12.4749 51.0693V51.129C12.4988 55.0148 14.9274 58.4546 19.5058 61.0902C21.1302 62.0218 22.9855 62.818 24.992 63.4511C28.3363 64.5101 32.1025 65.1272 35.9086 65.2068C42.41 65.3422 48.5412 63.9248 53.1833 61.2255C57.7021 58.5979 60.1904 55.0625 60.1904 51.2763V46.0131Z" fill="#200E1E"/>
<path d="M56.5317 53.7049V57.085C52.5265 61.4644 45.0417 64.0562 36.4462 64.0562C36.3188 64.0562 36.1874 64.0562 36.056 64.0522C32.1663 64.0163 28.5115 63.455 25.3106 62.4438C21.401 61.2096 18.1722 59.3065 16.0303 56.8779V53.5018C20.3738 57.6185 27.8825 60.1107 36.1635 60.1625C36.2551 60.1665 36.3506 60.1665 36.4422 60.1665C37.33 60.1665 38.2139 60.1386 39.0818 60.0789C46.2242 59.625 52.5942 57.3199 56.5317 53.7049Z" fill="#200E1E"/>
<path d="M56.444 39.9696C58.2396 41.8806 59.1712 43.9827 59.1712 46.0968C59.1712 46.4352 59.1473 46.7736 59.0995 47.112C58.6735 50.1139 56.4042 52.9445 52.7056 55.0785C48.6766 57.4195 43.9787 58.7771 39.018 59.0837C36.5138 59.2349 33.9459 59.1195 31.362 58.7253C24.5342 57.6862 18.4707 54.7162 15.5405 50.9778C12.7258 47.3827 13.0084 43.4771 16.3288 39.9696V43.6762C16.3288 47.4385 18.4986 50.5956 22.6072 52.8092C26.2461 54.764 31.1391 55.8429 36.3864 55.8429C41.6337 55.8429 46.5267 54.764 50.1616 52.8092C54.2702 50.5956 56.444 47.4385 56.444 43.6762V39.9696Z" fill="#200E1E"/>
<path d="M55.2814 28.0536V43.6761C55.2814 47.0801 53.243 49.9346 49.3891 51.9412C45.9612 53.7248 41.343 54.7082 36.3863 54.7082C31.4296 54.7082 26.8114 53.7248 23.3795 51.9412C19.5256 49.9346 17.4912 47.0801 17.4912 43.6761V28.0536C17.4912 23.0292 19.4619 18.2915 23.0451 14.7124C26.6282 11.1292 31.3659 9.15454 36.3863 9.15454C41.4067 9.15454 46.1444 11.1292 49.7275 14.7124C53.3106 18.2915 55.2814 23.0292 55.2814 28.0536ZM52.7811 32.8152C52.7811 32.3295 52.7493 31.8517 52.6936 31.378C52.375 28.7901 51.1448 26.7836 49.3214 25.8679C47.6174 25.0119 45.5631 25.1791 43.5406 26.3337C39.3961 28.7185 36.5336 34.8178 37.1587 39.9337C37.4732 42.5374 38.6875 44.5559 40.495 45.4637C41.2076 45.822 41.984 46.0011 42.7961 46.0011C43.9228 46.0011 45.1172 45.6548 46.3076 44.978C50.0739 42.8121 52.7811 37.5887 52.7811 32.8152ZM49.3254 20.8157C49.5802 20.6883 49.6758 20.4414 49.5603 20.2145C49.1423 19.3744 48.6128 18.5264 48.1032 17.7143C48.0514 17.6068 47.9439 17.5351 47.8125 17.5152C47.6931 17.4953 47.5657 17.5232 47.494 17.5869C47.3945 17.6426 47.3228 17.7461 47.3029 17.8735C47.283 17.9969 47.3109 18.1203 47.3746 18.192C47.6692 18.7812 48.0116 19.3585 48.342 19.9199C48.4734 20.1468 48.6048 20.3698 48.7242 20.5808C48.8158 20.7599 48.9711 20.8634 49.1343 20.8634C49.198 20.8634 49.2617 20.8475 49.3254 20.8157ZM46.5385 16.7349C46.6181 16.6473 46.6858 16.4761 46.6619 16.3328C46.65 16.2412 46.5982 16.1735 46.5226 16.1297C45.4118 15.0189 44.5041 14.2705 43.4928 13.6255C43.3734 13.5658 43.258 13.5419 43.1584 13.5538C43.043 13.5698 42.9514 13.6414 42.8917 13.7569V13.7848C42.8877 13.8962 42.8877 14.2346 43.1266 14.3581C44.09 14.9353 45.0336 15.7356 45.9254 16.7428C45.9971 16.8145 46.1444 16.8782 46.2758 16.8782C46.2957 16.8782 46.3156 16.8782 46.3355 16.8742C46.427 16.8583 46.4947 16.8105 46.5385 16.7349Z" fill="#200E1E"/>
<path d="M48.1032 17.7143C48.6128 18.5265 49.1423 19.3745 49.5603 20.2145C49.6758 20.4415 49.5802 20.6883 49.3254 20.8157C49.2617 20.8476 49.198 20.8635 49.1343 20.8635C48.9711 20.8635 48.8158 20.76 48.7243 20.5808C48.6048 20.3698 48.4735 20.1469 48.3421 19.9199C48.0116 19.3586 47.6692 18.7813 47.3746 18.1921C47.3109 18.1204 47.2831 17.997 47.303 17.8736C47.3229 17.7462 47.3945 17.6426 47.4941 17.5869C47.5657 17.5232 47.6931 17.4953 47.8126 17.5152C47.9439 17.5352 48.0514 17.6068 48.1032 17.7143Z" fill="#9E3D90"/>
<path d="M46.5586 29.5148C46.9368 29.7377 47.12 30.2314 47.0682 30.8684L46.5467 36.8044C46.4352 37.4733 45.9973 38.3094 45.3682 38.6239C45.1692 38.7553 44.978 38.8229 44.8069 38.8229C44.7153 38.8229 44.6277 38.803 44.5481 38.7632C44.353 38.6557 44.2415 38.4368 44.2415 38.1541L43.6165 32.851C43.509 31.6806 44.2375 30.311 45.3125 29.666C45.7584 29.3674 46.2162 29.3117 46.5586 29.5148Z" fill="#9E3D90"/>
<path d="M45.3124 39.3524C45.5473 39.2131 45.7782 39.1812 45.9773 39.2768C46.2162 39.3843 46.3794 39.651 46.4431 40.0213C46.4431 40.6463 45.9335 41.5142 45.3721 41.8526C45.2009 41.9402 45.0337 41.98 44.8864 41.98C44.767 41.98 44.6555 41.9522 44.5639 41.8964C44.3569 41.7651 44.2415 41.5103 44.2415 41.1758C44.2415 40.5587 44.7511 39.6908 45.3124 39.3524Z" fill="#9E3D90"/>
<path d="M45.9254 16.7429C45.0336 15.7356 44.09 14.9354 43.1266 14.3581C42.8877 14.2347 42.8877 13.8963 42.8877 13.7848V13.7569C42.9514 13.6415 43.043 13.5698 43.1584 13.5539C43.258 13.5419 43.3734 13.5658 43.4928 13.6256C44.5041 14.2705 45.4118 15.019 46.5226 16.1298C46.5982 16.1736 46.65 16.2412 46.6619 16.3328C46.6858 16.4761 46.6181 16.6473 46.5385 16.7349C46.4947 16.8106 46.427 16.8583 46.3355 16.8743C46.3156 16.8782 46.2957 16.8782 46.2758 16.8782C46.1444 16.8782 45.9971 16.8145 45.9254 16.7429Z" fill="#9E3D90"/>
<path d="M51.6346 31.4975C51.3758 29.256 50.3486 27.5281 48.8198 26.7518C47.3985 26.0312 45.6547 26.1785 43.9149 27.1659L43.899 27.1738C40.0331 29.483 37.3936 35.1005 38.0067 39.7108C38.2575 42.0279 39.2528 43.7399 40.8095 44.5361C42.2547 45.2726 43.9985 45.1333 45.7303 44.142C49.6081 41.9403 52.2596 36.267 51.6346 31.4975ZM40.495 45.4637C38.6875 44.556 37.4732 42.5375 37.1587 39.9338C36.5336 34.8178 39.3961 28.7185 43.5406 26.3338C45.5631 25.1792 47.6175 25.012 49.3214 25.868C51.1449 26.7837 52.3751 28.7902 52.6936 31.378C52.7493 31.8518 52.7812 32.3296 52.7812 32.8153C52.7812 37.5888 50.0739 42.8122 46.3076 44.978C45.1172 45.6548 43.9228 46.0012 42.7961 46.0012C41.984 46.0012 41.2076 45.8221 40.495 45.4637Z" fill="#9E3D90"/>
<path d="M53.1833 61.2255C48.5411 63.9248 42.41 65.3421 35.9086 65.2067C32.1025 65.1271 28.3362 64.51 24.9919 63.451L25.3104 62.4438C28.5114 63.455 32.1662 64.0163 36.0559 64.0522C36.1873 64.0562 36.3186 64.0562 36.446 64.0562C45.0416 64.0562 52.5264 61.4644 56.5315 57.085V53.7049C52.594 57.3199 46.224 59.625 39.0816 60.0789L39.0179 59.0836C43.9786 58.777 48.6765 57.4194 52.7055 55.0784C56.4041 52.9445 58.6734 50.1138 59.0994 47.1119C59.1472 46.7735 59.1711 46.4351 59.1711 46.0967H60.1903V51.2763C60.1903 55.0625 57.702 58.5979 53.1833 61.2255Z" fill="#335F66"/>
<path d="M16.3289 28.1571C16.3289 17.0971 25.3265 8.09949 36.3865 8.09949C47.4464 8.09949 56.4441 17.0971 56.4441 28.1571V38.4407C58.2954 40.0053 59.5216 41.9323 60.083 44.1618C62.1771 46.0171 64.6694 49.1224 64.6694 53.3625V59.4021C64.5659 63.8491 61.5959 68.0096 56.3087 71.1189C51.0017 74.2124 44.0783 75.9004 36.7289 75.9004C36.4303 75.9004 36.1277 75.8964 35.8251 75.8925C28.623 75.7571 21.5523 73.9894 16.4244 71.0473C11.0577 67.9618 8.09961 63.7536 8.09961 59.195V53.1515C8.09961 49.9585 9.68813 46.8491 12.69 44.1618C13.2155 42.0716 14.4736 40.0929 16.3289 38.4407V28.1571ZM36.3188 69.6419C30.335 69.6299 24.4546 68.551 19.7607 66.6042C14.6926 64.506 11.0696 61.4644 9.26214 57.7896V59.0875C9.26214 63.2002 12.0092 67.0461 16.9938 69.9206C21.9305 72.7672 28.7624 74.4911 35.7415 74.6543C43.2343 74.8295 50.3329 73.2011 55.7275 70.0798C60.6762 67.2292 63.2919 63.658 63.5069 59.4618H63.4073V57.9967C61.5959 61.6276 57.9649 64.6334 52.8928 66.6957C48.2188 68.5988 42.3823 69.6419 36.4462 69.6419H36.3188ZM17.4914 28.0536V43.6761C17.4914 47.08 19.5258 49.9346 23.3797 51.9412C26.8116 53.7248 31.4298 54.7082 36.3865 54.7082C41.3432 54.7082 45.9614 53.7248 49.3893 51.9412C53.2432 49.9346 55.2816 47.08 55.2816 43.6761V28.0536C55.2816 23.0292 53.3108 18.2915 49.7277 14.7124C46.1446 11.1292 41.4069 9.15452 36.3865 9.15452C31.3661 9.15452 26.6284 11.1292 23.0453 14.7124C19.4621 18.2915 17.4914 23.0292 17.4914 28.0536ZM24.9921 63.451C22.9856 62.818 21.1303 62.0217 19.5059 61.0901C14.9275 58.4545 12.4989 55.0147 12.475 51.129V51.0693C12.475 49.2459 12.475 46.9925 12.3835 45.8936C9.92303 48.5213 8.84411 51.4435 9.25816 54.3498C9.76776 57.9608 12.5347 61.4007 17.0415 64.0363C27.783 70.1913 45.0895 70.1913 55.624 64.0363C60.0591 61.4604 62.7863 58.0564 63.2998 54.4494C63.7139 51.547 62.639 48.6327 60.1905 46.0131V46.0967H59.1713C59.1713 43.9826 58.2397 41.8805 56.4441 39.9695V43.6761C56.4441 47.4384 54.2703 50.5955 50.1617 52.8091C46.5268 54.7639 41.6338 55.8428 36.3865 55.8428C31.1392 55.8428 26.2462 54.7639 22.6073 52.8091C18.4987 50.5955 16.3289 47.4384 16.3289 43.6761V39.9695C13.0085 43.477 12.7258 47.3826 15.5406 50.9777C18.4708 54.7161 24.5343 57.6861 31.3621 58.7253C33.946 59.1194 36.5139 59.2348 39.0181 59.0836L39.0818 60.0789C38.2139 60.1386 37.3301 60.1665 36.4422 60.1665C36.3507 60.1665 36.2551 60.1665 36.1635 60.1625C27.8825 60.1107 20.3738 57.6185 16.0303 53.5018V56.8779C18.1722 59.3065 21.401 61.2096 25.3106 62.4437L24.9921 63.451Z" fill="#335F66"/>
</g>
<defs>
<filter id="filter0_d_3153_2323" x="0.0996094" y="0.0994873" width="72.5698" height="83.8009" filterUnits="userSpaceOnUse" color-interpolation-filters="sRGB">
<feFlood flood-opacity="0" result="BackgroundImageFix"/>
<feColorMatrix in="SourceAlpha" type="matrix" values="0 0 0 0 0 0 0 0 0 0 0 0 0 0 0 0 0 0 127 0" result="hardAlpha"/>
<feOffset/>
<feGaussianBlur stdDeviation="4"/>
<feComposite in2="hardAlpha" operator="out"/>
<feColorMatrix type="matrix" values="0 0 0 0 0.266667 0 0 0 0 0.498039 0 0 0 0 0.533333 0 0 0 0.6 0"/>
<feBlend mode="normal" in2="BackgroundImageFix" result="effect1_dropShadow_3153_2323"/>
<feBlend mode="normal" in="SourceGraphic" in2="effect1_dropShadow_3153_2323" result="shape"/>
</filter>
</defs>
</svg>
