<svg width="72" height="64" viewBox="0 0 72 64" fill="none" xmlns="http://www.w3.org/2000/svg">
<path d="M39.85 48.31C37.95 50.27 36.03 51.95 33.9 53.77C33.79 53.86 33.73 53.89 33.75 53.89C33.75 53.89 33.5 53.77 33.18 52.9C33 52.41 32.84 51.94 32.67 51.46L32.59 51.24C32.39 50.66 32.18 50.06 31.93 49.39C31.67 48.68 31.19 48.55 30.92 48.54H30.89C29.99 48.54 29.33 49.59 28.36 51.64L28.32 51.72C28.28 51.8 28.25 51.87 28.22 51.92C27.95 52.46 27.56 53.13 26.98 53.52C26.67 53.73 25.84 54.27 24.54 52.63C26.12 50.82 27.11 48.87 27.48 46.85C27.7 45.66 27.44 44.58 26.77 43.87C25.71 42.74 23.77 42.64 22.45 43.63C21.39 44.43 20.72 45.82 20.71 47.27C20.71 49.29 21.77 51.2 22.62 52.49C21.94 53.16 21.17 53.81 20.33 54.42C20.17 54.54 20.06 54.71 20.03 54.91C20 55.11 20.05 55.3 20.16 55.47C20.3 55.66 20.53 55.78 20.76 55.78C20.92 55.78 21.07 55.73 21.2 55.64C22.03 55.04 22.8 54.4 23.5 53.73C25.33 55.9 26.98 55.32 27.8 54.77C28.68 54.19 29.2 53.31 29.55 52.6C29.58 52.53 29.64 52.42 29.7 52.29C30.17 51.3 30.49 50.74 30.69 50.42C30.86 50.89 31.01 51.32 31.16 51.74C31.35 52.3 31.54 52.83 31.75 53.41C32.15 54.53 32.67 55.16 33.33 55.34C33.68 55.43 34.23 55.44 34.84 54.91C37 53.06 38.95 51.36 40.89 49.35C41.18 49.05 41.17 48.58 40.87 48.29C40.57 48.01 40.1 48.01 39.81 48.31H39.85ZM26.02 46.59C25.72 48.23 24.93 49.84 23.68 51.36C22.68 49.76 22.22 48.47 22.22 47.29C22.22 46.32 22.67 45.35 23.36 44.84C23.69 44.6 24.12 44.46 24.55 44.46C25.01 44.46 25.42 44.62 25.69 44.91C26.02 45.26 26.14 45.89 26.02 46.6V46.59ZM20.16 14.74C20.16 14.33 20.5 13.99 20.91 13.99H37.9C38.31 13.99 38.65 14.33 38.65 14.74C38.65 15.15 38.31 15.49 37.9 15.49H20.91C20.5 15.49 20.16 15.15 20.16 14.74ZM51.91 30.67C51.91 31.08 51.57 31.42 51.16 31.42H20.91C20.5 31.42 20.16 31.08 20.16 30.67C20.16 30.26 20.5 29.92 20.91 29.92H51.17C51.58 29.92 51.92 30.26 51.92 30.67H51.91ZM59.56 13.92L46.15 0.51C45.83 0.19 45.38 0 44.92 0H16.93C14.21 0 12 2.21 12 4.93V59.07C12 61.79 14.21 64 16.93 64H55.15C57.87 64 60.08 61.79 60.08 59.07V15.15C60.08 14.68 59.9 14.25 59.57 13.92H59.56ZM48.76 13.75C47.42 13.75 46.32 12.66 46.32 11.31V2.8L57.27 13.75H48.76ZM55.14 62.51H16.93C15.04 62.51 13.5 60.97 13.5 59.08V4.93C13.5 3.04 15.04 1.5 16.93 1.5H44.84V11.32C44.84 13.49 46.6 15.25 48.77 15.25H58.59V59.08C58.59 60.97 57.05 62.51 55.16 62.51H55.14ZM51.91 38.64C51.91 39.05 51.57 39.39 51.16 39.39H30.72C30.31 39.39 29.97 39.05 29.97 38.64C29.97 38.23 30.31 37.89 30.72 37.89H51.16C51.57 37.89 51.91 38.23 51.91 38.64ZM51.91 22.71C51.91 23.12 51.57 23.46 51.16 23.46H20.91C20.5 23.46 20.16 23.12 20.16 22.71C20.16 22.3 20.5 21.96 20.91 21.96H51.17C51.58 21.96 51.92 22.3 51.92 22.71H51.91Z" fill="white"/>
</svg>
