<svg width="113" height="112" viewBox="0 0 113 112" fill="none" xmlns="http://www.w3.org/2000/svg">
<g filter="url(#filter0_d_3153_2436)">
<path d="M103.065 15.6885V19.4815H91.4692V15.6885C91.4692 12.4925 94.0743 9.89355 97.2642 9.89355C98.814 9.89355 100.267 10.4966 101.365 11.5941C102.462 12.6915 103.065 14.1448 103.065 15.6885Z" fill="#200E1E"/>
<path d="M69.8272 35.7266C70.183 35.6663 70.4966 35.6 70.7921 35.5216C70.8403 35.5095 70.8825 35.5035 70.9308 35.4914C70.9549 35.4854 70.985 35.4854 71.0092 35.4733L71.5157 35.3286V52.5387L68.181 55.4211L64.587 52.5266V50.6874C64.587 50.205 64.1951 49.813 63.7127 49.813H62.5308V47.8954H63.7127C64.1951 47.8954 64.587 47.5035 64.587 47.0211V41.407C64.587 40.9246 64.1951 40.5326 63.7127 40.5326H62.5308V38.615H63.7127C64.1951 38.615 64.587 38.2231 64.587 37.7407V35.3286L65.0875 35.4794C65.0875 35.4794 65.1418 35.4914 65.1659 35.4914C65.2142 35.5035 65.2624 35.5095 65.3046 35.5216C65.6061 35.606 65.9318 35.6723 66.2875 35.7266L66.4323 35.7568C66.5107 35.7688 66.583 35.7869 66.6614 35.7929C67.6745 35.9256 68.4222 35.9256 69.4473 35.7929C69.5197 35.7809 69.5981 35.7688 69.6705 35.7568L69.8272 35.7266Z" fill="#200E1E"/>
<path d="M77.0211 25.1677C77.0211 28.6169 75.0975 31.7044 71.998 33.224C70.7739 33.833 69.4171 34.1406 68.0482 34.1406C67.3789 34.1406 66.7035 34.0622 66.0402 33.9114C65.3769 33.7607 64.7377 33.5375 64.1286 33.2481L64.0864 33.224C61.3909 31.8913 59.5457 29.3104 59.1538 26.3315C59.0995 25.9878 59.0693 25.6019 59.0693 25.1677C59.0693 24.7335 59.0995 24.3536 59.1477 23.9797C59.3407 22.5506 59.8834 21.1697 60.7216 19.9878C61.3005 19.1556 62.0301 18.432 62.8804 17.835C64.3879 16.7617 66.1729 16.1948 68.0482 16.1948C72.993 16.1948 77.0211 20.223 77.0211 25.1677ZM70.9367 25.1677C70.9367 23.5757 69.6402 22.2792 68.0482 22.2792C66.4563 22.2792 65.1598 23.5757 65.1598 25.1677C65.1598 26.7596 66.4563 28.0561 68.0482 28.0561C69.6402 28.0561 70.9367 26.7596 70.9367 25.1677Z" fill="#200E1E"/>
<path d="M52.171 9.89355H92.3559L91.7529 10.5508C91.7227 10.581 91.6986 10.6172 91.6684 10.6473L91.578 10.7559C91.5117 10.8343 91.4453 10.9066 91.379 10.985C91.3006 11.0875 91.2222 11.1961 91.1498 11.2986L91.0956 11.3709C91.0534 11.4312 91.0051 11.4976 90.9629 11.5579C90.8966 11.6664 90.8302 11.781 90.7639 11.8895L90.7157 11.974C90.6735 12.0343 90.6373 12.1006 90.6011 12.173C90.5408 12.2815 90.4926 12.3961 90.4383 12.5106L90.384 12.6312C90.3539 12.6915 90.3237 12.7518 90.2936 12.8182L90.1669 13.1619L90.1127 13.3187C90.0946 13.379 90.0705 13.4333 90.0524 13.4996C90.0162 13.6262 89.986 13.7529 89.9498 13.8795L89.9137 14.0483C89.8956 14.1026 89.8835 14.1508 89.8715 14.2051C89.8413 14.3559 89.8232 14.5127 89.7991 14.6694L89.781 14.8081L89.7629 14.9348C89.7388 15.188 89.7267 15.4353 89.7267 15.6885V58.4182C89.7267 60.2272 88.2493 61.7046 86.4343 61.7046H49.6624C47.8534 61.7046 46.376 60.2272 46.376 58.4182V15.6885C46.376 12.4925 48.975 9.89355 52.171 9.89355ZM85.1378 53.383V42.39C85.1378 41.9137 84.7458 41.5217 84.2694 41.5217C83.7931 41.5217 83.3951 41.9137 83.3951 42.39V53.383C83.3951 54.4805 82.4966 55.379 81.3991 55.379H77.8956C77.4132 55.379 77.0212 55.7709 77.0212 56.2473C77.0212 56.7237 77.4132 57.1217 77.8956 57.1217H81.3991C83.4614 57.1217 85.1378 55.4453 85.1378 53.383ZM85.1378 35.7991V34.0081C85.1378 33.5257 84.7458 33.1338 84.2634 33.1338C83.781 33.1338 83.3951 33.5257 83.3951 34.0081V35.7991C83.3951 36.2815 83.787 36.6735 84.2634 36.6735C84.7398 36.6735 85.1378 36.2815 85.1378 35.7991ZM78.7699 25.1679C78.7699 19.2584 73.9579 14.4463 68.0483 14.4463C65.8051 14.4463 63.6704 15.1277 61.8735 16.4061C60.8483 17.1237 59.986 17.992 59.2926 18.987C58.2916 20.3981 57.6463 22.0443 57.4172 23.7448C57.3569 24.1971 57.3267 24.6735 57.3267 25.1679C57.3267 25.6624 57.3569 26.1629 57.4232 26.573C57.8574 29.8594 59.7569 32.7116 62.6453 34.4061L62.8383 34.5207V36.8724H61.6564C61.174 36.8724 60.782 37.2584 60.782 37.7408V41.4071C60.782 41.8895 61.174 42.2815 61.6564 42.2815H62.8383V46.1468H61.6564C61.174 46.1468 60.782 46.5388 60.782 47.0212V50.6875C60.782 51.1699 61.174 51.5619 61.6564 51.5619H62.8383V52.4845C62.8383 53.0333 63.0855 53.5518 63.5137 53.9076L67.0473 56.7478C67.7106 57.2785 68.7358 57.2664 69.3629 56.7116L72.6373 53.8775C73.0353 53.5338 73.2584 53.0333 73.2584 52.5086V34.5086L73.4574 34.3941C76.78 32.4523 78.7699 29.0031 78.7699 25.1679Z" fill="#200E1E"/>
<path d="M76.1107 92.4041C76.8102 92.4041 77.377 92.9709 77.377 93.6704C77.377 94.3699 76.8102 94.9367 76.1107 94.9367H73.5901C72.8906 94.9367 72.3237 94.3699 72.3237 93.6704C72.3237 92.9709 72.8906 92.4041 73.5901 92.4041H76.1107Z" fill="#200E1E"/>
<path d="M67.4692 92.4041C68.1687 92.4041 68.7355 92.9709 68.7355 93.6704C68.7355 94.3699 68.1687 94.9367 67.4692 94.9367H27.1335C26.434 94.9367 25.8672 94.3699 25.8672 93.6704C25.8672 92.9709 26.434 92.4041 27.1335 92.4041H67.4692Z" fill="#200E1E"/>
<path d="M20.0542 92.4041C20.7537 92.4041 21.3206 92.9709 21.3206 93.6704C21.3206 94.3699 20.7537 94.9367 20.0542 94.9367H18.6552C17.9558 94.9367 17.3889 94.3699 17.3889 93.6704C17.3889 92.9709 17.9558 92.4041 18.6552 92.4041H20.0542Z" fill="#200E1E"/>
<path d="M76.1104 84.4624C76.8099 84.4624 77.3768 85.0292 77.3768 85.7287C77.3768 86.4282 76.8099 86.9951 76.1104 86.9951H75.4773C74.7778 86.9951 74.2109 86.4282 74.2109 85.7287C74.2109 85.0292 74.7778 84.4624 75.4773 84.4624H76.1104Z" fill="#200E1E"/>
<path d="M69.5016 84.4624C70.2011 84.4624 70.7679 85.0292 70.7679 85.7287C70.7679 86.4282 70.2011 86.9951 69.5016 86.9951H68.3076C67.6081 86.9951 67.0413 86.4282 67.0413 85.7287C67.0413 85.0292 67.6081 84.4624 68.3076 84.4624H69.5016Z" fill="#200E1E"/>
<path d="M62.3255 84.4624C63.025 84.4624 63.5919 85.0292 63.5919 85.7287C63.5919 86.4282 63.025 86.9951 62.3255 86.9951H61.1316C60.4321 86.9951 59.8652 86.4282 59.8652 85.7287C59.8652 85.0292 60.4321 84.4624 61.1316 84.4624H62.3255Z" fill="#200E1E"/>
<path d="M55.1559 84.4624C55.8554 84.4624 56.4222 85.0292 56.4222 85.7287C56.4222 86.4282 55.8554 86.9951 55.1559 86.9951H53.9619C53.2624 86.9951 52.6956 86.4282 52.6956 85.7287C52.6956 85.0292 53.2624 84.4624 53.9619 84.4624H55.1559Z" fill="#200E1E"/>
<path d="M47.9798 84.4624C48.6793 84.4624 49.2462 85.0292 49.2462 85.7287C49.2462 86.4282 48.6793 86.9951 47.9798 86.9951H46.7859C46.0864 86.9951 45.5195 86.4282 45.5195 85.7287C45.5195 85.0292 46.0864 84.4624 46.7859 84.4624H47.9798Z" fill="#200E1E"/>
<path d="M40.8099 84.4624C41.5094 84.4624 42.0762 85.0292 42.0762 85.7287C42.0762 86.4282 41.5094 86.9951 40.8099 86.9951H39.6159C38.9164 86.9951 38.3496 86.4282 38.3496 85.7287C38.3496 85.0292 38.9164 84.4624 39.6159 84.4624H40.8099Z" fill="#200E1E"/>
<path d="M33.6341 84.4624C34.3336 84.4624 34.9005 85.0292 34.9005 85.7287C34.9005 86.4282 34.3336 86.9951 33.6341 86.9951H32.4402C31.7407 86.9951 31.1738 86.4282 31.1738 85.7287C31.1738 85.0292 31.7407 84.4624 32.4402 84.4624H33.6341Z" fill="#200E1E"/>
<path d="M26.4642 84.4624C27.1637 84.4624 27.7245 85.0292 27.7245 85.7287C27.7245 86.4282 27.1637 86.9951 26.4642 86.9951H25.2642C24.5647 86.9951 24.0039 86.4282 24.0039 85.7287C24.0039 85.0292 24.5647 84.4624 25.2642 84.4624H26.4642Z" fill="#200E1E"/>
<path d="M19.2884 84.4624C19.9879 84.4624 20.5547 85.0292 20.5547 85.7287C20.5547 86.4282 19.9879 86.9951 19.2884 86.9951H18.6552C17.9558 86.9951 17.3889 86.4282 17.3889 85.7287C17.3889 85.0292 17.9558 84.4624 18.6552 84.4624H19.2884Z" fill="#200E1E"/>
<path d="M76.1104 76.5205C76.8099 76.5205 77.3768 77.0813 77.3768 77.7808C77.3768 78.4803 76.8099 79.0471 76.1104 79.0471H75.4773C74.7778 79.0471 74.2109 78.4803 74.2109 77.7808C74.2109 77.0813 74.7778 76.5205 75.4773 76.5205H76.1104Z" fill="#200E1E"/>
<path d="M69.5016 76.5146C70.2011 76.5146 70.7679 77.0815 70.7679 77.781C70.7679 78.4805 70.2011 79.0473 69.5016 79.0473H68.3076C67.6081 79.0473 67.0413 78.4805 67.0413 77.781C67.0413 77.0815 67.6081 76.5146 68.3076 76.5146H69.5016Z" fill="#200E1E"/>
<path d="M62.3255 76.5146C63.025 76.5146 63.5919 77.0815 63.5919 77.781C63.5919 78.4805 63.025 79.0473 62.3255 79.0473H61.1316C60.4321 79.0473 59.8652 78.4805 59.8652 77.781C59.8652 77.0815 60.4321 76.5146 61.1316 76.5146H62.3255Z" fill="#200E1E"/>
<path d="M55.1559 76.5146C55.8554 76.5146 56.4222 77.0815 56.4222 77.781C56.4222 78.4805 55.8554 79.0473 55.1559 79.0473H53.9619C53.2624 79.0473 52.6956 78.4805 52.6956 77.781C52.6956 77.0815 53.2624 76.5146 53.9619 76.5146H55.1559Z" fill="#200E1E"/>
<path d="M47.9798 76.5146C48.6793 76.5146 49.2462 77.0815 49.2462 77.781C49.2462 78.4805 48.6793 79.0473 47.9798 79.0473H46.7859C46.0864 79.0473 45.5195 78.4805 45.5195 77.781C45.5195 77.0815 46.0864 76.5146 46.7859 76.5146H47.9798Z" fill="#200E1E"/>
<path d="M40.8099 76.5146C41.5094 76.5146 42.0762 77.0815 42.0762 77.781C42.0762 78.4805 41.5094 79.0473 40.8099 79.0473H39.6159C38.9164 79.0473 38.3496 78.4805 38.3496 77.781C38.3496 77.0815 38.9164 76.5146 39.6159 76.5146H40.8099Z" fill="#200E1E"/>
<path d="M33.6341 76.5146C34.3336 76.5146 34.9005 77.0815 34.9005 77.781C34.9005 78.4805 34.3336 79.0473 33.6341 79.0473H32.4402C31.7407 79.0473 31.1738 78.4805 31.1738 77.781C31.1738 77.0815 31.7407 76.5146 32.4402 76.5146H33.6341Z" fill="#200E1E"/>
<path d="M26.4642 76.5205C27.1637 76.5205 27.7305 77.0813 27.7305 77.7808C27.7305 78.4803 27.1637 79.0471 26.4642 79.0471H25.2642C24.5647 79.0471 24.0039 78.4803 24.0039 77.7808C24.0039 77.0813 24.5647 76.5205 25.2642 76.5205H26.4642Z" fill="#200E1E"/>
<path d="M19.2884 76.5205C19.9879 76.5205 20.5547 77.0813 20.5547 77.7808C20.5547 78.4803 19.9879 79.0471 19.2884 79.0471H18.6552C17.9558 79.0471 17.3889 78.4803 17.3889 77.7808C17.3889 77.0813 17.9558 76.5205 18.6552 76.5205H19.2884Z" fill="#200E1E"/>
<path d="M85.1377 34.0082V35.7991C85.1377 36.2815 84.7458 36.6735 84.2634 36.6735C83.781 36.6735 83.395 36.2815 83.395 35.7991V34.0082C83.395 33.5257 83.787 33.1338 84.2634 33.1338C84.7397 33.1338 85.1377 33.5257 85.1377 34.0082Z" fill="#8C3680"/>
<path d="M85.1376 53.3828C85.1376 55.4451 83.4612 57.1215 81.3989 57.1215H77.8954C77.413 57.1215 77.021 56.7295 77.021 56.2471C77.021 55.7647 77.413 55.3788 77.8954 55.3788H81.3989C82.4964 55.3788 83.3949 54.4803 83.3949 53.3828V42.3898C83.3949 41.9134 83.7868 41.5215 84.2692 41.5215C84.7517 41.5215 85.1376 41.9134 85.1376 42.3898V53.3828Z" fill="#8C3680"/>
<path d="M68.0481 28.0562C69.6434 28.0562 70.9366 26.763 70.9366 25.1677C70.9366 23.5725 69.6434 22.2793 68.0481 22.2793C66.4529 22.2793 65.1597 23.5725 65.1597 25.1677C65.1597 26.763 66.4529 28.0562 68.0481 28.0562Z" fill="#335F66"/>
<path d="M69.4473 35.793C68.4221 35.9257 67.6744 35.9257 66.6613 35.793C66.5829 35.787 66.5106 35.7689 66.4322 35.7568L66.2875 35.7267C65.9317 35.6724 65.6061 35.6061 65.3045 35.5217C65.2623 35.5096 65.2141 35.5036 65.1659 35.4915C65.1417 35.4915 65.1116 35.4855 65.0875 35.4795L64.587 35.3287V37.7408C64.587 38.2232 64.195 38.6151 63.7126 38.6151H62.5307V40.5327H63.7126C64.195 40.5327 64.587 40.9247 64.587 41.4071V47.0212C64.587 47.5036 64.195 47.8955 63.7126 47.8955H62.5307V49.8131H63.7126C64.195 49.8131 64.587 50.2051 64.587 50.6875V52.5267L68.1809 55.4212L71.5156 52.5388V35.3287L71.0091 35.4734C71.0091 35.4734 70.9548 35.4855 70.9307 35.4915C70.8824 35.5036 70.8402 35.5096 70.792 35.5217C70.4965 35.6001 70.1829 35.6664 69.8272 35.7267L69.6704 35.7568C69.598 35.7689 69.5196 35.781 69.4473 35.793ZM68.0483 34.1408C69.4171 34.1408 70.7739 33.8332 71.998 33.2242C75.0975 31.7046 77.0211 28.6171 77.0211 25.1679C77.0211 20.2232 72.993 16.195 68.0483 16.195C66.1729 16.195 64.388 16.7619 62.8804 17.8352C62.0302 18.4322 61.3005 19.1558 60.7216 19.988C59.8834 21.1699 59.3407 22.5508 59.1478 23.98C59.0995 24.3538 59.0694 24.7518 59.0694 25.1679C59.0694 25.584 59.0995 25.988 59.1538 26.3317C59.5458 29.3106 61.391 31.8915 64.0865 33.2242L64.1287 33.2483C64.7377 33.5377 65.3769 33.7609 66.0402 33.9116C66.7035 34.0624 67.3789 34.1408 68.0483 34.1408ZM69.3628 56.7116C68.7357 57.2664 67.7106 57.2784 67.0473 56.7478L63.5136 53.9076C63.0855 53.5518 62.8382 53.0332 62.8382 52.4845V51.5619H61.6563C61.1739 51.5619 60.7819 51.1699 60.7819 50.6875V47.0212C60.7819 46.5387 61.1739 46.1468 61.6563 46.1468H62.8382V42.2815H61.6563C61.1739 42.2815 60.7819 41.8895 60.7819 41.4071V37.7408C60.7819 37.2584 61.1739 36.8724 61.6563 36.8724H62.8382V34.5207L62.6453 34.4061C59.7568 32.7116 57.8573 29.8594 57.4231 26.5729C57.3568 26.1629 57.3267 25.6865 57.3267 25.1679C57.3267 24.6493 57.3568 24.197 57.4171 23.7448C57.6463 22.0443 58.2915 20.398 59.2925 18.987C59.986 17.992 60.8483 17.1237 61.8734 16.4061C63.6704 15.1277 65.8051 14.4463 68.0483 14.4463C73.9578 14.4463 78.7699 19.2583 78.7699 25.1679C78.7699 29.0031 76.7799 32.4523 73.4573 34.394L73.2583 34.5086V52.5086C73.2583 53.0332 73.0352 53.5337 72.6372 53.8774L69.3628 56.7116Z" fill="#335F66"/>
<path d="M103.065 15.6886C103.065 14.1448 102.462 12.6916 101.365 11.5941C100.267 10.4966 98.8142 9.89359 97.2644 9.89359C94.0745 9.89359 91.4695 12.4926 91.4695 15.6886V19.4815H103.065V15.6886ZM92.3559 9.89359H52.171C48.975 9.89359 46.376 12.4926 46.376 15.6886V58.4182C46.376 60.2273 47.8534 61.7046 49.6624 61.7046H86.4343C88.2494 61.7046 89.7267 60.2273 89.7267 58.4182V15.6886C89.7267 15.4353 89.7388 15.1881 89.7629 14.9348L89.781 14.8082L89.7991 14.6695C89.8232 14.5127 89.8413 14.3559 89.8715 14.2052C89.8835 14.1509 89.8956 14.1026 89.9137 14.0484L89.9499 13.8795C89.986 13.7529 90.0162 13.6263 90.0524 13.4996C90.0705 13.4333 90.0946 13.379 90.1127 13.3187L90.1669 13.1619L90.2936 12.8182C90.3237 12.7519 90.3539 12.6916 90.384 12.6313L90.4383 12.5107C90.4926 12.3961 90.5408 12.2815 90.6011 12.173C90.6373 12.1006 90.6735 12.0343 90.7157 11.974L90.7639 11.8896C90.8303 11.781 90.8966 11.6665 90.9629 11.5579C91.0051 11.4976 91.0534 11.4313 91.0956 11.371L91.1499 11.2986C91.2222 11.1961 91.3006 11.0876 91.379 10.985C91.4453 10.9067 91.5117 10.8343 91.578 10.7559L91.6685 10.6474C91.6986 10.6172 91.7227 10.581 91.7529 10.5509L92.3559 9.89359ZM19.1861 45.568C19.1861 40.8705 23.0031 37.0534 27.6946 37.0534H44.6333V15.6886C44.6333 11.5338 48.0162 8.15088 52.177 8.15088H97.2644C99.2845 8.15088 101.178 8.9348 102.601 10.3579C103.313 11.0695 103.861 11.9016 104.235 12.8062C104.609 13.7107 104.808 14.6876 104.808 15.6946V20.3559C104.808 20.8383 104.416 21.2303 103.94 21.2303H91.4755V58.4182C91.4755 61.1921 89.2142 63.4534 86.4403 63.4534H49.6685C46.8886 63.4534 44.6333 61.1921 44.6333 58.4182V38.8021H27.6946C23.968 38.8021 20.9288 41.8353 20.9288 45.568V50.2293C20.9288 53.9559 23.968 56.9891 27.6946 56.9891C32.3921 56.9891 36.2092 60.8122 36.2092 65.5036V67.6142H85.7468C86.2232 67.6142 86.6152 68.0062 86.6152 68.4825V94.2192C86.6152 99.5257 82.2976 103.843 76.9911 103.843H9.02525C8.54284 103.843 8.15088 103.457 8.15088 102.975V68.4825C8.15088 68.0001 8.54284 67.6082 9.02525 67.6082H34.4604V65.5036C34.4604 61.771 31.4273 58.7378 27.6946 58.7378C23.0031 58.7378 19.1861 54.9207 19.1861 50.2232V45.568ZM77.377 77.781C77.377 77.0815 76.8102 76.5207 76.1107 76.5207H75.4775C74.778 76.5207 74.2112 77.0815 74.2112 77.781C74.2112 78.4805 74.778 79.0474 75.4775 79.0474H76.1107C76.8102 79.0474 77.377 78.4805 77.377 77.781ZM77.377 85.7288C77.377 85.0293 76.8102 84.4624 76.1107 84.4624H75.4775C74.778 84.4624 74.2112 85.0293 74.2112 85.7288C74.2112 86.4283 74.778 86.9951 75.4775 86.9951H76.1107C76.8102 86.9951 77.377 86.4283 77.377 85.7288ZM77.377 93.6705C77.377 92.971 76.8102 92.4041 76.1107 92.4041H73.5901C72.8906 92.4041 72.3237 92.971 72.3237 93.6705C72.3237 94.37 72.8906 94.9368 73.5901 94.9368H76.1107C76.8102 94.9368 77.377 94.37 77.377 93.6705ZM70.768 77.781C70.768 77.0815 70.2011 76.5147 69.5016 76.5147H68.3077C67.6082 76.5147 67.0413 77.0815 67.0413 77.781C67.0413 78.4805 67.6082 79.0474 68.3077 79.0474H69.5016C70.2011 79.0474 70.768 78.4805 70.768 77.781ZM70.768 85.7288C70.768 85.0293 70.2011 84.4624 69.5016 84.4624H68.3077C67.6082 84.4624 67.0413 85.0293 67.0413 85.7288C67.0413 86.4283 67.6082 86.9951 68.3077 86.9951H69.5016C70.2011 86.9951 70.768 86.4283 70.768 85.7288ZM68.7358 93.6705C68.7358 92.971 68.169 92.4041 67.4695 92.4041H27.1338C26.4343 92.4041 25.8675 92.971 25.8675 93.6705C25.8675 94.37 26.4343 94.9368 27.1338 94.9368H67.4695C68.169 94.9368 68.7358 94.37 68.7358 93.6705ZM63.5921 77.781C63.5921 77.0815 63.0252 76.5147 62.3257 76.5147H61.1318C60.4323 76.5147 59.8654 77.0815 59.8654 77.781C59.8654 78.4805 60.4323 79.0474 61.1318 79.0474H62.3257C63.0252 79.0474 63.5921 78.4805 63.5921 77.781ZM63.5921 85.7288C63.5921 85.0293 63.0252 84.4624 62.3257 84.4624H61.1318C60.4323 84.4624 59.8654 85.0293 59.8654 85.7288C59.8654 86.4283 60.4323 86.9951 61.1318 86.9951H62.3257C63.0252 86.9951 63.5921 86.4283 63.5921 85.7288ZM56.4222 77.781C56.4222 77.0815 55.8554 76.5147 55.1559 76.5147H53.9619C53.2624 76.5147 52.6956 77.0815 52.6956 77.781C52.6956 78.4805 53.2624 79.0474 53.9619 79.0474H55.1559C55.8554 79.0474 56.4222 78.4805 56.4222 77.781ZM56.4222 85.7288C56.4222 85.0293 55.8554 84.4624 55.1559 84.4624H53.9619C53.2624 84.4624 52.6956 85.0293 52.6956 85.7288C52.6956 86.4283 53.2624 86.9951 53.9619 86.9951H55.1559C55.8554 86.9951 56.4222 86.4283 56.4222 85.7288ZM49.2464 77.781C49.2464 77.0815 48.6795 76.5147 47.98 76.5147H46.786C46.0866 76.5147 45.5197 77.0815 45.5197 77.781C45.5197 78.4805 46.0866 79.0474 46.786 79.0474H47.98C48.6795 79.0474 49.2464 78.4805 49.2464 77.781ZM49.2464 85.7288C49.2464 85.0293 48.6795 84.4624 47.98 84.4624H46.786C46.0866 84.4624 45.5197 85.0293 45.5197 85.7288C45.5197 86.4283 46.0866 86.9951 46.786 86.9951H47.98C48.6795 86.9951 49.2464 86.4283 49.2464 85.7288ZM42.0765 77.781C42.0765 77.0815 41.5097 76.5147 40.8102 76.5147H39.6162C38.9167 76.5147 38.3499 77.0815 38.3499 77.781C38.3499 78.4805 38.9167 79.0474 39.6162 79.0474H40.8102C41.5097 79.0474 42.0765 78.4805 42.0765 77.781ZM42.0765 85.7288C42.0765 85.0293 41.5097 84.4624 40.8102 84.4624H39.6162C38.9167 84.4624 38.3499 85.0293 38.3499 85.7288C38.3499 86.4283 38.9167 86.9951 39.6162 86.9951H40.8102C41.5097 86.9951 42.0765 86.4283 42.0765 85.7288ZM34.9006 77.781C34.9006 77.0815 34.3338 76.5147 33.6343 76.5147H32.4403C31.7408 76.5147 31.174 77.0815 31.174 77.781C31.174 78.4805 31.7408 79.0474 32.4403 79.0474H33.6343C34.3338 79.0474 34.9006 78.4805 34.9006 77.781ZM34.9006 85.7288C34.9006 85.0293 34.3338 84.4624 33.6343 84.4624H32.4403C31.7408 84.4624 31.174 85.0293 31.174 85.7288C31.174 86.4283 31.7408 86.9951 32.4403 86.9951H33.6343C34.3338 86.9951 34.9006 86.4283 34.9006 85.7288ZM27.7308 77.781C27.7308 77.0815 27.1639 76.5207 26.4644 76.5207H25.2644C24.5649 76.5207 24.0041 77.0815 24.0041 77.781C24.0041 78.4805 24.5649 79.0474 25.2644 79.0474H26.4644C27.1639 79.0474 27.7308 78.4805 27.7308 77.781ZM27.7247 85.7288C27.7247 85.0293 27.1639 84.4624 26.4644 84.4624H25.2644C24.5649 84.4624 24.0041 85.0293 24.0041 85.7288C24.0041 86.4283 24.5649 86.9951 25.2644 86.9951H26.4644C27.1639 86.9951 27.7247 86.4283 27.7247 85.7288ZM21.3207 93.6705C21.3207 92.971 20.7539 92.4041 20.0544 92.4041H18.6554C17.9559 92.4041 17.3891 92.971 17.3891 93.6705C17.3891 94.37 17.9559 94.9368 18.6554 94.9368H20.0544C20.7539 94.9368 21.3207 94.37 21.3207 93.6705ZM20.5549 77.781C20.5549 77.0815 19.9881 76.5207 19.2886 76.5207H18.6554C17.9559 76.5207 17.3891 77.0815 17.3891 77.781C17.3891 78.4805 17.9559 79.0474 18.6554 79.0474H19.2886C19.9881 79.0474 20.5549 78.4805 20.5549 77.781ZM20.5549 85.7288C20.5549 85.0293 19.9881 84.4624 19.2886 84.4624H18.6554C17.9559 84.4624 17.3891 85.0293 17.3891 85.7288C17.3891 86.4283 17.9559 86.9951 18.6554 86.9951H19.2886C19.9881 86.9951 20.5549 86.4283 20.5549 85.7288Z" fill="#8C3680"/>
</g>
<defs>
<filter id="filter0_d_3153_2436" x="0.150879" y="0.150879" width="112.657" height="111.692" filterUnits="userSpaceOnUse" color-interpolation-filters="sRGB">
<feFlood flood-opacity="0" result="BackgroundImageFix"/>
<feColorMatrix in="SourceAlpha" type="matrix" values="0 0 0 0 0 0 0 0 0 0 0 0 0 0 0 0 0 0 127 0" result="hardAlpha"/>
<feOffset/>
<feGaussianBlur stdDeviation="4"/>
<feComposite in2="hardAlpha" operator="out"/>
<feColorMatrix type="matrix" values="0 0 0 0 0.737255 0 0 0 0 0.321569 0 0 0 0 0.678431 0 0 0 0.28 0"/>
<feBlend mode="normal" in2="BackgroundImageFix" result="effect1_dropShadow_3153_2436"/>
<feBlend mode="normal" in="SourceGraphic" in2="effect1_dropShadow_3153_2436" result="shape"/>
</filter>
</defs>
</svg>
