<svg width="113" height="117" viewBox="0 0 113 117" fill="none" xmlns="http://www.w3.org/2000/svg">
<g filter="url(#filter0_d_3153_2253)">
<path d="M98.4576 52.7146L102.676 72.5598C102.838 73.3224 102.353 74.069 101.59 74.2311L81.7453 78.4494C80.9883 78.6103 80.236 78.1266 80.0739 77.364L75.8557 57.5188C75.6912 56.7449 76.1672 56.012 76.9411 55.8475L96.7863 51.6292C97.5489 51.4671 98.2955 51.952 98.4576 52.7146ZM94.5953 55.7379C94.4992 55.286 94.0471 54.9924 93.5952 55.0884L89.4036 55.9794C88.9517 56.0755 88.6637 56.5263 88.7598 56.9783L90.334 64.3842L89.7285 64.1468C88.826 63.7896 87.8463 63.7085 86.9029 63.909C84.2422 64.4746 82.5385 67.098 83.1041 69.7587C83.6696 72.4194 86.2943 74.1288 88.955 73.5632C91.6157 72.9977 93.3239 70.3674 92.7583 67.7067L90.579 57.4536L93.9458 56.738C94.3977 56.6419 94.6913 56.1898 94.5953 55.7379Z" fill="#18282B"/>
<path d="M33.7891 87.9698L34.7677 92.2963C35.4569 95.344 37.2224 98.039 39.7412 99.889L42.2724 101.742L42.5524 101.948L42.3462 102.228L40.2153 105.12C39.7072 105.812 38.9767 106.292 38.1463 106.469C38.0785 106.483 38.0095 106.492 37.9417 106.506C37.027 106.648 36.1057 106.424 35.3503 105.87C31.3973 102.967 28.6187 98.7282 27.5324 93.9228L26.5561 89.6076L26.4841 89.2687L26.8161 89.1922L29.7069 88.5423L29.7634 88.5303L29.7804 88.5267L32.9681 87.8019L33.0924 87.7755C33.1816 87.7506 33.2776 87.7302 33.3736 87.7098L33.7126 87.6377L33.7891 87.9698Z" fill="#18282B"/>
<path d="M28.4777 86.7311L28.5497 87.0701L28.2176 87.1466L22.844 88.3655C22.7763 88.3799 22.704 88.4012 22.6306 88.4168C20.5913 88.8503 18.4638 88.4522 16.6421 87.2984C14.7861 86.1224 13.4944 84.295 13.0098 82.1544L12.1233 78.2335C11.6376 76.0872 12.0143 73.8874 13.1847 72.0327C14.3596 70.1711 16.1881 68.885 18.34 68.3981L20.5642 67.8899L23.7023 67.1815L24.0413 67.1095L24.1121 67.4428L26.3314 77.2445L28.4777 86.7311Z" fill="#18282B"/>
<path d="M20.4621 66.1876L20.3221 66.2232L19.9843 66.3009L19.9066 65.9632L19.6375 64.7805L19.5655 64.4415L19.9032 64.3638L22.9114 63.6831L23.2492 63.6054L23.3212 63.9443L23.5903 65.127L23.668 65.4648L23.3291 65.5368L20.4621 66.1876Z" fill="#18282B"/>
<path d="M37.0571 67.9564C37.5383 67.7478 38.1086 67.9867 38.3115 68.4691C38.4083 68.7024 38.4103 68.9618 38.3123 69.1951C38.2155 69.4342 38.0309 69.621 37.7976 69.7179C37.4404 69.8705 37.0876 70.0164 36.7211 70.1533C36.6783 70.1742 36.6287 70.1907 36.5722 70.2027C36.1146 70.3 35.654 70.0495 35.4845 69.6132C35.3921 69.373 35.3958 69.1125 35.4994 68.8779C35.6031 68.6433 35.7901 68.4677 36.0303 68.3754C36.3729 68.2376 36.7156 68.0998 37.0571 67.9564Z" fill="#18282B"/>
<path d="M51.2007 60.1085C51.3718 60.3024 51.4529 60.545 51.4368 60.8023C51.4137 61.0552 51.2976 61.2865 51.1037 61.4576C48.9357 63.3414 46.572 65.0542 44.0832 66.5397C43.6165 66.816 43.0323 66.6509 42.7676 66.2112C42.6381 65.9907 42.5954 65.7341 42.6615 65.4898C42.7208 65.241 42.8769 65.0307 43.0973 64.9012C45.486 63.4724 47.7633 61.8252 49.8573 60.0103C49.9761 59.9024 50.1258 59.8292 50.2783 59.7968C50.6173 59.7248 50.9733 59.8439 51.2007 60.1085Z" fill="#18282B"/>
<path d="M71.2784 89.9557C71.4422 90.6708 71.3107 91.4131 70.914 92.0466C70.5172 92.68 69.9018 93.1178 69.1867 93.2816L69.1585 93.2876C67.6671 93.6046 66.19 92.6551 65.8573 91.173L60.1962 66.1789L60.189 66.145C60.1887 66.1156 60.1827 66.0873 60.1767 66.0591L57.5158 54.2906L55.9449 47.3445C55.7487 46.477 55.9801 45.5658 56.5544 44.9064C56.9387 44.4646 57.4753 44.1557 58.0684 44.0296C58.526 43.9323 58.9951 43.9448 59.4362 44.0754C59.6748 44.1428 59.9094 44.2464 60.1343 44.3876C60.7689 44.79 61.2067 45.4054 61.3717 46.1261L71.2784 89.9557Z" fill="#18282B"/>
<path d="M55.7989 34.8525L64.402 17.1886L64.5942 16.7876L64.9374 17.0689L69.1347 20.5931L69.2285 20.6736L71.4751 31.243C71.6372 32.0056 71.1479 32.7591 70.3853 32.9212L55.161 36.1572L55.4739 35.518L55.7989 34.8525Z" fill="#18282B"/>
<path d="M56.0407 29.9064L56.249 30.0806L56.1296 30.3245L53.1507 36.4486L53.0766 36.6002L50.5458 37.1381C49.7832 37.3002 49.0297 36.8109 48.8676 36.0483L48.3681 33.6983L48.4223 33.5923L51.7141 26.8289L51.9075 26.4335L52.2507 26.7148L56.0407 29.9064Z" fill="#18282B"/>
<path d="M32.5756 30.094L36.7938 49.9392C36.9559 50.7018 36.4654 51.4497 35.7028 51.6118L15.8633 55.8288C15.1006 55.9909 14.3483 55.5072 14.1862 54.7446L9.96803 34.8994C9.80353 34.1255 10.2851 33.3914 11.0591 33.2269L30.8986 29.0099C31.6612 28.8478 32.4135 29.3314 32.5756 30.094ZM29.9671 41.0164C29.9059 40.7283 29.6889 40.4851 29.4091 40.3911L15.5006 35.8726C15.3619 35.8312 15.2122 35.8217 15.0654 35.8529C14.9185 35.8842 14.7857 35.9537 14.6758 36.0479C14.4528 36.2488 14.3535 36.5593 14.4147 36.8474L17.455 51.1508C17.5174 51.4445 17.7344 51.6877 18.0187 51.7749C18.1586 51.8219 18.3138 51.8303 18.4551 51.8002C18.5963 51.7702 18.7348 51.6995 18.8434 51.5996L29.7129 41.8203C29.9302 41.6206 30.0296 41.3102 29.9671 41.0164Z" fill="#18282B"/>
<path d="M90.6511 57.7927L92.7584 67.7068C93.324 70.3675 91.6158 72.9978 88.9551 73.5633C86.2944 74.1289 83.6697 72.4195 83.1042 69.7588C82.5386 67.0981 84.2423 64.4747 86.9031 63.9091C87.8464 63.7086 88.8261 63.7897 89.7286 64.1469L90.3341 64.3843L88.7599 56.9784C88.6638 56.5264 88.9518 56.0756 89.4037 55.9795L93.5953 55.0885C94.0472 54.9925 94.4993 55.2861 94.5954 55.738C94.6914 56.1899 94.3978 56.642 93.9459 56.7381L90.5791 57.4537L90.6511 57.7927Z" fill="#335F66"/>
<path d="M98.4577 52.7147C98.2956 51.9521 97.549 51.4672 96.7864 51.6293L76.9412 55.8475C76.1673 56.012 75.6913 56.745 75.8558 57.5189L80.0741 77.364C80.2362 78.1267 80.9884 78.6103 81.7454 78.4494L101.591 74.2312C102.353 74.0691 102.838 73.3225 102.676 72.5599L98.4577 52.7147ZM104.325 72.2092C104.68 73.8757 103.608 75.5265 101.941 75.8807L82.096 80.099C80.4296 80.4532 78.7844 79.3799 78.4302 77.7135L74.212 57.8683C73.8577 56.2018 74.9241 54.5522 76.5906 54.198L96.4358 49.9798C98.1022 49.6256 99.753 50.6976 100.107 52.3641L104.325 72.2092Z" fill="#335F66"/>
<path d="M64.402 17.1886L55.7989 34.8525L55.4739 35.5179L55.161 36.1572L70.3852 32.9211C71.1479 32.759 71.6372 32.0056 71.4751 31.2429L69.2285 20.6735L69.1346 20.5931L64.9374 17.0689L64.5942 16.7875L64.402 17.1886ZM70.7347 34.565L50.8952 38.782C49.223 39.1375 47.5791 38.0699 47.2237 36.3977L43.0066 16.5582C42.6512 14.8861 43.7188 13.2422 45.3909 12.8867L65.2304 8.66972C66.9026 8.3143 68.5465 9.38189 68.9019 11.054L73.119 30.8935C73.4744 32.5656 72.4068 34.2096 70.7347 34.565ZM53.0765 36.6002L53.1506 36.4487L56.1295 30.3245L56.2489 30.0807L56.0406 29.9065L52.2506 26.7149L51.9074 26.4336L51.714 26.8289L48.4222 33.5923L48.368 33.6983L48.8675 36.0483C49.0296 36.8109 49.7831 37.3003 50.5457 37.1382L53.0765 36.6002Z" fill="#335F66"/>
<path d="M29.7128 41.8204L18.8433 51.5997C18.7346 51.6996 18.6018 51.7692 18.4549 51.8004C18.3081 51.8316 18.1584 51.8221 18.0185 51.7751C17.7343 51.6879 17.5173 51.4447 17.4549 51.1509L14.4146 36.8475C14.3533 36.5594 14.4527 36.249 14.6757 36.0481C14.7855 35.9539 14.9184 35.8843 15.0652 35.8531C15.2121 35.8219 15.3617 35.8314 15.5004 35.8728L29.409 40.3912C29.6888 40.4853 29.9058 40.7285 29.967 41.0166C30.0282 41.3047 29.9301 41.6207 29.7128 41.8204Z" fill="#335F66"/>
<path d="M8.32402 35.2489C7.9698 33.5824 9.03619 31.9328 10.7083 31.5774L30.5478 27.3604C32.2199 27.005 33.8651 28.0782 34.2193 29.7447L38.4375 49.5898C38.7918 51.2563 37.7254 52.9059 36.0532 53.2613L16.2137 57.4784C14.5416 57.8338 12.8965 56.7605 12.5422 55.0941L8.32402 35.2489ZM14.1861 54.7446C14.3482 55.5073 15.1005 55.9909 15.8631 55.8288L35.7026 51.6118C36.4652 51.4497 36.9558 50.7019 36.7937 49.9393L32.5754 30.0941C32.4133 29.3315 31.6611 28.8478 30.8984 29.0099L11.0589 33.2269C10.285 33.3914 9.80339 34.1256 9.9679 34.8995L14.1861 54.7446Z" fill="#335F66"/>
<path d="M56.5545 44.9063C55.9802 45.5657 55.7488 46.4769 55.945 47.3444L57.5159 54.2905L60.1768 66.059L60.1984 66.1607L60.1963 66.1788L65.8573 91.1729C66.1901 92.655 67.6672 93.6045 69.1586 93.2875L69.1868 93.2815C69.9019 93.1177 70.5173 92.6799 70.9141 92.0465C71.3108 91.413 71.4423 90.6707 71.2785 89.9556L61.3718 46.126C61.2068 45.4053 60.769 44.7899 60.1344 44.3875C59.9095 44.2463 59.6749 44.1427 59.4362 44.0753C58.9952 43.9447 58.5261 43.9322 58.0685 44.0295C57.4754 44.1556 56.9388 44.4645 56.5545 44.9063ZM27.5325 93.9226C28.6189 98.728 31.3975 102.967 35.3505 105.87C36.1059 106.424 37.0272 106.647 37.9419 106.506C38.0097 106.492 38.0786 106.483 38.1464 106.469C38.9768 106.292 39.7073 105.812 40.2155 105.12L42.3464 102.228L42.5526 101.948L42.2726 101.742L39.7413 99.8887C37.2226 98.0388 35.4571 95.3438 34.7679 92.2961L33.7892 87.9696L33.7172 87.6306L33.3738 87.7095C33.2778 87.7299 33.1817 87.7504 33.0926 87.7752L32.9683 87.8016L29.7805 88.5265L29.7636 88.5301L29.7071 88.5421L26.8163 89.1919L26.4774 89.264L26.5563 89.6074L27.5325 93.9226ZM23.6682 65.4646L23.5961 65.1256L23.3214 63.9441L23.2493 63.6052L22.9104 63.6772L19.9034 64.3636L19.5645 64.4357L19.6377 64.7803L19.9068 65.963L19.9789 66.3019L20.3222 66.223L20.4635 66.193L23.3292 65.5366L23.6682 65.4646ZM18.0065 66.7448L18.3454 66.6727L18.2677 66.335L17.7331 63.9865C17.6875 63.7719 17.7278 63.5448 17.8467 63.3542C17.9656 63.1636 18.1498 63.03 18.3701 62.9832L23.6771 61.7843C23.943 61.7573 24.1813 61.7952 24.3308 61.8874C24.5214 62.0063 24.6562 62.1961 24.703 62.4165L25.2284 64.7492L25.3004 65.0881L25.6438 65.0092L27.8127 64.5187C34.4505 63.0251 40.6876 59.869 45.8464 55.3894L54.2124 48.1378L54.3716 47.9977L54.3284 47.7943L54.3059 47.7165C53.7584 45.3353 55.1938 43.005 57.5642 42.4067L57.6885 42.3803C57.728 42.3719 57.7663 42.3579 57.8059 42.3495C58.8736 42.1225 60.0498 42.3508 61.0302 42.9631C62.046 43.6033 62.7478 44.5995 63.0121 45.7596L72.9233 89.5824C73.1807 90.7381 72.9742 91.9333 72.3385 92.9423C71.7027 93.9512 70.7189 94.6563 69.5701 94.9182L69.508 94.9314C67.1241 95.4381 64.7464 93.9184 64.2183 91.5449L64.2051 91.4828L64.1562 91.2806L63.955 91.223L53.2889 88.2648C47.6372 86.7029 41.5663 86.3638 35.7394 87.2835L35.3686 87.3446L35.4455 87.7061L36.4126 91.9229C37.0121 94.5764 38.5446 96.9253 40.7342 98.5322L44.2231 101.085C44.4048 101.218 44.5239 101.417 44.5594 101.64C44.5937 101.857 44.5365 102.087 44.4027 102.263L41.572 106.112C40.822 107.14 39.7273 107.851 38.4902 108.114C38.3942 108.134 38.2969 108.149 38.1997 108.164C36.8396 108.376 35.4764 108.046 34.3576 107.227C30.0767 104.086 27.0683 99.4886 25.8878 94.2958L24.916 89.9737L24.8439 89.6348L24.5006 89.7137L23.2162 90.0044L23.0806 90.0332C20.5442 90.5724 17.9412 90.1042 15.7452 88.717C13.5081 87.3032 11.9547 85.1063 11.3709 82.5262L10.4831 78.5997C9.89929 76.0196 10.351 73.367 11.7649 71.1299C13.1787 68.8928 15.3768 67.3451 17.9681 66.7588L18.0077 66.7504L18.0065 66.7448ZM20.5631 67.8841L18.339 68.3922C16.187 68.8792 14.3585 70.1653 13.1836 72.0269C12.0132 73.8816 11.6365 76.0814 12.1222 78.2276L13.0088 82.1486C13.4933 84.2892 14.7851 86.1166 16.641 87.2926C18.4627 88.4464 20.5902 88.8444 22.6295 88.411C22.7029 88.3954 22.7752 88.3741 22.843 88.3597L28.2166 87.1407L28.5555 87.0687L28.4766 86.7253L26.3303 77.2387L24.111 67.4369L24.039 67.098L23.7001 67.17L20.5631 67.8841ZM51.4357 60.7964C51.4519 60.5391 51.3708 60.2965 51.1997 60.1026C50.9722 59.838 50.6163 59.7189 50.2773 59.7909C50.1248 59.8233 49.975 59.8965 49.8563 60.0044C47.7622 61.8193 45.4849 63.4665 43.0963 64.8953C42.8758 65.0248 42.7198 65.2351 42.6605 65.4839C42.5943 65.7282 42.6371 65.9848 42.7666 66.2053C43.0313 66.645 43.6155 66.8101 44.0822 66.5338C46.571 65.0483 48.9347 63.3355 51.1027 61.4517C51.2966 61.2806 51.4127 61.0493 51.4357 60.7964ZM38.3113 69.1892C38.4093 68.9559 38.4074 68.6965 38.3105 68.4632C38.1076 67.9808 37.5373 67.7419 37.0561 67.9505C36.7146 68.0939 36.372 68.2317 36.0293 68.3695C35.7891 68.4618 35.6021 68.6374 35.4984 68.872C35.3948 69.1066 35.3911 69.3671 35.4835 69.6073C35.653 70.0436 36.1136 70.294 36.5712 70.1968C36.6277 70.1848 36.6773 70.1683 36.7201 70.1474C37.0866 70.0105 37.4394 69.8646 37.7966 69.712C38.0299 69.6151 38.2146 69.4283 38.3113 69.1892Z" fill="#335F66"/>
</g>
<defs>
<filter id="filter0_d_3153_2253" x="0.256104" y="0.601456" width="112.137" height="115.625" filterUnits="userSpaceOnUse" color-interpolation-filters="sRGB">
<feFlood flood-opacity="0" result="BackgroundImageFix"/>
<feColorMatrix in="SourceAlpha" type="matrix" values="0 0 0 0 0 0 0 0 0 0 0 0 0 0 0 0 0 0 127 0" result="hardAlpha"/>
<feOffset/>
<feGaussianBlur stdDeviation="4"/>
<feComposite in2="hardAlpha" operator="out"/>
<feColorMatrix type="matrix" values="0 0 0 0 0.266667 0 0 0 0 0.498039 0 0 0 0 0.533333 0 0 0 0.6 0"/>
<feBlend mode="normal" in2="BackgroundImageFix" result="effect1_dropShadow_3153_2253"/>
<feBlend mode="normal" in="SourceGraphic" in2="effect1_dropShadow_3153_2253" result="shape"/>
</filter>
</defs>
</svg>
