<svg width="44" height="44" viewBox="0 0 44 44" fill="none" xmlns="http://www.w3.org/2000/svg">
<path d="M27.7259 12.8418C26.6198 12.8494 25.5297 13.1078 24.538 13.5977C23.5462 14.0873 22.6785 14.796 22 15.6695C21.3222 14.796 20.4551 14.0876 19.4636 13.5977C18.4724 13.1078 17.383 12.8494 16.2771 12.8418C12.1528 12.8418 8.80005 16.3911 8.80005 20.7618V29.421C8.80005 29.8877 8.98544 30.3353 9.31544 30.6656C9.64573 30.9956 10.0934 31.181 10.56 31.181C11.0267 31.181 11.4744 30.9956 11.8047 30.6656C12.1347 30.3353 12.32 29.8877 12.32 29.421V20.7559C12.32 18.3271 14.1006 16.3559 16.2888 16.3559C18.4771 16.3559 20.2576 18.333 20.2576 20.7559V29.4151C20.2576 29.8818 20.443 30.3295 20.773 30.6597C21.1033 30.9897 21.551 31.1751 22.0176 31.1751C22.4843 31.1751 22.932 30.9897 23.2623 30.6597C23.5923 30.3295 23.7776 29.8818 23.7776 29.4151V20.7559C23.7776 18.3271 25.5582 16.3559 27.7464 16.3559C29.9347 16.3559 31.7152 18.333 31.7152 20.7559V29.4151C31.7152 29.8818 31.9006 30.3295 32.2306 30.6597C32.5609 30.9897 33.0086 31.1751 33.4752 31.1751C33.9419 31.1751 34.3896 30.9897 34.7199 30.6597C35.0499 30.3295 35.2352 29.8818 35.2352 29.4151V20.7559C35.203 16.3911 31.8502 12.8418 27.7259 12.8418Z" fill="#447F88"/>
<path d="M22 0C16.1674 0.00704 10.5755 2.32701 6.45128 6.45128C2.32701 10.5755 0.00704 16.1674 0 22C0.00704 27.8326 2.32701 33.4245 6.45128 37.5487C10.5755 41.673 16.1674 43.993 22 44C27.8329 43.9938 33.425 41.6739 37.5496 37.5496C41.6739 33.425 43.9938 27.8329 44 22C43.993 16.1674 41.673 10.5755 37.5487 6.45128C33.4245 2.32701 27.8326 0.00704 22 0ZM22 43.12C16.4006 43.1138 11.0323 40.8866 7.07285 36.9271C3.11344 32.9677 0.88616 27.5994 0.88 22C0.88616 16.4006 3.11344 11.0323 7.07285 7.07285C11.0323 3.11344 16.4006 0.88616 22 0.88C27.5994 0.88616 32.9677 3.11344 36.9271 7.07285C40.8866 11.0323 43.1138 16.4006 43.12 22C43.1138 27.5994 40.8866 32.9677 36.9271 36.9271C32.9677 40.8866 27.5994 43.1138 22 43.12Z" fill="#447F88"/>
</svg>
