<svg width="72" height="64" viewBox="0 0 72 64" fill="none" xmlns="http://www.w3.org/2000/svg">
<g clip-path="url(#clip0_3625_96)">
<path d="M62.58 38.79C62.9 29.1 57.91 20.09 49.54 15.25C49.28 15.1 49.01 14.96 48.74 14.81C48.89 14.02 48.97 13.24 48.97 12.49C48.97 5.6 43.37 0 36.48 0C29.59 0 23.99 5.6 23.99 12.49C23.99 13.26 24.06 14.05 24.21 14.82C19.88 17.11 16.3 20.57 13.85 24.81C11.39 29.07 10.18 33.9 10.36 38.79C5.36 40.55 2 45.27 2 50.57C2 57.46 7.6 63.06 14.49 63.06C17.48 63.06 20.37 61.99 22.64 60.04C22.89 60.2 23.15 60.36 23.41 60.51C27.37 62.8 31.87 64.01 36.43 64.01C41.33 64.01 46.13 62.64 50.31 60.03C52.58 61.99 55.47 63.07 58.46 63.07C61.93 63.07 65.26 61.61 67.62 59.07C67.93 58.73 68.23 58.38 68.5 58.01C70.1 55.85 70.95 53.28 70.95 50.58C70.95 45.27 67.59 40.55 62.58 38.8V38.79ZM14.49 61.53C11.32 61.53 8.32 60.16 6.23 57.78C8.02 54.9 11.1 53.19 14.49 53.19C17.88 53.19 20.96 54.9 22.75 57.78C20.67 60.17 17.66 61.53 14.49 61.53ZM14.49 44.55C16.45 44.55 18.04 46.14 18.04 48.1C18.04 50.06 16.45 51.65 14.49 51.65C12.53 51.65 10.94 50.06 10.94 48.1C10.94 46.14 12.53 44.55 14.49 44.55ZM19.58 48.1C19.58 45.29 17.3 43.01 14.49 43.01C11.68 43.01 9.4 45.29 9.4 48.1C9.4 49.66 10.12 51.14 11.34 52.1C8.87 52.82 6.73 54.36 5.25 56.47C4.12 54.71 3.53 52.67 3.53 50.57C3.53 44.53 8.45 39.61 14.49 39.61C20.53 39.61 25.45 44.53 25.45 50.57C25.45 52.67 24.86 54.71 23.73 56.47C22.25 54.35 20.1 52.81 17.64 52.1C18.86 51.14 19.58 49.67 19.58 48.1ZM24.54 58C26.14 55.84 26.99 53.27 26.99 50.57C26.99 43.68 21.39 38.08 14.5 38.08C13.64 38.08 12.75 38.18 11.85 38.38C11.75 33.91 12.89 29.48 15.15 25.57C17.39 21.69 20.66 18.49 24.59 16.33C26.26 21.52 31.01 25 36.48 25C39.95 25 43.28 23.54 45.64 21C45.95 20.66 46.25 20.31 46.52 19.94C47.33 18.85 47.95 17.64 48.37 16.33C48.4 16.34 48.42 16.36 48.44 16.37C48.56 16.43 48.68 16.49 48.79 16.56C56.56 21.05 61.26 29.4 61.1 38.39C60.2 38.2 59.32 38.1 58.46 38.1C51.57 38.1 45.97 43.7 45.97 50.59C45.97 53.7 47.12 56.67 49.22 58.98C41.52 63.62 31.93 63.72 24.16 59.24C24.03 59.17 23.91 59.09 23.78 59.01L23.75 58.99C24.03 58.68 24.3 58.36 24.54 58.03V58ZM58.46 44.55C60.42 44.55 62.01 46.14 62.01 48.1C62.01 50.06 60.42 51.65 58.46 51.65C56.5 51.65 54.91 50.06 54.91 48.1C54.91 46.14 56.5 44.55 58.46 44.55ZM58.46 53.19C61.85 53.19 64.93 54.9 66.72 57.78C64.64 60.17 61.63 61.53 58.46 61.53C55.29 61.53 52.28 60.16 50.2 57.78C51.99 54.9 55.07 53.19 58.46 53.19ZM63.55 48.1C63.55 45.29 61.27 43.01 58.46 43.01C55.65 43.01 53.37 45.29 53.37 48.1C53.37 49.66 54.09 51.14 55.31 52.1C52.84 52.82 50.7 54.36 49.22 56.47C48.09 54.71 47.5 52.67 47.5 50.57C47.5 44.53 52.42 39.61 58.46 39.61C64.5 39.61 69.42 44.53 69.42 50.57C69.42 52.67 68.83 54.71 67.7 56.47C66.22 54.35 64.07 52.81 61.61 52.1C62.83 51.14 63.55 49.67 63.55 48.1ZM36.48 6.48C38.44 6.48 40.03 8.07 40.03 10.03C40.03 11.99 38.44 13.58 36.48 13.58C34.52 13.58 32.93 11.99 32.93 10.03C32.93 8.07 34.52 6.48 36.48 6.48ZM36.48 15.12C39.87 15.12 42.95 16.83 44.74 19.71C42.66 22.1 39.65 23.46 36.48 23.46C33.31 23.46 30.31 22.09 28.22 19.71C30.01 16.83 33.09 15.12 36.48 15.12ZM45.71 18.4C44.23 16.28 42.09 14.74 39.62 14.03C40.84 13.07 41.56 11.6 41.56 10.03C41.56 7.22 39.28 4.94 36.47 4.94C33.66 4.94 31.38 7.22 31.38 10.03C31.38 11.59 32.1 13.07 33.32 14.03C30.85 14.75 28.71 16.29 27.23 18.4C26.1 16.64 25.51 14.6 25.51 12.5C25.51 6.46 30.43 1.54 36.47 1.54C42.51 1.54 47.43 6.46 47.43 12.5C47.43 14.61 46.84 16.64 45.71 18.4Z" fill="white"/>
</g>
<defs>
<clipPath id="clip0_3625_96">
<rect width="72" height="64" fill="white"/>
</clipPath>
</defs>
</svg>
