<svg width="262" height="75" viewBox="0 0 262 75" fill="none" xmlns="http://www.w3.org/2000/svg">
<path d="M83.5107 30.4017C83.5107 22.0317 88.8401 19.0891 93.5808 19.0891C98.6159 19.0891 103.03 22.0971 103.03 30.4017C103.03 37.8563 99.0737 41.6164 93.156 41.6164C87.0747 41.6164 83.5107 37.8236 83.5107 30.4017ZM97.2756 30.4998C97.2756 27.7535 96.5561 23.7647 93.2541 23.7647C90.3113 23.7647 89.265 26.9034 89.265 30.173C89.265 33.2137 89.9191 37.0063 93.3846 37.0063C96.3928 37.0063 97.2756 33.8348 97.2756 30.4998Z" fill="#4D4D4D"/>
<path d="M113.068 23.9934C118.332 23.9934 120.981 26.9689 120.981 32.7559C120.981 38.5758 118.202 41.7473 113.69 41.7473C112.84 41.7473 111.859 41.5184 111.238 41.224V48.09H105.777V25.2359C108.426 24.3204 111.368 23.9934 113.068 23.9934ZM115.488 33.0175C115.488 30.1077 114.998 28.1133 112.872 28.1133C112.218 28.1133 111.63 28.2438 111.238 28.3746V37.3006C111.663 37.5947 112.415 37.7582 113.036 37.7582C114.932 37.7582 115.488 35.8292 115.488 33.0175Z" fill="#4D4D4D"/>
<path d="M122.813 33.3118C122.813 28.5709 125.658 23.9934 131.216 23.9934C134.649 23.9934 136.938 25.661 136.938 29.1268C136.938 33.8348 131.837 34.8484 128.372 35.0446C128.601 36.4506 129.614 37.6928 131.609 37.6928C133.178 37.6928 134.617 36.9736 135.63 36.2871L137.101 39.8834C136.938 40.047 134.453 41.7473 130.824 41.7473C125.102 41.7473 122.813 38.2815 122.813 33.3118ZM132.23 29.1595C132.23 28.3419 131.707 27.8189 130.889 27.8189C129.255 27.8189 128.241 29.3555 128.143 31.6115C129.908 31.5134 132.23 30.7615 132.23 29.1595Z" fill="#4D4D4D"/>
<path d="M138.934 24.5167H143.445L143.772 26.2821C144.819 24.8764 146.355 23.9934 148.546 23.9934C151.75 23.9934 153.777 25.7918 153.777 29.7806V41.224H148.317V30.7288C148.317 29.1922 148.121 28.1784 146.813 28.1784C145.505 28.1784 144.721 29.2247 144.721 30.598V41.224H139.293V27.8516L138.934 24.5167Z" fill="#4D4D4D"/>
<path d="M161.167 19.4817L163.718 33.4425H163.783L166.301 21.1164H171.728L174.049 32.9849H174.148L176.207 19.4817H181.831L177.483 41.2241H171.63L168.982 29.421H168.851L166.137 41.2241H160.154L155.544 19.4817H161.167Z" fill="#4D4D4D"/>
<path d="M181.965 33.6059C181.965 27.8516 184.973 23.9934 190.825 23.9934C191.97 23.9934 194.52 24.2877 197.136 25.3013V37.6928L197.495 41.224H192.885L192.624 39.6872L192.46 39.6548C191.577 40.9297 190.237 41.7473 188.373 41.7473C183.338 41.7473 181.965 37.8236 181.965 33.6059ZM191.741 35.9601V28.0806C191.348 27.9171 190.825 27.8189 190.237 27.8189C188.079 27.8189 187.36 30.4017 187.36 33.2137C187.36 35.7311 187.817 37.8236 189.714 37.8236C190.989 37.8236 191.741 36.9082 191.741 35.9601Z" fill="#4D4D4D"/>
<path d="M200.439 35.3062V18.5007H205.9V35.3062C205.9 36.7774 206.292 37.4641 207.338 37.4641C207.829 37.4641 208.483 37.2679 209.235 36.9409L210.412 40.5375C209.235 41.3875 207.306 41.7473 205.834 41.7473C200.766 41.7473 200.439 38.445 200.439 35.3062Z" fill="#4D4D4D"/>
<path d="M211.458 35.3062V18.5007H216.918V35.3062C216.918 36.7774 217.311 37.4641 218.357 37.4641C218.847 37.4641 219.501 37.2679 220.253 36.9409L221.43 40.5375C220.253 41.3875 218.324 41.7473 216.853 41.7473C211.785 41.7473 211.458 38.445 211.458 35.3062Z" fill="#4D4D4D"/>
<path d="M221.726 33.3118C221.726 28.5709 224.57 23.9934 230.128 23.9934C233.561 23.9934 235.85 25.661 235.85 29.1268C235.85 33.8348 230.75 34.8484 227.284 35.0446C227.513 36.4506 228.526 37.6928 230.521 37.6928C232.09 37.6928 233.529 36.9736 234.542 36.2871L236.013 39.8834C235.85 40.047 233.365 41.7473 229.736 41.7473C224.014 41.7473 221.726 38.2815 221.726 33.3118ZM231.142 29.1595C231.142 28.3419 230.619 27.8189 229.801 27.8189C228.167 27.8189 227.153 29.3555 227.055 31.6115C228.82 31.5134 231.142 30.7615 231.142 29.1595Z" fill="#4D4D4D"/>
<path d="M238.172 35.5022V18.5007H243.665V24.5166H247.752V28.7344H243.665V35.2735C243.665 37.0717 244.515 37.6274 245.626 37.6274C246.248 37.6274 246.869 37.366 247.392 37.0717L248.602 40.5375C247.588 41.224 245.757 41.7473 243.926 41.7473C238.564 41.7473 238.172 38.5758 238.172 35.5022Z" fill="#4D4D4D"/>
<path d="M86.7852 52.1875H93.2645V53.2846H88.0159V56.4724H93.1608V57.5695H88.0159V62.077H86.7852V52.1875Z" fill="#4D4D4D"/>
<path d="M103.897 52.0247C106.818 52.0247 108.804 54.2189 108.804 57.1399C108.804 60.0608 106.818 62.255 103.897 62.255C100.961 62.255 98.9893 60.0608 98.9893 57.1399C98.9893 54.2189 100.961 52.0247 103.897 52.0247ZM103.897 53.1218C101.673 53.1218 100.264 54.8269 100.264 57.1399C100.264 59.4379 101.673 61.1579 103.897 61.1579C106.106 61.1579 107.529 59.4379 107.529 57.1399C107.529 54.8269 106.106 53.1218 103.897 53.1218Z" fill="#4D4D4D"/>
<path d="M115.183 52.1875H116.413V58.2072C116.413 60.0161 117.392 61.1577 119.216 61.1577C121.039 61.1577 122.018 60.0161 122.018 58.2072V52.1875H123.248V58.2221C123.248 60.6832 121.899 62.2548 119.216 62.2548C116.532 62.2548 115.183 60.6684 115.183 58.2369V52.1875Z" fill="#4D4D4D"/>
<path d="M131.242 54.1001V62.077H130.012V52.1875H131.272L136.966 60.0013V52.1875H138.196V62.077H137.01L131.242 54.1001Z" fill="#4D4D4D"/>
<path d="M144.959 52.1875H148.34C151.409 52.1875 153.41 54.3375 153.41 57.1398C153.41 59.9569 151.409 62.077 148.34 62.077H144.959V52.1875ZM148.34 60.9799C150.742 60.9799 152.135 59.2599 152.135 57.1398C152.135 55.0046 150.786 53.2846 148.34 53.2846H146.19V60.9799H148.34Z" fill="#4D4D4D"/>
<path d="M165.467 59.8825H160.456L159.581 62.077H158.217L162.191 52.1875H163.718L167.706 62.077H166.342L165.467 59.8825ZM160.812 58.7854H165.097L162.961 53.2846L160.812 58.7854Z" fill="#4D4D4D"/>
<path d="M174.899 53.2846H171.771V52.1875H179.273V53.2846H176.13V62.077H174.899V53.2846Z" fill="#4D4D4D"/>
<path d="M185.354 52.1875H186.584V62.077H185.354V52.1875Z" fill="#4D4D4D"/>
<path d="M197.854 52.0247C200.775 52.0247 202.761 54.2189 202.761 57.1399C202.761 60.0608 200.775 62.255 197.854 62.255C194.918 62.255 192.946 60.0608 192.946 57.1399C192.946 54.2189 194.918 52.0247 197.854 52.0247ZM197.854 53.1218C195.63 53.1218 194.221 54.8269 194.221 57.1399C194.221 59.4379 195.63 61.1579 197.854 61.1579C200.063 61.1579 201.486 59.4379 201.486 57.1399C201.486 54.8269 200.063 53.1218 197.854 53.1218Z" fill="#4D4D4D"/>
<path d="M210.369 54.1001V62.077H209.139V52.1875H210.399L216.092 60.0013V52.1875H217.323V62.077H216.137L210.369 54.1001Z" fill="#4D4D4D"/>
<path opacity="0.25" d="M56.6731 6.88712L76.4947 18.0368C76.7545 18.1829 76.8832 18.4857 76.808 18.7741L67.1419 55.8612C67.0359 56.2679 66.5802 56.4714 66.2066 56.2789L45.7561 45.7439C45.4806 45.602 45.342 45.2867 45.4236 44.9878L55.7185 7.28614C55.831 6.87415 56.3009 6.67774 56.6731 6.88712Z" fill="#4D4D4D"/>
<path opacity="0.5" d="M35.7236 18.7484L55.8064 30.6574C55.9284 30.7299 56.0236 30.8399 56.0778 30.9709L67.1596 55.4724C67.3942 56.0398 66.7905 56.5898 66.2473 56.3035L45.7747 45.7721C45.6309 45.6963 45.5203 45.5698 45.4644 45.4171L34.7725 19.538C34.5605 18.9585 35.193 18.4334 35.7236 18.7484Z" fill="#4D4D4D"/>
<path opacity="0.75" d="M35.7342 18.742L55.5666 30.5175C55.8219 30.669 55.9436 30.9731 55.8634 31.259L45.719 67.3984C45.6067 67.7982 45.156 67.9945 44.7868 67.8043L24.3294 57.2656C24.0508 57.1221 23.9126 56.8018 23.9994 56.5007L34.7688 19.1245C34.8877 18.7116 35.3648 18.5226 35.7342 18.742Z" fill="#4D4D4D"/>
<path d="M10.8686 19.9055L30.9388 31.1493C31.068 31.222 31.1688 31.3363 31.2248 31.4735L45.6916 66.9667C45.9216 67.5309 45.3253 68.0766 44.7836 67.7976L24.073 57.1335C23.9297 57.0596 23.8186 56.9356 23.7609 56.785L9.93426 20.7121C9.71436 20.1384 10.3331 19.6042 10.8686 19.9055Z" fill="#4D4D4D"/>
</svg>
