<svg width="112" height="104" viewBox="0 0 112 104" fill="none" xmlns="http://www.w3.org/2000/svg">
<g filter="url(#filter0_d_3153_2270)">
<path d="M69.3522 24.2847C71.2219 24.2847 72.7495 25.8064 72.7495 27.682C72.7495 28.9914 71.9887 30.1946 70.809 30.7549C70.3667 30.9731 69.8712 31.0852 69.3522 31.0852C67.4766 31.0852 65.949 29.5576 65.949 27.682C65.949 27.1571 66.061 26.6616 66.2911 26.2016C66.8396 25.0396 68.0428 24.2847 69.3522 24.2847Z" fill="#200E1E"/>
<path d="M93.0923 55.7571V64.1974H9.88745V28.0773C9.88745 25.3877 12.0816 23.1936 14.7711 23.1936H26.2724V48.1132C26.2724 52.3303 29.6992 55.7571 33.9105 55.7571H93.0923Z" fill="#200E1E"/>
<path d="M102.152 15.7915V48.1132C102.152 51.369 99.5034 54.0172 96.2476 54.0172H33.9162C30.6605 54.0172 28.0122 51.369 28.0122 48.1132V15.7915C28.0122 12.5357 30.6605 9.88745 33.9162 9.88745H96.2476C99.5034 9.88745 102.152 12.5357 102.152 15.7915ZM91.6883 32.4655C91.9125 32.1588 91.9125 31.7459 91.6883 31.4333C91.3698 31.0027 86.2857 24.2022 78.7066 19.5722C74.743 17.1539 70.0894 15.3255 65.0819 15.3255C60.0744 15.3255 55.4208 17.1539 51.4513 19.5722C43.8723 24.2022 38.7881 31.0086 38.4696 31.4392C38.2455 31.7459 38.2455 32.1588 38.4696 32.4655C38.9532 33.1261 50.5076 48.5791 65.0819 48.5791C79.6562 48.5791 91.2047 33.1261 91.6883 32.4655Z" fill="#200E1E"/>
<path d="M89.6891 31.7105L89.8896 31.9523L89.6891 32.1941C88.3089 33.8987 84.54 38.2515 79.3969 41.7727L77.7395 42.9051L78.866 41.2418C80.724 38.4933 81.7089 35.2788 81.7089 31.9523C81.7089 28.6257 80.7299 25.4231 78.8719 22.6745L77.7454 21.0054L79.4087 22.1437C84.54 25.6649 88.3089 30.0059 89.6891 31.7105Z" fill="#200E1E"/>
<path d="M48.4551 31.9524C48.4551 35.273 49.4342 38.4816 51.2862 41.2301L52.4128 42.8993L50.7495 41.7609C45.624 38.2398 41.8551 33.8987 40.4691 32.1942L40.2744 31.9524L40.4691 31.7105C41.8492 30.006 45.6181 25.6532 50.7613 22.132L52.4245 20.9937L51.2921 22.6628C49.4342 25.4172 48.4551 28.6258 48.4551 31.9524Z" fill="#200E1E"/>
<path d="M79.9688 31.9524C79.9688 39.5433 74.283 45.9015 66.7393 46.7449H66.7275L66.6922 46.4028V46.7449C66.1672 46.7921 65.6246 46.8393 65.082 46.8393C64.5393 46.8393 63.979 46.7921 63.4482 46.7449C58.9538 46.2436 55.1259 43.8017 52.749 40.3101C51.127 37.9154 50.1892 35.0371 50.1892 31.9524C50.1892 24.3615 55.8809 18.0034 63.4246 17.1599C64.5629 17.0597 65.6482 17.0656 66.6922 17.1599C71.1983 17.6613 75.0321 20.1031 77.409 23.5948C79.031 25.9894 79.9688 28.8677 79.9688 31.9524ZM72.2423 31.9288C73.6519 30.9733 74.4895 29.3867 74.4895 27.6822C74.4895 24.8511 72.1833 22.5449 69.3522 22.5449C68.497 22.5449 67.6712 22.7513 66.9399 23.1406C66.2144 23.524 65.5774 24.0843 65.0997 24.7921L64.9935 24.9513H64.7989C61.0241 25.1106 58.075 28.1835 58.075 31.9524C58.075 35.7213 61.2128 38.9594 65.082 38.9594C68.9511 38.9594 71.9238 36.0044 72.0771 32.2355V32.0409L72.2423 31.9288Z" fill="#200E1E"/>
<path d="M66.9401 23.1406C67.6714 22.7514 68.4972 22.5449 69.3524 22.5449C72.1835 22.5449 74.4897 24.8511 74.4897 27.6822C74.4897 29.3867 73.6521 30.9733 72.2425 31.9288L72.0832 32.0409V32.2355C71.924 36.0044 68.8511 38.9594 65.0822 38.9594C61.3133 38.9594 58.0752 35.8157 58.0752 31.9524C58.0752 28.0892 61.0243 25.1106 64.7991 24.9573H64.9937L65.0999 24.7921C65.5776 24.0843 66.2146 23.524 66.9401 23.1406ZM72.7497 27.6822C72.7497 25.8066 71.2221 24.2849 69.3524 24.2849C68.043 24.2849 66.8398 25.0398 66.2913 26.2018C66.0613 26.6618 65.9492 27.1573 65.9492 27.6822C65.9492 29.5578 67.4768 31.0854 69.3524 31.0854C69.8714 31.0854 70.3669 30.9733 70.8092 30.7551C71.9889 30.1948 72.7497 28.9916 72.7497 27.6822Z" fill="#335F66"/>
<path d="M55.0964 69.606C56.4235 69.606 57.5028 70.6853 57.5028 72.0124C57.5028 73.3395 56.4235 74.4188 55.0964 74.4188H47.883C46.5559 74.4188 45.4766 73.3395 45.4766 72.0124C45.4766 70.6853 46.5559 69.606 47.883 69.606H55.0964Z" fill="#200E1E"/>
<path d="M91.6884 32.4656C91.2047 33.1262 79.6739 48.5792 65.0819 48.5792C50.49 48.5792 38.9533 33.1262 38.4696 32.4656C38.2455 32.1589 38.2455 31.746 38.4696 31.4393C38.7881 31.0087 43.8723 24.2023 51.4514 19.5723L52.4246 20.9937L50.7613 22.1321C45.6181 25.6532 41.8492 30.006 40.4691 31.7106L40.2744 31.9524L40.4691 32.1942C41.8551 33.8988 45.624 38.2398 50.7495 41.761L52.4128 42.8993L51.2862 41.2302L52.749 40.3101C55.1259 43.8018 58.9538 46.2436 63.4482 46.7449C63.979 46.7921 64.5275 46.8393 65.0819 46.8393C65.6364 46.8393 66.1672 46.7921 66.6921 46.7449V46.4028L66.7275 46.7449H66.7393C74.283 45.9015 79.9688 39.5433 79.9688 31.9524C79.9688 28.8677 79.031 25.9894 77.409 23.5948L78.8718 22.6747C80.7297 25.4232 81.7088 28.6318 81.7088 31.9524C81.7088 35.2731 80.7238 38.4934 78.8659 41.242L77.7393 42.9052L79.3967 41.7728C84.5399 38.2516 88.3088 33.8988 89.6889 32.1942L89.8894 31.9524L89.6889 31.7106C88.3088 30.006 84.5399 25.665 79.4085 22.1438L77.7452 21.0055L78.7066 19.5723C86.2857 24.2023 91.3699 31.0028 91.6884 31.4334C91.9125 31.746 91.9125 32.1589 91.6884 32.4656Z" fill="#335F66"/>
<path d="M66.6923 17.1598C65.6484 17.0654 64.5631 17.0595 63.4248 17.1598C55.8811 18.0032 50.1894 24.3614 50.1894 31.9522C50.1894 35.037 51.1272 37.9153 52.7492 40.3099L51.2864 41.23C49.4344 38.4815 48.4553 35.2729 48.4553 31.9522C48.4553 28.6316 49.4344 25.4171 51.2923 22.6627L52.4248 20.9935L51.4516 19.5721C55.421 17.1539 60.0746 15.3254 65.0821 15.3254C70.0896 15.3254 74.7433 17.1539 78.7068 19.5721L77.7454 21.0053L78.8719 22.6745L77.4092 23.5946C75.0323 20.1029 71.1985 17.6611 66.6923 17.1598Z" fill="#335F66"/>
<path d="M93.0922 55.7571H33.9105C29.6992 55.7571 26.2724 52.3303 26.2724 48.1131V23.1936H14.7711C12.0815 23.1936 9.88741 25.3877 9.88741 28.0772V64.1973H93.0922V55.7571ZM33.9105 8.14746H96.2477C100.459 8.14746 103.892 11.5743 103.892 15.7914V48.1131C103.892 52.3244 100.459 55.7571 96.2477 55.7571H94.8322V73.2097C94.8322 73.304 94.8204 73.3925 94.8145 73.4869L94.8027 73.7287C94.8027 73.7818 94.8027 73.8349 94.7909 73.9115L94.7791 73.9823C94.3898 77.3148 91.5646 79.8274 88.2086 79.8274H62.9115V87.4064L70.2606 91.6885C71.1453 92.2016 71.5641 93.2102 71.2928 94.2011C71.0274 95.1861 70.1603 95.8526 69.1341 95.8526H33.8397C32.8193 95.8526 31.9523 95.1861 31.6869 94.2011C31.4156 93.2102 31.8343 92.2016 32.719 91.6826L40.0681 87.4064V79.8274H14.7652C11.415 79.8274 8.58982 77.3148 8.20054 73.9823L8.18285 73.882C8.17695 73.829 8.17695 73.7759 8.17695 73.7169L8.16516 73.4869C8.15926 73.3925 8.14746 73.304 8.14746 73.2097V28.0772C8.14746 24.4263 11.1201 21.4536 14.7711 21.4536H26.2724V15.7914C26.2724 11.5743 29.6992 8.14746 33.9105 8.14746ZM33.9164 54.0172H96.2477C99.5035 54.0172 102.152 51.3689 102.152 48.1131V15.7914C102.152 12.5357 99.5035 9.88741 96.2477 9.88741H33.9164C30.6606 9.88741 28.0123 12.5357 28.0123 15.7914V48.1131C28.0123 51.3689 30.6606 54.0172 33.9164 54.0172ZM57.503 72.0123C57.503 70.6853 56.4236 69.6059 55.0965 69.6059H47.8831C46.556 69.6059 45.4767 70.6853 45.4767 72.0123C45.4767 73.3394 46.556 74.4188 47.8831 74.4188H55.0965C56.4236 74.4188 57.503 73.3394 57.503 72.0123Z" fill="#8C3680"/>
</g>
<defs>
<filter id="filter0_d_3153_2270" x="0.147461" y="0.147461" width="111.744" height="103.705" filterUnits="userSpaceOnUse" color-interpolation-filters="sRGB">
<feFlood flood-opacity="0" result="BackgroundImageFix"/>
<feColorMatrix in="SourceAlpha" type="matrix" values="0 0 0 0 0 0 0 0 0 0 0 0 0 0 0 0 0 0 127 0" result="hardAlpha"/>
<feOffset/>
<feGaussianBlur stdDeviation="4"/>
<feComposite in2="hardAlpha" operator="out"/>
<feColorMatrix type="matrix" values="0 0 0 0 0.737255 0 0 0 0 0.321569 0 0 0 0 0.678431 0 0 0 0.28 0"/>
<feBlend mode="normal" in2="BackgroundImageFix" result="effect1_dropShadow_3153_2270"/>
<feBlend mode="normal" in="SourceGraphic" in2="effect1_dropShadow_3153_2270" result="shape"/>
</filter>
</defs>
</svg>
