<svg width="51" height="70" viewBox="0 0 51 70" fill="none" xmlns="http://www.w3.org/2000/svg">
<g filter="url(#filter0_d_3153_2282)">
<path d="M23.1851 58.6647L23.1153 58.7782C22.5109 59.7832 21.9871 60.782 21.5142 61.8171C21.4467 61.9635 21.3792 62.1098 21.3137 62.2605L21.2075 62.5032L21.0015 62.3356C20.7591 62.1405 20.5435 62.0087 20.3203 61.9274L12.6004 59.1176C12.3772 59.0363 12.1242 58.9977 11.8131 58.9913L11.5507 58.9883L11.6079 58.792L11.6285 58.7354C11.9839 57.5044 12.2691 56.2514 12.4933 54.9014L12.5128 54.7696L12.6418 54.7382C12.8891 54.6751 13.167 54.6944 13.4248 54.7882L22.4717 58.081C22.7295 58.1748 22.9422 58.3341 23.1065 58.5578L23.1851 58.6647Z" fill="#150A13"/>
<path d="M12.9221 48.1953C12.9004 47.2472 12.8741 46.3901 12.8131 45.4812L12.7898 45.1736L29.1477 51.1274L28.9321 51.348C28.3647 51.9285 27.781 52.5636 27.0946 53.3536L26.9241 53.548L26.7775 53.3344C26.5015 52.9383 26.1013 52.6289 25.6453 52.4629L14.6111 48.4468C14.1426 48.2763 13.6457 48.2521 13.1742 48.3832L12.9278 48.4537L12.9221 48.1953Z" fill="#150A13"/>
<path d="M37.8136 39.8412L34.3148 49.454C33.8776 50.6553 32.5437 51.2773 31.3425 50.8401L11.2898 43.5415C10.0886 43.1043 9.46659 41.7704 9.9038 40.5692L13.4026 30.9563L17.7861 32.5518L17.1085 34.4133L15.0174 33.6522C14.7564 33.5572 14.4647 33.6932 14.3698 33.9542C14.2748 34.2152 14.417 34.5092 14.6718 34.6019L16.7629 35.363L16.1105 37.1554L14.0194 36.3943C13.7584 36.2993 13.4667 36.4353 13.3717 36.6963C13.2767 36.9573 13.419 37.2512 13.6737 37.3439L15.7649 38.105L15.6378 38.4541C15.3357 39.2842 15.772 40.2087 16.6084 40.5131L16.9543 40.639L16.1932 42.7301C16.0959 42.9974 16.2311 43.2816 16.4952 43.3778C16.7593 43.4739 17.0479 43.3367 17.1428 43.0758L17.9039 40.9846L19.6963 41.637L18.9352 43.7281C18.8379 43.9954 18.9699 44.2785 19.2372 44.3758C19.5045 44.4731 19.7899 44.3348 19.8849 44.0738L20.646 41.9827L25.1804 43.633L24.4193 45.7242C24.322 45.9915 24.454 46.2745 24.7182 46.3707C24.9823 46.4668 25.2708 46.3297 25.3658 46.0687L26.1269 43.9775L27.9193 44.6299L27.1582 46.721C27.0609 46.9883 27.1961 47.2725 27.4602 47.3687C27.7243 47.4648 28.0129 47.3277 28.1078 47.0667L28.869 44.9756L29.218 45.1026C30.0482 45.4048 30.9734 44.9759 31.2756 44.1457L31.4026 43.7967L33.4906 44.5567C33.7548 44.6528 34.0433 44.5157 34.1383 44.2547C34.2333 43.9937 34.1035 43.7043 33.8363 43.607L31.7483 42.847L32.4007 41.0547L34.4886 41.8146C34.7528 41.9108 35.0413 41.7736 35.1363 41.5126C35.2313 41.2516 35.1016 40.9623 34.8343 40.865L32.7463 40.105L33.4239 38.2434L37.8136 39.8412Z" fill="#150A13"/>
<path d="M41.6101 29.4107L38.1594 38.8915L33.7696 37.2938L34.3956 35.5737L36.4836 36.3337C36.7446 36.4287 37.0363 36.2927 37.1313 36.0317C37.2263 35.7707 37.0965 35.4813 36.8293 35.384L34.7413 34.6241L35.3937 32.8317L37.4816 33.5916C37.7426 33.6866 38.0343 33.5506 38.1293 33.2896C38.2243 33.0286 38.0946 32.7393 37.8273 32.642L35.7393 31.882L35.8663 31.533C36.1708 30.6965 35.7388 29.7701 34.9086 29.4679L34.5596 29.3409L35.3207 27.2498C35.4145 26.9919 35.2765 26.696 35.0187 26.6021C34.7608 26.5083 34.466 26.6431 34.371 26.9041L33.6099 28.9953L31.8175 28.3429L32.5786 26.2518C32.6725 25.9939 32.5345 25.698 32.2766 25.6041C32.0188 25.5103 31.724 25.6451 31.629 25.9061L30.8679 27.9972L26.3366 26.348L27.0977 24.2569C27.1916 23.999 27.0536 23.7031 26.7957 23.6092C26.5379 23.5154 26.2431 23.6502 26.1481 23.9112L25.387 26.0023L23.5946 25.35L24.3557 23.2588C24.4495 23.001 24.3115 22.7051 24.0537 22.6112C23.7958 22.5174 23.501 22.6522 23.406 22.9132L22.6449 25.0043L22.2959 24.8773C21.4594 24.5728 20.533 25.0048 20.2286 25.8413L20.1015 26.1903L18.0104 25.4292C17.7494 25.3342 17.4577 25.4702 17.3628 25.7312C17.2678 25.9922 17.4069 26.285 17.6648 26.3789L19.7559 27.14L19.1035 28.9324L17.0124 28.1713C16.7514 28.0763 16.4597 28.2123 16.3647 28.4733C16.2697 28.7343 16.4089 29.0271 16.6667 29.1209L18.7579 29.882L18.1318 31.6021L13.7483 30.0066L17.199 20.5258C17.6362 19.3246 18.9701 18.7026 20.1714 19.1398L40.2272 26.4396C41.4284 26.8768 42.0473 28.2095 41.6101 29.4107Z" fill="#150A13"/>
<path d="M38.691 24.5059L38.7112 24.8124L22.3754 18.8666L22.5878 18.6449C23.2253 17.9795 23.8179 17.3298 24.3985 16.6544L24.5658 16.4589L24.7178 16.6674C25.0041 17.0743 25.3992 17.3783 25.8583 17.5454L36.8925 21.5615C37.3484 21.7275 37.857 21.7488 38.3211 21.6185L38.5707 21.5491L38.5763 21.8076C38.5966 22.7694 38.6361 23.6491 38.691 24.5059Z" fill="#150A13"/>
<path d="M39.0149 15.0942L38.9942 15.2291L38.8621 15.2594C38.6011 15.3211 38.3401 15.3044 38.0822 15.2106L29.0385 11.9189C28.787 11.8274 28.5692 11.6626 28.4037 11.4422L28.322 11.3341L28.3918 11.2206C29.0877 10.0423 29.6735 8.90233 30.1882 7.73287L30.2088 7.67627L30.2932 7.49332L30.4973 7.65663C30.7334 7.84939 30.9646 7.98698 31.191 8.06938L38.9077 10.878C39.1342 10.9604 39.3872 10.9991 39.6845 11.0041L39.9481 11.0038L39.8765 11.2591C39.8299 11.4166 39.7875 11.5722 39.7452 11.7277C39.4432 12.8214 39.2002 13.9295 39.0149 15.0942Z" fill="#150A13"/>
<path d="M22.4262 62.2273C22.0525 63.0385 21.7186 63.8678 21.4128 64.718C21.3178 64.979 21.0261 65.115 20.7651 65.02L10.2687 61.1996C10.1429 61.1538 10.0417 61.06 9.98684 60.9368C9.93198 60.8135 9.92716 60.68 9.97608 60.5554C10.2264 59.8773 10.4494 59.1964 10.6491 58.5105L11.6079 58.7919L11.5507 58.9883L11.8132 58.9912C12.1242 58.9976 12.3772 59.0362 12.6005 59.1175L20.3203 61.9273C20.5436 62.0086 20.7591 62.1404 21.0015 62.3355L21.2076 62.5031L21.3137 62.2604C21.3792 62.1097 21.4467 61.9634 21.5143 61.817L22.4262 62.2273Z" fill="#31213B"/>
<path d="M23.9161 33.4582L21.7728 36.1573C21.6775 36.2723 21.4651 36.3374 21.3159 36.2973C21.1392 36.2544 21.0097 36.1111 20.9795 35.9398L20.6085 33.4367L19.2847 32.9548L19.5388 32.2568L21.0733 32.8153C21.1959 32.8599 21.2954 32.978 21.3119 33.1087L21.6224 35.1518L24.0652 32.0703C24.165 31.9428 24.428 31.8854 24.5984 31.9652C24.7805 32.0422 24.8754 32.212 24.8447 32.4038L23.9174 37.789L28.2342 30.7424C28.3218 30.5997 28.5079 30.5286 28.6537 30.5781C28.8329 30.6433 28.939 30.7923 28.9226 30.9644L28.4402 37.035L30.4293 34.8674C30.5199 34.765 30.731 34.7136 30.881 34.7611C31.0417 34.8089 31.1692 34.9479 31.1926 35.0989L31.4063 36.5762L32.271 36.8909L32.0169 37.589L30.9509 37.201C30.8189 37.1529 30.7308 37.0426 30.7114 36.9002L30.5542 35.8352L28.2566 38.3321C28.1539 38.4478 27.9815 38.4812 27.836 38.4212C27.6916 38.3579 27.6056 38.2127 27.6217 38.0511L28.0628 32.4463L23.5388 39.8271C23.449 39.976 23.262 40.0397 23.0922 39.9779C22.9224 39.9161 22.8275 39.7462 22.861 39.5661L23.9161 33.4582Z" fill="#792F6F"/>
<path d="M30.2933 7.49354L30.2121 7.67763L29.2967 7.27682C29.5845 6.62306 29.8515 5.95814 30.0967 5.27463C30.1371 5.15399 30.2266 5.05481 30.3478 4.99567C30.469 4.93652 30.6068 4.9297 30.7421 4.97892L41.2291 8.79588C41.4901 8.89088 41.6261 9.18253 41.5311 9.44353C41.2221 10.2926 40.9428 11.1382 40.7075 11.9998L39.7453 11.7279C39.7876 11.5724 39.83 11.4169 39.8766 11.2594L39.9482 11.0041L39.6846 11.0043C39.3873 10.9993 39.1343 10.9607 38.9079 10.8782L31.1912 8.0696C30.9647 7.9872 30.7335 7.84961 30.4974 7.65685L30.2933 7.49354Z" fill="#31213B"/>
<path d="M11.6253 58.7342L11.6047 58.7908L10.649 58.5106C11.4795 55.6613 11.8835 52.7315 11.917 49.4497L11.9228 49.3948C11.9335 48.0348 11.8793 46.5693 11.7563 44.9113L11.746 44.783L10.9442 44.4911C9.21781 43.8628 8.3258 41.9499 8.953 40.2267L9.67862 38.233L8.96796 37.9744C7.97743 37.6138 7.46342 36.5115 7.82509 35.5179L8.35843 34.0525C8.7201 33.0588 9.82239 32.5448 10.8129 32.9054L11.5236 33.164L13.6787 27.2429L12.968 26.9842C11.9775 26.6237 11.4635 25.5214 11.8252 24.5277L12.3597 23.0592C12.7213 22.0655 13.8236 21.5515 14.8142 21.9121L15.5248 22.1707L16.2493 20.1802C16.8776 18.4539 18.7906 17.5619 20.5169 18.1902L21.3282 18.4855L21.4186 18.3938C22.4913 17.2957 23.4988 16.181 24.4118 15.0817L24.4426 15.0359C26.5264 12.5003 28.1013 9.9932 29.2966 7.27666L30.2119 7.67748L30.1913 7.73408C29.6735 8.90239 29.0877 10.0424 28.3917 11.2206L28.3219 11.3341L28.4037 11.4422C28.5691 11.6627 28.7869 11.8274 29.0385 11.919L38.0822 15.2106C38.3401 15.3045 38.6011 15.3211 38.8621 15.2595L38.9942 15.2292L39.0148 15.0943C39.2002 13.9296 39.4432 12.8215 39.7452 11.7277L40.7074 11.9996C39.9736 14.6811 39.6077 17.4574 39.5813 20.5531L39.5641 20.6002L39.5853 20.64C39.5677 21.9797 39.6213 23.4272 39.7481 25.0652L39.7583 25.1935L40.5696 25.4888C42.296 26.1172 43.188 28.0301 42.5597 29.7564L41.8352 31.7469L42.5458 32.0056C43.5395 32.3672 44.0504 33.4684 43.6887 34.4621L43.1542 35.9306C42.7925 36.9242 41.6945 37.4362 40.7009 37.0746L39.9902 36.8159L37.8339 42.7402L38.5446 42.9989C39.5383 43.3605 40.0523 44.4628 39.6906 45.4565L39.1573 46.9219C38.7956 47.9155 37.6933 48.4295 36.6996 48.0679L35.989 47.8092L35.2634 49.8028C34.6362 51.526 32.7232 52.4181 31 51.7909L30.195 51.4979L30.1047 51.5896C29.0354 52.6783 28.0301 53.7867 27.1192 54.8903L27.0752 54.9134L27.058 54.9606C25.0937 57.3438 23.5875 59.7015 22.426 62.2273L21.5141 61.8171C21.987 60.782 22.5108 59.7832 23.1152 58.7782L23.185 58.6647L23.1064 58.5577C22.9421 58.3341 22.7294 58.1748 22.4716 58.081L13.4247 54.7882C13.1669 54.6943 12.889 54.6751 12.6417 54.7382L12.5127 54.7696L12.4932 54.9014C12.269 56.2513 11.9839 57.5043 11.6253 58.7342ZM34.3148 49.454L37.8136 39.8412L33.4239 38.2435L32.7463 40.105L34.8343 40.865C35.1016 40.9623 35.2324 41.2485 35.1363 41.5126C35.0401 41.7768 34.7528 41.9108 34.4886 41.8146L32.4007 41.0547L31.7483 42.8471L33.8363 43.607C34.1035 43.7043 34.2355 43.9874 34.1383 44.2547C34.041 44.522 33.7548 44.6528 33.4906 44.5567L31.4026 43.7967L31.2756 44.1458C30.9734 44.9759 30.0482 45.4048 29.218 45.1026L28.869 44.9756L28.1079 47.0667C28.0129 47.3277 27.7212 47.4637 27.4602 47.3687C27.1992 47.2737 27.0609 46.9883 27.1582 46.721L27.9193 44.6299L26.1269 43.9776L25.3658 46.0687C25.2708 46.3297 24.9823 46.4668 24.7182 46.3707C24.454 46.2745 24.322 45.9915 24.4193 45.7242L25.1804 43.6331L20.646 41.9827L19.8849 44.0738C19.7899 44.3348 19.4982 44.4708 19.2372 44.3758C18.9762 44.2808 18.8379 43.9954 18.9352 43.7281L19.6963 41.637L17.9039 40.9846L17.1428 43.0758C17.0478 43.3368 16.7562 43.4728 16.4952 43.3778C16.2342 43.2828 16.0959 42.9974 16.1932 42.7301L16.9543 40.639L16.6084 40.5131C15.772 40.2087 15.3357 39.2842 15.6378 38.4541L15.7649 38.105L13.6737 37.3439C13.419 37.2512 13.2779 36.9541 13.3717 36.6963C13.4656 36.4384 13.7584 36.2993 14.0194 36.3943L16.1105 37.1554L16.7629 35.363L14.6718 34.6019C14.417 34.5092 14.2759 34.2121 14.3698 33.9542C14.4636 33.6964 14.7564 33.5572 15.0174 33.6522L17.1085 34.4133L17.7861 32.5518L13.4026 30.9563L9.90379 40.5692C9.46659 41.7704 10.0886 43.1043 11.2898 43.5415L31.3425 50.8401C32.5437 51.2773 33.8776 50.6553 34.3148 49.454ZM38.1593 38.8916L41.61 29.4108C42.0472 28.2096 41.4283 26.8768 40.2271 26.4396L20.1713 19.1399C18.9701 18.7027 17.6362 19.3247 17.1989 20.5259L13.7482 30.0067L18.1317 31.6021L18.7578 29.8821L16.6666 29.1209C16.4088 29.0271 16.2708 28.7312 16.3646 28.4733C16.4585 28.2154 16.7513 28.0763 17.0123 28.1713L19.1034 28.9324L19.7558 27.14L17.6647 26.3789C17.4068 26.2851 17.2688 25.9891 17.3627 25.7313C17.4565 25.4734 17.7493 25.3343 18.0103 25.4293L20.1014 26.1904L20.2285 25.8413C20.5329 25.0049 21.4593 24.5729 22.2958 24.8773L22.6448 25.0044L23.4059 22.9132C23.5009 22.6522 23.7926 22.5162 24.0536 22.6112C24.3146 22.7062 24.4494 23.001 24.3556 23.2589L23.5945 25.35L25.3869 26.0024L26.148 23.9113C26.243 23.6503 26.5346 23.5143 26.7956 23.6093C27.0566 23.7043 27.1915 23.9991 27.0976 24.2569L26.3365 26.348L30.8678 27.9973L31.6289 25.9062C31.7239 25.6452 32.0156 25.5092 32.2766 25.6042C32.5376 25.6991 32.6724 25.994 32.5786 26.2518L31.8175 28.3429L33.6098 28.9953L34.3709 26.9042C34.4659 26.6432 34.7576 26.5072 35.0186 26.6022C35.2796 26.6972 35.4145 26.992 35.3206 27.2498L34.5595 29.3409L34.9085 29.468C35.7387 29.7701 36.1707 30.6966 35.8663 31.533L35.7392 31.8821L37.8272 32.642C38.0945 32.7393 38.2265 33.0224 38.1292 33.2897C38.0319 33.5569 37.7425 33.6867 37.4815 33.5917L35.3936 32.8317L34.7412 34.6241L36.8292 35.3841C37.0965 35.4813 37.2285 35.7644 37.1312 36.0317C37.0339 36.299 36.7445 36.4287 36.4835 36.3337L34.3956 35.5737L33.7695 37.2938L38.1593 38.8916ZM28.932 51.348L29.1476 51.1273L12.7897 45.1735L12.8131 45.4812C12.874 46.39 12.9003 47.2472 12.9221 48.1952L12.9277 48.4537L13.1742 48.3831C13.6456 48.252 14.1425 48.2762 14.6111 48.4467L25.6453 52.4628C26.1012 52.6288 26.5014 52.9383 26.7774 53.3343L26.924 53.5479L27.0945 53.3536C27.7809 52.5635 28.3646 51.9285 28.932 51.348ZM38.7112 24.8124L38.691 24.5059C38.6361 23.6491 38.5966 22.7693 38.5763 21.8076L38.5706 21.5491L38.321 21.6185C37.857 21.7488 37.3484 21.7274 36.8924 21.5615L25.8582 17.5454C25.3991 17.3783 25.0041 17.0743 24.7178 16.6673L24.5657 16.4589L24.3984 16.6544C23.8179 17.3298 23.2253 17.9795 22.5878 18.6448L22.3753 18.8666L38.7112 24.8124ZM32.0169 37.5889L32.2709 36.8908L31.4062 36.5761L31.1925 35.0988C31.1691 34.9478 31.0416 34.8088 30.881 34.761C30.7309 34.7135 30.5199 34.7649 30.4292 34.8673L28.4402 37.0349L28.9225 30.9643C28.9389 30.7922 28.8329 30.6432 28.6536 30.578C28.5078 30.5285 28.3217 30.5996 28.2342 30.7423L23.9173 37.7889L24.8446 32.4038C24.8753 32.2119 24.7804 32.0421 24.5983 31.9651C24.428 31.8853 24.1649 31.9427 24.0651 32.0702L21.6223 35.1517L21.3119 33.1086C21.2953 32.9779 21.1959 32.8598 21.0732 32.8152L19.5387 32.2567L19.2846 32.9548L20.6085 33.4366L20.9794 35.9397C21.0097 36.111 21.1391 36.2543 21.3158 36.2972C21.465 36.3373 21.6775 36.2722 21.7727 36.1573L23.916 33.4582L22.861 39.566C22.8275 39.7462 22.9255 39.9171 23.0921 39.9778C23.2588 40.0385 23.4489 39.9759 23.5388 39.827L28.0627 32.4462L27.6216 38.051C27.6056 38.2126 27.6916 38.3578 27.8359 38.4211C27.9814 38.4811 28.1538 38.4477 28.2565 38.332L30.5542 35.8351L30.7114 36.9001C30.7308 37.0425 30.8188 37.1528 30.9509 37.2009L32.0169 37.5889Z" fill="#31213B"/>
</g>
<defs>
<filter id="filter0_d_3153_2282" x="3.70923" y="0.946182" width="44.0957" height="68.1041" filterUnits="userSpaceOnUse" color-interpolation-filters="sRGB">
<feFlood flood-opacity="0" result="BackgroundImageFix"/>
<feColorMatrix in="SourceAlpha" type="matrix" values="0 0 0 0 0 0 0 0 0 0 0 0 0 0 0 0 0 0 127 0" result="hardAlpha"/>
<feOffset/>
<feGaussianBlur stdDeviation="2"/>
<feComposite in2="hardAlpha" operator="out"/>
<feColorMatrix type="matrix" values="0 0 0 0 0.737255 0 0 0 0 0.321569 0 0 0 0 0.678431 0 0 0 0.24 0"/>
<feBlend mode="normal" in2="BackgroundImageFix" result="effect1_dropShadow_3153_2282"/>
<feBlend mode="normal" in="SourceGraphic" in2="effect1_dropShadow_3153_2282" result="shape"/>
</filter>
</defs>
</svg>
