<svg width="114" height="74" viewBox="0 0 114 74" fill="none" xmlns="http://www.w3.org/2000/svg">
<g filter="url(#filter0_d_3153_2583)">
<path d="M105 57H21L9 65V9H105V57Z" fill="#1A0B18"/>
</g>
<g filter="url(#filter1_d_3153_2583)">
<path fill-rule="evenodd" clip-rule="evenodd" d="M105.625 9C105.625 8.65482 105.345 8.375 105 8.375H9C8.65482 8.375 8.375 8.65482 8.375 9V65C8.375 65.2305 8.50186 65.4423 8.70509 65.551C8.90831 65.6598 9.1549 65.6479 9.34669 65.52L21.1892 57.625H105C105.345 57.625 105.625 57.3452 105.625 57V9ZM104.375 9.625V56.375H21C20.8766 56.375 20.756 56.4115 20.6533 56.48L9.625 63.8322V9.625H104.375Z" fill="#8C367F"/>
</g>
<g filter="url(#filter2_d_3153_2583)">
<path d="M23.4375 26.5625V24.9375H24.25V26.5625H23.4375ZM21.8125 29V26.5625H21V21.6875H22.625V26.5625H23.4375V29H21.8125ZM24.25 29V26.5625H25.0625V21.6875H26.6875V26.5625H25.875V29H24.25Z" fill="#8C367F"/>
<path d="M28.28 29V21.6875H29.905V24.9375H31.53V21.6875H33.155V29H31.53V25.75H29.905V29H28.28Z" fill="#8C367F"/>
<path d="M37.9975 25.75V23.3125H36.3725V25.75H37.9975ZM34.7475 29V23.3125H35.56V22.5H36.3725V21.6875H37.9975V22.5H38.81V23.3125H39.6225V29H37.9975V26.5625H36.3725V29H34.7475Z" fill="#8C367F"/>
<path d="M42.0275 29V28.1875H42.84V22.5H42.0275V23.3125H41.215V21.6875H46.09V23.3125H45.2775V22.5H44.465V28.1875H45.2775V29H42.0275Z" fill="#8C367F"/>
<path d="M54.15 25.75V23.3125H52.525V25.75H54.15ZM50.9 29V23.3125H51.7125V22.5H52.525V21.6875H54.15V22.5H54.9625V23.3125H55.775V29H54.15V26.5625H52.525V29H50.9Z" fill="#8C367F"/>
<path d="M61.43 24.9375V22.5H59.805V24.9375H61.43ZM57.3675 29V28.1875H58.18V22.5H57.3675V21.6875H62.2425V22.5H63.055V24.9375H62.2425V25.75H59.805V28.1875H60.6175V29H57.3675Z" fill="#8C367F"/>
<path d="M68.71 24.9375V22.5H67.085V24.9375H68.71ZM64.6475 29V28.1875H65.46V22.5H64.6475V21.6875H69.5225V22.5H70.335V24.9375H69.5225V25.75H67.085V28.1875H67.8975V29H64.6475Z" fill="#8C367F"/>
<path d="M72.74 29V28.1875H71.9275V26.5625H73.5525V28.1875H75.1775V26.5625H74.365V25.75H72.74V24.9375H71.9275V22.5H72.74V21.6875H75.99V22.5H76.8025V24.125H75.1775V22.5H73.5525V24.9375H75.1775V25.75H75.99V26.5625H76.8025V28.1875H75.99V29H72.74Z" fill="#8C367F"/>
<path d="M22.625 43V42.1875H21.8125V41.375H21V37.3125H21.8125V36.5H22.625V35.6875H25.875V36.5H26.6875V38.125H25.0625V36.5H23.4375V37.3125H22.625V41.375H23.4375V42.1875H25.0625V40.5625H26.6875V42.1875H25.875V43H22.625Z" fill="#8C367F"/>
<path d="M31.53 39.75V37.3125H29.905V39.75H31.53ZM28.28 43V37.3125H29.0925V36.5H29.905V35.6875H31.53V36.5H32.3425V37.3125H33.155V43H31.53V40.5625H29.905V43H28.28Z" fill="#8C367F"/>
<path d="M34.7475 43V35.6875H36.3725V37.3125H37.185V38.125H37.9975V38.9375H38.81V35.6875H40.435V43H38.81V41.375H37.9975V40.5625H37.185V39.75H36.3725V43H34.7475Z" fill="#8C367F"/>
<path d="M45.245 43V42.1875H46.0575V36.5H45.245V35.6875H48.495V36.5H47.6825V42.1875H48.495V43H45.245Z" fill="#8C367F"/>
<path d="M54.1175 43V42.1875H54.93V36.5H54.1175V37.3125H53.305V35.6875H58.18V37.3125H57.3675V36.5H56.555V42.1875H57.3675V43H54.1175Z" fill="#8C367F"/>
<path d="M63.835 38.9375V36.5H62.21V38.9375H63.835ZM59.7725 43V42.1875H60.585V36.5H59.7725V35.6875H64.6475V36.5H65.46V38.9375H64.6475V40.5625H65.46V43H63.835V40.5625H63.0225V39.75H62.21V43H59.7725Z" fill="#8C367F"/>
<path d="M67.865 43V42.1875H67.0525V35.6875H68.6775V42.1875H70.3025V35.6875H71.9275V42.1875H71.115V43H67.865Z" fill="#8C367F"/>
<path d="M74.3325 43V42.1875H73.52V40.5625H75.145V42.1875H76.77V40.5625H75.9575V39.75H74.3325V38.9375H73.52V36.5H74.3325V35.6875H77.5825V36.5H78.395V38.125H76.77V36.5H75.145V38.9375H76.77V39.75H77.5825V40.5625H78.395V42.1875H77.5825V43H74.3325Z" fill="#8C367F"/>
<path d="M80.8 43V42.1875H81.6125V36.5H80.8V37.3125H79.9875V35.6875H84.8625V37.3125H84.05V36.5H83.2375V42.1875H84.05V43H80.8Z" fill="#8C367F"/>
<path d="M88.08 43V41.375H89.705V43H88.08ZM88.08 40.5625V38.9375H88.8925V38.125H89.705V36.5H88.08V37.3125H86.455V36.5H87.2675V35.6875H90.5175V36.5H91.33V38.125H90.5175V38.9375H89.705V40.5625H88.08Z" fill="#8C367F"/>
</g>
<defs>
<filter id="filter0_d_3153_2583" x="1" y="1" width="112" height="72" filterUnits="userSpaceOnUse" color-interpolation-filters="sRGB">
<feFlood flood-opacity="0" result="BackgroundImageFix"/>
<feColorMatrix in="SourceAlpha" type="matrix" values="0 0 0 0 0 0 0 0 0 0 0 0 0 0 0 0 0 0 127 0" result="hardAlpha"/>
<feOffset/>
<feGaussianBlur stdDeviation="4"/>
<feComposite in2="hardAlpha" operator="out"/>
<feColorMatrix type="matrix" values="0 0 0 0 0.737255 0 0 0 0 0.321569 0 0 0 0 0.678431 0 0 0 0.28 0"/>
<feBlend mode="normal" in2="BackgroundImageFix" result="effect1_dropShadow_3153_2583"/>
<feBlend mode="normal" in="SourceGraphic" in2="effect1_dropShadow_3153_2583" result="shape"/>
</filter>
<filter id="filter1_d_3153_2583" x="0.375" y="0.375" width="113.25" height="73.25" filterUnits="userSpaceOnUse" color-interpolation-filters="sRGB">
<feFlood flood-opacity="0" result="BackgroundImageFix"/>
<feColorMatrix in="SourceAlpha" type="matrix" values="0 0 0 0 0 0 0 0 0 0 0 0 0 0 0 0 0 0 127 0" result="hardAlpha"/>
<feOffset/>
<feGaussianBlur stdDeviation="4"/>
<feComposite in2="hardAlpha" operator="out"/>
<feColorMatrix type="matrix" values="0 0 0 0 0.737255 0 0 0 0 0.321569 0 0 0 0 0.678431 0 0 0 0.28 0"/>
<feBlend mode="normal" in2="BackgroundImageFix" result="effect1_dropShadow_3153_2583"/>
<feBlend mode="normal" in="SourceGraphic" in2="effect1_dropShadow_3153_2583" result="shape"/>
</filter>
<filter id="filter2_d_3153_2583" x="13" y="13.6875" width="86.3301" height="37.3125" filterUnits="userSpaceOnUse" color-interpolation-filters="sRGB">
<feFlood flood-opacity="0" result="BackgroundImageFix"/>
<feColorMatrix in="SourceAlpha" type="matrix" values="0 0 0 0 0 0 0 0 0 0 0 0 0 0 0 0 0 0 127 0" result="hardAlpha"/>
<feOffset/>
<feGaussianBlur stdDeviation="4"/>
<feComposite in2="hardAlpha" operator="out"/>
<feColorMatrix type="matrix" values="0 0 0 0 0.737255 0 0 0 0 0.321569 0 0 0 0 0.678431 0 0 0 0.28 0"/>
<feBlend mode="normal" in2="BackgroundImageFix" result="effect1_dropShadow_3153_2583"/>
<feBlend mode="normal" in="SourceGraphic" in2="effect1_dropShadow_3153_2583" result="shape"/>
</filter>
</defs>
</svg>
