<svg width="262" height="262" viewBox="0 0 262 262" fill="none" xmlns="http://www.w3.org/2000/svg">
<path d="M130.61 24.82L151.29 0L163.3 29.99L190.64 12.78L192.79 45.02L224.11 37.1L216.19 68.42L248.43 70.57L231.21 97.91L261.21 109.92L236.39 130.6L261.21 151.29L231.21 163.29L248.43 190.63L216.19 192.78L224.11 224.1L192.79 216.18L190.64 248.42L163.3 231.21L151.29 261.21L130.61 236.39L109.92 261.21L97.92 231.21L70.5699 248.42L68.43 216.18L37.1 224.1L45.02 192.78L12.79 190.63L30 163.29L0 151.29L24.8199 130.6L0 109.92L30 97.91L12.79 70.57L45.02 68.42L37.1 37.1L68.43 45.02L70.5699 12.78L97.92 29.99L109.92 0L130.61 24.82Z" fill="#4E868E"/>
</svg>
