<svg width="495" height="260" viewBox="0 0 495 260" fill="none" xmlns="http://www.w3.org/2000/svg">
    <g clip-path="url(#clip0_4715_1555)">
    <g clip-path="url(#clip1_4715_1555)">
    <g opacity="0.75" filter="url(#filter0_f_4715_1555)">
    <path d="M144 112C144 105.373 149.373 100 156 100H451C457.627 100 463 105.373 463 112V185C463 191.627 457.627 197 451 197H156C149.373 197 144 191.627 144 185V112Z" fill="white"/>
    <path d="M156 97.5C147.992 97.5 141.5 103.992 141.5 112V185C141.5 193.008 147.992 199.5 156 199.5H451C459.008 199.5 465.5 193.008 465.5 185V112C465.5 103.992 459.008 97.5 451 97.5H156Z" stroke="url(#paint0_linear_4715_1555)" stroke-width="5"/>
    </g>
    <g clip-path="url(#clip2_4715_1555)">
    <g clip-path="url(#clip3_4715_1555)">
    <path fill-rule="evenodd" clip-rule="evenodd" d="M149.23 66.5768H140.628L144.386 62.8188C144.686 62.5185 144.686 62.0256 144.386 61.7253C144.086 61.4249 143.601 61.4249 143.3 61.7253L138.225 66.8002C137.925 67.1005 137.925 67.5857 138.225 67.886L143.3 72.9609C143.601 73.2613 144.086 73.2613 144.386 72.9609C144.686 72.6606 144.686 72.1754 144.386 71.8751L140.628 68.117H149.23C149.653 68.117 150 67.7705 150 67.3469C150 66.9234 149.653 66.5768 149.23 66.5768Z" fill="#020617" fill-opacity="0.15"/>
    <path fill-rule="evenodd" clip-rule="evenodd" d="M169.77 68.117H178.372L174.614 71.8751C174.314 72.1754 174.314 72.6683 174.614 72.9686C174.914 73.269 175.399 73.269 175.7 72.9686L180.775 67.8937C181.075 67.5934 181.075 67.1082 180.775 66.8079L175.708 61.7253C175.407 61.4249 174.922 61.4249 174.622 61.7253C174.321 62.0256 174.321 62.5107 174.622 62.8111L178.372 66.5768H169.77C169.347 66.5768 169 66.9234 169 67.3469C169 67.7705 169.347 68.117 169.77 68.117Z" fill="#020617" fill-opacity="0.15"/>
    <path fill-rule="evenodd" clip-rule="evenodd" d="M211.998 65.8312V62.3045C211.998 62.0045 211.638 61.8579 211.431 62.0712L210.245 63.2579C209.038 62.0512 207.318 61.3579 205.438 61.5245C202.645 61.7779 200.345 64.0245 200.038 66.8179C199.638 70.4312 202.458 73.4979 205.998 73.4979C209.058 73.4979 211.585 71.2046 211.951 68.2446C211.998 67.8446 211.685 67.4979 211.285 67.4979C210.951 67.4979 210.671 67.7446 210.631 68.0712C210.345 70.3979 208.338 72.1979 205.931 72.1645C203.458 72.1312 201.371 70.0445 201.331 67.5645C201.291 64.9646 203.405 62.8312 205.998 62.8312C207.285 62.8312 208.451 63.3579 209.298 64.1979L207.905 65.5912C207.691 65.8045 207.838 66.1645 208.138 66.1645H211.665C211.851 66.1645 211.998 66.0179 211.998 65.8312Z" fill="#020617" fill-opacity="0.15"/>
    </g>
    <rect x="226" y="53.5" width="201" height="28" rx="14" fill="#020617" fill-opacity="0.05"/>
    <rect x="226" y="53.5" width="201" height="28" rx="14" stroke="#020617" stroke-opacity="0.07"/>
    <path fill-rule="evenodd" clip-rule="evenodd" d="M247 65.5H246.5V64.5C246.5 63.12 245.38 62 244 62C242.62 62 241.5 63.12 241.5 64.5V65.5H241C240.45 65.5 240 65.95 240 66.5V71.5C240 72.05 240.45 72.5 241 72.5H247C247.55 72.5 248 72.05 248 71.5V66.5C248 65.95 247.55 65.5 247 65.5ZM242.5 65.5V64.5C242.5 63.67 243.17 63 244 63C244.83 63 245.5 63.67 245.5 64.5V65.5H242.5Z" fill="#020617" fill-opacity="0.15"/>
    <path d="M260.222 66.5732V72.5H258.95V65.1035H260.153L260.222 66.5732ZM259.962 68.5215L259.374 68.501C259.379 67.9951 259.445 67.528 259.572 67.0996C259.7 66.6667 259.889 66.2907 260.14 65.9717C260.39 65.6527 260.702 65.4066 261.076 65.2334C261.45 65.0557 261.883 64.9668 262.375 64.9668C262.721 64.9668 263.04 65.0169 263.332 65.1172C263.624 65.2129 263.877 65.3656 264.091 65.5752C264.305 65.7848 264.471 66.0537 264.59 66.3818C264.708 66.71 264.768 67.1064 264.768 67.5713V72.5H263.503V67.6328C263.503 67.2454 263.437 66.9355 263.305 66.7031C263.177 66.4707 262.995 66.3021 262.758 66.1973C262.521 66.0879 262.243 66.0332 261.924 66.0332C261.55 66.0332 261.238 66.0993 260.987 66.2314C260.737 66.3636 260.536 66.5459 260.386 66.7783C260.235 67.0107 260.126 67.2773 260.058 67.5781C259.994 67.8743 259.962 68.1888 259.962 68.5215ZM264.754 67.8242L263.906 68.084C263.911 67.6784 263.977 67.2887 264.104 66.915C264.237 66.5413 264.426 66.2087 264.672 65.917C264.923 65.6253 265.23 65.3952 265.595 65.2266C265.959 65.0534 266.376 64.9668 266.846 64.9668C267.242 64.9668 267.593 65.0192 267.898 65.124C268.208 65.2288 268.468 65.3906 268.678 65.6094C268.892 65.8236 269.054 66.0993 269.163 66.4365C269.272 66.7738 269.327 67.1748 269.327 67.6396V72.5H268.056V67.626C268.056 67.2113 267.99 66.89 267.857 66.6621C267.73 66.4297 267.548 66.2679 267.311 66.1768C267.078 66.0811 266.8 66.0332 266.477 66.0332C266.199 66.0332 265.952 66.0811 265.738 66.1768C265.524 66.2725 265.344 66.4046 265.198 66.5732C265.052 66.7373 264.941 66.9264 264.863 67.1406C264.79 67.3548 264.754 67.5827 264.754 67.8242ZM274.561 72.6367C274.046 72.6367 273.578 72.5501 273.159 72.377C272.744 72.1992 272.387 71.9508 272.086 71.6318C271.79 71.3128 271.562 70.9346 271.402 70.4971C271.243 70.0596 271.163 69.5811 271.163 69.0615V68.7744C271.163 68.1729 271.252 67.6374 271.43 67.168C271.607 66.694 271.849 66.293 272.154 65.9648C272.46 65.6367 272.806 65.3883 273.193 65.2197C273.581 65.0511 273.982 64.9668 274.396 64.9668C274.925 64.9668 275.381 65.0579 275.764 65.2402C276.151 65.4225 276.468 65.6777 276.714 66.0059C276.96 66.3294 277.142 66.7122 277.261 67.1543C277.379 67.5918 277.438 68.0703 277.438 68.5898V69.1572H271.915V68.125H276.174V68.0293C276.156 67.7012 276.087 67.3822 275.969 67.0723C275.855 66.7624 275.673 66.5072 275.422 66.3066C275.171 66.1061 274.829 66.0059 274.396 66.0059C274.109 66.0059 273.845 66.0674 273.604 66.1904C273.362 66.3089 273.155 66.4867 272.981 66.7236C272.808 66.9606 272.674 67.25 272.578 67.5918C272.482 67.9336 272.435 68.3278 272.435 68.7744V69.0615C272.435 69.4124 272.482 69.7428 272.578 70.0527C272.678 70.3581 272.822 70.627 273.009 70.8594C273.2 71.0918 273.43 71.2741 273.699 71.4062C273.973 71.5384 274.283 71.6045 274.629 71.6045C275.076 71.6045 275.454 71.5133 275.764 71.3311C276.074 71.1488 276.345 70.9049 276.577 70.5996L277.343 71.208C277.183 71.4495 276.98 71.6797 276.734 71.8984C276.488 72.1172 276.185 72.2949 275.825 72.4316C275.47 72.5684 275.048 72.6367 274.561 72.6367ZM282.234 72.6367C281.719 72.6367 281.252 72.5501 280.833 72.377C280.418 72.1992 280.061 71.9508 279.76 71.6318C279.464 71.3128 279.236 70.9346 279.076 70.4971C278.917 70.0596 278.837 69.5811 278.837 69.0615V68.7744C278.837 68.1729 278.926 67.6374 279.104 67.168C279.281 66.694 279.523 66.293 279.828 65.9648C280.133 65.6367 280.48 65.3883 280.867 65.2197C281.255 65.0511 281.656 64.9668 282.07 64.9668C282.599 64.9668 283.055 65.0579 283.438 65.2402C283.825 65.4225 284.142 65.6777 284.388 66.0059C284.634 66.3294 284.816 66.7122 284.935 67.1543C285.053 67.5918 285.112 68.0703 285.112 68.5898V69.1572H279.589V68.125H283.848V68.0293C283.829 67.7012 283.761 67.3822 283.643 67.0723C283.529 66.7624 283.346 66.5072 283.096 66.3066C282.845 66.1061 282.503 66.0059 282.07 66.0059C281.783 66.0059 281.519 66.0674 281.277 66.1904C281.036 66.3089 280.828 66.4867 280.655 66.7236C280.482 66.9606 280.348 67.25 280.252 67.5918C280.156 67.9336 280.108 68.3278 280.108 68.7744V69.0615C280.108 69.4124 280.156 69.7428 280.252 70.0527C280.352 70.3581 280.496 70.627 280.683 70.8594C280.874 71.0918 281.104 71.2741 281.373 71.4062C281.646 71.5384 281.956 71.6045 282.303 71.6045C282.749 71.6045 283.128 71.5133 283.438 71.3311C283.747 71.1488 284.019 70.9049 284.251 70.5996L285.017 71.208C284.857 71.4495 284.654 71.6797 284.408 71.8984C284.162 72.1172 283.859 72.2949 283.499 72.4316C283.144 72.5684 282.722 72.6367 282.234 72.6367ZM287.693 65.1035L289.313 67.7969L290.954 65.1035H292.438L290.018 68.7539L292.513 72.5H291.05L289.341 69.7246L287.632 72.5H286.162L288.65 68.7539L286.237 65.1035H287.693ZM297.131 65.1035V66.0742H293.132V65.1035H297.131ZM294.485 63.3057H295.75V70.668C295.75 70.9186 295.789 71.1077 295.866 71.2354C295.944 71.363 296.044 71.4473 296.167 71.4883C296.29 71.5293 296.422 71.5498 296.563 71.5498C296.668 71.5498 296.778 71.5407 296.892 71.5225C297.01 71.4997 297.099 71.4814 297.158 71.4678L297.165 72.5C297.065 72.5319 296.933 72.5615 296.769 72.5889C296.609 72.6208 296.415 72.6367 296.188 72.6367C295.878 72.6367 295.593 72.5752 295.333 72.4521C295.073 72.3291 294.866 72.124 294.711 71.8369C294.561 71.5452 294.485 71.1533 294.485 70.6611V63.3057ZM301.934 72.6367C301.419 72.6367 300.951 72.5501 300.532 72.377C300.118 72.1992 299.76 71.9508 299.459 71.6318C299.163 71.3128 298.935 70.9346 298.775 70.4971C298.616 70.0596 298.536 69.5811 298.536 69.0615V68.7744C298.536 68.1729 298.625 67.6374 298.803 67.168C298.98 66.694 299.222 66.293 299.527 65.9648C299.833 65.6367 300.179 65.3883 300.566 65.2197C300.954 65.0511 301.355 64.9668 301.77 64.9668C302.298 64.9668 302.754 65.0579 303.137 65.2402C303.524 65.4225 303.841 65.6777 304.087 66.0059C304.333 66.3294 304.515 66.7122 304.634 67.1543C304.752 67.5918 304.812 68.0703 304.812 68.5898V69.1572H299.288V68.125H303.547V68.0293C303.529 67.7012 303.46 67.3822 303.342 67.0723C303.228 66.7624 303.046 66.5072 302.795 66.3066C302.544 66.1061 302.202 66.0059 301.77 66.0059C301.482 66.0059 301.218 66.0674 300.977 66.1904C300.735 66.3089 300.528 66.4867 300.354 66.7236C300.181 66.9606 300.047 67.25 299.951 67.5918C299.855 67.9336 299.808 68.3278 299.808 68.7744V69.0615C299.808 69.4124 299.855 69.7428 299.951 70.0527C300.051 70.3581 300.195 70.627 300.382 70.8594C300.573 71.0918 300.803 71.2741 301.072 71.4062C301.346 71.5384 301.656 71.6045 302.002 71.6045C302.449 71.6045 302.827 71.5133 303.137 71.3311C303.447 71.1488 303.718 70.9049 303.95 70.5996L304.716 71.208C304.556 71.4495 304.354 71.6797 304.107 71.8984C303.861 72.1172 303.558 72.2949 303.198 72.4316C302.843 72.5684 302.421 72.6367 301.934 72.6367ZM307.803 66.6826V72.5H306.538V65.1035H307.734L307.803 66.6826ZM307.502 68.5215L306.976 68.501C306.98 67.9951 307.055 67.528 307.201 67.0996C307.347 66.6667 307.552 66.2907 307.816 65.9717C308.081 65.6527 308.395 65.4066 308.76 65.2334C309.129 65.0557 309.537 64.9668 309.983 64.9668C310.348 64.9668 310.676 65.0169 310.968 65.1172C311.259 65.2129 311.508 65.3678 311.713 65.582C311.923 65.7962 312.082 66.0742 312.191 66.416C312.301 66.7533 312.355 67.1657 312.355 67.6533V72.5H311.084V67.6396C311.084 67.2523 311.027 66.9424 310.913 66.71C310.799 66.473 310.633 66.3021 310.414 66.1973C310.195 66.0879 309.926 66.0332 309.607 66.0332C309.293 66.0332 309.006 66.0993 308.746 66.2314C308.491 66.3636 308.27 66.5459 308.083 66.7783C307.901 67.0107 307.757 67.2773 307.652 67.5781C307.552 67.8743 307.502 68.1888 307.502 68.5215ZM318.833 70.5381C318.833 70.3558 318.792 70.1872 318.71 70.0322C318.632 69.8727 318.471 69.7292 318.225 69.6016C317.983 69.4694 317.618 69.3555 317.131 69.2598C316.721 69.1732 316.349 69.0706 316.017 68.9521C315.688 68.8337 315.408 68.6901 315.176 68.5215C314.948 68.3529 314.772 68.1546 314.649 67.9268C314.526 67.6989 314.465 67.4323 314.465 67.127C314.465 66.8353 314.529 66.5596 314.656 66.2998C314.788 66.04 314.973 65.8099 315.21 65.6094C315.451 65.4089 315.741 65.2516 316.078 65.1377C316.415 65.0238 316.791 64.9668 317.206 64.9668C317.799 64.9668 318.304 65.0716 318.724 65.2812C319.143 65.4909 319.464 65.7712 319.688 66.1221C319.911 66.4684 320.022 66.8535 320.022 67.2773H318.758C318.758 67.0723 318.696 66.874 318.573 66.6826C318.455 66.4867 318.279 66.3249 318.047 66.1973C317.819 66.0697 317.539 66.0059 317.206 66.0059C316.855 66.0059 316.57 66.0605 316.352 66.1699C316.137 66.2747 315.98 66.4092 315.88 66.5732C315.784 66.7373 315.736 66.9105 315.736 67.0928C315.736 67.2295 315.759 67.3525 315.805 67.4619C315.855 67.5667 315.941 67.6647 316.064 67.7559C316.188 67.8424 316.361 67.9245 316.584 68.002C316.807 68.0794 317.092 68.1569 317.438 68.2344C318.045 68.3711 318.544 68.5352 318.936 68.7266C319.327 68.918 319.619 69.1527 319.811 69.4307C320.002 69.7087 320.098 70.0459 320.098 70.4424C320.098 70.766 320.029 71.0622 319.893 71.3311C319.76 71.5999 319.567 71.8324 319.312 72.0283C319.061 72.2197 318.76 72.3701 318.409 72.4795C318.063 72.5843 317.673 72.6367 317.24 72.6367C316.589 72.6367 316.037 72.5205 315.586 72.2881C315.135 72.0557 314.793 71.7549 314.561 71.3857C314.328 71.0166 314.212 70.627 314.212 70.2168H315.483C315.502 70.5632 315.602 70.8389 315.784 71.0439C315.966 71.2445 316.19 71.388 316.454 71.4746C316.718 71.5566 316.98 71.5977 317.24 71.5977C317.587 71.5977 317.876 71.5521 318.108 71.4609C318.345 71.3698 318.525 71.2445 318.648 71.085C318.771 70.9255 318.833 70.7432 318.833 70.5381ZM323.383 65.1035V72.5H322.111V65.1035H323.383ZM322.016 63.1416C322.016 62.9365 322.077 62.7633 322.2 62.6221C322.328 62.4808 322.515 62.4102 322.761 62.4102C323.002 62.4102 323.187 62.4808 323.314 62.6221C323.447 62.7633 323.513 62.9365 323.513 63.1416C323.513 63.3376 323.447 63.5062 323.314 63.6475C323.187 63.7842 323.002 63.8525 322.761 63.8525C322.515 63.8525 322.328 63.7842 322.2 63.6475C322.077 63.5062 322.016 63.3376 322.016 63.1416ZM325.328 68.8838V68.7266C325.328 68.1934 325.406 67.6989 325.561 67.2432C325.715 66.7829 325.939 66.3841 326.23 66.0469C326.522 65.7051 326.875 65.4408 327.29 65.2539C327.705 65.0625 328.17 64.9668 328.685 64.9668C329.204 64.9668 329.671 65.0625 330.086 65.2539C330.505 65.4408 330.861 65.7051 331.152 66.0469C331.449 66.3841 331.674 66.7829 331.829 67.2432C331.984 67.6989 332.062 68.1934 332.062 68.7266V68.8838C332.062 69.417 331.984 69.9115 331.829 70.3672C331.674 70.8229 331.449 71.2217 331.152 71.5635C330.861 71.9007 330.507 72.165 330.093 72.3564C329.683 72.5433 329.218 72.6367 328.698 72.6367C328.179 72.6367 327.712 72.5433 327.297 72.3564C326.882 72.165 326.527 71.9007 326.23 71.5635C325.939 71.2217 325.715 70.8229 325.561 70.3672C325.406 69.9115 325.328 69.417 325.328 68.8838ZM326.593 68.7266V68.8838C326.593 69.2529 326.636 69.6016 326.723 69.9297C326.809 70.2533 326.939 70.5404 327.112 70.791C327.29 71.0417 327.511 71.2399 327.775 71.3857C328.04 71.527 328.347 71.5977 328.698 71.5977C329.045 71.5977 329.348 71.527 329.607 71.3857C329.872 71.2399 330.09 71.0417 330.264 70.791C330.437 70.5404 330.567 70.2533 330.653 69.9297C330.744 69.6016 330.79 69.2529 330.79 68.8838V68.7266C330.79 68.362 330.744 68.0179 330.653 67.6943C330.567 67.3662 330.435 67.0768 330.257 66.8262C330.084 66.571 329.865 66.3704 329.601 66.2246C329.341 66.0788 329.035 66.0059 328.685 66.0059C328.338 66.0059 328.033 66.0788 327.769 66.2246C327.509 66.3704 327.29 66.571 327.112 66.8262C326.939 67.0768 326.809 67.3662 326.723 67.6943C326.636 68.0179 326.593 68.362 326.593 68.7266ZM335.162 66.6826V72.5H333.897V65.1035H335.094L335.162 66.6826ZM334.861 68.5215L334.335 68.501C334.34 67.9951 334.415 67.528 334.561 67.0996C334.706 66.6667 334.911 66.2907 335.176 65.9717C335.44 65.6527 335.755 65.4066 336.119 65.2334C336.488 65.0557 336.896 64.9668 337.343 64.9668C337.707 64.9668 338.035 65.0169 338.327 65.1172C338.619 65.2129 338.867 65.3678 339.072 65.582C339.282 65.7962 339.441 66.0742 339.551 66.416C339.66 66.7533 339.715 67.1657 339.715 67.6533V72.5H338.443V67.6396C338.443 67.2523 338.386 66.9424 338.272 66.71C338.159 66.473 337.992 66.3021 337.773 66.1973C337.555 66.0879 337.286 66.0332 336.967 66.0332C336.652 66.0332 336.365 66.0993 336.105 66.2314C335.85 66.3636 335.629 66.5459 335.442 66.7783C335.26 67.0107 335.117 67.2773 335.012 67.5781C334.911 67.8743 334.861 68.1888 334.861 68.5215ZM341.906 71.8301C341.906 71.6159 341.972 71.4359 342.104 71.29C342.241 71.1396 342.437 71.0645 342.692 71.0645C342.948 71.0645 343.141 71.1396 343.273 71.29C343.41 71.4359 343.479 71.6159 343.479 71.8301C343.479 72.0397 343.41 72.2174 343.273 72.3633C343.141 72.5091 342.948 72.582 342.692 72.582C342.437 72.582 342.241 72.5091 342.104 72.3633C341.972 72.2174 341.906 72.0397 341.906 71.8301ZM345.492 68.8838V68.7266C345.492 68.1934 345.57 67.6989 345.725 67.2432C345.88 66.7829 346.103 66.3841 346.395 66.0469C346.686 65.7051 347.039 65.4408 347.454 65.2539C347.869 65.0625 348.334 64.9668 348.849 64.9668C349.368 64.9668 349.835 65.0625 350.25 65.2539C350.669 65.4408 351.025 65.7051 351.316 66.0469C351.613 66.3841 351.838 66.7829 351.993 67.2432C352.148 67.6989 352.226 68.1934 352.226 68.7266V68.8838C352.226 69.417 352.148 69.9115 351.993 70.3672C351.838 70.8229 351.613 71.2217 351.316 71.5635C351.025 71.9007 350.672 72.165 350.257 72.3564C349.847 72.5433 349.382 72.6367 348.862 72.6367C348.343 72.6367 347.876 72.5433 347.461 72.3564C347.046 72.165 346.691 71.9007 346.395 71.5635C346.103 71.2217 345.88 70.8229 345.725 70.3672C345.57 69.9115 345.492 69.417 345.492 68.8838ZM346.757 68.7266V68.8838C346.757 69.2529 346.8 69.6016 346.887 69.9297C346.973 70.2533 347.103 70.5404 347.276 70.791C347.454 71.0417 347.675 71.2399 347.939 71.3857C348.204 71.527 348.511 71.5977 348.862 71.5977C349.209 71.5977 349.512 71.527 349.771 71.3857C350.036 71.2399 350.255 71.0417 350.428 70.791C350.601 70.5404 350.731 70.2533 350.817 69.9297C350.909 69.6016 350.954 69.2529 350.954 68.8838V68.7266C350.954 68.362 350.909 68.0179 350.817 67.6943C350.731 67.3662 350.599 67.0768 350.421 66.8262C350.248 66.571 350.029 66.3704 349.765 66.2246C349.505 66.0788 349.2 66.0059 348.849 66.0059C348.502 66.0059 348.197 66.0788 347.933 66.2246C347.673 66.3704 347.454 66.571 347.276 66.8262C347.103 67.0768 346.973 67.3662 346.887 67.6943C346.8 68.0179 346.757 68.362 346.757 68.7266ZM355.326 66.2656V72.5H354.062V65.1035H355.292L355.326 66.2656ZM357.637 65.0625L357.63 66.2383C357.525 66.2155 357.425 66.2018 357.329 66.1973C357.238 66.1882 357.133 66.1836 357.015 66.1836C356.723 66.1836 356.465 66.2292 356.242 66.3203C356.019 66.4115 355.83 66.5391 355.675 66.7031C355.52 66.8672 355.397 67.0632 355.306 67.291C355.219 67.5143 355.162 67.7604 355.135 68.0293L354.779 68.2344C354.779 67.7878 354.823 67.3685 354.909 66.9766C355 66.5846 355.139 66.2383 355.326 65.9375C355.513 65.6322 355.75 65.3952 356.037 65.2266C356.329 65.0534 356.675 64.9668 357.076 64.9668C357.167 64.9668 357.272 64.9782 357.391 65.001C357.509 65.0192 357.591 65.0397 357.637 65.0625ZM363.711 65.1035H364.859V72.3428C364.859 72.9945 364.727 73.5505 364.463 74.0107C364.199 74.471 363.829 74.8197 363.355 75.0566C362.886 75.2982 362.344 75.4189 361.729 75.4189C361.473 75.4189 361.173 75.3779 360.826 75.2959C360.484 75.2184 360.147 75.084 359.814 74.8926C359.486 74.7057 359.211 74.4528 358.987 74.1338L359.65 73.3818C359.96 73.7555 360.284 74.0153 360.621 74.1611C360.963 74.307 361.3 74.3799 361.633 74.3799C362.034 74.3799 362.38 74.3047 362.672 74.1543C362.964 74.0039 363.189 73.7806 363.349 73.4844C363.513 73.1927 363.595 72.8327 363.595 72.4043V66.7305L363.711 65.1035ZM358.618 68.8838V68.7402C358.618 68.1751 358.684 67.6624 358.816 67.2021C358.953 66.7373 359.147 66.3385 359.397 66.0059C359.653 65.6732 359.96 65.418 360.32 65.2402C360.68 65.0579 361.086 64.9668 361.537 64.9668C362.002 64.9668 362.408 65.0488 362.754 65.2129C363.105 65.3724 363.401 65.6071 363.643 65.917C363.889 66.2223 364.082 66.5915 364.224 67.0244C364.365 67.4574 364.463 67.9473 364.518 68.4941V69.123C364.467 69.6654 364.369 70.153 364.224 70.5859C364.082 71.0189 363.889 71.388 363.643 71.6934C363.401 71.9987 363.105 72.2334 362.754 72.3975C362.403 72.557 361.993 72.6367 361.523 72.6367C361.081 72.6367 360.68 72.5433 360.32 72.3564C359.965 72.1696 359.66 71.9076 359.404 71.5703C359.149 71.2331 358.953 70.8366 358.816 70.3809C358.684 69.9206 358.618 69.4215 358.618 68.8838ZM359.883 68.7402V68.8838C359.883 69.2529 359.919 69.5993 359.992 69.9229C360.07 70.2464 360.186 70.5312 360.341 70.7773C360.5 71.0234 360.703 71.2171 360.949 71.3584C361.195 71.4951 361.489 71.5635 361.831 71.5635C362.25 71.5635 362.597 71.4746 362.87 71.2969C363.144 71.1191 363.36 70.8844 363.52 70.5928C363.684 70.3011 363.811 69.9844 363.902 69.6426V67.9951C363.852 67.7445 363.775 67.5029 363.67 67.2705C363.57 67.0335 363.438 66.8239 363.273 66.6416C363.114 66.4548 362.916 66.3066 362.679 66.1973C362.442 66.0879 362.164 66.0332 361.845 66.0332C361.498 66.0332 361.2 66.1061 360.949 66.252C360.703 66.3932 360.5 66.5892 360.341 66.8398C360.186 67.0859 360.07 67.373 359.992 67.7012C359.919 68.0247 359.883 68.3711 359.883 68.7402Z" fill="#020617" fill-opacity="0.25"/>
    <path fill-rule="evenodd" clip-rule="evenodd" d="M412.362 65.3401L408.969 65.0456L407.644 61.9259C407.406 61.358 406.592 61.358 406.354 61.9259L405.029 65.0526L401.643 65.3401C401.026 65.3892 400.774 66.1603 401.243 66.5669L403.816 68.7963L403.045 72.1053C402.905 72.7083 403.557 73.185 404.09 72.8625L406.999 71.1098L409.908 72.8695C410.441 73.192 411.093 72.7153 410.953 72.1124L410.182 68.7963L412.755 66.5669C413.224 66.1603 412.979 65.3892 412.362 65.3401ZM406.999 69.7988L404.363 71.3903L405.064 68.3897L402.737 66.3706L405.807 66.1042L406.999 63.2789L408.198 66.1112L411.268 66.3777L408.941 68.3967L409.642 71.3973L406.999 69.7988Z" fill="#020617" fill-opacity="0.15"/>
    <rect x="437" y="53.5" width="28" height="28" rx="14" stroke="#E2E8F0" stroke-width="4"/>
    <path d="M451 55.4692C447.813 55.4731 444.758 56.7402 442.505 58.9927C440.252 61.2452 438.985 64.2991 438.981 67.4846C438.985 70.6701 440.252 73.7241 442.505 75.9766C444.758 78.2291 447.813 79.4962 451 79.5C454.187 79.4966 457.242 78.2296 459.495 75.977C461.748 73.7244 463.016 70.6703 463.019 67.4846C463.015 64.2991 461.748 61.2452 459.495 58.9927C457.241 56.7402 454.186 55.4731 451 55.4692ZM451 79.0194C447.941 79.016 445.008 77.7996 442.845 75.6372C440.682 73.4747 439.465 70.5428 439.461 67.4846C439.465 64.4264 440.682 61.4945 442.845 59.3321C445.008 57.1696 447.941 55.9532 451 55.9499C454.059 55.9532 456.992 57.1696 459.155 59.3321C461.318 61.4945 462.535 64.4264 462.538 67.4846C462.535 70.5428 461.318 73.4747 459.155 75.6372C456.992 77.7996 454.059 79.016 451 79.0194Z" fill="#4F868E"/>
    <path d="M451 79.0194C447.941 79.016 445.008 77.7996 442.845 75.6372C440.682 73.4747 439.465 70.5428 439.461 67.4846C439.465 64.4264 440.682 61.4945 442.845 59.3321C445.008 57.1696 447.941 55.9532 451 55.9499C454.059 55.9532 456.992 57.1696 459.155 59.3321C461.318 61.4945 462.535 64.4264 462.538 67.4846C462.535 70.5428 461.318 73.4747 459.155 75.6372C456.992 77.7996 454.059 79.016 451 79.0194Z" fill="#4F868E"/>
    <path d="M454.128 62.48C453.524 62.4841 452.929 62.6252 452.387 62.8928C451.845 63.1603 451.371 63.5472 451 64.0244C450.63 63.5472 450.156 63.1603 449.614 62.8928C449.073 62.6253 448.478 62.4841 447.873 62.48C445.62 62.48 443.789 64.4184 443.789 66.8055V71.5348C443.789 71.7897 443.89 72.0342 444.07 72.2145C444.251 72.3947 444.495 72.496 444.75 72.496C445.005 72.496 445.25 72.3947 445.43 72.2145C445.61 72.0342 445.712 71.7897 445.712 71.5348V66.8023C445.712 65.4758 446.684 64.3992 447.88 64.3992C449.075 64.3992 450.048 65.479 450.048 66.8023V71.5316C450.048 71.7865 450.149 72.031 450.33 72.2112C450.51 72.3915 450.755 72.4928 451.01 72.4928C451.265 72.4928 451.509 72.3915 451.69 72.2112C451.87 72.031 451.971 71.7865 451.971 71.5316V66.8023C451.971 65.4758 452.944 64.3992 454.14 64.3992C455.335 64.3992 456.308 65.479 456.308 66.8023V71.5316C456.308 71.7865 456.409 72.031 456.589 72.2112C456.77 72.3915 457.014 72.4928 457.269 72.4928C457.524 72.4928 457.769 72.3915 457.949 72.2112C458.13 72.031 458.231 71.7865 458.231 71.5316V66.8023C458.213 64.4184 456.382 62.48 454.128 62.48Z" fill="#F3F8F8"/>
    </g>
    <rect x="29" y="126" width="100" height="1" fill="url(#paint1_linear_4715_1555)"/>
    <rect x="9" y="141" width="120" height="1" fill="url(#paint2_linear_4715_1555)"/>
    <rect x="-14" y="156" width="143" height="1" fill="url(#paint3_linear_4715_1555)"/>
    <rect x="49" y="171" width="80" height="1" fill="url(#paint4_linear_4715_1555)"/>
    <g clip-path="url(#clip4_4715_1555)">
    <path d="M130 112C130 105.373 135.373 100 142 100H451C457.627 100 463 105.373 463 112V184C463 190.627 457.627 196 451 196H142C135.373 196 130 190.627 130 184V112Z" fill="white"/>
    <g opacity="0.8">
    <mask id="path-19-inside-1_4715_1555" fill="white">
    <path d="M130 100H463V148H130V100Z"/>
    </mask>
    <path d="M463 147H130V149H463V147Z" fill="#F1F5F9" mask="url(#path-19-inside-1_4715_1555)"/>
    <path d="M147.337 127V116.878C147.37 116.878 147.468 116.88 147.631 116.885C147.799 116.885 148.002 116.885 148.24 116.885C148.478 116.88 148.725 116.88 148.982 116.885C149.239 116.885 149.474 116.887 149.689 116.892C150.93 116.911 151.936 117.114 152.706 117.501C153.481 117.884 154.048 118.441 154.407 119.174C154.771 119.907 154.953 120.807 154.953 121.876C154.953 122.996 154.757 123.936 154.365 124.697C153.978 125.458 153.385 126.032 152.587 126.419C151.794 126.806 150.783 127 149.556 127H147.337ZM148.667 125.887H149.556C150.391 125.887 151.11 125.759 151.712 125.502C152.314 125.241 152.776 124.818 153.098 124.235C153.425 123.652 153.588 122.872 153.588 121.897C153.588 120.922 153.429 120.149 153.112 119.58C152.799 119.011 152.347 118.605 151.754 118.362C151.161 118.115 150.447 117.991 149.612 117.991H148.667V125.887ZM159.746 127.14C159.079 127.14 158.495 126.998 157.996 126.713C157.501 126.424 157.116 126.001 156.841 125.446C156.566 124.891 156.428 124.212 156.428 123.409C156.428 122.653 156.556 121.99 156.813 121.421C157.07 120.852 157.445 120.411 157.94 120.098C158.435 119.781 159.039 119.622 159.753 119.622C160.42 119.622 160.999 119.769 161.489 120.063C161.979 120.352 162.359 120.779 162.63 121.344C162.905 121.909 163.043 122.597 163.043 123.409C163.043 124.146 162.917 124.795 162.665 125.355C162.413 125.915 162.042 126.354 161.552 126.671C161.067 126.984 160.465 127.14 159.746 127.14ZM159.753 126.118C160.182 126.118 160.546 126.008 160.845 125.789C161.144 125.57 161.37 125.255 161.524 124.844C161.683 124.433 161.762 123.946 161.762 123.381C161.762 122.863 161.692 122.399 161.552 121.988C161.417 121.573 161.202 121.244 160.908 121.001C160.614 120.758 160.229 120.637 159.753 120.637C159.314 120.637 158.943 120.747 158.64 120.966C158.337 121.181 158.106 121.493 157.947 121.904C157.793 122.315 157.716 122.807 157.716 123.381C157.716 123.89 157.784 124.352 157.919 124.767C158.059 125.182 158.278 125.511 158.577 125.754C158.88 125.997 159.272 126.118 159.753 126.118ZM168.226 127V119.762H169.479V120.812C169.596 120.611 169.757 120.422 169.962 120.245C170.172 120.068 170.424 119.925 170.718 119.818C171.017 119.711 171.36 119.657 171.747 119.657C172.205 119.657 172.625 119.748 173.007 119.93C173.395 120.112 173.703 120.397 173.931 120.784C174.165 121.167 174.281 121.661 174.281 122.268V127H172.986V122.394C172.986 121.829 172.837 121.412 172.538 121.141C172.244 120.866 171.862 120.728 171.39 120.728C171.064 120.728 170.758 120.782 170.473 120.889C170.189 120.992 169.958 121.15 169.78 121.365C169.603 121.575 169.514 121.841 169.514 122.163V127H168.226ZM179.274 127.14C178.607 127.14 178.024 126.998 177.524 126.713C177.03 126.424 176.645 126.001 176.369 125.446C176.094 124.891 175.956 124.212 175.956 123.409C175.956 122.653 176.085 121.99 176.341 121.421C176.598 120.852 176.974 120.411 177.468 120.098C177.963 119.781 178.567 119.622 179.281 119.622C179.949 119.622 180.527 119.769 181.017 120.063C181.507 120.352 181.888 120.779 182.158 121.344C182.434 121.909 182.571 122.597 182.571 123.409C182.571 124.146 182.445 124.795 182.193 125.355C181.941 125.915 181.57 126.354 181.08 126.671C180.595 126.984 179.993 127.14 179.274 127.14ZM179.281 126.118C179.711 126.118 180.075 126.008 180.373 125.789C180.672 125.57 180.898 125.255 181.052 124.844C181.211 124.433 181.29 123.946 181.29 123.381C181.29 122.863 181.22 122.399 181.08 121.988C180.945 121.573 180.73 121.244 180.436 121.001C180.142 120.758 179.757 120.637 179.281 120.637C178.843 120.637 178.472 120.747 178.168 120.966C177.865 121.181 177.634 121.493 177.475 121.904C177.321 122.315 177.244 122.807 177.244 123.381C177.244 123.89 177.312 124.352 177.447 124.767C177.587 125.182 177.807 125.511 178.105 125.754C178.409 125.997 178.801 126.118 179.281 126.118ZM186.687 127.035C186.188 127.035 185.801 126.967 185.525 126.832C185.25 126.697 185.056 126.496 184.944 126.23C184.837 125.964 184.783 125.637 184.783 125.25V120.707H183.607V119.762H184.818L185.133 117.655H186.085V119.755H187.716V120.707H186.085V125.208C186.085 125.465 186.111 125.654 186.162 125.775C186.218 125.892 186.309 125.966 186.435 125.999C186.561 126.032 186.739 126.048 186.967 126.048H187.758V126.916C187.67 126.949 187.534 126.977 187.352 127C187.175 127.023 186.953 127.035 186.687 127.035ZM195.624 127.14C195.12 127.14 194.651 127.063 194.217 126.909C193.788 126.75 193.431 126.505 193.146 126.174C192.861 125.838 192.684 125.411 192.614 124.893H193.79C193.851 125.178 193.967 125.416 194.14 125.607C194.313 125.794 194.525 125.936 194.777 126.034C195.034 126.127 195.314 126.174 195.617 126.174C196.107 126.174 196.501 126.083 196.8 125.901C197.099 125.719 197.248 125.439 197.248 125.061C197.248 124.795 197.169 124.583 197.01 124.424C196.856 124.261 196.613 124.142 196.282 124.067L194.784 123.696C194.201 123.556 193.734 123.337 193.384 123.038C193.039 122.739 192.864 122.322 192.859 121.785C192.859 121.36 192.962 120.987 193.167 120.665C193.372 120.343 193.678 120.089 194.084 119.902C194.495 119.715 195.006 119.622 195.617 119.622C196.406 119.622 197.04 119.799 197.521 120.154C198.002 120.504 198.254 121.02 198.277 121.701H197.129C197.082 121.356 196.928 121.083 196.667 120.882C196.406 120.677 196.051 120.574 195.603 120.574C195.146 120.574 194.77 120.667 194.476 120.854C194.187 121.036 194.042 121.321 194.042 121.708C194.042 121.965 194.145 122.168 194.35 122.317C194.56 122.462 194.863 122.583 195.26 122.681L196.716 123.045C197.047 123.134 197.323 123.25 197.542 123.395C197.761 123.54 197.934 123.701 198.06 123.878C198.186 124.055 198.275 124.242 198.326 124.438C198.382 124.629 198.41 124.814 198.41 124.991C198.41 125.434 198.3 125.817 198.081 126.139C197.862 126.456 197.544 126.704 197.129 126.881C196.714 127.054 196.212 127.14 195.624 127.14ZM203.231 127.14C202.559 127.14 201.966 126.993 201.453 126.699C200.94 126.405 200.538 125.983 200.249 125.432C199.96 124.881 199.815 124.221 199.815 123.451C199.815 122.69 199.946 122.023 200.207 121.449C200.468 120.875 200.846 120.427 201.341 120.105C201.84 119.783 202.44 119.622 203.14 119.622C203.821 119.622 204.398 119.769 204.869 120.063C205.34 120.357 205.697 120.772 205.94 121.309C206.187 121.841 206.311 122.473 206.311 123.206V123.682H201.124C201.124 124.139 201.199 124.555 201.348 124.928C201.502 125.297 201.733 125.591 202.041 125.81C202.349 126.029 202.739 126.139 203.21 126.139C203.672 126.139 204.069 126.032 204.4 125.817C204.736 125.602 204.951 125.292 205.044 124.886H206.262C206.178 125.376 205.982 125.789 205.674 126.125C205.371 126.461 205.004 126.715 204.575 126.888C204.15 127.056 203.702 127.14 203.231 127.14ZM201.131 122.807H205.065C205.065 122.392 204.995 122.018 204.855 121.687C204.715 121.351 204.5 121.087 204.211 120.896C203.926 120.7 203.567 120.602 203.133 120.602C202.68 120.602 202.305 120.712 202.006 120.931C201.707 121.146 201.486 121.423 201.341 121.764C201.196 122.1 201.126 122.448 201.131 122.807ZM209.999 127.091C209.607 127.091 209.289 127.037 209.047 126.93C208.809 126.823 208.624 126.678 208.494 126.496C208.368 126.314 208.281 126.106 208.235 125.873C208.193 125.635 208.172 125.39 208.172 125.138V116.598H209.446V125.012C209.446 125.376 209.516 125.649 209.656 125.831C209.8 126.013 210.001 126.113 210.258 126.132L210.65 126.139V126.979C210.542 127.012 210.43 127.037 210.314 127.056C210.197 127.079 210.092 127.091 209.999 127.091ZM214.102 127.091C213.71 127.091 213.393 127.037 213.15 126.93C212.912 126.823 212.728 126.678 212.597 126.496C212.471 126.314 212.385 126.106 212.338 125.873C212.296 125.635 212.275 125.39 212.275 125.138V116.598H213.549V125.012C213.549 125.376 213.619 125.649 213.759 125.831C213.904 126.013 214.104 126.113 214.361 126.132L214.753 126.139V126.979C214.646 127.012 214.534 127.037 214.417 127.056C214.3 127.079 214.195 127.091 214.102 127.091ZM215.701 127.539L219.201 116.878H220.209L216.702 127.539H215.701ZM224.165 127.14C223.661 127.14 223.192 127.063 222.758 126.909C222.329 126.75 221.972 126.505 221.687 126.174C221.403 125.838 221.225 125.411 221.155 124.893H222.331C222.392 125.178 222.509 125.416 222.681 125.607C222.854 125.794 223.066 125.936 223.318 126.034C223.575 126.127 223.855 126.174 224.158 126.174C224.648 126.174 225.043 126.083 225.341 125.901C225.64 125.719 225.789 125.439 225.789 125.061C225.789 124.795 225.71 124.583 225.551 124.424C225.397 124.261 225.155 124.142 224.823 124.067L223.325 123.696C222.742 123.556 222.275 123.337 221.925 123.038C221.58 122.739 221.405 122.322 221.4 121.785C221.4 121.36 221.503 120.987 221.708 120.665C221.914 120.343 222.219 120.089 222.625 119.902C223.036 119.715 223.547 119.622 224.158 119.622C224.947 119.622 225.582 119.799 226.062 120.154C226.543 120.504 226.795 121.02 226.818 121.701H225.67C225.624 121.356 225.47 121.083 225.208 120.882C224.947 120.677 224.592 120.574 224.144 120.574C223.687 120.574 223.311 120.667 223.017 120.854C222.728 121.036 222.583 121.321 222.583 121.708C222.583 121.965 222.686 122.168 222.891 122.317C223.101 122.462 223.405 122.583 223.801 122.681L225.257 123.045C225.589 123.134 225.864 123.25 226.083 123.395C226.303 123.54 226.475 123.701 226.601 123.878C226.727 124.055 226.816 124.242 226.867 124.438C226.923 124.629 226.951 124.814 226.951 124.991C226.951 125.434 226.842 125.817 226.622 126.139C226.403 126.456 226.086 126.704 225.67 126.881C225.255 127.054 224.753 127.14 224.165 127.14ZM228.713 127V116.598H229.973V120.826C230.095 120.625 230.258 120.439 230.463 120.266C230.669 120.089 230.918 119.946 231.212 119.839C231.506 119.727 231.847 119.671 232.234 119.671C232.706 119.671 233.133 119.76 233.515 119.937C233.898 120.11 234.201 120.357 234.425 120.679C234.649 121.001 234.761 121.384 234.761 121.827V127H233.466V122.086C233.466 121.652 233.317 121.318 233.018 121.085C232.724 120.847 232.339 120.728 231.863 120.728C231.541 120.728 231.238 120.782 230.953 120.889C230.669 120.992 230.438 121.15 230.26 121.365C230.088 121.575 230.001 121.843 230.001 122.17V127H228.713ZM238.852 127.14C238.381 127.14 237.966 127.058 237.606 126.895C237.252 126.727 236.972 126.487 236.766 126.174C236.566 125.861 236.465 125.483 236.465 125.04C236.465 124.237 236.745 123.64 237.305 123.248C237.865 122.856 238.764 122.646 240 122.618L241.288 122.583V122.016C241.288 121.573 241.155 121.223 240.889 120.966C240.623 120.705 240.213 120.574 239.657 120.574C239.242 120.579 238.876 120.677 238.558 120.868C238.241 121.059 238.038 121.372 237.949 121.806H236.808C236.836 121.335 236.967 120.938 237.2 120.616C237.438 120.289 237.772 120.042 238.201 119.874C238.631 119.706 239.137 119.622 239.72 119.622C240.35 119.622 240.873 119.711 241.288 119.888C241.708 120.065 242.021 120.327 242.226 120.672C242.436 121.017 242.541 121.442 242.541 121.946V127H241.435L241.337 125.642C241.062 126.207 240.707 126.599 240.273 126.818C239.844 127.033 239.37 127.14 238.852 127.14ZM239.237 126.209C239.485 126.209 239.727 126.165 239.965 126.076C240.208 125.987 240.427 125.868 240.623 125.719C240.824 125.565 240.985 125.395 241.106 125.208C241.228 125.017 241.288 124.821 241.288 124.62V123.381L240.217 123.402C239.662 123.411 239.2 123.467 238.831 123.57C238.463 123.673 238.185 123.834 237.998 124.053C237.812 124.272 237.718 124.559 237.718 124.914C237.718 125.32 237.861 125.637 238.145 125.866C238.43 126.095 238.794 126.209 239.237 126.209ZM244.631 127V119.762H245.863V121.155C245.984 120.81 246.154 120.525 246.374 120.301C246.593 120.072 246.843 119.902 247.123 119.79C247.407 119.678 247.701 119.622 248.005 119.622C248.112 119.622 248.217 119.629 248.32 119.643C248.422 119.657 248.502 119.68 248.558 119.713V120.966C248.488 120.933 248.397 120.912 248.285 120.903C248.177 120.889 248.086 120.882 248.012 120.882C247.722 120.863 247.452 120.882 247.2 120.938C246.948 120.989 246.726 121.08 246.535 121.211C246.343 121.342 246.192 121.514 246.08 121.729C245.972 121.939 245.919 122.196 245.919 122.499V127H244.631ZM253.119 127.14C252.447 127.14 251.854 126.993 251.341 126.699C250.828 126.405 250.426 125.983 250.137 125.432C249.848 124.881 249.703 124.221 249.703 123.451C249.703 122.69 249.834 122.023 250.095 121.449C250.356 120.875 250.734 120.427 251.229 120.105C251.728 119.783 252.328 119.622 253.028 119.622C253.709 119.622 254.286 119.769 254.757 120.063C255.228 120.357 255.585 120.772 255.828 121.309C256.075 121.841 256.199 122.473 256.199 123.206V123.682H251.012C251.012 124.139 251.087 124.555 251.236 124.928C251.39 125.297 251.621 125.591 251.929 125.81C252.237 126.029 252.627 126.139 253.098 126.139C253.56 126.139 253.957 126.032 254.288 125.817C254.624 125.602 254.839 125.292 254.932 124.886H256.15C256.066 125.376 255.87 125.789 255.562 126.125C255.259 126.461 254.892 126.715 254.463 126.888C254.038 127.056 253.59 127.14 253.119 127.14ZM251.019 122.807H254.953C254.953 122.392 254.883 122.018 254.743 121.687C254.603 121.351 254.388 121.087 254.099 120.896C253.814 120.7 253.455 120.602 253.021 120.602C252.568 120.602 252.193 120.712 251.894 120.931C251.595 121.146 251.374 121.423 251.229 121.764C251.084 122.1 251.014 122.448 251.019 122.807ZM261.452 127V119.762H262.698V120.812C262.899 120.495 263.174 120.217 263.524 119.979C263.874 119.741 264.329 119.622 264.889 119.622C265.15 119.622 265.416 119.666 265.687 119.755C265.962 119.844 266.214 119.977 266.443 120.154C266.672 120.331 266.849 120.548 266.975 120.805C267.199 120.45 267.502 120.166 267.885 119.951C268.268 119.732 268.699 119.622 269.18 119.622C269.432 119.622 269.696 119.662 269.971 119.741C270.246 119.816 270.501 119.951 270.734 120.147C270.972 120.338 271.166 120.607 271.315 120.952C271.464 121.293 271.539 121.731 271.539 122.268V127H270.237V122.394C270.237 121.955 270.167 121.617 270.027 121.379C269.887 121.136 269.703 120.966 269.474 120.868C269.25 120.77 269.01 120.721 268.753 120.721C268.529 120.721 268.291 120.765 268.039 120.854C267.787 120.943 267.572 121.092 267.395 121.302C267.218 121.512 267.129 121.799 267.129 122.163V127H265.841V122.016C265.841 121.731 265.764 121.493 265.61 121.302C265.461 121.111 265.272 120.966 265.043 120.868C264.819 120.77 264.595 120.721 264.371 120.721C264.124 120.721 263.874 120.77 263.622 120.868C263.375 120.966 263.165 121.122 262.992 121.337C262.824 121.547 262.74 121.822 262.74 122.163V127H261.452ZM274.124 129.31C273.699 129.31 273.408 129.28 273.249 129.219C273.09 129.158 273.011 129.128 273.011 129.128V128.288L273.753 128.302C274.019 128.311 274.241 128.293 274.418 128.246C274.595 128.199 274.738 128.136 274.845 128.057C274.952 127.978 275.034 127.889 275.09 127.791C275.151 127.693 275.2 127.6 275.237 127.511L275.489 126.825L272.661 119.762H273.97L276.105 125.348L278.226 119.762H279.493L276.448 127.546C276.257 128.003 276.044 128.36 275.811 128.617C275.582 128.874 275.326 129.053 275.041 129.156C274.761 129.259 274.455 129.31 274.124 129.31ZM284.385 129.254V119.762H285.673L285.687 121.022C285.771 120.873 285.878 120.716 286.009 120.553C286.144 120.39 286.307 120.238 286.499 120.098C286.695 119.958 286.921 119.844 287.178 119.755C287.439 119.666 287.735 119.622 288.067 119.622C288.645 119.622 289.154 119.755 289.593 120.021C290.036 120.282 290.381 120.684 290.629 121.225C290.876 121.766 291 122.452 291 123.283C291 124.114 290.878 124.816 290.636 125.39C290.398 125.959 290.052 126.393 289.6 126.692C289.147 126.991 288.601 127.14 287.962 127.14C287.64 127.14 287.353 127.093 287.101 127C286.853 126.911 286.636 126.795 286.45 126.65C286.268 126.501 286.114 126.342 285.988 126.174C285.866 126.006 285.766 125.845 285.687 125.691V129.254H284.385ZM287.717 126.132C288.314 126.132 288.802 125.906 289.18 125.453C289.558 124.996 289.747 124.286 289.747 123.325C289.747 122.499 289.574 121.843 289.229 121.358C288.883 120.873 288.379 120.63 287.717 120.63C287.045 120.63 286.536 120.88 286.191 121.379C285.845 121.874 285.673 122.522 285.673 123.325C285.673 123.843 285.75 124.314 285.904 124.739C286.058 125.164 286.286 125.502 286.59 125.754C286.893 126.006 287.269 126.132 287.717 126.132ZM295.854 127.14C295.182 127.14 294.589 126.993 294.076 126.699C293.562 126.405 293.161 125.983 292.872 125.432C292.582 124.881 292.438 124.221 292.438 123.451C292.438 122.69 292.568 122.023 292.83 121.449C293.091 120.875 293.469 120.427 293.964 120.105C294.463 119.783 295.063 119.622 295.763 119.622C296.444 119.622 297.02 119.769 297.492 120.063C297.963 120.357 298.32 120.772 298.563 121.309C298.81 121.841 298.934 122.473 298.934 123.206V123.682H293.747C293.747 124.139 293.821 124.555 293.971 124.928C294.125 125.297 294.356 125.591 294.664 125.81C294.972 126.029 295.361 126.139 295.833 126.139C296.295 126.139 296.691 126.032 297.023 125.817C297.359 125.602 297.573 125.292 297.667 124.886H298.885C298.801 125.376 298.605 125.789 298.297 126.125C297.993 126.461 297.627 126.715 297.198 126.888C296.773 127.056 296.325 127.14 295.854 127.14ZM293.754 122.807H297.688C297.688 122.392 297.618 122.018 297.478 121.687C297.338 121.351 297.123 121.087 296.834 120.896C296.549 120.7 296.19 120.602 295.756 120.602C295.303 120.602 294.927 120.712 294.629 120.931C294.33 121.146 294.108 121.423 293.964 121.764C293.819 122.1 293.749 122.448 293.754 122.807ZM300.794 127V119.762H302.026V121.155C302.148 120.81 302.318 120.525 302.537 120.301C302.757 120.072 303.006 119.902 303.286 119.79C303.571 119.678 303.865 119.622 304.168 119.622C304.276 119.622 304.381 119.629 304.483 119.643C304.586 119.657 304.665 119.68 304.721 119.713V120.966C304.651 120.933 304.56 120.912 304.448 120.903C304.341 120.889 304.25 120.882 304.175 120.882C303.886 120.863 303.615 120.882 303.363 120.938C303.111 120.989 302.89 121.08 302.698 121.211C302.507 121.342 302.355 121.514 302.243 121.729C302.136 121.939 302.082 122.196 302.082 122.499V127H300.794ZM308.896 127.14C308.392 127.14 307.923 127.063 307.489 126.909C307.06 126.75 306.703 126.505 306.418 126.174C306.133 125.838 305.956 125.411 305.886 124.893H307.062C307.123 125.178 307.239 125.416 307.412 125.607C307.585 125.794 307.797 125.936 308.049 126.034C308.306 126.127 308.586 126.174 308.889 126.174C309.379 126.174 309.773 126.083 310.072 125.901C310.371 125.719 310.52 125.439 310.52 125.061C310.52 124.795 310.441 124.583 310.282 124.424C310.128 124.261 309.885 124.142 309.554 124.067L308.056 123.696C307.473 123.556 307.006 123.337 306.656 123.038C306.311 122.739 306.136 122.322 306.131 121.785C306.131 121.36 306.234 120.987 306.439 120.665C306.644 120.343 306.95 120.089 307.356 119.902C307.767 119.715 308.278 119.622 308.889 119.622C309.678 119.622 310.312 119.799 310.793 120.154C311.274 120.504 311.526 121.02 311.549 121.701H310.401C310.354 121.356 310.2 121.083 309.939 120.882C309.678 120.677 309.323 120.574 308.875 120.574C308.418 120.574 308.042 120.667 307.748 120.854C307.459 121.036 307.314 121.321 307.314 121.708C307.314 121.965 307.417 122.168 307.622 122.317C307.832 122.462 308.135 122.583 308.532 122.681L309.988 123.045C310.319 123.134 310.595 123.25 310.814 123.395C311.033 123.54 311.206 123.701 311.332 123.878C311.458 124.055 311.547 124.242 311.598 124.438C311.654 124.629 311.682 124.814 311.682 124.991C311.682 125.434 311.572 125.817 311.353 126.139C311.134 126.456 310.816 126.704 310.401 126.881C309.986 127.054 309.484 127.14 308.896 127.14ZM316.342 127.14C315.675 127.14 315.091 126.998 314.592 126.713C314.097 126.424 313.712 126.001 313.437 125.446C313.162 124.891 313.024 124.212 313.024 123.409C313.024 122.653 313.152 121.99 313.409 121.421C313.666 120.852 314.041 120.411 314.536 120.098C315.031 119.781 315.635 119.622 316.349 119.622C317.016 119.622 317.595 119.769 318.085 120.063C318.575 120.352 318.955 120.779 319.226 121.344C319.501 121.909 319.639 122.597 319.639 123.409C319.639 124.146 319.513 124.795 319.261 125.355C319.009 125.915 318.638 126.354 318.148 126.671C317.663 126.984 317.061 127.14 316.342 127.14ZM316.349 126.118C316.778 126.118 317.142 126.008 317.441 125.789C317.74 125.57 317.966 125.255 318.12 124.844C318.279 124.433 318.358 123.946 318.358 123.381C318.358 122.863 318.288 122.399 318.148 121.988C318.013 121.573 317.798 121.244 317.504 121.001C317.21 120.758 316.825 120.637 316.349 120.637C315.91 120.637 315.539 120.747 315.236 120.966C314.933 121.181 314.702 121.493 314.543 121.904C314.389 122.315 314.312 122.807 314.312 123.381C314.312 123.89 314.38 124.352 314.515 124.767C314.655 125.182 314.874 125.511 315.173 125.754C315.476 125.997 315.868 126.118 316.349 126.118ZM321.43 127V119.762H322.683V120.812C322.8 120.611 322.961 120.422 323.166 120.245C323.376 120.068 323.628 119.925 323.922 119.818C324.221 119.711 324.564 119.657 324.951 119.657C325.408 119.657 325.828 119.748 326.211 119.93C326.598 120.112 326.906 120.397 327.135 120.784C327.368 121.167 327.485 121.661 327.485 122.268V127H326.19V122.394C326.19 121.829 326.041 121.412 325.742 121.141C325.448 120.866 325.065 120.728 324.594 120.728C324.267 120.728 323.962 120.782 323.677 120.889C323.392 120.992 323.161 121.15 322.984 121.365C322.807 121.575 322.718 121.841 322.718 122.163V127H321.43ZM331.583 127.14C331.111 127.14 330.696 127.058 330.337 126.895C329.982 126.727 329.702 126.487 329.497 126.174C329.296 125.861 329.196 125.483 329.196 125.04C329.196 124.237 329.476 123.64 330.036 123.248C330.596 122.856 331.494 122.646 332.731 122.618L334.019 122.583V122.016C334.019 121.573 333.886 121.223 333.62 120.966C333.354 120.705 332.943 120.574 332.388 120.574C331.972 120.579 331.606 120.677 331.289 120.868C330.971 121.059 330.768 121.372 330.68 121.806H329.539C329.567 121.335 329.697 120.938 329.931 120.616C330.169 120.289 330.502 120.042 330.932 119.874C331.361 119.706 331.867 119.622 332.451 119.622C333.081 119.622 333.603 119.711 334.019 119.888C334.439 120.065 334.751 120.327 334.957 120.672C335.167 121.017 335.272 121.442 335.272 121.946V127H334.166L334.068 125.642C333.792 126.207 333.438 126.599 333.004 126.818C332.574 127.033 332.101 127.14 331.583 127.14ZM331.968 126.209C332.215 126.209 332.458 126.165 332.696 126.076C332.938 125.987 333.158 125.868 333.354 125.719C333.554 125.565 333.715 125.395 333.837 125.208C333.958 125.017 334.019 124.821 334.019 124.62V123.381L332.948 123.402C332.392 123.411 331.93 123.467 331.562 123.57C331.193 123.673 330.915 123.834 330.729 124.053C330.542 124.272 330.449 124.559 330.449 124.914C330.449 125.32 330.591 125.637 330.876 125.866C331.16 126.095 331.524 126.209 331.968 126.209ZM339.188 127.091C338.796 127.091 338.479 127.037 338.236 126.93C337.998 126.823 337.814 126.678 337.683 126.496C337.557 126.314 337.471 126.106 337.424 125.873C337.382 125.635 337.361 125.39 337.361 125.138V116.598H338.635V125.012C338.635 125.376 338.705 125.649 338.845 125.831C338.99 126.013 339.19 126.113 339.447 126.132L339.839 126.139V126.979C339.732 127.012 339.62 127.037 339.503 127.056C339.386 127.079 339.281 127.091 339.188 127.091ZM347.605 127.14C346.662 127.14 345.916 126.818 345.365 126.174C344.819 125.53 344.546 124.59 344.546 123.353C344.546 122.602 344.656 121.946 344.875 121.386C345.094 120.826 345.423 120.392 345.862 120.084C346.301 119.776 346.847 119.622 347.5 119.622C347.85 119.622 348.158 119.666 348.424 119.755C348.69 119.844 348.921 119.956 349.117 120.091C349.313 120.226 349.472 120.366 349.593 120.511C349.719 120.656 349.812 120.789 349.873 120.91V116.598H351.182V127H350.188L350.048 125.516C350.001 125.656 349.927 125.819 349.824 126.006C349.721 126.188 349.577 126.368 349.39 126.545C349.208 126.718 348.97 126.86 348.676 126.972C348.382 127.084 348.025 127.14 347.605 127.14ZM347.836 126.146C348.564 126.146 349.084 125.924 349.397 125.481C349.714 125.033 349.873 124.303 349.873 123.29C349.868 122.725 349.798 122.245 349.663 121.848C349.528 121.451 349.313 121.15 349.019 120.945C348.73 120.735 348.342 120.63 347.857 120.63C347.264 120.63 346.781 120.842 346.408 121.267C346.035 121.692 345.848 122.366 345.848 123.29C345.848 124.195 346.016 124.898 346.352 125.397C346.688 125.896 347.183 126.146 347.836 126.146ZM355.419 127.14C354.948 127.14 354.533 127.058 354.173 126.895C353.819 126.727 353.539 126.487 353.333 126.174C353.133 125.861 353.032 125.483 353.032 125.04C353.032 124.237 353.312 123.64 353.872 123.248C354.432 122.856 355.331 122.646 356.567 122.618L357.855 122.583V122.016C357.855 121.573 357.722 121.223 357.456 120.966C357.19 120.705 356.78 120.574 356.224 120.574C355.809 120.579 355.443 120.677 355.125 120.868C354.808 121.059 354.605 121.372 354.516 121.806H353.375C353.403 121.335 353.534 120.938 353.767 120.616C354.005 120.289 354.339 120.042 354.768 119.874C355.198 119.706 355.704 119.622 356.287 119.622C356.917 119.622 357.44 119.711 357.855 119.888C358.275 120.065 358.588 120.327 358.793 120.672C359.003 121.017 359.108 121.442 359.108 121.946V127H358.002L357.904 125.642C357.629 126.207 357.274 126.599 356.84 126.818C356.411 127.033 355.937 127.14 355.419 127.14ZM355.804 126.209C356.052 126.209 356.294 126.165 356.532 126.076C356.775 125.987 356.994 125.868 357.19 125.719C357.391 125.565 357.552 125.395 357.673 125.208C357.795 125.017 357.855 124.821 357.855 124.62V123.381L356.784 123.402C356.229 123.411 355.767 123.467 355.398 123.57C355.03 123.673 354.752 123.834 354.565 124.053C354.379 124.272 354.285 124.559 354.285 124.914C354.285 125.32 354.428 125.637 354.712 125.866C354.997 126.095 355.361 126.209 355.804 126.209ZM363.55 127.035C363.051 127.035 362.663 126.967 362.388 126.832C362.113 126.697 361.919 126.496 361.807 126.23C361.7 125.964 361.646 125.637 361.646 125.25V120.707H360.47V119.762H361.681L361.996 117.655H362.948V119.755H364.579V120.707H362.948V125.208C362.948 125.465 362.974 125.654 363.025 125.775C363.081 125.892 363.172 125.966 363.298 125.999C363.424 126.032 363.601 126.048 363.83 126.048H364.621V126.916C364.532 126.949 364.397 126.977 364.215 127C364.038 127.023 363.816 127.035 363.55 127.035ZM368.397 127.14C367.926 127.14 367.511 127.058 367.151 126.895C366.797 126.727 366.517 126.487 366.311 126.174C366.111 125.861 366.01 125.483 366.01 125.04C366.01 124.237 366.29 123.64 366.85 123.248C367.41 122.856 368.309 122.646 369.545 122.618L370.833 122.583V122.016C370.833 121.573 370.7 121.223 370.434 120.966C370.168 120.705 369.758 120.574 369.202 120.574C368.787 120.579 368.421 120.677 368.103 120.868C367.786 121.059 367.583 121.372 367.494 121.806H366.353C366.381 121.335 366.512 120.938 366.745 120.616C366.983 120.289 367.317 120.042 367.746 119.874C368.176 119.706 368.682 119.622 369.265 119.622C369.895 119.622 370.418 119.711 370.833 119.888C371.253 120.065 371.566 120.327 371.771 120.672C371.981 121.017 372.086 121.442 372.086 121.946V127H370.98L370.882 125.642C370.607 126.207 370.252 126.599 369.818 126.818C369.389 127.033 368.915 127.14 368.397 127.14ZM368.782 126.209C369.03 126.209 369.272 126.165 369.51 126.076C369.753 125.987 369.972 125.868 370.168 125.719C370.369 125.565 370.53 125.395 370.651 125.208C370.773 125.017 370.833 124.821 370.833 124.62V123.381L369.762 123.402C369.207 123.411 368.745 123.467 368.376 123.57C368.008 123.673 367.73 123.834 367.543 124.053C367.357 124.272 367.263 124.559 367.263 124.914C367.263 125.32 367.406 125.637 367.69 125.866C367.975 126.095 368.339 126.209 368.782 126.209Z" fill="#1E293B"/>
    <path d="M403.5 124C403.5 117.649 408.649 112.5 415 112.5H435C441.351 112.5 446.5 117.649 446.5 124C446.5 130.351 441.351 135.5 435 135.5H415C408.649 135.5 403.5 130.351 403.5 124Z" fill="#3B5B63"/>
    <path d="M403.5 124C403.5 117.649 408.649 112.5 415 112.5H435C441.351 112.5 446.5 117.649 446.5 124C446.5 130.351 441.351 135.5 435 135.5H415C408.649 135.5 403.5 130.351 403.5 124Z" stroke="#374E53"/>
    <g filter="url(#filter1_dd_4715_1555)">
    <path d="M425 124C425 118.477 429.477 114 435 114C440.523 114 445 118.477 445 124C445 129.523 440.523 134 435 134C429.477 134 425 129.523 425 124Z" fill="white" shape-rendering="crispEdges"/>
    <path fill-rule="evenodd" clip-rule="evenodd" d="M438.997 120.718C439.153 120.854 439.169 121.091 439.032 121.247L433.782 127.247C433.714 127.325 433.616 127.371 433.512 127.375C433.409 127.378 433.308 127.339 433.235 127.265L430.985 125.015C430.838 124.869 430.838 124.631 430.985 124.485C431.131 124.338 431.369 124.338 431.515 124.485L433.482 126.451L438.468 120.753C438.604 120.597 438.841 120.581 438.997 120.718Z" fill="#374E53"/>
    </g>
    </g>
    <g opacity="0.6">
    <path d="M147.337 175V164.878H153.721L153.714 166.019H148.639V169.323H153.21V170.457H148.632V173.831L153.854 173.845V175H147.337ZM155.645 175V167.762H156.898V168.812C157.015 168.611 157.176 168.422 157.381 168.245C157.591 168.068 157.843 167.925 158.137 167.818C158.436 167.711 158.779 167.657 159.166 167.657C159.623 167.657 160.043 167.748 160.426 167.93C160.813 168.112 161.121 168.397 161.35 168.784C161.583 169.167 161.7 169.661 161.7 170.268V175H160.405V170.394C160.405 169.829 160.256 169.412 159.957 169.141C159.663 168.866 159.28 168.728 158.809 168.728C158.482 168.728 158.177 168.782 157.892 168.889C157.607 168.992 157.376 169.15 157.199 169.365C157.022 169.575 156.933 169.841 156.933 170.163V175H155.645ZM165.798 175.14C165.326 175.14 164.911 175.058 164.552 174.895C164.197 174.727 163.917 174.487 163.712 174.174C163.511 173.861 163.411 173.483 163.411 173.04C163.411 172.237 163.691 171.64 164.251 171.248C164.811 170.856 165.709 170.646 166.946 170.618L168.234 170.583V170.016C168.234 169.573 168.101 169.223 167.835 168.966C167.569 168.705 167.158 168.574 166.603 168.574C166.187 168.579 165.821 168.677 165.504 168.868C165.186 169.059 164.983 169.372 164.895 169.806H163.754C163.782 169.335 163.912 168.938 164.146 168.616C164.384 168.289 164.717 168.042 165.147 167.874C165.576 167.706 166.082 167.622 166.666 167.622C167.296 167.622 167.818 167.711 168.234 167.888C168.654 168.065 168.966 168.327 169.172 168.672C169.382 169.017 169.487 169.442 169.487 169.946V175H168.381L168.283 173.642C168.007 174.207 167.653 174.599 167.219 174.818C166.789 175.033 166.316 175.14 165.798 175.14ZM166.183 174.209C166.43 174.209 166.673 174.165 166.911 174.076C167.153 173.987 167.373 173.868 167.569 173.719C167.769 173.565 167.93 173.395 168.052 173.208C168.173 173.017 168.234 172.821 168.234 172.62V171.381L167.163 171.402C166.607 171.411 166.145 171.467 165.777 171.57C165.408 171.673 165.13 171.834 164.944 172.053C164.757 172.272 164.664 172.559 164.664 172.914C164.664 173.32 164.806 173.637 165.091 173.866C165.375 174.095 165.739 174.209 166.183 174.209ZM175.153 175.14C174.728 175.14 174.369 175.084 174.075 174.972C173.786 174.86 173.548 174.718 173.361 174.545C173.174 174.368 173.03 174.188 172.927 174.006C172.824 173.819 172.75 173.656 172.703 173.516L172.563 175H171.576V164.598H172.878V168.91C172.939 168.789 173.03 168.656 173.151 168.511C173.277 168.366 173.438 168.226 173.634 168.091C173.83 167.956 174.061 167.844 174.327 167.755C174.598 167.666 174.906 167.622 175.251 167.622C176.156 167.622 176.875 167.937 177.407 168.567C177.944 169.197 178.212 170.126 178.212 171.353C178.212 172.114 178.098 172.779 177.869 173.348C177.64 173.913 177.3 174.354 176.847 174.671C176.394 174.984 175.83 175.14 175.153 175.14ZM174.922 174.146C175.51 174.146 175.988 173.92 176.357 173.467C176.726 173.01 176.91 172.284 176.91 171.29C176.91 170.445 176.737 169.792 176.392 169.33C176.051 168.863 175.552 168.63 174.894 168.63C174.413 168.63 174.026 168.735 173.732 168.945C173.443 169.15 173.228 169.451 173.088 169.848C172.953 170.245 172.883 170.725 172.878 171.29C172.878 172.303 173.034 173.033 173.347 173.481C173.664 173.924 174.189 174.146 174.922 174.146ZM181.826 175.091C181.434 175.091 181.117 175.037 180.874 174.93C180.636 174.823 180.452 174.678 180.321 174.496C180.195 174.314 180.109 174.106 180.062 173.873C180.02 173.635 179.999 173.39 179.999 173.138V164.598H181.273V173.012C181.273 173.376 181.343 173.649 181.483 173.831C181.628 174.013 181.829 174.113 182.085 174.132L182.477 174.139V174.979C182.37 175.012 182.258 175.037 182.141 175.056C182.025 175.079 181.92 175.091 181.826 175.091ZM187.025 175.14C186.353 175.14 185.76 174.993 185.247 174.699C184.734 174.405 184.332 173.983 184.043 173.432C183.754 172.881 183.609 172.221 183.609 171.451C183.609 170.69 183.74 170.023 184.001 169.449C184.262 168.875 184.64 168.427 185.135 168.105C185.634 167.783 186.234 167.622 186.934 167.622C187.615 167.622 188.192 167.769 188.663 168.063C189.134 168.357 189.491 168.772 189.734 169.309C189.981 169.841 190.105 170.473 190.105 171.206V171.682H184.918C184.918 172.139 184.993 172.555 185.142 172.928C185.296 173.297 185.527 173.591 185.835 173.81C186.143 174.029 186.533 174.139 187.004 174.139C187.466 174.139 187.863 174.032 188.194 173.817C188.53 173.602 188.745 173.292 188.838 172.886H190.056C189.972 173.376 189.776 173.789 189.468 174.125C189.165 174.461 188.798 174.715 188.369 174.888C187.944 175.056 187.496 175.14 187.025 175.14ZM184.925 170.807H188.859C188.859 170.392 188.789 170.018 188.649 169.687C188.509 169.351 188.294 169.087 188.005 168.896C187.72 168.7 187.361 168.602 186.927 168.602C186.474 168.602 186.099 168.712 185.8 168.931C185.501 169.146 185.28 169.423 185.135 169.764C184.99 170.1 184.92 170.448 184.925 170.807ZM194.605 175.14C193.662 175.14 192.915 174.818 192.365 174.174C191.819 173.53 191.546 172.59 191.546 171.353C191.546 170.602 191.655 169.946 191.875 169.386C192.094 168.826 192.423 168.392 192.862 168.084C193.3 167.776 193.846 167.622 194.5 167.622C194.85 167.622 195.158 167.666 195.424 167.755C195.69 167.844 195.921 167.956 196.117 168.091C196.313 168.226 196.471 168.366 196.593 168.511C196.719 168.656 196.812 168.789 196.873 168.91V164.598H198.182V175H197.188L197.048 173.516C197.001 173.656 196.926 173.819 196.824 174.006C196.721 174.188 196.576 174.368 196.39 174.545C196.208 174.718 195.97 174.86 195.676 174.972C195.382 175.084 195.025 175.14 194.605 175.14ZM194.836 174.146C195.564 174.146 196.084 173.924 196.397 173.481C196.714 173.033 196.873 172.303 196.873 171.29C196.868 170.725 196.798 170.245 196.663 169.848C196.527 169.451 196.313 169.15 196.019 168.945C195.729 168.735 195.342 168.63 194.857 168.63C194.264 168.63 193.781 168.842 193.408 169.267C193.034 169.692 192.848 170.366 192.848 171.29C192.848 172.195 193.016 172.898 193.352 173.397C193.688 173.896 194.182 174.146 194.836 174.146ZM206.584 175.14C205.916 175.14 205.333 174.998 204.834 174.713C204.339 174.424 203.954 174.001 203.679 173.446C203.403 172.891 203.266 172.212 203.266 171.409C203.266 170.653 203.394 169.99 203.651 169.421C203.907 168.852 204.283 168.411 204.778 168.098C205.272 167.781 205.877 167.622 206.591 167.622C207.258 167.622 207.837 167.769 208.327 168.063C208.817 168.352 209.197 168.779 209.468 169.344C209.743 169.909 209.881 170.597 209.881 171.409C209.881 172.146 209.755 172.795 209.503 173.355C209.251 173.915 208.88 174.354 208.39 174.671C207.904 174.984 207.302 175.14 206.584 175.14ZM206.591 174.118C207.02 174.118 207.384 174.008 207.683 173.789C207.981 173.57 208.208 173.255 208.362 172.844C208.52 172.433 208.6 171.946 208.6 171.381C208.6 170.863 208.53 170.399 208.39 169.988C208.254 169.573 208.04 169.244 207.746 169.001C207.452 168.758 207.067 168.637 206.591 168.637C206.152 168.637 205.781 168.747 205.478 168.966C205.174 169.181 204.943 169.493 204.785 169.904C204.631 170.315 204.554 170.807 204.554 171.381C204.554 171.89 204.621 172.352 204.757 172.767C204.897 173.182 205.116 173.511 205.415 173.754C205.718 173.997 206.11 174.118 206.591 174.118ZM211.672 175V167.762H212.925V168.812C213.041 168.611 213.202 168.422 213.408 168.245C213.618 168.068 213.87 167.925 214.164 167.818C214.462 167.711 214.805 167.657 215.193 167.657C215.65 167.657 216.07 167.748 216.453 167.93C216.84 168.112 217.148 168.397 217.377 168.784C217.61 169.167 217.727 169.661 217.727 170.268V175H216.432V170.394C216.432 169.829 216.282 169.412 215.984 169.141C215.69 168.866 215.307 168.728 214.836 168.728C214.509 168.728 214.203 168.782 213.919 168.889C213.634 168.992 213.403 169.15 213.226 169.365C213.048 169.575 212.96 169.841 212.96 170.163V175H211.672ZM225.949 175.035C225.45 175.035 225.062 174.967 224.787 174.832C224.512 174.697 224.318 174.496 224.206 174.23C224.099 173.964 224.045 173.637 224.045 173.25V168.707H222.869V167.762H224.08L224.395 165.655H225.347V167.755H226.978V168.707H225.347V173.208C225.347 173.465 225.373 173.654 225.424 173.775C225.48 173.892 225.571 173.966 225.697 173.999C225.823 174.032 226 174.048 226.229 174.048H227.02V174.916C226.931 174.949 226.796 174.977 226.614 175C226.437 175.023 226.215 175.035 225.949 175.035ZM228.807 175V164.598H230.067V168.826C230.189 168.625 230.352 168.439 230.557 168.266C230.763 168.089 231.012 167.946 231.306 167.839C231.6 167.727 231.941 167.671 232.328 167.671C232.8 167.671 233.227 167.76 233.609 167.937C233.992 168.11 234.295 168.357 234.519 168.679C234.743 169.001 234.855 169.384 234.855 169.827V175H233.56V170.086C233.56 169.652 233.411 169.318 233.112 169.085C232.818 168.847 232.433 168.728 231.957 168.728C231.635 168.728 231.332 168.782 231.047 168.889C230.763 168.992 230.532 169.15 230.354 169.365C230.182 169.575 230.095 169.843 230.095 170.17V175H228.807ZM236.979 175V167.762H238.232V175H236.979ZM236.944 166.229V164.885H238.267V166.229H236.944ZM243.077 175.14C242.573 175.14 242.104 175.063 241.67 174.909C241.241 174.75 240.884 174.505 240.599 174.174C240.314 173.838 240.137 173.411 240.067 172.893H241.243C241.304 173.178 241.42 173.416 241.593 173.607C241.766 173.794 241.978 173.936 242.23 174.034C242.487 174.127 242.767 174.174 243.07 174.174C243.56 174.174 243.954 174.083 244.253 173.901C244.552 173.719 244.701 173.439 244.701 173.061C244.701 172.795 244.622 172.583 244.463 172.424C244.309 172.261 244.066 172.142 243.735 172.067L242.237 171.696C241.654 171.556 241.187 171.337 240.837 171.038C240.492 170.739 240.317 170.322 240.312 169.785C240.312 169.36 240.415 168.987 240.62 168.665C240.825 168.343 241.131 168.089 241.537 167.902C241.948 167.715 242.459 167.622 243.07 167.622C243.859 167.622 244.493 167.799 244.974 168.154C245.455 168.504 245.707 169.02 245.73 169.701H244.582C244.535 169.356 244.381 169.083 244.12 168.882C243.859 168.677 243.504 168.574 243.056 168.574C242.599 168.574 242.223 168.667 241.929 168.854C241.64 169.036 241.495 169.321 241.495 169.708C241.495 169.965 241.598 170.168 241.803 170.317C242.013 170.462 242.316 170.583 242.713 170.681L244.169 171.045C244.5 171.134 244.776 171.25 244.995 171.395C245.214 171.54 245.387 171.701 245.513 171.878C245.639 172.055 245.728 172.242 245.779 172.438C245.835 172.629 245.863 172.814 245.863 172.991C245.863 173.434 245.753 173.817 245.534 174.139C245.315 174.456 244.997 174.704 244.582 174.881C244.167 175.054 243.665 175.14 243.077 175.14ZM252.495 175L250.255 167.762H251.459L253.111 173.327H253.223L254.854 167.762H255.834L257.528 173.313H257.647L259.229 167.762H260.447L258.249 175H256.975L255.33 169.659L253.755 175H252.495ZM264.879 175.14C264.207 175.14 263.614 174.993 263.101 174.699C262.587 174.405 262.186 173.983 261.897 173.432C261.607 172.881 261.463 172.221 261.463 171.451C261.463 170.69 261.593 170.023 261.855 169.449C262.116 168.875 262.494 168.427 262.989 168.105C263.488 167.783 264.088 167.622 264.788 167.622C265.469 167.622 266.045 167.769 266.517 168.063C266.988 168.357 267.345 168.772 267.588 169.309C267.835 169.841 267.959 170.473 267.959 171.206V171.682H262.772C262.772 172.139 262.846 172.555 262.996 172.928C263.15 173.297 263.381 173.591 263.689 173.81C263.997 174.029 264.386 174.139 264.858 174.139C265.32 174.139 265.716 174.032 266.048 173.817C266.384 173.602 266.598 173.292 266.692 172.886H267.91C267.826 173.376 267.63 173.789 267.322 174.125C267.018 174.461 266.652 174.715 266.223 174.888C265.798 175.056 265.35 175.14 264.879 175.14ZM262.779 170.807H266.713C266.713 170.392 266.643 170.018 266.503 169.687C266.363 169.351 266.148 169.087 265.859 168.896C265.574 168.7 265.215 168.602 264.781 168.602C264.328 168.602 263.952 168.712 263.654 168.931C263.355 169.146 263.133 169.423 262.989 169.764C262.844 170.1 262.774 170.448 262.779 170.807ZM273.396 175.14C272.972 175.14 272.612 175.084 272.318 174.972C272.029 174.86 271.791 174.718 271.604 174.545C271.418 174.368 271.273 174.188 271.17 174.006C271.068 173.819 270.993 173.656 270.946 173.516L270.806 175H269.819V164.598H271.121V168.91C271.182 168.789 271.273 168.656 271.394 168.511C271.52 168.366 271.681 168.226 271.877 168.091C272.073 167.956 272.304 167.844 272.57 167.755C272.841 167.666 273.149 167.622 273.494 167.622C274.4 167.622 275.118 167.937 275.65 168.567C276.187 169.197 276.455 170.126 276.455 171.353C276.455 172.114 276.341 172.779 276.112 173.348C275.884 173.913 275.543 174.354 275.09 174.671C274.638 174.984 274.073 175.14 273.396 175.14ZM273.165 174.146C273.753 174.146 274.232 173.92 274.6 173.467C274.969 173.01 275.153 172.284 275.153 171.29C275.153 170.445 274.981 169.792 274.635 169.33C274.295 168.863 273.795 168.63 273.137 168.63C272.657 168.63 272.269 168.735 271.975 168.945C271.686 169.15 271.471 169.451 271.331 169.848C271.196 170.245 271.126 170.725 271.121 171.29C271.121 172.303 271.278 173.033 271.59 173.481C271.908 173.924 272.433 174.146 273.165 174.146ZM280.806 175.14C280.302 175.14 279.833 175.063 279.399 174.909C278.969 174.75 278.612 174.505 278.328 174.174C278.043 173.838 277.866 173.411 277.796 172.893H278.972C279.032 173.178 279.149 173.416 279.322 173.607C279.494 173.794 279.707 173.936 279.959 174.034C280.215 174.127 280.495 174.174 280.799 174.174C281.289 174.174 281.683 174.083 281.982 173.901C282.28 173.719 282.43 173.439 282.43 173.061C282.43 172.795 282.35 172.583 282.192 172.424C282.038 172.261 281.795 172.142 281.464 172.067L279.966 171.696C279.382 171.556 278.916 171.337 278.566 171.038C278.22 170.739 278.045 170.322 278.041 169.785C278.041 169.36 278.143 168.987 278.349 168.665C278.554 168.343 278.86 168.089 279.266 167.902C279.676 167.715 280.187 167.622 280.799 167.622C281.587 167.622 282.222 167.799 282.703 168.154C283.183 168.504 283.435 169.02 283.459 169.701H282.311C282.264 169.356 282.11 169.083 281.849 168.882C281.587 168.677 281.233 168.574 280.785 168.574C280.327 168.574 279.952 168.667 279.658 168.854C279.368 169.036 279.224 169.321 279.224 169.708C279.224 169.965 279.326 170.168 279.532 170.317C279.742 170.462 280.045 170.583 280.442 170.681L281.898 171.045C282.229 171.134 282.504 171.25 282.724 171.395C282.943 171.54 283.116 171.701 283.242 171.878C283.368 172.055 283.456 172.242 283.508 172.438C283.564 172.629 283.592 172.814 283.592 172.991C283.592 173.434 283.482 173.817 283.263 174.139C283.043 174.456 282.726 174.704 282.311 174.881C281.895 175.054 281.394 175.14 280.806 175.14ZM285.389 175V167.762H286.642V175H285.389ZM285.354 166.229V164.885H286.677V166.229H285.354ZM291.536 175.035C291.036 175.035 290.649 174.967 290.374 174.832C290.098 174.697 289.905 174.496 289.793 174.23C289.685 173.964 289.632 173.637 289.632 173.25V168.707H288.456V167.762H289.667L289.982 165.655H290.934V167.755H292.565V168.707H290.934V173.208C290.934 173.465 290.959 173.654 291.011 173.775C291.067 173.892 291.158 173.966 291.284 173.999C291.41 174.032 291.587 174.048 291.816 174.048H292.607V174.916C292.518 174.949 292.383 174.977 292.201 175C292.023 175.023 291.802 175.035 291.536 175.035ZM297.262 175.14C296.59 175.14 295.997 174.993 295.484 174.699C294.97 174.405 294.569 173.983 294.28 173.432C293.99 172.881 293.846 172.221 293.846 171.451C293.846 170.69 293.976 170.023 294.238 169.449C294.499 168.875 294.877 168.427 295.372 168.105C295.871 167.783 296.471 167.622 297.171 167.622C297.852 167.622 298.428 167.769 298.9 168.063C299.371 168.357 299.728 168.772 299.971 169.309C300.218 169.841 300.342 170.473 300.342 171.206V171.682H295.155C295.155 172.139 295.229 172.555 295.379 172.928C295.533 173.297 295.764 173.591 296.072 173.81C296.38 174.029 296.769 174.139 297.241 174.139C297.703 174.139 298.099 174.032 298.431 173.817C298.767 173.602 298.981 173.292 299.075 172.886H300.293C300.209 173.376 300.013 173.789 299.705 174.125C299.401 174.461 299.035 174.715 298.606 174.888C298.181 175.056 297.733 175.14 297.262 175.14ZM295.162 170.807H299.096C299.096 170.392 299.026 170.018 298.886 169.687C298.746 169.351 298.531 169.087 298.242 168.896C297.957 168.7 297.598 168.602 297.164 168.602C296.711 168.602 296.335 168.712 296.037 168.931C295.738 169.146 295.516 169.423 295.372 169.764C295.227 170.1 295.157 170.448 295.162 170.807Z" fill="#1E293B"/>
    <path d="M403.5 172C403.5 165.649 408.649 160.5 415 160.5H435C441.351 160.5 446.5 165.649 446.5 172C446.5 178.351 441.351 183.5 435 183.5H415C408.649 183.5 403.5 178.351 403.5 172Z" fill="#3B5B63"/>
    <path d="M403.5 172C403.5 165.649 408.649 160.5 415 160.5H435C441.351 160.5 446.5 165.649 446.5 172C446.5 178.351 441.351 183.5 435 183.5H415C408.649 183.5 403.5 178.351 403.5 172Z" stroke="#374E53"/>
    <g filter="url(#filter2_dd_4715_1555)">
    <path d="M425 172C425 166.477 429.477 162 435 162C440.523 162 445 166.477 445 172C445 177.523 440.523 182 435 182C429.477 182 425 177.523 425 172Z" fill="white" shape-rendering="crispEdges"/>
    <path fill-rule="evenodd" clip-rule="evenodd" d="M438.997 168.718C439.153 168.854 439.169 169.091 439.032 169.247L433.782 175.247C433.714 175.325 433.616 175.371 433.512 175.375C433.409 175.378 433.308 175.339 433.235 175.265L430.985 173.015C430.838 172.869 430.838 172.631 430.985 172.485C431.131 172.338 431.369 172.338 431.515 172.485L433.482 174.451L438.468 168.753C438.604 168.597 438.841 168.581 438.997 168.718Z" fill="#374E53"/>
    </g>
    </g>
    </g>
    <path d="M142 99.5C135.096 99.5 129.5 105.096 129.5 112V184C129.5 190.904 135.096 196.5 142 196.5H451C457.904 196.5 463.5 190.904 463.5 184V112C463.5 105.096 457.904 99.5 451 99.5H142Z" stroke="url(#paint5_linear_4715_1555)"/>
    <rect y="338" width="495" height="82" fill="url(#paint6_linear_4715_1555)"/>
    </g>
    </g>
    <defs>
    <filter id="filter0_f_4715_1555" x="109" y="65" width="389" height="167" filterUnits="userSpaceOnUse" color-interpolation-filters="sRGB">
    <feFlood flood-opacity="0" result="BackgroundImageFix"/>
    <feBlend mode="normal" in="SourceGraphic" in2="BackgroundImageFix" result="shape"/>
    <feGaussianBlur stdDeviation="15" result="effect1_foregroundBlur_4715_1555"/>
    </filter>
    <filter id="filter1_dd_4715_1555" x="423" y="113" width="24" height="24" filterUnits="userSpaceOnUse" color-interpolation-filters="sRGB">
    <feFlood flood-opacity="0" result="BackgroundImageFix"/>
    <feColorMatrix in="SourceAlpha" type="matrix" values="0 0 0 0 0 0 0 0 0 0 0 0 0 0 0 0 0 0 127 0" result="hardAlpha"/>
    <feOffset dy="1"/>
    <feGaussianBlur stdDeviation="0.5"/>
    <feComposite in2="hardAlpha" operator="out"/>
    <feColorMatrix type="matrix" values="0 0 0 0 0 0 0 0 0 0 0 0 0 0 0 0 0 0 0.06 0"/>
    <feBlend mode="normal" in2="BackgroundImageFix" result="effect1_dropShadow_4715_1555"/>
    <feColorMatrix in="SourceAlpha" type="matrix" values="0 0 0 0 0 0 0 0 0 0 0 0 0 0 0 0 0 0 127 0" result="hardAlpha"/>
    <feOffset dy="1"/>
    <feGaussianBlur stdDeviation="1"/>
    <feComposite in2="hardAlpha" operator="out"/>
    <feColorMatrix type="matrix" values="0 0 0 0 0 0 0 0 0 0 0 0 0 0 0 0 0 0 0.1 0"/>
    <feBlend mode="normal" in2="effect1_dropShadow_4715_1555" result="effect2_dropShadow_4715_1555"/>
    <feBlend mode="normal" in="SourceGraphic" in2="effect2_dropShadow_4715_1555" result="shape"/>
    </filter>
    <filter id="filter2_dd_4715_1555" x="423" y="161" width="24" height="24" filterUnits="userSpaceOnUse" color-interpolation-filters="sRGB">
    <feFlood flood-opacity="0" result="BackgroundImageFix"/>
    <feColorMatrix in="SourceAlpha" type="matrix" values="0 0 0 0 0 0 0 0 0 0 0 0 0 0 0 0 0 0 127 0" result="hardAlpha"/>
    <feOffset dy="1"/>
    <feGaussianBlur stdDeviation="0.5"/>
    <feComposite in2="hardAlpha" operator="out"/>
    <feColorMatrix type="matrix" values="0 0 0 0 0 0 0 0 0 0 0 0 0 0 0 0 0 0 0.06 0"/>
    <feBlend mode="normal" in2="BackgroundImageFix" result="effect1_dropShadow_4715_1555"/>
    <feColorMatrix in="SourceAlpha" type="matrix" values="0 0 0 0 0 0 0 0 0 0 0 0 0 0 0 0 0 0 127 0" result="hardAlpha"/>
    <feOffset dy="1"/>
    <feGaussianBlur stdDeviation="1"/>
    <feComposite in2="hardAlpha" operator="out"/>
    <feColorMatrix type="matrix" values="0 0 0 0 0 0 0 0 0 0 0 0 0 0 0 0 0 0 0.1 0"/>
    <feBlend mode="normal" in2="effect1_dropShadow_4715_1555" result="effect2_dropShadow_4715_1555"/>
    <feBlend mode="normal" in="SourceGraphic" in2="effect2_dropShadow_4715_1555" result="shape"/>
    </filter>
    <linearGradient id="paint0_linear_4715_1555" x1="144.321" y1="100" x2="462.969" y2="196.034" gradientUnits="userSpaceOnUse">
    <stop stop-color="#F4B62B"/>
    <stop offset="0.5" stop-color="#BC52AD"/>
    <stop offset="1" stop-color="#668E4F"/>
    </linearGradient>
    <linearGradient id="paint1_linear_4715_1555" x1="29" y1="126.5" x2="129" y2="126.5" gradientUnits="userSpaceOnUse">
    <stop stop-color="white" stop-opacity="0"/>
    <stop offset="1" stop-color="#020617" stop-opacity="0.15"/>
    </linearGradient>
    <linearGradient id="paint2_linear_4715_1555" x1="9" y1="141.5" x2="129" y2="141.5" gradientUnits="userSpaceOnUse">
    <stop stop-color="white" stop-opacity="0"/>
    <stop offset="1" stop-color="#020617" stop-opacity="0.25"/>
    </linearGradient>
    <linearGradient id="paint3_linear_4715_1555" x1="-14" y1="156.5" x2="129" y2="156.5" gradientUnits="userSpaceOnUse">
    <stop stop-color="white" stop-opacity="0"/>
    <stop offset="1" stop-color="#020617" stop-opacity="0.35"/>
    </linearGradient>
    <linearGradient id="paint4_linear_4715_1555" x1="49" y1="171.5" x2="129" y2="171.5" gradientUnits="userSpaceOnUse">
    <stop stop-color="white" stop-opacity="0"/>
    <stop offset="1" stop-color="#020617" stop-opacity="0.15"/>
    </linearGradient>
    <linearGradient id="paint5_linear_4715_1555" x1="130.336" y1="100" x2="459.881" y2="204.757" gradientUnits="userSpaceOnUse">
    <stop stop-color="#F4B62B"/>
    <stop offset="0.5" stop-color="#BC52AD"/>
    <stop offset="1" stop-color="#668E4F"/>
    </linearGradient>
    <linearGradient id="paint6_linear_4715_1555" x1="247.5" y1="338" x2="247.5" y2="370.087" gradientUnits="userSpaceOnUse">
    <stop stop-color="white" stop-opacity="0.05"/>
    <stop offset="1" stop-color="white"/>
    </linearGradient>
    <clipPath id="clip0_4715_1555">
    <rect width="495" height="420" fill="white"/>
    </clipPath>
    <clipPath id="clip1_4715_1555">
    <rect width="495" height="420" fill="white"/>
    </clipPath>
    <clipPath id="clip2_4715_1555">
    <rect width="495" height="135" fill="white"/>
    </clipPath>
    <clipPath id="clip3_4715_1555">
    <rect width="78" height="16" fill="white" transform="translate(136 59.5)"/>
    </clipPath>
    <clipPath id="clip4_4715_1555">
    <path d="M130 112C130 105.373 135.373 100 142 100H451C457.627 100 463 105.373 463 112V184C463 190.627 457.627 196 451 196H142C135.373 196 130 190.627 130 184V112Z" fill="white"/>
    </clipPath>
    </defs>
</svg>
    