<svg
  width="495"
  height="260"
  viewBox="0 0 495 260"
  fill="none"
  xmlns="http://www.w3.org/2000/svg"
>
  <g clip-path="url(#clip0_4715_1473)">
    <g clip-path="url(#clip1_4715_1473)">
      <rect x="66" y="42" width="397" height="892" rx="32" fill="white"></rect>
      <g clip-path="url(#clip2_4715_1473)">
        <rect x="82" y="58" width="365" height="117" rx="3" fill="white"></rect>
        <path
          d="M95.6094 71.3516L92.3672 81H90.0938L94.3438 69.625H95.7969L95.6094 71.3516ZM98.3203 81L95.0625 71.3516L94.8672 69.625H96.3281L100.602 81H98.3203ZM98.1719 76.7734V78.4688H92.0703V76.7734H98.1719ZM106.837 79.2031V69H108.916V81H107.041L106.837 79.2031ZM101.408 76.875V76.7109C101.408 76.0651 101.481 75.4792 101.627 74.9531C101.778 74.4219 101.996 73.9661 102.283 73.5859C102.569 73.2057 102.916 72.9115 103.322 72.7031C103.733 72.4948 104.199 72.3906 104.72 72.3906C105.226 72.3906 105.666 72.4922 106.041 72.6953C106.421 72.8984 106.744 73.1875 107.009 73.5625C107.28 73.9375 107.496 74.3828 107.658 74.8984C107.819 75.4089 107.936 75.9714 108.009 76.5859V77.0312C107.936 77.6302 107.819 78.1797 107.658 78.6797C107.496 79.1797 107.28 79.6172 107.009 79.9922C106.744 80.362 106.421 80.6484 106.041 80.8516C105.66 81.0547 105.215 81.1562 104.705 81.1562C104.189 81.1562 103.726 81.0495 103.314 80.8359C102.908 80.6224 102.561 80.3229 102.275 79.9375C101.994 79.5521 101.778 79.099 101.627 78.5781C101.481 78.0573 101.408 77.4896 101.408 76.875ZM103.478 76.7109V76.875C103.478 77.2396 103.509 77.5807 103.572 77.8984C103.634 78.2161 103.736 78.4974 103.877 78.7422C104.017 78.9818 104.197 79.1693 104.416 79.3047C104.64 79.4401 104.91 79.5078 105.228 79.5078C105.634 79.5078 105.968 79.4193 106.228 79.2422C106.494 79.0599 106.699 78.8125 106.845 78.5C106.991 78.1823 107.085 77.8255 107.127 77.4297V76.2031C107.106 75.8906 107.051 75.6016 106.962 75.3359C106.879 75.0703 106.759 74.8411 106.603 74.6484C106.452 74.4557 106.265 74.3047 106.041 74.1953C105.817 74.0859 105.551 74.0312 105.244 74.0312C104.926 74.0312 104.655 74.1016 104.431 74.2422C104.207 74.3776 104.025 74.5677 103.884 74.8125C103.744 75.0573 103.64 75.3411 103.572 75.6641C103.509 75.987 103.478 76.3359 103.478 76.7109ZM116.003 79.2031V69H118.081V81H116.206L116.003 79.2031ZM110.573 76.875V76.7109C110.573 76.0651 110.646 75.4792 110.792 74.9531C110.943 74.4219 111.162 73.9661 111.448 73.5859C111.735 73.2057 112.081 72.9115 112.487 72.7031C112.899 72.4948 113.365 72.3906 113.886 72.3906C114.391 72.3906 114.831 72.4922 115.206 72.6953C115.586 72.8984 115.909 73.1875 116.175 73.5625C116.446 73.9375 116.662 74.3828 116.823 74.8984C116.985 75.4089 117.102 75.9714 117.175 76.5859V77.0312C117.102 77.6302 116.985 78.1797 116.823 78.6797C116.662 79.1797 116.446 79.6172 116.175 79.9922C115.909 80.362 115.586 80.6484 115.206 80.8516C114.826 81.0547 114.381 81.1562 113.87 81.1562C113.355 81.1562 112.891 81.0495 112.48 80.8359C112.073 80.6224 111.727 80.3229 111.441 79.9375C111.159 79.5521 110.943 79.099 110.792 78.5781C110.646 78.0573 110.573 77.4896 110.573 76.875ZM112.644 76.7109V76.875C112.644 77.2396 112.675 77.5807 112.737 77.8984C112.8 78.2161 112.902 78.4974 113.042 78.7422C113.183 78.9818 113.362 79.1693 113.581 79.3047C113.805 79.4401 114.076 79.5078 114.394 79.5078C114.8 79.5078 115.133 79.4193 115.394 79.2422C115.659 79.0599 115.865 78.8125 116.011 78.5C116.157 78.1823 116.251 77.8255 116.292 77.4297V76.2031C116.271 75.8906 116.217 75.6016 116.128 75.3359C116.045 75.0703 115.925 74.8411 115.769 74.6484C115.618 74.4557 115.43 74.3047 115.206 74.1953C114.982 74.0859 114.717 74.0312 114.409 74.0312C114.092 74.0312 113.821 74.1016 113.597 74.2422C113.373 74.3776 113.191 74.5677 113.05 74.8125C112.909 75.0573 112.805 75.3411 112.737 75.6641C112.675 75.987 112.644 76.3359 112.644 76.7109ZM127.702 79.5312C127.993 79.5312 128.254 79.474 128.483 79.3594C128.712 79.2448 128.894 79.0833 129.03 78.875C129.17 78.6667 129.246 78.4245 129.256 78.1484H131.202C131.191 78.7214 131.03 79.2344 130.717 79.6875C130.405 80.1406 129.988 80.5 129.467 80.7656C128.952 81.026 128.373 81.1562 127.733 81.1562C127.082 81.1562 126.514 81.0469 126.03 80.8281C125.545 80.6094 125.142 80.3047 124.819 79.9141C124.501 79.5234 124.261 79.0703 124.1 78.5547C123.944 78.0391 123.866 77.487 123.866 76.8984V76.6484C123.866 76.0599 123.944 75.5078 124.1 74.9922C124.261 74.4766 124.501 74.0234 124.819 73.6328C125.142 73.2422 125.545 72.9375 126.03 72.7188C126.514 72.5 127.079 72.3906 127.725 72.3906C128.407 72.3906 129.006 72.5234 129.522 72.7891C130.043 73.0547 130.449 73.4297 130.741 73.9141C131.037 74.3984 131.191 74.9688 131.202 75.625H129.256C129.246 75.3229 129.178 75.0521 129.053 74.8125C128.928 74.5729 128.751 74.3802 128.522 74.2344C128.293 74.0885 128.014 74.0156 127.686 74.0156C127.337 74.0156 127.045 74.0885 126.811 74.2344C126.582 74.3802 126.402 74.5807 126.272 74.8359C126.147 75.0859 126.058 75.3672 126.006 75.6797C125.959 75.987 125.936 76.3099 125.936 76.6484V76.8984C125.936 77.2422 125.959 77.5703 126.006 77.8828C126.058 78.1953 126.147 78.4766 126.272 78.7266C126.402 78.9714 126.582 79.1667 126.811 79.3125C127.045 79.4583 127.342 79.5312 127.702 79.5312ZM134.789 74.2734V81H132.727V72.5469H134.68L134.789 74.2734ZM137.359 72.4922L137.328 74.4141C137.214 74.3932 137.083 74.3776 136.938 74.3672C136.797 74.3568 136.664 74.3516 136.539 74.3516C136.221 74.3516 135.943 74.3958 135.703 74.4844C135.464 74.5677 135.263 74.6901 135.102 74.8516C134.945 75.013 134.826 75.2109 134.742 75.4453C134.659 75.6745 134.612 75.9349 134.602 76.2266L134.156 76.1719C134.156 75.6354 134.211 75.138 134.32 74.6797C134.43 74.2214 134.589 73.8203 134.797 73.4766C135.005 73.1328 135.266 72.8672 135.578 72.6797C135.896 72.487 136.26 72.3906 136.672 72.3906C136.786 72.3906 136.909 72.401 137.039 72.4219C137.174 72.4375 137.281 72.4609 137.359 72.4922ZM142.283 81.1562C141.642 81.1562 141.067 81.0521 140.556 80.8438C140.046 80.6354 139.611 80.3464 139.252 79.9766C138.897 79.6016 138.624 79.1667 138.431 78.6719C138.244 78.1719 138.15 77.6354 138.15 77.0625V76.75C138.15 76.099 138.244 75.5078 138.431 74.9766C138.619 74.4401 138.884 73.9792 139.228 73.5938C139.572 73.2083 139.983 72.9115 140.463 72.7031C140.942 72.4948 141.47 72.3906 142.048 72.3906C142.647 72.3906 143.176 72.4922 143.634 72.6953C144.093 72.8932 144.476 73.1745 144.783 73.5391C145.09 73.9036 145.322 74.3411 145.478 74.8516C145.634 75.3568 145.713 75.9167 145.713 76.5312V77.3984H139.088V75.9766H143.681V75.8203C143.671 75.4922 143.608 75.1927 143.494 74.9219C143.379 74.6458 143.202 74.4271 142.963 74.2656C142.723 74.099 142.413 74.0156 142.033 74.0156C141.726 74.0156 141.457 74.0833 141.228 74.2188C141.004 74.349 140.817 74.5365 140.666 74.7812C140.52 75.0208 140.41 75.3073 140.338 75.6406C140.265 75.974 140.228 76.3438 140.228 76.75V77.0625C140.228 77.4167 140.275 77.7448 140.369 78.0469C140.468 78.349 140.611 78.612 140.798 78.8359C140.991 79.0547 141.22 79.2266 141.486 79.3516C141.757 79.4714 142.064 79.5312 142.408 79.5312C142.84 79.5312 143.231 79.4479 143.58 79.2812C143.934 79.1094 144.241 78.8568 144.502 78.5234L145.541 79.6016C145.364 79.862 145.124 80.112 144.822 80.3516C144.525 80.5911 144.166 80.7865 143.744 80.9375C143.322 81.0833 142.835 81.1562 142.283 81.1562ZM152.316 79.2031V69H154.394V81H152.519L152.316 79.2031ZM146.886 76.875V76.7109C146.886 76.0651 146.959 75.4792 147.105 74.9531C147.256 74.4219 147.474 73.9661 147.761 73.5859C148.047 73.2057 148.394 72.9115 148.8 72.7031C149.211 72.4948 149.678 72.3906 150.198 72.3906C150.704 72.3906 151.144 72.4922 151.519 72.6953C151.899 72.8984 152.222 73.1875 152.487 73.5625C152.758 73.9375 152.974 74.3828 153.136 74.8984C153.297 75.4089 153.415 75.9714 153.487 76.5859V77.0312C153.415 77.6302 153.297 78.1797 153.136 78.6797C152.974 79.1797 152.758 79.6172 152.487 79.9922C152.222 80.362 151.899 80.6484 151.519 80.8516C151.139 81.0547 150.693 81.1562 150.183 81.1562C149.667 81.1562 149.204 81.0495 148.792 80.8359C148.386 80.6224 148.04 80.3229 147.753 79.9375C147.472 79.5521 147.256 79.099 147.105 78.5781C146.959 78.0573 146.886 77.4896 146.886 76.875ZM148.956 76.7109V76.875C148.956 77.2396 148.987 77.5807 149.05 77.8984C149.112 78.2161 149.214 78.4974 149.355 78.7422C149.495 78.9818 149.675 79.1693 149.894 79.3047C150.118 79.4401 150.389 79.5078 150.706 79.5078C151.112 79.5078 151.446 79.4193 151.706 79.2422C151.972 79.0599 152.178 78.8125 152.323 78.5C152.469 78.1823 152.563 77.8255 152.605 77.4297V76.2031C152.584 75.8906 152.529 75.6016 152.441 75.3359C152.357 75.0703 152.237 74.8411 152.081 74.6484C151.93 74.4557 151.743 74.3047 151.519 74.1953C151.295 74.0859 151.029 74.0312 150.722 74.0312C150.404 74.0312 150.133 74.1016 149.909 74.2422C149.685 74.3776 149.503 74.5677 149.362 74.8125C149.222 75.0573 149.118 75.3411 149.05 75.6641C148.987 75.987 148.956 76.3359 148.956 76.7109ZM158.598 72.5469V81H156.528V72.5469H158.598ZM156.387 70.3359C156.387 70.0286 156.492 69.7734 156.7 69.5703C156.914 69.3672 157.2 69.2656 157.559 69.2656C157.919 69.2656 158.203 69.3672 158.411 69.5703C158.624 69.7734 158.731 70.0286 158.731 70.3359C158.731 70.638 158.624 70.8906 158.411 71.0938C158.203 71.2969 157.919 71.3984 157.559 71.3984C157.2 71.3984 156.914 71.2969 156.7 71.0938C156.492 70.8906 156.387 70.638 156.387 70.3359ZM164.717 72.5469V74.0312H159.873V72.5469H164.717ZM161.17 70.4688H163.241V78.5625C163.241 78.8125 163.274 79.0052 163.342 79.1406C163.41 79.276 163.511 79.3672 163.647 79.4141C163.782 79.4609 163.944 79.4844 164.131 79.4844C164.267 79.4844 164.392 79.4766 164.506 79.4609C164.621 79.4453 164.717 79.4297 164.795 79.4141L164.803 80.9609C164.631 81.0182 164.436 81.0651 164.217 81.1016C164.004 81.138 163.761 81.1562 163.491 81.1562C163.027 81.1562 162.621 81.0781 162.272 80.9219C161.923 80.7604 161.652 80.5026 161.459 80.1484C161.267 79.7891 161.17 79.3151 161.17 78.7266V70.4688ZM173.845 79.5312C174.137 79.5312 174.397 79.474 174.627 79.3594C174.856 79.2448 175.038 79.0833 175.173 78.875C175.314 78.6667 175.39 78.4245 175.4 78.1484H177.345C177.335 78.7214 177.173 79.2344 176.861 79.6875C176.548 80.1406 176.132 80.5 175.611 80.7656C175.095 81.026 174.517 81.1562 173.877 81.1562C173.226 81.1562 172.658 81.0469 172.173 80.8281C171.689 80.6094 171.285 80.3047 170.963 79.9141C170.645 79.5234 170.405 79.0703 170.244 78.5547C170.088 78.0391 170.009 77.487 170.009 76.8984V76.6484C170.009 76.0599 170.088 75.5078 170.244 74.9922C170.405 74.4766 170.645 74.0234 170.963 73.6328C171.285 73.2422 171.689 72.9375 172.173 72.7188C172.658 72.5 173.223 72.3906 173.869 72.3906C174.551 72.3906 175.15 72.5234 175.666 72.7891C176.186 73.0547 176.593 73.4297 176.884 73.9141C177.181 74.3984 177.335 74.9688 177.345 75.625H175.4C175.39 75.3229 175.322 75.0521 175.197 74.8125C175.072 74.5729 174.895 74.3802 174.666 74.2344C174.436 74.0885 174.158 74.0156 173.83 74.0156C173.481 74.0156 173.189 74.0885 172.955 74.2344C172.726 74.3802 172.546 74.5807 172.416 74.8359C172.291 75.0859 172.202 75.3672 172.15 75.6797C172.103 75.987 172.08 76.3099 172.08 76.6484V76.8984C172.08 77.2422 172.103 77.5703 172.15 77.8828C172.202 78.1953 172.291 78.4766 172.416 78.7266C172.546 78.9714 172.726 79.1667 172.955 79.3125C173.189 79.4583 173.486 79.5312 173.845 79.5312ZM183.527 79.2031V75.3047C183.527 75.0182 183.477 74.7708 183.378 74.5625C183.279 74.3542 183.128 74.1927 182.925 74.0781C182.722 73.9635 182.464 73.9062 182.152 73.9062C181.876 73.9062 181.633 73.9531 181.425 74.0469C181.222 74.1406 181.066 74.2734 180.956 74.4453C180.847 74.612 180.792 74.8047 180.792 75.0234H178.722C178.722 74.6745 178.805 74.3438 178.972 74.0312C179.139 73.7135 179.376 73.4323 179.683 73.1875C179.995 72.9375 180.368 72.7422 180.8 72.6016C181.238 72.4609 181.727 72.3906 182.269 72.3906C182.909 72.3906 183.48 72.5 183.98 72.7188C184.485 72.9323 184.881 73.2552 185.167 73.6875C185.459 74.1198 185.605 74.6641 185.605 75.3203V79.0078C185.605 79.4297 185.631 79.7917 185.683 80.0938C185.74 80.3906 185.823 80.6484 185.933 80.8672V81H183.831C183.732 80.7865 183.657 80.5156 183.605 80.1875C183.553 79.8542 183.527 79.526 183.527 79.2031ZM183.816 75.8516L183.831 77.0781H182.527C182.204 77.0781 181.92 77.112 181.675 77.1797C181.43 77.2422 181.23 77.3359 181.073 77.4609C180.917 77.5807 180.8 77.7266 180.722 77.8984C180.644 78.0651 180.605 78.2552 180.605 78.4688C180.605 78.6771 180.652 78.8646 180.745 79.0312C180.844 79.1979 180.985 79.3307 181.167 79.4297C181.355 79.5234 181.573 79.5703 181.823 79.5703C182.188 79.5703 182.506 79.4974 182.777 79.3516C183.047 79.2005 183.258 79.0182 183.409 78.8047C183.56 78.5911 183.641 78.388 183.652 78.1953L184.245 79.0859C184.172 79.2995 184.063 79.526 183.917 79.7656C183.771 80.0052 183.584 80.2292 183.355 80.4375C183.126 80.6458 182.849 80.8177 182.527 80.9531C182.204 81.0885 181.829 81.1562 181.402 81.1562C180.855 81.1562 180.365 81.0469 179.933 80.8281C179.501 80.6094 179.159 80.3099 178.909 79.9297C178.659 79.5495 178.534 79.1172 178.534 78.6328C178.534 78.1849 178.618 77.7891 178.784 77.4453C178.951 77.1016 179.198 76.8125 179.527 76.5781C179.855 76.3385 180.261 76.1589 180.745 76.0391C181.235 75.9141 181.795 75.8516 182.425 75.8516H183.816ZM189.677 74.2734V81H187.614V72.5469H189.567L189.677 74.2734ZM192.247 72.4922L192.216 74.4141C192.101 74.3932 191.971 74.3776 191.825 74.3672C191.684 74.3568 191.552 74.3516 191.427 74.3516C191.109 74.3516 190.83 74.3958 190.591 74.4844C190.351 74.5677 190.151 74.6901 189.989 74.8516C189.833 75.013 189.713 75.2109 189.63 75.4453C189.546 75.6745 189.499 75.9349 189.489 76.2266L189.044 76.1719C189.044 75.6354 189.098 75.138 189.208 74.6797C189.317 74.2214 189.476 73.8203 189.684 73.4766C189.893 73.1328 190.153 72.8672 190.466 72.6797C190.783 72.487 191.148 72.3906 191.559 72.3906C191.674 72.3906 191.796 72.401 191.927 72.4219C192.062 72.4375 192.169 72.4609 192.247 72.4922ZM198.444 79.2031V69H200.522V81H198.647L198.444 79.2031ZM193.014 76.875V76.7109C193.014 76.0651 193.087 75.4792 193.233 74.9531C193.384 74.4219 193.603 73.9661 193.889 73.5859C194.176 73.2057 194.522 72.9115 194.928 72.7031C195.34 72.4948 195.806 72.3906 196.327 72.3906C196.832 72.3906 197.272 72.4922 197.647 72.6953C198.027 72.8984 198.35 73.1875 198.616 73.5625C198.886 73.9375 199.103 74.3828 199.264 74.8984C199.426 75.4089 199.543 75.9714 199.616 76.5859V77.0312C199.543 77.6302 199.426 78.1797 199.264 78.6797C199.103 79.1797 198.886 79.6172 198.616 79.9922C198.35 80.362 198.027 80.6484 197.647 80.8516C197.267 81.0547 196.821 81.1562 196.311 81.1562C195.795 81.1562 195.332 81.0495 194.92 80.8359C194.514 80.6224 194.168 80.3229 193.881 79.9375C193.6 79.5521 193.384 79.099 193.233 78.5781C193.087 78.0573 193.014 77.4896 193.014 76.875ZM195.084 76.7109V76.875C195.084 77.2396 195.116 77.5807 195.178 77.8984C195.241 78.2161 195.342 78.4974 195.483 78.7422C195.623 78.9818 195.803 79.1693 196.022 79.3047C196.246 79.4401 196.517 79.5078 196.834 79.5078C197.241 79.5078 197.574 79.4193 197.834 79.2422C198.1 79.0599 198.306 78.8125 198.452 78.5C198.597 78.1823 198.691 77.8255 198.733 77.4297V76.2031C198.712 75.8906 198.657 75.6016 198.569 75.3359C198.485 75.0703 198.366 74.8411 198.209 74.6484C198.058 74.4557 197.871 74.3047 197.647 74.1953C197.423 74.0859 197.157 74.0312 196.85 74.0312C196.532 74.0312 196.261 74.1016 196.037 74.2422C195.814 74.3776 195.631 74.5677 195.491 74.8125C195.35 75.0573 195.246 75.3411 195.178 75.6641C195.116 75.987 195.084 76.3359 195.084 76.7109Z"
          fill="#020617"
          fill-opacity="0.35"></path>
        <path
          d="M95.9062 110.223H97.3711C97.3242 110.781 97.168 111.279 96.9023 111.717C96.6367 112.15 96.2637 112.492 95.7832 112.742C95.3027 112.992 94.7188 113.117 94.0312 113.117C93.5039 113.117 93.0293 113.023 92.6074 112.836C92.1855 112.645 91.8242 112.375 91.5234 112.027C91.2227 111.676 90.9922 111.252 90.832 110.756C90.6758 110.26 90.5977 109.705 90.5977 109.092V108.383C90.5977 107.77 90.6777 107.215 90.8379 106.719C91.002 106.223 91.2363 105.799 91.541 105.447C91.8457 105.092 92.2109 104.82 92.6367 104.633C93.0664 104.445 93.5488 104.352 94.084 104.352C94.7637 104.352 95.3379 104.477 95.8066 104.727C96.2754 104.977 96.6387 105.322 96.8965 105.764C97.1582 106.205 97.3184 106.711 97.377 107.281H95.9121C95.873 106.914 95.7871 106.6 95.6543 106.338C95.5254 106.076 95.334 105.877 95.0801 105.74C94.8262 105.6 94.4941 105.529 94.084 105.529C93.748 105.529 93.4551 105.592 93.2051 105.717C92.9551 105.842 92.7461 106.025 92.5781 106.268C92.4102 106.51 92.2832 106.809 92.1973 107.164C92.1152 107.516 92.0742 107.918 92.0742 108.371V109.092C92.0742 109.521 92.1113 109.912 92.1855 110.264C92.2637 110.611 92.3809 110.91 92.5371 111.16C92.6973 111.41 92.9004 111.604 93.1465 111.74C93.3926 111.877 93.6875 111.945 94.0312 111.945C94.4492 111.945 94.7871 111.879 95.0449 111.746C95.3066 111.613 95.5039 111.42 95.6367 111.166C95.7734 110.908 95.8633 110.594 95.9062 110.223ZM102.141 111.729V108.705C102.141 108.479 102.1 108.283 102.018 108.119C101.936 107.955 101.811 107.828 101.643 107.738C101.479 107.648 101.271 107.604 101.021 107.604C100.791 107.604 100.592 107.643 100.424 107.721C100.256 107.799 100.125 107.904 100.031 108.037C99.9375 108.17 99.8906 108.32 99.8906 108.488H98.4844C98.4844 108.238 98.5449 107.996 98.666 107.762C98.7871 107.527 98.9629 107.318 99.1934 107.135C99.4238 106.951 99.6992 106.807 100.02 106.701C100.34 106.596 100.699 106.543 101.098 106.543C101.574 106.543 101.996 106.623 102.363 106.783C102.734 106.943 103.025 107.186 103.236 107.51C103.451 107.83 103.559 108.232 103.559 108.717V111.535C103.559 111.824 103.578 112.084 103.617 112.314C103.66 112.541 103.721 112.738 103.799 112.906V113H102.352C102.285 112.848 102.232 112.654 102.193 112.42C102.158 112.182 102.141 111.951 102.141 111.729ZM102.346 109.145L102.357 110.018H101.344C101.082 110.018 100.852 110.043 100.652 110.094C100.453 110.141 100.287 110.211 100.154 110.305C100.021 110.398 99.9219 110.512 99.8555 110.645C99.7891 110.777 99.7559 110.928 99.7559 111.096C99.7559 111.264 99.7949 111.418 99.873 111.559C99.9512 111.695 100.064 111.803 100.213 111.881C100.365 111.959 100.549 111.998 100.764 111.998C101.053 111.998 101.305 111.939 101.52 111.822C101.738 111.701 101.91 111.555 102.035 111.383C102.16 111.207 102.227 111.041 102.234 110.885L102.691 111.512C102.645 111.672 102.564 111.844 102.451 112.027C102.338 112.211 102.189 112.387 102.006 112.555C101.826 112.719 101.609 112.854 101.355 112.959C101.105 113.064 100.816 113.117 100.488 113.117C100.074 113.117 99.7051 113.035 99.3809 112.871C99.0566 112.703 98.8027 112.479 98.6191 112.197C98.4355 111.912 98.3438 111.59 98.3438 111.23C98.3438 110.895 98.4062 110.598 98.5312 110.34C98.6602 110.078 98.8477 109.859 99.0938 109.684C99.3438 109.508 99.6484 109.375 100.008 109.285C100.367 109.191 100.777 109.145 101.238 109.145H102.346ZM106.453 107.867V113H105.041V106.66H106.389L106.453 107.867ZM108.393 106.619L108.381 107.932C108.295 107.916 108.201 107.904 108.1 107.896C108.002 107.889 107.904 107.885 107.807 107.885C107.564 107.885 107.352 107.92 107.168 107.99C106.984 108.057 106.83 108.154 106.705 108.283C106.584 108.408 106.49 108.561 106.424 108.74C106.357 108.92 106.318 109.121 106.307 109.344L105.984 109.367C105.984 108.969 106.023 108.6 106.102 108.26C106.18 107.92 106.297 107.621 106.453 107.363C106.613 107.105 106.812 106.904 107.051 106.76C107.293 106.615 107.572 106.543 107.889 106.543C107.975 106.543 108.066 106.551 108.164 106.566C108.266 106.582 108.342 106.6 108.393 106.619ZM113.027 111.688V104H114.445V113H113.162L113.027 111.688ZM108.902 109.9V109.777C108.902 109.297 108.959 108.859 109.072 108.465C109.186 108.066 109.35 107.725 109.564 107.439C109.779 107.15 110.041 106.93 110.35 106.777C110.658 106.621 111.006 106.543 111.393 106.543C111.775 106.543 112.111 106.617 112.4 106.766C112.689 106.914 112.936 107.127 113.139 107.404C113.342 107.678 113.504 108.006 113.625 108.389C113.746 108.768 113.832 109.189 113.883 109.654V110.047C113.832 110.5 113.746 110.914 113.625 111.289C113.504 111.664 113.342 111.988 113.139 112.262C112.936 112.535 112.688 112.746 112.395 112.895C112.105 113.043 111.768 113.117 111.381 113.117C110.998 113.117 110.652 113.037 110.344 112.877C110.039 112.717 109.779 112.492 109.564 112.203C109.35 111.914 109.186 111.574 109.072 111.184C108.959 110.789 108.902 110.361 108.902 109.9ZM110.314 109.777V109.9C110.314 110.189 110.34 110.459 110.391 110.709C110.445 110.959 110.529 111.18 110.643 111.371C110.756 111.559 110.902 111.707 111.082 111.816C111.266 111.922 111.484 111.975 111.738 111.975C112.059 111.975 112.322 111.904 112.529 111.764C112.736 111.623 112.898 111.434 113.016 111.195C113.137 110.953 113.219 110.684 113.262 110.387V109.326C113.238 109.096 113.189 108.881 113.115 108.682C113.045 108.482 112.949 108.309 112.828 108.16C112.707 108.008 112.557 107.891 112.377 107.809C112.201 107.723 111.992 107.68 111.75 107.68C111.492 107.68 111.273 107.734 111.094 107.844C110.914 107.953 110.766 108.104 110.648 108.295C110.535 108.486 110.451 108.709 110.396 108.963C110.342 109.217 110.314 109.488 110.314 109.777ZM122.777 111.688V104H124.195V113H122.912L122.777 111.688ZM118.652 109.9V109.777C118.652 109.297 118.709 108.859 118.822 108.465C118.936 108.066 119.1 107.725 119.314 107.439C119.529 107.15 119.791 106.93 120.1 106.777C120.408 106.621 120.756 106.543 121.143 106.543C121.525 106.543 121.861 106.617 122.15 106.766C122.439 106.914 122.686 107.127 122.889 107.404C123.092 107.678 123.254 108.006 123.375 108.389C123.496 108.768 123.582 109.189 123.633 109.654V110.047C123.582 110.5 123.496 110.914 123.375 111.289C123.254 111.664 123.092 111.988 122.889 112.262C122.686 112.535 122.438 112.746 122.145 112.895C121.855 113.043 121.518 113.117 121.131 113.117C120.748 113.117 120.402 113.037 120.094 112.877C119.789 112.717 119.529 112.492 119.314 112.203C119.1 111.914 118.936 111.574 118.822 111.184C118.709 110.789 118.652 110.361 118.652 109.9ZM120.064 109.777V109.9C120.064 110.189 120.09 110.459 120.141 110.709C120.195 110.959 120.279 111.18 120.393 111.371C120.506 111.559 120.652 111.707 120.832 111.816C121.016 111.922 121.234 111.975 121.488 111.975C121.809 111.975 122.072 111.904 122.279 111.764C122.486 111.623 122.648 111.434 122.766 111.195C122.887 110.953 122.969 110.684 123.012 110.387V109.326C122.988 109.096 122.939 108.881 122.865 108.682C122.795 108.482 122.699 108.309 122.578 108.16C122.457 108.008 122.307 107.891 122.127 107.809C121.951 107.723 121.742 107.68 121.5 107.68C121.242 107.68 121.023 107.734 120.844 107.844C120.664 107.953 120.516 108.104 120.398 108.295C120.285 108.486 120.201 108.709 120.146 108.963C120.092 109.217 120.064 109.488 120.064 109.777ZM128.467 113.117C127.998 113.117 127.574 113.041 127.195 112.889C126.82 112.732 126.5 112.516 126.234 112.238C125.973 111.961 125.771 111.635 125.631 111.26C125.49 110.885 125.42 110.48 125.42 110.047V109.812C125.42 109.316 125.492 108.867 125.637 108.465C125.781 108.062 125.982 107.719 126.24 107.434C126.498 107.145 126.803 106.924 127.154 106.771C127.506 106.619 127.887 106.543 128.297 106.543C128.75 106.543 129.146 106.619 129.486 106.771C129.826 106.924 130.107 107.139 130.33 107.416C130.557 107.689 130.725 108.016 130.834 108.395C130.947 108.773 131.004 109.191 131.004 109.648V110.252H126.105V109.238H129.609V109.127C129.602 108.873 129.551 108.635 129.457 108.412C129.367 108.189 129.229 108.01 129.041 107.873C128.854 107.736 128.604 107.668 128.291 107.668C128.057 107.668 127.848 107.719 127.664 107.82C127.484 107.918 127.334 108.061 127.213 108.248C127.092 108.436 126.998 108.662 126.932 108.928C126.869 109.189 126.838 109.484 126.838 109.812V110.047C126.838 110.324 126.875 110.582 126.949 110.82C127.027 111.055 127.141 111.26 127.289 111.436C127.438 111.611 127.617 111.75 127.828 111.852C128.039 111.949 128.279 111.998 128.549 111.998C128.889 111.998 129.191 111.93 129.457 111.793C129.723 111.656 129.953 111.463 130.148 111.213L130.893 111.934C130.756 112.133 130.578 112.324 130.359 112.508C130.141 112.688 129.873 112.834 129.557 112.947C129.244 113.061 128.881 113.117 128.467 113.117ZM135.012 106.66V107.691H131.438V106.66H135.012ZM132.469 105.107H133.881V111.248C133.881 111.443 133.908 111.594 133.963 111.699C134.021 111.801 134.102 111.869 134.203 111.904C134.305 111.939 134.424 111.957 134.561 111.957C134.658 111.957 134.752 111.951 134.842 111.939C134.932 111.928 135.004 111.916 135.059 111.904L135.064 112.982C134.947 113.018 134.811 113.049 134.654 113.076C134.502 113.104 134.326 113.117 134.127 113.117C133.803 113.117 133.516 113.061 133.266 112.947C133.016 112.83 132.82 112.641 132.68 112.379C132.539 112.117 132.469 111.77 132.469 111.336V105.107ZM139.676 111.729V108.705C139.676 108.479 139.635 108.283 139.553 108.119C139.471 107.955 139.346 107.828 139.178 107.738C139.014 107.648 138.807 107.604 138.557 107.604C138.326 107.604 138.127 107.643 137.959 107.721C137.791 107.799 137.66 107.904 137.566 108.037C137.473 108.17 137.426 108.32 137.426 108.488H136.02C136.02 108.238 136.08 107.996 136.201 107.762C136.322 107.527 136.498 107.318 136.729 107.135C136.959 106.951 137.234 106.807 137.555 106.701C137.875 106.596 138.234 106.543 138.633 106.543C139.109 106.543 139.531 106.623 139.898 106.783C140.27 106.943 140.561 107.186 140.771 107.51C140.986 107.83 141.094 108.232 141.094 108.717V111.535C141.094 111.824 141.113 112.084 141.152 112.314C141.195 112.541 141.256 112.738 141.334 112.906V113H139.887C139.82 112.848 139.768 112.654 139.729 112.42C139.693 112.182 139.676 111.951 139.676 111.729ZM139.881 109.145L139.893 110.018H138.879C138.617 110.018 138.387 110.043 138.188 110.094C137.988 110.141 137.822 110.211 137.689 110.305C137.557 110.398 137.457 110.512 137.391 110.645C137.324 110.777 137.291 110.928 137.291 111.096C137.291 111.264 137.33 111.418 137.408 111.559C137.486 111.695 137.6 111.803 137.748 111.881C137.9 111.959 138.084 111.998 138.299 111.998C138.588 111.998 138.84 111.939 139.055 111.822C139.273 111.701 139.445 111.555 139.57 111.383C139.695 111.207 139.762 111.041 139.77 110.885L140.227 111.512C140.18 111.672 140.1 111.844 139.986 112.027C139.873 112.211 139.725 112.387 139.541 112.555C139.361 112.719 139.145 112.854 138.891 112.959C138.641 113.064 138.352 113.117 138.023 113.117C137.609 113.117 137.24 113.035 136.916 112.871C136.592 112.703 136.338 112.479 136.154 112.197C135.971 111.912 135.879 111.59 135.879 111.23C135.879 110.895 135.941 110.598 136.066 110.34C136.195 110.078 136.383 109.859 136.629 109.684C136.879 109.508 137.184 109.375 137.543 109.285C137.902 109.191 138.312 109.145 138.773 109.145H139.881ZM144.082 106.66V113H142.664V106.66H144.082ZM142.57 104.996C142.57 104.781 142.641 104.604 142.781 104.463C142.926 104.318 143.125 104.246 143.379 104.246C143.629 104.246 143.826 104.318 143.971 104.463C144.115 104.604 144.188 104.781 144.188 104.996C144.188 105.207 144.115 105.383 143.971 105.523C143.826 105.664 143.629 105.734 143.379 105.734C143.125 105.734 142.926 105.664 142.781 105.523C142.641 105.383 142.57 105.207 142.57 104.996ZM147.141 104V113H145.723V104H147.141ZM152.244 111.283C152.244 111.143 152.209 111.016 152.139 110.902C152.068 110.785 151.934 110.68 151.734 110.586C151.539 110.492 151.25 110.406 150.867 110.328C150.531 110.254 150.223 110.166 149.941 110.064C149.664 109.959 149.426 109.832 149.227 109.684C149.027 109.535 148.873 109.359 148.764 109.156C148.654 108.953 148.6 108.719 148.6 108.453C148.6 108.195 148.656 107.951 148.77 107.721C148.883 107.49 149.045 107.287 149.256 107.111C149.467 106.936 149.723 106.797 150.023 106.695C150.328 106.594 150.668 106.543 151.043 106.543C151.574 106.543 152.029 106.633 152.408 106.812C152.791 106.988 153.084 107.229 153.287 107.533C153.49 107.834 153.592 108.174 153.592 108.553H152.18C152.18 108.385 152.137 108.229 152.051 108.084C151.969 107.936 151.844 107.816 151.676 107.727C151.508 107.633 151.297 107.586 151.043 107.586C150.801 107.586 150.6 107.625 150.439 107.703C150.283 107.777 150.166 107.875 150.088 107.996C150.014 108.117 149.977 108.25 149.977 108.395C149.977 108.5 149.996 108.596 150.035 108.682C150.078 108.764 150.148 108.84 150.246 108.91C150.344 108.977 150.477 109.039 150.645 109.098C150.816 109.156 151.031 109.213 151.289 109.268C151.773 109.369 152.189 109.5 152.537 109.66C152.889 109.816 153.158 110.02 153.346 110.27C153.533 110.516 153.627 110.828 153.627 111.207C153.627 111.488 153.566 111.746 153.445 111.98C153.328 112.211 153.156 112.412 152.93 112.584C152.703 112.752 152.432 112.883 152.115 112.977C151.803 113.07 151.451 113.117 151.061 113.117C150.486 113.117 150 113.016 149.602 112.812C149.203 112.605 148.9 112.342 148.693 112.021C148.49 111.697 148.389 111.361 148.389 111.014H149.754C149.77 111.275 149.842 111.484 149.971 111.641C150.104 111.793 150.268 111.904 150.463 111.975C150.662 112.041 150.867 112.074 151.078 112.074C151.332 112.074 151.545 112.041 151.717 111.975C151.889 111.904 152.02 111.811 152.109 111.693C152.199 111.572 152.244 111.436 152.244 111.283Z"
          fill="#020617"
          fill-opacity="0.35"></path>
        <g filter="url(#filter0_d_4715_1473)">
          <g clip-path="url(#clip3_4715_1473)">
            <path
              d="M90 127C90 122.582 93.5817 119 98 119H431C435.418 119 439 122.582 439 127V167C439 171.418 435.418 175 431 175H98C93.5817 175 90 171.418 90 167V127Z"
              fill="#F8FAFC"></path>
            <path
              d="M114.188 148.383H115.688C115.609 149.102 115.404 149.745 115.07 150.312C114.737 150.88 114.266 151.331 113.656 151.664C113.047 151.992 112.286 152.156 111.375 152.156C110.708 152.156 110.102 152.031 109.555 151.781C109.013 151.531 108.547 151.177 108.156 150.719C107.766 150.255 107.464 149.701 107.25 149.055C107.042 148.404 106.938 147.68 106.938 146.883V145.75C106.938 144.953 107.042 144.232 107.25 143.586C107.464 142.935 107.768 142.378 108.164 141.914C108.565 141.451 109.047 141.094 109.609 140.844C110.172 140.594 110.805 140.469 111.508 140.469C112.367 140.469 113.094 140.63 113.688 140.953C114.281 141.276 114.742 141.724 115.07 142.297C115.404 142.865 115.609 143.523 115.688 144.273H114.188C114.115 143.742 113.979 143.286 113.781 142.906C113.583 142.521 113.302 142.224 112.938 142.016C112.573 141.807 112.096 141.703 111.508 141.703C111.003 141.703 110.557 141.799 110.172 141.992C109.792 142.185 109.471 142.458 109.211 142.812C108.956 143.167 108.763 143.591 108.633 144.086C108.503 144.581 108.438 145.13 108.438 145.734V146.883C108.438 147.44 108.495 147.964 108.609 148.453C108.729 148.943 108.909 149.372 109.148 149.742C109.388 150.112 109.693 150.404 110.062 150.617C110.432 150.826 110.87 150.93 111.375 150.93C112.016 150.93 112.526 150.828 112.906 150.625C113.286 150.422 113.573 150.13 113.766 149.75C113.964 149.37 114.104 148.914 114.188 148.383ZM122.508 150.555V146.203C122.508 145.87 122.44 145.581 122.305 145.336C122.174 145.086 121.977 144.893 121.711 144.758C121.445 144.622 121.117 144.555 120.727 144.555C120.362 144.555 120.042 144.617 119.766 144.742C119.495 144.867 119.281 145.031 119.125 145.234C118.974 145.438 118.898 145.656 118.898 145.891H117.453C117.453 145.589 117.531 145.289 117.688 144.992C117.844 144.695 118.068 144.427 118.359 144.188C118.656 143.943 119.01 143.75 119.422 143.609C119.839 143.464 120.302 143.391 120.812 143.391C121.427 143.391 121.969 143.495 122.438 143.703C122.911 143.911 123.281 144.227 123.547 144.648C123.818 145.065 123.953 145.589 123.953 146.219V150.156C123.953 150.438 123.977 150.737 124.023 151.055C124.076 151.372 124.151 151.646 124.25 151.875V152H122.742C122.669 151.833 122.612 151.612 122.57 151.336C122.529 151.055 122.508 150.794 122.508 150.555ZM122.758 146.875L122.773 147.891H121.312C120.901 147.891 120.534 147.924 120.211 147.992C119.888 148.055 119.617 148.151 119.398 148.281C119.18 148.411 119.013 148.576 118.898 148.773C118.784 148.966 118.727 149.193 118.727 149.453C118.727 149.719 118.786 149.961 118.906 150.18C119.026 150.398 119.206 150.573 119.445 150.703C119.69 150.828 119.99 150.891 120.344 150.891C120.786 150.891 121.177 150.797 121.516 150.609C121.854 150.422 122.122 150.193 122.32 149.922C122.523 149.651 122.633 149.388 122.648 149.133L123.266 149.828C123.229 150.047 123.13 150.289 122.969 150.555C122.807 150.82 122.591 151.076 122.32 151.32C122.055 151.56 121.737 151.76 121.367 151.922C121.003 152.078 120.591 152.156 120.133 152.156C119.56 152.156 119.057 152.044 118.625 151.82C118.198 151.596 117.865 151.297 117.625 150.922C117.391 150.542 117.273 150.117 117.273 149.648C117.273 149.195 117.362 148.797 117.539 148.453C117.716 148.104 117.971 147.815 118.305 147.586C118.638 147.352 119.039 147.174 119.508 147.055C119.977 146.935 120.5 146.875 121.078 146.875H122.758ZM127.672 144.875V152H126.227V143.547H127.633L127.672 144.875ZM130.312 143.5L130.305 144.844C130.185 144.818 130.07 144.802 129.961 144.797C129.857 144.786 129.737 144.781 129.602 144.781C129.268 144.781 128.974 144.833 128.719 144.938C128.464 145.042 128.247 145.188 128.07 145.375C127.893 145.562 127.753 145.786 127.648 146.047C127.549 146.302 127.484 146.583 127.453 146.891L127.047 147.125C127.047 146.615 127.096 146.135 127.195 145.688C127.299 145.24 127.458 144.844 127.672 144.5C127.885 144.151 128.156 143.88 128.484 143.688C128.818 143.49 129.214 143.391 129.672 143.391C129.776 143.391 129.896 143.404 130.031 143.43C130.167 143.451 130.26 143.474 130.312 143.5ZM136.82 150.359V140H138.273V152H136.945L136.82 150.359ZM131.133 147.867V147.703C131.133 147.057 131.211 146.471 131.367 145.945C131.529 145.414 131.755 144.958 132.047 144.578C132.344 144.198 132.695 143.906 133.102 143.703C133.513 143.495 133.971 143.391 134.477 143.391C135.008 143.391 135.471 143.484 135.867 143.672C136.268 143.854 136.607 144.122 136.883 144.477C137.164 144.826 137.385 145.247 137.547 145.742C137.708 146.237 137.82 146.797 137.883 147.422V148.141C137.826 148.76 137.714 149.318 137.547 149.812C137.385 150.307 137.164 150.729 136.883 151.078C136.607 151.427 136.268 151.695 135.867 151.883C135.466 152.065 134.997 152.156 134.461 152.156C133.966 152.156 133.513 152.049 133.102 151.836C132.695 151.622 132.344 151.323 132.047 150.938C131.755 150.552 131.529 150.099 131.367 149.578C131.211 149.052 131.133 148.482 131.133 147.867ZM132.586 147.703V147.867C132.586 148.289 132.628 148.685 132.711 149.055C132.799 149.424 132.935 149.75 133.117 150.031C133.299 150.312 133.531 150.534 133.812 150.695C134.094 150.852 134.43 150.93 134.82 150.93C135.299 150.93 135.693 150.828 136 150.625C136.312 150.422 136.562 150.154 136.75 149.82C136.938 149.487 137.083 149.125 137.188 148.734V146.852C137.125 146.565 137.034 146.289 136.914 146.023C136.799 145.753 136.648 145.513 136.461 145.305C136.279 145.091 136.052 144.922 135.781 144.797C135.516 144.672 135.201 144.609 134.836 144.609C134.44 144.609 134.099 144.693 133.812 144.859C133.531 145.021 133.299 145.245 133.117 145.531C132.935 145.812 132.799 146.141 132.711 146.516C132.628 146.885 132.586 147.281 132.586 147.703ZM145.938 145.352V152H144.492V143.547H145.859L145.938 145.352ZM145.594 147.453L144.992 147.43C144.997 146.852 145.083 146.318 145.25 145.828C145.417 145.333 145.651 144.904 145.953 144.539C146.255 144.174 146.615 143.893 147.031 143.695C147.453 143.492 147.919 143.391 148.43 143.391C148.846 143.391 149.221 143.448 149.555 143.562C149.888 143.672 150.172 143.849 150.406 144.094C150.646 144.339 150.828 144.656 150.953 145.047C151.078 145.432 151.141 145.904 151.141 146.461V152H149.688V146.445C149.688 146.003 149.622 145.648 149.492 145.383C149.362 145.112 149.172 144.917 148.922 144.797C148.672 144.672 148.365 144.609 148 144.609C147.641 144.609 147.312 144.685 147.016 144.836C146.724 144.987 146.471 145.195 146.258 145.461C146.049 145.727 145.885 146.031 145.766 146.375C145.651 146.714 145.594 147.073 145.594 147.453ZM158.508 150.047V143.547H159.961V152H158.578L158.508 150.047ZM158.781 148.266L159.383 148.25C159.383 148.812 159.323 149.333 159.203 149.812C159.089 150.286 158.901 150.698 158.641 151.047C158.38 151.396 158.039 151.669 157.617 151.867C157.195 152.06 156.682 152.156 156.078 152.156C155.667 152.156 155.289 152.096 154.945 151.977C154.607 151.857 154.315 151.672 154.07 151.422C153.826 151.172 153.635 150.846 153.5 150.445C153.37 150.044 153.305 149.562 153.305 149V143.547H154.75V149.016C154.75 149.396 154.792 149.711 154.875 149.961C154.964 150.206 155.081 150.401 155.227 150.547C155.378 150.688 155.544 150.786 155.727 150.844C155.914 150.901 156.107 150.93 156.305 150.93C156.919 150.93 157.406 150.812 157.766 150.578C158.125 150.339 158.383 150.018 158.539 149.617C158.701 149.211 158.781 148.76 158.781 148.266ZM163.602 145.227V152H162.148V143.547H163.523L163.602 145.227ZM163.305 147.453L162.633 147.43C162.638 146.852 162.714 146.318 162.859 145.828C163.005 145.333 163.221 144.904 163.508 144.539C163.794 144.174 164.151 143.893 164.578 143.695C165.005 143.492 165.5 143.391 166.062 143.391C166.458 143.391 166.823 143.448 167.156 143.562C167.49 143.672 167.779 143.846 168.023 144.086C168.268 144.326 168.458 144.633 168.594 145.008C168.729 145.383 168.797 145.836 168.797 146.367V152H167.352V146.438C167.352 145.995 167.276 145.641 167.125 145.375C166.979 145.109 166.771 144.917 166.5 144.797C166.229 144.672 165.911 144.609 165.547 144.609C165.12 144.609 164.763 144.685 164.477 144.836C164.19 144.987 163.961 145.195 163.789 145.461C163.617 145.727 163.492 146.031 163.414 146.375C163.341 146.714 163.305 147.073 163.305 147.453ZM168.781 146.656L167.812 146.953C167.818 146.49 167.893 146.044 168.039 145.617C168.19 145.19 168.406 144.81 168.688 144.477C168.974 144.143 169.326 143.88 169.742 143.688C170.159 143.49 170.635 143.391 171.172 143.391C171.625 143.391 172.026 143.451 172.375 143.57C172.729 143.69 173.026 143.875 173.266 144.125C173.51 144.37 173.695 144.685 173.82 145.07C173.945 145.456 174.008 145.914 174.008 146.445V152H172.555V146.43C172.555 145.956 172.479 145.589 172.328 145.328C172.182 145.062 171.974 144.878 171.703 144.773C171.438 144.664 171.12 144.609 170.75 144.609C170.432 144.609 170.151 144.664 169.906 144.773C169.661 144.883 169.456 145.034 169.289 145.227C169.122 145.414 168.995 145.63 168.906 145.875C168.823 146.12 168.781 146.38 168.781 146.656ZM176.188 140H177.641V150.359L177.516 152H176.188V140ZM183.352 147.703V147.867C183.352 148.482 183.279 149.052 183.133 149.578C182.987 150.099 182.773 150.552 182.492 150.938C182.211 151.323 181.867 151.622 181.461 151.836C181.055 152.049 180.589 152.156 180.062 152.156C179.526 152.156 179.055 152.065 178.648 151.883C178.247 151.695 177.909 151.427 177.633 151.078C177.357 150.729 177.135 150.307 176.969 149.812C176.807 149.318 176.695 148.76 176.633 148.141V147.422C176.695 146.797 176.807 146.237 176.969 145.742C177.135 145.247 177.357 144.826 177.633 144.477C177.909 144.122 178.247 143.854 178.648 143.672C179.049 143.484 179.516 143.391 180.047 143.391C180.578 143.391 181.049 143.495 181.461 143.703C181.872 143.906 182.216 144.198 182.492 144.578C182.773 144.958 182.987 145.414 183.133 145.945C183.279 146.471 183.352 147.057 183.352 147.703ZM181.898 147.867V147.703C181.898 147.281 181.859 146.885 181.781 146.516C181.703 146.141 181.578 145.812 181.406 145.531C181.234 145.245 181.008 145.021 180.727 144.859C180.445 144.693 180.099 144.609 179.688 144.609C179.323 144.609 179.005 144.672 178.734 144.797C178.469 144.922 178.242 145.091 178.055 145.305C177.867 145.513 177.714 145.753 177.594 146.023C177.479 146.289 177.393 146.565 177.336 146.852V148.734C177.419 149.099 177.555 149.451 177.742 149.789C177.935 150.122 178.19 150.396 178.508 150.609C178.831 150.823 179.229 150.93 179.703 150.93C180.094 150.93 180.427 150.852 180.703 150.695C180.984 150.534 181.211 150.312 181.383 150.031C181.56 149.75 181.69 149.424 181.773 149.055C181.857 148.685 181.898 148.289 181.898 147.867ZM188.688 152.156C188.099 152.156 187.565 152.057 187.086 151.859C186.612 151.656 186.203 151.372 185.859 151.008C185.521 150.643 185.26 150.211 185.078 149.711C184.896 149.211 184.805 148.664 184.805 148.07V147.742C184.805 147.055 184.906 146.443 185.109 145.906C185.312 145.365 185.589 144.906 185.938 144.531C186.286 144.156 186.682 143.872 187.125 143.68C187.568 143.487 188.026 143.391 188.5 143.391C189.104 143.391 189.625 143.495 190.062 143.703C190.505 143.911 190.867 144.203 191.148 144.578C191.43 144.948 191.638 145.385 191.773 145.891C191.909 146.391 191.977 146.938 191.977 147.531V148.18H185.664V147H190.531V146.891C190.51 146.516 190.432 146.151 190.297 145.797C190.167 145.443 189.958 145.151 189.672 144.922C189.385 144.693 188.995 144.578 188.5 144.578C188.172 144.578 187.87 144.648 187.594 144.789C187.318 144.924 187.081 145.128 186.883 145.398C186.685 145.669 186.531 146 186.422 146.391C186.312 146.781 186.258 147.232 186.258 147.742V148.07C186.258 148.471 186.312 148.849 186.422 149.203C186.536 149.552 186.701 149.859 186.914 150.125C187.133 150.391 187.396 150.599 187.703 150.75C188.016 150.901 188.37 150.977 188.766 150.977C189.276 150.977 189.708 150.872 190.062 150.664C190.417 150.456 190.727 150.177 190.992 149.828L191.867 150.523C191.685 150.799 191.453 151.062 191.172 151.312C190.891 151.562 190.544 151.766 190.133 151.922C189.727 152.078 189.245 152.156 188.688 152.156ZM195.109 144.875V152H193.664V143.547H195.07L195.109 144.875ZM197.75 143.5L197.742 144.844C197.622 144.818 197.508 144.802 197.398 144.797C197.294 144.786 197.174 144.781 197.039 144.781C196.706 144.781 196.411 144.833 196.156 144.938C195.901 145.042 195.685 145.188 195.508 145.375C195.331 145.562 195.19 145.786 195.086 146.047C194.987 146.302 194.922 146.583 194.891 146.891L194.484 147.125C194.484 146.615 194.534 146.135 194.633 145.688C194.737 145.24 194.896 144.844 195.109 144.5C195.323 144.151 195.594 143.88 195.922 143.688C196.255 143.49 196.651 143.391 197.109 143.391C197.214 143.391 197.333 143.404 197.469 143.43C197.604 143.451 197.698 143.474 197.75 143.5Z"
              fill="#020617"
              fill-opacity="0.5"></path>
            <path
              d="M327.797 140.625H329.258L332.984 149.898L336.703 140.625H338.172L333.547 152H332.406L327.797 140.625ZM327.32 140.625H328.609L328.82 147.562V152H327.32V140.625ZM337.352 140.625H338.641V152H337.141V147.562L337.352 140.625ZM341.766 140.625H343.227L346.953 149.898L350.672 140.625H352.141L347.516 152H346.375L341.766 140.625ZM341.289 140.625H342.578L342.789 147.562V152H341.289V140.625ZM351.32 140.625H352.609V152H351.109V147.562L351.32 140.625ZM360.07 140.625L355.328 152.977H354.086L358.836 140.625H360.07ZM364.945 152H362.57L362.586 150.773H364.945C365.758 150.773 366.435 150.604 366.977 150.266C367.518 149.922 367.924 149.443 368.195 148.828C368.471 148.208 368.609 147.484 368.609 146.656V145.961C368.609 145.31 368.531 144.732 368.375 144.227C368.219 143.716 367.99 143.286 367.688 142.938C367.385 142.583 367.016 142.315 366.578 142.133C366.146 141.951 365.648 141.859 365.086 141.859H362.523V140.625H365.086C365.831 140.625 366.51 140.75 367.125 141C367.74 141.245 368.268 141.602 368.711 142.07C369.159 142.534 369.503 143.096 369.742 143.758C369.982 144.414 370.102 145.154 370.102 145.977V146.656C370.102 147.479 369.982 148.221 369.742 148.883C369.503 149.539 369.156 150.099 368.703 150.562C368.255 151.026 367.714 151.383 367.078 151.633C366.448 151.878 365.737 152 364.945 152ZM363.375 140.625V152H361.867V140.625H363.375ZM375.445 152H373.07L373.086 150.773H375.445C376.258 150.773 376.935 150.604 377.477 150.266C378.018 149.922 378.424 149.443 378.695 148.828C378.971 148.208 379.109 147.484 379.109 146.656V145.961C379.109 145.31 379.031 144.732 378.875 144.227C378.719 143.716 378.49 143.286 378.188 142.938C377.885 142.583 377.516 142.315 377.078 142.133C376.646 141.951 376.148 141.859 375.586 141.859H373.023V140.625H375.586C376.331 140.625 377.01 140.75 377.625 141C378.24 141.245 378.768 141.602 379.211 142.07C379.659 142.534 380.003 143.096 380.242 143.758C380.482 144.414 380.602 145.154 380.602 145.977V146.656C380.602 147.479 380.482 148.221 380.242 148.883C380.003 149.539 379.656 150.099 379.203 150.562C378.755 151.026 378.214 151.383 377.578 151.633C376.948 151.878 376.237 152 375.445 152ZM373.875 140.625V152H372.367V140.625H373.875Z"
              fill="#020617"
              fill-opacity="0.5"></path>
            <path
              d="M406.188 148.383H407.688C407.609 149.102 407.404 149.745 407.07 150.312C406.737 150.88 406.266 151.331 405.656 151.664C405.047 151.992 404.286 152.156 403.375 152.156C402.708 152.156 402.102 152.031 401.555 151.781C401.013 151.531 400.547 151.177 400.156 150.719C399.766 150.255 399.464 149.701 399.25 149.055C399.042 148.404 398.938 147.68 398.938 146.883V145.75C398.938 144.953 399.042 144.232 399.25 143.586C399.464 142.935 399.768 142.378 400.164 141.914C400.565 141.451 401.047 141.094 401.609 140.844C402.172 140.594 402.805 140.469 403.508 140.469C404.367 140.469 405.094 140.63 405.688 140.953C406.281 141.276 406.742 141.724 407.07 142.297C407.404 142.865 407.609 143.523 407.688 144.273H406.188C406.115 143.742 405.979 143.286 405.781 142.906C405.583 142.521 405.302 142.224 404.938 142.016C404.573 141.807 404.096 141.703 403.508 141.703C403.003 141.703 402.557 141.799 402.172 141.992C401.792 142.185 401.471 142.458 401.211 142.812C400.956 143.167 400.763 143.591 400.633 144.086C400.503 144.581 400.438 145.13 400.438 145.734V146.883C400.438 147.44 400.495 147.964 400.609 148.453C400.729 148.943 400.909 149.372 401.148 149.742C401.388 150.112 401.693 150.404 402.062 150.617C402.432 150.826 402.87 150.93 403.375 150.93C404.016 150.93 404.526 150.828 404.906 150.625C405.286 150.422 405.573 150.13 405.766 149.75C405.964 149.37 406.104 148.914 406.188 148.383ZM411.359 140.625V152H409.852V140.625H411.359ZM417.773 150.273L421.125 140.625H422.758L418.547 152H417.383L417.773 150.273ZM414.641 140.625L417.961 150.273L418.375 152H417.211L413.008 140.625H414.641Z"
              fill="#020617"
              fill-opacity="0.5"></path>
          </g>
          <path
            d="M90.5 127C90.5 122.858 93.8579 119.5 98 119.5H431C435.142 119.5 438.5 122.858 438.5 127V167C438.5 171.142 435.142 174.5 431 174.5H98C93.8579 174.5 90.5 171.142 90.5 167V127Z"
            stroke="url(#paint0_linear_4715_1473)"></path>
        </g>
      </g>
    </g>
    <rect
      x="64.5"
      y="40.5"
      width="400"
      height="895"
      rx="33.5"
      stroke="url(#paint1_linear_4715_1473)"
      stroke-opacity="0.35"
      stroke-width="3"></rect>
    <rect y="32" width="495" height="388" fill="url(#paint2_linear_4715_1473)"
    ></rect>
    <g opacity="0.75" filter="url(#filter1_f_4715_1473)">
      <path
        d="M32 177C32 170.373 37.3726 165 44 165H388C394.627 165 400 170.373 400 177V209C400 215.627 394.627 221 388 221H44C37.3726 221 32 215.627 32 209V177Z"
        fill="white"></path>
      <path
        d="M44 162.5C35.9919 162.5 29.5 168.992 29.5 177V209C29.5 217.008 35.9919 223.5 44 223.5H388C396.008 223.5 402.5 217.008 402.5 209V177C402.5 168.992 396.008 162.5 388 162.5H44Z"
        stroke="url(#paint3_linear_4715_1473)"
        stroke-width="5"></path>
    </g>
    <path
      d="M44 164.5C37.0964 164.5 31.5 170.096 31.5 177V209C31.5 215.904 37.0964 221.5 44 221.5H388C394.904 221.5 400.5 215.904 400.5 209V177C400.5 170.096 394.904 164.5 388 164.5H44Z"
      fill="white"></path>
    <path
      d="M44 164.5C37.0964 164.5 31.5 170.096 31.5 177V209C31.5 215.904 37.0964 221.5 44 221.5H388C394.904 221.5 400.5 215.904 400.5 209V177C400.5 170.096 394.904 164.5 388 164.5H44Z"
      stroke="url(#paint4_linear_4715_1473)"></path>
    <g clip-path="url(#clip4_4715_1473)">
      <path d="M72 181H48V205H72V181Z" fill="#4F868E"></path>
      <path
        d="M62.44 189.084C61.9686 189.088 61.5042 189.198 61.0815 189.406C60.6589 189.615 60.2891 189.917 60 190.289C59.7112 189.917 59.3416 189.615 58.9192 189.406C58.4967 189.198 58.0324 189.088 57.5612 189.084C55.8037 189.084 54.375 190.596 54.375 192.458V196.147C54.375 196.346 54.454 196.537 54.5947 196.677C54.7353 196.818 54.9261 196.897 55.125 196.897C55.3239 196.897 55.5147 196.818 55.6553 196.677C55.796 196.537 55.875 196.346 55.875 196.147V192.456C55.875 191.421 56.6338 190.581 57.5663 190.581C58.4988 190.581 59.2575 191.424 59.2575 192.456V196.145C59.2575 196.344 59.3365 196.534 59.4772 196.675C59.6178 196.815 59.8086 196.894 60.0075 196.894C60.2064 196.894 60.3972 196.815 60.5378 196.675C60.6785 196.534 60.7575 196.344 60.7575 196.145V192.456C60.7575 191.421 61.5162 190.581 62.4487 190.581C63.3812 190.581 64.14 191.424 64.14 192.456V196.145C64.14 196.344 64.219 196.534 64.3597 196.675C64.5003 196.815 64.6911 196.894 64.89 196.894C65.0889 196.894 65.2797 196.815 65.4203 196.675C65.561 196.534 65.64 196.344 65.64 196.145V192.456C65.6262 190.596 64.1975 189.084 62.44 189.084Z"
        fill="#EBEAEF"></path>
      <path
        d="M60 183.616C57.5145 183.619 55.1317 184.608 53.3742 186.364C51.6167 188.121 50.628 190.504 50.625 192.988C50.628 195.473 51.6167 197.855 53.3742 199.612C55.1317 201.369 57.5145 202.357 60 202.36C62.4856 202.358 64.8686 201.369 66.6262 199.612C68.3838 197.855 69.3724 195.473 69.375 192.988C69.372 190.504 68.3833 188.121 66.6258 186.364C64.8683 184.608 62.4855 183.619 60 183.616ZM60 201.985C57.6139 201.983 55.3262 201.034 53.639 199.347C51.9517 197.661 51.0026 195.374 51 192.988C51.0026 190.603 51.9517 188.316 53.639 186.629C55.3262 184.942 57.6139 183.994 60 183.991C62.3861 183.994 64.6738 184.942 66.361 186.629C68.0483 188.316 68.9974 190.603 69 192.988C68.9974 195.374 68.0483 197.661 66.361 199.347C64.6738 201.034 62.3861 201.983 60 201.985Z"
        fill="#EBEAEF"></path>
    </g>
    <path
      d="M85.5312 187.633L81.7656 198H80.2266L84.5625 186.625H85.5547L85.5312 187.633ZM88.6875 198L84.9141 187.633L84.8906 186.625H85.8828L90.2344 198H88.6875ZM88.4922 193.789V195.023H82.1016V193.789H88.4922ZM96.6172 196.047V189.547H98.0703V198H96.6875L96.6172 196.047ZM96.8906 194.266L97.4922 194.25C97.4922 194.812 97.4323 195.333 97.3125 195.812C97.1979 196.286 97.0104 196.698 96.75 197.047C96.4896 197.396 96.1484 197.669 95.7266 197.867C95.3047 198.06 94.7917 198.156 94.1875 198.156C93.776 198.156 93.3984 198.096 93.0547 197.977C92.7161 197.857 92.4245 197.672 92.1797 197.422C91.9349 197.172 91.7448 196.846 91.6094 196.445C91.4792 196.044 91.4141 195.562 91.4141 195V189.547H92.8594V195.016C92.8594 195.396 92.901 195.711 92.9844 195.961C93.0729 196.206 93.1901 196.401 93.3359 196.547C93.487 196.688 93.6536 196.786 93.8359 196.844C94.0234 196.901 94.2161 196.93 94.4141 196.93C95.0286 196.93 95.5156 196.812 95.875 196.578C96.2344 196.339 96.4922 196.018 96.6484 195.617C96.8099 195.211 96.8906 194.76 96.8906 194.266ZM103.812 189.547V190.656H99.2422V189.547H103.812ZM100.789 187.492H102.234V195.906C102.234 196.193 102.279 196.409 102.367 196.555C102.456 196.701 102.57 196.797 102.711 196.844C102.852 196.891 103.003 196.914 103.164 196.914C103.284 196.914 103.409 196.904 103.539 196.883C103.674 196.857 103.776 196.836 103.844 196.82L103.852 198C103.737 198.036 103.586 198.07 103.398 198.102C103.216 198.138 102.995 198.156 102.734 198.156C102.38 198.156 102.055 198.086 101.758 197.945C101.461 197.805 101.224 197.57 101.047 197.242C100.875 196.909 100.789 196.461 100.789 195.898V187.492ZM104.969 193.867V193.688C104.969 193.078 105.057 192.513 105.234 191.992C105.411 191.466 105.667 191.01 106 190.625C106.333 190.234 106.737 189.932 107.211 189.719C107.685 189.5 108.216 189.391 108.805 189.391C109.398 189.391 109.932 189.5 110.406 189.719C110.885 189.932 111.292 190.234 111.625 190.625C111.964 191.01 112.221 191.466 112.398 191.992C112.576 192.513 112.664 193.078 112.664 193.688V193.867C112.664 194.477 112.576 195.042 112.398 195.562C112.221 196.083 111.964 196.539 111.625 196.93C111.292 197.315 110.888 197.617 110.414 197.836C109.945 198.049 109.414 198.156 108.82 198.156C108.227 198.156 107.693 198.049 107.219 197.836C106.745 197.617 106.339 197.315 106 196.93C105.667 196.539 105.411 196.083 105.234 195.562C105.057 195.042 104.969 194.477 104.969 193.867ZM106.414 193.688V193.867C106.414 194.289 106.464 194.688 106.562 195.062C106.661 195.432 106.81 195.76 107.008 196.047C107.211 196.333 107.464 196.56 107.766 196.727C108.068 196.888 108.419 196.969 108.82 196.969C109.216 196.969 109.562 196.888 109.859 196.727C110.161 196.56 110.411 196.333 110.609 196.047C110.807 195.76 110.956 195.432 111.055 195.062C111.159 194.688 111.211 194.289 111.211 193.867V193.688C111.211 193.271 111.159 192.878 111.055 192.508C110.956 192.133 110.805 191.802 110.602 191.516C110.404 191.224 110.154 190.995 109.852 190.828C109.555 190.661 109.206 190.578 108.805 190.578C108.409 190.578 108.06 190.661 107.758 190.828C107.461 190.995 107.211 191.224 107.008 191.516C106.81 191.802 106.661 192.133 106.562 192.508C106.464 192.878 106.414 193.271 106.414 193.688ZM116.406 198H114.961V188.812C114.961 188.172 115.086 187.63 115.336 187.188C115.586 186.745 115.943 186.409 116.406 186.18C116.87 185.951 117.419 185.836 118.055 185.836C118.43 185.836 118.797 185.883 119.156 185.977C119.516 186.065 119.885 186.177 120.266 186.312L120.023 187.531C119.784 187.438 119.505 187.349 119.188 187.266C118.875 187.177 118.531 187.133 118.156 187.133C117.536 187.133 117.089 187.273 116.812 187.555C116.542 187.831 116.406 188.25 116.406 188.812V198ZM118.133 189.547V190.656H113.625V189.547H118.133ZM120.977 189.547V198H119.531V189.547H120.977ZM124.922 186V198H123.469V186H124.922ZM128.812 186V198H127.359V186H128.812ZM137.242 196.5L139.414 189.547H140.367L140.18 190.93L137.969 198H137.039L137.242 196.5ZM135.781 189.547L137.633 196.578L137.766 198H136.789L134.336 189.547H135.781ZM142.445 196.523L144.211 189.547H145.648L143.195 198H142.227L142.445 196.523ZM140.578 189.547L142.703 196.383L142.945 198H142.023L139.75 190.914L139.562 189.547H140.578ZM148.703 189.547V198H147.25V189.547H148.703ZM147.141 187.305C147.141 187.07 147.211 186.872 147.352 186.711C147.497 186.549 147.711 186.469 147.992 186.469C148.268 186.469 148.479 186.549 148.625 186.711C148.776 186.872 148.852 187.07 148.852 187.305C148.852 187.529 148.776 187.721 148.625 187.883C148.479 188.039 148.268 188.117 147.992 188.117C147.711 188.117 147.497 188.039 147.352 187.883C147.211 187.721 147.141 187.529 147.141 187.305ZM154.562 189.547V190.656H149.992V189.547H154.562ZM151.539 187.492H152.984V195.906C152.984 196.193 153.029 196.409 153.117 196.555C153.206 196.701 153.32 196.797 153.461 196.844C153.602 196.891 153.753 196.914 153.914 196.914C154.034 196.914 154.159 196.904 154.289 196.883C154.424 196.857 154.526 196.836 154.594 196.82L154.602 198C154.487 198.036 154.336 198.07 154.148 198.102C153.966 198.138 153.745 198.156 153.484 198.156C153.13 198.156 152.805 198.086 152.508 197.945C152.211 197.805 151.974 197.57 151.797 197.242C151.625 196.909 151.539 196.461 151.539 195.898V187.492ZM157.703 186V198H156.258V186H157.703ZM157.359 193.453L156.758 193.43C156.763 192.852 156.849 192.318 157.016 191.828C157.182 191.333 157.417 190.904 157.719 190.539C158.021 190.174 158.38 189.893 158.797 189.695C159.219 189.492 159.685 189.391 160.195 189.391C160.612 189.391 160.987 189.448 161.32 189.562C161.654 189.672 161.938 189.849 162.172 190.094C162.411 190.339 162.594 190.656 162.719 191.047C162.844 191.432 162.906 191.904 162.906 192.461V198H161.453V192.445C161.453 192.003 161.388 191.648 161.258 191.383C161.128 191.112 160.938 190.917 160.688 190.797C160.438 190.672 160.13 190.609 159.766 190.609C159.406 190.609 159.078 190.685 158.781 190.836C158.49 190.987 158.237 191.195 158.023 191.461C157.815 191.727 157.651 192.031 157.531 192.375C157.417 192.714 157.359 193.073 157.359 193.453ZM169.734 186.625H171.195L174.922 195.898L178.641 186.625H180.109L175.484 198H174.344L169.734 186.625ZM169.258 186.625H170.547L170.758 193.562V198H169.258V186.625ZM179.289 186.625H180.578V198H179.078V193.562L179.289 186.625ZM186.516 198.156C185.927 198.156 185.393 198.057 184.914 197.859C184.44 197.656 184.031 197.372 183.688 197.008C183.349 196.643 183.089 196.211 182.906 195.711C182.724 195.211 182.633 194.664 182.633 194.07V193.742C182.633 193.055 182.734 192.443 182.938 191.906C183.141 191.365 183.417 190.906 183.766 190.531C184.115 190.156 184.51 189.872 184.953 189.68C185.396 189.487 185.854 189.391 186.328 189.391C186.932 189.391 187.453 189.495 187.891 189.703C188.333 189.911 188.695 190.203 188.977 190.578C189.258 190.948 189.466 191.385 189.602 191.891C189.737 192.391 189.805 192.938 189.805 193.531V194.18H183.492V193H188.359V192.891C188.339 192.516 188.26 192.151 188.125 191.797C187.995 191.443 187.786 191.151 187.5 190.922C187.214 190.693 186.823 190.578 186.328 190.578C186 190.578 185.698 190.648 185.422 190.789C185.146 190.924 184.909 191.128 184.711 191.398C184.513 191.669 184.359 192 184.25 192.391C184.141 192.781 184.086 193.232 184.086 193.742V194.07C184.086 194.471 184.141 194.849 184.25 195.203C184.365 195.552 184.529 195.859 184.742 196.125C184.961 196.391 185.224 196.599 185.531 196.75C185.844 196.901 186.198 196.977 186.594 196.977C187.104 196.977 187.536 196.872 187.891 196.664C188.245 196.456 188.555 196.177 188.82 195.828L189.695 196.523C189.513 196.799 189.281 197.062 189 197.312C188.719 197.562 188.372 197.766 187.961 197.922C187.555 198.078 187.073 198.156 186.516 198.156ZM195 198.156C194.411 198.156 193.878 198.057 193.398 197.859C192.924 197.656 192.516 197.372 192.172 197.008C191.833 196.643 191.573 196.211 191.391 195.711C191.208 195.211 191.117 194.664 191.117 194.07V193.742C191.117 193.055 191.219 192.443 191.422 191.906C191.625 191.365 191.901 190.906 192.25 190.531C192.599 190.156 192.995 189.872 193.438 189.68C193.88 189.487 194.339 189.391 194.812 189.391C195.417 189.391 195.938 189.495 196.375 189.703C196.818 189.911 197.18 190.203 197.461 190.578C197.742 190.948 197.951 191.385 198.086 191.891C198.221 192.391 198.289 192.938 198.289 193.531V194.18H191.977V193H196.844V192.891C196.823 192.516 196.745 192.151 196.609 191.797C196.479 191.443 196.271 191.151 195.984 190.922C195.698 190.693 195.307 190.578 194.812 190.578C194.484 190.578 194.182 190.648 193.906 190.789C193.63 190.924 193.393 191.128 193.195 191.398C192.997 191.669 192.844 192 192.734 192.391C192.625 192.781 192.57 193.232 192.57 193.742V194.07C192.57 194.471 192.625 194.849 192.734 195.203C192.849 195.552 193.013 195.859 193.227 196.125C193.445 196.391 193.708 196.599 194.016 196.75C194.328 196.901 194.682 196.977 195.078 196.977C195.589 196.977 196.021 196.872 196.375 196.664C196.729 196.456 197.039 196.177 197.305 195.828L198.18 196.523C197.997 196.799 197.766 197.062 197.484 197.312C197.203 197.562 196.857 197.766 196.445 197.922C196.039 198.078 195.557 198.156 195 198.156Z"
      fill="#162F4F"></path>
    <circle
      cx="416"
      cy="264"
      r="1"
      transform="rotate(-90 416 264)"
      fill="#020617"
      fill-opacity="0.1"></circle>
    <circle
      cx="427"
      cy="290"
      r="1"
      transform="rotate(-90 427 290)"
      fill="#020617"
      fill-opacity="0.1"></circle>
    <circle
      cx="438"
      cy="264"
      r="1"
      transform="rotate(-90 438 264)"
      fill="#020617"
      fill-opacity="0.1"></circle>
    <circle
      cx="426"
      cy="272"
      r="1"
      transform="rotate(-90 426 272)"
      fill="#020617"
      fill-opacity="0.1"></circle>
    <circle
      cx="442"
      cy="246"
      r="1"
      transform="rotate(-90 442 246)"
      fill="#020617"
      fill-opacity="0.1"></circle>
    <circle
      cx="434"
      cy="224"
      r="1"
      transform="rotate(-90 434 224)"
      fill="#020617"
      fill-opacity="0.1"></circle>
    <circle
      cx="416"
      cy="215"
      r="1"
      transform="rotate(-90 416 215)"
      fill="#020617"
      fill-opacity="0.35"></circle>
    <circle
      cx="407"
      cy="201"
      r="1"
      transform="rotate(-90 407 201)"
      fill="#020617"
      fill-opacity="0.1"></circle>
    <circle
      cx="416"
      cy="188"
      r="1"
      transform="rotate(-90 416 188)"
      fill="#020617"
      fill-opacity="0.1"></circle>
    <circle
      cx="427"
      cy="246"
      r="1"
      transform="rotate(-90 427 246)"
      fill="#020617"
      fill-opacity="0.1"></circle>
    <circle
      cx="416"
      cy="235"
      r="1"
      transform="rotate(-90 416 235)"
      fill="#020617"
      fill-opacity="0.1"></circle>
    <circle cx="290.5" cy="235.5" r="1" fill="#020617" fill-opacity="0.1"
    ></circle>
    <circle cx="264" cy="235.5" r="1" fill="#020617" fill-opacity="0.1"
    ></circle>
    <circle cx="245" cy="235.5" r="1" fill="#020617" fill-opacity="0.1"
    ></circle>
    <circle cx="304.5" cy="235.5" r="1" fill="#020617" fill-opacity="0.35"
    ></circle>
    <circle cx="276" cy="244.5" r="1" fill="#020617" fill-opacity="0.1"
    ></circle>
    <circle cx="316.5" cy="255.5" r="1" fill="#020617" fill-opacity="0.35"
    ></circle>
    <circle cx="285" cy="255.5" r="1" fill="#020617" fill-opacity="0.1"
    ></circle>
    <circle cx="298.5" cy="266.5" r="1" fill="#020617" fill-opacity="0.1"
    ></circle>
    <circle cx="308.5" cy="262.5" r="1" fill="#020617" fill-opacity="0.1"
    ></circle>
    <circle cx="330" cy="270.5" r="1" fill="#020617" fill-opacity="0.1"
    ></circle>
    <circle cx="356.5" cy="262.5" r="1" fill="#020617" fill-opacity="0.1"
    ></circle>
    <circle cx="365.5" cy="244.5" r="1" fill="#020617" fill-opacity="0.35"
    ></circle>
    <circle cx="356.5" cy="235.5" r="1" fill="#020617" fill-opacity="0.1"
    ></circle>
    <circle cx="392.5" cy="244.5" r="1" fill="#020617" fill-opacity="0.1"
    ></circle>
    <circle cx="392.5" cy="235.5" r="1" fill="#020617" fill-opacity="0.1"
    ></circle>
    <circle cx="265" cy="255.5" r="1" fill="#020617" fill-opacity="0.1"
    ></circle>
    <circle cx="330" cy="255.5" r="1" fill="#020617" fill-opacity="0.1"
    ></circle>
    <circle cx="345.5" cy="244.5" r="1" fill="#020617" fill-opacity="0.1"
    ></circle>
    <circle cx="329.5" cy="244.5" r="1" fill="#020617" fill-opacity="0.1"
    ></circle>
  </g>
  <defs>
    <filter
      id="filter0_d_4715_1473"
      x="87"
      y="116"
      width="355"
      height="62"
      filterUnits="userSpaceOnUse"
      color-interpolation-filters="sRGB"
    >
      <feFlood flood-opacity="0" result="BackgroundImageFix"></feFlood>
      <feColorMatrix
        in="SourceAlpha"
        type="matrix"
        values="0 0 0 0 0 0 0 0 0 0 0 0 0 0 0 0 0 0 127 0"
        result="hardAlpha"></feColorMatrix>
      <feMorphology
        radius="3"
        operator="dilate"
        in="SourceAlpha"
        result="effect1_dropShadow_4715_1473"></feMorphology>
      <feOffset></feOffset>
      <feComposite in2="hardAlpha" operator="out"></feComposite>
      <feColorMatrix
        type="matrix"
        values="0 0 0 0 0.392157 0 0 0 0 0.454902 0 0 0 0 0.545098 0 0 0 0.2 0"
      ></feColorMatrix>
      <feBlend
        mode="normal"
        in2="BackgroundImageFix"
        result="effect1_dropShadow_4715_1473"></feBlend>
      <feBlend
        mode="normal"
        in="SourceGraphic"
        in2="effect1_dropShadow_4715_1473"
        result="shape"></feBlend>
    </filter>
    <filter
      id="filter1_f_4715_1473"
      x="-3"
      y="130"
      width="438"
      height="126"
      filterUnits="userSpaceOnUse"
      color-interpolation-filters="sRGB"
    >
      <feFlood flood-opacity="0" result="BackgroundImageFix"></feFlood>
      <feBlend
        mode="normal"
        in="SourceGraphic"
        in2="BackgroundImageFix"
        result="shape"></feBlend>
      <feGaussianBlur
        stdDeviation="15"
        result="effect1_foregroundBlur_4715_1473"></feGaussianBlur>
    </filter>
    <linearGradient
      id="paint0_linear_4715_1473"
      x1="90"
      y1="119"
      x2="430.182"
      y2="208.513"
      gradientUnits="userSpaceOnUse"
    >
      <stop stop-color="#3B5B63"></stop>
      <stop offset="1" stop-color="#4F868E"></stop>
    </linearGradient>
    <linearGradient
      id="paint1_linear_4715_1473"
      x1="264.5"
      y1="42"
      x2="264.5"
      y2="234.5"
      gradientUnits="userSpaceOnUse"
    >
      <stop stop-color="#020617" stop-opacity="0.35"></stop>
      <stop offset="1" stop-color="#020617" stop-opacity="0"></stop>
    </linearGradient>
    <linearGradient
      id="paint2_linear_4715_1473"
      x1="247.5"
      y1="106"
      x2="247.5"
      y2="221"
      gradientUnits="userSpaceOnUse"
    >
      <stop stop-color="white" stop-opacity="0"></stop>
      <stop offset="1" stop-color="white"></stop>
    </linearGradient>
    <linearGradient
      id="paint3_linear_4715_1473"
      x1="32.3709"
      y1="165"
      x2="326.633"
      y2="342.211"
      gradientUnits="userSpaceOnUse"
    >
      <stop stop-color="#F4B62B"></stop>
      <stop offset="0.5" stop-color="#BC52AD"></stop>
      <stop offset="1" stop-color="#668E4F"></stop>
    </linearGradient>
    <linearGradient
      id="paint4_linear_4715_1473"
      x1="32.3709"
      y1="165"
      x2="326.633"
      y2="342.211"
      gradientUnits="userSpaceOnUse"
    >
      <stop stop-color="#F4B62B"></stop>
      <stop offset="0.5" stop-color="#BC52AD"></stop>
      <stop offset="1" stop-color="#668E4F"></stop>
    </linearGradient>
    <clipPath id="clip0_4715_1473">
      <rect width="495" height="420" fill="white"></rect>
    </clipPath>
    <clipPath id="clip1_4715_1473">
      <rect x="66" y="42" width="397" height="892" rx="32" fill="white"></rect>
    </clipPath>
    <clipPath id="clip2_4715_1473">
      <rect x="82" y="58" width="365" height="117" rx="3" fill="white"></rect>
    </clipPath>
    <clipPath id="clip3_4715_1473">
      <path
        d="M90 127C90 122.582 93.5817 119 98 119H431C435.418 119 439 122.582 439 127V167C439 171.418 435.418 175 431 175H98C93.5817 175 90 171.418 90 167V127Z"
        fill="white"></path>
    </clipPath>
    <clipPath id="clip4_4715_1473">
      <rect x="48" y="181" width="24" height="24" rx="3" fill="white"></rect>
    </clipPath>
  </defs>
</svg>
