<svg width="364" height="281" viewBox="0 0 364 281" fill="none" xmlns="http://www.w3.org/2000/svg">
<path fill-rule="evenodd" clip-rule="evenodd" d="M180.87 0C206.478 0 228.75 13.7476 240.151 33.9922C249.706 29.2219 260.559 26.5267 272.065 26.5267C310.399 26.5267 341.475 56.4391 341.475 93.3379C341.475 99.0157 340.739 104.528 339.354 109.791C354.254 121.593 363.767 139.548 363.767 159.658C363.767 179.872 354.155 197.91 339.122 209.708C339.338 211.828 339.448 213.978 339.448 216.154C339.448 251.967 309.507 281 272.572 281C252.839 281 235.103 272.713 222.862 259.533C205.09 272.396 183.01 280.017 159.085 280.017C128.738 280.017 101.358 267.756 81.9755 248.087C74.4897 251.569 66.1021 253.52 57.2447 253.52C25.6294 253.52 0 228.669 0 198.013C0 177.536 11.4354 159.649 28.4517 150.028C17.03 137.154 10.1332 120.444 10.1332 102.182C10.1332 61.4844 44.3846 28.4928 86.6358 28.4928C98.782 28.4928 110.267 31.2193 120.467 36.0716C131.484 14.6948 154.394 0 180.87 0Z" fill="white"/>
</svg>
