<svg width="93" height="88" viewBox="0 0 93 88" fill="none" xmlns="http://www.w3.org/2000/svg">
<g filter="url(#filter0_d_3153_2240)">
<path d="M84.5938 49.4863V56.2601C84.5938 64.8373 80.2424 72.6653 72.9437 77.1693L69.144 79.511C68.7448 79.7577 68.2872 79.8878 67.8252 79.8878C67.3631 79.8878 66.91 79.7577 66.4973 79.502L62.7201 77.1693C61.3205 76.299 60.024 75.3121 58.8487 74.2175H17.8154V73.0422H57.6599C53.4566 68.5562 51.0566 62.6167 51.0566 56.2601V49.4818C51.0566 48.2033 52.021 47.1177 53.304 46.9786C57.965 46.4493 62.1997 44.5876 66.2506 41.3083C67.1657 40.5771 68.4846 40.5771 69.3908 41.3083C70.2969 42.0261 71.2031 42.6721 72.1182 43.2597V40.308C72.1182 38.5315 70.9923 37.0153 69.4132 36.441L69.7586 35.333C71.8132 36.0597 73.298 38.0022 73.298 40.308V43.964C76.178 45.6149 79.1702 46.6153 82.3552 46.9786H82.3597C83.6382 47.1177 84.5938 48.2033 84.5938 49.4863ZM80.5115 56.2601V50.85C75.9672 50.0964 71.8132 48.2706 67.8252 45.2695C63.8371 48.2706 59.6831 50.0964 55.1388 50.85V56.2601C55.1388 63.4153 58.7769 69.9334 64.8599 73.6971L67.8252 75.5229L70.7904 73.6971C76.8734 69.9334 80.5115 63.4153 80.5115 56.2601Z" fill="#54214D"/>
<path d="M80.5069 50.8501V56.2602C80.5114 63.4153 76.8733 69.9335 70.7903 73.6972L67.825 75.523L64.8598 73.6972C58.7768 69.9335 55.1387 63.4153 55.1387 56.2602V50.8501C59.683 50.0964 63.837 48.2707 67.825 45.2695C71.8131 48.2707 75.9671 50.0964 80.5069 50.8501ZM70.5435 60.9077C71.7323 60.0598 72.4501 58.6736 72.4501 57.1798C72.4501 54.6138 70.3775 52.5323 67.825 52.5323C65.2725 52.5323 63.2 54.6138 63.2 57.1798C63.2 58.6736 63.9312 60.0598 65.12 60.9077L63.7921 65.591C63.7428 65.7705 63.7787 65.9589 63.8863 66.0979C64.003 66.2505 64.169 66.3312 64.3574 66.3312H71.2972C71.4856 66.3312 71.6605 66.2505 71.7682 66.0979C71.8848 65.9589 71.9207 65.7705 71.8624 65.591L70.5435 60.9077Z" fill="#200E1E"/>
<path d="M72.1182 40.3081V43.2598C71.2031 42.6722 70.2969 42.0262 69.3908 41.3084C68.4846 40.5772 67.1657 40.5772 66.2506 41.3084C62.1997 44.5877 57.965 46.4494 53.304 46.9787C52.021 47.1178 51.0566 48.2034 51.0566 49.4819V56.2602C51.0566 62.6169 53.4566 68.5563 57.6599 73.0423H17.8154C19.3362 71.9208 20.3366 70.1219 20.3366 68.0987V40.3081C20.3366 38.0337 22.1848 36.1899 24.4637 36.1899H68.0001C68.498 36.1899 68.9736 36.2797 69.4132 36.4412C70.9922 37.0154 72.1182 38.5316 72.1182 40.3081ZM48.0823 61.0154C48.0823 60.6879 47.8222 60.4277 47.4947 60.4277H26.599C26.267 60.4277 26.0068 60.6879 26.0068 61.0154C26.0068 61.3428 26.267 61.603 26.599 61.603H47.4947C47.8222 61.603 48.0823 61.3428 48.0823 61.0154ZM48.0823 65.12C48.0823 64.7926 47.8222 64.5324 47.4947 64.5324H26.599C26.267 64.5324 26.0068 64.7926 26.0068 65.12C26.0068 65.4475 26.267 65.7122 26.599 65.7122H47.4947C47.8222 65.7122 48.0823 65.452 48.0823 65.12Z" fill="#200E1E"/>
<path d="M72.45 57.1798C72.45 58.6737 71.7323 60.0598 70.5435 60.9077L71.8624 65.591C71.9207 65.7705 71.8848 65.9589 71.7682 66.098C71.6605 66.2505 71.4856 66.3312 71.2971 66.3312H64.3573C64.1689 66.3312 64.0029 66.2505 63.8863 66.098C63.7786 65.9589 63.7428 65.7705 63.7921 65.591L65.12 60.9077C63.9312 60.0598 63.2 58.6737 63.2 57.1798C63.2 54.6138 65.2725 52.5323 67.825 52.5323C70.3775 52.5323 72.45 54.6138 72.45 57.1798Z" fill="#8C3680"/>
<path d="M69.7584 35.3331L69.413 36.4412C68.9734 36.2797 68.4979 36.1899 67.9999 36.1899H24.4635C22.1846 36.1899 20.3364 38.0337 20.3364 40.3081V68.0987C20.3364 70.1219 19.336 71.9208 17.8152 73.0423V74.2176H14.2399C10.862 74.2176 8.11206 71.4767 8.11206 68.0987V23.7055C8.11206 20.7851 10.4896 18.4075 13.419 18.4075H15.3928V14.0068C15.3928 10.7589 18.0395 8.11218 21.2874 8.11218H63.4736C66.7214 8.11218 69.3681 10.7589 69.3681 14.0068V35.212C69.4982 35.2479 69.6283 35.2883 69.7584 35.3331ZM63.9311 30.9638V24.9974C63.9311 24.1496 63.2493 23.4587 62.4014 23.4587H50.693C49.8451 23.4587 49.1633 24.1496 49.1633 24.9974V30.9638C49.1633 31.8116 49.8451 32.4935 50.693 32.4935H62.4014C63.2493 32.4935 63.9311 31.8116 63.9311 30.9638ZM58.4807 19.3855V14.8322C58.4807 13.9619 57.7764 13.2666 56.9061 13.2666H27.8549C26.9846 13.2666 26.2893 13.9619 26.2893 14.8322V19.3855C26.2893 20.2423 26.9846 20.9511 27.8549 20.9511H56.9061C57.7764 20.9511 58.4807 20.2423 58.4807 19.3855ZM46.0321 25.1141C46.0321 24.7148 45.7046 24.3873 45.3053 24.3873H22.4986C22.0994 24.3873 21.7719 24.7148 21.7719 25.1141C21.7719 25.5133 22.0994 25.8453 22.4986 25.8453H45.3053C45.7046 25.8453 46.0321 25.5178 46.0321 25.1141ZM46.0321 31.3182C46.0321 30.9144 45.7046 30.5869 45.3053 30.5869H22.4986C22.0994 30.5869 21.7719 30.9144 21.7719 31.3182C21.7719 31.7219 22.0994 32.0449 22.4986 32.0449H45.3053C45.7046 32.0449 46.0321 31.7174 46.0321 31.3182ZM19.1565 68.0987V66.1114C16.9225 65.2412 15.3928 63.061 15.3928 60.6385V19.5828H13.4145C11.1446 19.5828 9.28739 21.4311 9.28739 23.701V68.0987C9.28739 70.8172 11.499 73.0288 14.204 73.0423H14.2175C16.936 73.0423 19.1565 70.8262 19.1565 68.0987Z" fill="#54214D"/>
<path d="M63.9312 24.9974V30.9638C63.9312 31.8116 63.2493 32.4935 62.4015 32.4935H50.693C49.8452 32.4935 49.1633 31.8116 49.1633 30.9638V24.9974C49.1633 24.1496 49.8452 23.4587 50.693 23.4587H62.4015C63.2493 23.4587 63.9312 24.1496 63.9312 24.9974Z" fill="#200E1E"/>
<path d="M58.4807 14.8322V19.3855C58.4807 20.2423 57.7764 20.9511 56.9061 20.9511H27.8549C26.9846 20.9511 26.2893 20.2423 26.2893 19.3855V14.8322C26.2893 13.9619 26.9846 13.2666 27.8549 13.2666H56.9061C57.7764 13.2666 58.4807 13.9619 58.4807 14.8322Z" fill="#200E1E"/>
<path d="M47.4947 60.4277C47.8222 60.4277 48.0823 60.6879 48.0823 61.0154C48.0823 61.3429 47.8222 61.6031 47.4947 61.6031H26.599C26.267 61.6031 26.0068 61.3429 26.0068 61.0154C26.0068 60.6879 26.267 60.4277 26.599 60.4277H47.4947Z" fill="#8C3680"/>
<path d="M47.4947 64.5323C47.8222 64.5323 48.0823 64.7925 48.0823 65.12C48.0823 65.4475 47.8222 65.7122 47.4947 65.7122H26.599C26.267 65.7122 26.0068 65.452 26.0068 65.12C26.0068 64.7881 26.267 64.5323 26.599 64.5323H47.4947Z" fill="#8C3680"/>
<path d="M45.3054 24.3873C45.7047 24.3873 46.0322 24.7148 46.0322 25.1141C46.0322 25.5133 45.7047 25.8453 45.3054 25.8453H22.4987C22.0994 25.8453 21.772 25.5178 21.772 25.1141C21.772 24.7103 22.0994 24.3873 22.4987 24.3873H45.3054Z" fill="#200E1E"/>
<path d="M45.3054 30.5869C45.7047 30.5869 46.0322 30.9144 46.0322 31.3181C46.0322 31.7219 45.7047 32.0449 45.3054 32.0449H22.4987C22.0994 32.0449 21.772 31.7174 21.772 31.3181C21.772 30.9189 22.0994 30.5869 22.4987 30.5869H45.3054Z" fill="#200E1E"/>
<path d="M19.1568 66.1114V68.0987C19.1568 70.8261 16.9362 73.0422 14.2177 73.0422H14.2042C11.4992 73.0287 9.2876 70.8172 9.2876 68.0987V23.7009C9.2876 21.431 11.1448 19.5828 13.4147 19.5828H15.393V60.6385C15.393 63.0609 16.9227 65.2411 19.1568 66.1114Z" fill="#200E1E"/>
</g>
<defs>
<filter id="filter0_d_3153_2240" x="0.112061" y="0.112183" width="92.4817" height="87.7756" filterUnits="userSpaceOnUse" color-interpolation-filters="sRGB">
<feFlood flood-opacity="0" result="BackgroundImageFix"/>
<feColorMatrix in="SourceAlpha" type="matrix" values="0 0 0 0 0 0 0 0 0 0 0 0 0 0 0 0 0 0 127 0" result="hardAlpha"/>
<feOffset/>
<feGaussianBlur stdDeviation="4"/>
<feComposite in2="hardAlpha" operator="out"/>
<feColorMatrix type="matrix" values="0 0 0 0 0.737255 0 0 0 0 0.321569 0 0 0 0 0.678431 0 0 0 0.28 0"/>
<feBlend mode="normal" in2="BackgroundImageFix" result="effect1_dropShadow_3153_2240"/>
<feBlend mode="normal" in="SourceGraphic" in2="effect1_dropShadow_3153_2240" result="shape"/>
</filter>
</defs>
</svg>
