<svg width="79" height="80" viewBox="0 0 79 80" fill="none" xmlns="http://www.w3.org/2000/svg">
<g filter="url(#filter0_d_3153_2553)">
<path d="M21.6004 68.3527H53.6278C61.0493 68.3527 67.1226 62.2794 67.1226 54.8578V21.6047C67.1226 19.1407 66.4549 16.8247 65.2842 14.8298C67.8411 16.8036 69.4936 19.9015 69.4936 23.3798V55.8257C69.4936 64.0248 62.8202 70.6941 54.621 70.6941H22.864C19.1364 70.6941 15.844 68.8007 13.8999 65.9225C16.0849 67.4524 18.7433 68.3527 21.6004 68.3527Z" fill="#18282B"/>
<path d="M39.3301 47.6772L39.516 47.618C40.5599 47.432 41.4771 47.0009 42.0941 46.4515C43.0112 45.5936 43.5057 44.3637 43.5057 42.7069C43.5057 41.7898 41.4771 40.991 39.4568 40.6825L39.2709 40.6233V47.6772H39.3301ZM31.6634 33.6921C31.9085 35.4672 33.933 36.266 35.5897 36.6336L35.8348 36.697V28.4767L35.5897 28.5359C34.6684 28.781 33.4427 29.3347 32.5848 30.3152C31.786 31.2366 31.4775 32.3396 31.6634 33.6921ZM31.6634 42.6478C31.6634 42.7703 31.7226 45.9613 35.5897 47.2503L35.8348 47.3095V40.3148H35.7123C33.1342 39.8246 28.781 38.413 28.2274 34.2415C27.9188 31.8494 28.5359 29.7616 30.0067 28.0457C31.3549 26.5749 33.4427 25.4084 35.7757 24.9773H35.8982V21.5413H39.3935V24.9181H39.516C44.9131 25.8353 46.815 31.1732 47.0601 33.8738L47.1235 34.4866L43.6283 34.8543L43.5649 34.2415C43.5649 34.0598 43.0746 29.7024 39.5752 28.5359L39.3301 28.4767V37.2465L39.4526 37.1873C42.2758 37.555 47.0009 38.7806 47.0009 42.7703C47.0009 45.4076 46.0796 47.618 44.4228 49.0888C42.7661 50.5596 40.8051 51.0498 39.4568 51.1766H39.2709V54.9803H35.7757V50.9272L35.6531 50.8681C28.1682 49.2113 28.1682 42.6478 28.1682 42.5844V41.9716L31.6634 42.035V42.6478Z" fill="#18282B"/>
<path d="M67.1229 21.6048V54.858C67.1229 62.2795 61.0496 68.3528 53.6281 68.3528H21.6006C18.7436 68.3528 16.0852 67.4526 13.9001 65.9226C12.7337 64.1983 12.0532 62.1189 12.0532 59.8831V27.9233C12.0532 19.4578 18.938 12.5688 27.4076 12.5688H58.6828C61.1637 12.5688 63.4586 13.4099 65.2844 14.83C66.4551 16.8248 67.1229 19.1409 67.1229 21.6048ZM28.1684 42.5846C28.1684 42.648 28.1684 49.2115 35.6533 50.8683L35.7759 50.9274V54.9805H39.2711V51.1768H39.457C40.8053 51.05 42.7663 50.5597 44.423 49.089C46.0798 47.6182 47.0011 45.4078 47.0011 42.7705C47.0011 38.7808 42.276 37.5552 39.4528 37.1875L39.3302 37.2467V28.4769L39.5754 28.5361C43.0748 29.7026 43.5651 34.06 43.5651 34.2417L43.6285 34.8545L47.1237 34.4868L47.0603 33.874C46.8152 31.1734 44.9133 25.8354 39.5162 24.9183H39.3936V21.5414H35.8984V24.9775H35.7759C33.4429 25.4086 31.3551 26.5751 30.0069 28.0458C28.5361 29.7617 27.919 31.8496 28.2276 34.2417C28.7812 38.4131 33.1344 39.8247 35.7125 40.315H35.835V47.3097L35.5899 47.2505C31.7228 45.9614 31.6636 42.7705 31.6636 42.648V42.0351L28.1684 41.9717V42.5846Z" fill="#335F66"/>
<path d="M53.628 8.10571C57.4782 8.10571 60.965 9.74132 63.4332 12.349C61.9751 11.7193 60.3691 11.3685 58.6827 11.3685H27.4076C18.2786 11.3685 10.8529 18.7942 10.8529 27.9232V59.883C10.8529 61.2524 11.0811 62.5668 11.5122 63.7924C9.39476 61.4088 8.10571 58.277 8.10571 54.8579V21.6048C8.10571 14.179 14.179 8.10571 21.6005 8.10571H53.628Z" fill="#335F66"/>
<path d="M39.5161 47.6182L39.3302 47.6774H39.271V40.6235L39.457 40.6827C41.4772 40.9912 43.5058 41.79 43.5058 42.7071C43.5058 44.3639 43.0113 45.5938 42.0942 46.4517C41.4772 47.0011 40.56 47.4322 39.5161 47.6182Z" fill="#335F66"/>
<path d="M35.8348 28.4768V36.6971L35.5896 36.6337C33.9329 36.266 31.9084 35.4672 31.6633 33.6922C31.4774 32.3397 31.7859 31.2366 32.5847 30.3153C33.4426 29.3348 34.6683 28.7811 35.5896 28.536L35.8348 28.4768Z" fill="#335F66"/>
<path d="M22.8642 71.8943C17.6109 71.8943 13.1309 68.5005 11.5122 63.7923C12.218 64.5953 13.021 65.3096 13.9001 65.9224C15.8442 68.8006 19.1366 70.694 22.8642 70.694H54.6212C62.8204 70.694 69.4939 64.0248 69.4939 55.8256V23.3797C69.4939 19.9014 67.8413 16.8035 65.2844 14.8298C64.7645 13.9338 64.139 13.1012 63.4332 12.3489C67.7019 14.1916 70.6941 18.4433 70.6941 23.3797V55.8256C70.6941 64.6883 63.4839 71.8943 54.6212 71.8943H22.8642Z" fill="#335F66"/>
<path d="M10.8528 27.9231C10.8528 18.7941 18.2785 11.3684 27.4075 11.3684H58.6827C60.369 11.3684 61.975 11.7192 63.4331 12.3489C64.1389 13.1012 64.7644 13.9338 65.2843 14.8298C63.4585 13.4097 61.1636 12.5687 58.6827 12.5687H27.4075C18.9378 12.5687 12.0531 19.4577 12.0531 27.9231V59.883C12.0531 62.1187 12.7335 64.1981 13.9 65.9225C13.0209 65.3096 12.2179 64.5954 11.5121 63.7924C11.081 62.5667 10.8528 61.2523 10.8528 59.883V27.9231Z" fill="#335F66"/>
</g>
<defs>
<filter id="filter0_d_3153_2553" x="0.105713" y="0.105713" width="78.5884" height="79.7886" filterUnits="userSpaceOnUse" color-interpolation-filters="sRGB">
<feFlood flood-opacity="0" result="BackgroundImageFix"/>
<feColorMatrix in="SourceAlpha" type="matrix" values="0 0 0 0 0 0 0 0 0 0 0 0 0 0 0 0 0 0 127 0" result="hardAlpha"/>
<feOffset/>
<feGaussianBlur stdDeviation="4"/>
<feComposite in2="hardAlpha" operator="out"/>
<feColorMatrix type="matrix" values="0 0 0 0 0.266667 0 0 0 0 0.498039 0 0 0 0 0.533333 0 0 0 0.6 0"/>
<feBlend mode="normal" in2="BackgroundImageFix" result="effect1_dropShadow_3153_2553"/>
<feBlend mode="normal" in="SourceGraphic" in2="effect1_dropShadow_3153_2553" result="shape"/>
</filter>
</defs>
</svg>
