<svg fill="none" height="262" viewBox="0 0 262 262" width="262" xmlns="http://www.w3.org/2000/svg"><path d="m130.61 24.82 20.68-24.82 12.01 29.99 27.34-17.21 2.15 32.24 31.32-7.92-7.92 31.32 32.24 2.15-17.22 27.34 30 12.01-24.82 20.68 24.82 20.69-30 12 17.22 27.34-32.24 2.15 7.92 31.32-31.32-7.92-2.15 32.24-27.34-17.21-12.01 30-20.68-24.82-20.69 24.82-12-30-27.3501 17.21-2.1399-32.24-31.33 7.92 7.92-31.32-32.23-2.15 17.21-27.34-30-12 24.8199-20.69-24.8199-20.68 30-12.01-17.21-27.34 32.23-2.15-7.92-31.32 31.33 7.92 2.1399-32.24 27.3501 17.21 12-29.99z" fill="#4eb3b2"/></svg>