<svg width="49" height="64" viewBox="0 0 49 64" fill="none" xmlns="http://www.w3.org/2000/svg">
<path d="M27.85 48.31C25.95 50.27 24.03 51.95 21.9 53.77C21.79 53.86 21.73 53.89 21.75 53.89C21.75 53.89 21.5 53.77 21.18 52.9C21 52.41 20.84 51.94 20.67 51.46L20.59 51.24C20.39 50.66 20.18 50.06 19.93 49.39C19.67 48.68 19.19 48.55 18.92 48.54H18.89C17.99 48.54 17.33 49.59 16.36 51.64L16.32 51.72C16.28 51.8 16.25 51.87 16.22 51.92C15.95 52.46 15.56 53.13 14.98 53.52C14.67 53.73 13.84 54.27 12.54 52.63C14.12 50.82 15.11 48.87 15.48 46.85C15.7 45.66 15.44 44.58 14.77 43.87C13.71 42.74 11.77 42.64 10.45 43.63C9.39 44.43 8.72 45.82 8.71 47.27C8.71 49.29 9.77 51.2 10.62 52.49C9.94 53.16 9.17 53.81 8.33 54.42C8.17 54.54 8.06 54.71 8.03 54.91C8 55.11 8.05 55.3 8.16 55.47C8.3 55.66 8.53 55.78 8.76 55.78C8.92 55.78 9.07 55.73 9.2 55.64C10.03 55.04 10.8 54.4 11.5 53.73C13.33 55.9 14.98 55.32 15.8 54.77C16.68 54.19 17.2 53.31 17.55 52.6C17.58 52.53 17.64 52.42 17.7 52.29C18.17 51.3 18.49 50.74 18.69 50.42C18.86 50.89 19.01 51.32 19.16 51.74C19.35 52.3 19.54 52.83 19.75 53.41C20.15 54.53 20.67 55.16 21.33 55.34C21.68 55.43 22.23 55.44 22.84 54.91C25 53.06 26.95 51.36 28.89 49.35C29.18 49.05 29.17 48.58 28.87 48.29C28.57 48.01 28.1 48.01 27.81 48.31H27.85ZM14.02 46.59C13.72 48.23 12.93 49.84 11.68 51.36C10.68 49.76 10.22 48.47 10.22 47.29C10.22 46.32 10.67 45.35 11.36 44.84C11.69 44.6 12.12 44.46 12.55 44.46C13.01 44.46 13.42 44.62 13.69 44.91C14.02 45.26 14.14 45.89 14.02 46.6V46.59ZM8.16 14.74C8.16 14.33 8.5 13.99 8.91 13.99H25.9C26.31 13.99 26.65 14.33 26.65 14.74C26.65 15.15 26.31 15.49 25.9 15.49H8.91C8.5 15.49 8.16 15.15 8.16 14.74ZM39.91 30.67C39.91 31.08 39.57 31.42 39.16 31.42H8.91C8.5 31.42 8.16 31.08 8.16 30.67C8.16 30.26 8.5 29.92 8.91 29.92H39.17C39.58 29.92 39.92 30.26 39.92 30.67H39.91ZM47.56 13.92L34.15 0.51C33.83 0.19 33.38 0 32.92 0H4.93C2.21 0 0 2.21 0 4.93V59.07C0 61.79 2.21 64 4.93 64H43.15C45.87 64 48.08 61.79 48.08 59.07V15.15C48.08 14.68 47.9 14.25 47.57 13.92H47.56ZM36.76 13.75C35.42 13.75 34.32 12.66 34.32 11.31V2.8L45.27 13.75H36.76ZM43.14 62.51H4.93C3.04 62.51 1.5 60.97 1.5 59.08V4.93C1.5 3.04 3.04 1.5 4.93 1.5H32.84V11.32C32.84 13.49 34.6 15.25 36.77 15.25H46.59V59.08C46.59 60.97 45.05 62.51 43.16 62.51H43.14ZM39.91 38.64C39.91 39.05 39.57 39.39 39.16 39.39H18.72C18.31 39.39 17.97 39.05 17.97 38.64C17.97 38.23 18.31 37.89 18.72 37.89H39.16C39.57 37.89 39.91 38.23 39.91 38.64ZM39.91 22.71C39.91 23.12 39.57 23.46 39.16 23.46H8.91C8.5 23.46 8.16 23.12 8.16 22.71C8.16 22.3 8.5 21.96 8.91 21.96H39.17C39.58 21.96 39.92 22.3 39.92 22.71H39.91Z" fill="white"/>
</svg>
