<svg width="1440" height="820" viewBox="0 0 1440 820" fill="none" xmlns="http://www.w3.org/2000/svg">
  <g opacity="0.4">
    <line x1="589.691" y1="302.393" x2="204.691" y2="0.393426" stroke="url(#paint0_linear_0_1)" />
    <line x1="642.603" y1="304.303" x2="410.603" y2="0.303329" stroke="url(#paint1_linear_0_1)" />
    <line x1="695.517" y1="304.129" x2="614.517" y2="0.128727" stroke="url(#paint2_linear_0_1)" />
    <line x1="748.513" y1="303.886" x2="819.513" y2="-0.113736" stroke="url(#paint3_linear_0_1)" />
    <line x1="801.597" y1="303.704" x2="1024.6" y2="-0.295757" stroke="url(#paint4_linear_0_1)" />
    <line x1="854.685" y1="303.612" x2="1229.69" y2="-0.3884" stroke="url(#paint5_linear_0_1)" />
  </g>
  <g opacity="0.4">
    <line y1="-0.5" x2="489.315" y2="-0.5" transform="matrix(-0.786814 0.61719 0.61719 0.786814 590 517)"
      stroke="url(#paint6_linear_0_1)" />
    <line y1="-0.5" x2="382.413" y2="-0.5" transform="matrix(-0.606673 0.794951 0.794951 0.606673 643 515)"
      stroke="url(#paint7_linear_0_1)" />
    <line y1="-0.5" x2="314.606" y2="-0.5" transform="matrix(-0.257465 0.966288 0.966288 0.257465 696 515)"
      stroke="url(#paint8_linear_0_1)" />
    <line y1="-0.5" x2="312.181" y2="-0.5" transform="matrix(0.227432 0.973794 0.973794 -0.227432 749 515)"
      stroke="url(#paint9_linear_0_1)" />
    <line y1="-0.5" x2="377.021" y2="-0.5" transform="matrix(0.591479 0.806321 0.806321 -0.591479 802 515)"
      stroke="url(#paint10_linear_0_1)" />
    <line y1="-0.5" x2="482.743" y2="-0.5" transform="matrix(0.776811 0.629734 0.629734 -0.776811 855 515)"
      stroke="url(#paint11_linear_0_1)" />
  </g>
  <g opacity="0.1">
    <rect x="77.5" y="44.5" width="1283" height="731" stroke="#F9B689" />
    <rect x="176.5" y="100.5" width="1087" height="619" stroke="#F9B689" />
    <rect x="265.5" y="150.5" width="909" height="517" stroke="#F9B689" />
    <rect x="351.5" y="198.5" width="741" height="421" stroke="#F9B689" />
    <rect x="407.5" y="231.5" width="629" height="357" stroke="#F9B689" />
    <rect x="449.5" y="255.5" width="545" height="309" stroke="#F9B689" />
    <rect x="481.5" y="273.5" width="481" height="273" stroke="#F9B689" />
    <rect x="512.5" y="291.5" width="419" height="237" stroke="#F9B689" />
    <rect x="535.5" y="304.5" width="373" height="211" stroke="#F9B689" />
    <rect x="550.5" y="314.5" width="343" height="201" stroke="#F9B689" />

  </g>
  <g opacity="0.1">
    <line x1="909.751" y1="303.566" x2="1439.75" y2="-0.43372" stroke="#F9B689" />
    <line x1="909.812" y1="334.537" x2="1438.81" y2="119.537" stroke="#F9B689" />
    <line x1="909.88" y1="365.515" x2="1439.88" y2="234.515" stroke="#F9B689" />
    <line x1="909.958" y1="396.502" x2="1438.96" y2="351.502" stroke="#F9B689" />
    <line x1="910.041" y1="427.502" x2="1439.04" y2="471.502" stroke="#F9B689" />
    <line x1="910.118" y1="458.514" x2="1439.12" y2="586.514" stroke="#F9B689" />
    <line x1="910.188" y1="489.537" x2="1439.19" y2="704.537" stroke="#F9B689" />
    <line x1="909.249" y1="514.566" x2="1439.25" y2="818.566" stroke="#F9B689" />
  </g>
  <g opacity="0.4">
    <line y1="-0.5" x2="610.996" y2="-0.5" transform="matrix(-0.867436 -0.497548 -0.497548 0.867436 530 304)"
      stroke="url(#paint20_linear_0_1)" />
    <line y1="-0.5" x2="571.022" y2="-0.5" transform="matrix(-0.926409 -0.376518 -0.376518 0.926409 530 335)"
      stroke="url(#paint21_linear_0_1)" />
    <line y1="-0.5" x2="545.95" y2="-0.5" transform="matrix(-0.970786 -0.239949 -0.239949 0.970786 530 366)"
      stroke="url(#paint22_linear_0_1)" />
    <line y1="-0.5" x2="530.911" y2="-0.5" transform="matrix(-0.996401 -0.08476 -0.08476 0.996401 530 397)"
      stroke="url(#paint23_linear_0_1)" />
    <line y1="-0.5" x2="530.827" y2="-0.5" transform="matrix(-0.996559 0.0828896 0.0828896 0.996559 530 428)"
      stroke="url(#paint24_linear_0_1)" />
    <line y1="-0.5" x2="544.266" y2="-0.5" transform="matrix(-0.971952 0.235179 0.235179 0.971952 530 459)"
      stroke="url(#paint25_linear_0_1)" />
    <line y1="-0.5" x2="571.022" y2="-0.5" transform="matrix(-0.926409 0.376518 0.376518 0.926409 530 490)"
      stroke="url(#paint26_linear_0_1)" />
    <line y1="-0.5" x2="610.996" y2="-0.5" transform="matrix(-0.867436 0.497548 0.497548 0.867436 531 515)"
      stroke="url(#paint27_linear_0_1)" />
  </g>
  <defs>
    <linearGradient id="paint0_linear_0_1" x1="205.002" y1="-0.00300359" x2="592.245" y2="302.407"
      gradientUnits="userSpaceOnUse">
      <stop stop-color="#F9B689" stop-opacity="0.3" />
      <stop offset="1" stop-color="#F9B689" stop-opacity="0.3" />
    </linearGradient>
    <linearGradient id="paint1_linear_0_1" x1="411.003" y1="-0.00233839" x2="644.476" y2="304.859"
      gradientUnits="userSpaceOnUse">
      <stop stop-color="#F9B689" stop-opacity="0.3" />
      <stop offset="1" stop-color="#F9B689" stop-opacity="0.3" />
    </linearGradient>
    <linearGradient id="paint2_linear_0_1" x1="615.004" y1="-0.00099774" x2="696.762" y2="305.141"
      gradientUnits="userSpaceOnUse">
      <stop stop-color="#F9B689" stop-opacity="0.3" />
      <stop offset="1" stop-color="#F9B689" stop-opacity="0.3" />
    </linearGradient>
    <linearGradient id="paint3_linear_0_1" x1="820.004" y1="0.000846731" x2="749.131" y2="305.354"
      gradientUnits="userSpaceOnUse">
      <stop stop-color="#F9B689" stop-opacity="0.3" />
      <stop offset="1" stop-color="#F9B689" stop-opacity="0.3" />
    </linearGradient>
    <linearGradient id="paint4_linear_0_1" x1="1025" y1="0.0022447" x2="801.591" y2="305.629"
      gradientUnits="userSpaceOnUse">
      <stop stop-color="#F9B689" stop-opacity="0.3" />
      <stop offset="1" stop-color="#F9B689" stop-opacity="0.3" />
    </linearGradient>
    <linearGradient id="paint5_linear_0_1" x1="1230" y1="0.00297878" x2="854.106" y2="306.059"
      gradientUnits="userSpaceOnUse">
      <stop stop-color="#F9B689" stop-opacity="0.3" />
      <stop offset="1" stop-color="#F9B689" stop-opacity="0.3" />
    </linearGradient>
    <linearGradient id="paint6_linear_0_1" x1="489.315" y1="0.00383419" x2="-2.01807" y2="1.06531"
      gradientUnits="userSpaceOnUse">
      <stop stop-color="#F9B689" stop-opacity="0.3" />
      <stop offset="1" stop-color="#F9B689" stop-opacity="0.3" />
    </linearGradient>
    <linearGradient id="paint7_linear_0_1" x1="382.413" y1="0.00383419" x2="-1.57788" y2="0.652173"
      gradientUnits="userSpaceOnUse">
      <stop stop-color="#F9B689" stop-opacity="0.3" />
      <stop offset="1" stop-color="#F9B689" stop-opacity="0.3" />
    </linearGradient>
    <linearGradient id="paint8_linear_0_1" x1="314.606" y1="0.00383419" x2="-1.29839" y2="0.442638"
      gradientUnits="userSpaceOnUse">
      <stop stop-color="#F9B689" stop-opacity="0.3" />
      <stop offset="1" stop-color="#F9B689" stop-opacity="0.3" />
    </linearGradient>
    <linearGradient id="paint9_linear_0_1" x1="312.181" y1="0.00383419" x2="-1.28839" y2="0.4359"
      gradientUnits="userSpaceOnUse">
      <stop stop-color="#F9B689" stop-opacity="0.3" />
      <stop offset="1" stop-color="#F9B689" stop-opacity="0.3" />
    </linearGradient>
    <linearGradient id="paint10_linear_0_1" x1="377.021" y1="0.00383419" x2="-1.55566" y2="0.634019"
      gradientUnits="userSpaceOnUse">
      <stop stop-color="#F9B689" stop-opacity="0.3" />
      <stop offset="1" stop-color="#F9B689" stop-opacity="0.3" />
    </linearGradient>
    <linearGradient id="paint11_linear_0_1" x1="482.743" y1="0.00383419" x2="-1.99103" y2="1.03699"
      gradientUnits="userSpaceOnUse">
      <stop stop-color="#F9B689" stop-opacity="0.3" />
      <stop offset="1" stop-color="#F9B689" stop-opacity="0.3" />
    </linearGradient>
    <linearGradient id="paint12_linear_0_1" x1="1440" y1="0.00331861" x2="908.641" y2="306.692"
      gradientUnits="userSpaceOnUse">
      <stop stop-color="#F9B689" stop-opacity="0.3" />
      <stop offset="1" stop-color="#F9B689" stop-opacity="0.3" />
    </linearGradient>
    <linearGradient id="paint13_linear_0_1" x1="1439" y1="120.004" x2="908.365" y2="337.229"
      gradientUnits="userSpaceOnUse">
      <stop stop-color="#F9B689" stop-opacity="0.3" />
      <stop offset="1" stop-color="#F9B689" stop-opacity="0.3" />
    </linearGradient>
    <linearGradient id="paint14_linear_0_1" x1="1440" y1="235.004" x2="908.133" y2="367.827"
      gradientUnits="userSpaceOnUse">
      <stop stop-color="#F9B689" stop-opacity="0.3" />
      <stop offset="1" stop-color="#F9B689" stop-opacity="0.3" />
    </linearGradient>
    <linearGradient id="paint15_linear_0_1" x1="1439" y1="352.004" x2="907.925" y2="398.434"
      gradientUnits="userSpaceOnUse">
      <stop stop-color="#F9B689" stop-opacity="0.3" />
      <stop offset="1" stop-color="#F9B689" stop-opacity="0.3" />
    </linearGradient>
    <linearGradient id="paint16_linear_0_1" x1="1439" y1="472.004" x2="907.715" y2="429.067"
      gradientUnits="userSpaceOnUse">
      <stop stop-color="#F9B689" stop-opacity="0.3" />
      <stop offset="1" stop-color="#F9B689" stop-opacity="0.3" />
    </linearGradient>
    <linearGradient id="paint17_linear_0_1" x1="1439" y1="587.004" x2="907.509" y2="459.752"
      gradientUnits="userSpaceOnUse">
      <stop stop-color="#F9B689" stop-opacity="0.3" />
      <stop offset="1" stop-color="#F9B689" stop-opacity="0.3" />
    </linearGradient>
    <linearGradient id="paint18_linear_0_1" x1="1439" y1="705.004" x2="907.273" y2="490.456"
      gradientUnits="userSpaceOnUse">
      <stop stop-color="#F9B689" stop-opacity="0.3" />
      <stop offset="1" stop-color="#F9B689" stop-opacity="0.3" />
    </linearGradient>
    <linearGradient id="paint19_linear_0_1" x1="1439" y1="819.003" x2="905.99" y2="515.186"
      gradientUnits="userSpaceOnUse">
      <stop stop-color="#F9B689" stop-opacity="0.3" />
      <stop offset="1" stop-color="#F9B689" stop-opacity="0.3" />
    </linearGradient>
    <linearGradient id="paint20_linear_0_1" x1="610.996" y1="0.00383419" x2="-2.51832" y2="1.65888"
      gradientUnits="userSpaceOnUse">
      <stop stop-color="#F9B689" stop-opacity="0.3" />
      <stop offset="1" stop-color="#F9B689" stop-opacity="0.3" />
    </linearGradient>
    <linearGradient id="paint21_linear_0_1" x1="571.022" y1="0.00383419" x2="-2.35409" y2="1.44941"
      gradientUnits="userSpaceOnUse">
      <stop stop-color="#F9B689" stop-opacity="0.3" />
      <stop offset="1" stop-color="#F9B689" stop-opacity="0.3" />
    </linearGradient>
    <linearGradient id="paint22_linear_0_1" x1="545.95" y1="0.00383419" x2="-2.25102" y2="1.32525"
      gradientUnits="userSpaceOnUse">
      <stop stop-color="#F9B689" stop-opacity="0.3" />
      <stop offset="1" stop-color="#F9B689" stop-opacity="0.3" />
    </linearGradient>
    <linearGradient id="paint23_linear_0_1" x1="530.911" y1="0.00383419" x2="-2.18918" y2="1.25345"
      gradientUnits="userSpaceOnUse">
      <stop stop-color="#F9B689" stop-opacity="0.3" />
      <stop offset="1" stop-color="#F9B689" stop-opacity="0.3" />
    </linearGradient>
    <linearGradient id="paint24_linear_0_1" x1="530.827" y1="0.00383419" x2="-2.18884" y2="1.25306"
      gradientUnits="userSpaceOnUse">
      <stop stop-color="#F9B689" stop-opacity="0.3" />
      <stop offset="1" stop-color="#F9B689" stop-opacity="0.3" />
    </linearGradient>
    <linearGradient id="paint25_linear_0_1" x1="544.266" y1="0.00383419" x2="-2.2441" y2="1.31711"
      gradientUnits="userSpaceOnUse">
      <stop stop-color="#F9B689" stop-opacity="0.3" />
      <stop offset="1" stop-color="#F9B689" stop-opacity="0.3" />
    </linearGradient>
    <linearGradient id="paint26_linear_0_1" x1="571.022" y1="0.00383419" x2="-2.35409" y2="1.44941"
      gradientUnits="userSpaceOnUse">
      <stop stop-color="#F9B689" stop-opacity="0.3" />
      <stop offset="1" stop-color="#F9B689" stop-opacity="0.3" />
    </linearGradient>
    <linearGradient id="paint27_linear_0_1" x1="610.996" y1="0.00383419" x2="-2.51832" y2="1.65888"
      gradientUnits="userSpaceOnUse">
      <stop stop-color="#F9B689" stop-opacity="0.3" />
      <stop offset="1" stop-color="#F9B689" stop-opacity="0.3" />
    </linearGradient>
  </defs>
</svg>