<svg width="106" height="106" viewBox="0 0 106 106" fill="none" xmlns="http://www.w3.org/2000/svg">
  <path
    d="M51.8499 11.0325L53.0023 12.415L54.1544 11.0322L60.9366 2.89239L64.8753 12.7277L65.5442 14.398L67.0668 13.4395L76.0331 7.7954L76.7382 18.3691L76.858 20.1647L78.6026 19.7235L88.8738 17.1262L86.2765 27.3974L85.8353 29.142L87.6309 29.2618L98.2039 29.9669L92.5567 38.9328L91.5974 40.4558L93.2684 41.1248L103.107 45.0637L94.9678 51.8456L93.585 52.9977L94.9675 54.1502L103.107 60.9355L93.2688 64.871L91.5971 65.5396L92.5567 67.0631L98.2039 76.0291L87.6309 76.7342L85.8353 76.8539L86.2765 78.5986L88.8738 88.8697L78.6026 86.2724L76.858 85.8312L76.7382 87.6268L76.0331 98.2005L67.0668 92.5565L65.544 91.5978L64.8752 93.2684L60.9363 103.107L54.1544 94.9678L53.0023 93.585L51.8499 94.9675L45.0644 103.107L41.129 93.2688L40.4606 91.5978L38.9374 92.5563L29.9677 98.2005L29.2659 87.6273L29.1466 85.8312L27.4015 86.2724L17.1261 88.8699L19.7235 78.5986L20.1647 76.854L18.3691 76.7342L7.79942 76.0291L13.4435 67.0628L14.4024 65.5395L12.7312 64.871L2.89264 60.9355L11.0325 54.1502L12.415 52.9977L11.0322 51.8456L2.89264 45.0637L12.7316 41.1248L14.4022 40.456L13.4435 38.9332L7.79942 29.9669L18.3691 29.2618L20.1647 29.142L19.7235 27.3974L17.1261 17.126L27.4015 19.7235L29.1466 20.1647L29.2659 18.3686L29.9677 7.7954L38.9374 13.4396L40.4605 14.398L41.129 12.7273L45.0642 2.89239L51.8499 11.0325Z"
    stroke="#4E868E" stroke-width="3" />
</svg>