<svg width="49" height="68" viewBox="0 0 49 68" fill="none" xmlns="http://www.w3.org/2000/svg">
<g filter="url(#filter0_d_3153_2156)">
<path d="M24.4463 58.929C24.9587 58.929 25.3785 59.3455 25.3785 59.8579C25.3785 60.3703 24.9587 60.7901 24.4463 60.7901C23.9339 60.7901 23.5173 60.3736 23.5173 59.8579C23.5173 59.3422 23.9339 58.929 24.4463 58.929Z" fill="#150A13"/>
<path d="M24.4463 51.772C24.9587 51.772 25.3785 52.1885 25.3785 52.7009C25.3785 53.2133 24.9587 53.6331 24.4463 53.6331C23.9339 53.6331 23.5173 53.2166 23.5173 52.7009C23.5173 52.1852 23.9339 51.772 24.4463 51.772Z" fill="#150A13"/>
<path d="M24.4463 44.6116C24.9587 44.6116 25.3785 45.0281 25.3785 45.5438C25.3785 46.0595 24.9587 46.4727 24.4463 46.4727C23.9339 46.4727 23.5173 46.0562 23.5173 45.5438C23.5173 45.0314 23.9339 44.6116 24.4463 44.6116Z" fill="#150A13"/>
<path d="M43.8512 51.4976V56.281C43.8512 57.9538 41.8446 59.6331 38.3437 60.8926C34.638 62.2281 29.7024 62.962 24.4462 62.962C19.19 62.962 14.2545 62.2281 10.5487 60.8926C7.05779 59.6364 5.05118 57.9604 5.04126 56.2943V51.5009C6.04291 52.691 7.82142 53.7686 10.2214 54.6348C14.033 56.0033 19.0809 56.7604 24.4462 56.7604C29.8115 56.7604 34.8594 56.0033 38.6677 54.6348C41.071 53.7686 42.8495 52.6909 43.8512 51.4976ZM34.6082 59.2033C34.6776 59.0976 34.7041 58.9686 34.6776 58.843C34.6512 58.7174 34.5784 58.6083 34.4727 58.5389C34.3636 58.4695 34.238 58.443 34.1123 58.4695C31.6859 58.962 29.0479 59.2595 26.2644 59.3488C26.0396 58.5422 25.2958 57.9703 24.4462 57.9703C23.5966 57.9703 22.8528 58.5422 22.628 59.3488C19.8413 59.2562 17.1999 58.962 14.7801 58.4695C14.6545 58.443 14.5289 58.4695 14.4198 58.5389C14.314 58.6083 14.2413 58.7174 14.2148 58.843C14.1884 58.9686 14.2148 59.0976 14.2842 59.2033C14.3537 59.3091 14.4627 59.3819 14.5884 59.4083C17.0677 59.9141 19.7652 60.2149 22.6115 60.3075C22.8165 61.1505 23.5669 61.7488 24.4462 61.7488C25.3256 61.7488 26.076 61.1505 26.2809 60.3075C29.1272 60.2149 31.8247 59.9141 34.3041 59.4083C34.4297 59.3819 34.5355 59.3124 34.6082 59.2033Z" fill="#150A13"/>
<path d="M43.8512 44.3405V49.1206C43.8512 50.7933 41.8446 52.4727 38.3437 53.7322C34.638 55.0677 29.7024 55.8016 24.4462 55.8016C19.19 55.8016 14.2545 55.0677 10.5487 53.7322C7.05779 52.476 5.05118 50.8 5.04126 49.1338V44.3405C6.04291 45.5338 7.82142 46.6115 10.2214 47.4776C14.0297 48.8462 19.0809 49.6 24.4462 49.6C29.8115 49.6 34.8627 48.8462 38.6677 47.4776C41.071 46.6115 42.8495 45.5338 43.8512 44.3405ZM34.3041 52.2512C34.5652 52.1983 34.7305 51.9438 34.6776 51.6859C34.6247 51.4281 34.3735 51.2595 34.1123 51.3124C31.6859 51.8049 29.0479 52.0991 26.2644 52.1917C26.0396 51.3851 25.2958 50.8132 24.4462 50.8132C23.5966 50.8132 22.8528 51.3851 22.628 52.1917C19.8446 52.0991 17.2032 51.8049 14.7801 51.3124C14.5189 51.2595 14.2677 51.4281 14.2148 51.6859C14.1619 51.9438 14.3305 52.1983 14.5884 52.2512C17.0743 52.757 19.7718 53.0578 22.6115 53.1504C22.8165 53.9933 23.5669 54.5917 24.4462 54.5917C25.3256 54.5917 26.076 53.99 26.2809 53.1471C29.1206 53.0578 31.8214 52.7537 34.3041 52.2512Z" fill="#150A13"/>
<path d="M43.8512 37.1736V41.9637C43.8512 43.6331 41.8446 45.3157 38.3437 46.5752C34.638 47.9075 29.7024 48.6447 24.4462 48.6447C19.19 48.6447 14.2545 47.9075 10.5487 46.5752C7.05779 45.319 5.05118 43.643 5.04126 41.9769V37.1835C6.04291 38.3769 7.82143 39.4546 10.2247 40.3174C14.033 41.6893 19.0809 42.443 24.4462 42.443C25.1437 42.443 25.838 42.4298 26.5289 42.4033C31.4479 42.2215 35.9999 41.3885 39.352 40.0595C41.4016 39.243 42.9421 38.2546 43.8512 37.1736ZM34.6082 44.886C34.6776 44.7802 34.7041 44.6513 34.6776 44.529C34.6545 44.4033 34.5784 44.2942 34.4727 44.2248C34.3669 44.1521 34.238 44.129 34.1123 44.1521C31.6892 44.6447 29.0479 44.9422 26.2644 45.0314C26.0396 44.2248 25.2958 43.6529 24.4462 43.6529C23.5966 43.6529 22.8528 44.2248 22.628 45.0314C19.8413 44.9422 17.1999 44.6447 14.7801 44.1521C14.6545 44.129 14.5289 44.1521 14.4198 44.2215C14.314 44.2942 14.2413 44.4033 14.2148 44.529C14.1884 44.6513 14.2148 44.7802 14.2842 44.886C14.357 44.9951 14.4627 45.0678 14.5884 45.0909C17.0644 45.5967 19.7652 45.8976 22.6115 45.9901C22.8165 46.8331 23.5669 47.4314 24.4462 47.4314C25.3256 47.4314 26.076 46.8331 26.2776 45.9901C29.1272 45.8976 31.828 45.5967 34.3041 45.0909C34.4297 45.0678 34.5388 44.9951 34.6082 44.886Z" fill="#150A13"/>
<path d="M36.0297 29.481C40.9322 30.7636 43.8512 32.7471 43.8512 34.8033C43.8512 38.1653 36.2313 41.0843 26.4892 41.4479C25.8082 41.471 25.1206 41.4843 24.4462 41.4843C19.1867 41.4843 14.2512 40.7504 10.5487 39.4148C7.04787 38.1553 5.04126 36.476 5.04126 34.8066C5.04126 32.7504 7.96027 30.7636 12.8627 29.481V31.038C12.8627 32.9619 14.3239 34.5719 16.2214 34.7702V36.2677C16.2214 36.5322 16.4363 36.7471 16.7008 36.7471H32.1917C32.4561 36.7471 32.671 36.5322 32.671 36.2677V34.7702C34.5652 34.5719 36.0297 32.9619 36.0297 31.038V29.481Z" fill="#150A13"/>
<path d="M31.7124 34.7935H17.1802V35.7885H31.7124V34.7935Z" fill="#150A13"/>
<path d="M26.7604 23.7389C26.7604 24.4265 26.4563 25.0744 25.9274 25.5174C25.8183 25.6099 25.7555 25.7422 25.7555 25.881V30.1785C25.7555 30.8992 25.1703 31.4876 24.4464 31.4876C23.7224 31.4876 23.1373 30.8992 23.1373 30.1587V25.881C23.1373 25.7389 23.0745 25.6033 22.9654 25.5141C22.4365 25.0711 22.1323 24.4232 22.1323 23.7389C22.1323 23.1207 22.3736 22.5422 22.81 22.1025C23.2497 21.6661 23.8315 21.4248 24.4464 21.4248C25.7224 21.4248 26.7604 22.4628 26.7604 23.7389Z" fill="#150A13"/>
<path d="M35.0744 24.5784V26.1487L35.0711 26.7636H31.2893C31.0248 26.7636 30.81 26.9784 30.81 27.2429C30.81 27.5074 31.0248 27.7222 31.2893 27.7222H35.0711V31.0379C35.0711 31.1834 35.0612 31.3322 35.0381 31.4743H31.286C31.0215 31.4743 30.8067 31.6892 30.8067 31.9536C30.8067 32.2181 31.0215 32.433 31.286 32.433H34.6976C34.2017 33.2892 33.2794 33.8313 32.2777 33.8313H16.6149C15.6166 33.8313 14.691 33.2925 14.1951 32.433H17.6067C17.8711 32.433 18.0827 32.2181 18.0827 31.9536C18.0827 31.6892 17.8711 31.4743 17.6067 31.4743H13.8546C13.8315 31.3322 13.8215 31.1867 13.8215 31.0379V27.7222H17.6067C17.8711 27.7222 18.0827 27.5074 18.0827 27.2429C18.0827 26.9784 17.8711 26.7636 17.6067 26.7636H13.8215V24.5817H17.6067C17.8711 24.5817 18.0827 24.3669 18.0827 24.1024C18.0827 23.8379 17.8711 23.6231 17.6067 23.6231H13.8215V21.8776C13.8215 21.7322 13.8315 21.5867 13.8546 21.4413H17.6067C17.8711 21.4413 18.0827 21.2264 18.0827 20.9619C18.0827 20.6975 17.8711 20.4826 17.6067 20.4826H14.1951C14.4596 20.0264 14.8496 19.6495 15.3025 19.4115L15.3356 19.395C15.7356 19.19 16.1653 19.0842 16.6149 19.0842H32.2777C32.7273 19.0842 33.1604 19.19 33.5604 19.3983H33.567C34.0397 19.6462 34.4331 20.0231 34.6976 20.4826H31.286C31.0215 20.4826 30.8067 20.6975 30.8067 20.9619C30.8067 21.2264 31.0215 21.4379 31.286 21.4379H35.0381C35.0612 21.5834 35.0711 21.7289 35.0711 21.8776V23.6231H31.2893C31.0248 23.6231 30.81 23.8379 30.81 24.1024C30.81 24.3669 31.0248 24.5784 31.2893 24.5784H35.0744ZM26.7141 26.0958C27.3521 25.4809 27.7191 24.6247 27.7191 23.7388C27.7191 21.9338 26.2513 20.4694 24.4463 20.4694C22.6414 20.4694 21.1736 21.9338 21.1736 23.7388C21.1736 24.6247 21.5405 25.4809 22.1786 26.0958V30.2016C22.1918 31.4379 23.2067 32.4429 24.4463 32.4429C25.686 32.4429 26.7141 31.428 26.7141 30.1784V26.0958Z" fill="#150A13"/>
<path d="M33.286 13.8809V18.2611C32.9588 18.1685 32.6216 18.1223 32.2778 18.1223H31.6265V13.8809C31.6265 9.9239 28.4067 6.70407 24.4464 6.70407C20.486 6.70407 17.2695 9.9239 17.2695 13.8809V18.1223H16.615C16.2745 18.1223 15.9373 18.1685 15.6067 18.2611V13.8809C15.6067 9.0082 19.5736 5.04126 24.4464 5.04126C29.3191 5.04126 33.286 9.0082 33.286 13.8809Z" fill="#150A13"/>
<path d="M24.4463 32.443C23.2066 32.443 22.1918 31.4381 22.1785 30.2017V26.0959C21.5405 25.4811 21.1736 24.6249 21.1736 23.7389C21.1736 21.9339 22.6414 20.4695 24.4463 20.4695C26.2513 20.4695 27.719 21.9339 27.719 23.7389C27.719 24.6249 27.3521 25.4811 26.7141 26.0959V30.1786C26.7141 31.4282 25.6992 32.443 24.4463 32.443ZM23.1372 25.8811V30.1587C23.1372 30.8992 23.7256 31.4877 24.4463 31.4877C25.167 31.4877 25.7554 30.8992 25.7554 30.1786V25.8811C25.7554 25.7422 25.8182 25.61 25.9273 25.5174C26.4562 25.0744 26.7604 24.4265 26.7604 23.7389C26.7604 22.4629 25.7223 21.4249 24.4463 21.4249C23.8314 21.4249 23.2496 21.6662 22.8099 22.1025C22.3736 22.5422 22.1323 23.1207 22.1323 23.7389C22.1323 24.4232 22.4364 25.0711 22.9653 25.5141C23.0744 25.6034 23.1372 25.7389 23.1372 25.8811Z" fill="#67285E"/>
<path d="M25.3785 45.5437C25.3785 45.028 24.9587 44.6115 24.4463 44.6115C23.9339 44.6115 23.5174 45.028 23.5174 45.5437C23.5174 46.0594 23.9339 46.4727 24.4463 46.4727C24.9587 46.4727 25.3785 46.0561 25.3785 45.5437ZM14.7802 44.152C17.2 44.6446 19.8414 44.9421 22.6281 45.0313C22.8529 44.2247 23.5967 43.6528 24.4463 43.6528C25.2959 43.6528 26.0397 44.2247 26.2645 45.0313C29.048 44.9421 31.6893 44.6446 34.1124 44.152C34.2381 44.1289 34.367 44.152 34.4728 44.2247C34.5785 44.2942 34.6546 44.4032 34.6777 44.5289C34.7042 44.6512 34.6777 44.7801 34.6083 44.8859C34.5389 44.995 34.4298 45.0677 34.3042 45.0909C31.8281 45.5966 29.1273 45.8975 26.2777 45.99C26.0761 46.833 25.3257 47.4313 24.4463 47.4313C23.567 47.4313 22.8166 46.833 22.6116 45.99C19.7653 45.8975 17.0645 45.5966 14.5885 45.0909C14.4628 45.0677 14.3571 44.995 14.2843 44.8859C14.2149 44.7801 14.1885 44.6512 14.2149 44.5289C14.2414 44.4032 14.3141 44.2942 14.4199 44.2214C14.529 44.152 14.6546 44.1289 14.7802 44.152Z" fill="#67285E"/>
<path d="M25.3784 52.7008C25.3784 52.1884 24.9586 51.7719 24.4462 51.7719C23.9338 51.7719 23.5173 52.1884 23.5173 52.7008C23.5173 53.2132 23.9338 53.6331 24.4462 53.6331C24.9586 53.6331 25.3784 53.2165 25.3784 52.7008ZM14.7801 51.3124C17.2032 51.805 19.8445 52.0992 22.628 52.1917C22.8528 51.3851 23.5966 50.8132 24.4462 50.8132C25.2958 50.8132 26.0396 51.3851 26.2644 52.1917C29.0478 52.0992 31.6859 51.805 34.1123 51.3124C34.3735 51.2595 34.6247 51.4281 34.6776 51.686C34.7305 51.9438 34.5652 52.1984 34.304 52.2513C31.8214 52.7537 29.1206 53.0579 26.2809 53.1471C26.0759 53.9901 25.3255 54.5917 24.4462 54.5917C23.5669 54.5917 22.8164 53.9934 22.6115 53.1504C19.7718 53.0579 17.0743 52.757 14.5883 52.2513C14.3305 52.1984 14.1619 51.9438 14.2148 51.686C14.2677 51.4281 14.5189 51.2595 14.7801 51.3124Z" fill="#67285E"/>
<path d="M25.3785 59.8578C25.3785 59.3454 24.9587 58.9289 24.4463 58.9289C23.9339 58.9289 23.5174 59.3454 23.5174 59.8578C23.5174 60.3702 23.9339 60.79 24.4463 60.79C24.9587 60.79 25.3785 60.3735 25.3785 59.8578ZM14.7802 58.4694C17.2 58.962 19.8414 59.2562 22.6281 59.3487C22.8529 58.5421 23.5967 57.9702 24.4463 57.9702C25.2959 57.9702 26.0397 58.5421 26.2645 59.3487C29.048 59.2595 31.686 58.962 34.1124 58.4694C34.2381 58.4429 34.3637 58.4694 34.4728 58.5388C34.5785 58.6082 34.6513 58.7173 34.6777 58.8429C34.7042 58.9686 34.6777 59.0975 34.6083 59.2033C34.5356 59.3124 34.4298 59.3818 34.3042 59.4082C31.8248 59.914 29.1273 60.2148 26.281 60.3074C26.0761 61.1504 25.3257 61.7487 24.4463 61.7487C23.567 61.7487 22.8166 61.1504 22.6116 60.3074C19.7653 60.2148 17.0678 59.914 14.5885 59.4082C14.4628 59.3818 14.3538 59.3091 14.2843 59.2033C14.2149 59.0975 14.1885 58.9686 14.2149 58.8429C14.2414 58.7173 14.3141 58.6082 14.4199 58.5388C14.529 58.4694 14.6546 58.4429 14.7802 58.4694Z" fill="#67285E"/>
<path d="M24.4462 7.6595C21.0147 7.6595 18.2247 10.4496 18.2247 13.881V18.1223H30.6676V13.881C30.6676 10.4496 27.8776 7.6595 24.4462 7.6595ZM17.18 35.7884H31.7123V34.7934H17.18V35.7884ZM17.2693 13.881C17.2693 9.92396 20.4891 6.70413 24.4462 6.70413C28.4032 6.70413 31.6263 9.92396 31.6263 13.881V18.1223H32.2776C32.6214 18.1223 32.9585 18.1686 33.2858 18.2612V13.881C33.2858 9.00826 29.3222 5.04132 24.4462 5.04132C19.5701 5.04132 15.6065 9.00826 15.6065 13.881V18.2612C15.9371 18.1686 16.2743 18.1223 16.6147 18.1223H17.2693V13.881ZM17.6065 21.4413H13.8544C13.8313 21.5868 13.8214 21.7322 13.8214 21.8777V23.6231H17.6065C17.8709 23.6231 18.0825 23.838 18.0825 24.1025C18.0825 24.3669 17.8709 24.5818 17.6065 24.5818H13.8214V26.7636H17.6065C17.8709 26.7636 18.0825 26.9785 18.0825 27.243C18.0825 27.5074 17.8709 27.7223 17.6065 27.7223H13.8214V31.038C13.8214 31.1868 13.8313 31.3322 13.8544 31.4744H17.6065C17.8709 31.4744 18.0825 31.6893 18.0825 31.9537C18.0825 32.2182 17.8709 32.4331 17.6065 32.4331H14.1949C14.6908 33.2926 15.6164 33.8314 16.6147 33.8314H32.2776C33.2792 33.8314 34.2015 33.2893 34.6974 32.4331H31.2858C31.0214 32.4331 30.8065 32.2182 30.8065 31.9537C30.8065 31.6893 31.0214 31.4744 31.2858 31.4744H35.0379C35.061 31.3322 35.0709 31.1835 35.0709 31.038V27.7223H31.2891C31.0247 27.7223 30.8098 27.5074 30.8098 27.243C30.8098 26.9785 31.0247 26.7636 31.2891 26.7636H35.0709V25.1934L35.0743 24.5785H31.2891C31.0247 24.5785 30.8098 24.3636 30.8098 24.1025C30.8098 23.8413 31.0247 23.6231 31.2891 23.6231H35.0743V23.0083L35.0709 22.0529V21.8777C35.0709 21.7289 35.061 21.5835 35.0379 21.438H31.2858C31.0214 21.438 30.8065 21.2231 30.8065 20.962C30.8065 20.7008 31.0214 20.4826 31.2858 20.4826H34.6974C34.4329 20.0231 34.0395 19.6463 33.5668 19.4016H33.5602C33.1602 19.1901 32.7271 19.0843 32.2776 19.0843H16.6147C16.1652 19.0843 15.7354 19.1901 15.3354 19.395L15.3024 19.4116C14.8495 19.6496 14.4594 20.0264 14.1949 20.4826H17.6065C17.8709 20.4826 18.0825 20.6975 18.0825 20.962C18.0825 21.2264 17.8709 21.4413 17.6065 21.4413ZM5.0412 56.2942C5.05111 57.9603 7.05773 59.6364 10.5486 60.8926C14.2544 62.2281 19.19 62.962 24.4462 62.962C29.7024 62.962 34.6379 62.2281 38.3437 60.8926C41.8445 59.6331 43.8511 57.9537 43.8511 56.281V51.4975C42.8495 52.6909 41.0709 53.7686 38.6676 54.6347C34.8594 56.0033 29.8081 56.7603 24.4462 56.7603C19.0842 56.7603 14.0329 56.0033 10.2214 54.6347C7.82136 53.7686 6.04285 52.6909 5.0412 51.5008V56.2942ZM5.0412 49.1339C5.05111 50.8 7.05773 52.476 10.5486 53.7322C14.2544 55.0678 19.19 55.8016 24.4462 55.8016C29.7024 55.8016 34.6379 55.0678 38.3437 53.7322C41.8445 52.4727 43.8511 50.7934 43.8511 49.1207V44.3405C42.8495 45.5339 41.0709 46.6116 38.6676 47.4777C34.8627 48.8463 29.8114 49.6 24.4462 49.6C19.0809 49.6 14.0296 48.8463 10.2214 47.4777C7.82136 46.6116 6.04285 45.5339 5.0412 44.3405V49.1339ZM5.0412 41.9769C5.05111 43.643 7.05773 45.319 10.5486 46.5752C14.2544 47.9074 19.19 48.6446 24.4462 48.6446C29.7024 48.6446 34.6379 47.9074 38.3437 46.5752C41.8445 45.3157 43.8511 43.6331 43.8511 41.9636V37.1735C42.942 38.2545 41.4015 39.243 39.3519 40.0595C35.9999 41.3884 31.4478 42.2215 26.5288 42.4033C25.8379 42.4297 25.1437 42.443 24.4462 42.443C19.0809 42.443 14.0329 41.6893 10.2247 40.3174C7.82136 39.4545 6.04285 38.3769 5.0412 37.1835V41.9769ZM12.8627 28.4926V21.8744C12.8627 20.5785 13.5437 19.362 14.6478 18.681V13.881C14.6478 8.47934 19.0445 4.08264 24.4462 4.08264C29.8478 4.08264 34.2445 8.47934 34.2445 13.881V18.681C35.3486 19.362 36.0296 20.5785 36.0296 21.8744V28.4926C38.5718 29.1372 40.6974 30 42.1916 30.9884C43.8974 32.119 44.8032 33.4347 44.8065 34.7901L44.8131 34.8628L44.8065 34.8694V56.281C44.8065 58.4099 42.6247 60.3669 38.6676 61.7917C34.8594 63.1636 29.8081 63.9174 24.4428 63.9174C19.0776 63.9174 14.0296 63.1636 10.2214 61.7917C6.58169 60.4826 4.42302 58.7008 4.12219 56.7603H4.10235L4.08252 56.595V34.324H4.12219C4.31062 33.1339 5.19987 31.9835 6.7007 30.9884C8.19492 30 10.3238 29.1372 12.8627 28.4926ZM10.5486 39.4149C14.2511 40.7504 19.1866 41.4843 24.4462 41.4843C25.1205 41.4843 25.8081 41.4711 26.4891 41.4479C36.2313 41.0843 43.8511 38.1653 43.8511 34.8033C43.8511 32.7471 40.9321 30.7636 36.0296 29.481V31.038C36.0296 32.962 34.5652 34.5719 32.6709 34.7702V36.2678C32.6709 36.5322 32.4561 36.7471 32.1916 36.7471H16.7007C16.4362 36.7471 16.2214 36.5322 16.2214 36.2678V34.7702C14.3238 34.5719 12.8627 32.962 12.8627 31.038V29.481C7.9602 30.7636 5.0412 32.7504 5.0412 34.8066C5.0412 36.476 7.04781 38.1554 10.5486 39.4149Z" fill="#31213B"/>
</g>
<defs>
<filter id="filter0_d_3153_2156" x="0.0825195" y="0.0826416" width="48.7305" height="67.8347" filterUnits="userSpaceOnUse" color-interpolation-filters="sRGB">
<feFlood flood-opacity="0" result="BackgroundImageFix"/>
<feColorMatrix in="SourceAlpha" type="matrix" values="0 0 0 0 0 0 0 0 0 0 0 0 0 0 0 0 0 0 127 0" result="hardAlpha"/>
<feOffset/>
<feGaussianBlur stdDeviation="2"/>
<feComposite in2="hardAlpha" operator="out"/>
<feColorMatrix type="matrix" values="0 0 0 0 0.737255 0 0 0 0 0.321569 0 0 0 0 0.678431 0 0 0 0.24 0"/>
<feBlend mode="normal" in2="BackgroundImageFix" result="effect1_dropShadow_3153_2156"/>
<feBlend mode="normal" in="SourceGraphic" in2="effect1_dropShadow_3153_2156" result="shape"/>
</filter>
</defs>
</svg>
