<svg width="48" height="48" viewBox="0 0 48 48" fill="none" xmlns="http://www.w3.org/2000/svg">
  <path
    d="M23.2328 5.20124L24.0011 6.1229L24.7692 5.20105L27.4961 1.92826L29.0797 5.88273L29.5256 6.99625L30.5408 6.35726L34.1458 4.08794L34.4293 8.33943L34.5092 9.53649L35.6723 9.24237L39.8019 8.1981L38.7576 12.3277L38.4635 13.4908L39.6606 13.5707L43.9116 13.8541L41.641 17.459L41.0015 18.4744L42.1155 18.9203L46.0716 20.5041L42.7989 23.2308L41.8771 23.9989L42.7988 24.7672L46.0716 27.4954L42.1158 29.0777L41.0013 29.5235L41.641 30.5391L43.9116 34.144L39.6606 34.4275L38.4635 34.5073L38.7576 35.6705L39.8019 39.8001L35.6723 38.7558L34.5092 38.4617L34.4293 39.6587L34.1458 43.9102L30.5408 41.6409L29.5255 41.0018L29.0797 42.1155L27.4959 46.0716L24.7692 42.799L24.0011 41.8771L23.2328 42.7988L20.5046 46.0716L18.9223 42.1158L18.4767 41.0018L17.4612 41.6408L13.8547 43.9102L13.5725 39.659L13.493 38.4617L12.3296 38.7558L8.19806 39.8002L9.24236 35.6704L9.53647 34.5074L8.33944 34.4275L4.08975 34.144L6.3591 30.5389L6.99836 29.5234L5.8842 29.0777L1.92843 27.4954L5.20122 24.7672L6.12289 23.9989L5.20104 23.2308L1.92843 20.5041L5.88446 18.9203L6.99817 18.4745L6.3591 17.4592L4.08976 13.8541L8.33944 13.5707L9.53647 13.4908L9.24236 12.3277L8.19805 8.19796L12.3296 9.24239L13.493 9.53649L13.5725 8.33912L13.8547 4.08794L17.4612 6.35734L18.4766 6.99625L18.9222 5.88246L20.5044 1.92826L23.2328 5.20124Z"
    fill="white" stroke="#4E868E" stroke-width="2" />
  <g clip-path="url(#clip0_984_12834)">
    <path
      d="M27.6495 18.1431C26.9444 18.1479 26.2497 18.3125 25.6175 18.6246C24.9854 18.9367 24.4323 19.3881 23.9999 19.9448C23.5679 19.3882 23.0151 18.9368 22.3832 18.6247C21.7514 18.3126 21.0569 18.1479 20.3522 18.1431C17.7234 18.1431 15.5864 20.4046 15.5864 23.1895V28.707C15.5864 29.0044 15.7046 29.2897 15.915 29.5C16.1254 29.7103 16.4107 29.8284 16.7082 29.8284C17.0057 29.8284 17.2911 29.7103 17.5014 29.5C17.7118 29.2897 17.83 29.0044 17.83 28.707V23.1858C17.83 21.6382 18.9649 20.3822 20.3597 20.3822C21.7544 20.3822 22.8893 21.642 22.8893 23.1858V28.7032C22.8893 29.0007 23.0075 29.2859 23.2179 29.4962C23.4283 29.7065 23.7136 29.8247 24.0111 29.8247C24.3086 29.8247 24.594 29.7065 24.8043 29.4962C25.0147 29.2859 25.1329 29.0007 25.1329 28.7032V23.1858C25.1329 21.6382 26.2678 20.3822 27.6625 20.3822C29.0573 20.3822 30.1922 21.642 30.1922 23.1858V28.7032C30.1922 29.0007 30.3104 29.2859 30.5208 29.4962C30.7311 29.7065 31.0165 29.8247 31.314 29.8247C31.6115 29.8247 31.8969 29.7065 32.1072 29.4962C32.3176 29.2859 32.4358 29.0007 32.4358 28.7032V23.1858C32.4152 20.4046 30.2782 18.1431 27.6495 18.1431Z"
      fill="#4E868E" />
    <path
      d="M24 9.96387C20.2824 9.96832 16.7183 11.4466 14.0895 14.0746C11.4608 16.7025 9.98199 20.2654 9.97754 23.9818C9.98199 27.6982 11.4608 31.2612 14.0895 33.8891C16.7183 36.517 20.2824 37.9953 24 37.9998C27.7177 37.9958 31.2821 36.5176 33.911 33.8896C36.5398 31.2616 38.0185 27.6984 38.0224 23.9818C38.018 20.2654 36.5392 16.7025 33.9104 14.0746C31.2817 11.4466 27.7176 9.96832 24 9.96387ZM24 37.439C20.431 37.4351 17.0093 36.016 14.4856 33.4931C11.9619 30.9703 10.5424 27.5497 10.5384 23.9818C10.5424 20.4139 11.9619 16.9933 14.4856 14.4705C17.0093 11.9476 20.431 10.5285 24 10.5246C27.569 10.5285 30.9907 11.9476 33.5143 14.4705C36.038 16.9933 37.4576 20.4139 37.4615 23.9818C37.4576 27.5497 36.038 30.9703 33.5143 33.4931C30.9907 36.016 27.569 37.4351 24 37.439Z"
      fill="#4E868E" />
  </g>
  <defs>
    <clipPath id="clip0_984_12834">
      <path
        d="M10 13C10 11.3431 11.3431 10 13 10H35C36.6569 10 38 11.3431 38 13V35C38 36.6569 36.6569 38 35 38H13C11.3431 38 10 36.6569 10 35V13Z"
        fill="white" />
    </clipPath>
  </defs>
</svg>