<svg width="20" height="20" viewBox="0 0 20 20" fill="none" xmlns="http://www.w3.org/2000/svg">
  <path
    d="M9.68033 2.16718L10.0005 2.55121L10.3205 2.16711L11.4567 0.803441L12.1165 2.45114L12.3023 2.91511L12.7253 2.64886L14.2274 1.70331L14.3456 3.47476L14.3788 3.97354L14.8634 3.85099L16.5841 3.41587L16.149 5.13655L16.0265 5.62118L16.5252 5.65444L18.2965 5.77256L17.3504 7.27459L17.084 7.69765L17.5481 7.88347L19.1965 8.54336L17.8329 9.6795L17.4488 9.99954L17.8328 10.3197L19.1965 11.4564L17.5482 12.1157L17.0839 12.3015L17.3504 12.7246L18.2965 14.2267L16.5252 14.3448L16.0265 14.3781L16.149 14.8627L16.5841 16.5834L14.8634 16.1482L14.3788 16.0257L14.3456 16.5245L14.2274 18.2959L12.7253 17.3504L12.3023 17.0841L12.1165 17.5481L11.4566 19.1965L10.3205 17.8329L10.0005 17.4488L9.68033 17.8328L8.54357 19.1965L7.88428 17.5483L7.69862 17.0841L7.27551 17.3503L5.77279 18.2959L5.65521 16.5246L5.6221 16.0257L5.13734 16.1482L3.41586 16.5834L3.85098 14.8627L3.97353 14.3781L3.47477 14.3448L1.70406 14.2267L2.64962 12.7245L2.91598 12.3014L2.45175 12.1157L0.803512 11.4564L2.16718 10.3197L2.55121 9.99954L2.1671 9.6795L0.803511 8.54336L2.45186 7.88347L2.9159 7.6977L2.64962 7.27468L1.70406 5.77256L3.47476 5.65444L3.97353 5.62117L3.85098 5.13655L3.41586 3.41581L5.13734 3.851L5.6221 3.97354L5.65521 3.47463L5.77279 1.70331L7.2755 2.64889L7.69857 2.91511L7.88426 2.45103L8.54352 0.803442L9.68033 2.16718Z"
    fill="white" stroke="#4E868E" stroke-width="0.833333" />
  <g clip-path="url(#clip0_3904_19598)">
    <path
      d="M11.5207 7.55957C11.2269 7.56157 10.9374 7.63018 10.674 7.76022C10.4106 7.89026 10.1802 8.07835 9.99999 8.31031C9.81998 8.07836 9.58967 7.89029 9.32639 7.76024C9.06313 7.6302 8.77377 7.56159 8.48011 7.55957C7.38481 7.55957 6.49438 8.50188 6.49438 9.66226V11.9612C6.49438 12.0851 6.54362 12.204 6.63129 12.2916C6.71894 12.3792 6.83783 12.4285 6.9618 12.4285C7.08577 12.4285 7.20465 12.3792 7.29231 12.2916C7.37997 12.204 7.42921 12.0851 7.42921 11.9612V9.66071C7.42921 9.01587 7.90209 8.49254 8.48324 8.49254C9.06439 8.49254 9.53726 9.01744 9.53726 9.66071V11.9596C9.53726 12.0836 9.5865 12.2024 9.67415 12.29C9.76181 12.3777 9.88071 12.4269 10.0047 12.4269C10.1286 12.4269 10.2475 12.3777 10.3352 12.29C10.4228 12.2024 10.4721 12.0836 10.4721 11.9596V9.66071C10.4721 9.01587 10.9449 8.49254 11.5261 8.49254C12.1072 8.49254 12.5801 9.01744 12.5801 9.66071V11.9596C12.5801 12.0836 12.6294 12.2024 12.717 12.29C12.8047 12.3777 12.9236 12.4269 13.0475 12.4269C13.1715 12.4269 13.2904 12.3777 13.378 12.29C13.4657 12.2024 13.515 12.0836 13.515 11.9596V9.66071C13.5064 8.50188 12.616 7.55957 11.5207 7.55957Z"
      fill="#4E868E" />
    <path
      d="M10.0002 4.15234C8.45115 4.1542 6.96612 4.77017 5.8708 5.86513C4.77549 6.96009 4.15933 8.44464 4.15747 9.99316C4.15933 11.5417 4.77549 13.0262 5.8708 14.1212C6.96612 15.2161 8.45115 15.8321 10.0002 15.834C11.5492 15.8323 13.0344 15.2164 14.1297 14.1214C15.2251 13.0264 15.8412 11.5417 15.8428 9.99316C15.841 8.44464 15.2248 6.96009 14.1295 5.86513C13.0342 4.77017 11.5492 4.1542 10.0002 4.15234ZM10.0002 15.6003C8.51307 15.5987 7.08736 15.0074 6.03583 13.9562C4.98431 12.905 4.39282 11.4798 4.39118 9.99316C4.39282 8.50654 4.98431 7.08129 6.03583 6.03011C7.08736 4.97891 8.51307 4.38762 10.0002 4.38598C11.4872 4.38762 12.9129 4.97891 13.9645 6.03011C15.016 7.08129 15.6075 8.50654 15.6091 9.99316C15.6075 11.4798 15.016 12.905 13.9645 13.9562C12.9129 15.0074 11.4872 15.5987 10.0002 15.6003Z"
      fill="#4E868E" />
  </g>
  <circle cx="14.5833" cy="16.2503" r="3.125" fill="white" stroke="#FF3B30" stroke-width="0.416667" />
  <path
    d="M14.9999 17.5003V18.3337H14.1666V17.5003H14.9999ZM15.2083 14.167L14.9999 17.0837H14.1666L13.9583 14.167H15.2083Z"
    fill="#FF3B30" />
  <defs>
    <clipPath id="clip0_3904_19598">
      <rect x="4.16675" y="4.16699" width="11.6667" height="11.6667" rx="1.25" fill="white" />
    </clipPath>
  </defs>
</svg>