<svg width="65" height="65" viewBox="0 0 65 65" fill="none" xmlns="http://www.w3.org/2000/svg">
<path d="M10 17H30C30.5522 17 31 16.5522 31 16C31 15.4478 30.5522 15 30 15H10C9.44777 15 9 15.4478 9 16C9 16.5522 9.44777 17 10 17ZM54 49C53.3817 49.0027 52.7794 49.196 52.275 49.554C51.771 49.9121 51.3902 50.417 51.1839 51H43.0299C42.4776 51 42.0299 51.4477 42.0299 52V55C42.0299 55.5522 42.4776 56 43.0299 56C43.5821 56 44.0299 55.5522 44.0299 55V53H46.0299V55C46.0299 55.5522 46.4776 56 47.0299 56C47.5821 56 48.0299 55.5522 48.0299 55V53H51.1839C51.4299 53.6955 51.9232 54.2759 52.5701 54.6304C53.217 54.9853 53.9719 55.0889 54.6902 54.9223C55.409 54.7558 56.0406 54.3299 56.4656 53.7268C56.8902 53.1237 57.0777 52.3853 56.992 51.6527C56.9067 50.9201 56.5545 50.2443 56.0022 49.755C55.4505 49.2657 54.7375 48.997 53.9999 49.0001L54 49ZM54 53C53.5955 53 53.2308 52.7563 53.0759 52.3826C52.9214 52.0089 53.0067 51.579 53.2929 51.2929C53.579 51.0067 54.0089 50.9214 54.3826 51.0764C54.7563 51.2308 55 51.5956 55 52C55 52.2652 54.8947 52.5197 54.7072 52.7071C54.5197 52.8946 54.2652 53 54 53ZM10 11H30C30.5522 11 31 10.5522 31 10C31 9.44778 30.5522 9.00001 30 9.00001H10C9.44777 9.00001 9 9.44778 9 10C9 10.5522 9.44777 11 10 11ZM32 51H16C15.4478 51 15 51.4478 15 52C15 52.5522 15.4478 53 16 53H32C32.5522 53 33 52.5522 33 52C33 51.4478 32.5522 51 32 51ZM12 41H38C38.7955 41 39.5585 40.6839 40.1214 40.1214C40.6839 39.5589 41 38.7955 41 38.0001V24.0001C41 23.2045 40.6839 22.4411 40.1214 21.8787C39.5584 21.3162 38.7954 21.0001 38 21.0001H12C11.2045 21.0001 10.441 21.3162 9.87863 21.8787C9.31623 22.4412 9.00006 23.2046 9.00006 24.0001V38.0001C9.00006 38.7956 9.31613 39.559 9.87863 40.1214C10.4411 40.6838 11.2046 41 12 41ZM11 24C11 23.4478 11.4478 23 12 23H38C38.2652 23 38.5197 23.1054 38.7072 23.2929C38.8947 23.4804 39 23.7348 39 24V38C39 38.2652 38.8947 38.5197 38.7072 38.7071C38.5197 38.8946 38.2652 39 38 39H12C11.4478 39 11 38.5522 11 38V24ZM51 39.0503V16C50.9942 15.9567 50.9853 15.9138 50.9741 15.8719C50.9688 15.8295 50.9607 15.7875 50.95 15.746C50.9107 15.5759 50.8273 15.4192 50.708 15.292L36.708 1.29196C36.5799 1.17098 36.4219 1.08705 36.25 1.04821C36.2125 1.03839 36.1746 1.0308 36.1357 1.02589C36.0911 1.01429 36.046 1.00536 36 1H8C6.67372 1 5.40229 1.52679 4.46423 2.46423C3.52673 3.40217 3 4.67406 3 6V60C3 61.3259 3.52679 62.5977 4.46423 63.5358C5.40217 64.4733 6.6736 65 8 65H50C54.4937 64.9545 58.6455 62.5911 60.979 58.7499C63.3125 54.9094 63.4964 50.1352 61.4656 46.1259C59.4347 42.1166 55.4773 39.4407 51 39.0496L51 39.0503ZM37 4.41372L47.5857 14.9999H40C39.2045 14.9999 38.441 14.6838 37.8786 14.1213C37.3162 13.5588 37.0001 12.7954 37.0001 12L37 4.41372ZM8 63C7.20447 63 6.44103 62.6839 5.87863 62.1214C5.31623 61.5589 5.00006 60.7955 5.00006 60.0001V6.00006C5.00006 5.20453 5.31613 4.44109 5.87863 3.87869C6.44113 3.31629 7.20457 3.00012 8 3.00012H35V12.0001C35 13.3261 35.5268 14.5978 36.4642 15.5359C37.4022 16.4734 38.6736 17.0001 40 17.0001H49V39.0504C44.938 39.3669 41.259 41.5691 39.0621 45.0003H12.0003C11.2048 45.0003 10.4414 45.3164 9.87897 45.8789C9.31657 46.4414 9.0004 47.2049 9.0004 48.0003V56.0003C9.0004 56.7958 9.31647 57.5593 9.87897 58.1217C10.4415 58.6841 11.2049 59.0002 12.0003 59.0002H39.0621C40.0991 60.6136 41.4782 61.9792 43.1018 63.0002L8 63ZM38 57H12C11.4478 57 11 56.5522 11 56V48C11 47.4478 11.4478 47 12 47H38C36.6625 50.1991 36.6625 53.8009 38 57ZM50 63C47.0826 63 44.2848 61.841 42.2218 59.7782C40.1589 57.7152 39 54.9175 39 52C39 49.0825 40.159 46.2848 42.2218 44.2218C44.2848 42.1589 47.0825 41 50 41C52.9174 41 55.7152 42.159 57.7782 44.2218C59.8412 46.2848 61 49.0825 61 52C60.9964 54.9161 59.8361 57.712 57.7741 59.7741C55.712 61.8361 52.916 62.9963 50 63Z" fill="#4F868E"/>
</svg>
