<svg width="64" height="64" viewBox="0 0 64 64" fill="none" xmlns="http://www.w3.org/2000/svg">
<g clip-path="url(#clip0_174_3405)">
<path d="M31.8112 29.7234C30.7174 29.7234 29.6682 30.1579 28.8944 30.9318C28.121 31.7052 27.6865 32.7543 27.6865 33.8481C27.6865 34.9424 28.121 35.9916 28.8944 36.7649C29.6683 37.5383 30.7174 37.9728 31.8112 37.9728C32.905 37.9728 33.9542 37.5383 34.728 36.7649C35.5014 35.9915 35.9359 34.9423 35.9359 33.8481C35.9359 32.7543 35.5014 31.7051 34.728 30.9318C33.9541 30.1579 32.905 29.7234 31.8112 29.7234ZM31.8112 35.9105C31.2643 35.9105 30.7395 35.6932 30.3528 35.3065C29.9661 34.9198 29.7488 34.395 29.7488 33.8481C29.7488 33.3012 29.9661 32.7769 30.3528 32.3897C30.7395 32.003 31.2643 31.7857 31.8112 31.7857C32.3581 31.7857 32.8829 32.003 33.2696 32.3897C33.6563 32.7769 33.8736 33.3012 33.8736 33.8481C33.8736 34.395 33.6563 34.9198 33.2696 35.3065C32.8829 35.6932 32.3581 35.9105 31.8112 35.9105ZM56.1118 10.9004C51.4599 10.0382 46.9633 8.48589 42.77 6.29506C39.9748 4.83207 37.3315 3.09567 34.8792 1.11061C33.9879 0.402133 32.8854 0.0117552 31.747 0.000241232C30.6085 -0.0108072 29.4986 0.357939 28.5931 1.04846C26.1178 2.89127 23.497 4.52915 20.7561 5.94653C16.5181 8.13641 12.0214 9.7836 7.37189 10.8488C6.69196 11.0054 6.08615 11.3902 5.65435 11.9385C5.223 12.4868 4.99237 13.1663 5.00019 13.8642V30.7544C5.03978 38.4666 7.67986 45.9405 12.4933 51.9662C17.3072 57.9917 24.0131 62.2172 31.526 63.9586C31.6186 63.9853 31.7143 63.9991 31.8105 64C31.886 63.9995 31.9615 63.9912 32.0352 63.9751C39.5628 62.2451 46.2844 58.0223 51.1103 51.9922C55.9361 45.962 58.5827 38.4783 58.6209 30.7545V13.9314C58.6223 13.2123 58.3718 12.5158 57.9133 11.962C57.4553 11.4082 56.8172 11.0326 56.111 10.8995L56.1118 10.9004ZM56.5593 30.7545C56.5247 37.9714 54.066 44.9672 49.5776 50.6181C45.0897 56.2694 38.8321 60.2487 31.8106 61.9165C24.7894 60.2482 18.5325 56.2689 14.0448 50.6172C9.55681 44.9659 7.09765 37.9707 7.06264 30.7536V13.8634C7.05574 13.3906 7.37799 12.9763 7.83787 12.8672C12.6559 11.7605 17.3151 10.0512 21.7052 7.77936C24.5442 6.30942 27.2589 4.61168 29.8226 2.70169C30.3608 2.286 31.0223 2.06134 31.7027 2.06364C32.3826 2.06594 33.0427 2.29473 33.5781 2.71411C36.1372 4.78473 38.8951 6.59667 41.8115 8.12365C46.1871 10.4089 50.8799 12.027 55.7342 12.9251C56.218 13.0135 56.567 13.4393 56.5592 13.9314L56.5593 30.7545ZM39.0291 25.5986H37.9979V23.5362C37.9979 21.3261 36.8185 19.2835 34.9044 18.1782C32.9903 17.0729 30.6314 17.0729 28.7173 18.1782C26.8032 19.2835 25.6237 21.3261 25.6237 23.5362V25.5986H24.5925C23.7722 25.5986 22.985 25.9245 22.405 26.5046C21.825 27.0851 21.4991 27.8719 21.4991 28.6921V39.004C21.4991 39.8243 21.825 40.6116 22.405 41.1915C22.9851 41.7714 23.7723 42.0975 24.5925 42.0975H39.0291C39.8495 42.0975 40.6367 41.7715 41.2167 41.1915C41.7966 40.6115 42.1226 39.8242 42.1226 39.004V28.6921C42.1226 27.8718 41.7967 27.085 41.2167 26.5046C40.6366 25.9245 39.8494 25.5986 39.0291 25.5986ZM27.6861 23.5362C27.6861 22.0627 28.4724 20.7009 29.7485 19.9643C31.0245 19.2273 32.5971 19.2273 33.8732 19.9643C35.1493 20.7009 35.9356 22.0627 35.9356 23.5362V25.5986H27.6861V23.5362ZM40.0603 39.004C40.0603 39.2775 39.9517 39.5399 39.7583 39.7332C39.565 39.9266 39.3026 40.0352 39.0291 40.0352H24.5925C24.0231 40.0352 23.5614 39.5735 23.5614 39.004V28.6922C23.5614 28.1227 24.0231 27.661 24.5925 27.661H39.0291C39.3026 27.661 39.565 27.7696 39.7583 27.963C39.9517 28.1563 40.0603 28.4187 40.0603 28.6922V39.004ZM49.9454 15.493C46.5683 14.8287 43.304 13.6834 40.2523 12.0924C37.9183 10.8725 35.7257 9.39934 33.7143 7.69936C33.1822 7.24453 32.5091 6.98811 31.809 6.97385C31.1092 6.96004 30.4261 7.18975 29.8765 7.6234C27.8164 9.22168 25.615 10.6286 23.2994 11.8264C20.2068 13.4275 16.93 14.6456 13.5423 15.4539C12.8688 15.6155 12.2694 15.9999 11.8417 16.545C11.414 17.09 11.1834 17.764 11.1871 18.4568V30.9088C11.2174 36.8221 13.2402 42.552 16.9281 47.1745C20.6165 51.7964 25.7548 55.04 31.5144 56.382C31.6838 56.4312 31.8633 56.4377 32.0359 56.4004C37.8115 55.0722 42.9689 51.8318 46.6717 47.2049C50.3743 42.5779 52.4053 36.8355 52.4348 30.9098V18.5356C52.4348 17.8202 52.1866 17.1269 51.7327 16.5736C51.2788 16.0203 50.6472 15.6419 49.9457 15.5019L49.9454 15.493ZM50.3722 30.9089C50.3446 36.3268 48.5008 41.5789 45.1361 45.8252C41.7709 50.0714 37.0791 53.0665 31.8109 54.3316C26.5426 53.0661 21.8511 50.0711 18.4856 45.8247C15.1209 41.5789 13.2772 36.3267 13.2491 30.9085V18.4564C13.2449 17.9864 13.5639 17.5749 14.0206 17.4625C17.5713 16.6132 21.0056 15.3352 24.2477 13.6573C26.6752 12.4005 28.9829 10.9255 31.1419 9.24995C31.5093 8.96776 32.023 8.97742 32.3793 9.27297C34.5066 11.0702 36.825 12.6285 39.2924 13.9193C42.5204 15.6052 45.9739 16.8187 49.5467 17.5225C50.0287 17.6154 50.3758 18.0399 50.3717 18.5306L50.3722 30.9089Z" fill="#4F868E"/>
</g>
<defs>
<clipPath id="clip0_174_3405">
<rect width="64" height="64" fill="white"/>
</clipPath>
</defs>
</svg>
