<svg width="152" height="152" viewBox="0 0 152 152" fill="none" xmlns="http://www.w3.org/2000/svg">
<g filter="url(#filter0_d_3153_2203)">
<path d="M104.734 60.7685C126.141 63.9088 140.524 70.0296 140.524 75.9986C140.524 83.246 123.968 88.8155 103.264 91.4844C94.5063 92.611 85.0215 93.2183 75.7204 93.2183C66.4194 93.2183 56.9265 92.611 48.1768 91.4844C27.4652 88.8075 10.9086 83.238 10.9086 75.9906C10.9086 70.3172 23.0304 64.7478 42.1519 61.4717C43.4783 61.2479 44.8367 61.0322 46.2351 60.8244C46.8823 60.7285 47.3298 60.1212 47.2339 59.474C47.146 58.8827 46.6426 58.4512 46.0273 58.4592C45.9794 58.4592 45.9394 58.4592 45.8995 58.4672C44.621 58.651 43.2226 58.8747 41.7364 59.1304C31.3326 60.9123 16.7498 64.3802 11.0125 70.4131L10.5491 70.9086L10.605 70.2294C11.9554 53.9845 19.3228 38.9062 31.3646 27.7673C43.4783 16.5645 59.2118 10.3958 75.6805 10.3958H75.9442C76.0241 10.3958 76.104 10.3958 76.1839 10.4037C76.2558 10.4037 76.3277 10.4117 76.3996 10.4117L76.8151 10.4277C93.0041 10.6994 108.466 17.0279 120.372 28.2467C125.182 32.7854 129.233 37.9393 132.438 43.5408C137.12 51.7311 139.989 60.8564 140.772 70.3572L140.828 71.0204L140.364 70.541C132.973 62.9979 111.494 59.3541 105.086 58.4193C104.774 58.3633 104.463 58.4432 104.207 58.627C103.951 58.8188 103.783 59.0984 103.735 59.4181C103.64 60.0733 104.095 60.6726 104.734 60.7685Z" fill="#200E1E"/>
<path d="M122.45 90.2698L122.394 90.6373C122.314 91.1088 122.218 91.6521 122.106 92.2355C121.786 93.8576 121.331 95.8872 120.676 98.1885C120.132 100.082 119.461 102.16 118.622 104.349C117.863 106.299 116.984 108.337 115.953 110.414L115.913 110.494L115.825 110.534C110.807 112.532 105.294 114.114 99.4526 115.224L99.061 115.304L99.1809 114.921C102.129 105.732 103.096 97.2536 103.368 94.0254L103.384 93.8336L103.576 93.8096C110.512 92.9227 116.736 91.764 122.09 90.3657L122.45 90.2698Z" fill="#200E1E"/>
<path d="M114.219 113.658L113.891 114.226C107.179 125.748 97.7185 133.818 85.7725 138.229L84.542 138.677L85.5328 137.822C90.7107 133.315 94.9458 126.651 98.118 118.013L98.166 117.885L98.3018 117.861C103.703 116.91 108.849 115.568 113.604 113.882L114.219 113.658Z" fill="#200E1E"/>
<path d="M95.3613 118.341L95.2095 118.724C90.8786 129.743 84.8297 137.007 77.2306 140.299L76.895 140.443V119.715H77.1347C83.3834 119.651 89.3843 119.204 94.9538 118.405L95.3613 118.341Z" fill="#200E1E"/>
<path d="M100.659 94.1692L100.955 94.1372L100.923 94.4329C100.579 97.8049 99.4446 106.619 96.3523 115.648L96.3043 115.792L96.1605 115.808C90.2475 116.759 83.847 117.27 77.1509 117.342H76.9111V95.5835H77.1509C84.686 95.5436 92.8124 95.0481 100.659 94.1692Z" fill="#200E1E"/>
<path d="M74.5218 119.715V140.571L74.2022 140.459C66.747 137.814 60.73 130.534 56.3033 118.82L56.1594 118.445L56.559 118.501C62.1684 119.252 68.1293 119.659 74.2821 119.715H74.5218Z" fill="#200E1E"/>
<path d="M74.5058 95.5835L74.5218 117.326L74.2741 117.342C67.6339 117.27 61.2814 116.783 55.3763 115.88L55.2325 115.856L55.1846 115.72C52.3159 107.09 51.0294 98.6839 50.518 94.4408L50.4861 94.1372L50.7817 94.1692C58.6125 95.0481 66.731 95.5436 74.2661 95.5835H74.5058Z" fill="#200E1E"/>
<path d="M53.4745 118.221C56.3911 126.379 60.1147 132.716 64.5495 137.055L65.4604 137.942L64.2858 137.446C53.7462 132.956 45.1403 125.413 38.6999 115.025L38.3643 114.473L38.9795 114.665C43.5102 116.072 48.3126 117.198 53.2667 117.997L53.4026 118.021L53.4745 118.221Z" fill="#200E1E"/>
<path d="M52.4038 115.033L52.5156 115.408L52.1321 115.336C46.6346 114.353 41.4167 112.987 36.6063 111.285L36.5184 111.253L36.4785 111.165C33.4501 105.508 31.5563 100.146 30.3897 96.0149C29.7824 93.8495 29.3748 92.0196 29.1112 90.6612L29.0312 90.2856L29.4068 90.3815C34.7445 91.7799 40.9612 92.9385 47.8651 93.8255L48.0489 93.8495L48.0729 94.0412C48.4085 97.2854 49.5112 105.835 52.4038 115.033Z" fill="#200E1E"/>
<path d="M61.6569 139.412C42.2956 135.065 26.1226 122.44 17.277 104.773L16.7976 103.814L17.5887 104.389C20.8888 106.778 26.5541 110.262 34.8564 113.283L34.9443 113.315L34.9842 113.395C41.5285 125.165 50.5579 133.763 61.8087 138.965L63.8543 139.908L61.6569 139.412Z" fill="#200E1E"/>
<path d="M32.9387 109.455L33.2104 110.015L32.635 109.783C21.2245 105.108 15.647 99.8105 14.6482 98.7957L14.5763 98.7238V98.6359C14.5763 98.6359 14.5763 98.6199 14.5763 98.612C12.5546 93.2902 11.2522 87.6968 10.6928 81.9835L10.6289 81.2883L11.1004 81.7678C13.945 84.7562 19.083 87.3692 26.3544 89.5346L26.4983 89.5826L26.5222 89.7264C26.5702 90.0061 26.6261 90.3257 26.69 90.6853C26.9697 92.1236 27.4252 94.2011 28.1363 96.7102C29.1431 100.274 30.6693 104.717 32.9467 109.455H32.9387Z" fill="#200E1E"/>
<path d="M140.676 82.0396C140.236 86.5143 139.31 91.005 137.919 95.3998L137.879 95.4718C136.081 97.773 130.712 103.678 119.805 108.808L119.221 109.08L119.485 108.488C119.972 107.378 120.42 106.291 120.827 105.228C121.746 102.839 122.473 100.578 123.041 98.5481C123.68 96.2948 124.119 94.3291 124.423 92.7789C124.695 91.3886 124.855 90.3418 124.934 89.7345L124.958 89.5827L125.11 89.5347C132.326 87.3773 137.424 84.7963 140.26 81.8558L140.74 81.3604L140.676 82.0396Z" fill="#5A3C6C"/>
<path d="M122.106 92.2354L124.423 92.7787C124.119 94.3289 123.68 96.2946 123.041 98.5479L120.676 98.1884C121.331 95.8871 121.786 93.8574 122.106 92.2354Z" fill="#5A3C6C"/>
<path d="M120.676 98.1885L123.041 98.5481C122.474 100.578 121.746 102.839 120.827 105.228L118.622 104.349C119.461 102.16 120.132 100.082 120.676 98.1885Z" fill="#5A3C6C"/>
<path d="M137.919 95.3996C139.31 91.0048 140.237 86.5141 140.676 82.0393L140.74 81.3601L140.261 81.8556C137.424 84.7961 132.326 87.3771 125.11 89.5345L124.959 89.5825L124.935 89.7343C124.855 90.3416 124.695 91.3883 124.423 92.7787L122.106 92.2353C122.218 91.652 122.314 91.1087 122.394 90.6372L122.45 90.2697L122.09 90.3655C116.736 91.7639 110.512 92.9225 103.576 93.8095L103.264 91.4842C123.968 88.8154 140.524 83.2459 140.524 75.9985C140.524 70.0295 126.141 63.9087 104.734 60.7684C104.095 60.6725 103.64 60.0732 103.736 59.418C103.784 59.0983 103.951 58.8187 104.207 58.6269C104.463 58.4431 104.774 58.3632 105.086 58.4191C111.494 59.354 132.973 62.9977 140.365 70.5409L140.828 71.0203L140.772 70.3571C139.989 60.8563 137.12 51.731 132.438 43.5406L134.531 42.4619C140.149 52.3063 143.361 63.653 143.361 75.6868C143.361 82.6786 142.282 89.5825 140.165 96.2227C140.149 96.2466 140.141 96.2706 140.125 96.3026C139.813 97.2694 139.462 98.2682 139.062 99.355L139.03 99.4988C138.91 99.9303 138.734 100.362 138.471 100.873C133.932 112.148 126.669 121.681 117.607 128.84L116.089 127.066C124.287 120.602 130.912 112.124 135.346 102.16L135.786 101.169L134.971 101.88C130.912 105.428 125.838 108.632 120.188 111.229L119.221 109.08L119.805 108.808C130.712 103.678 136.082 97.7728 137.879 95.4715L137.919 95.3996Z" fill="#5A3C6C"/>
<path d="M135.786 101.169L135.346 102.16C130.912 112.124 124.287 120.602 116.089 127.066C108.85 132.78 100.387 136.919 91.1184 139.14L88.8091 139.66L90.8707 138.709C102.345 133.411 111.343 124.557 117.607 112.412L117.647 112.34L117.727 112.3C118.558 111.956 119.373 111.597 120.188 111.229C125.838 108.632 130.912 105.428 134.971 101.88L135.786 101.169Z" fill="#5A3C6C"/>
<path d="M47.2339 59.4739C47.3297 60.1211 46.8823 60.7284 46.235 60.8243C44.8367 61.0321 43.4783 61.2478 42.1518 61.4715L41.7363 59.1303C43.2226 58.8746 44.6209 58.6509 45.8994 58.4671C45.9394 58.4591 45.9793 58.4591 46.0273 58.4591C46.6426 58.4511 47.146 58.8826 47.2339 59.4739Z" fill="#5A3C6C"/>
<path d="M113.604 113.882C108.849 115.568 103.703 116.91 98.3018 117.861L98.1659 117.885L98.118 118.013C94.9457 126.651 90.7107 133.315 85.5328 137.822L84.542 138.677L85.7725 138.229C97.7185 133.819 107.179 125.748 113.891 114.226L114.219 113.658L113.604 113.882ZM95.3612 118.341L94.9537 118.405C89.3843 119.204 83.3833 119.651 77.1347 119.715H76.895V140.443L77.2306 140.299C84.8296 137.007 90.8785 129.743 95.2094 118.724L95.3612 118.341ZM76.9109 117.342H77.1507C83.8468 117.27 90.2473 116.759 96.1603 115.808L96.3041 115.792L96.3521 115.648C99.4444 106.619 100.579 97.8049 100.923 94.4329L100.955 94.1373L100.659 94.1692C92.8122 95.0482 84.6858 95.5436 77.1507 95.5836H76.9109V117.342ZM74.282 119.715C68.1293 119.659 62.1683 119.252 56.5589 118.501L56.1593 118.445L56.3032 118.82C60.73 130.534 66.7469 137.814 74.2021 140.459L74.5217 140.571V119.715H74.282ZM74.266 95.5836C66.7309 95.5436 58.6124 95.0482 50.7817 94.1692L50.486 94.1373L50.518 94.4409C51.0294 98.6839 52.3158 107.09 55.1845 115.72L55.2324 115.856L55.3763 115.88C61.2813 116.783 67.6338 117.27 74.274 117.342L74.5217 117.326L74.5058 95.5836H74.266ZM52.4037 115.033C49.5111 105.835 48.4084 97.2855 48.0728 94.0414L48.0489 93.8496L47.8651 93.8256L48.1767 91.4844C56.9264 92.611 66.4193 93.2183 75.7203 93.2183C85.0214 93.2183 94.5062 92.611 103.264 91.4844L103.576 93.8096L103.384 93.8336L103.368 94.0254C103.096 97.2536 102.129 105.732 99.1808 114.921L99.0609 115.304L99.4524 115.224C105.294 114.114 110.807 112.532 115.825 110.534L115.913 110.494L115.953 110.414C116.984 108.337 117.863 106.299 118.622 104.349L120.827 105.228C120.42 106.291 119.972 107.378 119.485 108.488L119.221 109.08L120.188 111.229C119.373 111.597 118.558 111.956 117.727 112.3L117.647 112.34L117.607 112.412C111.342 124.557 102.345 133.411 90.8705 138.709L88.8089 139.66L91.1182 139.14C100.387 136.919 108.849 132.78 116.089 127.067L117.607 128.84C105.965 138.054 91.3579 143.335 75.7603 143.359V143.599L75.6804 143.359C47.969 143.351 22.6148 125.948 12.5546 100.042C12.5226 99.9784 12.4827 99.9065 12.4427 99.8266C12.4427 99.8186 12.4427 99.8026 12.4427 99.7786L12.4108 99.7067C12.3708 99.6188 12.3388 99.5229 12.3069 99.3951L14.5842 98.7239L14.6561 98.7958C15.6549 99.8106 21.2324 105.108 32.643 109.783L33.2183 110.015L32.9466 109.455C30.6693 104.717 29.1431 100.274 28.1363 96.7102L30.3976 96.015C31.5642 100.146 33.458 105.508 36.4865 111.165L36.5264 111.253L36.6143 111.285C41.4247 112.987 46.6425 114.353 52.1401 115.336L52.5236 115.408L52.4117 115.033H52.4037ZM38.6999 115.025C45.1403 125.412 53.7462 132.956 64.2858 137.446L65.4604 137.942L64.5495 137.055C60.1147 132.716 56.3911 126.379 53.4745 118.221L53.4026 118.021L53.2667 117.997C48.3126 117.198 43.5102 116.071 38.9795 114.665L38.3643 114.473L38.6999 115.025ZM61.8087 138.965C50.5579 133.763 41.5285 125.165 34.9842 113.395L34.9443 113.315L34.8564 113.283C26.5541 110.262 20.8888 106.778 17.5887 104.389L16.7976 103.814L17.277 104.773C26.1226 122.44 42.2956 135.065 61.6569 139.412L63.8543 139.907L61.8087 138.965Z" fill="#5A3C6C"/>
<path d="M30.3898 96.0149L28.1284 96.7101C27.4173 94.201 26.9618 92.1235 26.6821 90.6852L29.0314 90.2856L29.1113 90.6612C29.375 92.0196 29.7825 93.8495 30.3898 96.0149Z" fill="#5A3C6C"/>
<path d="M8 75.687C8 38.3629 38.3643 8.00662 75.6804 8.00662H75.8482C76.064 7.99064 76.3117 8.00662 76.5114 8.0226H76.855C101.49 8.46208 123.049 22.3018 134.531 42.4621L132.438 43.5408C129.233 37.9394 125.182 32.7855 120.372 28.2468C108.466 17.028 93.0041 10.6995 76.8151 10.4278L76.3996 10.4118C76.3277 10.4118 76.2557 10.4038 76.1838 10.4038C76.1039 10.3958 76.024 10.3958 75.9441 10.3958H75.6804C59.2118 10.3958 43.4783 16.5645 31.3645 27.7674C19.3227 38.9063 11.9553 53.9845 10.6049 70.2294L10.549 70.9086L11.0125 70.4132C16.7497 64.3803 31.3326 60.9124 41.7363 59.1305L42.1518 61.4717C23.0303 64.7479 10.9086 70.3173 10.9086 75.9906C10.9086 83.2381 27.4651 88.8076 48.1768 91.4844L47.8651 93.8257C40.9612 92.9387 34.7446 91.7801 29.4068 90.3817L29.0313 90.2858L26.682 90.6853C26.6181 90.3258 26.5622 90.0061 26.5142 89.7265L26.4903 89.5826L26.3464 89.5347C19.075 87.3692 13.937 84.7563 11.0924 81.7678L10.6209 81.2884L10.6848 81.9836C11.2442 87.6969 12.5467 93.2903 14.5683 98.612C14.5683 98.62 14.5683 98.628 14.5683 98.628V98.7239L12.291 99.3951C9.4463 91.788 8 83.8054 8 75.687Z" fill="#5A3C6C"/>
<path d="M115.402 69.1745C118.998 69.1745 121.922 72.0991 121.922 75.6949C121.922 79.2906 118.998 82.2232 115.402 82.2232C111.806 82.2232 108.874 79.2986 108.874 75.6949C108.874 74.8079 109.049 73.9449 109.401 73.1299L109.473 72.9461L90.5431 60.7205L90.3593 60.6086L90.2235 60.7684C88.8411 62.4384 86.8115 63.3973 84.646 63.3973C83.1918 63.3973 81.7854 62.9738 80.5948 62.1668L80.451 62.0709L68.4811 70.6528L68.5929 70.8446C69.4799 72.3228 69.9433 74.0008 69.9433 75.6949C69.9433 80.9527 65.6684 85.2276 60.4105 85.2276C55.1527 85.2276 50.8857 80.9527 50.8857 75.6949C50.8857 70.437 55.1607 66.1621 60.4105 66.1621C62.7997 66.1621 65.085 67.057 66.835 68.6631L66.9788 68.799L78.749 60.3609L78.6211 60.1691C77.8221 58.9625 77.3986 57.5642 77.3986 56.1419C77.3986 52.642 79.8916 49.6455 83.3276 49.0142L83.5114 48.9823L84.3424 33.7442V33.5285L84.1426 33.4885C81.3859 33.0011 79.0926 31.1473 77.9979 28.5503L77.918 28.3506L77.3107 26.0972L77.4305 26.0653L77.4066 25.8575C77.3986 25.7296 77.3826 25.5858 77.3826 25.442C77.3826 20.9033 81.0742 17.2117 85.6129 17.2117C90.1516 17.2117 93.8432 20.9033 93.8432 25.442C93.8432 25.7137 93.8273 25.9933 93.8033 26.265L93.7873 26.4009L110.911 38.4826L111.039 38.5785L111.175 38.4906C112.062 37.9153 113.101 37.6117 114.179 37.6117C117.296 37.6117 119.829 40.1447 119.829 43.261C119.829 46.3773 117.296 48.9184 114.179 48.9184C111.063 48.9184 108.53 46.3773 108.53 43.261C108.53 42.3021 108.778 41.3433 109.257 40.4963L109.369 40.3125L93.3318 28.9898L93.1081 28.822L92.9802 29.0777C91.8056 31.4429 89.5443 33.105 86.9314 33.5365L86.7396 33.5604L85.9006 48.9983L86.1083 49.0462C89.4644 49.7414 91.9015 52.7299 91.9015 56.1578C91.9015 56.893 91.7896 57.6121 91.5659 58.3393L91.51 58.5151L110.879 71.0124L111.015 70.8845C112.23 69.7818 113.788 69.1745 115.402 69.1745ZM119.509 75.6869C119.509 73.4015 117.655 71.5477 115.37 71.5477C113.085 71.5477 111.239 73.4015 111.239 75.6869C111.239 77.9722 113.093 79.818 115.37 79.818C117.647 79.818 119.509 77.9642 119.509 75.6869ZM117.424 43.237C117.424 42.3581 117.08 41.5271 116.457 40.9118C115.849 40.3045 115.042 39.9769 114.195 39.9769H114.163C112.357 39.9769 110.887 41.4392 110.887 43.237C110.887 45.0349 112.357 46.5132 114.163 46.5132C115.969 46.5132 117.424 45.0429 117.424 43.237ZM91.454 25.394C91.454 22.1658 88.8251 19.5449 85.5969 19.5449C82.3687 19.5449 79.7478 22.1658 79.7478 25.394C79.7478 28.6222 82.3687 31.2511 85.5969 31.2511C88.8251 31.2511 91.454 28.6222 91.454 25.394ZM89.4963 56.1259C89.4963 53.441 87.3149 51.2596 84.6301 51.2596C81.9452 51.2596 79.7638 53.441 79.7638 56.1259C79.7638 58.8107 81.9452 60.9921 84.6301 60.9921C87.3149 60.9921 89.4963 58.8107 89.4963 56.1259ZM67.5462 75.6949C67.5462 71.7555 64.3419 68.5513 60.4026 68.5513C56.4632 68.5513 53.259 71.7555 53.259 75.6949C53.259 79.6342 56.4632 82.8384 60.4026 82.8384C64.3419 82.8384 67.5462 79.6342 67.5462 75.6949Z" fill="#335F66"/>
<path d="M116.457 40.9119C117.08 41.5272 117.424 42.3582 117.424 43.2372C117.424 45.0431 115.961 46.5134 114.163 46.5134C112.365 46.5134 110.887 45.0431 110.887 43.2372C110.887 41.4313 112.357 39.9771 114.163 39.9771H114.195C115.042 39.9771 115.849 40.3047 116.457 40.9119Z" fill="#200E1E"/>
<path d="M77.3105 26.0972L77.9178 28.3505L56.1914 34.2156L55.9836 34.2716L56.0156 34.4873C56.1194 35.0386 56.1674 35.59 56.1674 36.1254C56.1674 38.6104 55.2005 40.9597 53.4346 42.7336L53.2908 42.8854L57.31 47.9754L57.4539 47.9435C57.8294 47.8636 58.205 47.8316 58.5965 47.8316C61.7848 47.8316 64.3737 50.4205 64.3737 53.6008C64.3737 56.7811 61.7848 59.378 58.5965 59.378C55.4083 59.378 52.8193 56.7891 52.8193 53.6008C52.8193 51.8908 53.5864 50.2767 54.9129 49.174L55.0887 49.0222L51.373 44.3157L51.1972 44.4116C49.8069 45.1468 48.3206 45.5223 46.7784 45.5223C44.4691 45.5223 42.2477 44.6593 40.5218 43.1012L40.354 42.9493L29.255 53.7047L29.3589 53.8725C29.7984 54.5677 30.0301 55.3667 30.0301 56.1658C30.0301 58.547 28.0884 60.4887 25.7072 60.4887C23.326 60.4887 21.3843 58.547 21.3843 56.1658C21.3843 53.7846 23.326 51.8509 25.7072 51.8509C26.2026 51.8509 26.706 51.9468 27.2414 52.1545L27.3852 52.2024L38.7079 41.2713L38.8438 41.1435L38.7479 40.9757C37.8689 39.5134 37.4054 37.8433 37.4054 36.1653C37.4054 30.9874 41.6245 26.7764 46.8024 26.7764C50.3263 26.7764 53.5225 28.7341 55.1446 31.8824L55.2325 32.0582L77.3105 26.0972ZM61.9845 53.6008C61.9845 51.739 60.4663 50.2208 58.5965 50.2208C56.7267 50.2208 55.2165 51.739 55.2165 53.6008C55.2165 55.4626 56.7347 56.9888 58.5965 56.9888C60.4583 56.9888 61.9845 55.4706 61.9845 53.6008ZM53.7782 36.1254C53.7782 32.2659 50.6379 29.1176 46.7784 29.1176C44.9086 29.1176 43.1507 29.8527 41.8242 31.1792C40.4978 32.4976 39.7707 34.2556 39.7707 36.1254C39.7707 39.9848 42.911 43.1251 46.7784 43.1251C50.6459 43.1251 53.7782 39.9848 53.7782 36.1254ZM27.6249 56.1258C27.6249 55.0551 26.754 54.1841 25.6832 54.1841C24.6125 54.1841 23.7335 55.0551 23.7335 56.1258C23.7335 57.1966 24.6045 58.0676 25.6832 58.0676C26.762 58.0676 27.6249 57.1966 27.6249 56.1258Z" fill="#335F66"/>
<path d="M61.9845 53.6008C61.9845 51.739 60.4663 50.2208 58.5965 50.2208C56.7267 50.2208 55.2165 51.739 55.2165 53.6008C55.2165 55.4626 56.7347 56.9888 58.5965 56.9888C60.4583 56.9888 61.9845 55.4706 61.9845 53.6008Z" fill="#335F66"/>
<path d="M60.4024 82.8385C64.3477 82.8385 67.546 79.6402 67.546 75.6949C67.546 71.7496 64.3477 68.5513 60.4024 68.5513C56.4571 68.5513 53.2588 71.7496 53.2588 75.6949C53.2588 79.6402 56.4571 82.8385 60.4024 82.8385Z" fill="#200E1E"/>
<path d="M46.7785 29.1177C50.638 29.1177 53.7783 32.266 53.7783 36.1254C53.7783 39.9849 50.638 43.1252 46.7785 43.1252C42.9191 43.1252 39.7708 39.9849 39.7708 36.1254C39.7708 34.2556 40.4979 32.4977 41.8243 31.1793C43.1508 29.8528 44.9087 29.1177 46.7785 29.1177Z" fill="#200E1E"/>
</g>
<defs>
<filter id="filter0_d_3153_2203" x="0" y="0" width="151.361" height="151.599" filterUnits="userSpaceOnUse" color-interpolation-filters="sRGB">
<feFlood flood-opacity="0" result="BackgroundImageFix"/>
<feColorMatrix in="SourceAlpha" type="matrix" values="0 0 0 0 0 0 0 0 0 0 0 0 0 0 0 0 0 0 127 0" result="hardAlpha"/>
<feOffset/>
<feGaussianBlur stdDeviation="4"/>
<feComposite in2="hardAlpha" operator="out"/>
<feColorMatrix type="matrix" values="0 0 0 0 0.737255 0 0 0 0 0.321569 0 0 0 0 0.678431 0 0 0 0.28 0"/>
<feBlend mode="normal" in2="BackgroundImageFix" result="effect1_dropShadow_3153_2203"/>
<feBlend mode="normal" in="SourceGraphic" in2="effect1_dropShadow_3153_2203" result="shape"/>
</filter>
</defs>
</svg>
