<svg width="154" height="88" viewBox="0 0 154 88" fill="none" xmlns="http://www.w3.org/2000/svg">
<g filter="url(#filter0_d_3153_2563)">
<path d="M9 9V71H133L145 79V9H9Z" fill="#170A15"/>
</g>
<g filter="url(#filter1_d_3153_2563)">
<path fill-rule="evenodd" clip-rule="evenodd" d="M8.375 9C8.375 8.65482 8.65482 8.375 9 8.375H145C145.345 8.375 145.625 8.65482 145.625 9V79C145.625 79.2305 145.498 79.4423 145.295 79.551C145.092 79.6598 144.845 79.6479 144.653 79.52L132.811 71.625H9C8.65482 71.625 8.375 71.3452 8.375 71V9ZM9.625 9.625V70.375H133C133.123 70.375 133.244 70.4115 133.347 70.48L144.375 77.8322V9.625H9.625Z" fill="#5A3C6C"/>
</g>
<g filter="url(#filter2_d_3153_2563)">
<path d="M21 29V21.6875H22.625V24.9375H24.25V21.6875H25.875V29H24.25V25.75H22.625V29H21Z" fill="#5A3C6C"/>
<path d="M30.7175 28.1875V27.375H31.53V23.3125H30.7175V22.5H29.905V23.3125H29.0925V27.375H29.905V28.1875H30.7175ZM29.0925 29V28.1875H28.28V27.375H27.4675V23.3125H28.28V22.5H29.0925V21.6875H31.53V22.5H32.3425V23.3125H33.155V27.375H32.3425V28.1875H31.53V29H29.0925Z" fill="#5A3C6C"/>
<path d="M37.185 26.5625V24.9375H37.9975V26.5625H37.185ZM35.56 29V26.5625H34.7475V21.6875H36.3725V26.5625H37.185V29H35.56ZM37.9975 29V26.5625H38.81V21.6875H40.435V26.5625H39.6225V29H37.9975Z" fill="#5A3C6C"/>
<path d="M48.4625 29V21.6875H50.0875V22.5H50.9V23.3125H51.7125V22.5H52.525V21.6875H54.15V29H52.525V24.9375H51.7125V25.75H50.9V24.9375H50.0875V29H48.4625Z" fill="#5A3C6C"/>
<path d="M58.9925 25.75V23.3125H57.3675V25.75H58.9925ZM55.7425 29V23.3125H56.555V22.5H57.3675V21.6875H58.9925V22.5H59.805V23.3125H60.6175V29H58.9925V26.5625H57.3675V29H55.7425Z" fill="#5A3C6C"/>
<path d="M62.21 29V21.6875H63.835V23.3125H64.6475V24.125H65.46V24.9375H66.2725V21.6875H67.8975V29H66.2725V27.375H65.46V26.5625H64.6475V25.75H63.835V29H62.21Z" fill="#5A3C6C"/>
<path d="M70.3025 29V28.1875H71.115V24.9375H70.3025V24.125H69.49V21.6875H71.115V24.125H72.74V21.6875H74.365V24.125H73.5525V24.9375H72.74V28.1875H73.5525V29H70.3025Z" fill="#5A3C6C"/>
<path d="M83.205 29V28.1875H84.0175V22.5H83.205V23.3125H82.3925V21.6875H87.2675V23.3125H86.455V22.5H85.6425V28.1875H86.455V29H83.205Z" fill="#5A3C6C"/>
<path d="M88.86 29V28.1875H89.6725V22.5H88.86V21.6875H92.11V22.5H91.2975V28.1875H92.11V29H88.86Z" fill="#5A3C6C"/>
<path d="M93.7025 29V21.6875H95.3275V22.5H96.14V23.3125H96.9525V22.5H97.765V21.6875H99.39V29H97.765V24.9375H96.9525V25.75H96.14V24.9375H95.3275V29H93.7025Z" fill="#5A3C6C"/>
<path d="M100.982 29V28.1875H101.795V22.5H100.982V21.6875H106.67V23.3125H105.857V22.5H103.42V24.9375H105.045V24.125H105.857V26.5625H105.045V25.75H103.42V28.1875H105.857V27.375H106.67V29H100.982Z" fill="#5A3C6C"/>
<path d="M109.075 29V28.1875H108.262V26.5625H109.887V28.1875H111.512V26.5625H110.7V25.75H109.075V24.9375H108.262V22.5H109.075V21.6875H112.325V22.5H113.137V24.125H111.512V22.5H109.887V24.9375H111.512V25.75H112.325V26.5625H113.137V28.1875H112.325V29H109.075Z" fill="#5A3C6C"/>
<path d="M121.198 28.1875V27.375H122.01V23.3125H121.198V22.5H120.385V28.1875H121.198ZM117.948 29V28.1875H118.76V22.5H117.948V21.6875H122.01V22.5H122.823V23.3125H123.635V27.375H122.823V28.1875H122.01V29H117.948Z" fill="#5A3C6C"/>
<path d="M128.478 28.1875V27.375H129.29V23.3125H128.478V22.5H127.665V23.3125H126.853V27.375H127.665V28.1875H128.478ZM126.853 29V28.1875H126.04V27.375H125.228V23.3125H126.04V22.5H126.853V21.6875H129.29V22.5H130.103V23.3125H130.915V27.375H130.103V28.1875H129.29V29H126.853Z" fill="#5A3C6C"/>
<path d="M21 43V42.1875H21.8125V36.5H21V35.6875H24.25V36.5H23.4375V42.1875H24.25V43H21Z" fill="#5A3C6C"/>
<path d="M32.2775 43V35.6875H33.9025V38.9375H35.5275V35.6875H37.1525V43H35.5275V39.75H33.9025V43H32.2775Z" fill="#5A3C6C"/>
<path d="M41.995 39.75V37.3125H40.37V39.75H41.995ZM38.745 43V37.3125H39.5575V36.5H40.37V35.6875H41.995V36.5H42.8075V37.3125H43.62V43H41.995V40.5625H40.37V43H38.745Z" fill="#5A3C6C"/>
<path d="M46.8375 43V42.1875H46.025V41.375H45.2125V35.6875H46.8375V41.375H48.4625V35.6875H50.0875V41.375H49.275V42.1875H48.4625V43H46.8375Z" fill="#5A3C6C"/>
<path d="M51.68 43V42.1875H52.4925V36.5H51.68V35.6875H57.3675V37.3125H56.555V36.5H54.1175V38.9375H55.7425V38.125H56.555V40.5625H55.7425V39.75H54.1175V42.1875H56.555V41.375H57.3675V43H51.68Z" fill="#5A3C6C"/>
<path d="M66.2075 43V42.1875H67.02V36.5H66.2075V37.3125H65.395V35.6875H70.27V37.3125H69.4575V36.5H68.645V42.1875H69.4575V43H66.2075Z" fill="#5A3C6C"/>
<path d="M75.1125 42.1875V41.375H75.925V37.3125H75.1125V36.5H74.3V37.3125H73.4875V41.375H74.3V42.1875H75.1125ZM73.4875 43V42.1875H72.675V41.375H71.8625V37.3125H72.675V36.5H73.4875V35.6875H75.925V36.5H76.7375V37.3125H77.55V41.375H76.7375V42.1875H75.925V43H73.4875Z" fill="#5A3C6C"/>
<path d="M86.39 43V42.1875H87.2025V36.5H86.39V37.3125H85.5775V35.6875H90.4525V37.3125H89.64V36.5H88.8275V42.1875H89.64V43H86.39Z" fill="#5A3C6C"/>
<path d="M92.8575 43V42.1875H93.67V38.9375H92.8575V38.125H92.045V35.6875H93.67V38.125H95.295V35.6875H96.92V38.125H96.1075V38.9375H95.295V42.1875H96.1075V43H92.8575Z" fill="#5A3C6C"/>
<path d="M102.575 38.9375V36.5H100.95V38.9375H102.575ZM98.5125 43V42.1875H99.325V36.5H98.5125V35.6875H103.387V36.5H104.2V38.9375H103.387V39.75H100.95V42.1875H101.762V43H98.5125Z" fill="#5A3C6C"/>
<path d="M105.792 43V42.1875H106.605V36.5H105.792V35.6875H111.48V37.3125H110.667V36.5H108.23V38.9375H109.855V38.125H110.667V40.5625H109.855V39.75H108.23V42.1875H110.667V41.375H111.48V43H105.792Z" fill="#5A3C6C"/>
<path d="M119.507 43V35.6875H121.132V36.5H121.945V37.3125H122.757V36.5H123.57V35.6875H125.195V43H123.57V38.9375H122.757V39.75H121.945V38.9375H121.132V43H119.507Z" fill="#5A3C6C"/>
<path d="M127.6 43V42.1875H128.412V38.9375H127.6V38.125H126.787V35.6875H128.412V38.125H130.037V35.6875H131.662V38.125H130.85V38.9375H130.037V42.1875H130.85V43H127.6Z" fill="#5A3C6C"/>
<path d="M24.25 53.75V51.3125H22.625V53.75H24.25ZM21 57V51.3125H21.8125V50.5H22.625V49.6875H24.25V50.5H25.0625V51.3125H25.875V57H24.25V54.5625H22.625V57H21Z" fill="#5A3C6C"/>
<path d="M30.7175 56.1875V55.375H31.53V51.3125H30.7175V50.5H29.905V56.1875H30.7175ZM27.4675 57V56.1875H28.28V50.5H27.4675V49.6875H31.53V50.5H32.3425V51.3125H33.155V55.375H32.3425V56.1875H31.53V57H27.4675Z" fill="#5A3C6C"/>
<path d="M37.9975 56.1875V55.375H38.81V51.3125H37.9975V50.5H37.185V56.1875H37.9975ZM34.7475 57V56.1875H35.56V50.5H34.7475V49.6875H38.81V50.5H39.6225V51.3125H40.435V55.375H39.6225V56.1875H38.81V57H34.7475Z" fill="#5A3C6C"/>
<path d="M46.09 52.9375V50.5H44.465V52.9375H46.09ZM42.0275 57V56.1875H42.84V50.5H42.0275V49.6875H46.9025V50.5H47.715V52.9375H46.9025V54.5625H47.715V57H46.09V54.5625H45.2775V53.75H44.465V57H42.0275Z" fill="#5A3C6C"/>
<path d="M49.3075 57V56.1875H50.12V50.5H49.3075V49.6875H54.995V51.3125H54.1825V50.5H51.745V52.9375H53.37V52.125H54.1825V54.5625H53.37V53.75H51.745V56.1875H54.1825V55.375H54.995V57H49.3075Z" fill="#5A3C6C"/>
<path d="M57.4 57V56.1875H56.5875V54.5625H58.2125V56.1875H59.8375V54.5625H59.025V53.75H57.4V52.9375H56.5875V50.5H57.4V49.6875H60.65V50.5H61.4625V52.125H59.8375V50.5H58.2125V52.9375H59.8375V53.75H60.65V54.5625H61.4625V56.1875H60.65V57H57.4Z" fill="#5A3C6C"/>
<path d="M63.8675 57V56.1875H63.055V54.5625H64.68V56.1875H66.305V54.5625H65.4925V53.75H63.8675V52.9375H63.055V50.5H63.8675V49.6875H67.1175V50.5H67.93V52.125H66.305V50.5H64.68V52.9375H66.305V53.75H67.1175V54.5625H67.93V56.1875H67.1175V57H63.8675Z" fill="#5A3C6C"/>
<path d="M71.1475 57V55.375H72.7725V57H71.1475ZM71.1475 54.5625V52.9375H71.96V52.125H72.7725V50.5H71.1475V51.3125H69.5225V50.5H70.335V49.6875H73.585V50.5H74.3975V52.125H73.585V52.9375H72.7725V54.5625H71.1475Z" fill="#5A3C6C"/>
</g>
<defs>
<filter id="filter0_d_3153_2563" x="1" y="1" width="152" height="86" filterUnits="userSpaceOnUse" color-interpolation-filters="sRGB">
<feFlood flood-opacity="0" result="BackgroundImageFix"/>
<feColorMatrix in="SourceAlpha" type="matrix" values="0 0 0 0 0 0 0 0 0 0 0 0 0 0 0 0 0 0 127 0" result="hardAlpha"/>
<feOffset/>
<feGaussianBlur stdDeviation="4"/>
<feComposite in2="hardAlpha" operator="out"/>
<feColorMatrix type="matrix" values="0 0 0 0 0.737255 0 0 0 0 0.321569 0 0 0 0 0.678431 0 0 0 0.28 0"/>
<feBlend mode="normal" in2="BackgroundImageFix" result="effect1_dropShadow_3153_2563"/>
<feBlend mode="normal" in="SourceGraphic" in2="effect1_dropShadow_3153_2563" result="shape"/>
</filter>
<filter id="filter1_d_3153_2563" x="0.375" y="0.375" width="153.25" height="87.25" filterUnits="userSpaceOnUse" color-interpolation-filters="sRGB">
<feFlood flood-opacity="0" result="BackgroundImageFix"/>
<feColorMatrix in="SourceAlpha" type="matrix" values="0 0 0 0 0 0 0 0 0 0 0 0 0 0 0 0 0 0 127 0" result="hardAlpha"/>
<feOffset/>
<feGaussianBlur stdDeviation="4"/>
<feComposite in2="hardAlpha" operator="out"/>
<feColorMatrix type="matrix" values="0 0 0 0 0.737255 0 0 0 0 0.321569 0 0 0 0 0.678431 0 0 0 0.28 0"/>
<feBlend mode="normal" in2="BackgroundImageFix" result="effect1_dropShadow_3153_2563"/>
<feBlend mode="normal" in="SourceGraphic" in2="effect1_dropShadow_3153_2563" result="shape"/>
</filter>
<filter id="filter2_d_3153_2563" x="13" y="13.6875" width="126.663" height="51.3125" filterUnits="userSpaceOnUse" color-interpolation-filters="sRGB">
<feFlood flood-opacity="0" result="BackgroundImageFix"/>
<feColorMatrix in="SourceAlpha" type="matrix" values="0 0 0 0 0 0 0 0 0 0 0 0 0 0 0 0 0 0 127 0" result="hardAlpha"/>
<feOffset/>
<feGaussianBlur stdDeviation="4"/>
<feComposite in2="hardAlpha" operator="out"/>
<feColorMatrix type="matrix" values="0 0 0 0 0.737255 0 0 0 0 0.321569 0 0 0 0 0.678431 0 0 0 0.28 0"/>
<feBlend mode="normal" in2="BackgroundImageFix" result="effect1_dropShadow_3153_2563"/>
<feBlend mode="normal" in="SourceGraphic" in2="effect1_dropShadow_3153_2563" result="shape"/>
</filter>
</defs>
</svg>
