<svg width="69" height="64" viewBox="0 0 69 64" fill="none" xmlns="http://www.w3.org/2000/svg">
<path d="M60.58 38.79C60.9 29.1 55.91 20.09 47.54 15.25C47.28 15.1 47.01 14.96 46.74 14.81C46.89 14.02 46.97 13.24 46.97 12.49C46.97 5.6 41.37 0 34.48 0C27.59 0 21.99 5.6 21.99 12.49C21.99 13.26 22.06 14.05 22.21 14.82C17.88 17.11 14.3 20.57 11.85 24.81C9.39 29.07 8.18 33.9 8.36 38.79C3.36 40.55 0 45.27 0 50.57C0 57.46 5.6 63.06 12.49 63.06C15.48 63.06 18.37 61.99 20.64 60.04C20.89 60.2 21.15 60.36 21.41 60.51C25.37 62.8 29.87 64.01 34.43 64.01C39.33 64.01 44.13 62.64 48.31 60.03C50.58 61.99 53.47 63.07 56.46 63.07C59.93 63.07 63.26 61.61 65.62 59.07C65.93 58.73 66.23 58.38 66.5 58.01C68.1 55.85 68.95 53.28 68.95 50.58C68.95 45.27 65.59 40.55 60.58 38.8V38.79ZM12.49 61.53C9.32 61.53 6.32 60.16 4.23 57.78C6.02 54.9 9.1 53.19 12.49 53.19C15.88 53.19 18.96 54.9 20.75 57.78C18.67 60.17 15.66 61.53 12.49 61.53ZM12.49 44.55C14.45 44.55 16.04 46.14 16.04 48.1C16.04 50.06 14.45 51.65 12.49 51.65C10.53 51.65 8.94 50.06 8.94 48.1C8.94 46.14 10.53 44.55 12.49 44.55ZM17.58 48.1C17.58 45.29 15.3 43.01 12.49 43.01C9.68 43.01 7.4 45.29 7.4 48.1C7.4 49.66 8.12 51.14 9.34 52.1C6.87 52.82 4.73 54.36 3.25 56.47C2.12 54.71 1.53 52.67 1.53 50.57C1.53 44.53 6.45 39.61 12.49 39.61C18.53 39.61 23.45 44.53 23.45 50.57C23.45 52.67 22.86 54.71 21.73 56.47C20.25 54.35 18.1 52.81 15.64 52.1C16.86 51.14 17.58 49.67 17.58 48.1ZM22.54 58C24.14 55.84 24.99 53.27 24.99 50.57C24.99 43.68 19.39 38.08 12.5 38.08C11.64 38.08 10.75 38.18 9.85 38.38C9.75 33.91 10.89 29.48 13.15 25.57C15.39 21.69 18.66 18.49 22.59 16.33C24.26 21.52 29.01 25 34.48 25C37.95 25 41.28 23.54 43.64 21C43.95 20.66 44.25 20.31 44.52 19.94C45.33 18.85 45.95 17.64 46.37 16.33C46.4 16.34 46.42 16.36 46.44 16.37C46.56 16.43 46.68 16.49 46.79 16.56C54.56 21.05 59.26 29.4 59.1 38.39C58.2 38.2 57.32 38.1 56.46 38.1C49.57 38.1 43.97 43.7 43.97 50.59C43.97 53.7 45.12 56.67 47.22 58.98C39.52 63.62 29.93 63.72 22.16 59.24C22.03 59.17 21.91 59.09 21.78 59.01L21.75 58.99C22.03 58.68 22.3 58.36 22.54 58.03V58ZM56.46 44.55C58.42 44.55 60.01 46.14 60.01 48.1C60.01 50.06 58.42 51.65 56.46 51.65C54.5 51.65 52.91 50.06 52.91 48.1C52.91 46.14 54.5 44.55 56.46 44.55ZM56.46 53.19C59.85 53.19 62.93 54.9 64.72 57.78C62.64 60.17 59.63 61.53 56.46 61.53C53.29 61.53 50.28 60.16 48.2 57.78C49.99 54.9 53.07 53.19 56.46 53.19ZM61.55 48.1C61.55 45.29 59.27 43.01 56.46 43.01C53.65 43.01 51.37 45.29 51.37 48.1C51.37 49.66 52.09 51.14 53.31 52.1C50.84 52.82 48.7 54.36 47.22 56.47C46.09 54.71 45.5 52.67 45.5 50.57C45.5 44.53 50.42 39.61 56.46 39.61C62.5 39.61 67.42 44.53 67.42 50.57C67.42 52.67 66.83 54.71 65.7 56.47C64.22 54.35 62.07 52.81 59.61 52.1C60.83 51.14 61.55 49.67 61.55 48.1ZM34.48 6.48C36.44 6.48 38.03 8.07 38.03 10.03C38.03 11.99 36.44 13.58 34.48 13.58C32.52 13.58 30.93 11.99 30.93 10.03C30.93 8.07 32.52 6.48 34.48 6.48ZM34.48 15.12C37.87 15.12 40.95 16.83 42.74 19.71C40.66 22.1 37.65 23.46 34.48 23.46C31.31 23.46 28.31 22.09 26.22 19.71C28.01 16.83 31.09 15.12 34.48 15.12ZM43.71 18.4C42.23 16.28 40.09 14.74 37.62 14.03C38.84 13.07 39.56 11.6 39.56 10.03C39.56 7.22 37.28 4.94 34.47 4.94C31.66 4.94 29.38 7.22 29.38 10.03C29.38 11.59 30.1 13.07 31.32 14.03C28.85 14.75 26.71 16.29 25.23 18.4C24.1 16.64 23.51 14.6 23.51 12.5C23.51 6.46 28.43 1.54 34.47 1.54C40.51 1.54 45.43 6.46 45.43 12.5C45.43 14.61 44.84 16.64 43.71 18.4Z" fill="white"/>
</svg>
