<svg width="120" height="41" viewBox="0 0 120 41" fill="none" xmlns="http://www.w3.org/2000/svg">
  <g clip-path="url(#clip0_1632_3701)">
    <path
      d="M110.471 0.454232H9.87062C9.50392 0.454232 9.14162 0.454232 8.77589 0.456232C8.46974 0.458232 8.16603 0.464042 7.85694 0.468932C7.18545 0.476833 6.51554 0.535908 5.85304 0.645642C5.19146 0.757764 4.55061 0.969147 3.95216 1.27264C3.35444 1.5787 2.80828 1.9764 2.33351 2.4513C1.85624 2.92487 1.4584 3.47225 1.15529 4.07239C0.851338 4.67134 0.640578 5.31317 0.530288 5.97571C0.418948 6.63742 0.359036 7.30675 0.351088 7.97771C0.341808 8.28431 0.340827 8.59193 0.335938 8.89857V32.0128C0.340827 32.3233 0.341808 32.6241 0.351088 32.9347C0.359038 33.6057 0.418951 34.275 0.530288 34.9366C0.640273 35.5996 0.851046 36.2418 1.15529 36.8409C1.45826 37.4391 1.85616 37.9843 2.33351 38.4552C2.80648 38.9322 3.35299 39.3302 3.95216 39.6339C4.55061 39.9382 5.19139 40.1509 5.85304 40.2647C6.51566 40.3736 7.18549 40.4327 7.85694 40.4415C8.16603 40.4483 8.46974 40.4522 8.77589 40.4522C9.14161 40.4542 9.50394 40.4542 9.87062 40.4542H110.471C110.83 40.4542 111.195 40.4542 111.555 40.4522C111.859 40.4522 112.172 40.4483 112.477 40.4415C113.147 40.4332 113.815 40.3741 114.477 40.2647C115.14 40.1501 115.783 39.9375 116.385 39.6339C116.983 39.33 117.529 38.9321 118.002 38.4552C118.478 37.9825 118.877 37.4377 119.184 36.8409C119.486 36.2413 119.694 35.5992 119.803 34.9366C119.914 34.2749 119.976 33.6057 119.988 32.9347C119.992 32.6241 119.992 32.3233 119.992 32.0128C120 31.6495 120 31.2882 120 30.919V9.99036C120 9.62415 120 9.26087 119.992 8.89857C119.992 8.59193 119.992 8.28431 119.988 7.97767C119.976 7.30665 119.914 6.63747 119.803 5.97567C119.694 5.31351 119.485 4.67173 119.184 4.07235C118.566 2.86943 117.588 1.89026 116.385 1.27255C115.783 0.969799 115.14 0.758472 114.477 0.645552C113.815 0.535334 113.147 0.476239 112.477 0.468792C112.172 0.463912 111.859 0.458052 111.555 0.456102C111.195 0.454102 110.83 0.454102 110.471 0.454102V0.454232Z"
      fill="#A6A6A6" />
    <path
      d="M8.78077 39.5791C8.47609 39.5791 8.17877 39.5752 7.87648 39.5684C7.25027 39.5602 6.62551 39.5057 6.00734 39.4053C5.43093 39.306 4.87255 39.1214 4.3506 38.8574C3.83345 38.5956 3.36176 38.2524 2.9536 37.8408C2.53954 37.4341 2.19482 36.9623 1.93309 36.4443C1.66848 35.9229 1.48536 35.364 1.39009 34.7871C1.28722 34.1672 1.23156 33.5404 1.22359 32.9121C1.21725 32.7012 1.20895 31.999 1.20895 31.999V8.89844C1.20895 8.89844 1.21779 8.20703 1.22364 8.0039C1.23127 7.37658 1.28661 6.75075 1.38917 6.13183C1.48461 5.55335 1.66788 4.99285 1.93263 4.46973C2.1934 3.95205 2.53621 3.47996 2.94777 3.07178C3.35888 2.65972 3.83208 2.31471 4.35011 2.04931C4.87086 1.7862 5.42819 1.60283 6.00343 1.50537C6.62363 1.40394 7.25055 1.3491 7.87894 1.34131L8.78126 1.3291H111.55L112.463 1.3418C113.086 1.3492 113.707 1.40355 114.321 1.50439C114.902 1.60308 115.466 1.78772 115.992 2.05224C117.03 2.58709 117.874 3.43326 118.407 4.47217C118.668 4.99168 118.848 5.54761 118.942 6.12109C119.046 6.74509 119.104 7.37584 119.116 8.0083C119.119 8.2915 119.119 8.5957 119.119 8.89844C119.127 9.27344 119.127 9.63037 119.127 9.99023V30.9189C119.127 31.2822 119.127 31.6367 119.119 31.9941C119.119 32.3193 119.119 32.6172 119.115 32.9238C119.104 33.545 119.046 34.1645 118.944 34.7773C118.851 35.3584 118.669 35.9216 118.404 36.4473C118.141 36.9597 117.798 37.4274 117.389 37.833C116.98 38.2468 116.508 38.592 115.989 38.8555C115.464 39.1215 114.902 39.3068 114.321 39.4053C113.703 39.5063 113.078 39.5608 112.452 39.5684C112.159 39.5752 111.853 39.5791 111.555 39.5791L110.471 39.5811L8.78077 39.5791Z"
      fill="black" />
    <path
      d="M25.1048 20.7554C25.1156 19.9207 25.3373 19.1024 25.7493 18.3764C26.1613 17.6505 26.7503 17.0405 27.4614 16.6033C27.0096 15.9582 26.4137 15.4272 25.7209 15.0527C25.028 14.6781 24.2574 14.4703 23.4702 14.4457C21.791 14.2694 20.163 15.4505 19.3073 15.4505C18.435 15.4505 17.1175 14.4632 15.6988 14.4924C14.7811 14.522 13.8868 14.7889 13.1029 15.2669C12.319 15.745 11.6724 16.4179 11.2259 17.2202C9.29189 20.5686 10.7345 25.4897 12.5871 28.1963C13.514 29.5217 14.5973 31.0021 16.0147 30.9496C17.4018 30.8921 17.9198 30.0651 19.5941 30.0651C21.2529 30.0651 21.7389 30.9496 23.1851 30.9162C24.6735 30.8921 25.6112 29.585 26.5056 28.2471C27.1716 27.3027 27.6841 26.259 28.024 25.1546C27.1593 24.7888 26.4214 24.1767 25.9023 23.3944C25.3832 22.6121 25.1058 21.6943 25.1048 20.7554Z"
      fill="white" />
    <path
      d="M22.3732 12.6654C23.1847 11.6912 23.5845 10.439 23.4877 9.1748C22.2479 9.30503 21.1026 9.89758 20.2801 10.8344C19.878 11.2921 19.57 11.8245 19.3737 12.4013C19.1775 12.9781 19.0968 13.5878 19.1364 14.1958C19.7565 14.2022 20.37 14.0678 20.9307 13.8027C21.4914 13.5376 21.9846 13.1488 22.3732 12.6654Z"
      fill="white" />
    <path
      d="M42.6382 27.5938H37.9048L36.7681 30.9502H34.7632L39.2466 18.5322H41.3296L45.813 30.9502H43.7739L42.6382 27.5938ZM38.395 26.0449H42.147L40.2974 20.5977H40.2456L38.395 26.0449Z"
      fill="white" />
    <path
      d="M55.4956 26.4236C55.4956 29.237 53.9897 31.0446 51.7173 31.0446C51.1416 31.0748 50.5691 30.9422 50.0653 30.662C49.5615 30.3819 49.1468 29.9655 48.8687 29.4606H48.8257V33.945H46.9673V21.8962H48.7661V23.4021H48.8003C49.0912 22.8996 49.513 22.4854 50.0206 22.2036C50.5282 21.9217 51.1028 21.7828 51.6831 21.8015C53.9809 21.8015 55.4956 23.6179 55.4956 26.4236ZM53.5854 26.4236C53.5854 24.5906 52.6382 23.3855 51.1929 23.3855C49.7729 23.3855 48.8179 24.6159 48.8179 26.4236C48.8179 28.2478 49.7729 29.4695 51.1929 29.4695C52.6382 29.4695 53.5854 28.2732 53.5854 26.4236Z"
      fill="white" />
    <path
      d="M65.4604 26.4235C65.4604 29.237 63.9546 31.0446 61.6821 31.0446C61.1065 31.0747 60.534 30.9421 60.0302 30.662C59.5264 30.3819 59.1117 29.9655 58.8335 29.4606H58.7905V33.945H56.9321V21.8962H58.7309V23.4021H58.7651C59.0561 22.8996 59.4778 22.4854 59.9854 22.2036C60.493 21.9217 61.0676 21.7828 61.6479 21.8015C63.9458 21.8015 65.4604 23.6179 65.4604 26.4235ZM63.5503 26.4235C63.5503 24.5905 62.603 23.3855 61.1577 23.3855C59.7378 23.3855 58.7827 24.6159 58.7827 26.4235C58.7827 28.2478 59.7378 29.4694 61.1577 29.4694C62.603 29.4694 63.5503 28.2732 63.5503 26.4235H63.5503Z"
      fill="white" />
    <path
      d="M72.0464 27.4903C72.1841 28.7217 73.3804 29.5303 75.0151 29.5303C76.5815 29.5303 77.7085 28.7217 77.7085 27.6113C77.7085 26.6475 77.0288 26.0703 75.4194 25.6748L73.8101 25.2871C71.5298 24.7363 70.4712 23.6699 70.4712 21.9395C70.4712 19.7969 72.3384 18.3252 74.9897 18.3252C77.6137 18.3252 79.4126 19.7969 79.4731 21.9395H77.5971C77.4848 20.7002 76.4604 19.9522 74.9634 19.9522C73.4663 19.9522 72.4419 20.709 72.4419 21.8106C72.4419 22.6885 73.0962 23.2051 74.6968 23.6006L76.0649 23.9365C78.6128 24.539 79.6714 25.5625 79.6714 27.3789C79.6714 29.7021 77.8208 31.1572 74.8774 31.1572C72.1235 31.1572 70.2641 29.7363 70.144 27.4902L72.0464 27.4903Z"
      fill="white" />
    <path
      d="M83.6821 19.7539V21.8965H85.4038V23.3682H83.6821V28.3594C83.6821 29.1348 84.0269 29.4961 84.7837 29.4961C84.9881 29.4925 85.1921 29.4782 85.395 29.4531V30.916C85.0547 30.9796 84.7089 31.0084 84.3628 31.0019C82.5298 31.0019 81.8149 30.3134 81.8149 28.5576V23.3682H80.4985V21.8965H81.8149V19.7539H83.6821Z"
      fill="white" />
    <path
      d="M86.4009 26.4238C86.4009 23.5752 88.0786 21.7852 90.6949 21.7852C93.3199 21.7852 94.9898 23.5752 94.9898 26.4238C94.9898 29.2803 93.3286 31.0625 90.6949 31.0625C88.062 31.0625 86.4009 29.2803 86.4009 26.4238ZM93.0962 26.4238C93.0962 24.4697 92.2007 23.3164 90.6948 23.3164C89.189 23.3164 88.2945 24.4785 88.2945 26.4238C88.2945 28.3857 89.189 29.5303 90.6948 29.5303C92.2007 29.5303 93.0962 28.3857 93.0962 26.4238H93.0962Z"
      fill="white" />
    <path
      d="M96.522 21.8961H98.2944V23.4371H98.3374C98.4574 22.9558 98.7393 22.5305 99.1359 22.2326C99.5325 21.9347 100.02 21.7825 100.515 21.8014C100.729 21.8006 100.943 21.8239 101.152 21.8707V23.609C100.882 23.5264 100.599 23.4884 100.317 23.4967C100.047 23.4857 99.7778 23.5333 99.5279 23.6362C99.2781 23.7391 99.0535 23.8949 98.8695 24.0927C98.6855 24.2906 98.5465 24.526 98.4621 24.7827C98.3777 25.0393 98.3498 25.3112 98.3804 25.5797V30.9498H96.522L96.522 21.8961Z"
      fill="white" />
    <path
      d="M109.72 28.291C109.47 29.9346 107.87 31.0625 105.822 31.0625C103.188 31.0625 101.553 29.2978 101.553 26.4668C101.553 23.627 103.197 21.7852 105.744 21.7852C108.249 21.7852 109.824 23.5059 109.824 26.251V26.8877H103.429V27C103.4 27.3332 103.441 27.6689 103.552 27.9847C103.662 28.3005 103.838 28.5893 104.068 28.8319C104.299 29.0744 104.578 29.2652 104.888 29.3915C105.197 29.5178 105.53 29.5768 105.865 29.5644C106.304 29.6056 106.745 29.5039 107.121 29.2744C107.498 29.045 107.791 28.7001 107.956 28.291L109.72 28.291ZM103.438 25.5889H107.964C107.981 25.2893 107.936 24.9895 107.831 24.7083C107.726 24.427 107.565 24.1705 107.356 23.9547C107.148 23.739 106.897 23.5686 106.619 23.4544C106.342 23.3402 106.044 23.2846 105.744 23.291C105.441 23.2892 105.141 23.3474 104.861 23.4621C104.581 23.5768 104.326 23.7459 104.112 23.9595C103.898 24.1732 103.728 24.4271 103.612 24.7068C103.496 24.9864 103.437 25.2862 103.438 25.5889V25.5889Z"
      fill="white" />
    <path
      d="M38.1621 9.18451C38.5517 9.15655 38.9427 9.21541 39.3068 9.35684C39.6709 9.49827 39.9991 9.71875 40.2677 10.0024C40.5363 10.286 40.7386 10.6257 40.86 10.997C40.9814 11.3682 41.0188 11.7618 40.9697 12.1493C40.9697 14.0556 39.9395 15.1513 38.1621 15.1513H36.0068V9.18451H38.1621ZM36.9336 14.3075H38.0586C38.337 14.3241 38.6156 14.2785 38.8741 14.1739C39.1327 14.0693 39.3646 13.9083 39.5531 13.7028C39.7416 13.4972 39.8819 13.2522 39.9638 12.9856C40.0456 12.7189 40.067 12.4374 40.0264 12.1615C40.0641 11.8867 40.0405 11.6069 39.9574 11.3422C39.8743 11.0776 39.7336 10.8346 39.5456 10.6306C39.3575 10.4267 39.1267 10.2669 38.8696 10.1627C38.6125 10.0584 38.3356 10.0123 38.0586 10.0277H36.9336V14.3075Z"
      fill="white" />
    <path
      d="M42.0166 12.8979C41.9883 12.602 42.0222 12.3034 42.116 12.0213C42.2098 11.7393 42.3616 11.4799 42.5615 11.26C42.7615 11.04 43.0052 10.8642 43.277 10.7439C43.5489 10.6237 43.8429 10.5615 44.1401 10.5615C44.4374 10.5615 44.7314 10.6237 45.0033 10.7439C45.2751 10.8642 45.5188 11.04 45.7188 11.26C45.9187 11.4799 46.0705 11.7393 46.1643 12.0213C46.2581 12.3034 46.292 12.602 46.2637 12.8979C46.2925 13.1941 46.2591 13.4931 46.1655 13.7756C46.0719 14.0582 45.9202 14.318 45.7202 14.5384C45.5202 14.7588 45.2763 14.9349 45.0042 15.0555C44.7321 15.176 44.4378 15.2383 44.1401 15.2383C43.8425 15.2383 43.5482 15.176 43.2761 15.0555C43.0039 14.9349 42.76 14.7588 42.5601 14.5384C42.3601 14.318 42.2084 14.0582 42.1148 13.7756C42.0212 13.4931 41.9878 13.1941 42.0166 12.8979ZM45.3496 12.8979C45.3496 11.9218 44.9111 11.351 44.1416 11.351C43.3691 11.351 42.9346 11.9218 42.9346 12.8979C42.9346 13.8818 43.3692 14.4482 44.1416 14.4482C44.9111 14.4482 45.3496 13.8779 45.3496 12.8979H45.3496Z"
      fill="white" />
    <path
      d="M51.9092 15.1514H50.9873L50.0566 11.835H49.9863L49.0596 15.1514H48.1465L46.9053 10.6484H47.8066L48.6133 14.0844H48.6797L49.6055 10.6484H50.458L51.3838 14.0844H51.4541L52.2568 10.6484H53.1455L51.9092 15.1514Z"
      fill="white" />
    <path
      d="M54.1895 10.648H55.0449V11.3633H55.1113C55.224 11.1064 55.414 10.891 55.6549 10.7472C55.8957 10.6034 56.1755 10.5383 56.4551 10.5611C56.6742 10.5446 56.8942 10.5776 57.0988 10.6577C57.3034 10.7378 57.4873 10.8629 57.637 11.0238C57.7867 11.1846 57.8983 11.3771 57.9635 11.5869C58.0287 11.7967 58.0458 12.0185 58.0137 12.2359V15.1509H57.125V12.459C57.125 11.7354 56.8106 11.3755 56.1533 11.3755C56.0046 11.3686 55.8561 11.3939 55.718 11.4498C55.58 11.5056 55.4556 11.5906 55.3535 11.699C55.2514 11.8074 55.1739 11.9366 55.1263 12.0777C55.0788 12.2188 55.0624 12.3686 55.0781 12.5166V15.1509H54.1895L54.1895 10.648Z"
      fill="white" />
    <path d="M59.4297 8.89062H60.3184V15.1514H59.4297V8.89062Z" fill="white" />
    <path
      d="M61.5537 12.898C61.5254 12.602 61.5593 12.3035 61.6532 12.0214C61.747 11.7393 61.8988 11.48 62.0988 11.26C62.2987 11.04 62.5425 10.8642 62.8143 10.7439C63.0862 10.6237 63.3802 10.5615 63.6775 10.5615C63.9748 10.5615 64.2688 10.6237 64.5407 10.7439C64.8125 10.8642 65.0563 11.04 65.2562 11.26C65.4562 11.48 65.608 11.7393 65.7018 12.0214C65.7957 12.3035 65.8296 12.602 65.8013 12.898C65.8301 13.1942 65.7966 13.4932 65.703 13.7757C65.6094 14.0583 65.4577 14.3181 65.2576 14.5385C65.0576 14.7589 64.8137 14.935 64.5416 15.0555C64.2695 15.1761 63.9751 15.2383 63.6775 15.2383C63.3799 15.2383 63.0855 15.1761 62.8134 15.0555C62.5412 14.935 62.2973 14.7589 62.0973 14.5385C61.8973 14.3181 61.7456 14.0583 61.652 13.7757C61.5584 13.4932 61.5249 13.1942 61.5537 12.898ZM64.8867 12.898C64.8867 11.9219 64.4482 11.3511 63.6787 11.3511C62.9062 11.3511 62.4717 11.9219 62.4717 12.898C62.4717 13.8819 62.9063 14.4483 63.6787 14.4483C64.4482 14.4483 64.8867 13.878 64.8867 12.898H64.8867Z"
      fill="white" />
    <path
      d="M66.7368 13.8779C66.7368 13.0674 67.3403 12.6001 68.4116 12.5337L69.6313 12.4634V12.0747C69.6313 11.5991 69.3169 11.3306 68.7095 11.3306C68.2134 11.3306 67.8696 11.5127 67.771 11.8311H66.9106C67.0015 11.0576 67.729 10.5615 68.7505 10.5615C69.8794 10.5615 70.5161 11.1235 70.5161 12.0747V15.1514H69.6606V14.5186H69.5903C69.4476 14.7455 69.2472 14.9306 69.0096 15.0548C68.772 15.179 68.5056 15.2379 68.2378 15.2256C68.0488 15.2452 67.8577 15.225 67.6769 15.1664C67.4962 15.1077 67.3297 15.0117 67.1883 14.8848C67.0469 14.7578 66.9337 14.6026 66.8559 14.4292C66.7781 14.2558 66.7376 14.068 66.7368 13.8779ZM69.6313 13.4932V13.1167L68.5317 13.187C67.9116 13.2285 67.6304 13.4394 67.6304 13.8364C67.6304 14.2417 67.9819 14.4775 68.4654 14.4775C68.607 14.4919 68.7501 14.4776 68.8861 14.4355C69.0221 14.3934 69.1482 14.3244 69.257 14.2325C69.3658 14.1407 69.455 14.0279 69.5193 13.9009C69.5836 13.7739 69.6217 13.6352 69.6313 13.4932Z"
      fill="white" />
    <path
      d="M71.6841 12.898C71.6841 11.4751 72.4155 10.5737 73.5532 10.5737C73.8346 10.5608 74.1139 10.6282 74.3585 10.7681C74.603 10.908 74.8026 11.1146 74.9341 11.3637H75.0005V8.89062H75.8892V15.1514H75.0376V14.4399H74.9673C74.8257 14.6874 74.6191 14.8915 74.3698 15.0299C74.1206 15.1684 73.8382 15.2361 73.5532 15.2256C72.4077 15.2256 71.6841 14.3242 71.6841 12.898ZM72.6021 12.898C72.6021 13.853 73.0523 14.4278 73.8052 14.4278C74.5542 14.4278 75.0171 13.8448 75.0171 12.9019C75.0171 11.9634 74.5494 11.3721 73.8052 11.3721C73.0571 11.3721 72.6021 11.9507 72.6021 12.898H72.6021Z"
      fill="white" />
    <path
      d="M79.5659 12.8979C79.5376 12.602 79.5715 12.3034 79.6653 12.0213C79.7591 11.7393 79.9109 11.4799 80.1108 11.26C80.3108 11.04 80.5545 10.8642 80.8263 10.7439C81.0982 10.6237 81.3922 10.5615 81.6895 10.5615C81.9867 10.5615 82.2807 10.6237 82.5526 10.7439C82.8244 10.8642 83.0681 11.04 83.2681 11.26C83.468 11.4799 83.6198 11.7393 83.7136 12.0213C83.8074 12.3034 83.8413 12.602 83.813 12.8979C83.8418 13.1941 83.8084 13.4931 83.7148 13.7756C83.6212 14.0582 83.4695 14.318 83.2695 14.5384C83.0696 14.7588 82.8257 14.9349 82.5535 15.0555C82.2814 15.176 81.9871 15.2383 81.6895 15.2383C81.3918 15.2383 81.0975 15.176 80.8254 15.0555C80.5533 14.9349 80.3094 14.7588 80.1094 14.5384C79.9094 14.318 79.7577 14.0582 79.6641 13.7756C79.5705 13.4931 79.5371 13.1941 79.5659 12.8979ZM82.8989 12.8979C82.8989 11.9218 82.4604 11.351 81.6909 11.351C80.9185 11.351 80.4839 11.9218 80.4839 12.8979C80.4839 13.8818 80.9185 14.4482 81.6909 14.4482C82.4605 14.4482 82.8989 13.8779 82.8989 12.8979Z"
      fill="white" />
    <path
      d="M85.0054 10.648H85.8608V11.3633H85.9273C86.0399 11.1064 86.2299 10.891 86.4708 10.7472C86.7117 10.6034 86.9914 10.5383 87.271 10.5611C87.4901 10.5446 87.7101 10.5776 87.9147 10.6577C88.1193 10.7378 88.3033 10.8629 88.4529 11.0238C88.6026 11.1846 88.7142 11.3771 88.7794 11.5869C88.8446 11.7967 88.8617 12.0185 88.8296 12.2359V15.1509H87.9409V12.459C87.9409 11.7354 87.6265 11.3755 86.9692 11.3755C86.8205 11.3686 86.672 11.3939 86.5339 11.4498C86.3959 11.5056 86.2715 11.5906 86.1694 11.699C86.0673 11.8074 85.9898 11.9366 85.9423 12.0777C85.8947 12.2188 85.8783 12.3686 85.894 12.5166V15.1509H85.0054V10.648Z"
      fill="white" />
    <path
      d="M93.8511 9.52734V10.6689H94.8267V11.4175H93.8511V13.7329C93.8511 14.2046 94.0454 14.4111 94.4878 14.4111C94.601 14.4108 94.7142 14.4039 94.8267 14.3906V15.1309C94.6671 15.1594 94.5054 15.1746 94.3433 15.1763C93.355 15.1763 92.9614 14.8286 92.9614 13.9604V11.4174H92.2466V10.6689H92.9614V9.52734H93.8511Z"
      fill="white" />
    <path
      d="M96.0405 8.89062H96.9214V11.3721H96.9917C97.1098 11.1128 97.305 10.8962 97.5507 10.7518C97.7964 10.6075 98.0807 10.5424 98.3647 10.5654C98.5827 10.5536 98.8005 10.59 99.0028 10.672C99.2051 10.754 99.3868 10.8797 99.5349 11.0401C99.683 11.2004 99.7939 11.3914 99.8597 11.5996C99.9255 11.8077 99.9445 12.0278 99.9155 12.2441V15.1514H99.0259V12.4634C99.0259 11.7441 98.6909 11.3799 98.063 11.3799C97.9103 11.3673 97.7567 11.3883 97.6129 11.4414C97.4691 11.4945 97.3387 11.5783 97.2307 11.687C97.1227 11.7958 97.0397 11.9268 96.9877 12.0709C96.9356 12.2151 96.9157 12.3688 96.9292 12.5215V15.1514H96.0406L96.0405 8.89062Z"
      fill="white" />
    <path
      d="M105.097 13.9356C104.976 14.3472 104.715 14.7031 104.358 14.9413C104.001 15.1794 103.572 15.2846 103.146 15.2383C102.849 15.2462 102.555 15.1894 102.282 15.0718C102.01 14.9543 101.766 14.7789 101.568 14.5577C101.37 14.3366 101.223 14.075 101.136 13.7912C101.049 13.5074 101.025 13.2081 101.066 12.9141C101.026 12.6193 101.051 12.3193 101.137 12.0346C101.224 11.75 101.37 11.4872 101.567 11.2641C101.764 11.0411 102.007 10.8629 102.278 10.7417C102.55 10.6205 102.845 10.5591 103.142 10.5616C104.395 10.5616 105.151 11.4176 105.151 12.8316V13.1417H101.971V13.1915C101.957 13.3567 101.978 13.5231 102.032 13.6798C102.086 13.8366 102.173 13.9803 102.285 14.1017C102.398 14.2232 102.535 14.3197 102.688 14.3851C102.84 14.4505 103.005 14.4833 103.17 14.4815C103.383 14.507 103.598 14.4687 103.789 14.3715C103.98 14.2743 104.137 14.1226 104.242 13.9356L105.097 13.9356ZM101.971 12.4844H104.246C104.257 12.3333 104.236 12.1815 104.185 12.0388C104.134 11.8961 104.054 11.7656 103.95 11.6557C103.845 11.5459 103.719 11.4591 103.579 11.4009C103.439 11.3427 103.289 11.3145 103.137 11.3179C102.983 11.316 102.831 11.3449 102.689 11.4028C102.546 11.4608 102.417 11.5466 102.308 11.6553C102.2 11.7641 102.114 11.8934 102.056 12.0358C101.998 12.1782 101.969 12.3308 101.971 12.4844H101.971Z"
      fill="white" />
  </g>
  <defs>
    <clipPath id="clip0_1632_3701">
      <rect width="119.664" height="40" fill="white" transform="translate(0.335938 0.454102)" />
    </clipPath>
  </defs>
</svg>