<svg width="134" height="140" viewBox="0 0 134 140" fill="none" xmlns="http://www.w3.org/2000/svg">
<g filter="url(#filter0_d_3153_2387)">
<path d="M125.534 67.6209V90.3717C125.534 96.4417 123.656 102.256 120.256 106.758C116.057 112.37 109.614 117.493 101.099 121.995L100.944 122.08V130.455C100.944 131.084 100.416 131.612 99.7872 131.612H13.7362C10.577 131.612 8 129.043 8 125.876V13.744C8 10.577 10.577 8 13.7362 8H95.2075C98.3745 8 100.944 10.577 100.944 13.744V61.8071L101.091 61.8925C107.961 65.9132 115.746 67.4501 124.23 66.4643C124.548 66.4255 124.882 66.5187 125.131 66.7205C125.394 66.9611 125.534 67.2716 125.534 67.6209ZM112.013 89.6421C112.013 82.9201 106.525 77.4478 99.7872 77.4478C93.0496 77.4478 87.5929 82.9201 87.5929 89.6421C87.5929 96.3641 93.0652 101.867 99.7872 101.867C106.509 101.867 111.981 96.3874 112.013 89.6421ZM98.6306 61.7838V13.744C98.6306 11.8578 97.0937 10.3209 95.2075 10.3209H13.7362C11.85 10.3209 10.3209 11.8578 10.3209 13.744V125.907C10.3209 127.793 11.85 129.322 13.7362 129.322H98.3356V129.035H98.5996V122.049L98.4521 121.971C90.4726 117.749 84.2862 112.96 80.0636 107.736C77.9678 105.112 76.3766 102.077 75.3287 98.7238L75.2588 98.5142H21.7079C21.0792 98.5142 20.5514 97.9864 20.5514 97.3576C20.5514 96.7289 21.0714 96.2011 21.7079 96.2011H74.7077L74.6301 95.8518C74.242 94.0199 74.0479 92.1492 74.0479 90.2941V86.4829H21.7079C21.0869 86.4829 20.5514 85.9551 20.5514 85.3263C20.5514 84.6976 21.0714 84.1698 21.7079 84.1698H74.0479V74.4205H21.7079C21.0869 74.4205 20.5514 73.8927 20.5514 73.264C20.5514 72.6352 21.0714 72.1074 21.7079 72.1074H74.0479V67.5976C74.0479 67.2483 74.1799 66.9378 74.4283 66.705C74.6844 66.4954 75.0182 66.3945 75.352 66.4333C83.8127 67.4269 91.5981 65.89 98.4831 61.8692L98.6306 61.7838Z" fill="#67285E"/>
<path d="M99.7871 77.4478C106.525 77.4478 112.012 82.9201 112.012 89.6421C111.981 96.3873 106.501 101.867 99.7871 101.867C93.0728 101.867 87.5928 96.3873 87.5928 89.6421C87.5928 82.8968 93.0651 77.4478 99.7871 77.4478ZM106.408 86.0016C106.618 85.7765 106.734 85.4738 106.719 85.1711C106.711 84.8683 106.579 84.5811 106.346 84.3716C105.88 83.9291 105.166 83.9602 104.708 84.4337L97.3575 92.351L94.5321 89.3005C94.3225 89.0677 94.0353 88.9357 93.7171 88.9279H93.6783C93.3833 88.9279 93.1116 89.0366 92.9021 89.2384C92.6692 89.448 92.5372 89.7352 92.5217 90.0457C92.514 90.3562 92.6226 90.6511 92.8322 90.8685L96.5115 94.8272C96.9849 95.3084 97.7922 95.2774 98.2036 94.8349L106.408 86.0016Z" fill="#9E3D90"/>
<path d="M106.719 85.171C106.734 85.4738 106.618 85.7765 106.408 86.0016L98.2035 94.8349C97.7921 95.2773 96.9849 95.3084 96.5114 94.8271L92.8321 90.8684C92.6225 90.6511 92.5139 90.3561 92.5216 90.0457C92.5372 89.7352 92.6691 89.448 92.902 89.2384C93.1115 89.0366 93.3832 88.9279 93.6782 88.9279H93.717C94.0352 88.9357 94.3224 89.0676 94.532 89.3005L97.3574 92.351L104.708 84.4336C105.166 83.9601 105.88 83.9291 106.346 84.3715C106.579 84.5811 106.711 84.8683 106.719 85.171Z" fill="#200E1E"/>
<path d="M98.6305 13.7439V61.7837L98.4831 61.8691C91.598 65.8899 83.8126 67.4268 75.3519 66.4332C75.0181 66.3944 74.6844 66.4953 74.4282 66.7049C74.1798 66.9378 74.0479 67.2483 74.0479 67.5975V72.1073H21.7078C21.0713 72.1073 20.5513 72.6274 20.5513 73.2639C20.5513 73.9004 21.0869 74.4205 21.7078 74.4205H74.0479V84.1697H21.7078C21.0713 84.1697 20.5513 84.682 20.5513 85.3263C20.5513 85.9705 21.0869 86.4828 21.7078 86.4828H74.0479V90.294C74.0479 92.1492 74.2419 94.0198 74.63 95.8517L74.7077 96.201H21.7078C21.0713 96.201 20.5513 96.7211 20.5513 97.3576C20.5513 97.994 21.0791 98.5141 21.7078 98.5141H75.2588L75.3286 98.7237C76.3765 102.077 77.9677 105.112 80.0635 107.736C84.2861 112.959 90.4725 117.749 98.452 121.971L98.5995 122.049V129.035H98.3356V129.322H13.7361C11.8499 129.322 10.3208 127.793 10.3208 125.907V13.7439C10.3208 11.8577 11.8499 10.3208 13.7361 10.3208H95.2074C97.0936 10.3208 98.6305 11.8577 98.6305 13.7439ZM73.5899 42.0757C73.5899 31.3639 64.8808 22.6471 54.1613 22.6471C43.4418 22.6471 34.7094 31.3639 34.7094 42.0757C34.7094 52.7874 43.434 61.5353 54.1613 61.5353C64.8886 61.5353 73.5899 52.8029 73.5899 42.0757ZM40.8027 117.236C41.0976 116.631 40.857 115.925 40.2671 115.63C39.7703 115.389 37.7444 114.357 36.8983 113.65C35.0509 112.082 32.9629 111.749 31.5657 112.804C31.2242 113.068 30.906 113.41 30.6188 113.829L30.448 114.062C30.4014 114.116 30.3626 114.17 30.3316 114.209V114.419H30.0444C29.7261 114.419 29.1052 113.805 29.0353 113.736C28.6782 113.41 28.3134 113.068 27.8011 112.773C27.2811 112.494 26.6834 112.362 26.0779 112.362C25.0456 112.362 23.9744 112.75 23.0895 113.495C21.9329 114.45 21.2344 115.785 20.6755 116.848C20.5358 117.128 20.5047 117.454 20.6056 117.756C20.6988 118.051 20.9006 118.284 21.1645 118.424C21.3663 118.517 21.5526 118.571 21.7078 118.571C22.1425 118.571 22.5462 118.331 22.748 117.95C23.1982 117.073 23.757 115.979 24.5798 115.304C25.2241 114.745 26.14 114.551 26.7144 114.853C27.0016 114.993 27.9408 115.901 27.9486 115.917C28.8102 116.631 29.8037 116.926 30.6653 116.693C31.5192 116.468 32.0315 115.831 32.4351 115.327L32.4817 115.265C32.668 115.016 32.8154 114.822 32.9629 114.706C33.5373 114.287 34.6318 114.807 35.408 115.459C36.4326 116.328 38.4197 117.361 39.2347 117.764C39.5375 117.904 39.8557 117.919 40.1507 117.819C40.4456 117.718 40.6785 117.516 40.8027 117.236Z" fill="#200E1E"/>
<path d="M54.1614 22.6471C64.8809 22.6471 73.59 31.364 73.59 42.0757C73.59 52.7874 64.8809 61.5354 54.1614 61.5354C43.4419 61.5354 34.7095 52.803 34.7095 42.0757C34.7095 31.3484 43.4341 22.6471 54.1614 22.6471Z" fill="#5A3C6C"/>
<path d="M40.2671 115.63C40.857 115.925 41.0976 116.631 40.8027 117.236C40.6785 117.516 40.4456 117.718 40.1507 117.819C39.8557 117.919 39.5375 117.904 39.2347 117.764C38.4197 117.361 36.4326 116.328 35.408 115.459C34.6318 114.807 33.5373 114.287 32.9629 114.706C32.8155 114.822 32.668 115.016 32.4817 115.265L32.4351 115.327C32.0315 115.831 31.5192 116.468 30.6654 116.693C29.8038 116.926 28.8102 116.631 27.9486 115.917C27.9408 115.901 27.0016 114.993 26.7144 114.853C26.14 114.551 25.2241 114.745 24.5798 115.304C23.7571 115.979 23.1982 117.073 22.748 117.95C22.5462 118.331 22.1425 118.571 21.7079 118.571C21.5526 118.571 21.3663 118.517 21.1645 118.424C20.9006 118.284 20.6988 118.051 20.6056 117.756C20.5047 117.454 20.5358 117.128 20.6755 116.848C21.2344 115.785 21.933 114.45 23.0895 113.495C23.9744 112.75 25.0456 112.362 26.0779 112.362C26.6834 112.362 27.2811 112.494 27.8011 112.773C28.3134 113.068 28.6782 113.41 29.0353 113.736C29.1052 113.805 29.7261 114.419 30.0444 114.419H30.3316V114.209C30.3316 114.209 30.4014 114.116 30.448 114.062L30.6188 113.829C30.906 113.41 31.2242 113.068 31.5658 112.804C32.9629 111.749 35.051 112.082 36.8983 113.65C37.7444 114.357 39.7703 115.389 40.2671 115.63Z" fill="#67285E"/>
</g>
<defs>
<filter id="filter0_d_3153_2387" x="0" y="0" width="133.534" height="139.612" filterUnits="userSpaceOnUse" color-interpolation-filters="sRGB">
<feFlood flood-opacity="0" result="BackgroundImageFix"/>
<feColorMatrix in="SourceAlpha" type="matrix" values="0 0 0 0 0 0 0 0 0 0 0 0 0 0 0 0 0 0 127 0" result="hardAlpha"/>
<feOffset/>
<feGaussianBlur stdDeviation="4"/>
<feComposite in2="hardAlpha" operator="out"/>
<feColorMatrix type="matrix" values="0 0 0 0 0.737255 0 0 0 0 0.321569 0 0 0 0 0.678431 0 0 0 0.28 0"/>
<feBlend mode="normal" in2="BackgroundImageFix" result="effect1_dropShadow_3153_2387"/>
<feBlend mode="normal" in="SourceGraphic" in2="effect1_dropShadow_3153_2387" result="shape"/>
</filter>
</defs>
</svg>
