<svg width="121" height="120" viewBox="0 0 121 120" fill="none" xmlns="http://www.w3.org/2000/svg">
<g filter="url(#filter0_d_3153_2473)">
<path d="M102.59 47.9199C103.104 47.9199 103.515 48.3302 103.515 48.8447C103.515 49.3591 103.104 49.7694 102.59 49.7694H85.7688L85.4692 47.9199H102.59Z" fill="#200E1E"/>
<path d="M102.59 38.6725C103.104 38.6725 103.515 39.0893 103.515 39.5972C103.515 40.1052 103.104 40.522 102.59 40.522H44.4228C43.9148 40.522 43.498 40.1052 43.498 39.5972C43.498 39.0893 43.9148 38.6725 44.4228 38.6725H102.59Z" fill="#200E1E"/>
<path d="M102.59 29.3861C103.104 29.3861 103.515 29.7964 103.515 30.3108C103.515 30.8253 103.104 31.2356 102.59 31.2356H44.4228C43.9148 31.2356 43.498 30.8188 43.498 30.3108C43.498 29.8029 43.9148 29.3861 44.4228 29.3861H102.59Z" fill="#200E1E"/>
<path d="M102.59 20.1193C103.104 20.1193 103.521 20.5295 103.521 21.044C103.521 21.5585 103.117 21.9687 102.59 21.9687H44.4228C43.9148 21.9687 43.498 21.5519 43.498 21.044C43.498 20.536 43.9148 20.1193 44.4228 20.1193H102.59Z" fill="#200E1E"/>
<path d="M33.2413 57.8445L38.8874 67.8342H27.5757L33.2413 57.8445Z" fill="#200E1E"/>
<path d="M60.1889 57.8445L65.861 67.8342H54.5493L60.1889 57.8445Z" fill="#200E1E"/>
<path d="M83.3202 49.5805L83.3398 93.6095C83.3398 95.179 82.0634 96.4553 80.4939 96.4553H40.5285C40.281 96.4553 40.0466 96.5465 39.8903 96.7093L26.0909 109.395C25.7393 109.734 25.2834 109.91 24.8145 109.91C24.5605 109.91 24.3001 109.857 24.0526 109.747C23.3232 109.415 22.913 108.77 22.913 107.988V97.3931C22.913 96.8656 22.4832 96.4358 21.9557 96.4358H12.9297C11.3538 96.4358 10.0774 95.1594 10.0774 93.59V49.5805C10.0774 48.011 11.3538 46.7346 12.9297 46.7346H80.4679C82.0373 46.7346 83.3202 48.011 83.3202 49.5805ZM68.5049 68.7654C68.4789 68.6808 68.4073 68.4789 68.3617 68.3617C68.3421 68.3161 68.3356 68.29 68.3291 68.264L61.8299 56.8481H62.6895C63.2235 56.8481 63.6533 56.4183 63.6533 55.8908C63.6533 55.3633 63.2235 54.9335 62.6895 54.9335H47.6594V52.3677C47.6594 51.8402 47.2361 51.4104 46.7021 51.4104C46.1681 51.4104 45.7448 51.8402 45.7448 52.3677V54.9335H30.7146C30.1871 54.9335 29.7573 55.3633 29.7573 55.8908C29.7573 56.4183 30.1871 56.8481 30.7146 56.8481H31.5807L25.0945 68.29C25.0034 68.4203 24.9708 68.6677 24.9708 68.7654C24.9708 71.3964 25.8695 73.6235 27.5692 75.2125C29.093 76.6126 31.1053 77.3811 33.2413 77.3811C37.3505 77.3811 41.5053 74.431 41.5053 68.7915C41.5053 68.6156 41.4272 68.4138 41.3881 68.3291L41.3751 68.2835L34.9019 56.8676H45.7708V84.7269L45.5429 84.7529C42.4887 85.1306 39.76 86.9931 38.2557 89.7347L38.1776 89.865H32.4143C31.8868 89.865 31.457 90.2948 31.457 90.8223C31.457 91.3498 31.8868 91.7796 32.4143 91.7796H61.0419C61.5694 91.7796 61.9992 91.3563 61.9992 90.8223C61.9992 90.2883 61.5694 89.865 61.0419 89.865H55.2721L55.2005 89.7282C53.7287 86.9931 51.0001 85.1371 47.9133 84.7529L47.6854 84.7269V56.8481H58.5543L52.0681 68.29C51.9704 68.4398 51.9444 68.6873 51.9444 68.7654C51.9444 71.4224 52.8496 73.6366 54.5623 75.1865C56.0406 76.5671 58.1115 77.3615 60.2344 77.3615C64.3436 77.3615 68.5049 74.4115 68.5049 68.7654Z" fill="#200E1E"/>
<path d="M65.8611 67.8342L60.189 57.8444L54.5494 67.8342H65.8611ZM61.8301 56.8481L68.3293 68.264C68.3293 68.264 68.3423 68.3161 68.3618 68.3617C68.4074 68.4789 68.479 68.6807 68.5051 68.7654C68.5051 74.4115 64.3438 77.3615 60.2346 77.3615C58.1116 77.3615 56.0407 76.567 54.5624 75.1864C52.8497 73.6365 51.9445 71.4224 51.9445 68.7654C51.9445 68.6873 51.9706 68.4398 52.0683 68.29L58.5544 56.8481H47.6855V54.9335H62.6897C63.2237 54.9335 63.6535 55.3633 63.6535 55.8908C63.6535 56.4183 63.2237 56.8481 62.6897 56.8481H61.8301Z" fill="#3F2A4B"/>
<path d="M55.2722 89.8649H61.042C61.5695 89.8649 61.9993 90.2947 61.9993 90.8222C61.9993 91.3497 61.5695 91.7795 61.042 91.7795H32.4143C31.8868 91.7795 31.457 91.3562 31.457 90.8222C31.457 90.2882 31.8868 89.8649 32.4143 89.8649H38.1776L38.2558 89.7347C39.7601 86.9931 42.4887 85.1306 45.5429 84.7529L45.7709 84.7268H47.6855L47.9134 84.7529C51.0002 85.1371 53.7288 86.9931 55.2006 89.7282L55.2722 89.8649Z" fill="#3F2A4B"/>
<path d="M38.8873 67.8342L33.2412 57.8445L27.5756 67.8342H38.8873ZM47.6853 56.8481V84.7269H45.7707V56.8676H34.9018L41.375 68.2835L41.388 68.3291C41.4271 68.4138 41.5052 68.6157 41.5052 68.7915C41.5052 74.4311 37.3504 77.3811 33.2412 77.3811C31.1052 77.3811 29.0929 76.6127 27.5691 75.2125C25.8694 73.6235 24.9707 71.3964 24.9707 68.7654C24.9707 68.6678 25.0033 68.4203 25.0944 68.2901L31.5806 56.8481H30.7145C30.187 56.8481 29.7572 56.4183 29.7572 55.8908C29.7572 55.3633 30.187 54.9335 30.7145 54.9335H45.7447V52.3677C45.7447 51.8402 46.1745 51.4104 46.702 51.4104C47.2294 51.4104 47.6592 51.8402 47.6592 52.3677V54.9335H47.6853V56.8481Z" fill="#3F2A4B"/>
<path d="M8.16284 49.5805C8.16284 46.9431 10.2988 44.794 12.9298 44.794H34.9866V12.9298C34.9866 10.2988 37.1226 8.16284 39.7471 8.16284H107.389C109.962 8.21494 112.059 10.3314 112.078 12.9298V56.9784C112.078 59.6028 109.942 61.7388 107.311 61.7388H99.2426V71.3573C99.2426 72.9724 98.37 74.3204 96.9699 74.8739C95.42 75.5056 94.2933 75.3102 92.8476 74.1641L85.2804 67.2156V93.6291C85.2804 96.2535 83.1379 98.396 80.5135 98.396H40.9323L27.4129 110.821C26.6966 111.473 25.7784 111.837 24.8276 111.837C24.3327 111.837 23.8247 111.727 23.2777 111.512C21.871 110.899 20.9984 109.558 20.9984 108.008V98.396H12.9298C10.2988 98.396 8.16284 96.26 8.16284 93.6291V49.5805ZM80.4679 46.7347H12.9298C11.3538 46.7347 10.0774 48.0111 10.0774 49.5805V93.59C10.0774 95.1595 11.3538 96.4359 12.9298 96.4359H21.9557C22.4832 96.4359 22.913 96.8657 22.913 97.3932V107.989C22.913 108.77 23.3233 109.415 24.0526 109.747C24.3001 109.858 24.5606 109.91 24.8146 109.91C25.2834 109.91 25.7393 109.734 26.091 109.395L39.8903 96.7094C40.0466 96.5466 40.2811 96.4554 40.5285 96.4554H80.494C82.0634 96.4554 83.3398 95.179 83.3398 93.6096L83.3203 49.5805C83.3203 48.0111 82.0374 46.7347 80.4679 46.7347ZM103.521 21.044C103.521 20.5295 103.104 20.1193 102.59 20.1193H44.4228C43.9149 20.1193 43.4981 20.5295 43.4981 21.044C43.4981 21.5585 43.9149 21.9687 44.4228 21.9687H102.59C103.117 21.9687 103.521 21.5715 103.521 21.044ZM103.515 30.3109C103.515 29.7964 103.104 29.3861 102.59 29.3861H44.4228C43.9149 29.3861 43.4981 29.7964 43.4981 30.3109C43.4981 30.8253 43.9149 31.2356 44.4228 31.2356H102.59C103.104 31.2356 103.515 30.8188 103.515 30.3109ZM103.515 39.5973C103.515 39.0893 103.104 38.6725 102.59 38.6725H44.4228C43.9149 38.6725 43.4981 39.0893 43.4981 39.5973C43.4981 40.1052 43.9149 40.522 44.4228 40.522H102.59C103.104 40.522 103.515 40.1052 103.515 39.5973ZM103.515 48.8446C103.515 48.3302 103.104 47.9199 102.59 47.9199H85.4693L85.7689 49.7694H102.59C103.104 49.7694 103.515 49.3526 103.515 48.8446Z" fill="#67285E"/>
</g>
<defs>
<filter id="filter0_d_3153_2473" x="0.162842" y="0.162842" width="119.915" height="119.674" filterUnits="userSpaceOnUse" color-interpolation-filters="sRGB">
<feFlood flood-opacity="0" result="BackgroundImageFix"/>
<feColorMatrix in="SourceAlpha" type="matrix" values="0 0 0 0 0 0 0 0 0 0 0 0 0 0 0 0 0 0 127 0" result="hardAlpha"/>
<feOffset/>
<feGaussianBlur stdDeviation="4"/>
<feComposite in2="hardAlpha" operator="out"/>
<feColorMatrix type="matrix" values="0 0 0 0 0.737255 0 0 0 0 0.321569 0 0 0 0 0.678431 0 0 0 0.28 0"/>
<feBlend mode="normal" in2="BackgroundImageFix" result="effect1_dropShadow_3153_2473"/>
<feBlend mode="normal" in="SourceGraphic" in2="effect1_dropShadow_3153_2473" result="shape"/>
</filter>
</defs>
</svg>
