<svg width="16" height="16" viewBox="0 0 16 16" fill="none" xmlns="http://www.w3.org/2000/svg">
  <path fill-rule="evenodd" clip-rule="evenodd"
    d="M1.15152 1.15147C1.62015 0.682842 2.37995 0.682842 2.84858 1.15147L8.00005 6.30294L13.1515 1.15147C13.6202 0.682842 14.3799 0.682842 14.8486 1.15147C15.3172 1.6201 15.3172 2.3799 14.8486 2.84853L9.69711 8L14.8486 13.1515C15.3172 13.6201 15.3172 14.3799 14.8486 14.8485C14.3799 15.3172 13.6202 15.3172 13.1515 14.8485L8.00005 9.69706L2.84858 14.8485C2.37995 15.3172 1.62015 15.3172 1.15152 14.8485C0.682892 14.3799 0.682892 13.6201 1.15152 13.1515L6.30299 8L1.15152 2.84853C0.682892 2.3799 0.682892 1.6201 1.15152 1.15147Z"
    fill="#747776" />
</svg>