<svg width="98" height="144" viewBox="0 0 98 144" fill="none" xmlns="http://www.w3.org/2000/svg">
<g filter="url(#filter0_d_3153_2538)">
<path d="M30.0001 58.7423V89.0808L24.053 85.6482V46.7247L30.0001 50.1573V58.7354V58.7423Z" fill="#200E1E"/>
<path d="M38.0028 63.9563V93.6987L32.0557 90.2661V60.5237L38.0028 63.9563Z" fill="#200E1E"/>
<path d="M54.0008 61.7228V102.935L48.0537 99.502V63.3945V58.2902L54.0008 61.7228Z" fill="#200E1E"/>
<path d="M86.6414 49.3831L79.0636 53.172L19.291 18.6609L26.814 14.8378L86.6414 49.3831Z" fill="#200E1E"/>
<path d="M87.7856 51.1097V122.701L80.0571 126.559V54.974L87.5595 51.2194L87.7856 51.1097Z" fill="#200E1E"/>
<path d="M78.0016 54.9741V132.855L10.0552 93.6235V15.7012L78.0016 54.9329V54.9741ZM74.0483 120.94C74.0483 120.94 74.0483 120.872 74.0483 120.845V120.742C74.0415 120.707 74.0346 120.673 74.0346 120.639C74.0278 120.612 74.0209 120.577 74.0072 120.55C74.0003 120.516 73.9866 120.481 73.9729 120.454C73.9592 120.42 73.9455 120.392 73.9318 120.365C73.925 120.351 73.925 120.337 73.9181 120.331L70.9172 115.158C70.6294 114.664 69.9991 114.5 69.5126 114.781C69.0193 115.069 68.8549 115.692 69.1358 116.185L70.2046 118.029L19.0512 88.4985V29.8221L20.1406 31.6926C20.3256 32.0215 20.675 32.1996 21.0313 32.1996C21.2026 32.1996 21.3807 32.1585 21.5452 32.0626C22.0316 31.7748 22.2029 31.1513 21.9151 30.658L18.9142 25.4851C18.9142 25.4851 18.9005 25.4646 18.8936 25.4577C18.8799 25.4303 18.8525 25.4029 18.832 25.3755L18.7703 25.2933C18.7703 25.2933 18.7223 25.2522 18.7018 25.2316C18.6744 25.2111 18.647 25.1837 18.6196 25.1631C18.5922 25.1494 18.5648 25.1289 18.5373 25.1152C18.5099 25.1014 18.4825 25.0809 18.4551 25.0672C18.4209 25.0535 18.3866 25.0398 18.3524 25.0329C18.325 25.0192 18.2975 25.0124 18.2633 25.0055C18.2359 25.0055 18.2016 24.9918 18.1674 24.985C18.1331 24.985 18.0989 24.9781 18.0646 24.9781C18.0509 24.9781 18.0372 24.9713 18.0235 24.9713C18.0098 24.9713 17.9892 24.9781 17.9687 24.9781C17.9344 24.9781 17.8933 24.985 17.859 24.9918C17.8248 24.9987 17.7974 25.0055 17.7631 25.0124C17.7289 25.0192 17.7015 25.0261 17.6672 25.0398C17.6329 25.0535 17.6055 25.0672 17.5713 25.0809C17.5507 25.0946 17.537 25.0946 17.5165 25.1083L14.5224 26.8143C14.0222 27.0952 13.8509 27.7256 14.1318 28.2189C14.4127 28.7122 15.0431 28.8835 15.5364 28.6026L16.9958 27.7667V89.0877C16.9958 89.0877 17.0026 89.1083 17.0026 89.122C17.0026 89.1563 17.0026 89.1974 17.0163 89.2316C17.0163 89.2659 17.0232 89.2933 17.03 89.3275C17.0369 89.3549 17.0506 89.3892 17.0574 89.4235C17.0711 89.4509 17.078 89.4851 17.0917 89.5125C17.1054 89.5468 17.1259 89.5742 17.1396 89.6016C17.1602 89.629 17.1739 89.6564 17.1876 89.6838C17.2082 89.7112 17.2356 89.7386 17.2561 89.7592C17.2767 89.7866 17.2972 89.814 17.3246 89.8346C17.3452 89.8551 17.3726 89.8757 17.3931 89.8962C17.4274 89.9168 17.4548 89.9373 17.4822 89.9579C17.4959 89.9647 17.5028 89.9716 17.5096 89.9784L70.9651 120.838L69.5195 121.66C69.0262 121.941 68.8549 122.571 69.1358 123.064C69.3208 123.393 69.6702 123.578 70.0265 123.578C70.1978 123.578 70.3759 123.537 70.5335 123.448L73.5276 121.742C73.6372 121.68 73.7263 121.598 73.8085 121.502C73.8291 121.482 73.8428 121.454 73.8633 121.434C73.877 121.406 73.9044 121.386 73.9181 121.358C73.9592 121.283 73.9935 121.208 74.0141 121.125C74.0141 121.119 74.0209 121.119 74.0209 121.112C74.0278 121.091 74.0278 121.064 74.0346 121.043C74.0415 121.009 74.0483 120.975 74.0483 120.94ZM73.9181 59.4138C74.199 58.9274 74.0346 58.297 73.5413 58.0161L62.5446 51.6648C62.0513 51.377 61.421 51.5483 61.1401 52.0348C60.8523 52.5281 61.0236 53.1584 61.5169 53.4393L72.5136 59.7907C72.678 59.8866 72.8493 59.9277 73.0274 59.9277C73.3837 59.9277 73.7263 59.7496 73.9181 59.4138ZM66.9159 64.5525C67.2036 64.0592 67.0324 63.4357 66.5391 63.1479L62.5446 60.839C62.0513 60.558 61.421 60.7225 61.1401 61.2158C60.8523 61.7091 61.0236 62.3394 61.5169 62.6203L65.5113 64.9293C65.6758 65.0252 65.8539 65.0663 66.0252 65.0663C66.3815 65.0663 66.7309 64.8813 66.9159 64.5525ZM56.0562 104.716V61.1267C56.0562 60.7636 55.8575 60.421 55.5424 60.236L47.5398 55.6181C47.2246 55.44 46.8341 55.44 46.5121 55.6181C46.1969 55.8031 45.9982 56.1457 45.9982 56.5088V61.6132L39.5441 57.8859C39.2221 57.701 38.8315 57.701 38.5164 57.8859C38.1943 58.0641 38.0025 58.4067 38.0025 58.7698V61.5789L32.0554 58.1463V49.5682C32.0554 49.1982 31.8567 48.8625 31.5415 48.6775L23.539 44.0596C23.2238 43.8746 22.8332 43.8746 22.5112 44.0596C22.1961 44.2377 21.9974 44.5803 21.9974 44.9434V86.2375C21.9974 86.6075 22.1961 86.9501 22.5112 87.1282L30.5138 91.7461L38.5164 96.3641L39.0302 96.6587L46.5121 100.989L54.5146 105.607C54.6722 105.696 54.8504 105.744 55.0285 105.744C55.2066 105.744 55.3848 105.696 55.5424 105.607C55.8575 105.422 56.0562 105.086 56.0562 104.716Z" fill="#200E1E"/>
<path d="M45.9984 63.9838V98.3167L40.0581 94.8841V63.3603V60.5511L44.9706 63.3877L45.9984 63.9838Z" fill="#200E1E"/>
<path d="M78.5157 135.52L76.9741 134.63L78.0018 132.855V54.974H80.0573V126.559L87.7858 122.701V51.1098L87.5597 51.2194L86.6416 49.3832L87.6693 47.6086L89.252 48.5199C89.4507 48.609 89.6289 48.7665 89.7385 48.9858C89.807 49.1365 89.8413 49.2941 89.8413 49.4517V129.656C89.8481 129.751 89.8413 129.847 89.8207 129.936C89.8207 129.943 89.8139 129.95 89.8139 129.95C89.8002 130.012 89.7865 130.073 89.759 130.128C89.759 130.135 89.759 130.142 89.7522 130.149C89.7316 130.204 89.7042 130.252 89.67 130.306L89.6563 130.32C89.622 130.368 89.5878 130.416 89.5466 130.457C89.5398 130.457 89.5329 130.471 89.5192 130.478C89.485 130.512 89.4439 130.546 89.4028 130.58C89.3891 130.587 89.3685 130.601 89.3548 130.608C89.3274 130.622 89.3068 130.642 89.2726 130.656L79.4886 135.548C79.4475 135.575 79.3996 135.582 79.3516 135.603C79.331 135.61 79.3036 135.623 79.2762 135.623C79.194 135.651 79.1118 135.657 79.0296 135.657C78.9405 135.657 78.8446 135.644 78.7555 135.623C78.7281 135.609 78.6939 135.596 78.6596 135.582C78.6116 135.562 78.5637 135.548 78.5157 135.52Z" fill="#5A3C6C"/>
<path d="M66.5393 63.1479C67.0326 63.4357 67.2039 64.0592 66.9162 64.5525C66.7312 64.8813 66.3817 65.0663 66.0255 65.0663C65.8542 65.0663 65.676 65.0252 65.5116 64.9293L61.5172 62.6203C61.0239 62.3394 60.8526 61.7091 61.1403 61.2158C61.4212 60.7225 62.0516 60.558 62.5449 60.8389L66.5393 63.1479Z" fill="#8C3680"/>
<path d="M61.5172 53.4393C61.0239 53.1584 60.8526 52.528 61.1403 52.0347C61.4212 51.5483 62.0516 51.377 62.5449 51.6647L73.5416 58.0161C74.0349 58.297 74.1993 58.9274 73.9184 59.4138C73.7266 59.7495 73.384 59.9277 73.0277 59.9277C72.8496 59.9277 72.6783 59.8866 72.5138 59.7906L61.5172 53.4393Z" fill="#8C3680"/>
<path d="M54.0008 61.7228L48.0537 58.2902V99.5021L54.0008 102.935V61.7228ZM45.9983 63.9838L44.9705 63.3877L45.9983 61.6132V56.5088C45.9983 56.1457 46.197 55.8031 46.5121 55.6181C46.8341 55.44 47.2247 55.44 47.5399 55.6181L55.5424 60.236C55.8576 60.421 56.0563 60.7636 56.0563 61.1267V104.716C56.0563 105.086 55.8576 105.422 55.5424 105.607C55.3848 105.696 55.2067 105.744 55.0286 105.744C54.8504 105.744 54.6723 105.696 54.5147 105.607L46.5121 100.989L39.0303 96.6587L40.058 94.8841L45.9983 98.3167V63.9838Z" fill="#8C3680"/>
<path d="M32.0556 90.2661L38.0027 93.6987V63.9563L32.0556 60.5237V90.2661ZM24.053 46.7248V85.6482L30.0001 89.0808V58.7423V50.1574L24.053 46.7248ZM40.0582 60.5511V94.8841L39.0304 96.6586L38.5166 96.364L30.514 91.7461L22.5114 87.1281C22.1963 86.95 21.9976 86.6074 21.9976 86.2374V44.9434C21.9976 44.5802 22.1963 44.2377 22.5114 44.0595C22.8334 43.8745 23.224 43.8745 23.5391 44.0595L31.5417 48.6774C31.8569 48.8624 32.0556 49.1982 32.0556 49.5681V58.1462L38.0027 61.5788V58.7697C38.0027 58.4066 38.1945 58.064 38.5166 57.8859C38.8317 57.7009 39.2223 57.7009 39.5443 57.8859L45.9984 61.6131L44.9707 63.3876L40.0582 60.5511Z" fill="#8C3680"/>
<path d="M20.1407 31.6925L19.0513 29.8221V88.4984L70.2047 118.028L69.1359 116.185C68.8549 115.692 69.0194 115.069 69.5127 114.781C69.9991 114.5 70.6295 114.664 70.9172 115.158L73.9182 120.331C73.9182 120.331 73.9251 120.351 73.9319 120.365C73.9456 120.392 73.9593 120.42 73.973 120.454C73.9867 120.481 74.0004 120.516 74.0073 120.55C74.021 120.577 74.0278 120.611 74.0347 120.639C74.0347 120.673 74.0415 120.707 74.0484 120.742V120.844C74.0484 120.844 74.0484 120.906 74.0484 120.94C74.0484 120.975 74.0415 121.009 74.0347 121.043C74.0278 121.064 74.0278 121.091 74.021 121.112C74.021 121.118 74.0141 121.118 74.0141 121.125C73.9936 121.208 73.9593 121.283 73.9182 121.358C73.9045 121.386 73.8771 121.406 73.8634 121.434C73.8428 121.454 73.8291 121.482 73.8086 121.502C73.7264 121.598 73.6373 121.68 73.5277 121.742L70.5336 123.448C70.376 123.537 70.1978 123.578 70.0266 123.578C69.6703 123.578 69.3208 123.393 69.1359 123.064C68.8549 122.571 69.0262 121.941 69.5195 121.66L70.9652 120.838L17.5097 89.9784C17.5097 89.9784 17.496 89.9647 17.4823 89.9578C17.4549 89.9373 17.4275 89.9167 17.3932 89.8961C17.3727 89.8756 17.3453 89.855 17.3247 89.8345C17.2973 89.8139 17.2767 89.7865 17.2562 89.7591C17.2356 89.7386 17.2082 89.7112 17.1877 89.6837C17.174 89.6563 17.1603 89.6289 17.1397 89.6015C17.126 89.5741 17.1055 89.5467 17.0918 89.5125C17.0781 89.4851 17.0712 89.4508 17.0575 89.4234C17.0506 89.3891 17.0369 89.3549 17.0301 89.3275C17.0232 89.2932 17.0164 89.2658 17.0164 89.2315C17.0095 89.1973 17.0027 89.1562 17.0027 89.1219C17.0027 89.1082 16.9958 89.1014 16.9958 89.0877V27.7666L15.5365 28.6025C15.0432 28.8834 14.4128 28.7121 14.1319 28.2188C13.851 27.7255 14.0223 27.0952 14.5224 26.8142L17.5166 25.1082C17.5166 25.1082 17.5508 25.0945 17.5714 25.0808C17.6056 25.0671 17.633 25.0534 17.6673 25.0397C17.7015 25.026 17.7289 25.0192 17.7632 25.0123C17.7975 25.0054 17.8249 24.9986 17.8591 24.9917C17.8934 24.9849 17.9345 24.978 17.9688 24.978C17.9893 24.978 18.0099 24.9712 18.0236 24.9712C18.0373 24.9712 18.051 24.978 18.0647 24.978C18.0989 24.978 18.1332 24.9849 18.1674 24.9849C18.2017 24.9917 18.236 24.9986 18.2634 25.0054C18.2976 25.0123 18.325 25.0192 18.3524 25.0329C18.3867 25.0397 18.4209 25.0534 18.4552 25.0671C18.4826 25.0808 18.51 25.1014 18.5374 25.1151C18.5648 25.1288 18.5922 25.1493 18.6196 25.163C18.647 25.1836 18.6745 25.211 18.7019 25.2315C18.7224 25.2521 18.7498 25.2727 18.7704 25.2932L18.832 25.3754C18.832 25.3754 18.88 25.4302 18.8937 25.4576C18.9006 25.4576 18.9074 25.4714 18.9143 25.4851L21.9152 30.6579C22.203 31.1513 22.0317 31.7747 21.5452 32.0625C21.3808 32.1584 21.2027 32.1995 21.0314 32.1995C20.6751 32.1995 20.3257 32.0214 20.1407 31.6925Z" fill="#335F66"/>
<path d="M76.9742 134.63L8.51386 95.1033C8.19869 94.9252 8 94.5826 8 94.2195V13.9197C8 13.9197 8.00685 13.8923 8.00685 13.8786C8.00685 13.8169 8.0137 13.7553 8.02741 13.7005C8.03426 13.6731 8.04111 13.6525 8.04796 13.6319C8.06852 13.5566 8.09592 13.4812 8.13703 13.4127C8.14388 13.4127 8.15073 13.399 8.15073 13.3853C8.19184 13.3305 8.23295 13.2757 8.28091 13.2209C8.29462 13.2072 8.31517 13.1866 8.33572 13.1729C8.37683 13.1318 8.42479 13.0975 8.47275 13.0633C8.48646 13.0564 8.50016 13.0427 8.51386 13.0359C8.52072 13.029 8.52757 13.029 8.54127 13.0222C8.54812 13.0153 8.55497 13.0085 8.56868 13.0016L18.3526 8.10962C18.3526 8.10962 18.3595 8.10962 18.3663 8.10277C18.4006 8.08907 18.4349 8.07537 18.476 8.06852C18.4965 8.05481 18.5239 8.04111 18.5513 8.03426C18.8048 7.96574 19.0858 8 19.3324 8.13703L87.6694 47.6086L86.6417 49.3831L26.8143 14.8378L19.2913 18.661L79.0639 53.172L86.6417 49.3831L87.5598 51.2194L80.0574 54.974H78.0019V54.9329L10.0555 15.7011V93.6234L78.0019 132.855L76.9742 134.63Z" fill="#5A3C6C"/>
</g>
<defs>
<filter id="filter0_d_3153_2538" x="0" y="0" width="97.8438" height="143.657" filterUnits="userSpaceOnUse" color-interpolation-filters="sRGB">
<feFlood flood-opacity="0" result="BackgroundImageFix"/>
<feColorMatrix in="SourceAlpha" type="matrix" values="0 0 0 0 0 0 0 0 0 0 0 0 0 0 0 0 0 0 127 0" result="hardAlpha"/>
<feOffset/>
<feGaussianBlur stdDeviation="4"/>
<feComposite in2="hardAlpha" operator="out"/>
<feColorMatrix type="matrix" values="0 0 0 0 0.737255 0 0 0 0 0.321569 0 0 0 0 0.678431 0 0 0 0.28 0"/>
<feBlend mode="normal" in2="BackgroundImageFix" result="effect1_dropShadow_3153_2538"/>
<feBlend mode="normal" in="SourceGraphic" in2="effect1_dropShadow_3153_2538" result="shape"/>
</filter>
</defs>
</svg>
