<svg width="51" height="64" viewBox="0 0 51 64" fill="none" xmlns="http://www.w3.org/2000/svg">
<g filter="url(#filter0_d_3153_2173)">
<path d="M41.7661 8.44861V55.5619H8.44873V8.44861H41.7661ZM38.2875 32.8583C38.4445 32.6211 38.3782 32.3001 38.1409 32.1466C36.187 30.8591 35.6113 29.0343 36.2185 26.0441C37.1256 21.6234 35.3043 17.59 31.3407 15.2593C28.1133 13.3578 24.851 12.8065 21.9027 13.6683C18.6823 14.5999 15.9328 17.1434 13.9475 21.0303C13.8254 21.278 13.9161 21.5816 14.1604 21.7246H14.1639C14.4221 21.8537 14.7361 21.756 14.8617 21.5048C16.7249 17.8796 19.2545 15.514 22.1818 14.6662C22.9913 14.4324 23.8252 14.3138 24.68 14.3138C26.6548 14.3138 28.7309 14.9348 30.8069 16.156C34.3623 18.2495 36.0056 21.8712 35.2031 25.8452C34.5158 29.2122 35.2694 31.4871 37.5722 33.0049C37.8199 33.1514 38.134 33.0851 38.2875 32.8583ZM38.0502 36.7417C38.134 36.4661 37.9874 36.1869 37.7083 36.0927C33.8808 34.875 32.2269 33.3259 32.1816 30.9149C32.1676 30.4369 32.2723 29.9589 32.356 29.5751C33.647 24.003 32.4747 20.0673 28.9716 18.1902C27.0282 17.1504 24.9801 16.8887 22.8831 17.4121C20.6989 17.9599 18.773 19.4672 17.4541 21.6548C16.1213 23.8879 14.5023 25.2102 12.5065 25.6952C12.374 25.7266 12.2588 25.8104 12.189 25.929C12.1158 26.0476 12.0983 26.1837 12.1332 26.3163C12.217 26.5884 12.4996 26.7524 12.7752 26.6826H12.7787C15.0152 26.1313 16.8923 24.6171 18.3578 22.1747C19.5231 20.2278 21.2223 18.888 23.1413 18.3995C23.7728 18.239 24.3904 18.1588 24.9975 18.1588C26.1908 18.1588 27.3422 18.4658 28.4901 19.0869C32.3351 21.1454 32.1746 25.7929 31.3616 29.3274C31.2604 29.7565 31.1453 30.3252 31.1558 30.9219C31.2256 34.6308 34.5297 36.1555 37.3978 37.0732C37.4606 37.0906 37.5024 37.1011 37.5548 37.1011C37.7781 37.1011 37.977 36.9545 38.0502 36.7417ZM37.014 40.639C37.1047 40.3669 36.9616 40.0703 36.693 39.9761C33.5737 38.9398 31.1942 37.2546 29.6206 34.9692C29.2786 34.4738 28.7797 34.1632 28.211 34.097C28.1237 34.0865 28.04 34.083 27.9563 34.083C27.4678 34.083 26.9898 34.2644 26.606 34.5994C22.8203 37.907 18.6823 40.0389 14.3034 40.9356C14.1708 40.9635 14.0557 41.0403 13.9789 41.1554C13.9022 41.2705 13.8743 41.4066 13.9022 41.5392C13.9475 41.7799 14.1569 41.9509 14.4046 41.9509C14.4325 41.9509 14.4744 41.9509 14.4884 41.9509C19.0591 41.0089 23.3542 38.8003 27.2724 35.3809C27.4992 35.1821 27.7958 35.0879 28.0714 35.1297C28.3575 35.1716 28.6087 35.3356 28.7623 35.5763C30.4684 38.0501 33.0294 39.8679 36.365 40.974C36.6371 41.0647 36.9233 40.9181 37.014 40.6425V40.639ZM35.2136 44.1944C35.3113 43.9362 35.1717 43.6396 34.8996 43.535C31.9827 42.5161 29.7671 41.3682 28.1237 40.0249C27.733 39.697 27.2584 39.533 26.7874 39.533C26.3966 39.533 26.0128 39.6446 25.6744 39.8679C22.5935 41.8951 19.5615 43.3291 16.4004 44.2607C16.1213 44.3444 15.9677 44.6236 16.0515 44.8992C16.1143 45.112 16.3201 45.2656 16.5469 45.2656C16.5958 45.2656 16.6551 45.2551 16.7039 45.2446C19.9558 44.2886 23.0785 42.8092 26.2396 40.7297C26.606 40.4855 27.098 40.5204 27.4643 40.8204C29.1775 42.2335 31.4977 43.4408 34.5542 44.5189C34.8193 44.6096 35.1124 44.47 35.2136 44.1944ZM33.0434 47.0206C33.0992 46.724 32.9178 46.4484 32.6317 46.3925C31.8466 46.239 31.0441 45.9808 30.2067 45.6145C29.3659 45.2446 28.4971 44.7666 27.5794 44.1735C27.234 43.9537 26.8433 43.842 26.4594 43.842C26.0756 43.842 25.6709 43.9606 25.3394 44.1944C23.5356 45.4435 21.3409 46.5356 18.8148 47.4462C18.6857 47.4881 18.5846 47.5823 18.5252 47.7079C18.4694 47.8335 18.4589 47.9801 18.5043 48.1057C18.5741 48.308 18.7695 48.4441 18.9893 48.4441C19.0486 48.4441 19.1114 48.4337 19.1637 48.4162C21.7422 47.4951 24.0171 46.3611 25.9256 45.0457C26.2396 44.8294 26.6793 44.8259 27.0212 45.0457C28.9925 46.3158 30.765 47.0938 32.4398 47.4218C32.7119 47.4742 32.9875 47.2927 33.0434 47.0206ZM29.5578 49.8363C29.7218 49.606 29.6729 49.285 29.4426 49.1105L29.4147 49.0931C28.0923 48.179 26.8712 47.7219 26.0582 47.837C24.9731 47.9905 22.8029 49.3652 22.1644 49.7804C22.0318 49.8677 21.955 49.9828 21.9271 50.1189C21.8992 50.2515 21.9271 50.391 22.0004 50.5062C22.1539 50.7295 22.4644 50.8027 22.7191 50.6492C23.7275 49.9863 25.493 48.957 26.2152 48.8523C26.8816 48.7337 28.1761 49.4594 28.832 49.9479C29.0623 50.1119 29.3798 50.0631 29.5578 49.8363ZM28.1761 29.0796C28.989 27.8131 29.2577 26.2744 28.9158 24.8474C28.5948 23.5634 27.8376 22.5201 26.7804 21.913C24.673 20.6918 22.4226 21.6688 20.6082 24.5996C18.6439 27.7852 16.2399 29.3518 12.3112 30.0147C12.1751 30.0356 12.0565 30.1089 11.9762 30.2206C11.8994 30.3322 11.868 30.4718 11.889 30.6113C11.8994 30.7509 11.9623 30.8661 12.0634 30.9463C12.1681 31.0266 12.3042 31.058 12.4368 31.03H12.4403C16.6411 30.3287 19.3347 28.5667 21.4526 25.137C22.5586 23.3401 23.738 22.4259 24.9277 22.4259C25.3639 22.4259 25.8 22.548 26.2361 22.7993C27.0491 23.2668 27.6388 24.0798 27.8935 25.0951C28.1726 26.25 27.9563 27.4991 27.2968 28.5318C24.4532 32.9804 19.8651 36.0194 13.2672 37.8163C13.1311 37.8512 13.0194 37.9385 12.9532 38.0606C12.8869 38.1792 12.8694 38.3153 12.9078 38.4444C12.9706 38.6677 13.1765 38.8212 13.4032 38.8212C13.4521 38.8212 13.5009 38.8107 13.5498 38.8003C20.4094 36.9266 25.1964 33.748 28.1761 29.0796ZM25.5732 25.4196C25.6325 25.2975 25.636 25.1579 25.5837 25.0288C25.5348 24.8997 25.4371 24.7985 25.308 24.7462C25.2418 24.7183 25.172 24.7043 25.0987 24.7043C25.0324 24.7043 24.9626 24.7183 24.8998 24.7427C24.7777 24.795 24.68 24.8892 24.6312 25.0079C22.611 29.61 18.5566 32.5618 12.2379 34.0272C11.9588 34.09 11.7913 34.3656 11.8541 34.6517C11.9099 34.8925 12.1158 35.053 12.3705 35.053C12.4054 35.053 12.4403 35.053 12.4821 35.0425C19.0381 33.4933 23.4449 30.259 25.5732 25.4231V25.4196Z" fill="#150A13"/>
<path d="M46.1273 6.79831V57.2018C46.1273 58.6916 44.9061 59.9128 43.4163 59.9128H6.79819C5.29787 59.9128 4.08716 58.6916 4.08716 57.2018V6.79831C4.08716 5.298 5.29787 4.08728 6.79819 4.08728H43.4163C44.9061 4.08728 46.1273 5.298 46.1273 6.79831ZM41.7659 55.5619V8.44865H8.44853V55.5619H41.7659Z" fill="#31213B"/>
<path d="M26.606 34.5994C26.9898 34.2644 27.4678 34.083 27.9563 34.083C28.04 34.083 28.1237 34.0865 28.211 34.097C28.7797 34.1633 29.2786 34.4738 29.6206 34.9692C31.1941 37.2546 33.5737 38.9398 36.693 39.9761C36.9616 40.0703 37.1047 40.3669 37.014 40.639C36.9232 40.9147 36.6371 41.0612 36.365 40.9705C33.0294 39.8644 30.4684 38.0466 28.7622 35.5729C28.6087 35.3321 28.3575 35.1681 28.0714 35.1262C27.7958 35.0844 27.4992 35.1786 27.2724 35.3775C23.3541 38.7968 19.0591 41.0054 14.4883 41.9474C14.4744 41.9474 14.4325 41.9474 14.4046 41.9474C14.1569 41.9474 13.9475 41.7765 13.9022 41.5357C13.8743 41.4031 13.9022 41.2671 13.9789 41.1519C14.0557 41.0368 14.1708 40.96 14.3034 40.9321C18.6822 40.0354 22.8203 37.9036 26.606 34.5959V34.5994Z" fill="#67285E"/>
<path d="M26.058 47.8371C26.8709 47.7219 28.0921 48.179 29.4145 49.0932L29.4424 49.1106C29.6727 49.285 29.7215 49.606 29.5576 49.8363C29.3796 50.0631 29.0621 50.112 28.8318 49.948C28.1759 49.4595 26.8814 48.7338 26.215 48.8524C25.4928 48.9571 23.7273 49.9864 22.7189 50.6493C22.4642 50.8028 22.1537 50.7295 22.0002 50.5062C21.9269 50.3911 21.899 50.2515 21.9269 50.1189C21.9548 49.9829 22.0316 49.8677 22.1642 49.7805C22.8027 49.3653 24.9729 47.9906 26.058 47.8371Z" fill="#3B2137"/>
<path d="M27.0211 45.0458C26.6792 44.826 26.2395 44.8295 25.9255 45.0458C24.017 46.3612 21.7421 47.4951 19.1637 48.4162C19.1113 48.4337 19.0485 48.4442 18.9892 48.4442C18.7694 48.4442 18.574 48.3081 18.5042 48.1057C18.4589 47.9801 18.4693 47.8336 18.5252 47.708C18.5845 47.5824 18.6856 47.4881 18.8147 47.4463C21.3409 46.5356 23.5355 45.4435 25.3394 44.1944C25.6708 43.9607 26.0616 43.842 26.4594 43.842C26.8571 43.842 27.2339 43.9537 27.5794 44.1735C28.497 44.7667 29.3658 45.2447 30.2066 45.6145C31.044 45.9809 31.8465 46.239 32.6316 46.3926C32.9177 46.4484 33.0991 46.724 33.0433 47.0206C32.9875 47.2928 32.7118 47.4742 32.4397 47.4219C30.7649 47.0939 28.9924 46.3158 27.0211 45.0458Z" fill="#67285E"/>
<path d="M25.5731 25.4231C23.4448 30.259 19.038 33.4934 12.482 35.0425C12.4402 35.053 12.4053 35.053 12.3704 35.053C12.1157 35.053 11.9098 34.8925 11.854 34.6518C11.7912 34.3657 11.9587 34.09 12.2378 34.0272C18.5565 32.5618 22.6109 29.61 24.6311 25.0079C24.6799 24.8893 24.7776 24.7951 24.8997 24.7427C24.9625 24.7183 25.0323 24.7043 25.0986 24.7043C25.1719 24.7043 25.2416 24.7183 25.3079 24.7462C25.437 24.7986 25.5347 24.8997 25.5836 25.0288C25.6359 25.1579 25.6324 25.2975 25.5731 25.4196V25.4231Z" fill="#67285E"/>
<path d="M26.2395 40.7297C23.0784 42.8092 19.9557 44.2886 16.7038 45.2446C16.655 45.2551 16.5957 45.2655 16.5468 45.2655C16.32 45.2655 16.1142 45.112 16.0514 44.8992C15.9676 44.6236 16.1212 44.3444 16.4003 44.2607C19.5614 43.3291 22.5934 41.8951 25.6743 39.8679C26.0128 39.6446 26.3966 39.533 26.7873 39.533C27.2584 39.533 27.7329 39.6969 28.1237 40.0249C29.767 41.3682 31.9826 42.5161 34.8995 43.535C35.1716 43.6396 35.3112 43.9362 35.2135 44.1944C35.1123 44.47 34.8192 44.6096 34.5541 44.5189C31.4976 43.4407 29.1774 42.2335 27.4642 40.8204C27.0979 40.5204 26.6059 40.4855 26.2395 40.7297Z" fill="#3B2137"/>
<path d="M22.1816 14.6662C19.2543 15.5141 16.7247 17.8797 14.8615 21.5048C14.7359 21.7561 14.4219 21.8538 14.1637 21.7247H14.1602C13.916 21.5816 13.8252 21.2781 13.9474 21.0303C15.9326 17.1435 18.6821 14.5999 21.9025 13.6683C24.8508 12.8065 28.1131 13.3578 31.3405 15.2594C35.3041 17.5901 37.1254 21.6235 36.2183 26.0442C35.6112 29.0343 36.1869 30.8591 38.1407 32.1466C38.378 32.3001 38.4443 32.6211 38.2873 32.8584C38.1338 33.0852 37.8198 33.1515 37.572 33.0049C35.2692 31.4872 34.5156 29.2123 35.2029 25.8453C36.0054 21.8712 34.3621 18.2495 30.8067 16.1561C28.7307 14.9349 26.6546 14.3138 24.6798 14.3138C23.825 14.3138 22.9911 14.4324 22.1816 14.6662Z" fill="#3B2137"/>
<path d="M21.4525 25.1369C19.3346 28.5667 16.6411 30.3287 12.4402 31.03H12.4367C12.3041 31.0579 12.168 31.0265 12.0634 30.9463C11.9622 30.866 11.8994 30.7509 11.8889 30.6113C11.868 30.4717 11.8994 30.3322 11.9761 30.2205C12.0564 30.1089 12.175 30.0356 12.3111 30.0147C16.2398 29.3517 18.6438 27.7851 20.6082 24.5996C22.4225 21.6688 24.673 20.6918 26.7804 21.913C27.8376 22.5201 28.5947 23.5633 28.9157 24.8473C29.2576 26.2744 28.989 27.8131 28.176 29.0796C25.1963 33.748 20.4093 36.9266 13.5497 38.8002C13.5009 38.8107 13.452 38.8212 13.4032 38.8212C13.1764 38.8212 12.9705 38.6676 12.9077 38.4443C12.8693 38.3152 12.8868 38.1792 12.9531 38.0605C13.0194 37.9384 13.131 37.8512 13.2671 37.8163C19.865 36.0194 24.4531 32.9804 27.2968 28.5318C27.9562 27.499 28.1725 26.2499 27.8934 25.095C27.6387 24.0797 27.049 23.2668 26.2361 22.7992C25.7999 22.548 25.3638 22.4259 24.9277 22.4259C23.7379 22.4259 22.5586 23.34 21.4525 25.1369Z" fill="#3B2137"/>
<path d="M17.4539 21.6548C18.7728 19.4672 20.6988 17.9599 22.8829 17.4121C24.9799 16.8887 27.028 17.1504 28.9714 18.1902C32.4745 20.0673 33.6468 24.003 32.3558 29.5751C32.2721 29.9589 32.1674 30.4369 32.1814 30.9149C32.2267 33.3259 33.8806 34.875 37.7081 36.0927C37.9872 36.1869 38.1338 36.466 38.0501 36.7417C37.9768 36.9545 37.7779 37.1011 37.5546 37.1011C37.5023 37.1011 37.4604 37.0906 37.3976 37.0731C34.5296 36.1555 31.2254 34.6308 31.1556 30.9219C31.1451 30.3252 31.2603 29.7565 31.3615 29.3274C32.1744 25.7929 32.3349 21.1454 28.4899 19.0869C27.342 18.4658 26.1906 18.1588 24.9973 18.1588C24.3902 18.1588 23.7727 18.239 23.1411 18.3995C21.2221 18.888 19.5229 20.2278 18.3576 22.1747C16.8922 24.6171 15.015 26.1313 12.7785 26.6826H12.775C12.4994 26.7524 12.2168 26.5884 12.133 26.3163C12.0982 26.1837 12.1156 26.0476 12.1889 25.929C12.2586 25.8103 12.3738 25.7266 12.5064 25.6952C14.5021 25.2102 16.1211 23.8879 17.4539 21.6548Z" fill="#67285E"/>
</g>
<defs>
<filter id="filter0_d_3153_2173" x="0.0871582" y="0.0872803" width="50.04" height="63.8255" filterUnits="userSpaceOnUse" color-interpolation-filters="sRGB">
<feFlood flood-opacity="0" result="BackgroundImageFix"/>
<feColorMatrix in="SourceAlpha" type="matrix" values="0 0 0 0 0 0 0 0 0 0 0 0 0 0 0 0 0 0 127 0" result="hardAlpha"/>
<feOffset/>
<feGaussianBlur stdDeviation="2"/>
<feComposite in2="hardAlpha" operator="out"/>
<feColorMatrix type="matrix" values="0 0 0 0 0.737255 0 0 0 0 0.321569 0 0 0 0 0.678431 0 0 0 0.24 0"/>
<feBlend mode="normal" in2="BackgroundImageFix" result="effect1_dropShadow_3153_2173"/>
<feBlend mode="normal" in="SourceGraphic" in2="effect1_dropShadow_3153_2173" result="shape"/>
</filter>
</defs>
</svg>
