<svg width="114" height="124" viewBox="0 0 114 124" fill="none" xmlns="http://www.w3.org/2000/svg">
<g filter="url(#filter0_d_3153_2229)">
<path d="M90.1822 70.7275C90.3241 72.2204 89.8512 73.6525 88.8515 74.7535C87.8585 75.8411 86.4534 76.4626 84.9876 76.4626H68.1067C67.5865 76.4626 67.1272 76.9557 67.1272 77.5096C67.1272 78.0635 67.5663 78.4891 68.1067 78.4891H80.0564C81.5222 78.4891 82.9273 79.1173 83.9203 80.1981C84.92 81.306 85.3929 82.7313 85.251 84.2309C85.0011 86.8654 82.5963 88.9324 79.7862 88.9324H68.1067C67.5865 88.9324 67.1272 89.4188 67.1272 89.9795C67.1272 90.5401 67.5663 90.9589 68.1067 90.9589H75.0171C77.8948 90.9589 80.2388 93.3029 80.2388 96.1806C80.2388 99.0583 77.8948 101.396 75.0171 101.396H68.1067C67.5865 101.396 67.1272 101.889 67.1272 102.449C67.1272 103.01 67.5663 103.429 68.1067 103.429H70.6128C72.0786 103.429 73.4904 104.05 74.4767 105.138C75.4764 106.239 75.9493 107.664 75.8074 109.164C75.5575 111.798 73.1595 113.865 70.3493 113.865H20.5578C14.8092 113.865 10.1279 109.191 10.1279 103.436V72.7743H31.1362C31.4537 72.7743 31.7576 72.6189 31.94 72.3622C32.1224 72.0988 32.3048 71.8421 32.5075 71.5922C37.8575 64.9317 40.7351 57.42 40.8229 49.8544V49.0775C40.8229 47.7468 41.3363 46.4836 42.2618 45.5176C43.221 44.5179 44.518 43.9639 45.9028 43.9504C47.3483 43.9504 48.625 44.4908 49.6518 45.5176C50.6178 46.4768 51.165 47.8008 51.165 49.1518V49.3005C51.165 54.5154 50.4894 59.7303 49.1452 64.7898C49.0709 65.087 49.1317 65.4045 49.3141 65.641C49.5032 65.8841 49.7937 66.026 50.0909 66.026H84.7174C87.5275 66.026 89.9323 68.093 90.1822 70.7275ZM39.607 108.556C39.607 108.015 39.168 107.57 38.6276 107.57H37.6278C37.0874 107.57 36.6483 108.015 36.6483 108.556C36.6483 109.096 37.0874 109.535 37.6278 109.535H38.6276C39.168 109.535 39.607 109.096 39.607 108.556ZM32.4196 108.556C32.4196 108.015 31.9806 107.57 31.4402 107.57H20.5578C18.2813 107.57 16.4237 105.719 16.4237 103.442C16.4237 102.895 15.9846 102.456 15.4442 102.456C14.9038 102.456 14.4647 102.895 14.4647 103.442C14.4647 106.8 17.1937 109.535 20.5578 109.535H31.4402C31.9806 109.535 32.4196 109.096 32.4196 108.556Z" fill="#200E1E"/>
<path d="M86.2102 25.8806C86.7979 25.8806 87.2707 26.3602 87.2707 26.9479C87.2707 27.5356 86.7979 28.0085 86.2102 28.0085C85.6225 28.0085 85.1497 27.5289 85.1497 26.9479C85.1497 26.367 85.6225 25.8806 86.2102 25.8806Z" fill="#200E1E"/>
<path d="M83.1569 34.1219C83.1569 31.8657 81.3263 30.0351 79.0701 30.0351C76.8139 30.0351 74.9833 31.8657 74.9833 34.1219C74.9833 36.3781 76.8139 38.2087 79.0701 38.2087C81.3263 38.2087 83.1569 36.3781 83.1569 34.1219ZM73.0176 34.1219C73.0176 30.7849 75.7331 28.0693 79.0701 28.0693C82.4071 28.0693 85.1227 30.7849 85.1227 34.1219C85.1227 37.4589 82.4071 40.1744 79.0701 40.1744C75.7331 40.1744 73.0176 37.4589 73.0176 34.1219Z" fill="#200E1E"/>
<path d="M73.9768 22.2397C70.2345 22.2397 67.188 25.2863 67.188 29.0286V39.2152C67.188 42.9575 70.2345 46.0041 73.9768 46.0041H84.1635C87.9058 46.0041 90.9523 42.9575 90.9523 39.2152V29.0286C90.9523 25.2863 87.9058 22.2397 84.1635 22.2397H73.9768ZM65.229 29.0286C65.229 24.2055 69.1537 20.2808 73.9768 20.2808H84.1635C88.9866 20.2808 92.9113 24.2055 92.9113 29.0286V39.2152C92.9113 44.0383 88.9866 47.9698 84.1635 47.9698H73.9768C69.1537 47.9698 65.229 44.0383 65.229 39.2152V29.0286Z" fill="#200E1E"/>
<path d="M79.0702 8.16895C93.3774 8.16895 105.023 19.8147 105.023 34.1219C105.023 48.4291 93.3774 60.0749 79.0702 60.0749C75.0374 60.0749 71.1667 59.1629 67.5595 57.3728L57.6431 60.0276C57.5282 60.0614 57.4067 60.0749 57.2851 60.0749C56.9135 60.0749 56.5555 59.9263 56.2921 59.6628C55.934 59.3048 55.7989 58.7914 55.9273 58.305L58.2578 49.5978C54.8938 45.0854 53.1172 39.7556 53.1172 34.1219C53.1172 19.8147 64.7629 8.16895 79.0702 8.16895ZM92.9113 39.2152V29.0286C92.9113 24.2055 88.9866 20.2808 84.1635 20.2808H73.9768C69.1537 20.2808 65.229 24.2055 65.229 29.0286V39.2152C65.229 44.0383 69.1537 47.9698 73.9768 47.9698H84.1635C88.9866 47.9698 92.9113 44.0383 92.9113 39.2152Z" fill="#5A3C6C"/>
<path d="M90.9523 29.0286V39.2152C90.9523 42.9575 87.9058 46.0041 84.1635 46.0041H73.9768C70.2345 46.0041 67.188 42.9575 67.188 39.2152V29.0286C67.188 25.2863 70.2345 22.2397 73.9768 22.2397H84.1635C87.9058 22.2397 90.9523 25.2863 90.9523 29.0286ZM87.2708 26.948C87.2708 26.3603 86.7979 25.8807 86.2103 25.8807C85.6226 25.8807 85.1497 26.3603 85.1497 26.948C85.1497 27.5357 85.6226 28.0086 86.2103 28.0086C86.7979 28.0086 87.2708 27.529 87.2708 26.948ZM85.1227 34.1219C85.1227 30.7849 82.4071 28.0694 79.0701 28.0694C75.7331 28.0694 73.0176 30.7849 73.0176 34.1219C73.0176 37.4589 75.7331 40.1744 79.0701 40.1744C82.4071 40.1744 85.1227 37.4589 85.1227 34.1219Z" fill="#5A3C6C"/>
<path d="M79.07 38.2087C81.3271 38.2087 83.1568 36.3789 83.1568 34.1218C83.1568 31.8648 81.3271 30.035 79.07 30.035C76.8129 30.035 74.9832 31.8648 74.9832 34.1218C74.9832 36.3789 76.8129 38.2087 79.07 38.2087Z" fill="#5A3C6C"/>
<path d="M38.6274 107.57C39.1678 107.57 39.6069 108.016 39.6069 108.556C39.6069 109.096 39.1678 109.535 38.6274 109.535H37.6277C37.0873 109.535 36.6482 109.096 36.6482 108.556C36.6482 108.016 37.0873 107.57 37.6277 107.57H38.6274Z" fill="#5A3C6C"/>
<path d="M20.5577 107.57H31.4401C31.9805 107.57 32.4196 108.015 32.4196 108.556C32.4196 109.096 31.9805 109.535 31.4401 109.535H20.5577C17.1936 109.535 14.4646 106.8 14.4646 103.442C14.4646 102.895 14.9037 102.456 15.4441 102.456C15.9845 102.456 16.4236 102.895 16.4236 103.442C16.4236 105.719 18.2812 107.57 20.5577 107.57Z" fill="#5A3C6C"/>
<path d="M45.896 41.9847C47.7334 41.9104 49.5843 42.6737 50.969 44.0517C52.3606 45.4433 53.1307 47.2537 53.1307 49.1586V49.3004C53.1307 54.083 52.5768 58.8724 51.4824 63.5469L51.3608 64.0603H84.7174C88.534 64.0603 91.7899 66.9109 92.1344 70.5384C92.3303 72.5649 91.6616 74.5779 90.3038 76.0775C89.1352 77.361 87.5342 78.1783 85.8117 78.381L85.0281 78.4688L85.5347 79.07C86.7776 80.5426 87.3856 82.4881 87.2032 84.4133C86.8925 87.6962 84.1769 90.3983 80.7521 90.8306L79.982 90.9319L80.4819 91.5264C81.5898 92.8233 82.2045 94.4783 82.2045 96.1806C82.2045 99.6662 79.7118 102.638 76.287 103.253L75.5507 103.381L76.0371 103.942C77.3206 105.422 77.9488 107.387 77.7596 109.353C77.4151 112.98 74.1592 115.831 70.3493 115.831H20.5577C13.7284 115.831 8.16895 110.272 8.16895 103.436V71.7948C8.16895 71.2544 8.60802 70.8153 9.14843 70.8153H30.6295L30.7579 70.6464C30.8254 70.5519 30.8997 70.4573 30.974 70.3627C36.0539 64.0535 38.7761 56.9472 38.8572 49.8273V49.0843C38.864 47.2401 39.5665 45.4906 40.8432 44.1598C42.1739 42.775 43.964 42.005 45.896 41.9847ZM51.1649 49.1518C51.1649 47.8008 50.6178 46.4768 49.6518 45.5176C48.625 44.4908 47.3483 43.9504 45.9027 43.9504C44.518 43.9639 43.221 44.5178 42.2618 45.5176C41.3363 46.4836 40.8229 47.7468 40.8229 49.0775V49.8544C40.7351 57.42 37.8575 64.9317 32.5074 71.5922C32.3048 71.8421 32.1224 72.0988 31.94 72.3622C31.7576 72.6189 31.4537 72.7743 31.1362 72.7743H10.1279V103.436C10.1279 109.191 14.8092 113.865 20.5577 113.865H70.3493C73.1594 113.865 75.5575 111.798 75.8074 109.164C75.9493 107.664 75.4764 106.239 74.4767 105.138C73.4904 104.05 72.0786 103.429 70.6128 103.429H68.1066C67.5662 103.429 67.1272 102.99 67.1272 102.449C67.1272 101.909 67.5865 101.396 68.1066 101.396H75.0171C77.8947 101.396 80.2387 99.0583 80.2387 96.1806C80.2387 93.3029 77.8947 90.9589 75.0171 90.9589H68.1066C67.5662 90.9589 67.1272 90.5199 67.1272 89.9794C67.1272 89.439 67.5865 88.9324 68.1066 88.9324H79.7862C82.5963 88.9324 85.0011 86.8654 85.251 84.2309C85.3929 82.7313 84.92 81.3059 83.9203 80.1981C82.9273 79.1173 81.5222 78.4891 80.0564 78.4891H68.1066C67.5662 78.4891 67.1272 78.05 67.1272 77.5096C67.1272 76.9692 67.5865 76.4626 68.1066 76.4626H84.9876C86.4534 76.4626 87.8585 75.8411 88.8515 74.7535C89.8512 73.6524 90.3241 72.2204 90.1822 70.7275C89.9323 68.093 87.5275 66.026 84.7174 66.026H50.0909C49.7937 66.026 49.5032 65.8841 49.3141 65.6409C49.1317 65.4045 49.0709 65.087 49.1452 64.7898C50.4894 59.7303 51.1649 54.5153 51.1649 49.3004V49.1518Z" fill="#8C3680"/>
</g>
<defs>
<filter id="filter0_d_3153_2229" x="0.168945" y="0.168945" width="112.854" height="123.662" filterUnits="userSpaceOnUse" color-interpolation-filters="sRGB">
<feFlood flood-opacity="0" result="BackgroundImageFix"/>
<feColorMatrix in="SourceAlpha" type="matrix" values="0 0 0 0 0 0 0 0 0 0 0 0 0 0 0 0 0 0 127 0" result="hardAlpha"/>
<feOffset/>
<feGaussianBlur stdDeviation="4"/>
<feComposite in2="hardAlpha" operator="out"/>
<feColorMatrix type="matrix" values="0 0 0 0 0.737255 0 0 0 0 0.321569 0 0 0 0 0.678431 0 0 0 0.28 0"/>
<feBlend mode="normal" in2="BackgroundImageFix" result="effect1_dropShadow_3153_2229"/>
<feBlend mode="normal" in="SourceGraphic" in2="effect1_dropShadow_3153_2229" result="shape"/>
</filter>
</defs>
</svg>
