<svg width="25" height="26" viewBox="0 0 25 26" fill="none" xmlns="http://www.w3.org/2000/svg">
  <path
    d="M15.7533 7.77905C15.1249 7.78334 14.5055 7.93013 13.942 8.20833C13.3785 8.48654 12.8854 8.88894 12.5 9.3852C12.1149 8.88897 11.6221 8.48661 11.0589 8.20837C10.4956 7.93016 9.87658 7.78337 9.24832 7.77905C6.90499 7.77905 5 9.79505 5 12.2776V17.196C5 17.4612 5.10534 17.7154 5.2929 17.9029C5.48042 18.0904 5.73478 18.1957 6 18.1957C6.26522 18.1957 6.51955 18.0904 6.7071 17.9029C6.89466 17.7154 7 17.4612 7 17.196V12.2743C7 10.8947 8.01168 9.77509 9.25501 9.77509C10.4983 9.77509 11.51 10.8981 11.51 12.2743V17.1927C11.51 17.4578 11.6154 17.7121 11.8029 17.8996C11.9904 18.0871 12.2448 18.1924 12.51 18.1924C12.7752 18.1924 13.0296 18.0871 13.2171 17.8996C13.4046 17.7121 13.51 17.4578 13.51 17.1927V12.2743C13.51 10.8947 14.5217 9.77509 15.765 9.77509C17.0083 9.77509 18.02 10.8981 18.02 12.2743V17.1927C18.02 17.4578 18.1253 17.7121 18.3129 17.8996C18.5004 18.0871 18.7548 18.1924 19.02 18.1924C19.2852 18.1924 19.5396 18.0871 19.7271 17.8996C19.9147 17.7121 20.02 17.4578 20.02 17.1927V12.2743C20.0017 9.79505 18.0967 7.77905 15.7533 7.77905Z"
    fill="#EBEAEF" />
  <path
    d="M12.5 0.488037C9.18602 0.492005 6.0089 1.80983 3.66554 4.15242C1.32221 6.49501 0.003968 9.67111 0 12.984C0.003968 16.297 1.32221 19.4731 3.66554 21.8157C6.0089 24.1582 9.18602 25.4761 12.5 25.48C15.8141 25.4765 18.9915 24.1588 21.3349 21.8161C23.6784 19.4734 24.9965 16.2971 25 12.984C24.996 9.67111 23.6778 6.49501 21.3345 4.15242C18.9911 1.80983 15.814 0.492005 12.5 0.488037ZM12.5 24.9802C9.3185 24.9767 6.26829 23.7117 4.01862 21.4627C1.76896 19.2138 0.50352 16.1645 0.5 12.984C0.50352 9.80353 1.76896 6.75431 4.01862 4.50538C6.26829 2.25642 9.3185 0.991397 12.5 0.987877C15.6815 0.991397 18.7317 2.25642 20.9814 4.50538C23.2311 6.75431 24.4965 9.80353 24.5 12.984C24.4965 16.1645 23.2311 19.2138 20.9814 21.4627C18.7317 23.7117 15.6815 24.9767 12.5 24.9802Z"
    fill="#EBEAEF" />
</svg>