<svg width="48" height="48" viewBox="0 0 48 48" fill="none" xmlns="http://www.w3.org/2000/svg">
  <path
    d="M23.2328 5.20124L24.0011 6.1229L24.7692 5.20105L27.4961 1.92826L29.0797 5.88273L29.5256 6.99625L30.5408 6.35726L34.1458 4.08794L34.4293 8.33943L34.5092 9.53649L35.6723 9.24237L39.8019 8.1981L38.7576 12.3277L38.4635 13.4908L39.6606 13.5707L43.9116 13.8541L41.641 17.459L41.0015 18.4744L42.1155 18.9203L46.0716 20.5041L42.7989 23.2308L41.8771 23.9989L42.7988 24.7672L46.0716 27.4954L42.1158 29.0777L41.0013 29.5235L41.641 30.5391L43.9116 34.144L39.6606 34.4275L38.4635 34.5073L38.7576 35.6705L39.8019 39.8001L35.6723 38.7558L34.5092 38.4617L34.4293 39.6587L34.1458 43.9102L30.5408 41.6409L29.5255 41.0018L29.0797 42.1155L27.4959 46.0716L24.7692 42.799L24.0011 41.8771L23.2328 42.7988L20.5046 46.0716L18.9223 42.1158L18.4767 41.0018L17.4612 41.6408L13.8547 43.9102L13.5725 39.659L13.493 38.4617L12.3296 38.7558L8.19806 39.8002L9.24236 35.6704L9.53647 34.5074L8.33944 34.4275L4.08975 34.144L6.3591 30.5389L6.99836 29.5234L5.8842 29.0777L1.92843 27.4954L5.20122 24.7672L6.12289 23.9989L5.20104 23.2308L1.92843 20.5041L5.88446 18.9203L6.99817 18.4745L6.3591 17.4592L4.08976 13.8541L8.33944 13.5707L9.53647 13.4908L9.24236 12.3277L8.19805 8.19796L12.3296 9.24239L13.493 9.53649L13.5725 8.33912L13.8547 4.08794L17.4612 6.35734L18.4766 6.99625L18.9222 5.88246L20.5044 1.92826L23.2328 5.20124Z"
    fill="white" stroke="#4E868E" stroke-width="2" />
</svg>