<svg width="20" height="20" viewBox="0 0 20 20" fill="none" xmlns="http://www.w3.org/2000/svg">
  <g clip-path="url(#clip0_1586_1120)">
    <path
      d="M9.68033 2.16718L10.0005 2.55121L10.3205 2.1671L11.4567 0.803441L12.1165 2.45114L12.3023 2.91511L12.7253 2.64886L14.2274 1.70331L14.3456 3.47476L14.3788 3.97354L14.8635 3.85099L16.5841 3.41587L16.149 5.13655L16.0265 5.62118L16.5252 5.65444L18.2965 5.77256L17.3504 7.27459L17.084 7.69765L17.5481 7.88347L19.1965 8.54336L17.8329 9.6795L17.4488 9.99954L17.8328 10.3197L19.1965 11.4564L17.5482 12.1157L17.0839 12.3015L17.3504 12.7246L18.2965 14.2267L16.5252 14.3448L16.0265 14.3781L16.149 14.8627L16.5841 16.5834L14.8635 16.1482L14.3788 16.0257L14.3456 16.5245L14.2274 18.2959L12.7253 17.3504L12.3023 17.0841L12.1165 17.5481L11.4566 19.1965L10.3205 17.8329L10.0005 17.4488L9.68033 17.8328L8.54357 19.1965L7.88428 17.5483L7.69862 17.0841L7.27551 17.3503L5.77279 18.2959L5.65521 16.5246L5.6221 16.0257L5.13734 16.1482L3.41586 16.5834L3.85098 14.8627L3.97353 14.3781L3.47477 14.3448L1.70406 14.2267L2.64962 12.7245L2.91598 12.3014L2.45175 12.1157L0.803512 11.4564L2.16718 10.3197L2.55121 9.99954L2.1671 9.6795L0.803511 8.54336L2.45186 7.88347L2.9159 7.6977L2.64962 7.27468L1.70407 5.77256L3.47477 5.65444L3.97353 5.62117L3.85098 5.13655L3.41586 3.41581L5.13734 3.851L5.6221 3.97354L5.65521 3.47463L5.77279 1.70331L7.27551 2.64889L7.69857 2.91511L7.88426 2.45103L8.54352 0.803442L9.68033 2.16718Z"
      fill="#4E868E" stroke="#4E868E" stroke-width="0.833333" />
    <path
      d="M10.0102 15.6163C8.52286 15.6146 7.09694 15.0233 6.04526 13.9719C4.99358 12.9206 4.40201 11.4951 4.40037 10.0083C4.40201 8.52146 4.99358 7.096 6.04526 6.04467C7.09694 4.99332 8.52286 4.40194 10.0102 4.40029C11.4975 4.40194 12.9234 4.99332 13.9751 6.04467C15.0268 7.096 15.6183 8.52146 15.62 10.0083C15.6183 11.4951 15.0268 12.9206 13.9751 13.9719C12.9234 15.0233 11.4975 15.6146 10.0102 15.6163Z"
      fill="#4E868E" />
    <path
      d="M10.0102 4.16663C8.46093 4.16848 6.97568 4.78454 5.8802 5.87966C4.78474 6.97478 4.16848 8.45956 4.16663 10.0083C4.16848 11.557 4.78474 13.0418 5.8802 14.1369C6.97568 15.232 8.46093 15.8481 10.0102 15.85C11.5595 15.8483 13.0448 15.2323 14.1403 14.1371C15.2359 13.042 15.8521 11.5571 15.8537 10.0083C15.8518 8.45956 15.2356 6.97478 14.1401 5.87966C13.0446 4.78454 11.5594 4.16848 10.0102 4.16663ZM10.0102 15.6163C8.52286 15.6146 7.09694 15.0233 6.04526 13.9719C4.99358 12.9206 4.40201 11.4951 4.40037 10.0083C4.40201 8.52146 4.99358 7.096 6.04526 6.04467C7.09694 4.99332 8.52286 4.40194 10.0102 4.40029C11.4975 4.40194 12.9234 4.99332 13.9751 6.04467C15.0268 7.096 15.6183 8.52146 15.62 10.0083C15.6183 11.4951 15.0268 12.9206 13.9751 13.9719C12.9234 15.0233 11.4975 15.6146 10.0102 15.6163Z"
      fill="white" />
    <path
      d="M11.4116 7.5C11.1099 7.50206 10.8127 7.57251 10.5422 7.70605C10.2717 7.83959 10.035 8.03275 9.85 8.27095C9.66514 8.03276 9.42863 7.83963 9.15826 7.70607C8.88791 7.57253 8.59076 7.50207 8.28919 7.5C7.1644 7.5 6.25 8.46768 6.25 9.65931V12.0202C6.25 12.1474 6.30057 12.2695 6.39059 12.3595C6.4806 12.4494 6.6027 12.5 6.73 12.5C6.8573 12.5 6.97938 12.4494 7.06941 12.3595C7.15943 12.2695 7.21 12.1474 7.21 12.0202V9.65771C7.21 8.99551 7.69561 8.45809 8.2924 8.45809C8.8892 8.45809 9.37481 8.99712 9.37481 9.65771V12.0185C9.37481 12.1458 9.42537 12.2679 9.51538 12.3578C9.60541 12.4478 9.7275 12.4984 9.85481 12.4984C9.98211 12.4984 10.1042 12.4478 10.1942 12.3578C10.2842 12.2679 10.3348 12.1458 10.3348 12.0185V9.65771C10.3348 8.99551 10.8204 8.45809 11.4172 8.45809C12.014 8.45809 12.4996 8.99712 12.4996 9.65771V12.0185C12.4996 12.1458 12.5502 12.2679 12.6402 12.3578C12.7302 12.4478 12.8523 12.4984 12.9796 12.4984C13.1069 12.4984 13.229 12.4478 13.319 12.3578C13.409 12.2679 13.4596 12.1458 13.4596 12.0185V9.65771C13.4508 8.46768 12.5364 7.5 11.4116 7.5Z"
      fill="white" />
  </g>
  <defs>
    <clipPath id="clip0_1586_1120">
      <rect width="20" height="20" rx="1.25" fill="white" />
    </clipPath>
  </defs>
</svg>