<svg width="32" height="32" viewBox="0 0 32 32" fill="none" xmlns="http://www.w3.org/2000/svg">
  <g clip-path="url(#clip0_2590_3291)">
    <path
      d="M19.2533 10.7793C18.6249 10.7836 18.0055 10.9304 17.442 11.2086C16.8785 11.4868 16.3854 11.8892 16 12.3854C15.6149 11.8892 15.1221 11.4868 14.5589 11.2086C13.9956 10.9304 13.3766 10.7836 12.7483 10.7793C10.405 10.7793 8.5 12.7953 8.5 15.2779V20.1963C8.5 20.4614 8.60534 20.7157 8.7929 20.9032C8.98042 21.0906 9.23478 21.196 9.5 21.196C9.76522 21.196 10.0196 21.0906 10.2071 20.9032C10.3947 20.7157 10.5 20.4614 10.5 20.1963V15.2745C10.5 13.8949 11.5117 12.7753 12.755 12.7753C13.9983 12.7753 15.01 13.8983 15.01 15.2745V20.1929C15.01 20.4581 15.1154 20.7124 15.3029 20.8998C15.4904 21.0873 15.7448 21.1926 16.01 21.1926C16.2752 21.1926 16.5296 21.0873 16.7171 20.8998C16.9046 20.7124 17.01 20.4581 17.01 20.1929V15.2745C17.01 13.8949 18.0217 12.7753 19.265 12.7753C20.5083 12.7753 21.52 13.8983 21.52 15.2745V20.1929C21.52 20.4581 21.6253 20.7124 21.8129 20.8998C22.0004 21.0873 22.2548 21.1926 22.52 21.1926C22.7852 21.1926 23.0396 21.0873 23.2271 20.8998C23.4147 20.7124 23.52 20.4581 23.52 20.1929V15.2745C23.5017 12.7953 21.5967 10.7793 19.2533 10.7793Z"
      fill="#FFF" />
    <path
      d="M16 3.48828C12.686 3.49225 9.5089 4.81007 7.16554 7.15267C4.82221 9.49526 3.50397 12.6714 3.5 15.9843C3.50397 19.2972 4.82221 22.4733 7.16554 24.8159C9.5089 27.1585 12.686 28.4763 16 28.4803C19.3141 28.4768 22.4915 27.1591 24.8349 24.8164C27.1784 22.4737 28.4965 19.2973 28.5 15.9843C28.496 12.6714 27.1778 9.49526 24.8345 7.15267C22.4911 4.81007 19.314 3.49225 16 3.48828ZM16 27.9804C12.8185 27.9769 9.76829 26.7119 7.51862 24.4629C5.26896 22.214 4.00352 19.1648 4 15.9843C4.00352 12.8038 5.26896 9.75455 7.51862 7.50563C9.76829 5.25667 12.8185 3.99164 16 3.98812C19.1815 3.99164 22.2317 5.25667 24.4814 7.50563C26.7311 9.75455 27.9965 12.8038 28 15.9843C27.9965 19.1648 26.7311 22.214 24.4814 24.4629C22.2317 26.7119 19.1815 27.9769 16 27.9804Z"
      fill="#FFF" />
  </g>
  <defs>
    <clipPath id="clip0_2590_3291">
      <rect width="32" height="32" rx="3" fill="white" />
    </clipPath>
  </defs>
</svg>