<svg width="78" height="84" viewBox="0 0 78 84" fill="none" xmlns="http://www.w3.org/2000/svg">
<g filter="url(#filter0_d_3153_2412)">
<path d="M31.2168 22.4716C31.3347 22.2358 31.5705 22 31.6884 22C32.0421 22.2358 32.1642 22.9474 32.2821 23.4189C32.2821 23.5368 33.4652 28.3916 33.5831 28.5095C33.4652 28.8674 28.2568 34.5474 22.9263 34.9053C22.9263 35.0232 24.1136 28.7495 24.2315 28.2737C24.3494 27.68 24.821 25.6674 25.2968 25.6674C25.5326 25.6674 26.5978 26.1432 28.3747 25.0779C29.44 24.4842 30.3873 23.5368 31.2168 22.4716Z" fill="#150A13"/>
<path d="M22.219 34.5473L22.0969 35.0231C21.979 35.4947 22.219 35.8526 22.6905 35.8526C26.8337 35.7347 31.2169 32.6526 34.0548 29.4568C34.2948 29.1031 34.5305 28.8673 34.4127 28.3915C34.2948 28.1558 34.2948 27.8021 34.1769 27.5621H34.2948C35.12 27.3263 36.4253 27.2084 36.4253 28.0379C36.4253 28.8673 35.7137 30.4042 34.0548 31.9452C31.2169 34.6694 25.8863 37.9831 22.3369 38.8126C21.3895 39.0484 20.0842 39.0484 20.0842 38.101C20.0842 37.3894 20.3242 36.3242 22.219 34.5473Z" fill="#150A13"/>
<path d="M71.4693 55.5032V57.9916L36.4251 78.2358C35.242 78.9474 33.3472 78.9474 32.1641 78.3537V75.7516C33.583 76.2232 35.7135 76.1053 37.0146 75.3937L71.4693 55.5032Z" fill="#150A13"/>
<path d="M38.4547 68.8422C38.4 68.8717 38.2526 68.9559 37.9663 69.1201C37.6084 69.238 37.1368 69.238 36.7789 69.1201L34.5305 67.819L59.8695 53.019C59.9874 53.1369 62.5895 54.7959 62.7074 54.7959C33.6 71.7222 38.0253 69.1159 38.4547 68.8422Z" fill="#150A13"/>
<path d="M59.0399 52.6653L33.701 67.3432L30.741 65.6884L56.0799 50.8884L59.0399 52.6653Z" fill="#150A13"/>
<path d="M55.2507 50.4126L29.9117 65.2126L27.5454 63.7936L52.8801 48.9937L55.2507 50.4126Z" fill="#150A13"/>
<path d="M49.802 47.2169L52.0546 48.5179L26.7156 63.3179C26.5977 63.2 23.7556 61.6632 23.9914 61.6632C23.9914 61.5411 23.402 62.0169 48.6188 47.2169C48.9725 46.9811 49.4483 46.9811 49.802 47.2169Z" fill="#150A13"/>
<path d="M71.7053 52.0717C72.7705 52.6654 72.6526 53.4906 71.7053 54.0843L36.4253 74.4464C35.2421 75.158 33.1116 75.158 31.9242 74.4464L9.1958 61.1875L48.5011 38.5728L71.7053 52.0717ZM63.0653 55.6212C63.7726 55.1496 63.7726 54.438 63.0653 53.9664L50.2779 46.5054C49.6842 46.1517 48.8547 46.1517 48.2653 46.5054L23.6379 60.8338C22.9263 61.3054 22.9263 62.1349 23.6379 62.4885C23.9916 62.7285 36.5432 69.9496 36.4253 69.9496C37.0147 70.3033 37.8442 70.3033 38.4379 69.9496L63.0653 55.6212Z" fill="#150A13"/>
<path d="M7.52833 60.2357L5.40622 58.9389L5.28833 30.8757L7.41886 32.0631C7.49044 55.6589 7.5157 59.8736 7.52833 60.2357Z" fill="#150A13"/>
<path d="M44.7115 6.95999L33.7009 13.3558L10.6146 26.7326L8.36621 25.4316L42.5809 5.65894L44.7115 6.95999Z" fill="#150A13"/>
<path d="M14.6399 28.6274C14.6399 29.1032 14.8757 29.2211 15.2336 28.9853C15.5873 28.8674 15.8231 28.3916 15.8231 28.038C15.8231 27.6843 15.5873 27.5622 15.2336 27.6801C14.8757 27.9201 14.6399 28.2737 14.6399 28.6274ZM8.48413 31.979V31.7053C8.48413 30.2864 9.54939 28.5095 10.7326 27.8022L11.1073 27.5874L46.1347 7.43585C46.6062 7.20006 46.9599 7.08216 47.3178 7.20006H47.4357C47.6715 7.31795 47.9073 7.78953 47.9073 8.38322L48.0252 37.5074L8.60203 60.2401C8.50939 30.1432 8.48834 31.238 8.48413 31.979ZM12.0336 30.2864C12.0336 29.9327 11.7978 29.8148 11.4441 29.9327C11.0862 30.1685 10.8504 30.5222 10.8504 30.8801C10.8504 31.238 11.0862 31.3516 11.4441 31.2337C11.7978 31.1158 12.0336 30.6401 12.0336 30.2864ZM12.7452 29.8148C12.7452 30.1685 12.981 30.2864 13.3389 30.1685C13.6926 30.0506 13.9283 29.5748 13.9283 29.2211C13.9283 28.8674 13.6926 28.7495 13.3389 28.8674C12.981 29.1032 12.7452 29.4569 12.7452 29.8148ZM45.8947 19.158V17.8569C45.7768 17.499 45.6589 17.3811 45.4231 17.3811C45.1873 17.3811 44.9473 17.6169 44.9473 17.8569V19.158C44.9473 19.3937 45.1873 19.6295 45.4231 19.6295C45.6589 19.6295 45.8947 19.3937 45.8947 19.158ZM45.8947 14.539V11.1074C45.8947 10.8716 45.7768 10.6316 45.541 10.5137C45.3052 10.3958 45.0652 10.3958 44.8294 10.5137L41.0399 12.6443C40.8041 12.7664 40.8041 13.0022 40.922 13.238C41.0399 13.5916 41.2799 13.5916 41.5157 13.4737L44.9473 11.4611V14.539C44.9473 14.779 45.1873 15.0148 45.4231 15.0148C45.6589 15.0148 45.8947 14.7748 45.8947 14.539ZM34.6483 32.4169C36.3073 30.8801 37.3726 29.1032 37.3726 27.9201C37.3726 26.379 35.7136 26.2611 34.1768 26.6148H34.0589L33.2294 23.3011C33.1115 22.5895 32.8715 21.8822 32.3999 21.4064C32.0462 21.0527 31.6883 21.1706 31.5704 21.2885H31.4526C31.2168 21.4064 30.981 21.7643 30.741 22.0001C29.6757 23.419 27.6631 25.1958 25.8862 24.8422C24.3494 24.4843 23.9957 26.2611 23.6378 28.038C23.2841 29.5748 23.0483 31.1159 22.6904 33.0106C22.5726 33.1285 22.3368 33.2464 22.2189 33.4822C20.3241 35.259 19.3768 36.6822 19.4947 37.7474C19.2589 39.2843 20.7957 39.7601 22.4547 39.4022C26.2441 38.5727 31.6883 35.1411 34.6483 32.4169ZM35.002 35.6127C35.002 34.7832 34.5304 34.6653 33.701 35.0232C31.3347 36.0885 29.5578 38.4548 28.3747 39.0485C28.021 39.2716 27.5957 39.3727 27.0694 39.4948C26.1936 39.6927 25.0273 39.9369 23.402 40.8253C22.3368 41.4148 21.6252 42.2443 21.7431 43.5453C22.0968 46.9811 27.0694 45.9158 27.781 40.2316C27.781 40.153 27.8203 40.0744 27.8989 39.9958C27.941 39.9537 27.9873 39.9243 28.0715 39.8822C28.2062 39.8106 28.4462 39.7011 28.9641 39.4022C29.082 40.4674 29.4399 41.4148 30.1515 41.6506C30.9768 41.8906 32.1641 41.179 32.7536 40.4674C34.1768 39.0485 35.002 36.8001 35.002 35.6127Z" fill="#150A13"/>
<path d="M45.8946 17.8569V19.1579C45.8946 19.3937 45.6588 19.6295 45.4231 19.6295C45.1873 19.6295 44.9473 19.3937 44.9473 19.1579V17.8569C44.9473 17.6169 45.1873 17.3811 45.4231 17.3811C45.6588 17.3811 45.7767 17.499 45.8946 17.8569Z" fill="#67285E"/>
<path d="M45.5411 10.5137C45.7769 10.6316 45.8948 10.8716 45.8948 11.1074V14.539C45.8948 14.7748 45.659 15.0148 45.4232 15.0148C45.1874 15.0148 44.9474 14.779 44.9474 14.539V11.4611L41.5158 13.4737C41.2801 13.5916 41.0401 13.5916 40.9222 13.2379C40.8043 13.0021 40.8043 12.7663 41.0401 12.6442L44.8295 10.5137C45.0653 10.3958 45.3053 10.3958 45.5411 10.5137Z" fill="#67285E"/>
<path d="M28.9641 39.4021C28.4462 39.701 28.2062 39.8105 28.0714 39.8821L27.0693 39.4947C27.5957 39.3726 28.0209 39.2715 28.3746 39.0484C29.5578 38.4547 31.3346 36.0884 33.7009 35.0231C34.5304 34.6652 35.002 34.7831 35.002 35.6126C35.002 36.8 34.1767 39.0484 32.7535 40.4673C32.1641 41.1789 30.9767 41.8905 30.1514 41.6505C29.4399 41.4147 29.082 40.4673 28.9641 39.4021Z" fill="#67285E"/>
<path d="M27.7811 40.2315C27.0695 45.9157 22.0969 46.9809 21.7432 43.5452C21.6253 42.2441 22.3369 41.4146 23.4022 40.8252C25.0274 39.9367 26.1937 39.6925 27.0695 39.4946L28.0716 39.882C27.9874 39.9241 27.9411 39.9536 27.899 39.9957C27.8204 40.0743 27.7811 40.1529 27.7811 40.2315Z" fill="#67285E"/>
<path d="M38.4548 68.8421C38.0253 69.1158 33.6 71.7221 62.7074 54.7958C62.5895 54.7958 59.9874 53.1368 59.8695 53.0189L34.5306 67.8189L36.779 69.12C37.1369 69.2379 37.6085 69.2379 37.9664 69.12C38.2527 68.9558 38.4 68.8716 38.4548 68.8421ZM33.7011 67.3432L59.04 52.6653L56.08 50.8884L30.7411 65.6884L33.7011 67.3432ZM29.9116 65.2126L55.2506 50.4126L52.88 48.9937L27.5453 63.7937L29.9116 65.2126ZM23.9916 61.6631C23.7558 61.6631 26.5979 63.2 26.7158 63.3179L52.0548 48.5179L49.8021 47.2168C49.4485 46.981 48.9727 46.981 48.619 47.2168C23.4021 62.0168 23.9916 61.541 23.9916 61.6631ZM23.6379 62.4884C22.9264 62.1347 22.9264 61.3053 23.6379 60.8337L48.2653 46.5053C48.8548 46.1516 49.6842 46.1516 50.2779 46.5053L63.0653 53.9663C63.7727 54.4379 63.7727 55.1495 63.0653 55.621L38.4379 69.9495C37.8442 70.3032 37.0148 70.3032 36.4253 69.9495C36.5432 69.9495 23.9916 62.7284 23.6379 62.4884Z" fill="#31213B"/>
<path d="M34.6484 32.4167C31.6884 35.1409 26.2442 38.5725 22.4547 39.402C20.7958 39.7599 19.2589 39.2841 19.4947 37.7473C19.3768 36.682 20.3242 35.2588 22.2189 33.482C22.3368 33.2462 22.5726 33.1283 22.6905 33.0104C23.0484 31.1157 23.2842 29.5746 23.6379 28.0378C23.9958 26.2609 24.3495 24.4841 25.8863 24.842C27.6632 25.1957 29.6758 23.4188 30.7411 21.9999C30.9811 21.7641 31.2168 21.4062 31.4526 21.2883H31.5705C31.6884 21.1704 32.0463 21.0525 32.4 21.4062C32.8716 21.882 33.1116 22.5894 33.2295 23.3009L34.0589 26.6146H34.1768C35.7137 26.2609 37.3726 26.3788 37.3726 27.9199C37.3726 29.103 36.3074 30.8799 34.6484 32.4167ZM22.3368 38.8125C25.8863 37.983 31.2168 34.6694 34.0547 31.9451C35.7137 30.4041 36.4253 28.8673 36.4253 28.0378C36.4253 27.2083 35.12 27.3262 34.2947 27.562H34.1768C34.2947 27.802 34.2947 28.1557 34.4126 28.3915C34.5305 28.8673 34.2947 29.103 34.0547 29.4567C31.2168 32.6525 26.8337 35.7346 22.6905 35.8525C22.2189 35.8525 21.9789 35.4946 22.0968 35.023L22.2189 34.5473C20.3242 36.3241 20.0842 37.3894 20.0842 38.1009C20.0842 39.0483 21.3895 39.0483 22.3368 38.8125ZM24.2316 28.2736C24.1137 28.7494 22.9263 35.023 22.9263 34.9051C28.2568 34.5473 33.4653 28.8673 33.5832 28.5094C33.4653 28.3915 32.2821 23.5367 32.2821 23.4188C32.1642 22.9473 32.0421 22.2357 31.6884 21.9999C31.5705 21.9999 31.3347 22.2357 31.2168 22.4715C30.3874 23.5367 29.44 24.4841 28.3747 25.0778C26.5979 26.143 25.5326 25.6673 25.2968 25.6673C24.8211 25.6673 24.3495 27.6799 24.2316 28.2736Z" fill="#67285E"/>
<path d="M15.2338 28.9851C14.8759 29.2209 14.6401 29.103 14.6401 28.6273C14.6401 28.2736 14.8759 27.9199 15.2338 27.6799C15.5875 27.562 15.8233 27.6799 15.8233 28.0378C15.8233 28.3957 15.5875 28.8673 15.2338 28.9851Z" fill="#67285E"/>
<path d="M13.3388 28.8675C13.6925 28.7496 13.9283 28.8675 13.9283 29.2211C13.9283 29.5748 13.6925 30.0506 13.3388 30.1685C12.9809 30.2864 12.7451 30.1685 12.7451 29.8148C12.7451 29.4611 12.9809 29.1032 13.3388 28.8675Z" fill="#67285E"/>
<path d="M11.4443 29.9326C11.798 29.8147 12.0337 29.9326 12.0337 30.2863C12.0337 30.64 11.798 31.1158 11.4443 31.2337C11.0864 31.3516 10.8506 31.2337 10.8506 30.88C10.8506 30.5263 11.0864 30.1684 11.4443 29.9326Z" fill="#67285E"/>
<path d="M32.1641 78.3536C33.3473 78.9473 35.242 78.9473 36.4252 78.2357L71.4694 57.9915V55.5031L37.0146 75.3936C35.7136 76.1052 33.5831 76.2231 32.1641 75.7515V78.3536ZM9.19569 61.1873L31.9241 74.4462C33.1115 75.1578 35.242 75.1578 36.4252 74.4462L71.7052 54.0841C72.6525 53.4905 72.7704 52.6652 71.7052 52.0715L48.501 38.5726L9.19569 61.1873ZM46.1346 7.43572L11.1073 27.5873L10.6146 26.7326L33.701 13.3557L44.7115 6.95993L42.581 5.65888L8.36622 25.4315L7.80201 24.4589L42.2273 4.47572C43.0567 4.00414 43.882 4.00414 44.5936 4.35782L47.9073 6.25256C48.6189 6.60624 48.9767 7.43572 48.9767 8.38309L49.0946 37.5073L72.2989 51.1241C73.1283 51.4778 73.5999 52.1894 73.5999 53.1368V56.8083C73.5999 57.6336 73.1283 58.3452 72.2989 58.821L37.0189 79.1831C35.4778 80.1305 32.8715 80.1305 31.3346 79.1831L7.77254 65.5662C7.65464 65.4484 7.53675 65.3305 7.53675 65.0947V61.541L6.98096 61.221L7.53254 60.261V60.2357L8.5978 60.2399L48.021 37.5073L47.9031 8.38309C47.9031 7.7894 47.6673 7.31782 47.4315 7.19993H47.3136C46.9557 7.08203 46.602 7.19993 46.1304 7.43572H46.1346Z" fill="#31213B"/>
<path d="M7.53253 60.2358V60.2485C7.53253 60.2485 7.53253 60.2401 7.52832 60.2358H7.53253Z" fill="#31213B"/>
<path d="M10.6147 26.7327L11.1073 27.5874L10.7326 27.8021C9.54944 28.5095 8.48417 30.2864 8.48417 31.7053V31.979C8.48838 31.2379 8.50944 30.1432 8.60207 60.24H7.5368C7.5368 59.3221 7.5368 60.0842 7.5368 60.2358H7.53259C7.51996 59.8737 7.4947 55.659 7.42312 32.0632L5.29259 30.8758L5.41049 58.939L7.53259 60.2358C7.53259 60.2358 7.5368 60.2442 7.5368 60.2485V60.2611L6.98522 61.2211L4.46312 59.7685C4.34522 59.6464 4.22733 59.5285 4.22733 59.2927L4.10522 29.8106C4.10522 28.0379 5.40628 25.9074 6.94312 24.96L7.80207 24.459L8.36628 25.4316L10.6147 26.7327Z" fill="#31213B"/>
</g>
<defs>
<filter id="filter0_d_3153_2412" x="0.105225" y="0.105713" width="77.4946" height="83.7879" filterUnits="userSpaceOnUse" color-interpolation-filters="sRGB">
<feFlood flood-opacity="0" result="BackgroundImageFix"/>
<feColorMatrix in="SourceAlpha" type="matrix" values="0 0 0 0 0 0 0 0 0 0 0 0 0 0 0 0 0 0 127 0" result="hardAlpha"/>
<feOffset/>
<feGaussianBlur stdDeviation="2"/>
<feComposite in2="hardAlpha" operator="out"/>
<feColorMatrix type="matrix" values="0 0 0 0 0.737255 0 0 0 0 0.321569 0 0 0 0 0.678431 0 0 0 0.24 0"/>
<feBlend mode="normal" in2="BackgroundImageFix" result="effect1_dropShadow_3153_2412"/>
<feBlend mode="normal" in="SourceGraphic" in2="effect1_dropShadow_3153_2412" result="shape"/>
</filter>
</defs>
</svg>
