<svg width="49" height="64" viewBox="0 0 49 64" fill="none" xmlns="http://www.w3.org/2000/svg">
  <path
    d="M48.115 8.55615C48.115 1.71123 41.6123 0 36.4786 0V1.02674C39.5588 1.02674 41.9545 2.05348 41.9545 4.4492C41.9545 5.81818 40.9278 7.87166 37.8476 7.87166C35.4519 7.87166 30.3182 6.50267 26.5535 5.13369C22.1043 3.42246 17.9973 2.05348 14.5748 2.05348C7.72993 2.05348 2.93849 7.18716 2.93849 13.0053C2.93849 18.139 6.70319 19.8503 8.07218 20.5348L8.41442 19.8503C7.72993 19.1658 6.70319 18.4813 6.70319 16.4278C6.70319 15.0588 8.07218 12.6631 11.4946 12.6631C14.5748 12.6631 18.6818 14.0321 24.1577 15.7433C28.9492 17.1123 34.0829 18.139 36.8208 18.4813V29.0909L31.6871 33.5401V33.8824L36.8208 38.3316V53.0481C34.0829 54.7594 31.0027 55.1016 28.2647 55.1016C23.131 55.1016 18.6818 53.7326 14.9171 49.6257L28.9492 42.7807V19.1658L11.8369 26.6952C13.2059 22.246 16.9706 19.1658 20.7353 17.1123L20.393 16.0856C10.1257 18.8235 0.88501 28.4064 0.88501 40.0428C0.88501 53.7326 12.1791 64 24.8422 64C38.5321 64 47.4305 53.0481 47.4305 41.754H46.746C44.6925 46.2032 41.6123 50.3102 37.8476 52.3636V38.3316L43.3235 33.8824V33.5401L37.8476 29.0909V18.4813C42.9813 18.4813 48.115 15.0588 48.115 8.55615ZM18.3396 46.2032L14.2326 48.2567C11.8369 45.1765 10.4679 41.0695 10.4679 35.2513C10.4679 32.8556 10.4679 30.1176 11.1524 28.0642L18.3396 24.984V46.2032Z"
    fill="black" />
</svg>