<svg width="173" height="74" viewBox="0 0 173 74" fill="none" xmlns="http://www.w3.org/2000/svg">
<g filter="url(#filter0_d_3153_2575)">
<path d="M9 9V57H152L164 65V9H9Z" fill="#180B16"/>
</g>
<g filter="url(#filter1_d_3153_2575)">
<path fill-rule="evenodd" clip-rule="evenodd" d="M8.375 9C8.375 8.65482 8.65482 8.375 9 8.375H164C164.345 8.375 164.625 8.65482 164.625 9V65C164.625 65.2305 164.498 65.4423 164.295 65.551C164.092 65.6598 163.845 65.6479 163.653 65.52L151.811 57.625H9C8.65482 57.625 8.375 57.3452 8.375 57V9ZM9.625 9.625V56.375H152C152.123 56.375 152.244 56.4115 152.347 56.48L163.375 63.8322V9.625H9.625Z" fill="#5A3C6C"/>
</g>
<g filter="url(#filter2_d_3153_2575)">
<path d="M25.0625 24.9375V22.5H23.4375V24.9375H25.0625ZM21 29V28.1875H21.8125V22.5H21V21.6875H25.875V22.5H26.6875V24.9375H25.875V25.75H23.4375V28.1875H24.25V29H21Z" fill="#5A3C6C"/>
<path d="M31.53 25.75V23.3125H29.905V25.75H31.53ZM28.28 29V23.3125H29.0925V22.5H29.905V21.6875H31.53V22.5H32.3425V23.3125H33.155V29H31.53V26.5625H29.905V29H28.28Z" fill="#5A3C6C"/>
<path d="M35.56 29V28.1875H34.7475V26.5625H36.3725V28.1875H37.9975V26.5625H37.185V25.75H35.56V24.9375H34.7475V22.5H35.56V21.6875H38.81V22.5H39.6225V24.125H37.9975V22.5H36.3725V24.9375H37.9975V25.75H38.81V26.5625H39.6225V28.1875H38.81V29H35.56Z" fill="#5A3C6C"/>
<path d="M42.0275 29V28.1875H41.215V26.5625H42.84V28.1875H44.465V26.5625H43.6525V25.75H42.0275V24.9375H41.215V22.5H42.0275V21.6875H45.2775V22.5H46.09V24.125H44.465V22.5H42.84V24.9375H44.465V25.75H45.2775V26.5625H46.09V28.1875H45.2775V29H42.0275Z" fill="#5A3C6C"/>
<path d="M50.12 26.5625V24.9375H50.9325V26.5625H50.12ZM48.495 29V26.5625H47.6825V21.6875H49.3075V26.5625H50.12V29H48.495ZM50.9325 29V26.5625H51.745V21.6875H53.37V26.5625H52.5575V29H50.9325Z" fill="#5A3C6C"/>
<path d="M58.2125 28.1875V27.375H59.025V23.3125H58.2125V22.5H57.4V23.3125H56.5875V27.375H57.4V28.1875H58.2125ZM56.5875 29V28.1875H55.775V27.375H54.9625V23.3125H55.775V22.5H56.5875V21.6875H59.025V22.5H59.8375V23.3125H60.65V27.375H59.8375V28.1875H59.025V29H56.5875Z" fill="#5A3C6C"/>
<path d="M66.305 24.9375V22.5H64.68V24.9375H66.305ZM62.2425 29V28.1875H63.055V22.5H62.2425V21.6875H67.1175V22.5H67.93V24.9375H67.1175V26.5625H67.93V29H66.305V26.5625H65.4925V25.75H64.68V29H62.2425Z" fill="#5A3C6C"/>
<path d="M72.7725 28.1875V27.375H73.585V23.3125H72.7725V22.5H71.96V28.1875H72.7725ZM69.5225 29V28.1875H70.335V22.5H69.5225V21.6875H73.585V22.5H74.3975V23.3125H75.21V27.375H74.3975V28.1875H73.585V29H69.5225Z" fill="#5A3C6C"/>
<path d="M77.615 29V28.1875H76.8025V26.5625H78.4275V28.1875H80.0525V26.5625H79.24V25.75H77.615V24.9375H76.8025V22.5H77.615V21.6875H80.865V22.5H81.6775V24.125H80.0525V22.5H78.4275V24.9375H80.0525V25.75H80.865V26.5625H81.6775V28.1875H80.865V29H77.615Z" fill="#5A3C6C"/>
<path d="M83.27 29V27.375H84.895V29H83.27Z" fill="#5A3C6C"/>
<path d="M86.4875 29V27.375H88.1125V29H86.4875Z" fill="#5A3C6C"/>
<path d="M89.705 29V27.375H91.33V29H89.705Z" fill="#5A3C6C"/>
<path d="M95.36 26.5625V24.9375H96.1725V26.5625H95.36ZM93.735 29V26.5625H92.9225V21.6875H94.5475V26.5625H95.36V29H93.735ZM96.1725 29V26.5625H96.985V21.6875H98.61V26.5625H97.7975V29H96.1725Z" fill="#5A3C6C"/>
<path d="M100.202 29V21.6875H101.827V24.9375H103.452V21.6875H105.077V29H103.452V25.75H101.827V29H100.202Z" fill="#5A3C6C"/>
<path d="M109.92 28.1875V27.375H110.732V23.3125H109.92V22.5H109.107V23.3125H108.295V27.375H109.107V28.1875H109.92ZM108.295 29V28.1875H107.482V27.375H106.67V23.3125H107.482V22.5H108.295V21.6875H110.732V22.5H111.545V23.3125H112.357V27.375H111.545V28.1875H110.732V29H108.295Z" fill="#5A3C6C"/>
<path d="M118.792 29V28.1875H117.98V27.375H117.167V23.3125H117.98V22.5H118.792V21.6875H122.042V22.5H122.855V24.125H121.23V22.5H119.605V23.3125H118.792V27.375H119.605V28.1875H121.23V26.5625H122.855V28.1875H122.042V29H118.792Z" fill="#5A3C6C"/>
<path d="M127.698 28.1875V27.375H128.51V23.3125H127.698V22.5H126.885V23.3125H126.073V27.375H126.885V28.1875H127.698ZM126.073 29V28.1875H125.26V27.375H124.448V23.3125H125.26V22.5H126.073V21.6875H128.51V22.5H129.323V23.3125H130.135V27.375H129.323V28.1875H128.51V29H126.073Z" fill="#5A3C6C"/>
<path d="M132.54 29V28.1875H131.728V21.6875H133.353V28.1875H134.978V21.6875H136.603V28.1875H135.79V29H132.54Z" fill="#5A3C6C"/>
<path d="M138.195 29V28.1875H139.007V22.5H138.195V21.6875H141.445V22.5H140.632V28.1875H142.257V26.5625H143.07V25.75H143.882V29H138.195Z" fill="#5A3C6C"/>
<path d="M148.725 28.1875V27.375H149.538V23.3125H148.725V22.5H147.912V28.1875H148.725ZM145.475 29V28.1875H146.287V22.5H145.475V21.6875H149.538V22.5H150.35V23.3125H151.163V27.375H150.35V28.1875H149.538V29H145.475Z" fill="#5A3C6C"/>
<path d="M25.0625 38.9375V36.5H23.4375V38.9375H25.0625ZM21 43V42.1875H21.8125V36.5H21V35.6875H25.875V36.5H26.6875V38.9375H25.875V40.5625H26.6875V43H25.0625V40.5625H24.25V39.75H23.4375V43H21Z" fill="#5A3C6C"/>
<path d="M28.28 43V42.1875H29.0925V36.5H28.28V35.6875H33.9675V37.3125H33.155V36.5H30.7175V38.9375H32.3425V38.125H33.155V40.5625H32.3425V39.75H30.7175V42.1875H33.155V41.375H33.9675V43H28.28Z" fill="#5A3C6C"/>
<path d="M35.56 43V35.6875H37.185V36.5H37.9975V37.3125H38.81V36.5H39.6225V35.6875H41.2475V43H39.6225V38.9375H38.81V39.75H37.9975V38.9375H37.185V43H35.56Z" fill="#5A3C6C"/>
<path d="M42.84 43V42.1875H43.6525V36.5H42.84V35.6875H48.5275V37.3125H47.715V36.5H45.2775V38.9375H46.9025V38.125H47.715V40.5625H46.9025V39.75H45.2775V42.1875H47.715V41.375H48.5275V43H42.84Z" fill="#5A3C6C"/>
<path d="M50.12 43V35.6875H51.745V36.5H52.5575V37.3125H53.37V36.5H54.1825V35.6875H55.8075V43H54.1825V38.9375H53.37V39.75H52.5575V38.9375H51.745V43H50.12Z" fill="#5A3C6C"/>
<path d="M61.4625 42.1875V39.75H59.8375V42.1875H61.4625ZM61.4625 38.9375V36.5H59.8375V38.9375H61.4625ZM57.4 43V42.1875H58.2125V36.5H57.4V35.6875H62.275V36.5H63.0875V38.9375H62.275V39.75H63.0875V42.1875H62.275V43H57.4Z" fill="#5A3C6C"/>
<path d="M64.68 43V42.1875H65.4925V36.5H64.68V35.6875H70.3675V37.3125H69.555V36.5H67.1175V38.9375H68.7425V38.125H69.555V40.5625H68.7425V39.75H67.1175V42.1875H69.555V41.375H70.3675V43H64.68Z" fill="#5A3C6C"/>
<path d="M76.0225 38.9375V36.5H74.3975V38.9375H76.0225ZM71.96 43V42.1875H72.7725V36.5H71.96V35.6875H76.835V36.5H77.6475V38.9375H76.835V40.5625H77.6475V43H76.0225V40.5625H75.21V39.75H74.3975V43H71.96Z" fill="#5A3C6C"/>
<path d="M83.27 43V42.1875H84.0825V36.5H83.27V37.3125H82.4575V35.6875H87.3325V37.3125H86.52V36.5H85.7075V42.1875H86.52V43H83.27Z" fill="#5A3C6C"/>
<path d="M88.925 43V35.6875H90.55V38.9375H92.175V35.6875H93.8V43H92.175V39.75H90.55V43H88.925Z" fill="#5A3C6C"/>
<path d="M95.3925 43V42.1875H96.205V36.5H95.3925V35.6875H101.08V37.3125H100.268V36.5H97.83V38.9375H99.455V38.125H100.268V40.5625H99.455V39.75H97.83V42.1875H100.268V41.375H101.08V43H95.3925Z" fill="#5A3C6C"/>
<path d="M102.673 43V35.6875H104.298V36.5H105.11V37.3125H105.923V36.5H106.735V35.6875H108.36V43H106.735V38.9375H105.923V39.75H105.11V38.9375H104.298V43H102.673Z" fill="#5A3C6C"/>
<path d="M116.42 39.75V37.3125H114.795V39.75H116.42ZM113.17 43V37.3125H113.982V36.5H114.795V35.6875H116.42V36.5H117.232V37.3125H118.045V43H116.42V40.5625H114.795V43H113.17Z" fill="#5A3C6C"/>
<path d="M119.637 43V42.1875H120.45V36.5H119.637V35.6875H122.887V36.5H122.075V42.1875H123.7V40.5625H124.512V39.75H125.325V43H119.637Z" fill="#5A3C6C"/>
<path d="M126.917 43V42.1875H127.73V36.5H126.917V35.6875H130.167V36.5H129.355V42.1875H130.98V40.5625H131.792V39.75H132.605V43H126.917Z" fill="#5A3C6C"/>
<path d="M135.823 43V41.375H137.448V43H135.823ZM135.823 40.5625V38.9375H136.635V38.125H137.448V36.5H135.823V37.3125H134.198V36.5H135.01V35.6875H138.26V36.5H139.073V38.125H138.26V38.9375H137.448V40.5625H135.823Z" fill="#5A3C6C"/>
</g>
<defs>
<filter id="filter0_d_3153_2575" x="1" y="1" width="171" height="72" filterUnits="userSpaceOnUse" color-interpolation-filters="sRGB">
<feFlood flood-opacity="0" result="BackgroundImageFix"/>
<feColorMatrix in="SourceAlpha" type="matrix" values="0 0 0 0 0 0 0 0 0 0 0 0 0 0 0 0 0 0 127 0" result="hardAlpha"/>
<feOffset/>
<feGaussianBlur stdDeviation="4"/>
<feComposite in2="hardAlpha" operator="out"/>
<feColorMatrix type="matrix" values="0 0 0 0 0.737255 0 0 0 0 0.321569 0 0 0 0 0.678431 0 0 0 0.28 0"/>
<feBlend mode="normal" in2="BackgroundImageFix" result="effect1_dropShadow_3153_2575"/>
<feBlend mode="normal" in="SourceGraphic" in2="effect1_dropShadow_3153_2575" result="shape"/>
</filter>
<filter id="filter1_d_3153_2575" x="0.375" y="0.375" width="172.25" height="73.25" filterUnits="userSpaceOnUse" color-interpolation-filters="sRGB">
<feFlood flood-opacity="0" result="BackgroundImageFix"/>
<feColorMatrix in="SourceAlpha" type="matrix" values="0 0 0 0 0 0 0 0 0 0 0 0 0 0 0 0 0 0 127 0" result="hardAlpha"/>
<feOffset/>
<feGaussianBlur stdDeviation="4"/>
<feComposite in2="hardAlpha" operator="out"/>
<feColorMatrix type="matrix" values="0 0 0 0 0.737255 0 0 0 0 0.321569 0 0 0 0 0.678431 0 0 0 0.28 0"/>
<feBlend mode="normal" in2="BackgroundImageFix" result="effect1_dropShadow_3153_2575"/>
<feBlend mode="normal" in="SourceGraphic" in2="effect1_dropShadow_3153_2575" result="shape"/>
</filter>
<filter id="filter2_d_3153_2575" x="13" y="13.6875" width="146.163" height="37.3125" filterUnits="userSpaceOnUse" color-interpolation-filters="sRGB">
<feFlood flood-opacity="0" result="BackgroundImageFix"/>
<feColorMatrix in="SourceAlpha" type="matrix" values="0 0 0 0 0 0 0 0 0 0 0 0 0 0 0 0 0 0 127 0" result="hardAlpha"/>
<feOffset/>
<feGaussianBlur stdDeviation="4"/>
<feComposite in2="hardAlpha" operator="out"/>
<feColorMatrix type="matrix" values="0 0 0 0 0.737255 0 0 0 0 0.321569 0 0 0 0 0.678431 0 0 0 0.28 0"/>
<feBlend mode="normal" in2="BackgroundImageFix" result="effect1_dropShadow_3153_2575"/>
<feBlend mode="normal" in="SourceGraphic" in2="effect1_dropShadow_3153_2575" result="shape"/>
</filter>
</defs>
</svg>
