<svg width="64" height="64" viewBox="0 0 64 64" fill="none" xmlns="http://www.w3.org/2000/svg">
<g clip-path="url(#clip0_174_3403)">
<path d="M46.9219 64H25.5367C24.0696 64 22.875 62.8061 22.875 61.3382V56.1869C22.875 54.7197 24.0689 53.5251 25.5367 53.5251H46.9219C48.3891 53.5251 49.5837 54.7191 49.5837 56.1869V61.3382C49.576 62.8054 48.3892 64 46.9219 64ZM25.5284 55.0867C24.9197 55.0867 24.4281 55.5783 24.4281 56.187V61.3383C24.4281 61.947 24.9197 62.4386 25.5284 62.4386H46.9136C47.5222 62.4386 48.0138 61.947 48.0138 61.3383V56.187C48.0138 55.5783 47.5222 55.0867 46.9136 55.0867H25.5284Z" fill="#4F868E" stroke="#4F868E"/>
<path d="M26.0202 55.0941C25.5988 55.0941 25.2476 54.7588 25.2395 54.3292L25.2319 53.8768C25.1616 50.583 25.1616 50.583 20.9239 46.4389C20.4007 45.9239 19.9014 45.3773 19.4408 44.8155C16.5766 41.2877 15 36.7531 15 32.039V30.7825C15 28.7844 16.2641 26.9737 18.1375 26.2948C18.6607 26.1075 19.2068 26.0063 19.7686 26.0063H28.5333C29.7354 26.0063 30.8667 26.4745 31.7177 27.3254C32.5686 28.184 33.0368 29.3077 33.0368 30.5098C33.0368 30.7673 33.0134 31.0248 32.9666 31.2823C32.592 33.4443 30.7269 35.0133 28.5333 35.0133H22.2818C21.8528 35.0133 21.501 34.6622 21.501 34.2326C21.501 33.8036 21.8522 33.4519 22.2818 33.4519H28.5333C29.9695 33.4519 31.1868 32.4295 31.429 31.0167C31.4601 30.8452 31.4758 30.6813 31.4758 30.5093C31.4758 29.7209 31.1715 28.987 30.6173 28.4252C30.0631 27.871 29.3216 27.5667 28.5413 27.5667H19.7838C19.4016 27.5667 19.0346 27.6293 18.6835 27.7616C17.4193 28.2222 16.5684 29.4395 16.5684 30.782V32.0386C16.5684 36.3934 18.0198 40.5773 20.6581 43.8318C21.0795 44.355 21.5324 44.8542 22.0159 45.3306C26.5738 49.7948 26.7066 50.029 26.7845 53.8535L26.7921 54.3059C26.7998 54.7349 26.4644 55.0942 26.0272 55.1018C26.0354 55.0942 26.0278 55.0942 26.0201 55.0942L26.0202 55.0941Z" fill="#4F868E" stroke="#4F868E"/>
<path d="M31.1479 41.5373C30.7575 41.5373 30.414 41.2406 30.3753 40.8427C29.7977 35.5977 25.5442 35.0124 25.3645 34.989C24.9355 34.9346 24.6306 34.5519 24.6856 34.1229C24.7324 33.6939 25.1228 33.3814 25.5442 33.4358C25.5986 33.4434 31.2105 34.1539 31.9287 40.6706C31.9755 41.0996 31.6635 41.4823 31.234 41.5292C31.2029 41.5373 31.1795 41.5373 31.1479 41.5373L31.1479 41.5373Z" fill="#4F868E" stroke="#4F868E"/>
<path d="M46.0241 55.087C45.5951 55.087 45.2434 54.7359 45.2434 54.3063V51.5123L45.2979 51.3795C45.3289 51.3016 48.326 43.3716 48.0216 31.165C48.014 30.736 48.3494 30.3767 48.7789 30.3691H48.8023C49.2237 30.3691 49.5749 30.7044 49.583 31.134C49.8797 42.9191 47.2339 50.653 46.8042 51.8084V54.3214C46.8042 54.7428 46.4531 55.0863 46.024 55.0863L46.0241 55.087Z" fill="#4F868E" stroke="#4F868E"/>
<path d="M46.2737 35.6614H43.55C41.7235 35.6614 40.241 34.1784 40.241 32.3525V20.1063C40.241 18.2798 41.724 16.7973 43.55 16.7973H46.2737C48.1002 16.7973 49.5827 18.2804 49.5827 20.1063V32.3519C49.5756 34.1784 48.0927 35.6614 46.2737 35.6614ZM43.55 18.3654C42.5901 18.3654 41.8018 19.1461 41.8018 20.1135V32.3592C41.8018 33.319 42.5825 34.1073 43.55 34.1073H46.2737C47.2335 34.1073 48.0219 33.3266 48.0219 32.3592V20.1053C48.0219 19.1455 47.2412 18.3572 46.2737 18.3572H43.55V18.3654Z" fill="#4F868E" stroke="#4F868E"/>
<path d="M38.6319 32.8196H35.9784C34.1911 32.8196 32.7314 31.3682 32.7314 29.5727V19.0359C32.7314 17.2486 34.1829 15.7889 35.9784 15.7889H38.6319C40.4192 15.7889 41.8789 17.2404 41.8789 19.0359V29.5727C41.8789 31.36 40.4192 32.8196 38.6319 32.8196ZM35.9784 17.3591C35.0496 17.3591 34.2923 18.1164 34.2923 19.0452V29.582C34.2923 30.5108 35.0496 31.2682 35.9784 31.2682H38.6319C39.5607 31.2682 40.318 30.5109 40.318 29.582V19.0448C40.318 18.116 39.5607 17.3587 38.6319 17.3587C38.6319 17.3592 35.9784 17.3592 35.9784 17.3592V17.3591Z" fill="#4F868E" stroke="#4F868E"/>
<path d="M31.0777 33.1472L31.4523 30.9929C31.4833 30.8214 31.4991 30.6575 31.4991 30.4855C31.4991 29.6972 31.1948 28.9633 30.6405 28.4015C30.0863 27.8472 29.3448 27.5429 28.5646 27.5429L25.1228 27.5435V20.3086C25.1228 17.819 27.1519 15.7894 29.6421 15.7894H29.7902C32.2798 15.7894 34.3094 17.8185 34.3094 20.3086V28.2931C34.3094 29.6041 33.7394 30.853 32.7404 31.7197L31.0777 33.1472ZM26.6678 25.9901H28.5488C29.7509 25.9901 30.8822 26.4583 31.7332 27.3093C32.1546 27.7306 32.4823 28.2146 32.7012 28.7455C32.7246 28.5974 32.7322 28.4488 32.7322 28.3007V20.3162C32.7322 18.6851 31.4054 17.3583 29.7743 17.3583H29.6262C27.9952 17.3583 26.6683 18.6851 26.6683 20.3162L26.6678 25.9901Z" fill="#4F868E" stroke="#4F868E"/>
<path d="M17.6296 28.1284V19.6289C17.6296 18.4268 18.0978 17.2873 18.9488 16.437C19.8073 15.586 20.9391 15.1102 22.1489 15.1102C24.6385 15.1102 26.6681 17.1393 26.6681 19.6295L26.6676 27.5509H19.7758C19.3936 27.5509 19.0267 27.6135 18.6755 27.7458L17.6296 28.1284ZM22.1489 16.671C21.3606 16.671 20.619 16.9753 20.0572 17.5372C19.503 18.099 19.191 18.8405 19.191 19.6289V26.0291C19.3859 26.0057 19.5814 25.9899 19.7763 25.9899H25.1067V19.6213C25.1067 17.9979 23.78 16.6711 22.1488 16.6711L22.1489 16.671Z" fill="#4F868E" stroke="#4F868E"/>
<path d="M41.3872 11.2239C41.1841 11.2239 40.9892 11.146 40.833 10.9974C40.5287 10.6931 40.5287 10.2015 40.833 9.89715L47.1864 3.54374C47.4907 3.23941 47.9823 3.23941 48.2867 3.54374C48.591 3.84807 48.591 4.33968 48.2867 4.64401L41.9333 10.9974C41.7852 11.1455 41.5827 11.2239 41.3872 11.2239H41.3872Z" fill="#4F868E" stroke="#4F868E"/>
<path d="M25.3327 11.2239C25.1296 11.2239 24.9347 11.146 24.7785 10.9974L18.425 4.64401C18.1207 4.33968 18.1207 3.84807 18.425 3.54374C18.7294 3.23941 19.221 3.23941 19.5253 3.54374L25.8787 9.89715C26.1831 10.2015 26.1831 10.6931 25.8787 10.9974C25.7306 11.1455 25.5276 11.2239 25.3327 11.2239H25.3327Z" fill="#4F868E" stroke="#4F868E"/>
<path d="M33.5129 9.95147C33.0839 9.95147 32.7322 9.60032 32.7322 9.17076V0.780706C32.7322 0.351705 33.0833 0 33.5129 0C33.9418 0 34.2935 0.351148 34.2935 0.780706V9.17076C34.2935 9.6003 33.95 9.95147 33.5129 9.95147Z" fill="#4F868E" stroke="#4F868E"/>
</g>
<defs>
<clipPath id="clip0_174_3403">
<rect width="64" height="64" fill="white"/>
</clipPath>
</defs>
</svg>
