<svg width="126" height="136" viewBox="0 0 126 136" fill="none" xmlns="http://www.w3.org/2000/svg">
<g filter="url(#filter0_d_3153_2184)">
<path d="M109.944 120.61C109.883 120.67 109.823 120.738 109.755 120.798C109.575 120.972 109.394 121.137 109.205 121.303C108.964 121.514 108.716 121.717 108.467 121.913C108.271 122.064 108.068 122.215 107.872 122.358C107.608 122.538 107.345 122.712 107.074 122.885C106.87 123.013 106.659 123.141 106.448 123.262C106.162 123.42 105.876 123.563 105.59 123.706L105.514 123.744C105.326 123.834 105.138 123.932 104.942 124.015C104.64 124.143 104.332 124.256 104.023 124.369L103.857 124.437C103.691 124.497 103.533 124.557 103.367 124.61C103.051 124.708 102.727 124.791 102.403 124.874L102.177 124.934C102.027 124.972 101.883 125.009 101.733 125.039C101.364 125.122 100.987 125.175 100.603 125.228L100.407 125.258C100.286 125.28 100.173 125.296 100.053 125.311C99.4729 125.371 98.9004 125.401 98.3429 125.401C97.7855 125.401 97.213 125.371 96.6329 125.311C96.5199 125.296 96.3994 125.28 96.2789 125.258L96.083 125.228C95.7064 125.175 95.3297 125.122 94.9606 125.047C94.8175 125.017 94.6744 124.972 94.5312 124.934L94.3203 124.881C93.9437 124.791 93.6348 124.708 93.326 124.61C93.1602 124.557 92.9945 124.497 92.8363 124.437L92.6781 124.377C92.3693 124.264 92.0529 124.143 91.7516 124.015C91.5633 123.932 91.39 123.842 91.2092 123.759L91.1113 123.706C90.8175 123.563 90.5312 123.42 90.245 123.254C90.0341 123.141 89.8307 123.013 89.6273 122.885C89.3561 122.712 89.0849 122.539 88.8213 122.35C88.6254 122.207 88.4295 122.064 88.2337 121.913C87.9776 121.717 87.729 121.514 87.4879 121.296C87.2996 121.137 87.1188 120.964 86.938 120.798C86.8778 120.738 86.8175 120.67 86.7572 120.61L86.4258 120.271L86.5689 119.985C88.6631 115.827 92.8589 113.25 97.5143 113.25H99.1866C103.842 113.25 108.03 115.827 110.124 119.985L110.275 120.271L109.944 120.61Z" fill="#200E1E"/>
<path d="M103.782 105.589C103.782 108.565 101.364 111.006 98.3805 111.021C95.3372 111.006 92.9116 108.565 92.9116 105.589C92.9116 102.614 95.3523 100.151 98.3504 100.151C101.349 100.151 103.782 102.591 103.782 105.589Z" fill="#200E1E"/>
<path d="M56.2787 111.51L56.1658 111.616C55.9021 111.879 55.6384 112.143 55.3597 112.392C54.968 112.746 54.5537 113.07 54.1394 113.394L53.936 113.559C53.6799 113.763 53.4238 113.966 53.1601 114.154C52.7533 114.456 52.3239 114.727 51.8946 114.998L51.5556 115.217C51.307 115.375 51.0659 115.533 50.8098 115.684C50.3804 115.925 49.9435 116.143 49.5066 116.354L49.0471 116.588C48.8061 116.716 48.5575 116.836 48.3089 116.949C47.872 117.145 47.4275 117.311 46.9755 117.476L46.403 117.695C46.1695 117.785 45.9285 117.876 45.6874 117.951C45.2053 118.109 44.7081 118.237 44.2336 118.358L44.0226 118.411C43.8946 118.441 43.7665 118.478 43.646 118.508C43.42 118.576 43.2015 118.636 42.9755 118.682C42.3729 118.81 41.7627 118.893 41.1752 118.975L41.0923 118.991C40.9718 119.006 40.8588 119.028 40.7383 119.043C40.5575 119.081 40.3691 119.111 40.1808 119.126C39.2241 119.232 38.2674 119.284 37.3334 119.284C36.3993 119.284 35.4501 119.232 34.4934 119.126C34.3051 119.111 34.1168 119.081 33.936 119.043C33.8155 119.028 33.7025 119.006 33.582 118.991L33.4464 118.968C32.8739 118.893 32.2863 118.81 31.7062 118.682C31.4803 118.636 31.2543 118.576 31.0358 118.508C30.9078 118.478 30.7872 118.441 30.6667 118.411L30.4181 118.35C29.936 118.23 29.4539 118.102 28.9868 117.951C28.7458 117.876 28.5123 117.785 28.2788 117.687L27.7665 117.499C27.2919 117.326 26.8249 117.153 26.3729 116.949C26.1243 116.836 25.8908 116.716 25.6497 116.595L25.2053 116.369C24.7609 116.151 24.3089 115.925 23.872 115.676C23.6159 115.533 23.3748 115.375 23.1262 115.217L22.8626 115.043C22.3804 114.742 21.9435 114.463 21.5142 114.154C21.258 113.966 21.0094 113.77 20.7609 113.574L20.5499 113.401C20.1356 113.07 19.7213 112.738 19.3221 112.384C19.0433 112.136 18.7722 111.872 18.5085 111.608L18.403 111.51C18.1545 111.262 17.9134 111.013 17.6723 110.749L17.4614 110.531L17.5895 110.252C20.9492 102.998 28.0076 98.4858 36.0076 98.4858H38.6818C46.6818 98.4858 53.7401 102.998 57.0998 110.252L57.2279 110.531L57.017 110.749C56.7759 111.013 56.5273 111.262 56.2787 111.51Z" fill="#200E1E"/>
<path d="M46.712 86.8926C46.712 92.0225 42.5387 96.2259 37.4012 96.2636H37.2807C32.1432 96.2259 27.97 92.0225 27.97 86.8926C27.97 81.7626 32.1734 77.514 37.341 77.514C42.5086 77.514 46.712 81.7174 46.712 86.8926Z" fill="#200E1E"/>
<path d="M107.435 55.9246C107.194 56.1732 106.953 56.4218 106.704 56.6629L106.576 56.7984C106.305 57.0546 106.042 57.3182 105.763 57.5668C105.379 57.9058 104.979 58.2297 104.58 58.5461L104.384 58.7043C104.113 58.9152 103.849 59.1337 103.563 59.3371C103.179 59.6158 102.772 59.8719 102.365 60.128L102.019 60.354C101.755 60.5273 101.484 60.693 101.213 60.8512C100.806 61.0847 100.392 61.2881 99.9775 61.499L99.518 61.7325C99.2544 61.8681 98.9832 62.0037 98.712 62.1242C98.3052 62.305 97.8758 62.4632 97.454 62.6214L96.8589 62.8474C96.6103 62.9453 96.3542 63.0433 96.0981 63.1261C95.6461 63.2693 95.1866 63.3898 94.7271 63.5028L94.4634 63.5706C94.3353 63.6007 94.2073 63.6384 94.0792 63.676C93.8532 63.7363 93.6197 63.8041 93.3862 63.8493C92.8062 63.9774 92.2186 64.0602 91.6536 64.1355L91.518 64.1582C91.405 64.1732 91.2845 64.1958 91.1715 64.2109C90.9756 64.2485 90.7873 64.2787 90.599 64.3013C89.6423 64.3992 88.6781 64.4519 87.7515 64.4519C86.825 64.4519 85.8608 64.3992 84.9041 64.3013C84.7233 64.2787 84.535 64.2485 84.3542 64.2109C84.2336 64.1958 84.1131 64.1732 83.9851 64.1582L83.8269 64.1355C83.2619 64.0527 82.6894 63.9698 82.1169 63.8493C81.8834 63.8041 81.6574 63.7363 81.4239 63.676C81.3033 63.6384 81.1753 63.6082 81.0472 63.5706L80.8212 63.5103C80.3466 63.3898 79.8721 63.2693 79.405 63.1186C79.1489 63.0433 78.9003 62.9453 78.6517 62.8474L78.0943 62.6365C77.6574 62.4708 77.2205 62.305 76.7911 62.1167C76.535 62.0037 76.2788 61.8757 76.0303 61.7476L75.5557 61.5065C75.1338 61.2956 74.7045 61.0847 74.2977 60.8512C74.034 60.7005 73.7854 60.5348 73.5293 60.3766L73.2581 60.1958C72.776 59.8945 72.3466 59.6233 71.9399 59.3295C71.6762 59.1412 71.4201 58.9378 71.164 58.7344L70.953 58.5612C70.5387 58.2372 70.132 57.9058 69.7402 57.5593C69.4691 57.3182 69.2054 57.0621 68.9493 56.7984L68.8137 56.6704C68.5651 56.4293 68.324 56.1807 68.083 55.9246L67.8721 55.6986L68.0001 55.4199C71.3598 48.1657 78.4182 43.6534 86.4257 43.6534H89.0924C97.0924 43.6534 104.151 48.1657 107.51 55.4199L107.639 55.6986L107.435 55.9246Z" fill="#200E1E"/>
<path d="M97.1301 32.0603C97.1301 37.1752 92.9644 41.3786 87.8495 41.4238H87.6612C82.5463 41.3786 78.3806 37.1752 78.3806 32.0603C78.3806 26.9454 82.584 22.6818 87.7516 22.6818C92.9192 22.6818 97.1301 26.8852 97.1301 32.0603Z" fill="#200E1E"/>
<path d="M32.1808 23.4425C32.1808 26.4255 29.7552 28.8662 26.7721 28.8813C23.7364 28.8662 21.3032 26.4255 21.3032 23.4425C21.3032 20.4594 23.7439 18.0112 26.742 18.0112C29.7401 18.0112 32.1808 20.4444 32.1808 23.4425Z" fill="#200E1E"/>
<path d="M27.5782 31.1035C32.2336 31.1035 36.4294 33.6873 38.5236 37.838L38.6667 38.1318L38.3353 38.4707C38.275 38.531 38.2147 38.5913 38.1545 38.6591C37.9737 38.8323 37.7854 38.9981 37.597 39.1638C37.356 39.3747 37.1149 39.5706 36.8663 39.7664C36.6705 39.9246 36.4671 40.0677 36.2637 40.2184C36.0076 40.3992 35.7439 40.5724 35.4803 40.7382C35.2618 40.8662 35.0509 41.0018 34.84 41.1223C34.5613 41.2805 34.2825 41.4161 33.9963 41.5593L33.8984 41.6045C33.71 41.7024 33.5217 41.7928 33.3334 41.8756C33.0321 42.0037 32.7308 42.1167 32.4294 42.2297L32.2712 42.2824C32.1055 42.3502 31.9323 42.4105 31.759 42.4707C31.4502 42.5687 31.1262 42.6515 30.8098 42.7269L30.5839 42.7871C30.4332 42.8323 30.2825 42.87 30.1244 42.9001C29.7552 42.9755 29.3861 43.0282 29.0095 43.0809L28.8061 43.1186C28.6856 43.1336 28.565 43.1562 28.452 43.1638C27.8645 43.224 27.292 43.2617 26.7421 43.2617C26.1921 43.2617 25.6196 43.224 25.0321 43.1638C24.9115 43.1562 24.7985 43.1336 24.678 43.1186L24.4746 43.0809C24.0829 43.0282 23.7213 42.9755 23.3598 42.9001C23.2091 42.87 23.066 42.8323 22.9153 42.7947L22.7044 42.7344C22.3353 42.644 22.0264 42.5687 21.7251 42.4707C21.5594 42.418 21.3937 42.3502 21.2279 42.29L21.0622 42.2297C20.7609 42.1167 20.452 42.0037 20.1507 41.8756L19.6309 41.6271L19.5029 41.5668C19.2091 41.4237 18.9228 41.273 18.6441 41.1148C18.4332 41.0018 18.2298 40.8738 18.0189 40.7457C17.7477 40.5724 17.4765 40.3992 17.2129 40.2109C17.017 40.0677 16.8287 39.9246 16.6328 39.7739C16.3767 39.5781 16.1281 39.3672 15.8795 39.1562C15.6987 38.9905 15.5179 38.8323 15.3447 38.6591C15.2769 38.5988 15.2242 38.5385 15.1639 38.4783L14.8174 38.1318L14.968 37.838C17.0622 33.6873 21.2581 31.1035 25.9134 31.1035H27.5782Z" fill="#200E1E"/>
<path d="M97.3334 78.8097C97.9436 78.8097 98.4483 79.3069 98.4483 79.917C98.4483 80.5272 97.9436 81.0319 97.3334 81.0319H96.9643C96.3541 81.0319 95.8569 80.5347 95.8569 79.917C95.8569 79.2993 96.3541 78.8097 96.9643 78.8097H97.3334Z" fill="#5A3C6C"/>
<path d="M98.3428 125.401C98.9003 125.401 99.4728 125.371 100.053 125.311C100.173 125.296 100.286 125.281 100.407 125.258L100.603 125.228C100.987 125.175 101.364 125.122 101.733 125.039C101.883 125.009 102.026 124.972 102.177 124.934L102.403 124.874C102.727 124.791 103.051 124.708 103.367 124.61C103.533 124.557 103.691 124.497 103.857 124.437L104.023 124.369C104.332 124.256 104.64 124.143 104.942 124.015C105.138 123.932 105.326 123.834 105.514 123.744L105.59 123.706C105.876 123.563 106.162 123.42 106.448 123.262C106.659 123.141 106.87 123.013 107.074 122.885C107.345 122.712 107.608 122.539 107.872 122.358C108.068 122.215 108.271 122.064 108.467 121.913C108.716 121.717 108.964 121.514 109.205 121.303C109.394 121.137 109.574 120.972 109.755 120.798C109.823 120.738 109.883 120.67 109.944 120.61L110.275 120.271L110.124 119.985C108.03 115.827 103.842 113.25 99.1865 113.25H97.5142C92.8588 113.25 88.663 115.827 86.5688 119.985L86.4257 120.271L86.7571 120.61C86.8174 120.67 86.8777 120.738 86.9379 120.798C87.1187 120.964 87.2995 121.137 87.4878 121.296C87.7289 121.514 87.9775 121.717 88.2336 121.913C88.4295 122.064 88.6253 122.207 88.8212 122.35C89.0848 122.539 89.356 122.712 89.6272 122.885C89.8306 123.013 90.034 123.141 90.2449 123.254C90.5311 123.42 90.8174 123.563 91.1112 123.706L91.2091 123.759C91.3899 123.842 91.5632 123.932 91.7515 124.015C92.0528 124.143 92.3692 124.264 92.678 124.377L92.8362 124.437C92.9944 124.497 93.1601 124.557 93.3259 124.61C93.6347 124.708 93.9436 124.791 94.3202 124.881L94.5311 124.934C94.6743 124.972 94.8174 125.017 94.9605 125.047C95.3296 125.122 95.7063 125.175 96.0829 125.228L96.2788 125.258C96.3993 125.281 96.5198 125.296 96.6328 125.311C97.2129 125.371 97.7929 125.401 98.3428 125.401ZM98.3805 111.021C101.364 111.006 103.782 108.565 103.782 105.589C103.782 102.614 101.348 100.151 98.3504 100.151C95.3522 100.151 92.9116 102.591 92.9116 105.589C92.9116 108.587 95.3372 111.006 98.3805 111.021ZM98.3428 127.631C92.9568 127.631 87.8268 125.303 84.2713 121.243C81.2581 117.838 79.6008 113.446 79.6008 108.889C79.6008 103.721 81.7025 99.0357 85.0923 95.6383C88.4897 92.241 93.1752 90.1393 98.3428 90.1393C108.678 90.1393 117.085 98.5536 117.085 108.889C117.085 113.439 115.435 117.823 112.452 121.22L112.392 121.288C111.955 121.778 111.495 122.245 111.021 122.682C108.098 125.378 104.309 127.096 100.354 127.518C99.6912 127.593 99.0133 127.631 98.3428 127.631Z" fill="#5A3C6C"/>
<path d="M89.1376 78.8097C89.7553 78.8097 90.2525 79.3069 90.2525 79.917C90.2525 80.5272 89.7553 81.0319 89.1376 81.0319H87.5783C86.9606 81.0319 86.4634 80.5347 86.4634 79.917C86.4634 79.2993 86.9606 78.8097 87.5783 78.8097H89.1376Z" fill="#5A3C6C"/>
<path d="M87.7515 66.6817C79.3071 66.6817 71.2845 63.0358 65.7176 56.6855C61.0095 51.3522 58.4106 44.4821 58.4106 37.3409C58.4106 21.1676 71.5707 8 87.7515 8C103.932 8 117.085 21.1676 117.085 37.3409C117.085 44.4369 114.516 51.2844 109.853 56.6177L109.763 56.7156C109.077 57.4915 108.354 58.2448 107.593 58.9379C103.895 62.3428 99.3297 64.7458 94.388 65.8983C93.1225 66.1921 91.9775 66.3879 90.8928 66.5085L90.727 66.5235C89.7477 66.629 88.7459 66.6817 87.7515 66.6817ZM89.0924 43.6535H86.4257C78.4182 43.6535 71.3598 48.1657 68.0001 55.42L67.872 55.6987L68.083 55.9247C68.324 56.1808 68.5651 56.4294 68.8137 56.6704L68.9493 56.7985C69.2054 57.0621 69.469 57.3183 69.7402 57.5593C70.1319 57.9058 70.5387 58.2373 70.953 58.5612L71.1639 58.7345C71.4201 58.9379 71.6762 59.1412 71.9398 59.3296C72.3466 59.6234 72.776 59.8945 73.2581 60.1959L73.5293 60.3766C73.7854 60.5348 74.034 60.7006 74.2977 60.8512C74.7044 61.0847 75.1338 61.2957 75.5557 61.5066L76.0302 61.7476C76.2788 61.8757 76.5349 62.0038 76.7911 62.1168C77.2204 62.3051 77.6574 62.4708 78.0943 62.6365L78.6517 62.8475C78.9003 62.9454 79.1489 63.0433 79.405 63.1186C79.872 63.2693 80.3466 63.3898 80.8212 63.5104L81.0472 63.5706C81.1752 63.6083 81.3033 63.6384 81.4238 63.6761C81.6574 63.7363 81.8833 63.8041 82.1169 63.8493C82.6894 63.9699 83.2619 64.0527 83.8268 64.1356L83.985 64.1582C84.1131 64.1733 84.2336 64.1959 84.3541 64.2109C84.5349 64.2486 84.7233 64.2787 84.9041 64.3013C85.8607 64.3992 86.8174 64.452 87.7515 64.452C88.6856 64.452 89.6423 64.3992 90.599 64.3013C90.7873 64.2787 90.9756 64.2486 91.1715 64.2109C91.2845 64.1959 91.405 64.1733 91.518 64.1582L91.6536 64.1356C92.2186 64.0603 92.8061 63.9774 93.3862 63.8493C93.6197 63.8041 93.8532 63.7363 94.0792 63.6761C94.2073 63.6384 94.3353 63.6008 94.4634 63.5706L94.727 63.5028C95.1865 63.3898 95.646 63.2693 96.098 63.1262C96.3541 63.0433 96.6103 62.9454 96.8589 62.8475L97.454 62.6215C97.8758 62.4633 98.3052 62.3051 98.712 62.1243C98.9831 62.0038 99.2543 61.8682 99.518 61.7326L99.9775 61.4991C100.392 61.2881 100.806 61.0847 101.213 60.8512C101.484 60.693 101.755 60.5273 102.019 60.354L102.365 60.1281C102.772 59.8719 103.179 59.6158 103.563 59.3371C103.849 59.1337 104.113 58.9153 104.384 58.7043L104.58 58.5461C104.979 58.2298 105.379 57.9058 105.763 57.5669C106.042 57.3183 106.305 57.0546 106.576 56.7985L106.704 56.6629C106.953 56.4218 107.194 56.1733 107.435 55.9247L107.639 55.6987L107.51 55.42C104.151 48.1657 97.0924 43.6535 89.0924 43.6535ZM87.6611 41.4237H87.8494C92.9643 41.3785 97.13 37.1751 97.13 32.0603C97.13 26.9454 92.9267 22.6817 87.7515 22.6817C82.5764 22.6817 78.3805 26.8851 78.3805 32.0603C78.3805 37.2354 82.5462 41.3785 87.6611 41.4237Z" fill="#5A3C6C"/>
<path d="M79.7516 78.8097C80.3617 78.8097 80.8589 79.3069 80.8589 79.917C80.8589 80.5272 80.3617 81.0319 79.7516 81.0319H78.1847C77.567 81.0319 77.0698 80.5347 77.0698 79.917C77.0698 79.2993 77.567 78.8097 78.1847 78.8097H79.7516Z" fill="#5A3C6C"/>
<path d="M50.8324 52.9415C51.4426 52.9415 51.9473 53.4387 51.9473 54.0489C51.9473 54.659 51.4426 55.1638 50.8324 55.1638H50.4633C49.8531 55.1638 49.3484 54.6666 49.3484 54.0489C49.3484 53.4312 49.8531 52.9415 50.4633 52.9415H50.8324Z" fill="#5A3C6C"/>
<path d="M42.6366 52.9415C43.2543 52.9415 43.7515 53.4387 43.7515 54.0489C43.7515 54.659 43.2543 55.1638 42.6366 55.1638H41.0697C40.4596 55.1638 39.9624 54.6666 39.9624 54.0489C39.9624 53.4312 40.4596 52.9415 41.0697 52.9415H42.6366Z" fill="#5A3C6C"/>
<path d="M33.243 52.9415C33.8607 52.9415 34.3579 53.4387 34.3579 54.0489C34.3579 54.659 33.8607 55.1638 33.243 55.1638H31.6837C31.066 55.1638 30.5688 54.6666 30.5688 54.0489C30.5688 53.4312 31.066 52.9415 31.6837 52.9415H33.243Z" fill="#5A3C6C"/>
<path d="M37.4011 96.2637C42.5386 96.226 46.7119 92.0226 46.7119 86.8927C46.7119 81.7627 42.5085 77.5141 37.3409 77.5141C32.1733 77.5141 27.9699 81.7175 27.9699 86.8927C27.9699 92.0678 32.1431 96.226 37.2806 96.2637H37.4011ZM31.7062 118.682C32.2863 118.81 32.8738 118.893 33.4463 118.968L33.5819 118.991C33.7024 119.006 33.8154 119.028 33.936 119.043C34.1168 119.081 34.3051 119.111 34.4934 119.126C35.4501 119.232 36.4068 119.284 37.3333 119.284C38.2599 119.284 39.2241 119.232 40.1808 119.126C40.3691 119.111 40.5574 119.081 40.7382 119.043C40.8588 119.028 40.9718 119.006 41.0923 118.991L41.1751 118.976C41.7627 118.893 42.3729 118.81 42.9755 118.682C43.2015 118.637 43.42 118.576 43.646 118.508C43.7665 118.478 43.8945 118.441 44.0226 118.411L44.2335 118.358C44.7081 118.237 45.2053 118.109 45.6874 117.951C45.9284 117.876 46.1695 117.785 46.403 117.695L46.9755 117.476C47.4275 117.311 47.8719 117.145 48.3088 116.949C48.5574 116.836 48.806 116.716 49.0471 116.588L49.5066 116.354C49.9435 116.143 50.3804 115.925 50.8098 115.684C51.0659 115.533 51.307 115.375 51.5556 115.217L51.8945 114.998C52.3239 114.727 52.7533 114.456 53.1601 114.154C53.4237 113.966 53.6798 113.763 53.936 113.559L54.1394 113.394C54.5537 113.07 54.968 112.746 55.3597 112.392C55.6384 112.143 55.9021 111.879 56.1657 111.616L56.2787 111.51C56.5273 111.262 56.7759 111.013 57.0169 110.75L57.2279 110.531L57.0998 110.252C53.7401 102.998 46.6817 98.4859 38.6817 98.4859H36.0075C28.0075 98.4859 20.9492 102.998 17.5895 110.252L17.4614 110.531L17.6723 110.75C17.9134 111.013 18.1544 111.262 18.403 111.51L18.5085 111.608C18.7721 111.872 19.0433 112.136 19.322 112.384C19.7213 112.738 20.1356 113.07 20.5499 113.401L20.7608 113.574C21.0094 113.77 21.258 113.966 21.5141 114.154C21.9435 114.463 22.3804 114.742 22.8625 115.043L23.1262 115.217C23.3748 115.375 23.6158 115.533 23.8719 115.676C24.3089 115.925 24.7608 116.151 25.2053 116.369L25.6497 116.595C25.8908 116.716 26.1243 116.836 26.3729 116.949C26.8249 117.153 27.2919 117.326 27.7665 117.499L28.2787 117.687C28.5122 117.785 28.7458 117.876 28.9868 117.951C29.4539 118.102 29.936 118.23 30.4181 118.35L30.6667 118.411C30.7872 118.441 30.9077 118.478 31.0358 118.508C31.2542 118.576 31.4802 118.637 31.7062 118.682ZM40.4821 121.341C38.3955 121.567 36.2787 121.567 34.1921 121.341C26.8701 120.55 20.1582 117.062 15.307 111.518C10.5913 106.185 8 99.3145 8 92.1733C8 75.9925 21.1601 62.8324 37.3333 62.8324C53.5141 62.8399 66.6742 76 66.6742 92.1733C66.6742 99.2994 64.0829 106.169 59.4049 111.495L59.3446 111.563C59.0132 111.932 58.6441 112.294 58.2975 112.64L57.9887 112.942C54.1318 116.783 49.3107 119.473 44.0377 120.708C42.7345 121.017 41.5669 121.22 40.4821 121.341Z" fill="#8C3680"/>
<path d="M26.7721 28.8813C29.7552 28.8662 32.1808 26.4255 32.1808 23.4425C32.1808 20.4594 29.7401 18.0112 26.742 18.0112C23.7439 18.0112 21.3032 20.4444 21.3032 23.4425C21.3032 26.4406 23.7363 28.8662 26.7721 28.8813ZM39.42 40.5423C36.4972 43.2391 32.7081 44.9491 28.7533 45.3784C28.0829 45.4538 27.4124 45.4839 26.742 45.4839C21.3484 45.4839 16.2185 43.1562 12.6704 39.1035C9.65725 35.6986 8 31.3069 8 26.7419C8 16.4142 16.4068 8.00745 26.742 8.00745C37.0772 8.00745 45.484 16.4142 45.484 26.7419C45.484 31.2993 43.8267 35.6835 40.8286 39.096L40.7759 39.1562C40.3465 39.6459 39.887 40.1129 39.42 40.5423ZM31.7589 42.4707C31.9322 42.4105 32.1055 42.3502 32.2712 42.2824L32.4294 42.2297C32.7307 42.1167 33.032 42.0037 33.3333 41.8756C33.5217 41.7928 33.71 41.7024 33.8983 41.6044L33.9962 41.5592C34.2825 41.4161 34.5612 41.2805 34.8399 41.1223C35.0508 41.0018 35.2618 40.8662 35.4802 40.7381C35.7439 40.5724 36.0075 40.3992 36.2637 40.2184C36.467 40.0677 36.6704 39.9246 36.8663 39.7664C37.1149 39.5705 37.3559 39.3747 37.597 39.1638C37.7853 38.998 37.9736 38.8323 38.1544 38.659C38.2147 38.5913 38.275 38.531 38.3352 38.4707L38.6667 38.1317L38.5235 37.838C36.4294 33.6873 32.2335 31.1035 27.5782 31.1035H25.9134C21.258 31.1035 17.0621 33.6873 14.968 37.838L14.8173 38.1317L15.1638 38.4783C15.2241 38.5385 15.2768 38.5988 15.3446 38.659C15.5179 38.8323 15.6987 38.9905 15.8795 39.1562C16.1281 39.3671 16.3766 39.5781 16.6328 39.7739C16.8286 39.9246 17.0169 40.0677 17.2128 40.2108C17.4765 40.3992 17.7476 40.5724 18.0188 40.7457C18.2298 40.8737 18.4331 41.0018 18.6441 41.1148C18.9228 41.273 19.209 41.4236 19.5028 41.5668L19.6309 41.627L20.1507 41.8756C20.452 42.0037 20.7608 42.1167 21.0621 42.2297L21.2279 42.2899C21.3936 42.3502 21.5593 42.418 21.725 42.4707C22.0264 42.5687 22.3352 42.644 22.7043 42.7344L22.9153 42.7946C23.0659 42.8323 23.209 42.87 23.3597 42.9001C23.7213 42.9754 24.0829 43.0282 24.4746 43.0809L24.678 43.1186C24.7985 43.1336 24.9115 43.1562 25.032 43.1638C25.6196 43.224 26.1921 43.2617 26.742 43.2617C27.2919 43.2617 27.8644 43.224 28.452 43.1638C28.565 43.1562 28.6855 43.1336 28.806 43.1186L29.0094 43.0809C29.3861 43.0282 29.7552 42.9754 30.1243 42.9001C30.2825 42.87 30.4331 42.8323 30.5838 42.7871L30.8098 42.7268C31.1262 42.6515 31.4501 42.5687 31.7589 42.4707Z" fill="#5A3C6C"/>
</g>
<defs>
<filter id="filter0_d_3153_2184" x="0" y="0" width="125.085" height="135.631" filterUnits="userSpaceOnUse" color-interpolation-filters="sRGB">
<feFlood flood-opacity="0" result="BackgroundImageFix"/>
<feColorMatrix in="SourceAlpha" type="matrix" values="0 0 0 0 0 0 0 0 0 0 0 0 0 0 0 0 0 0 127 0" result="hardAlpha"/>
<feOffset/>
<feGaussianBlur stdDeviation="4"/>
<feComposite in2="hardAlpha" operator="out"/>
<feColorMatrix type="matrix" values="0 0 0 0 0.737255 0 0 0 0 0.321569 0 0 0 0 0.678431 0 0 0 0.28 0"/>
<feBlend mode="normal" in2="BackgroundImageFix" result="effect1_dropShadow_3153_2184"/>
<feBlend mode="normal" in="SourceGraphic" in2="effect1_dropShadow_3153_2184" result="shape"/>
</filter>
</defs>
</svg>
