<svg width="195" height="176" viewBox="0 0 195 176" fill="none" xmlns="http://www.w3.org/2000/svg">
<g filter="url(#filter0_d_3153_2505)">
<path d="M162.683 51.513V68.6391H30.9385V51.513C30.9385 49.0356 32.9467 47.0273 35.4241 47.0273H117.977C118.746 47.0273 119.347 46.4268 119.347 45.6573C119.347 45.0754 119.009 44.5968 118.511 44.381L119.215 42.5229L146.223 52.6954C146.439 52.7892 146.711 52.808 147.086 52.6391C147.349 52.5359 147.565 52.3012 147.677 52.001L150.549 44.3904L152.501 45.1224C152.435 45.2819 152.398 45.4696 152.398 45.6573C152.398 46.4268 152.998 47.0273 153.768 47.0273H158.207C160.675 47.0273 162.683 49.0356 162.683 51.513ZM148.907 62.8584C151.685 62.8584 153.965 60.5781 153.965 57.8098C153.965 56.2426 153.224 54.7505 151.985 53.8778C151.656 53.6807 151.112 54.2344 150.615 54.9194C149.902 55.8766 148.663 56.2895 147.537 55.9329L139.757 53.4086C138.519 53.0238 137.261 52.7986 135.966 52.7986H84.3719C81.2657 52.7986 78.8446 55.5482 79.3983 58.7106C79.8394 61.1881 82.2042 62.8584 84.7004 62.8584H148.907ZM67.4898 57.8379C67.4898 56.1112 66.0634 54.713 64.3086 54.713C63.4734 54.713 62.6945 55.032 62.1033 55.6232C61.5121 56.2144 61.1836 56.9933 61.1836 57.8379C61.1836 59.5927 62.5819 61.0191 64.3086 61.0191C66.0352 61.0191 67.4898 59.5927 67.4898 57.8379ZM55.7221 57.8379C55.7221 56.1112 54.2957 54.713 52.5408 54.713C51.715 54.713 50.9267 55.032 50.3355 55.6232C49.7443 56.2144 49.4159 56.9933 49.4159 57.8379C49.4159 59.5927 50.8235 61.0191 52.5408 61.0191C54.2581 61.0191 55.7221 59.5927 55.7221 57.8379ZM43.9637 57.8379C43.9637 56.1112 42.5373 54.713 40.7825 54.713C39.9379 54.713 39.1402 55.032 38.549 55.6232C37.9578 56.2144 37.6294 56.9933 37.6294 57.8379C37.6294 59.5927 39.0464 61.0191 40.7825 61.0191C42.5185 61.0191 43.9637 59.5927 43.9637 57.8379Z" fill="#200E1E"/>
<path d="M186.34 94.1169C186.725 94.999 186.753 95.9562 186.453 96.8383H186.425L180.241 113.439C179.556 115.278 177.491 116.217 175.68 115.56L167.929 112.669L161.594 117.652L161.463 117.756C161.219 117.943 160.919 118.056 160.618 118.056C160.449 118.056 160.281 118.028 160.121 117.971C159.68 117.812 159.352 117.399 159.267 116.93L157.728 108.85L149.949 105.96C148.137 105.303 147.199 103.238 147.884 101.399L154.078 84.7984C154.791 82.931 156.799 82.0207 158.638 82.6776L162.561 84.1415L184.332 92.2776C185.214 92.606 185.927 93.2629 186.34 94.1169ZM175.652 99.5034C175.868 98.9216 175.952 98.3491 175.952 97.7673C175.952 95.7403 174.713 93.8166 172.733 93.0659C171.635 92.6623 170.481 92.6623 169.44 93.0189C168.858 92.0524 167.985 91.311 166.878 90.8981C164.325 89.9409 161.463 91.2547 160.506 93.8354C158.882 98.1239 163.34 104.974 163.828 105.716C164.109 106.129 164.541 106.344 164.982 106.344C165.095 106.344 165.235 106.316 165.339 106.288C166.249 106.044 174.057 103.764 175.652 99.5034Z" fill="#8C3680"/>
<path d="M175.952 97.7674C175.952 98.3492 175.868 98.9216 175.652 99.5034C174.056 103.764 166.249 106.044 165.339 106.288C165.235 106.316 165.095 106.344 164.982 106.344C164.541 106.344 164.109 106.129 163.828 105.716C163.34 104.974 158.882 98.124 160.506 93.8354C161.463 91.2548 164.325 89.941 166.878 90.8982C167.985 91.3111 168.858 92.0524 169.439 93.019C170.481 92.6624 171.635 92.6624 172.733 93.0659C174.713 93.8166 175.952 95.7404 175.952 97.7674Z" fill="#200E1E"/>
<path d="M165.432 120.946V160.332C165.432 164.292 162.185 167.529 158.207 167.529H35.4242C31.4359 167.529 28.189 164.292 28.189 160.332V113.936C28.189 113.458 28.4236 113.035 28.7896 112.791C29.0148 112.641 29.2775 112.557 29.5684 112.557C30.3379 112.557 30.9385 113.167 30.9385 113.936V160.332C30.9385 162.781 32.9467 164.78 35.4242 164.78H158.207C160.675 164.78 162.683 162.781 162.683 160.332V120.946C162.683 120.458 162.917 120.045 163.283 119.801C163.499 119.651 163.762 119.567 164.053 119.567C164.822 119.567 165.432 120.196 165.432 120.946Z" fill="#5A3C6C"/>
<path d="M165.432 51.5129V80.3129C165.432 81.0918 164.822 81.6924 164.053 81.6924C163.856 81.6924 163.678 81.6548 163.518 81.5891C163.021 81.3733 162.683 80.8853 162.683 80.3129V71.3885H30.9385V74.5416C30.9385 75.1234 30.6007 75.602 30.1033 75.8179C29.9438 75.8836 29.7561 75.9211 29.5684 75.9211C28.8271 75.9211 28.189 75.283 28.189 74.5416V51.5129C28.189 47.5246 31.4359 44.2871 35.4242 44.2871H117.977C118.174 44.2777 118.352 44.3152 118.512 44.3809C119.009 44.5968 119.347 45.0753 119.347 45.6572C119.347 46.4267 118.746 47.0272 117.977 47.0272H35.4242C32.9467 47.0272 30.9385 49.0355 30.9385 51.5129V68.639H162.683V51.5129C162.683 49.0355 160.675 47.0272 158.207 47.0272H153.768C152.998 47.0272 152.398 46.4267 152.398 45.6572C152.398 45.4695 152.435 45.2818 152.501 45.1223C152.707 44.6249 153.195 44.2871 153.768 44.2871H158.207C162.185 44.2871 165.432 47.5246 165.432 51.5129Z" fill="#5A3C6C"/>
<path d="M163.518 81.589L162.561 84.1415L158.638 82.6776C156.799 82.0207 154.791 82.9309 154.078 84.7984L147.884 101.399C147.199 103.238 148.137 105.303 149.949 105.96L157.728 108.85L159.267 116.93C159.352 117.399 159.68 117.812 160.121 117.971C160.281 118.028 160.45 118.056 160.618 118.056C160.919 118.056 161.219 117.943 161.463 117.756L161.594 117.652L163.284 119.801C162.918 120.045 162.683 120.458 162.683 120.946V160.332C162.683 162.781 160.675 164.78 158.207 164.78H35.4243C32.9469 164.78 30.9387 162.781 30.9387 160.332V113.936C30.9387 113.167 30.3381 112.557 29.5686 112.557C29.2777 112.557 29.0149 112.641 28.7897 112.791L27.4478 110.398L35.2178 106.054L36.5598 108.456C36.0624 108.662 35.7246 109.15 35.7246 109.723V127.205C35.7246 130.227 38.202 132.705 41.2237 132.705H112.656C115.706 132.705 118.155 130.227 118.155 127.205V83.4752C118.155 80.4535 115.678 77.9761 112.656 77.9761H45.9252C45.1557 77.9761 44.5457 78.5861 44.5457 79.3556C44.5457 79.5526 44.5832 79.7309 44.6489 79.8905L42.2747 81.223L40.2008 77.5444C39.741 76.6905 38.9434 76.0524 38.0049 75.7802C37.0478 75.5362 36.053 75.6395 35.1991 76.1087L31.4454 78.2107L30.1035 75.8177C30.6008 75.6019 30.9387 75.1233 30.9387 74.5415V71.3884H162.683V80.3128C162.683 80.8852 163.021 81.3732 163.518 81.589ZM156.94 141.31V122.401C156.94 120.665 155.532 119.238 153.777 119.238H124.996C123.241 119.238 121.834 120.665 121.834 122.401V141.31C121.834 143.037 123.241 144.444 124.996 144.444H153.777C155.532 144.444 156.94 143.037 156.94 141.31ZM142.732 103.182L153.693 77.9855H153.637H124.996C123.241 77.9855 121.843 79.4213 121.843 81.148V100.038C121.843 101.765 123.241 103.191 124.996 103.191H142.732V103.182ZM151.675 148.451C151.675 147.813 151.169 147.316 150.53 147.316H124.396C123.757 147.316 123.251 147.813 123.251 148.451C123.251 149.089 123.757 149.596 124.396 149.596H150.53C151.169 149.596 151.675 149.099 151.675 148.451ZM146.176 107.198C146.176 106.56 145.679 106.063 145.041 106.063H124.367C123.729 106.063 123.223 106.56 123.223 107.198C123.223 107.837 123.729 108.343 124.367 108.343H145.041C145.679 108.343 146.176 107.837 146.176 107.198ZM140.461 112.397C140.461 111.759 139.964 111.252 139.316 111.252H124.396C123.757 111.252 123.26 111.759 123.26 112.397C123.26 113.035 123.757 113.533 124.396 113.533H139.316C139.964 113.533 140.461 113.035 140.461 112.397ZM139.316 154.785C139.954 154.785 140.461 154.288 140.461 153.65C140.461 153.012 139.945 152.505 139.316 152.505H124.396C123.767 152.505 123.251 153.021 123.251 153.65C123.251 154.279 123.757 154.785 124.396 154.785H139.316ZM113.416 138.588C113.416 137.95 112.909 137.444 112.271 137.444H81.8008V135.698C81.8008 135.06 81.3035 134.563 80.6653 134.563C80.0272 134.563 79.5205 135.06 79.5205 135.698V137.444H41.5522C40.914 137.453 40.4073 137.95 40.4073 138.588C40.4073 139.227 40.914 139.733 41.5522 139.733H79.5205V141.451C79.5205 142.089 80.0272 142.586 80.6653 142.586C81.3035 142.586 81.8008 142.089 81.8008 141.451V139.733H112.271C112.909 139.724 113.416 139.227 113.416 138.588ZM88.4824 147.269C88.4824 146.631 87.985 146.133 87.3469 146.133H38.446C37.8079 146.133 37.3105 146.631 37.3105 147.269C37.3105 147.907 37.8079 148.414 38.446 148.414H87.3469C87.9756 148.414 88.4824 147.898 88.4824 147.269ZM75.5416 153.265C75.5416 152.627 75.0348 152.12 74.3967 152.12H38.446C37.8079 152.12 37.3105 152.627 37.3105 153.265C37.3105 153.903 37.8079 154.401 38.446 154.401H74.3967C75.0348 154.401 75.5416 153.903 75.5416 153.265Z" fill="#200E1E"/>
<path d="M156.602 25.0964C157.165 25.3217 157.474 25.9879 157.268 26.551L150.549 44.3903L147.677 52.0008C147.565 52.3011 147.349 52.5357 147.086 52.639C146.711 52.8079 146.439 52.7891 146.223 52.6953L119.215 42.5228L107.11 37.9621C106.809 37.8495 106.584 37.6337 106.462 37.3428C106.34 37.0706 106.34 36.7797 106.443 36.5076L116.043 11.039C116.128 10.7668 116.334 10.5322 116.635 10.4102C116.888 10.2882 117.207 10.2695 117.498 10.3633L156.602 25.0964ZM145.941 50.1334L154.209 28.1744L130.392 37.5774C130.251 37.6243 130.11 37.6431 129.951 37.6431C129.528 37.6431 129.144 37.4085 128.947 37.0331L117.273 14.239L108.977 36.2261L145.941 50.1334ZM130.495 35.0718L153.026 26.1944L119.487 13.5633L130.401 34.8841L130.495 35.0718Z" fill="#335F66"/>
<path d="M156.94 122.401V141.31C156.94 143.037 155.532 144.444 153.777 144.444H124.996C123.241 144.444 121.833 143.037 121.833 141.31V122.401C121.833 120.665 123.241 119.239 124.996 119.239H153.777C155.532 119.239 156.94 120.665 156.94 122.401Z" fill="#5A3C6C"/>
<path d="M154.209 28.1745L145.942 50.1334L108.977 36.2261L117.273 14.239L128.947 37.0331C129.144 37.4085 129.529 37.6431 129.951 37.6431C130.11 37.6431 130.251 37.6244 130.392 37.5774L154.209 28.1745Z" fill="#200E1E"/>
<path d="M153.693 77.9857L142.732 103.182H124.996C123.241 103.182 121.843 101.756 121.843 100.029V81.1388C121.843 79.4121 123.241 77.9763 124.996 77.9763H153.636H153.693V77.9857Z" fill="#5A3C6C"/>
<path d="M153.027 26.1943L130.495 35.0717L130.401 34.8841L119.488 13.5632L153.027 26.1943Z" fill="#200E1E"/>
<path d="M153.965 57.8097C153.965 60.5781 151.685 62.8584 148.907 62.8584H84.7004C82.2042 62.8584 79.8394 61.188 79.3983 58.7106C78.8447 55.5481 81.2658 52.7986 84.3719 52.7986H135.966C137.261 52.7986 138.519 53.0238 139.757 53.4086L147.537 55.9329C148.663 56.2895 149.902 55.8766 150.615 54.9194C151.112 54.2344 151.656 53.6807 151.985 53.8778C153.224 54.7505 153.965 56.2426 153.965 57.8097Z" fill="#5A3C6C"/>
<path d="M150.53 147.316C151.168 147.316 151.675 147.813 151.675 148.451C151.675 149.089 151.168 149.596 150.53 149.596H124.395C123.757 149.596 123.25 149.099 123.25 148.451C123.25 147.804 123.757 147.316 124.395 147.316H150.53Z" fill="#5A3C6C"/>
<path d="M145.041 106.063C145.679 106.063 146.176 106.56 146.176 107.198C146.176 107.837 145.679 108.343 145.041 108.343H124.367C123.729 108.343 123.222 107.837 123.222 107.198C123.222 106.56 123.729 106.063 124.367 106.063H145.041Z" fill="#5A3C6C"/>
<path d="M139.316 111.252C139.964 111.252 140.461 111.759 140.461 112.397C140.461 113.035 139.964 113.533 139.316 113.533H124.395C123.757 113.533 123.26 113.035 123.26 112.397C123.26 111.759 123.757 111.252 124.395 111.252H139.316Z" fill="#5A3C6C"/>
<path d="M140.461 153.65C140.461 154.288 139.954 154.785 139.316 154.785H124.395C123.757 154.785 123.25 154.288 123.25 153.65C123.25 153.012 123.767 152.505 124.395 152.505H139.316C139.945 152.505 140.461 153.021 140.461 153.65Z" fill="#5A3C6C"/>
<path d="M118.155 83.4754V127.206C118.155 130.227 115.706 132.705 112.656 132.705H41.2237C38.202 132.705 35.7246 130.227 35.7246 127.206V109.723C35.7246 109.151 36.0624 108.663 36.5598 108.456C36.7193 108.39 36.907 108.353 37.0947 108.353C37.8642 108.353 38.4742 108.953 38.4742 109.723V127.206C38.4742 128.716 39.7129 129.955 41.2237 129.955H112.656C114.167 129.955 115.406 128.716 115.406 127.206V83.4754C115.406 81.9646 114.167 80.7259 112.656 80.7259H45.9252C45.3528 80.7259 44.8648 80.388 44.6489 79.8907C44.5833 79.7312 44.5457 79.5529 44.5457 79.3558C44.5457 78.5863 45.1557 77.9763 45.9252 77.9763H112.656C115.678 77.9763 118.155 80.4537 118.155 83.4754Z" fill="#5A3C6C"/>
<path d="M115.405 83.4754V127.206C115.405 128.716 114.167 129.955 112.656 129.955H41.2236C39.7128 129.955 38.4741 128.716 38.4741 127.206V109.723C38.4741 108.953 37.8641 108.353 37.0946 108.353C36.9069 108.353 36.7192 108.39 36.5597 108.456L35.2178 106.054L47.9521 98.9217C49.7445 97.9364 50.3732 95.6842 49.3879 93.8918L42.2747 81.2232L44.6489 79.8906C44.8647 80.388 45.3527 80.7258 45.9251 80.7258H112.656C114.167 80.7258 115.405 81.9645 115.405 83.4754ZM92.7802 105.359C92.7802 96.6132 85.6952 89.5282 76.9773 89.5282C68.2594 89.5282 61.1181 96.6132 61.1181 105.359C61.1181 114.105 68.2406 121.162 76.9773 121.162C85.714 121.162 92.7802 114.068 92.7802 105.359Z" fill="#200E1E"/>
<path d="M112.271 137.444C112.909 137.444 113.416 137.95 113.416 138.589C113.416 139.227 112.909 139.724 112.271 139.733H81.8008V141.451C81.8008 142.089 81.3034 142.586 80.6653 142.586C80.0272 142.586 79.5204 142.089 79.5204 141.451V139.733H41.5521C40.914 139.733 40.4072 139.227 40.4072 138.589C40.4072 137.95 40.914 137.453 41.5521 137.453H79.2858L79.5204 137.444V135.698C79.5204 135.06 80.0272 134.563 80.6653 134.563C81.3034 134.563 81.8008 135.06 81.8008 135.698V137.444H112.271Z" fill="#5A3C6C"/>
<path d="M89.3269 10.063C90.0119 10.3351 90.3403 11.1328 90.0682 11.846C89.7585 12.5592 88.9609 12.897 88.2758 12.5873C82.0917 10.0912 75.2506 10.1475 69.0664 12.7563C62.8541 15.3932 58.04 20.2824 55.4876 26.5228C55.2905 27.0765 54.7744 27.3768 54.2207 27.3768C54.0612 27.3768 53.8641 27.3486 53.7046 27.2923C53.0195 26.992 52.6629 26.1944 52.9632 25.4812C55.7972 18.5838 61.1274 13.1692 68.006 10.2319C74.8752 7.31344 82.4295 7.25714 89.3362 10.063H89.3269Z" fill="#8C3680"/>
<path d="M76.9774 89.5281C85.6953 89.5281 92.7803 96.6131 92.7803 105.359C92.7803 114.105 85.6953 121.162 76.9774 121.162C68.2595 121.162 61.1182 114.068 61.1182 105.359C61.1182 96.6507 68.2407 89.5281 76.9774 89.5281ZM85.395 105.331C85.395 104.261 84.8695 103.266 83.9592 102.666L75.7199 97.1105C74.7252 96.4254 73.4302 96.3691 72.3885 96.951C71.3188 97.4952 70.69 98.5932 70.69 99.7756V110.915C70.69 112.116 71.3188 113.195 72.3885 113.767C72.8578 114.011 73.3833 114.152 73.8994 114.152C74.5375 114.152 75.1663 113.964 75.7199 113.608L83.9592 108.024C84.8695 107.424 85.395 106.429 85.395 105.331Z" fill="#8C3680"/>
<path d="M87.3469 146.134C87.985 146.134 88.4824 146.631 88.4824 147.269C88.4824 147.907 87.9757 148.414 87.3469 148.414H38.446C37.8079 148.414 37.3105 147.917 37.3105 147.269C37.3105 146.622 37.8079 146.134 38.446 146.134H87.3469Z" fill="#5A3C6C"/>
<path d="M86.4927 16.9604C87.2059 17.2325 87.5344 18.0583 87.2341 18.7434C86.9526 19.4659 86.1643 19.7944 85.4417 19.5222C76.4329 15.8343 66.1009 20.2354 62.3848 29.3005C62.169 29.8542 61.6435 30.1545 61.118 30.1545C60.9584 30.1545 60.7614 30.1263 60.6018 30.07C59.8886 29.7698 59.5508 28.9721 59.8605 28.2871C64.1209 17.7862 76.0763 12.7 86.4927 16.9604Z" fill="#8C3680"/>
<path d="M83.8841 23.3417C84.5973 23.642 84.9257 24.4396 84.6442 25.1528C84.3439 25.8379 83.5462 26.1663 82.8612 25.8942C80.2242 24.8244 77.3058 24.8525 74.6407 25.9786C71.9193 27.1047 69.8641 29.2162 68.7662 31.8813C68.5409 32.4068 68.0154 32.7352 67.4993 32.7352C67.3022 32.7352 67.1427 32.7071 66.9738 32.632C66.2606 32.3505 65.9322 31.5528 66.2043 30.8396C67.5838 27.4895 70.1926 24.8807 73.5427 23.4449C76.9022 22.0185 80.5808 21.9904 83.8841 23.3417Z" fill="#8C3680"/>
<path d="M83.9591 102.666C84.8694 103.267 85.3949 104.261 85.3949 105.331C85.3949 106.401 84.8694 107.424 83.9591 108.024L75.7199 113.608C75.1662 113.964 74.5374 114.152 73.8993 114.152C73.3832 114.152 72.8577 114.011 72.3885 113.767C71.3187 113.195 70.6899 112.116 70.6899 110.915V99.7756C70.6899 98.5932 71.3187 97.4953 72.3885 96.951C73.4301 96.3692 74.7251 96.4255 75.7199 97.1105L83.9591 102.666Z" fill="#200E1E"/>
<path d="M84.034 32.9697C85.2539 35.86 83.8745 39.2196 80.956 40.4489C80.2428 40.7492 79.5108 40.8993 78.7413 40.8993C76.4703 40.8993 74.3683 39.5011 73.505 37.399C72.9044 36.0008 72.895 34.443 73.4768 33.0354C74.0586 31.6278 75.1472 30.5298 76.5454 29.948C77.2774 29.6383 78.0281 29.4976 78.7789 29.4976C81.0029 29.4976 83.1143 30.802 84.034 32.9697Z" fill="#8C3680"/>
<path d="M74.3968 152.12C75.0349 152.12 75.5416 152.627 75.5416 153.265C75.5416 153.903 75.0349 154.401 74.3968 154.401H38.446C37.8079 154.401 37.3105 153.903 37.3105 153.265C37.3105 152.627 37.8079 152.12 38.446 152.12H74.3968Z" fill="#5A3C6C"/>
<path d="M64.3085 54.7129C66.0634 54.7129 67.4898 56.1111 67.4898 57.8378C67.4898 59.5645 66.0634 61.0191 64.3085 61.0191C62.5537 61.0191 61.1836 59.5927 61.1836 57.8378C61.1836 56.9932 61.512 56.2144 62.1032 55.6232C62.6944 55.032 63.4733 54.7129 64.3085 54.7129Z" fill="#5A3C6C"/>
<path d="M52.5409 54.7129C54.2958 54.7129 55.7222 56.1111 55.7222 57.8378C55.7222 59.5645 54.2958 61.0191 52.5409 61.0191C50.7861 61.0191 49.416 59.5927 49.416 57.8378C49.416 56.9932 49.7445 56.2144 50.3357 55.6232C50.9269 55.032 51.7151 54.7129 52.5409 54.7129Z" fill="#5A3C6C"/>
<path d="M49.3877 93.8918C50.3731 95.6842 49.7443 97.9364 47.952 98.9217L35.2177 106.054L27.4476 110.399L22.6429 113.082C22.0892 113.411 21.4605 113.552 20.8505 113.552C20.5221 113.552 20.1655 113.523 19.837 113.411C18.8986 113.167 18.1103 112.529 17.6411 111.675L8.45403 95.2994C7.9942 94.4455 7.88159 93.4508 8.12558 92.4936C8.40711 91.5552 9.03585 90.7575 9.88981 90.2977L31.4452 78.2109L35.1989 76.1088C36.0529 75.6396 37.0476 75.5364 38.0048 75.7804C38.9432 76.0525 39.7408 76.6906 40.2007 77.5446L42.2746 81.2232L49.3877 93.8918ZM34.5702 94.117C34.9831 93.2631 34.9831 92.2683 34.5139 91.4801C34.0446 90.6543 33.2188 90.1288 32.2898 90.0443L24.6229 89.4156C23.5719 89.303 22.5866 89.8285 22.0329 90.7106C21.4605 91.5551 21.4323 92.6812 21.9578 93.5915L26.1338 101.099C26.6499 101.972 27.5883 102.525 28.6018 102.525H28.6581C29.7092 102.497 30.6382 101.925 31.1074 100.986L34.5702 94.117Z" fill="#8C3680"/>
<path d="M40.7825 54.7129C42.5373 54.7129 43.9637 56.1111 43.9637 57.8378C43.9637 59.5645 42.5373 61.0191 40.7825 61.0191C39.0276 61.0191 37.6294 59.5927 37.6294 57.8378C37.6294 56.9932 37.9578 56.2144 38.549 55.6232C39.1402 55.032 39.9379 54.7129 40.7825 54.7129Z" fill="#5A3C6C"/>
<path d="M34.5139 91.48C34.9831 92.2683 34.9831 93.263 34.5702 94.117L31.1074 100.986C30.6382 101.925 29.7092 102.497 28.6582 102.525H28.6019C27.5884 102.525 26.6499 101.972 26.1338 101.099L21.9579 93.5914C21.4324 92.6812 21.4605 91.5551 22.0329 90.7105C22.5866 89.8284 23.5719 89.3029 24.623 89.4155L32.2898 90.0442C33.2189 90.1287 34.0447 90.6542 34.5139 91.48Z" fill="#200E1E"/>
</g>
<defs>
<filter id="filter0_d_3153_2505" x="0" y="0" width="194.656" height="175.529" filterUnits="userSpaceOnUse" color-interpolation-filters="sRGB">
<feFlood flood-opacity="0" result="BackgroundImageFix"/>
<feColorMatrix in="SourceAlpha" type="matrix" values="0 0 0 0 0 0 0 0 0 0 0 0 0 0 0 0 0 0 127 0" result="hardAlpha"/>
<feOffset/>
<feGaussianBlur stdDeviation="4"/>
<feComposite in2="hardAlpha" operator="out"/>
<feColorMatrix type="matrix" values="0 0 0 0 0.737255 0 0 0 0 0.321569 0 0 0 0 0.678431 0 0 0 0.28 0"/>
<feBlend mode="normal" in2="BackgroundImageFix" result="effect1_dropShadow_3153_2505"/>
<feBlend mode="normal" in="SourceGraphic" in2="effect1_dropShadow_3153_2505" result="shape"/>
</filter>
</defs>
</svg>
