<svg width="142" height="140" viewBox="0 0 142 140" fill="none" xmlns="http://www.w3.org/2000/svg">
<g filter="url(#filter0_d_3153_2360)">
<path d="M20.5675 90.6538V93.3245C20.5675 94.5003 19.6098 95.458 18.4262 95.458C17.2427 95.458 16.2927 94.5003 16.2927 93.3245V90.6538C16.2927 89.478 17.2505 88.5203 18.4262 88.5203C19.602 88.5203 20.5675 89.478 20.5675 90.6538Z" fill="#200E1E"/>
<path d="M125.529 90.6538V93.3245C125.529 94.5003 124.572 95.458 123.396 95.458C122.22 95.458 121.262 94.5003 121.262 93.3245V90.6538C121.262 89.478 122.22 88.5203 123.396 88.5203C124.572 88.5203 125.529 89.478 125.529 90.6538Z" fill="#200E1E"/>
<path d="M112.853 60.1228V129.29H28.8523V60.1228H65.8537L69.8326 67.0528C70.0117 67.3642 70.3232 67.5667 70.6892 67.6134L70.7904 67.629C70.9461 67.6368 71.0473 67.629 71.1408 67.5978L71.3588 67.5122C71.4522 67.4655 71.4678 67.4499 71.4912 67.4343L71.8182 67.0917L75.8516 60.1228H112.853ZM106.18 90.1086C106.803 89.9529 107.177 89.3144 107.021 88.6993C104.965 80.5701 97.6772 74.8938 89.2989 74.8938H84.8684C84.2299 74.8938 83.7082 75.4155 83.7082 76.054C83.7082 76.6925 84.2299 77.222 84.8684 77.222H89.2989C96.6104 77.222 102.98 82.1742 104.771 89.2677C104.926 89.875 105.549 90.2643 106.18 90.1086ZM99.3357 96.2366V93.1765C99.3357 90.5057 98.2923 87.9829 96.3924 86.083C94.4925 84.1831 91.9775 83.1397 89.2989 83.1397H52.4142C46.878 83.1397 42.3774 87.6403 42.3774 93.1765V96.2366C42.3774 101.773 46.878 106.273 52.4142 106.273H89.2989C94.8351 106.273 99.3357 101.773 99.3357 96.2366ZM77.152 76.0618C77.152 75.4155 76.6303 74.8938 75.9918 74.8938H74.7537C74.1152 74.8938 73.5935 75.4155 73.5935 76.0618C73.5935 76.708 74.1152 77.222 74.7537 77.222H75.9918C76.6303 77.222 77.152 76.7003 77.152 76.0618ZM65.48 113.351C65.48 112.713 64.9583 112.191 64.3198 112.191H62.6691C62.0228 112.191 61.5089 112.713 61.5089 113.351C61.5089 113.99 62.0228 114.511 62.6691 114.511H64.3198C64.9583 114.511 65.48 113.99 65.48 113.351ZM56.0038 113.351C56.0038 112.713 55.4821 112.191 54.8358 112.191H52.4142C43.6155 112.191 36.4597 105.035 36.4597 96.2366C36.4597 95.5903 35.938 95.0686 35.2995 95.0686C34.661 95.0686 34.1315 95.5903 34.1315 96.2366C34.1315 106.312 42.3385 114.511 52.4142 114.511H54.8358C55.4821 114.511 56.0038 113.99 56.0038 113.351Z" fill="#200E1E"/>
<path d="M35.1438 20.1082C42.2296 20.1082 47.9916 25.8702 47.9916 32.9559C47.9916 40.0416 42.2296 45.8036 35.1438 45.8036C28.0581 45.8036 22.2883 40.0416 22.2883 32.9559C22.2883 25.8702 28.0581 20.1082 35.1438 20.1082ZM41.521 36.2496C41.6611 35.9693 41.6923 35.6578 41.5988 35.3619C41.5054 35.066 41.2952 34.8246 41.0226 34.6845C40.8591 34.5988 40.68 34.5521 40.501 34.5521C40.3764 34.5521 40.2596 34.5677 40.1428 34.6066C39.8469 34.7001 39.6055 34.9025 39.4576 35.1828C38.6166 36.8024 36.9659 37.8147 35.1361 37.8147C33.3062 37.8147 31.6633 36.8024 30.8223 35.1828C30.6199 34.7857 30.2072 34.5599 29.7867 34.5599C29.6076 34.5599 29.4285 34.5988 29.2572 34.6923C28.9847 34.8324 28.7823 35.0738 28.681 35.3697C28.5876 35.6656 28.6188 35.977 28.7589 36.2574C30.0048 38.6478 32.4419 40.135 35.1361 40.135C37.8302 40.135 40.2829 38.6478 41.521 36.2496ZM39.2395 31.1572C39.2395 30.4642 38.6711 29.8958 37.9781 29.8958C37.2851 29.8958 36.7089 30.4642 36.7089 31.1572C36.7089 31.8502 37.2773 32.4264 37.9781 32.4264C38.6789 32.4264 39.2395 31.858 39.2395 31.1572ZM33.571 31.1572C33.571 30.4642 33.0026 29.8958 32.3096 29.8958C31.6166 29.8958 31.0404 30.4642 31.0404 31.1572C31.0404 31.8502 31.6088 32.4264 32.3096 32.4264C33.0103 32.4264 33.571 31.858 33.571 31.1572Z" fill="#200E1E"/>
<path d="M70.8529 20.1082C77.9386 20.1082 83.7084 25.8702 83.7084 32.9559C83.7084 40.0416 77.9386 45.8036 70.8529 45.8036C63.7671 45.8036 58.0051 40.0416 58.0051 32.9559C58.0051 25.8702 63.7749 20.1082 70.8529 20.1082ZM76.0542 37.3397C76.0542 36.7012 75.5325 36.1795 74.8863 36.1795H66.8272C66.181 36.1795 65.6593 36.7012 65.6593 37.3397C65.6593 37.9782 66.181 38.5077 66.8272 38.5077H74.8863C75.5325 38.5077 76.0542 37.986 76.0542 37.3397ZM74.9563 31.1572C74.9563 30.4642 74.3879 29.8958 73.6871 29.8958C72.9864 29.8958 72.4257 30.4642 72.4257 31.1572C72.4257 31.8502 72.9941 32.4264 73.6871 32.4264C74.3801 32.4264 74.9563 31.858 74.9563 31.1572ZM69.2878 31.1572C69.2878 30.4642 68.7193 29.8958 68.0263 29.8958C67.3333 29.8958 66.7572 30.4642 66.7572 31.1572C66.7572 31.8502 67.3256 32.4264 68.0263 32.4264C68.7271 32.4264 69.2878 31.858 69.2878 31.1572Z" fill="#200E1E"/>
<path d="M106.569 20.1082C113.655 20.1082 119.417 25.8702 119.417 32.9559C119.417 40.0416 113.655 45.8036 106.569 45.8036C99.4837 45.8036 93.7217 40.0416 93.7217 32.9559C93.7217 25.8702 99.4837 20.1082 106.569 20.1082ZM113.024 39.3252C113.126 39.0293 113.094 38.7179 112.954 38.4454C111.716 36.0393 109.264 34.5521 106.569 34.5521C103.875 34.5521 101.43 36.0393 100.192 38.4298C100.044 38.7101 100.021 39.0216 100.114 39.3174C100.208 39.6133 100.41 39.8547 100.691 40.0027C101.251 40.2985 101.96 40.0727 102.256 39.5043C103.097 37.8847 104.747 36.8803 106.569 36.8803C108.391 36.8803 110.05 37.8847 110.891 39.5043C111.171 40.065 111.903 40.2908 112.456 40.0104C112.729 39.8625 112.931 39.6211 113.024 39.3252ZM110.673 31.1572C110.673 30.4642 110.104 29.8958 109.404 29.8958C108.703 29.8958 108.142 30.4642 108.142 31.1572C108.142 31.8502 108.711 32.4264 109.404 32.4264C110.097 32.4264 110.673 31.858 110.673 31.1572ZM105.004 31.1572C105.004 30.4642 104.436 29.8958 103.735 29.8958C103.034 29.8958 102.474 30.4642 102.474 31.1572C102.474 31.8502 103.042 32.4264 103.735 32.4264C104.428 32.4264 105.004 31.858 105.004 31.1572Z" fill="#200E1E"/>
<path d="M128.582 20.6688V47.4544C128.574 48.6691 128.372 49.8449 127.974 50.9505C127.57 52.0562 126.978 53.0996 126.207 54.034C124.229 56.4244 121.325 57.8027 118.233 57.8027H75.1741C75.0729 57.8027 74.9717 57.8104 74.8783 57.8416C74.8783 57.8494 74.8393 57.8572 74.8004 57.8727C74.7459 57.8883 74.6836 57.9117 74.6213 57.9428L74.5824 57.974C74.4889 58.0207 74.4266 58.0752 74.3644 58.1297L74.3488 58.153C74.2709 58.2309 74.2164 58.301 74.1697 58.3789L71.7403 62.5914C71.7092 62.6459 71.6702 62.7004 71.6546 62.7315L70.8449 64.1409L67.8393 58.9706L67.4266 58.2543C67.2008 57.9662 66.8737 57.8027 66.5233 57.8027H23.4718C23.0903 57.8027 22.7087 57.7793 22.335 57.7404C19.6876 57.4445 17.2815 56.1519 15.5529 54.1041C14.1825 52.4923 13.3493 50.4911 13.1625 48.3654C13.1391 48.0617 13.1235 47.7581 13.1235 47.4544V20.6688C13.1235 14.9691 17.7643 10.3284 23.4718 10.3284H118.233C123.941 10.3284 128.582 14.9691 128.582 20.6688ZM121.745 32.9559C121.745 24.5854 114.94 17.78 106.569 17.78C98.1988 17.78 91.4012 24.5854 91.4012 32.9559C91.4012 41.3264 98.2066 48.124 106.569 48.124C114.932 48.124 121.745 41.3186 121.745 32.9559ZM86.0285 32.9559C86.0285 24.5854 79.2231 17.78 70.8526 17.78C62.4822 17.78 55.6845 24.5854 55.6845 32.9559C55.6845 41.3264 62.4899 48.124 70.8526 48.124C79.2153 48.124 86.0285 41.3186 86.0285 32.9559ZM50.3119 32.9559C50.3119 24.5854 43.5065 17.78 35.1438 17.78C26.7811 17.78 19.9679 24.5854 19.9679 32.9559C19.9679 41.3264 26.7733 48.124 35.1438 48.124C43.5142 48.124 50.3119 41.3186 50.3119 32.9559Z" fill="#200E1E"/>
<path d="M109.404 29.8958C110.105 29.8958 110.673 30.4642 110.673 31.1572C110.673 31.8502 110.105 32.4264 109.404 32.4264C108.703 32.4264 108.142 31.8579 108.142 31.1572C108.142 30.4564 108.711 29.8958 109.404 29.8958Z" fill="#9E3D90"/>
<path d="M103.735 29.8958C104.436 29.8958 105.004 30.4642 105.004 31.1572C105.004 31.8502 104.436 32.4264 103.735 32.4264C103.034 32.4264 102.474 31.8579 102.474 31.1572C102.474 30.4564 103.042 29.8958 103.735 29.8958Z" fill="#9E3D90"/>
<path d="M113.024 39.3251C112.931 39.621 112.729 39.8624 112.456 40.0103C111.903 40.2907 111.171 40.0648 110.891 39.5042C110.05 37.8846 108.391 36.8802 106.569 36.8802C104.747 36.8802 103.097 37.8846 102.256 39.5042C101.96 40.0726 101.251 40.2984 100.691 40.0026C100.41 39.8546 100.208 39.6132 100.114 39.3173C100.021 39.0215 100.044 38.71 100.192 38.4297C101.43 36.0392 103.875 34.552 106.569 34.552C109.264 34.552 111.716 36.0392 112.954 38.4453C113.094 38.7178 113.126 39.0292 113.024 39.3251Z" fill="#9E3D90"/>
<path d="M99.3357 93.1767V96.2368C99.3357 101.773 94.8351 106.274 89.2989 106.274H52.4142C46.878 106.274 42.3774 101.773 42.3774 96.2368V93.1767C42.3774 87.6405 46.878 83.1399 52.4142 83.1399H89.2989C91.9774 83.1399 94.4925 84.1833 96.3924 86.0832C98.2923 87.9831 99.3357 90.5059 99.3357 93.1767Z" fill="#5A3C6C"/>
<path d="M119.417 32.9559C119.417 25.8702 113.655 20.1082 106.569 20.1082C99.4835 20.1082 93.7215 25.8702 93.7215 32.9559C93.7215 40.0416 99.4835 45.8036 106.569 45.8036C113.655 45.8036 119.417 40.0416 119.417 32.9559ZM106.569 17.78C114.94 17.78 121.745 24.5854 121.745 32.9559C121.745 41.3264 114.94 48.124 106.569 48.124C98.1987 48.124 91.4011 41.3186 91.4011 32.9559C91.4011 24.5932 98.2065 17.78 106.569 17.78Z" fill="#9E3D90"/>
<path d="M107.021 88.6993C107.177 89.3144 106.803 89.9529 106.18 90.1086C105.549 90.2643 104.926 89.875 104.771 89.2677C102.98 82.1742 96.6105 77.222 89.299 77.222H84.8684C84.2299 77.222 83.7083 76.7003 83.7083 76.054C83.7083 75.4077 84.2299 74.8938 84.8684 74.8938H89.299C97.6772 74.8938 104.965 80.5702 107.021 88.6993Z" fill="#5A3C6C"/>
<path d="M75.9917 74.8938C76.6302 74.8938 77.1519 75.4155 77.1519 76.0618C77.1519 76.7081 76.6302 77.222 75.9917 77.222H74.7537C74.1152 77.222 73.5935 76.7003 73.5935 76.0618C73.5935 75.4233 74.1152 74.8938 74.7537 74.8938H75.9917Z" fill="#5A3C6C"/>
<path d="M74.8862 36.1794C75.5325 36.1794 76.0542 36.7011 76.0542 37.3396C76.0542 37.9781 75.5325 38.5076 74.8862 38.5076H66.8272C66.1809 38.5076 65.6592 37.9859 65.6592 37.3396C65.6592 36.6934 66.1809 36.1794 66.8272 36.1794H74.8862Z" fill="#5A3C6C"/>
<path d="M73.687 29.8958C74.3877 29.8958 74.9561 30.4642 74.9561 31.1572C74.9561 31.8502 74.3877 32.4264 73.687 32.4264C72.9862 32.4264 72.4255 31.8579 72.4255 31.1572C72.4255 30.4564 72.994 29.8958 73.687 29.8958Z" fill="#5A3C6C"/>
<path d="M68.0263 29.8958C68.7193 29.8958 69.2877 30.4642 69.2877 31.1572C69.2877 31.8502 68.7193 32.4264 68.0263 32.4264C67.3333 32.4264 66.7571 31.8579 66.7571 31.1572C66.7571 30.4564 67.3255 29.8958 68.0263 29.8958Z" fill="#5A3C6C"/>
<path d="M64.32 112.191C64.9585 112.191 65.4801 112.713 65.4801 113.351C65.4801 113.99 64.9585 114.512 64.32 114.512H62.6692C62.0229 114.512 61.509 113.99 61.509 113.351C61.509 112.713 62.0229 112.191 62.6692 112.191H64.32Z" fill="#5A3C6C"/>
<path d="M55.6846 32.9559C55.6846 24.5854 62.49 17.78 70.8527 17.78C79.2154 17.78 86.0286 24.5854 86.0286 32.9559C86.0286 41.3264 79.2232 48.124 70.8527 48.124C62.4822 48.124 55.6846 41.3186 55.6846 32.9559ZM58.0049 32.9559C58.0049 40.0416 63.7747 45.8036 70.8527 45.8036C77.9306 45.8036 83.7082 40.0416 83.7082 32.9559C83.7082 25.8702 77.9384 20.1082 70.8527 20.1082C63.767 20.1082 58.0049 25.8702 58.0049 32.9559Z" fill="#5A3C6C"/>
<path d="M52.4143 114.511C42.3386 114.511 34.1316 106.312 34.1316 96.2366C34.1316 95.5903 34.6533 95.0686 35.2996 95.0686C35.9458 95.0686 36.4598 95.5903 36.4598 96.2366C36.4598 105.035 43.6155 112.191 52.4143 112.191H54.8359C55.4822 112.191 56.0039 112.713 56.0039 113.351C56.0039 113.99 55.4822 114.511 54.8359 114.511H52.4143Z" fill="#5A3C6C"/>
<path d="M37.9782 29.8958C38.6712 29.8958 39.2396 30.4642 39.2396 31.1572C39.2396 31.8502 38.6712 32.4264 37.9782 32.4264C37.2852 32.4264 36.709 31.8579 36.709 31.1572C36.709 30.4564 37.2774 29.8958 37.9782 29.8958Z" fill="#5A3C6C"/>
<path d="M32.3095 29.8958C33.0025 29.8958 33.5709 30.4642 33.5709 31.1572C33.5709 31.8502 33.0025 32.4264 32.3095 32.4264C31.6165 32.4264 31.0403 31.8579 31.0403 31.1572C31.0403 30.4564 31.6087 29.8958 32.3095 29.8958Z" fill="#5A3C6C"/>
<path d="M30.8224 35.1827C31.6633 36.8023 33.3141 37.8145 35.1361 37.8145C36.9581 37.8145 38.6167 36.8023 39.4576 35.1827C39.6056 34.9024 39.8469 34.6999 40.1428 34.6065C40.2596 34.5676 40.3764 34.552 40.501 34.552C40.6801 34.552 40.8592 34.5987 41.0227 34.6844C41.2952 34.8245 41.5055 35.0659 41.5989 35.3618C41.6923 35.6577 41.6612 35.9691 41.521 36.2495C40.283 38.6477 37.838 40.1349 35.1361 40.1349C32.4342 40.1349 30.0048 38.6477 28.759 36.2572C28.6188 35.9769 28.5877 35.6655 28.6811 35.3696C28.7823 35.0737 28.9848 34.8323 29.2573 34.6922C29.4286 34.5987 29.6077 34.5598 29.7868 34.5598C30.2072 34.5598 30.6199 34.7856 30.8224 35.1827Z" fill="#5A3C6C"/>
<path d="M35.1439 20.1082C28.0582 20.1082 22.2884 25.8702 22.2884 32.9559C22.2884 40.0416 28.0582 45.8036 35.1439 45.8036C42.2296 45.8036 47.9916 40.0416 47.9916 32.9559C47.9916 25.8702 42.2296 20.1082 35.1439 20.1082ZM35.1439 48.124C26.7734 48.124 19.968 41.3186 19.968 32.9559C19.968 24.5932 26.7734 17.78 35.1439 17.78C43.5144 17.78 50.312 24.5854 50.312 32.9559C50.312 41.3264 43.5066 48.124 35.1439 48.124Z" fill="#5A3C6C"/>
<path d="M13.1624 48.3652C13.3493 50.4909 14.1825 52.4921 15.5529 54.1039C17.2815 56.1517 19.6875 57.4443 22.3349 57.7402C22.7087 57.7791 23.0902 57.8025 23.4718 57.8025H66.5233C66.8737 57.8025 67.2008 57.966 67.4266 58.2541L67.8392 58.9704L65.8537 60.1229H28.8522V131.611H19.8277C13.3026 131.611 8 126.308 8 119.791V64.1874C8 60.5589 9.7286 57.0628 12.633 54.828L12.9834 54.5555L12.742 54.1818C11.6752 52.4765 11.0289 50.561 10.8576 48.5677L13.1624 48.3652ZM20.5674 93.3245V90.6537C20.5674 89.478 19.6097 88.5202 18.4261 88.5202C17.2426 88.5202 16.2926 89.478 16.2926 90.6537V93.3245C16.2926 94.5002 17.2504 95.458 18.4261 95.458C19.6019 95.458 20.5674 94.5002 20.5674 93.3245Z" fill="#5A3C6C"/>
<path d="M13.1236 47.4542C13.1236 47.7579 13.1392 48.0615 13.1625 48.3652L10.8577 48.5677C10.8188 48.2017 10.8032 47.8279 10.8032 47.4542V20.6686C10.8032 13.6841 16.4874 8 23.4719 8H118.234C125.218 8 130.902 13.6841 130.902 20.6686V47.4542C130.902 49.8213 130.271 52.0482 129.026 54.0571L128.792 54.4387L129.15 54.7034C132.156 56.9226 133.947 60.4654 133.947 64.1874V119.791C133.947 126.308 128.644 131.611 122.119 131.611H28.8523V129.29H112.853V60.1228H75.8516L71.8182 67.0917L71.4912 67.4343C71.4912 67.4343 71.4523 67.4655 71.3588 67.5122L71.1408 67.5979C71.0474 67.629 70.9461 67.6368 70.7904 67.629L70.6892 67.6134C70.3232 67.5667 70.0118 67.3643 69.8327 67.0528L65.8538 60.1228L67.8393 58.9704L70.8449 64.1407L71.6547 62.7313C71.6547 62.7313 71.7092 62.6457 71.7404 62.5911L74.1698 58.3786C74.2165 58.3008 74.271 58.2307 74.3489 58.1528L74.3644 58.1295C74.4267 58.075 74.489 58.0205 74.5824 57.9738L74.6214 57.9426C74.6837 57.9115 74.746 57.8881 74.8005 57.8725C74.8394 57.857 74.8705 57.8492 74.8783 57.8414C74.9718 57.8102 75.073 57.8024 75.1742 57.8024H118.234C121.325 57.8024 124.229 56.4242 126.207 54.0338C126.978 53.0994 127.57 52.056 127.974 50.9503C128.372 49.8446 128.574 48.6689 128.574 47.4542V20.6686C128.582 14.9689 123.941 10.3282 118.234 10.3282H23.4719C17.7644 10.3282 13.1236 14.9689 13.1236 20.6686V47.4542ZM125.53 93.3245V90.6537C125.53 89.4779 124.572 88.5202 123.396 88.5202C122.22 88.5202 121.263 89.4779 121.263 90.6537V93.3245C121.263 94.5002 122.22 95.458 123.396 95.458C124.572 95.458 125.53 94.5002 125.53 93.3245Z" fill="#5A3C6C"/>
</g>
<defs>
<filter id="filter0_d_3153_2360" x="0" y="0" width="141.947" height="139.611" filterUnits="userSpaceOnUse" color-interpolation-filters="sRGB">
<feFlood flood-opacity="0" result="BackgroundImageFix"/>
<feColorMatrix in="SourceAlpha" type="matrix" values="0 0 0 0 0 0 0 0 0 0 0 0 0 0 0 0 0 0 127 0" result="hardAlpha"/>
<feOffset/>
<feGaussianBlur stdDeviation="4"/>
<feComposite in2="hardAlpha" operator="out"/>
<feColorMatrix type="matrix" values="0 0 0 0 0.737255 0 0 0 0 0.321569 0 0 0 0 0.678431 0 0 0 0.28 0"/>
<feBlend mode="normal" in2="BackgroundImageFix" result="effect1_dropShadow_3153_2360"/>
<feBlend mode="normal" in="SourceGraphic" in2="effect1_dropShadow_3153_2360" result="shape"/>
</filter>
</defs>
</svg>
