<svg width="74" height="104" viewBox="0 0 74 104" fill="none" xmlns="http://www.w3.org/2000/svg">
<g filter="url(#filter0_d_3153_2485)">
<path d="M41.2229 44.9276C47.7131 41.1443 53.2518 43.9807 53.2518 51.6812C53.2518 59.7929 47.7132 69.3875 40.821 73.3048C34.1967 77.0881 28.926 74.1178 28.792 66.4126C28.792 58.4394 34.4693 48.8449 41.2229 44.9276ZM45.6852 61.8162C45.9531 61.5483 45.8192 61.2758 45.5513 61.1418L41.7633 58.9799L45.6852 52.0877C45.8192 51.8198 45.6852 51.5473 45.5513 51.4133C45.2787 51.2793 45.0062 51.4133 44.8722 51.5473L40.9549 58.4394L37.1716 56.2776C36.8991 56.1436 36.6312 56.2776 36.4972 56.4115C36.3586 56.6841 36.4972 56.952 36.6312 57.0906L40.4145 59.2525L36.4972 66.1446C36.3586 66.4126 36.4972 66.6851 36.6312 66.8191C36.8991 66.953 37.1716 66.8191 37.3056 66.6851L41.2229 59.7929L45.0062 61.9548C45.2787 62.0888 45.5513 61.9548 45.6852 61.8162Z" fill="#200E1E"/>
<path d="M43.1168 42.8998C42.5763 43.1677 41.6294 43.4402 40.821 43.9807C33.7902 48.0366 27.845 58.033 27.845 66.2787C27.845 68.168 28.2515 70.6024 29.1985 72.2239C29.1985 72.3578 25.2766 70.875 25.2766 64.3847H25.2812C25.2812 56.5501 30.8199 46.817 37.7121 42.8998C38.6591 42.3593 39.74 41.9528 40.6824 41.5463L43.1168 42.8998Z" fill="#200E1E"/>
<path d="M63.7934 21.0083L63.9274 65.3317C63.7934 65.8721 63.5209 66.5466 62.9804 66.8191C62.8464 66.9531 15.0077 94.5218 14.8737 94.6558C14.8737 94.5957 14.8691 94.0275 14.8552 89.385C14.8368 83.8417 14.8044 72.4871 14.7397 49.2515L15.3818 48.8819L63.7934 21.0083ZM60.9525 38.0355V34.3861C60.9525 34.1136 60.6845 33.8457 60.412 33.8457C60.1394 33.8457 59.8715 34.1182 59.8715 34.3861V38.0355C59.8715 38.3034 60.1441 38.576 60.412 38.576C60.6799 38.576 60.9525 38.3034 60.9525 38.0355ZM60.9525 31.2773V26.8195C60.9525 26.413 60.5506 26.1405 60.1441 26.413L53.6584 30.1963C53.3858 30.3303 53.3858 30.6028 53.5198 30.8708C53.6584 31.1433 53.9263 31.1433 54.1989 31.0094L60.0101 27.6279V31.1433C59.8715 31.5498 60.1441 31.8178 60.412 31.8178C60.6799 31.8178 60.9525 31.5452 60.9525 31.2773ZM54.1989 51.9538C54.3328 47.764 52.8454 44.7891 50.4156 43.3063C48.7941 42.3593 46.6322 41.1444 46.7662 41.1444C43.7913 39.3844 40.142 40.3313 37.1717 42.0867C30.0069 46.1426 24.1957 56.2776 24.1957 64.5186C24.1957 68.5745 25.6832 71.6834 28.1176 73.1708C31.0879 74.7922 32.3074 76.1411 35.2777 76.1411C37.1717 76.1411 39.1996 75.6006 41.2275 74.3857C48.3876 70.1959 54.1989 60.1949 54.1989 51.9538Z" fill="#200E1E"/>
<path d="M13.3863 49.2514L13.5203 89.385L9.60303 87.0891V46.9556L13.3863 49.2514Z" fill="#200E1E"/>
<path d="M31.8547 30.9816C45.7776 22.9161 63.5763 12.6287 63.6594 12.6287V19.5208L14.7397 47.764V41.8188C14.7397 41.2783 15.1416 40.6039 15.5481 40.4653C15.599 40.4145 22.93 36.1554 31.8547 30.9816ZM24.6022 39.7909C25.0087 39.5229 25.4152 38.9778 25.4152 38.4374C25.4152 37.7629 24.8748 37.629 24.4683 37.8969C24.0617 38.1694 23.6552 38.7099 23.6552 39.2504C23.6552 39.7909 24.0617 40.1974 24.6022 39.7909ZM21.2254 41.8188C21.6273 41.5462 22.0338 41.0058 22.0338 40.4653C22.0338 39.7909 21.4933 39.6569 21.0915 39.9248C20.6849 40.1974 20.2784 40.7378 20.2784 41.2783C20.1445 41.8188 20.6849 42.0867 21.2254 41.8188ZM17.71 43.8467C18.1165 43.5742 18.5231 43.0337 18.5231 42.4932C18.5231 41.8188 17.844 41.6848 17.5761 41.9528C17.1696 42.2253 16.7631 42.7658 16.7631 43.3062C16.7631 43.8467 17.3035 44.1146 17.71 43.8467Z" fill="#200E1E"/>
<path d="M55.9358 15.5898C55.9358 15.5898 55.9311 15.5944 55.9173 15.599C55.908 15.6082 55.8942 15.6129 55.8711 15.6267C55.8572 15.636 55.8341 15.6498 55.8018 15.6683C55.7833 15.6775 55.7602 15.6914 55.7371 15.7053C55.7186 15.7191 55.6909 15.733 55.654 15.7514C55.5939 15.7838 55.5339 15.8207 55.4784 15.8577H55.4738C55.4369 15.8762 55.3999 15.8993 55.3722 15.9177C55.3583 15.927 55.3399 15.9362 55.3121 15.9501C55.3029 15.9593 55.2937 15.9639 55.2844 15.9686C53.5799 16.9571 47.8472 20.2739 31.0417 29.9562C26.5701 32.5338 21.3132 35.5595 15.1416 39.1165L11.2244 36.816L52.037 13.1692L55.9358 15.5898Z" fill="#200E1E"/>
<path d="M60.9525 34.3862V38.0355C60.9525 38.3034 60.6846 38.576 60.4121 38.576C60.1395 38.576 59.8716 38.3034 59.8716 38.0355V34.3862C59.8716 34.1182 60.1441 33.8457 60.4121 33.8457C60.68 33.8457 60.9525 34.1136 60.9525 34.3862Z" fill="#9E3D90"/>
<path d="M55.9173 15.599C55.9173 15.599 55.8942 15.6129 55.8711 15.6267C55.8942 15.6129 55.9081 15.6082 55.9173 15.599Z" fill="#5A3C6C"/>
<path d="M55.6541 15.7513C55.6032 15.7837 55.5478 15.816 55.4785 15.8576C55.5339 15.8206 55.594 15.7837 55.6541 15.7513Z" fill="#5A3C6C"/>
<path d="M55.4737 15.8577C55.4414 15.8761 55.409 15.8946 55.3721 15.9177C55.3998 15.8992 55.4367 15.8761 55.4737 15.8577Z" fill="#5A3C6C"/>
<path d="M54.1989 31.0093C53.9263 31.1433 53.6584 31.1433 53.5198 30.8707C53.3858 30.6028 53.3858 30.3302 53.6584 30.1963L60.144 26.413C60.5506 26.1404 60.9524 26.413 60.9524 26.8195V31.2772C60.9524 31.5452 60.6845 31.8177 60.412 31.8177C60.1394 31.8177 59.8715 31.5498 60.0101 31.1433V27.6279L54.1989 31.0093Z" fill="#9E3D90"/>
<path d="M31.0417 29.9561C47.8471 20.2738 53.5799 16.9571 55.2844 15.9685C55.2798 15.9731 55.2752 15.9731 55.2706 15.9824C55.3168 15.9593 55.5061 15.853 55.9542 15.6036L55.9358 15.5897L52.037 13.1692L51.3718 12.0235C53.3443 10.8825 55.4138 9.69073 57.5756 8.43887C58.1161 8.03236 58.652 8.03236 59.0585 8.3049C59.0585 8.37881 63.932 11.1458 64.3339 11.4138C64.7404 11.6817 65.0083 12.2222 65.0083 12.7626C65.0083 26.0943 65.1423 51.9169 65.1423 65.3317H63.9274L63.7934 21.0083L15.3818 48.8819L14.7397 47.764L63.6594 19.5209V12.6287C63.5763 12.6287 45.7776 22.9161 31.8547 30.9817L31.0417 29.9561Z" fill="#5A3C6C"/>
<path d="M40.4145 59.2526L36.6312 57.0907C36.4972 56.9521 36.3586 56.6842 36.4972 56.4116C36.6312 56.2777 36.8991 56.1437 37.1717 56.2777L40.955 58.4395L44.8722 51.5474C45.0062 51.4134 45.2787 51.2794 45.5513 51.4134C45.6852 51.5474 45.8192 51.8199 45.6852 52.0878L41.7634 58.98L45.5513 61.1419C45.8192 61.2759 45.9532 61.5484 45.6852 61.8163C45.5513 61.9549 45.2787 62.0889 45.0062 61.9549L41.2229 59.793L37.3056 66.6852C37.1717 66.8192 36.8991 66.9531 36.6312 66.8192C36.4972 66.6852 36.3586 66.4127 36.4972 66.1447L40.4145 59.2526Z" fill="#9E3D90"/>
<path d="M27.8451 66.2787C27.8451 58.033 33.7903 48.0366 40.8211 43.9807C41.6295 43.4403 42.5765 43.1677 43.117 42.8998L40.6825 41.5463C39.7402 41.9528 38.6592 42.3593 37.7122 42.8998C30.8201 46.8171 25.2814 56.5502 25.2814 64.3847H25.2767C25.2767 70.875 29.1986 72.3578 29.1986 72.2239C28.2517 70.6025 27.8451 68.168 27.8451 66.2787ZM41.2276 74.3858C39.1997 75.6007 37.1718 76.1412 35.2778 76.1412C32.3075 76.1412 31.088 74.7923 28.1177 73.1709C25.6833 71.6834 24.1958 68.5745 24.1958 64.5187C24.1958 56.2776 30.007 46.1426 37.1718 42.0868C40.142 40.3314 43.7914 39.3844 46.7663 41.1444C46.6323 41.1444 48.7942 42.3593 50.4156 43.3063C52.8455 44.7891 54.3329 47.764 54.1989 51.9539C54.1989 60.1949 48.3877 70.196 41.2276 74.3858ZM28.7921 66.4127C28.9261 74.1179 34.1969 77.0881 40.8211 73.3048C47.7133 69.3876 53.252 59.793 53.252 51.6813C53.252 43.5696 47.7133 41.1444 41.223 44.9277C34.4694 48.845 28.7921 58.4395 28.7921 66.4127Z" fill="#9E3D90"/>
<path d="M25.4153 38.4374C25.4153 38.9779 25.0088 39.523 24.6023 39.7909C24.0618 40.1974 23.6553 39.7909 23.6553 39.2504C23.6553 38.7099 24.0618 38.1695 24.4683 37.8969C24.8748 37.629 25.4153 37.763 25.4153 38.4374Z" fill="#5A3C6C"/>
<path d="M22.0339 40.4654C22.0339 41.0058 21.6274 41.5463 21.2255 41.8188C20.685 42.0868 20.1445 41.8188 20.2785 41.2784C20.2785 40.7379 20.685 40.1974 21.0915 39.9249C21.4934 39.657 22.0339 39.7909 22.0339 40.4654Z" fill="#5A3C6C"/>
<path d="M18.5229 42.4932C18.5229 43.0337 18.1164 43.5741 17.7099 43.8467C17.3034 44.1146 16.7629 43.8467 16.7629 43.3062C16.7629 42.7657 17.1694 42.2253 17.576 41.9527C17.8439 41.6848 18.5229 41.8188 18.5229 42.4932Z" fill="#5A3C6C"/>
<path d="M63.6594 68.034L15.6821 95.6027C15.1417 95.8707 14.6012 96.0092 14.1993 95.7367C13.9683 95.5843 9.69073 93.1406 8.92853 92.6278C8.65598 92.4939 8.24947 92.2213 8.24947 91.4129L8.24023 87.0938H9.60296L13.5202 89.385H14.8552C14.8691 94.0275 14.8737 94.5957 14.8737 94.6511C15.0077 94.5218 62.8464 66.9531 62.9804 66.8191C63.5209 66.5466 63.7934 65.8721 63.9274 65.3317H65.1423V65.4656C65.1423 66.4126 64.4678 67.4936 63.6594 68.034Z" fill="#5A3C6C"/>
<path d="M9.46897 36.2755C9.59831 36.1462 6.37857 38.0032 51.3717 12.0236L52.0369 13.1692L11.2243 36.816L15.1416 39.1165C21.3132 35.5595 26.5701 32.5338 31.0417 29.9562L31.8547 30.9817C22.93 36.1554 15.5989 40.4145 15.5481 40.4653C15.1416 40.6039 14.7397 41.2784 14.7397 41.8188V47.764L15.3818 48.8819L14.7397 49.2515C14.8044 72.4872 14.8367 83.8417 14.8552 89.385H13.5202L13.3862 49.2515L9.60293 46.9556V87.0892H8.2402L8.11548 38.71C8.11548 37.763 8.65595 36.682 9.46897 36.2755Z" fill="#5A3C6C"/>
</g>
<defs>
<filter id="filter0_d_3153_2485" x="0.115479" y="0.114746" width="73.0269" height="103.77" filterUnits="userSpaceOnUse" color-interpolation-filters="sRGB">
<feFlood flood-opacity="0" result="BackgroundImageFix"/>
<feColorMatrix in="SourceAlpha" type="matrix" values="0 0 0 0 0 0 0 0 0 0 0 0 0 0 0 0 0 0 127 0" result="hardAlpha"/>
<feOffset/>
<feGaussianBlur stdDeviation="4"/>
<feComposite in2="hardAlpha" operator="out"/>
<feColorMatrix type="matrix" values="0 0 0 0 0.737255 0 0 0 0 0.321569 0 0 0 0 0.678431 0 0 0 0.28 0"/>
<feBlend mode="normal" in2="BackgroundImageFix" result="effect1_dropShadow_3153_2485"/>
<feBlend mode="normal" in="SourceGraphic" in2="effect1_dropShadow_3153_2485" result="shape"/>
</filter>
</defs>
</svg>
