<svg width="168" height="160" viewBox="0 0 168 160" fill="none" xmlns="http://www.w3.org/2000/svg">
<g filter="url(#filter0_d_3153_2293)">
<path d="M107.67 11.9926V32.9601C107.67 33.8752 106.925 34.6199 106.019 34.6199H11.9836C11.0774 34.6199 10.3328 33.8752 10.3328 32.9601V11.9926C10.3328 11.0864 11.0774 10.3328 11.9836 10.3328H106.019C106.925 10.3328 107.67 11.0864 107.67 11.9926ZM101.416 27.0386V17.9141C101.416 17.2681 100.878 16.7477 100.25 16.7477C99.6217 16.7477 99.0834 17.2681 99.0834 17.9141V27.0386C99.0834 27.6935 99.5948 28.2049 100.25 28.2049C100.905 28.2049 101.416 27.6935 101.416 27.0386ZM94.9832 27.0386V17.9141C94.9832 17.2681 94.4449 16.7477 93.8169 16.7477C93.1888 16.7477 92.6505 17.2681 92.6505 17.9141V27.0386C92.6505 27.6935 93.1619 28.2049 93.8169 28.2049C94.4718 28.2049 94.9832 27.6935 94.9832 27.0386ZM88.5414 27.0386V17.9141C88.5414 17.2681 88.03 16.7477 87.375 16.7477C86.7201 16.7477 86.2087 17.2681 86.2087 17.9141V27.0386C86.2087 27.6935 86.7201 28.2049 87.375 28.2049C88.03 28.2049 88.5414 27.6935 88.5414 27.0386ZM82.1264 27.0386V17.9141C82.1264 17.2681 81.5881 16.7477 80.9601 16.7477C80.332 16.7477 79.7937 17.2681 79.7937 17.9141V27.0386C79.7937 27.6935 80.3051 28.2049 80.9601 28.2049C81.615 28.2049 82.1264 27.6935 82.1264 27.0386ZM75.6935 27.0386V17.9141C75.6935 17.2681 75.1731 16.7477 74.5272 16.7477C73.8812 16.7477 73.3608 17.2681 73.3608 17.9141V27.0386C73.3608 27.6935 73.8722 28.2049 74.5272 28.2049C75.1821 28.2049 75.6935 27.6935 75.6935 27.0386ZM67.8251 26.0786V18.8472C67.8251 18.2191 67.3137 17.6808 66.6587 17.6808H44.803C44.1481 17.6808 43.6367 18.2191 43.6367 18.8472V26.0786C43.6367 26.7335 44.1481 27.2449 44.803 27.2449H66.6587C67.3137 27.2449 67.8251 26.7335 67.8251 26.0786ZM39.393 22.4629C39.393 19.8341 37.2487 17.6808 34.6109 17.6808C31.9731 17.6808 29.8109 19.8341 29.8109 22.4629C29.8109 25.0916 31.9731 27.2718 34.6109 27.2718C37.2487 27.2718 39.393 25.1275 39.393 22.4629ZM26.1952 22.4629C26.1952 19.8341 24.0419 17.6808 21.3862 17.6808C18.7305 17.6808 16.6042 19.8341 16.6042 22.4629C16.6042 25.0916 18.7485 27.2718 21.3862 27.2718C24.024 27.2718 26.1952 25.1275 26.1952 22.4629Z" fill="#200E1E"/>
<path d="M108.863 51.4333V53.7661H87.7787C85.141 53.7661 83.0236 55.8924 83.0236 58.5302V134.415H80.6819C80.6819 133.76 80.1436 133.249 79.5156 133.249H12.0105C11.0954 133.249 10.3328 132.477 10.3328 131.589V110.621C10.3328 109.706 11.0774 108.962 12.0105 108.962H79.5156V100.375H12.0105C11.0954 100.375 10.3328 99.6307 10.3328 98.7246V77.7302C10.3328 76.8419 11.0954 76.0704 12.0105 76.0704H79.5156V67.5111H12.0105C11.0774 67.5111 10.3328 66.7664 10.3328 65.8333V44.8569C10.3328 43.9507 11.0954 43.2061 12.0105 43.2061H106.037C106.925 43.2061 107.697 43.9507 107.697 44.8569V50.267C107.697 50.9219 108.208 51.4333 108.863 51.4333ZM75.6935 125.667V116.543C75.6935 115.888 75.1731 115.377 74.5272 115.377C73.8812 115.377 73.3608 115.888 73.3608 116.543V125.667C73.3608 126.313 73.8722 126.834 74.5272 126.834C75.1821 126.834 75.6935 126.313 75.6935 125.667ZM75.6935 92.7941V83.6517C75.6935 83.0236 75.1731 82.4853 74.5272 82.4853C73.8812 82.4853 73.3608 83.0236 73.3608 83.6517V92.7941C73.3608 93.4221 73.8722 93.9604 74.5272 93.9604C75.1821 93.9604 75.6935 93.4221 75.6935 92.7941ZM75.6935 59.9029V50.7874C75.6935 50.1324 75.1731 49.621 74.5272 49.621C73.8812 49.621 73.3608 50.1324 73.3608 50.7874V59.9029C73.3608 60.5578 73.8722 61.0692 74.5272 61.0692C75.1821 61.0692 75.6935 60.5578 75.6935 59.9029ZM67.8251 124.707V117.476C67.8251 116.848 67.3137 116.31 66.6587 116.31H44.803C44.1481 116.31 43.6367 116.848 43.6367 117.476V124.707C43.6367 125.362 44.1481 125.874 44.803 125.874H66.6587C67.3137 125.874 67.8251 125.362 67.8251 124.707ZM67.8251 91.8431V84.6117C67.8251 83.9567 67.3137 83.4453 66.6587 83.4453H44.803C44.1481 83.4453 43.6367 83.9567 43.6367 84.6117V91.8431C43.6367 92.489 44.1481 93.0094 44.803 93.0094H66.6587C67.3137 93.0094 67.8251 92.489 67.8251 91.8431ZM67.8251 58.9698V51.7384C67.8251 51.0834 67.3137 50.572 66.6587 50.572H44.803C44.1481 50.572 43.6367 51.0834 43.6367 51.7384V58.9698C43.6367 59.5978 44.1481 60.1361 44.803 60.1361H66.6587C67.3137 60.1361 67.8251 59.5978 67.8251 58.9698ZM39.393 55.3541C39.393 52.6984 37.2487 50.5541 34.6109 50.5541C31.9731 50.5541 29.8019 52.6984 29.8019 55.3541C29.8019 58.0098 31.9731 60.1361 34.6109 60.1361C37.2487 60.1361 39.393 57.9918 39.393 55.3541ZM39.393 88.2274C39.393 85.5896 37.2487 83.4453 34.6109 83.4453C31.9731 83.4453 29.8019 85.5896 29.8019 88.2274C29.8019 90.8651 31.9731 93.0274 34.6109 93.0274C37.2487 93.0274 39.393 90.8561 39.393 88.2274ZM39.393 121.092C39.393 118.454 37.2487 116.31 34.6109 116.31C31.9731 116.31 29.8019 118.454 29.8019 121.092C29.8019 123.729 31.9731 125.901 34.6109 125.901C37.2487 125.901 39.393 123.747 39.393 121.092ZM26.1952 55.3541C26.1952 52.6984 24.0419 50.5541 21.3862 50.5541C18.7305 50.5541 16.6042 52.6984 16.6042 55.3541C16.6042 58.0098 18.7485 60.1361 21.3862 60.1361C24.024 60.1361 26.1952 57.9918 26.1952 55.3541ZM26.1952 88.2274C26.1952 85.5896 24.0419 83.4453 21.3862 83.4453C18.7305 83.4453 16.6042 85.5896 16.6042 88.2274C16.6042 90.8651 18.7485 93.0274 21.3862 93.0274C24.024 93.0274 26.1952 90.8561 26.1952 88.2274ZM26.1952 121.092C26.1952 118.454 24.0419 116.31 21.3862 116.31C18.7305 116.31 16.6042 118.454 16.6042 121.092C16.6042 123.729 18.7485 125.901 21.3862 125.901C24.024 125.901 26.1952 123.747 26.1952 121.092Z" fill="#200E1E"/>
<path d="M157.293 78.08V146.796C157.293 148.124 156.217 149.219 154.871 149.219H87.7786C86.4508 149.219 85.3562 148.124 85.3562 146.796V58.5301C85.3562 57.1753 86.4508 56.1077 87.7786 56.1077H135.294V73.3159C135.294 75.9357 137.421 78.08 140.058 78.08H157.293ZM147.649 122.401V111.689C147.649 111.034 147.137 110.523 146.482 110.523H140.561C139.933 110.523 139.394 111.034 139.394 111.689V121.863H103.237V111.689C103.237 111.034 102.726 110.523 102.071 110.523H96.1495C95.4945 110.523 94.9831 111.034 94.9831 111.689V122.401C94.9831 126.645 98.4553 130.117 102.699 130.117H139.933C144.203 130.117 147.649 126.645 147.649 122.401ZM132.746 100.797C133.006 100.447 133.051 99.9806 132.845 99.5858C132.656 99.191 132.235 98.9578 131.813 98.9578H127.291V82.3955C127.291 81.7585 126.771 81.2292 126.125 81.2292H116.507C115.861 81.2292 115.341 81.7585 115.341 82.3955V98.9578H110.819C110.397 98.9578 110.002 99.191 109.796 99.5858C109.581 99.9806 109.625 100.447 109.886 100.797L120.365 115.448C120.598 115.753 120.948 115.933 121.316 115.933C121.684 115.933 122.043 115.753 122.276 115.448L132.746 100.797Z" fill="#200E1E"/>
<path d="M147.649 111.689V122.402C147.649 126.645 144.203 130.117 139.933 130.117H102.699C98.4553 130.117 94.9832 126.645 94.9832 122.402V111.689C94.9832 111.034 95.4946 110.523 96.1495 110.523H102.071C102.726 110.523 103.237 111.034 103.237 111.689V121.863H139.394V111.689C139.394 111.034 139.933 110.523 140.561 110.523H146.482C147.137 110.523 147.649 111.034 147.649 111.689Z" fill="#792F6F"/>
<path d="M122.276 115.448C122.043 115.753 121.693 115.933 121.316 115.933C120.939 115.933 120.598 115.753 120.365 115.448L109.886 100.797C109.625 100.447 109.581 99.9806 109.796 99.5859C110.002 99.1911 110.397 98.9578 110.819 98.9578H115.341V82.3956C115.341 81.7586 115.861 81.2292 116.507 81.2292H126.125C126.771 81.2292 127.291 81.7586 127.291 82.3956V98.9578H131.813C132.235 98.9578 132.657 99.1911 132.845 99.5859C133.051 99.9806 133.006 100.447 132.746 100.797L122.276 115.448Z" fill="#792F6F"/>
<path d="M101.416 17.914V27.0385C101.416 27.6935 100.905 28.2049 100.25 28.2049C99.5947 28.2049 99.0833 27.6935 99.0833 27.0385V17.914C99.0833 17.2681 99.6036 16.7477 100.25 16.7477C100.896 16.7477 101.416 17.2681 101.416 17.914Z" fill="#4C335C"/>
<path d="M94.9831 17.914V27.0385C94.9831 27.6935 94.4717 28.2049 93.8167 28.2049C93.1618 28.2049 92.6504 27.6935 92.6504 27.0385V17.914C92.6504 17.2681 93.1618 16.7477 93.8167 16.7477C94.4717 16.7477 94.9831 17.2681 94.9831 17.914Z" fill="#4C335C"/>
<path d="M88.5412 17.914V27.0385C88.5412 27.6935 88.0298 28.2049 87.3749 28.2049C86.7199 28.2049 86.2085 27.6935 86.2085 27.0385V17.914C86.2085 17.2681 86.7199 16.7477 87.3749 16.7477C88.0298 16.7477 88.5412 17.2681 88.5412 17.914Z" fill="#4C335C"/>
<path d="M83.0234 58.5301C83.0234 55.8923 85.1408 53.766 87.7786 53.766H136.46C136.765 53.766 137.071 53.8826 137.277 54.098L159.294 76.0703H159.303C159.509 76.3036 159.626 76.5817 159.626 76.9047V146.796C159.626 149.407 157.5 151.551 154.871 151.551H87.7786C85.1408 151.551 83.0234 149.407 83.0234 146.796V58.5301ZM85.3561 58.5301V146.796C85.3561 148.124 86.4507 149.219 87.7786 149.219H154.871C156.217 149.219 157.293 148.124 157.293 146.796V78.08H140.058C137.42 78.08 135.294 75.9357 135.294 73.3159V56.1077H87.7786C86.4507 56.1077 85.3561 57.1753 85.3561 58.5301Z" fill="#4C335C"/>
<path d="M82.1264 17.914V27.0385C82.1264 27.6935 81.615 28.2049 80.9601 28.2049C80.3051 28.2049 79.7937 27.6935 79.7937 27.0385V17.914C79.7937 17.2681 80.3051 16.7477 80.9601 16.7477C81.615 16.7477 82.1264 17.2681 82.1264 17.914Z" fill="#4C335C"/>
<path d="M75.6933 116.543V125.667C75.6933 126.313 75.1729 126.834 74.527 126.834C73.881 126.834 73.3606 126.313 73.3606 125.667V116.543C73.3606 115.888 73.872 115.376 74.527 115.376C75.1819 115.376 75.6933 115.888 75.6933 116.543Z" fill="#4C335C"/>
<path d="M75.6933 83.6516V92.794C75.6933 93.4221 75.1729 93.9604 74.527 93.9604C73.881 93.9604 73.3606 93.4221 73.3606 92.794V83.6516C73.3606 83.0236 73.872 82.4852 74.527 82.4852C75.1819 82.4852 75.6933 83.0236 75.6933 83.6516Z" fill="#4C335C"/>
<path d="M75.6933 50.7873V59.9028C75.6933 60.5578 75.1729 61.0692 74.527 61.0692C73.881 61.0692 73.3606 60.5578 73.3606 59.9028V50.7873C73.3606 50.1324 73.872 49.621 74.527 49.621C75.1819 49.621 75.6933 50.1324 75.6933 50.7873Z" fill="#4C335C"/>
<path d="M75.6933 17.914V27.0385C75.6933 27.6935 75.1729 28.2049 74.527 28.2049C73.881 28.2049 73.3606 27.6935 73.3606 27.0385V17.914C73.3606 17.2681 73.872 16.7477 74.527 16.7477C75.1819 16.7477 75.6933 17.2681 75.6933 17.914Z" fill="#4C335C"/>
<path d="M67.8249 117.476V124.707C67.8249 125.362 67.3135 125.874 66.6585 125.874H44.8028C44.1479 125.874 43.6365 125.362 43.6365 124.707V117.476C43.6365 116.848 44.1479 116.31 44.8028 116.31H66.6585C67.3135 116.31 67.8249 116.848 67.8249 117.476Z" fill="#4C335C"/>
<path d="M67.8249 84.6117V91.8431C67.8249 92.4891 67.3135 93.0094 66.6585 93.0094H44.8028C44.1479 93.0094 43.6365 92.4891 43.6365 91.8431V84.6117C43.6365 83.9567 44.1479 83.4453 44.8028 83.4453H66.6585C67.3135 83.4453 67.8249 83.9567 67.8249 84.6117Z" fill="#4C335C"/>
<path d="M67.8249 51.7384V58.9698C67.8249 59.5978 67.3135 60.1361 66.6585 60.1361H44.8028C44.1479 60.1361 43.6365 59.5978 43.6365 58.9698V51.7384C43.6365 51.0834 44.1479 50.572 44.8028 50.572H66.6585C67.3135 50.572 67.8249 51.0834 67.8249 51.7384Z" fill="#4C335C"/>
<path d="M67.8249 18.8471V26.0785C67.8249 26.7335 67.3135 27.2449 66.6585 27.2449H44.8028C44.1479 27.2449 43.6365 26.7335 43.6365 26.0785V18.8471C43.6365 18.2191 44.1479 17.6808 44.8028 17.6808H66.6585C67.3135 17.6808 67.8249 18.2191 67.8249 18.8471Z" fill="#4C335C"/>
<path d="M34.6108 17.6808C37.2485 17.6808 39.3928 19.8341 39.3928 22.4628C39.3928 25.0916 37.2485 27.2718 34.6108 27.2718C31.973 27.2718 29.8108 25.1275 29.8108 22.4628C29.8108 19.7982 31.973 17.6808 34.6108 17.6808Z" fill="#4C335C"/>
<path d="M34.6107 50.5541C37.2485 50.5541 39.3928 52.6984 39.3928 55.3541C39.3928 58.0098 37.2485 60.1361 34.6107 60.1361C31.973 60.1361 29.8018 57.9918 29.8018 55.3541C29.8018 52.7163 31.973 50.5541 34.6107 50.5541Z" fill="#4C335C"/>
<path d="M34.6107 83.4453C37.2485 83.4453 39.3928 85.5896 39.3928 88.2274C39.3928 90.8651 37.2485 93.0274 34.6107 93.0274C31.973 93.0274 29.8018 90.8562 29.8018 88.2274C29.8018 85.5986 31.973 83.4453 34.6107 83.4453Z" fill="#4C335C"/>
<path d="M34.6107 116.31C37.2485 116.31 39.3928 118.454 39.3928 121.092C39.3928 123.729 37.2485 125.901 34.6107 125.901C31.973 125.901 29.8018 123.747 29.8018 121.092C29.8018 118.436 31.973 116.31 34.6107 116.31Z" fill="#4C335C"/>
<path d="M21.3861 17.6808C24.0418 17.6808 26.195 19.8341 26.195 22.4628C26.195 25.0916 24.0418 27.2718 21.3861 27.2718C18.7304 27.2718 16.604 25.1275 16.604 22.4628C16.604 19.7982 18.7483 17.6808 21.3861 17.6808Z" fill="#4C335C"/>
<path d="M21.3861 50.5541C24.0418 50.5541 26.195 52.6984 26.195 55.3541C26.195 58.0098 24.0418 60.1361 21.3861 60.1361C18.7304 60.1361 16.604 57.9918 16.604 55.3541C16.604 52.7163 18.7483 50.5541 21.3861 50.5541Z" fill="#4C335C"/>
<path d="M21.3861 83.4453C24.0418 83.4453 26.195 85.5896 26.195 88.2274C26.195 90.8651 24.0418 93.0274 21.3861 93.0274C18.7304 93.0274 16.604 90.8562 16.604 88.2274C16.604 85.5986 18.7483 83.4453 21.3861 83.4453Z" fill="#4C335C"/>
<path d="M21.3861 116.31C24.0418 116.31 26.195 118.454 26.195 121.092C26.195 123.729 24.0418 125.901 21.3861 125.901C18.7304 125.901 16.604 123.747 16.604 121.092C16.604 118.436 18.7483 116.31 21.3861 116.31Z" fill="#4C335C"/>
<path d="M12.0105 67.511H17.5103V69.8437H12.0105C9.79439 69.8437 8 68.0493 8 65.8333V44.8568C8 42.6677 9.79439 40.8733 12.0105 40.8733H17.5103V36.9525H11.9836C9.79439 36.9525 8 35.1581 8 32.96V11.9925C8 9.77645 9.79439 8 11.9836 8H106.019C108.235 8 110.002 9.77645 110.002 11.9925V32.96C110.002 35.1581 108.235 36.9525 106.019 36.9525H100.671V40.8733H106.037C108.235 40.8733 110.029 42.6677 110.029 44.8568V50.2669C110.029 50.9219 109.491 51.4333 108.863 51.4333C108.235 51.4333 107.696 50.9219 107.696 50.2669V44.8568C107.696 43.9507 106.925 43.206 106.037 43.206H12.0105C11.0953 43.206 10.3327 43.9507 10.3327 44.8568V65.8333C10.3327 66.7664 11.0774 67.511 12.0105 67.511ZM11.9836 34.6198H106.019C106.925 34.6198 107.67 33.8751 107.67 32.96V11.9925C107.67 11.0864 106.925 10.3327 106.019 10.3327H11.9836C11.0774 10.3327 10.3327 11.0864 10.3327 11.9925V32.96C10.3327 33.8751 11.0774 34.6198 11.9836 34.6198Z" fill="#4C335C"/>
<path d="M12.0105 76.0704C11.0953 76.0704 10.3327 76.8419 10.3327 77.7302V98.7246L8.00897 98.8322C8.00897 98.8322 8 98.7605 8 98.7246V77.7302C8 75.532 9.79439 73.7376 12.0105 73.7376H17.5103V67.5111H79.5155V76.0704H12.0105Z" fill="#4C335C"/>
<path d="M12.0105 100.375H79.5155V108.961H12.0105C11.0774 108.961 10.3327 109.706 10.3327 110.621V131.589C10.3327 132.477 11.0953 133.249 12.0105 133.249H79.5155C80.1435 133.249 80.6819 133.76 80.6819 134.415C80.6819 135.07 80.1435 135.581 79.5155 135.581H12.0105C9.79439 135.581 8 133.778 8 131.589V110.621C8 108.423 9.79439 106.629 12.0105 106.629H17.5103V102.708H12.0105C9.83028 102.708 8.0628 100.976 8.00897 98.8321L10.3327 98.7245C10.3327 99.6307 11.0953 100.375 12.0105 100.375Z" fill="#4C335C"/>
</g>
<defs>
<filter id="filter0_d_3153_2293" x="0" y="0" width="167.626" height="159.551" filterUnits="userSpaceOnUse" color-interpolation-filters="sRGB">
<feFlood flood-opacity="0" result="BackgroundImageFix"/>
<feColorMatrix in="SourceAlpha" type="matrix" values="0 0 0 0 0 0 0 0 0 0 0 0 0 0 0 0 0 0 127 0" result="hardAlpha"/>
<feOffset/>
<feGaussianBlur stdDeviation="4"/>
<feComposite in2="hardAlpha" operator="out"/>
<feColorMatrix type="matrix" values="0 0 0 0 0.737255 0 0 0 0 0.321569 0 0 0 0 0.678431 0 0 0 0.28 0"/>
<feBlend mode="normal" in2="BackgroundImageFix" result="effect1_dropShadow_3153_2293"/>
<feBlend mode="normal" in="SourceGraphic" in2="effect1_dropShadow_3153_2293" result="shape"/>
</filter>
</defs>
</svg>
