<svg width="87" height="74" viewBox="0 0 87 74" fill="none" xmlns="http://www.w3.org/2000/svg">
<g filter="url(#filter0_d_3153_2394)">
<path d="M57.4623 6.77553L59.4502 9.17296L43.1519 21.737C43.1519 21.737 43.1471 21.7473 43.1359 21.7513L28.787 26.728L53.9776 6.4283C55.032 5.57384 56.5994 5.7327 57.4623 6.77553Z" fill="#200E1E"/>
<path d="M60.1617 10.0208L63.9156 14.5444L46.4201 20.6154L60.1617 10.0208Z" fill="#200E1E"/>
<path d="M39.7903 59.9072L30.3874 67.4979C29.3303 68.3449 27.7656 68.1935 26.904 67.1544L24.8552 64.6944C25.3877 64.7592 25.9235 64.7169 26.4481 64.5387L39.7903 59.9072Z" fill="#200E1E"/>
<path d="M16.965 48.8065L21.0985 60.1632L14.0841 51.7378L16.965 48.8065Z" fill="#200E1E"/>
<path d="M13.4409 39.1236L16.5482 47.6608L13.3766 50.8887L9.16668 45.8229C8.72635 45.3005 8.53313 44.6415 8.59795 43.9691C8.6604 43.3018 8.9918 42.6978 9.51493 42.2826L13.4409 39.1236Z" fill="#200E1E"/>
<path d="M21.679 46.0646L33.5488 41.9776L33.6087 41.9558C33.8827 41.8349 33.998 41.5343 33.8846 41.2575C33.7711 40.9808 33.4623 40.843 33.1787 40.9377L21.3114 45.0196C21.0616 45.1487 20.8741 45.4375 20.965 45.7224C21.0713 46.0144 21.387 46.1709 21.679 46.0646ZM40.1575 55.5798C41.0456 55.3286 41.7144 54.6145 41.9167 53.714L42.6034 50.6145L43.9071 50.1188C44.3299 49.9522 44.5378 49.4864 44.3865 49.0708C44.2352 48.6552 43.7473 48.4214 43.3246 48.588L43.0362 48.693L43.7291 45.587C44.1529 45.4582 44.5652 45.3209 44.9951 45.1856C45.9959 44.8595 47.0545 44.5293 47.9939 43.9414C48.963 43.3301 49.8335 42.3899 50.1035 41.2909C49.2008 40.5932 47.9296 40.4326 46.798 40.5858C45.6992 40.7356 44.6705 41.1481 43.701 41.5603C43.281 41.7344 42.8807 41.8928 42.4732 42.0666L39.9422 40.134L40.2343 40.0277C40.6652 39.8836 40.8891 39.4035 40.7337 38.9766C40.5784 38.5498 40.1123 38.3293 39.6929 38.482L38.3756 38.9402L35.8609 37.0059C35.1271 36.4462 34.152 36.3304 33.314 36.7075L32.7561 36.9572C34.459 39.3057 36.1758 41.6575 38.0699 43.8558C36.2873 44.5852 34.6255 45.2622 33.0645 45.8897L30.6662 44.0657C30.339 43.8074 29.8964 43.7565 29.5104 43.9309L29.2602 44.0474C29.9152 44.9497 30.564 45.8584 31.2822 46.725C31.081 46.883 30.8935 47.0785 30.7452 47.3233L30.0071 48.5926L31.3884 49.0906C31.6581 49.1791 31.9175 49.2161 32.1718 49.2041C32.1871 50.318 32.2667 51.4339 32.3413 52.5474L32.6078 52.4759C33.0044 52.3655 33.3107 52.042 33.4066 51.6297L34.06 48.6949C35.6521 48.1876 37.3701 47.6301 39.2059 47.0467C39.1666 49.9445 39.3645 52.8535 39.5696 55.7471L40.1575 55.5798ZM69.8582 45.8891L23.4246 62.8022C23.2142 62.5735 23.0442 62.3046 22.9311 61.9938L15.5486 41.7106L71.8789 21.2081L75.903 33.406C76.8577 36.2854 76.4303 39.282 74.9648 41.6982C74.8412 41.6499 74.7061 41.6397 74.5825 41.6847L66.0116 44.8042C65.7233 44.9092 65.5743 45.2221 65.6806 45.5141C65.7869 45.8062 66.1022 45.9501 66.3905 45.8452L73.9317 43.1004C72.8668 44.3106 71.4907 45.2949 69.8582 45.8891ZM37.1759 51.92L25.3086 56.0019C25.0547 56.1197 24.8713 56.4197 24.9623 56.7046C25.0686 56.9967 25.3801 57.1419 25.665 57.051L37.5361 52.9677L37.5548 52.9609C37.8356 52.8587 37.9809 52.5471 37.8746 52.2551C37.7836 51.9702 37.4568 51.8177 37.1759 51.92ZM69.3187 25.5916C69.2124 25.2995 68.9009 25.1542 68.6088 25.2605L60.038 28.3801C59.7459 28.4864 59.6006 28.7979 59.7069 29.09C59.8132 29.382 60.1248 29.5273 60.4168 29.421L68.9877 26.3015C69.2798 26.1952 69.425 25.8836 69.3187 25.5916ZM70.5153 28.8791C70.409 28.587 70.0975 28.4418 69.8054 28.5481L61.2346 31.6676C60.9425 31.7739 60.7972 32.0855 60.9035 32.3775C61.0098 32.6696 61.3214 32.8149 61.6134 32.7086L70.1843 29.589C70.4763 29.4827 70.6216 29.1712 70.5153 28.8791ZM71.7119 32.1667C71.6056 31.8746 71.294 31.7293 71.002 31.8356L62.4311 34.9552C62.1391 35.0615 61.9938 35.373 62.1001 35.6651C62.2064 35.9571 62.5179 36.1024 62.81 35.9961L71.3809 32.8766C71.6729 32.7703 71.8168 32.455 71.7119 32.1667ZM72.9071 35.4505C72.8022 35.1622 72.4893 35.0131 72.1972 35.1194L63.6263 38.239C63.3343 38.3453 63.1904 38.6606 63.2953 38.9489C63.4002 39.2372 63.7131 39.3862 64.0052 39.2799L72.5761 36.1604C72.8681 36.0541 73.0134 35.7425 72.9071 35.4505ZM74.0996 38.7268C73.9933 38.4347 73.6817 38.2895 73.3897 38.3958L64.8188 41.5153C64.5268 41.6216 64.3815 41.9331 64.4878 42.2252C64.5941 42.5173 64.9056 42.6625 65.1977 42.5562L73.7685 39.4367C74.0606 39.3304 74.2059 39.0189 74.0996 38.7268Z" fill="#200E1E"/>
<path d="M69.4168 13.8609L69.567 14.1454L71.5525 20.1481L15.181 40.6656L13.4475 35.9028C13.2212 35.2812 13.2442 34.5986 13.5388 33.9868C13.8137 33.3906 14.3106 32.9384 14.9359 32.7108L14.9771 32.6958L68.9372 13.9761C69.0944 13.9188 69.2599 13.8841 69.4168 13.8609ZM47.8199 25.0205C47.7477 24.8221 47.5328 24.7095 47.3344 24.7817L18.4308 34.8099L18.4195 34.814C18.2211 34.8862 18.1234 35.0956 18.1957 35.294C18.2567 35.4966 18.4814 35.6014 18.6798 35.5291L47.5848 25.5047L47.596 25.5006C47.7945 25.4284 47.8908 25.2152 47.8199 25.0205Z" fill="#200E1E"/>
<path d="M68.6089 25.2605C68.901 25.1542 69.2125 25.2995 69.3188 25.5915C69.4251 25.8836 69.2798 26.1951 68.9878 26.3015L60.4169 29.421C60.1249 29.5273 59.8133 29.382 59.707 29.09C59.6007 28.7979 59.746 28.4864 60.038 28.3801L68.6089 25.2605Z" fill="#67285E"/>
<path d="M69.8054 28.5481C70.0975 28.4418 70.409 28.5871 70.5153 28.8791C70.6216 29.1712 70.4764 29.4827 70.1843 29.589L61.6134 32.7086C61.3214 32.8149 61.0098 32.6696 60.9035 32.3776C60.7972 32.0855 60.9425 31.774 61.2346 31.6677L69.8054 28.5481Z" fill="#67285E"/>
<path d="M71.002 31.8357C71.294 31.7294 71.6056 31.8747 71.7119 32.1667C71.8182 32.4588 71.6729 32.7703 71.3808 32.8766L62.81 35.9962C62.5179 36.1025 62.205 35.9535 62.1001 35.6652C61.9951 35.3768 62.1391 35.0616 62.4311 34.9552L71.002 31.8357Z" fill="#67285E"/>
<path d="M72.1973 35.1195C72.4893 35.0132 72.8022 35.1622 72.9072 35.4506C73.0121 35.7389 72.8682 36.0542 72.5762 36.1605L64.0053 39.28C63.7132 39.3863 63.4017 39.241 63.2954 38.949C63.1891 38.6569 63.3344 38.3454 63.6264 38.2391L72.1973 35.1195Z" fill="#31213B"/>
<path d="M73.3897 38.3958C73.6817 38.2895 73.9933 38.4347 74.0996 38.7268C74.2059 39.0189 74.0606 39.3304 73.7685 39.4367L65.1977 42.5562C64.9056 42.6625 64.5941 42.5173 64.4878 42.2252C64.3815 41.9331 64.5267 41.6216 64.8188 41.5153L73.3897 38.3958Z" fill="#31213B"/>
<path d="M33.1788 40.9377C33.4624 40.843 33.7712 40.9808 33.8846 41.2575C33.9981 41.5343 33.8828 41.8349 33.6088 41.9559L33.5488 41.9777L21.6791 46.0647C21.3871 46.171 21.0714 46.0145 20.9651 45.7224C20.8742 45.4375 21.0616 45.1487 21.3115 45.0196L33.1788 40.9377Z" fill="#31213B"/>
<path d="M37.536 52.9678L25.665 57.0511C25.38 57.142 25.0685 56.9968 24.9622 56.7047C24.8712 56.4198 25.0546 56.1198 25.3086 56.0019L37.1759 51.92C37.4567 51.8178 37.7836 51.9703 37.8746 52.2552C37.9809 52.5472 37.8356 52.8588 37.5548 52.961L37.536 52.9678Z" fill="#31213B"/>
<path d="M33.4065 51.6297C33.3107 52.042 33.0044 52.3655 32.6078 52.4759L32.3413 52.5475C32.2667 51.4339 32.1871 50.318 32.1718 49.2041C31.9175 49.2161 31.658 49.1791 31.3884 49.0906L30.0071 48.5927L30.7451 47.3233C30.8935 47.0785 31.081 46.883 31.2821 46.725C30.5639 45.8585 29.9151 44.9497 29.2602 44.0474L29.5104 43.9309C29.8964 43.7565 30.339 43.8074 30.6662 44.0657L33.0644 45.8897C34.6255 45.2622 36.2873 44.5853 38.0699 43.8559C36.1758 41.6576 34.4589 39.3057 32.7561 36.9572L33.314 36.7075C34.152 36.3304 35.127 36.4462 35.8608 37.006L38.3755 38.9403L39.6929 38.482C40.1122 38.3293 40.5783 38.5498 40.7337 38.9767C40.8891 39.4035 40.6652 39.8836 40.2343 40.0277L39.9422 40.134L42.4732 42.0666C42.8807 41.8929 43.281 41.7345 43.701 41.5604C44.6704 41.1482 45.6991 40.7356 46.798 40.5858C47.9295 40.4326 49.2008 40.5933 50.1035 41.2909C49.8335 42.3899 48.9629 43.3301 47.9939 43.9415C47.0545 44.5293 45.9958 44.8595 44.995 45.1856C44.5651 45.3209 44.1529 45.4582 43.7291 45.587L43.0362 48.693L43.3245 48.5881C43.7473 48.4215 44.2311 48.644 44.3865 49.0708C44.5418 49.4977 44.3299 49.9522 43.9071 50.1188L42.6034 50.6145L41.9166 53.714C41.7143 54.6145 41.0456 55.3286 40.1575 55.5798L39.5696 55.7471C39.3645 52.8535 39.1665 49.9445 39.2058 47.0468C37.3701 47.6301 35.652 48.1876 34.06 48.695L33.4065 51.6297Z" fill="#67285E"/>
<path d="M18.4306 34.8099L47.3342 24.7817C47.5327 24.7095 47.7475 24.8221 47.8198 25.0206C47.892 25.219 47.7944 25.4284 47.5959 25.5007L47.5847 25.5047L18.6797 35.5292C18.4813 35.6014 18.2565 35.4966 18.1955 35.2941C18.1233 35.0956 18.221 34.8862 18.4194 34.814L18.4306 34.8099Z" fill="#31213B"/>
<path d="M63.9156 14.5445L60.1617 10.0209L46.4201 20.6155L63.9156 14.5445ZM53.9777 6.4284L28.7871 26.7281L43.136 21.7515C43.136 21.7515 43.1445 21.7399 43.152 21.7371L59.4503 9.17306L57.4624 6.77563C56.5995 5.7328 55.0321 5.57394 53.9777 6.4284ZM21.0988 60.1633L16.9653 48.8066L14.0844 51.7379L21.0988 60.1633ZM16.5482 47.6609L13.441 39.1237L9.515 42.2827C8.99187 42.6979 8.66047 43.3019 8.59802 43.9691C8.5332 44.6415 8.72642 45.3005 9.16675 45.823L13.3767 50.8888L16.5482 47.6609ZM15.5487 41.7107L22.9312 61.9939C23.0443 62.3047 23.2142 62.5736 23.4247 62.8023L69.8583 45.8892C71.4908 45.295 72.8669 44.3107 73.9318 43.1005L66.3906 45.8453C66.1023 45.9502 65.787 45.8063 65.6807 45.5142C65.5744 45.2222 65.7234 44.9093 66.0117 44.8043L74.5826 41.6848C74.7062 41.6398 74.8413 41.65 74.9649 41.6983C76.4304 39.2821 76.8578 36.2855 75.9031 33.4061L71.879 21.2082L15.5487 41.7107ZM68.9372 13.9762L14.9772 32.6958L14.936 32.7108C14.3107 32.9384 13.8138 33.3907 13.5389 33.9869C13.2442 34.5987 13.2213 35.2813 13.4475 35.9028L15.181 40.6657L71.5525 20.1481L69.567 14.1455L69.4168 13.861C69.2599 13.8842 69.0944 13.9189 68.9372 13.9762ZM26.9042 67.1544C27.7658 68.1935 29.3305 68.3449 30.3876 67.4979L39.7905 59.9072L26.4483 64.5387C25.9237 64.7169 25.3879 64.7592 24.8554 64.6944L26.9042 67.1544ZM26.0438 67.8662L8.29988 46.5286C7.67428 45.7768 7.39008 44.8328 7.48852 43.8684C7.58186 42.9015 8.05208 42.0265 8.81072 41.4196L13.0277 38.0232L12.3994 36.297C12.0655 35.3797 12.1081 34.4016 12.5276 33.5153C12.9451 32.6467 13.7003 32.0072 14.6024 31.6661L25.8931 27.7475C25.9335 27.6607 25.9781 27.5851 26.0496 27.5251L53.2846 5.56118C54.8067 4.33721 57.0567 4.56566 58.3103 6.06422L65.0345 14.1584L68.5583 12.9352C70.4114 12.2947 72.4625 13.2697 73.1065 15.1089L82.5959 41.181C82.9298 42.0983 82.8872 43.0764 82.4677 43.9627C82.0615 44.8272 81.3444 45.4783 80.4532 45.8026L80.4008 45.8217L42.7752 58.8803C42.7377 58.9405 42.6962 58.9896 42.6407 59.0352L31.0694 68.3692C30.756 68.6148 30.4146 68.8069 30.0513 68.9391C28.6659 69.4433 27.0345 69.0618 26.0438 67.8662Z" fill="#31213B"/>
</g>
<defs>
<filter id="filter0_d_3153_2394" x="3.46948" y="0.773376" width="83.3484" height="72.3827" filterUnits="userSpaceOnUse" color-interpolation-filters="sRGB">
<feFlood flood-opacity="0" result="BackgroundImageFix"/>
<feColorMatrix in="SourceAlpha" type="matrix" values="0 0 0 0 0 0 0 0 0 0 0 0 0 0 0 0 0 0 127 0" result="hardAlpha"/>
<feOffset/>
<feGaussianBlur stdDeviation="2"/>
<feComposite in2="hardAlpha" operator="out"/>
<feColorMatrix type="matrix" values="0 0 0 0 0.737255 0 0 0 0 0.321569 0 0 0 0 0.678431 0 0 0 0.24 0"/>
<feBlend mode="normal" in2="BackgroundImageFix" result="effect1_dropShadow_3153_2394"/>
<feBlend mode="normal" in="SourceGraphic" in2="effect1_dropShadow_3153_2394" result="shape"/>
</filter>
</defs>
</svg>
