<svg width="139" height="74" viewBox="0 0 139 74" fill="none" xmlns="http://www.w3.org/2000/svg">
<g filter="url(#filter0_d_3153_2571)">
<path d="M9 9V57H118L130 65V33V9H21H9Z" fill="#170A15"/>
</g>
<g filter="url(#filter1_d_3153_2571)">
<path fill-rule="evenodd" clip-rule="evenodd" d="M8.375 9C8.375 8.65482 8.65482 8.375 9 8.375H130C130.345 8.375 130.625 8.65482 130.625 9V65C130.625 65.2305 130.498 65.4423 130.295 65.551C130.092 65.6598 129.845 65.6479 129.653 65.52L117.811 57.625H9C8.65482 57.625 8.375 57.3452 8.375 57V9ZM9.625 9.625V56.375H118C118.123 56.375 118.244 56.4115 118.347 56.48L129.375 63.8322V9.625H9.625Z" fill="#5A3C6C"/>
</g>
<g filter="url(#filter2_d_3153_2571)">
<path d="M23.4375 26.5625V24.9375H24.25V26.5625H23.4375ZM21.8125 29V26.5625H21V21.6875H22.625V26.5625H23.4375V29H21.8125ZM24.25 29V26.5625H25.0625V21.6875H26.6875V26.5625H25.875V29H24.25Z" fill="#5A3C6C"/>
<path d="M28.28 29V21.6875H29.905V24.9375H31.53V21.6875H33.155V29H31.53V25.75H29.905V29H28.28Z" fill="#5A3C6C"/>
<path d="M37.9975 25.75V23.3125H36.3725V25.75H37.9975ZM34.7475 29V23.3125H35.56V22.5H36.3725V21.6875H37.9975V22.5H38.81V23.3125H39.6225V29H37.9975V26.5625H36.3725V29H34.7475Z" fill="#5A3C6C"/>
<path d="M42.0275 29V28.1875H42.84V22.5H42.0275V23.3125H41.215V21.6875H46.09V23.3125H45.2775V22.5H44.465V28.1875H45.2775V29H42.0275Z" fill="#5A3C6C"/>
<path d="M54.15 28.1875V27.375H54.9625V23.3125H54.15V22.5H53.3375V28.1875H54.15ZM50.9 29V28.1875H51.7125V22.5H50.9V21.6875H54.9625V22.5H55.775V23.3125H56.5875V27.375H55.775V28.1875H54.9625V29H50.9Z" fill="#5A3C6C"/>
<path d="M61.43 25.75V23.3125H59.805V25.75H61.43ZM58.18 29V23.3125H58.9925V22.5H59.805V21.6875H61.43V22.5H62.2425V23.3125H63.055V29H61.43V26.5625H59.805V29H58.18Z" fill="#5A3C6C"/>
<path d="M65.46 29V28.1875H66.2725V22.5H65.46V23.3125H64.6475V21.6875H69.5225V23.3125H68.71V22.5H67.8975V28.1875H68.71V29H65.46Z" fill="#5A3C6C"/>
<path d="M74.365 25.75V23.3125H72.74V25.75H74.365ZM71.115 29V23.3125H71.9275V22.5H72.74V21.6875H74.365V22.5H75.1775V23.3125H75.99V29H74.365V26.5625H72.74V29H71.115Z" fill="#5A3C6C"/>
<path d="M84.05 25.75V23.3125H82.425V25.75H84.05ZM80.8 29V23.3125H81.6125V22.5H82.425V21.6875H84.05V22.5H84.8625V23.3125H85.675V29H84.05V26.5625H82.425V29H80.8Z" fill="#5A3C6C"/>
<path d="M91.33 28.1875V25.75H89.705V28.1875H91.33ZM91.33 24.9375V22.5H89.705V24.9375H91.33ZM87.2675 29V28.1875H88.08V22.5H87.2675V21.6875H92.1425V22.5H92.955V24.9375H92.1425V25.75H92.955V28.1875H92.1425V29H87.2675Z" fill="#5A3C6C"/>
<path d="M97.7975 28.1875V27.375H98.61V23.3125H97.7975V22.5H96.985V23.3125H96.1725V27.375H96.985V28.1875H97.7975ZM96.1725 29V28.1875H95.36V27.375H94.5475V23.3125H95.36V22.5H96.1725V21.6875H98.61V22.5H99.4225V23.3125H100.235V27.375H99.4225V28.1875H98.61V29H96.1725Z" fill="#5A3C6C"/>
<path d="M102.64 29V28.1875H101.827V21.6875H103.452V28.1875H105.077V21.6875H106.702V28.1875H105.89V29H102.64Z" fill="#5A3C6C"/>
<path d="M109.107 29V28.1875H109.92V22.5H109.107V23.3125H108.295V21.6875H113.17V23.3125H112.357V22.5H111.545V28.1875H112.357V29H109.107Z" fill="#5A3C6C"/>
<path d="M21 43V35.6875H22.625V36.5H23.4375V37.3125H24.25V36.5H25.0625V35.6875H26.6875V43H25.0625V38.9375H24.25V39.75H23.4375V38.9375H22.625V43H21Z" fill="#5A3C6C"/>
<path d="M28.28 43V42.1875H29.0925V36.5H28.28V35.6875H33.9675V37.3125H33.155V36.5H30.7175V38.9375H32.3425V38.125H33.155V40.5625H32.3425V39.75H30.7175V42.1875H33.155V41.375H33.9675V43H28.28Z" fill="#5A3C6C"/>
<path d="M38.7775 43V42.1875H39.59V36.5H38.7775V35.6875H42.0275V36.5H41.215V42.1875H42.0275V43H38.7775Z" fill="#5A3C6C"/>
<path d="M44.4325 43V42.1875H43.62V40.5625H45.245V42.1875H46.87V40.5625H46.0575V39.75H44.4325V38.9375H43.62V36.5H44.4325V35.6875H47.6825V36.5H48.495V38.125H46.87V36.5H45.245V38.9375H46.87V39.75H47.6825V40.5625H48.495V42.1875H47.6825V43H44.4325Z" fill="#5A3C6C"/>
<path d="M56.555 42.1875V41.375H57.3675V37.3125H56.555V36.5H55.7425V37.3125H54.93V41.375H55.7425V42.1875H56.555ZM54.93 43V42.1875H54.1175V41.375H53.305V37.3125H54.1175V36.5H54.93V35.6875H57.3675V36.5H58.18V37.3125H58.9925V41.375H58.18V42.1875H57.3675V43H54.93Z" fill="#5A3C6C"/>
<path d="M61.3975 43V42.1875H60.585V35.6875H62.21V42.1875H63.835V35.6875H65.46V42.1875H64.6475V43H61.3975Z" fill="#5A3C6C"/>
<path d="M67.865 43V42.1875H68.6775V36.5H67.865V37.3125H67.0525V35.6875H71.9275V37.3125H71.115V36.5H70.3025V42.1875H71.115V43H67.865Z" fill="#5A3C6C"/>
<path d="M77.55 43V42.1875H78.3625V36.5H77.55V37.3125H76.7375V35.6875H81.6125V37.3125H80.8V36.5H79.9875V42.1875H80.8V43H77.55Z" fill="#5A3C6C"/>
<path d="M83.205 43V35.6875H84.83V38.9375H86.455V35.6875H88.08V43H86.455V39.75H84.83V43H83.205Z" fill="#5A3C6C"/>
<path d="M89.6725 43V42.1875H90.485V36.5H89.6725V35.6875H95.36V37.3125H94.5475V36.5H92.11V38.9375H93.735V38.125H94.5475V40.5625H93.735V39.75H92.11V42.1875H94.5475V41.375H95.36V43H89.6725Z" fill="#5A3C6C"/>
<path d="M101.015 38.9375V36.5H99.39V38.9375H101.015ZM96.9525 43V42.1875H97.765V36.5H96.9525V35.6875H101.827V36.5H102.64V38.9375H101.827V40.5625H102.64V43H101.015V40.5625H100.202V39.75H99.39V43H96.9525Z" fill="#5A3C6C"/>
<path d="M104.232 43V42.1875H105.045V36.5H104.232V35.6875H109.92V37.3125H109.107V36.5H106.67V38.9375H108.295V38.125H109.107V40.5625H108.295V39.75H106.67V42.1875H109.107V41.375H109.92V43H104.232Z" fill="#5A3C6C"/>
<path d="M113.137 43V41.375H114.762V43H113.137ZM113.137 40.5625V38.9375H113.95V38.125H114.762V36.5H113.137V37.3125H111.512V36.5H112.325V35.6875H115.575V36.5H116.387V38.125H115.575V38.9375H114.762V40.5625H113.137Z" fill="#5A3C6C"/>
</g>
<defs>
<filter id="filter0_d_3153_2571" x="1" y="1" width="137" height="72" filterUnits="userSpaceOnUse" color-interpolation-filters="sRGB">
<feFlood flood-opacity="0" result="BackgroundImageFix"/>
<feColorMatrix in="SourceAlpha" type="matrix" values="0 0 0 0 0 0 0 0 0 0 0 0 0 0 0 0 0 0 127 0" result="hardAlpha"/>
<feOffset/>
<feGaussianBlur stdDeviation="4"/>
<feComposite in2="hardAlpha" operator="out"/>
<feColorMatrix type="matrix" values="0 0 0 0 0.737255 0 0 0 0 0.321569 0 0 0 0 0.678431 0 0 0 0.28 0"/>
<feBlend mode="normal" in2="BackgroundImageFix" result="effect1_dropShadow_3153_2571"/>
<feBlend mode="normal" in="SourceGraphic" in2="effect1_dropShadow_3153_2571" result="shape"/>
</filter>
<filter id="filter1_d_3153_2571" x="0.375" y="0.375" width="138.25" height="73.25" filterUnits="userSpaceOnUse" color-interpolation-filters="sRGB">
<feFlood flood-opacity="0" result="BackgroundImageFix"/>
<feColorMatrix in="SourceAlpha" type="matrix" values="0 0 0 0 0 0 0 0 0 0 0 0 0 0 0 0 0 0 127 0" result="hardAlpha"/>
<feOffset/>
<feGaussianBlur stdDeviation="4"/>
<feComposite in2="hardAlpha" operator="out"/>
<feColorMatrix type="matrix" values="0 0 0 0 0.737255 0 0 0 0 0.321569 0 0 0 0 0.678431 0 0 0 0.28 0"/>
<feBlend mode="normal" in2="BackgroundImageFix" result="effect1_dropShadow_3153_2571"/>
<feBlend mode="normal" in="SourceGraphic" in2="effect1_dropShadow_3153_2571" result="shape"/>
</filter>
<filter id="filter2_d_3153_2571" x="13" y="13.6875" width="111.387" height="37.3125" filterUnits="userSpaceOnUse" color-interpolation-filters="sRGB">
<feFlood flood-opacity="0" result="BackgroundImageFix"/>
<feColorMatrix in="SourceAlpha" type="matrix" values="0 0 0 0 0 0 0 0 0 0 0 0 0 0 0 0 0 0 127 0" result="hardAlpha"/>
<feOffset/>
<feGaussianBlur stdDeviation="4"/>
<feComposite in2="hardAlpha" operator="out"/>
<feColorMatrix type="matrix" values="0 0 0 0 0.737255 0 0 0 0 0.321569 0 0 0 0 0.678431 0 0 0 0.28 0"/>
<feBlend mode="normal" in2="BackgroundImageFix" result="effect1_dropShadow_3153_2571"/>
<feBlend mode="normal" in="SourceGraphic" in2="effect1_dropShadow_3153_2571" result="shape"/>
</filter>
</defs>
</svg>
