<svg width="151" height="88" viewBox="0 0 151 88" fill="none" xmlns="http://www.w3.org/2000/svg">
<g filter="url(#filter0_d_3153_2567)">
<path d="M142 9V71H21.5L9.5 79V9H94H142Z" fill="#1D0E1B"/>
</g>
<g filter="url(#filter1_d_3153_2567)">
<path fill-rule="evenodd" clip-rule="evenodd" d="M142.625 9C142.625 8.65482 142.345 8.375 142 8.375H9.5C9.15482 8.375 8.875 8.65482 8.875 9V79C8.875 79.2305 9.00186 79.4423 9.20509 79.551C9.40831 79.6598 9.65491 79.6479 9.84669 79.52L21.6892 71.625H142C142.345 71.625 142.625 71.3452 142.625 71V9ZM141.375 9.625V70.375H21.5C21.3766 70.375 21.256 70.4115 21.1533 70.48L10.125 77.8322V9.625H141.375Z" fill="#8C367F"/>
</g>
<g filter="url(#filter2_d_3153_2567)">
<path d="M24.4375 26.5625V24.9375H25.25V26.5625H24.4375ZM22.8125 29V26.5625H22V21.6875H23.625V26.5625H24.4375V29H22.8125ZM25.25 29V26.5625H26.0625V21.6875H27.6875V26.5625H26.875V29H25.25Z" fill="#8C367F"/>
<path d="M29.28 29V21.6875H30.905V24.9375H32.53V21.6875H34.155V29H32.53V25.75H30.905V29H29.28Z" fill="#8C367F"/>
<path d="M38.9975 28.1875V27.375H39.81V23.3125H38.9975V22.5H38.185V23.3125H37.3725V27.375H38.185V28.1875H38.9975ZM37.3725 29V28.1875H36.56V27.375H35.7475V23.3125H36.56V22.5H37.3725V21.6875H39.81V22.5H40.6225V23.3125H41.435V27.375H40.6225V28.1875H39.81V29H37.3725Z" fill="#8C367F"/>
<path d="M45.1465 19.861C45.0685 20.1643 44.9688 20.4937 44.8475 20.849C44.7262 21.2043 44.5918 21.5597 44.4445 21.915C44.3058 22.2617 44.1672 22.591 44.0285 22.903H43.1835C43.2442 22.6603 43.3048 22.4003 43.3655 22.123C43.4348 21.8457 43.4955 21.5683 43.5475 21.291C43.6082 21.005 43.6602 20.7277 43.7035 20.459C43.7555 20.1903 43.7988 19.9433 43.8335 19.718H45.0555L45.1465 19.861Z" fill="#8C367F"/>
<path d="M46.8925 29V28.1875H46.08V26.5625H47.705V28.1875H49.33V26.5625H48.5175V25.75H46.8925V24.9375H46.08V22.5H46.8925V21.6875H50.1425V22.5H50.955V24.125H49.33V22.5H47.705V24.9375H49.33V25.75H50.1425V26.5625H50.955V28.1875H50.1425V29H46.8925Z" fill="#8C367F"/>
<path d="M59.795 29V28.1875H60.6075V22.5H59.795V23.3125H58.9825V21.6875H63.8575V23.3125H63.045V22.5H62.2325V28.1875H63.045V29H59.795Z" fill="#8C367F"/>
<path d="M69.5125 24.9375V22.5H67.8875V24.9375H69.5125ZM65.45 29V28.1875H66.2625V22.5H65.45V21.6875H70.325V22.5H71.1375V24.9375H70.325V26.5625H71.1375V29H69.5125V26.5625H68.7V25.75H67.8875V29H65.45Z" fill="#8C367F"/>
<path d="M75.98 25.75V23.3125H74.355V25.75H75.98ZM72.73 29V23.3125H73.5425V22.5H74.355V21.6875H75.98V22.5H76.7925V23.3125H77.605V29H75.98V26.5625H74.355V29H72.73Z" fill="#8C367F"/>
<path d="M80.8225 29V28.1875H80.01V27.375H79.1975V23.3125H80.01V22.5H80.8225V21.6875H84.0725V22.5H84.885V24.125H83.26V22.5H81.635V23.3125H80.8225V27.375H81.635V28.1875H83.26V26.5625H84.885V28.1875H84.0725V29H80.8225Z" fill="#8C367F"/>
<path d="M86.4775 29V28.1875H87.29V22.5H86.4775V21.6875H88.915V24.9375H89.7275V23.3125H90.54V21.6875H92.165V23.3125H91.3525V24.9375H90.54V25.75H91.3525V27.375H92.165V29H90.54V27.375H89.7275V25.75H88.915V29H86.4775Z" fill="#8C367F"/>
<path d="M93.7575 29V28.1875H94.57V22.5H93.7575V21.6875H97.0075V22.5H96.195V28.1875H97.0075V29H93.7575Z" fill="#8C367F"/>
<path d="M98.6 29V21.6875H100.225V23.3125H101.037V24.125H101.85V24.9375H102.662V21.6875H104.287V29H102.662V27.375H101.85V26.5625H101.037V25.75H100.225V29H98.6Z" fill="#8C367F"/>
<path d="M107.505 29V28.1875H106.692V27.375H105.88V23.3125H106.692V22.5H107.505V21.6875H110.755V22.5H111.567V24.125H109.942V22.5H108.317V23.3125H107.505V27.375H108.317V28.1875H109.942V26.5625H109.13V25.75H111.567V29H107.505Z" fill="#8C367F"/>
<path d="M116.377 29V21.6875H118.002V22.5H118.815V23.3125H119.627V22.5H120.44V21.6875H122.065V29H120.44V24.9375H119.627V25.75H118.815V24.9375H118.002V29H116.377Z" fill="#8C367F"/>
<path d="M124.47 29V28.1875H125.282V24.9375H124.47V24.125H123.657V21.6875H125.282V24.125H126.907V21.6875H128.532V24.125H127.72V24.9375H126.907V28.1875H127.72V29H124.47Z" fill="#8C367F"/>
<path d="M26.0625 38.9375V36.5H24.4375V38.9375H26.0625ZM22 43V42.1875H22.8125V36.5H22V35.6875H26.875V36.5H27.6875V38.9375H26.875V39.75H24.4375V42.1875H25.25V43H22Z" fill="#8C367F"/>
<path d="M33.3425 38.9375V36.5H31.7175V38.9375H33.3425ZM29.28 43V42.1875H30.0925V36.5H29.28V35.6875H34.155V36.5H34.9675V38.9375H34.155V40.5625H34.9675V43H33.3425V40.5625H32.53V39.75H31.7175V43H29.28Z" fill="#8C367F"/>
<path d="M36.56 43V42.1875H37.3725V36.5H36.56V35.6875H42.2475V37.3125H41.435V36.5H38.9975V38.9375H40.6225V38.125H41.435V40.5625H40.6225V39.75H38.9975V42.1875H41.435V41.375H42.2475V43H36.56Z" fill="#8C367F"/>
<path d="M43.84 43V42.1875H44.6525V36.5H43.84V35.6875H49.5275V38.125H48.715V37.3125H47.9025V36.5H46.2775V38.9375H47.9025V38.125H48.715V40.5625H47.9025V39.75H46.2775V42.1875H47.09V43H43.84Z" fill="#8C367F"/>
<path d="M51.12 43V42.1875H51.9325V36.5H51.12V35.6875H56.8075V37.3125H55.995V36.5H53.5575V38.9375H55.1825V38.125H55.995V40.5625H55.1825V39.75H53.5575V42.1875H55.995V41.375H56.8075V43H51.12Z" fill="#8C367F"/>
<path d="M62.4625 38.9375V36.5H60.8375V38.9375H62.4625ZM58.4 43V42.1875H59.2125V36.5H58.4V35.6875H63.275V36.5H64.0875V38.9375H63.275V40.5625H64.0875V43H62.4625V40.5625H61.65V39.75H60.8375V43H58.4Z" fill="#8C367F"/>
<path d="M65.68 43V42.1875H66.4925V36.5H65.68V35.6875H71.3675V37.3125H70.555V36.5H68.1175V38.9375H69.7425V38.125H70.555V40.5625H69.7425V39.75H68.1175V42.1875H70.555V41.375H71.3675V43H65.68Z" fill="#8C367F"/>
<path d="M72.96 43V35.6875H74.585V37.3125H75.3975V38.125H76.21V38.9375H77.0225V35.6875H78.6475V43H77.0225V41.375H76.21V40.5625H75.3975V39.75H74.585V43H72.96Z" fill="#8C367F"/>
<path d="M81.865 43V42.1875H81.0525V41.375H80.24V37.3125H81.0525V36.5H81.865V35.6875H85.115V36.5H85.9275V38.125H84.3025V36.5H82.6775V37.3125H81.865V41.375H82.6775V42.1875H84.3025V40.5625H85.9275V42.1875H85.115V43H81.865Z" fill="#8C367F"/>
<path d="M87.52 43V42.1875H88.3325V36.5H87.52V35.6875H93.2075V37.3125H92.395V36.5H89.9575V38.9375H91.5825V38.125H92.395V40.5625H91.5825V39.75H89.9575V42.1875H92.395V41.375H93.2075V43H87.52Z" fill="#8C367F"/>
<path d="M95.6125 43V42.1875H94.8V40.5625H96.425V42.1875H98.05V40.5625H97.2375V39.75H95.6125V38.9375H94.8V36.5H95.6125V35.6875H98.8625V36.5H99.675V38.125H98.05V36.5H96.425V38.9375H98.05V39.75H98.8625V40.5625H99.675V42.1875H98.8625V43H95.6125Z" fill="#8C367F"/>
<path d="M107.735 39.75V37.3125H106.11V39.75H107.735ZM104.485 43V37.3125H105.298V36.5H106.11V35.6875H107.735V36.5H108.548V37.3125H109.36V43H107.735V40.5625H106.11V43H104.485Z" fill="#8C367F"/>
<path d="M110.952 43V35.6875H112.577V37.3125H113.39V38.125H114.202V38.9375H115.015V35.6875H116.64V43H115.015V41.375H114.202V40.5625H113.39V39.75H112.577V43H110.952Z" fill="#8C367F"/>
<path d="M121.482 42.1875V41.375H122.295V37.3125H121.482V36.5H120.67V42.1875H121.482ZM118.232 43V42.1875H119.045V36.5H118.232V35.6875H122.295V36.5H123.107V37.3125H123.92V41.375H123.107V42.1875H122.295V43H118.232Z" fill="#8C367F"/>
<path d="M22 57V56.1875H22.8125V50.5H22V49.6875H25.25V50.5H24.4375V56.1875H25.25V57H22Z" fill="#8C367F"/>
<path d="M26.8425 57V49.6875H28.4675V51.3125H29.28V52.125H30.0925V52.9375H30.905V49.6875H32.53V57H30.905V55.375H30.0925V54.5625H29.28V53.75H28.4675V57H26.8425Z" fill="#8C367F"/>
<path d="M34.935 57V56.1875H35.7475V50.5H34.935V51.3125H34.1225V49.6875H38.9975V51.3125H38.185V50.5H37.3725V56.1875H38.185V57H34.935Z" fill="#8C367F"/>
<path d="M40.59 57V56.1875H41.4025V50.5H40.59V49.6875H46.2775V51.3125H45.465V50.5H43.0275V52.9375H44.6525V52.125H45.465V54.5625H44.6525V53.75H43.0275V56.1875H45.465V55.375H46.2775V57H40.59Z" fill="#8C367F"/>
<path d="M51.9325 52.9375V50.5H50.3075V52.9375H51.9325ZM47.87 57V56.1875H48.6825V50.5H47.87V49.6875H52.745V50.5H53.5575V52.9375H52.745V54.5625H53.5575V57H51.9325V54.5625H51.12V53.75H50.3075V57H47.87Z" fill="#8C367F"/>
<path d="M55.15 57V56.1875H55.9625V50.5H55.15V49.6875H60.8375V51.3125H60.025V50.5H57.5875V52.9375H59.2125V52.125H60.025V54.5625H59.2125V53.75H57.5875V56.1875H60.025V55.375H60.8375V57H55.15Z" fill="#8C367F"/>
<path d="M63.2425 57V56.1875H62.43V54.5625H64.055V56.1875H65.68V54.5625H64.8675V53.75H63.2425V52.9375H62.43V50.5H63.2425V49.6875H66.4925V50.5H67.305V52.125H65.68V50.5H64.055V52.9375H65.68V53.75H66.4925V54.5625H67.305V56.1875H66.4925V57H63.2425Z" fill="#8C367F"/>
<path d="M69.71 57V56.1875H70.5225V50.5H69.71V51.3125H68.8975V49.6875H73.7725V51.3125H72.96V50.5H72.1475V56.1875H72.96V57H69.71Z" fill="#8C367F"/>
<path d="M76.1775 57V56.1875H75.365V54.5625H76.99V56.1875H78.615V54.5625H77.8025V53.75H76.1775V52.9375H75.365V50.5H76.1775V49.6875H79.4275V50.5H80.24V52.125H78.615V50.5H76.99V52.9375H78.615V53.75H79.4275V54.5625H80.24V56.1875H79.4275V57H76.1775Z" fill="#8C367F"/>
<path d="M83.4575 57V55.375H85.0825V57H83.4575ZM83.4575 54.5625V52.9375H84.27V52.125H85.0825V50.5H83.4575V51.3125H81.8325V50.5H82.645V49.6875H85.895V50.5H86.7075V52.125H85.895V52.9375H85.0825V54.5625H83.4575Z" fill="#8C367F"/>
</g>
<defs>
<filter id="filter0_d_3153_2567" x="1.5" y="1" width="148.5" height="86" filterUnits="userSpaceOnUse" color-interpolation-filters="sRGB">
<feFlood flood-opacity="0" result="BackgroundImageFix"/>
<feColorMatrix in="SourceAlpha" type="matrix" values="0 0 0 0 0 0 0 0 0 0 0 0 0 0 0 0 0 0 127 0" result="hardAlpha"/>
<feOffset/>
<feGaussianBlur stdDeviation="4"/>
<feComposite in2="hardAlpha" operator="out"/>
<feColorMatrix type="matrix" values="0 0 0 0 0.737255 0 0 0 0 0.321569 0 0 0 0 0.678431 0 0 0 0.28 0"/>
<feBlend mode="normal" in2="BackgroundImageFix" result="effect1_dropShadow_3153_2567"/>
<feBlend mode="normal" in="SourceGraphic" in2="effect1_dropShadow_3153_2567" result="shape"/>
</filter>
<filter id="filter1_d_3153_2567" x="0.875" y="0.375" width="149.75" height="87.25" filterUnits="userSpaceOnUse" color-interpolation-filters="sRGB">
<feFlood flood-opacity="0" result="BackgroundImageFix"/>
<feColorMatrix in="SourceAlpha" type="matrix" values="0 0 0 0 0 0 0 0 0 0 0 0 0 0 0 0 0 0 127 0" result="hardAlpha"/>
<feOffset/>
<feGaussianBlur stdDeviation="4"/>
<feComposite in2="hardAlpha" operator="out"/>
<feColorMatrix type="matrix" values="0 0 0 0 0.737255 0 0 0 0 0.321569 0 0 0 0 0.678431 0 0 0 0.28 0"/>
<feBlend mode="normal" in2="BackgroundImageFix" result="effect1_dropShadow_3153_2567"/>
<feBlend mode="normal" in="SourceGraphic" in2="effect1_dropShadow_3153_2567" result="shape"/>
</filter>
<filter id="filter2_d_3153_2567" x="14" y="11.718" width="122.532" height="53.282" filterUnits="userSpaceOnUse" color-interpolation-filters="sRGB">
<feFlood flood-opacity="0" result="BackgroundImageFix"/>
<feColorMatrix in="SourceAlpha" type="matrix" values="0 0 0 0 0 0 0 0 0 0 0 0 0 0 0 0 0 0 127 0" result="hardAlpha"/>
<feOffset/>
<feGaussianBlur stdDeviation="4"/>
<feComposite in2="hardAlpha" operator="out"/>
<feColorMatrix type="matrix" values="0 0 0 0 0.737255 0 0 0 0 0.321569 0 0 0 0 0.678431 0 0 0 0.28 0"/>
<feBlend mode="normal" in2="BackgroundImageFix" result="effect1_dropShadow_3153_2567"/>
<feBlend mode="normal" in="SourceGraphic" in2="effect1_dropShadow_3153_2567" result="shape"/>
</filter>
</defs>
</svg>
