<svg width="405" height="320" viewBox="0 0 405 320" fill="none" xmlns="http://www.w3.org/2000/svg">
<g clip-path="url(#clip0_6627_6268)">
<ellipse cx="318.056" cy="2.5" rx="0.5" ry="0.5" transform="rotate(90 318.056 2.5)" fill="#020617" fill-opacity="0.15"/>
<ellipse cx="217.056" cy="84.2822" rx="0.5" ry="0.5" transform="rotate(90 217.056 84.2822)" fill="#020617" fill-opacity="0.35"/>
<ellipse cx="228.723" cy="95.1719" rx="0.5" ry="0.5" transform="rotate(90 228.723 95.1719)" fill="#020617" fill-opacity="0.15"/>
<ellipse cx="217.056" cy="105.283" rx="0.5" ry="0.5" transform="rotate(90 217.056 105.283)" fill="#4F868E"/>
<ellipse cx="320.11" cy="68.8999" rx="0.5" ry="0.5" transform="rotate(180 320.11 68.8999)" fill="#020617" fill-opacity="0.15"/>
<ellipse cx="340.722" cy="68.9004" rx="0.5" ry="0.5" transform="rotate(180 340.722 68.9004)" fill="#020617" fill-opacity="0.15"/>
<ellipse cx="355.5" cy="68.8999" rx="0.5" ry="0.5" transform="rotate(180 355.5 68.8999)" fill="#4F868E"/>
<ellipse cx="309.221" cy="68.9004" rx="0.5" ry="0.5" transform="rotate(180 309.221 68.9004)" fill="#020617" fill-opacity="0.35"/>
<ellipse cx="331.388" cy="61.8999" rx="0.5" ry="0.5" transform="rotate(180 331.388 61.8999)" fill="#4F868E"/>
<ellipse cx="285.497" cy="29.6133" rx="0.5" ry="0.5" transform="rotate(180 285.497 29.6133)" fill="#4F868E"/>
<ellipse cx="292.497" cy="10.9458" rx="0.5" ry="0.5" transform="rotate(180 292.497 10.9458)" fill="#4F868E"/>
<ellipse cx="299.887" cy="53.3442" rx="0.5" ry="0.5" transform="rotate(180 299.887 53.3442)" fill="#020617" fill-opacity="0.35"/>
<ellipse cx="268.386" cy="41.6768" rx="0.5" ry="0.5" transform="rotate(180 268.386 41.6768)" fill="#020617" fill-opacity="0.15"/>
<ellipse cx="276.941" cy="21.0571" rx="0.5" ry="0.5" transform="rotate(180 276.941 21.0571)" fill="#F4B62B"/>
<ellipse cx="259.829" cy="36.2319" rx="0.5" ry="0.5" transform="rotate(180 259.829 36.2319)" fill="#020617" fill-opacity="0.15"/>
<ellipse cx="248.162" cy="47.8994" rx="0.5" ry="0.5" transform="rotate(180 248.162 47.8994)" fill="#020617" fill-opacity="0.15"/>
<ellipse cx="217.828" cy="69.2812" rx="0.5" ry="0.5" transform="rotate(180 217.828 69.2812)" fill="#020617" fill-opacity="0.15"/>
<ellipse cx="258.279" cy="61.8999" rx="0.5" ry="0.5" transform="rotate(180 258.279 61.8999)" fill="#020617" fill-opacity="0.35"/>
<ellipse cx="268.774" cy="68.9004" rx="0.5" ry="0.5" transform="rotate(180 268.774 68.9004)" fill="#020617" fill-opacity="0.15"/>
<ellipse cx="241.168" cy="68.8999" rx="0.5" ry="0.5" transform="rotate(180 241.168 68.8999)" fill="#F4B62B"/>
<ellipse cx="285.497" cy="46.7246" rx="0.5" ry="0.5" transform="rotate(180 285.497 46.7246)" fill="#020617" fill-opacity="0.15"/>
<ellipse cx="277.33" cy="61.8999" rx="0.5" ry="0.5" transform="rotate(180 277.33 61.8999)" fill="#020617" fill-opacity="0.15"/>
<ellipse cx="308.831" cy="10.9458" rx="0.5" ry="0.5" transform="rotate(180 308.831 10.9458)" fill="#BC52AD"/>
<ellipse cx="303.393" cy="41.6768" rx="0.5" ry="0.5" transform="rotate(180 303.393 41.6768)" fill="#BC52AD"/>
<path d="M168 81C168 65.536 180.536 53 196 53H408V323H196C180.536 323 168 310.464 168 295V81Z" fill="url(#paint0_linear_6627_6268)"/>
<path d="M410.5 53V50.5H408H196C179.155 50.5 165.5 64.1553 165.5 81V295C165.5 311.845 179.155 325.5 196 325.5H408H410.5V323V53Z" stroke="url(#paint1_linear_6627_6268)" stroke-opacity="0.1" stroke-width="5"/>
<path d="M190.476 94L194.109 83.878H195.957L199.59 94H197.882L196.979 91.459H193.101L192.191 94H190.476ZM193.507 89.947H196.552L195.033 85.53L193.507 89.947ZM203.581 94.14C202.625 94.14 201.873 93.811 201.327 93.153C200.781 92.495 200.508 91.5593 200.508 90.346C200.508 89.59 200.618 88.9343 200.837 88.379C201.061 87.819 201.39 87.3873 201.824 87.084C202.258 86.776 202.793 86.622 203.427 86.622C203.726 86.622 203.997 86.6593 204.239 86.734C204.487 86.804 204.706 86.8973 204.897 87.014C205.089 87.1307 205.25 87.259 205.38 87.399C205.516 87.539 205.621 87.679 205.695 87.819V83.598H207.41V94H206.15L205.961 92.516C205.901 92.6887 205.814 92.8707 205.702 93.062C205.595 93.2487 205.448 93.4237 205.261 93.587C205.079 93.7503 204.851 93.8833 204.575 93.986C204.3 94.0887 203.969 94.14 203.581 94.14ZM203.931 92.887C204.543 92.887 204.988 92.6887 205.268 92.292C205.553 91.8907 205.695 91.228 205.695 90.304C205.691 89.7767 205.625 89.3333 205.499 88.974C205.378 88.6147 205.191 88.344 204.939 88.162C204.687 87.98 204.358 87.889 203.952 87.889C203.439 87.889 203.017 88.078 202.685 88.456C202.359 88.834 202.195 89.45 202.195 90.304C202.195 91.1533 202.347 91.7973 202.65 92.236C202.954 92.67 203.381 92.887 203.931 92.887ZM212.087 94.14C211.13 94.14 210.379 93.811 209.833 93.153C209.287 92.495 209.014 91.5593 209.014 90.346C209.014 89.59 209.124 88.9343 209.343 88.379C209.567 87.819 209.896 87.3873 210.33 87.084C210.764 86.776 211.298 86.622 211.933 86.622C212.232 86.622 212.502 86.6593 212.745 86.734C212.992 86.804 213.212 86.8973 213.403 87.014C213.594 87.1307 213.755 87.259 213.886 87.399C214.021 87.539 214.126 87.679 214.201 87.819V83.598H215.916V94H214.656L214.467 92.516C214.406 92.6887 214.32 92.8707 214.208 93.062C214.101 93.2487 213.954 93.4237 213.767 93.587C213.585 93.7503 213.356 93.8833 213.081 93.986C212.806 94.0887 212.474 94.14 212.087 94.14ZM212.437 92.887C213.048 92.887 213.494 92.6887 213.774 92.292C214.059 91.8907 214.201 91.228 214.201 90.304C214.196 89.7767 214.131 89.3333 214.005 88.974C213.884 88.6147 213.697 88.344 213.445 88.162C213.193 87.98 212.864 87.889 212.458 87.889C211.945 87.889 211.522 88.078 211.191 88.456C210.864 88.834 210.701 89.45 210.701 90.304C210.701 91.1533 210.853 91.7973 211.156 92.236C211.459 92.67 211.886 92.887 212.437 92.887ZM224.157 94.14C223.494 94.14 222.904 93.9953 222.386 93.706C221.873 93.412 221.469 92.9873 221.175 92.432C220.881 91.872 220.734 91.1977 220.734 90.409C220.734 89.6577 220.872 88.9997 221.147 88.435C221.427 87.8657 221.821 87.4223 222.33 87.105C222.843 86.783 223.452 86.622 224.157 86.622C224.722 86.622 225.219 86.734 225.648 86.958C226.077 87.182 226.42 87.4923 226.677 87.889C226.938 88.2857 227.095 88.736 227.146 89.24H225.697C225.66 89.0207 225.578 88.813 225.452 88.617C225.326 88.4163 225.156 88.2553 224.941 88.134C224.731 88.008 224.474 87.945 224.171 87.945C223.625 87.945 223.184 88.1457 222.848 88.547C222.512 88.9483 222.344 89.5643 222.344 90.395C222.344 91.1603 222.503 91.7693 222.82 92.222C223.142 92.6747 223.602 92.901 224.199 92.901C224.498 92.901 224.754 92.8357 224.969 92.705C225.184 92.5697 225.352 92.404 225.473 92.208C225.599 92.0073 225.678 91.8067 225.711 91.606H227.125C227.083 92.096 226.931 92.5323 226.67 92.915C226.409 93.2977 226.063 93.5987 225.634 93.818C225.205 94.0327 224.712 94.14 224.157 94.14ZM228.763 94V86.762H230.394V88.33C230.511 87.9707 230.677 87.665 230.891 87.413C231.111 87.1563 231.367 86.9603 231.661 86.825C231.955 86.6897 232.275 86.622 232.62 86.622C232.704 86.622 232.786 86.6267 232.865 86.636C232.945 86.6453 233.003 86.6617 233.04 86.685V88.316C232.989 88.2927 232.921 88.2763 232.837 88.267C232.758 88.2577 232.688 88.253 232.627 88.253C232.277 88.225 231.967 88.239 231.696 88.295C231.43 88.351 231.204 88.4467 231.017 88.582C230.835 88.7127 230.698 88.8807 230.604 89.086C230.511 89.2867 230.464 89.5223 230.464 89.793V94H228.763ZM237.61 94.14C236.915 94.14 236.301 93.993 235.769 93.699C235.242 93.4003 234.829 92.9757 234.53 92.425C234.236 91.8743 234.089 91.2187 234.089 90.458C234.089 89.716 234.222 89.058 234.488 88.484C234.759 87.9053 235.149 87.4503 235.657 87.119C236.171 86.7877 236.789 86.622 237.512 86.622C238.226 86.622 238.826 86.7737 239.311 87.077C239.797 87.3803 240.165 87.805 240.417 88.351C240.669 88.8923 240.795 89.527 240.795 90.255V90.773H235.79C235.786 91.1837 235.851 91.5477 235.986 91.865C236.122 92.1823 236.322 92.432 236.588 92.614C236.854 92.7913 237.183 92.88 237.575 92.88C237.977 92.88 238.324 92.7913 238.618 92.614C238.917 92.432 239.115 92.1567 239.213 91.788H240.767C240.683 92.292 240.483 92.719 240.165 93.069C239.853 93.419 239.47 93.685 239.017 93.867C238.569 94.049 238.1 94.14 237.61 94.14ZM235.783 89.716H239.185C239.185 89.366 239.122 89.051 238.996 88.771C238.875 88.4863 238.691 88.2623 238.443 88.099C238.196 87.931 237.883 87.847 237.505 87.847C237.132 87.847 236.817 87.938 236.56 88.12C236.304 88.302 236.11 88.5377 235.979 88.827C235.849 89.1117 235.783 89.408 235.783 89.716ZM245.181 94.14C244.224 94.14 243.473 93.811 242.927 93.153C242.381 92.495 242.108 91.5593 242.108 90.346C242.108 89.59 242.218 88.9343 242.437 88.379C242.661 87.819 242.99 87.3873 243.424 87.084C243.858 86.776 244.392 86.622 245.027 86.622C245.326 86.622 245.596 86.6593 245.839 86.734C246.086 86.804 246.306 86.8973 246.497 87.014C246.688 87.1307 246.849 87.259 246.98 87.399C247.115 87.539 247.22 87.679 247.295 87.819V83.598H249.01V94H247.75L247.561 92.516C247.5 92.6887 247.414 92.8707 247.302 93.062C247.195 93.2487 247.048 93.4237 246.861 93.587C246.679 93.7503 246.45 93.8833 246.175 93.986C245.9 94.0887 245.568 94.14 245.181 94.14ZM245.531 92.887C246.142 92.887 246.588 92.6887 246.868 92.292C247.153 91.8907 247.295 91.228 247.295 90.304C247.29 89.7767 247.225 89.3333 247.099 88.974C246.978 88.6147 246.791 88.344 246.539 88.162C246.287 87.98 245.958 87.889 245.552 87.889C245.039 87.889 244.616 88.078 244.285 88.456C243.958 88.834 243.795 89.45 243.795 90.304C243.795 91.1533 243.947 91.7973 244.25 92.236C244.553 92.67 244.98 92.887 245.531 92.887ZM251.095 94V86.762H252.726V94H251.095ZM251.067 85.495V83.885H252.754V85.495H251.067ZM257.651 94.056C257.077 94.056 256.632 93.9813 256.314 93.832C256.002 93.678 255.785 93.461 255.663 93.181C255.542 92.901 255.481 92.5673 255.481 92.18V87.966H254.305V86.762H255.53L255.957 84.613H257.182V86.755H258.799V87.966H257.182L257.189 92.117C257.189 92.3317 257.213 92.4903 257.259 92.593C257.311 92.691 257.39 92.7563 257.497 92.789C257.609 92.817 257.756 92.831 257.938 92.831H258.834V93.909C258.736 93.9463 258.592 93.979 258.4 94.007C258.214 94.0397 257.964 94.056 257.651 94.056ZM266.729 94.14C266.066 94.14 265.476 93.9953 264.958 93.706C264.445 93.412 264.041 92.9873 263.747 92.432C263.453 91.872 263.306 91.1977 263.306 90.409C263.306 89.6577 263.444 88.9997 263.719 88.435C263.999 87.8657 264.393 87.4223 264.902 87.105C265.415 86.783 266.024 86.622 266.729 86.622C267.294 86.622 267.791 86.734 268.22 86.958C268.649 87.182 268.992 87.4923 269.249 87.889C269.51 88.2857 269.667 88.736 269.718 89.24H268.269C268.232 89.0207 268.15 88.813 268.024 88.617C267.898 88.4163 267.728 88.2553 267.513 88.134C267.303 88.008 267.046 87.945 266.743 87.945C266.197 87.945 265.756 88.1457 265.42 88.547C265.084 88.9483 264.916 89.5643 264.916 90.395C264.916 91.1603 265.075 91.7693 265.392 92.222C265.714 92.6747 266.174 92.901 266.771 92.901C267.07 92.901 267.326 92.8357 267.541 92.705C267.756 92.5697 267.924 92.404 268.045 92.208C268.171 92.0073 268.25 91.8067 268.283 91.606H269.697C269.655 92.096 269.503 92.5323 269.242 92.915C268.981 93.2977 268.635 93.5987 268.206 93.818C267.777 94.0327 267.284 94.14 266.729 94.14ZM273.428 94.14C272.966 94.14 272.551 94.056 272.182 93.888C271.818 93.7153 271.531 93.4703 271.321 93.153C271.116 92.831 271.013 92.4413 271.013 91.984C271.013 91.186 271.3 90.584 271.874 90.178C272.453 89.772 273.372 89.5597 274.632 89.541L275.717 89.513V89.023C275.717 88.6403 275.603 88.3417 275.374 88.127C275.15 87.9077 274.8 87.8003 274.324 87.805C273.97 87.8097 273.648 87.8937 273.358 88.057C273.069 88.2157 272.878 88.484 272.784 88.862H271.335C271.363 88.3673 271.506 87.9543 271.762 87.623C272.024 87.287 272.381 87.0373 272.833 86.874C273.286 86.706 273.809 86.622 274.401 86.622C275.092 86.622 275.654 86.713 276.088 86.895C276.522 87.077 276.842 87.3407 277.047 87.686C277.253 88.0267 277.355 88.4397 277.355 88.925V94H275.92L275.78 92.698C275.524 93.244 275.195 93.622 274.793 93.832C274.397 94.0373 273.942 94.14 273.428 94.14ZM273.981 92.985C274.191 92.985 274.399 92.9477 274.604 92.873C274.81 92.7937 274.994 92.6887 275.157 92.558C275.325 92.4227 275.458 92.2733 275.556 92.11C275.659 91.9467 275.713 91.7763 275.717 91.599V90.458L274.828 90.472C274.39 90.4767 274.005 90.5233 273.673 90.612C273.347 90.7007 273.092 90.843 272.91 91.039C272.728 91.2303 272.637 91.487 272.637 91.809C272.637 92.1777 272.766 92.467 273.022 92.677C273.279 92.8823 273.599 92.985 273.981 92.985ZM279.239 94V86.762H280.87V88.33C280.987 87.9707 281.153 87.665 281.367 87.413C281.587 87.1563 281.843 86.9603 282.137 86.825C282.431 86.6897 282.751 86.622 283.096 86.622C283.18 86.622 283.262 86.6267 283.341 86.636C283.421 86.6453 283.479 86.6617 283.516 86.685V88.316C283.465 88.2927 283.397 88.2763 283.313 88.267C283.234 88.2577 283.164 88.253 283.103 88.253C282.753 88.225 282.443 88.239 282.172 88.295C281.906 88.351 281.68 88.4467 281.493 88.582C281.311 88.7127 281.174 88.8807 281.08 89.086C280.987 89.2867 280.94 89.5223 280.94 89.793V94H279.239ZM287.575 94.14C286.619 94.14 285.867 93.811 285.321 93.153C284.775 92.495 284.502 91.5593 284.502 90.346C284.502 89.59 284.612 88.9343 284.831 88.379C285.055 87.819 285.384 87.3873 285.818 87.084C286.252 86.776 286.787 86.622 287.421 86.622C287.72 86.622 287.991 86.6593 288.233 86.734C288.481 86.804 288.7 86.8973 288.891 87.014C289.083 87.1307 289.244 87.259 289.374 87.399C289.51 87.539 289.615 87.679 289.689 87.819V83.598H291.404V94H290.144L289.955 92.516C289.895 92.6887 289.808 92.8707 289.696 93.062C289.589 93.2487 289.442 93.4237 289.255 93.587C289.073 93.7503 288.845 93.8833 288.569 93.986C288.294 94.0887 287.963 94.14 287.575 94.14ZM287.925 92.887C288.537 92.887 288.982 92.6887 289.262 92.292C289.547 91.8907 289.689 91.228 289.689 90.304C289.685 89.7767 289.619 89.3333 289.493 88.974C289.372 88.6147 289.185 88.344 288.933 88.162C288.681 87.98 288.352 87.889 287.946 87.889C287.433 87.889 287.011 88.078 286.679 88.456C286.353 88.834 286.189 89.45 286.189 90.304C286.189 91.1533 286.341 91.7973 286.644 92.236C286.948 92.67 287.375 92.887 287.925 92.887Z" fill="#020617" fill-opacity="0.35"/>
<path d="M194.38 127.12C193.596 127.12 192.924 126.94 192.364 126.58C191.804 126.216 191.374 125.7 191.074 125.032C190.778 124.36 190.63 123.556 190.63 122.62C190.63 121.688 190.778 120.894 191.074 120.238C191.37 119.578 191.798 119.074 192.358 118.726C192.918 118.378 193.592 118.204 194.38 118.204C195.004 118.204 195.558 118.332 196.042 118.588C196.526 118.844 196.914 119.188 197.206 119.62C197.502 120.052 197.678 120.53 197.734 121.054H196.366C196.306 120.726 196.19 120.43 196.018 120.166C195.85 119.898 195.626 119.688 195.346 119.536C195.066 119.38 194.734 119.302 194.35 119.302C193.858 119.302 193.44 119.418 193.096 119.65C192.752 119.882 192.49 120.244 192.31 120.736C192.134 121.228 192.046 121.862 192.046 122.638C192.046 123.81 192.244 124.668 192.64 125.212C193.036 125.752 193.606 126.022 194.35 126.022C194.734 126.022 195.066 125.94 195.346 125.776C195.626 125.608 195.85 125.386 196.018 125.11C196.19 124.83 196.306 124.526 196.366 124.198H197.734C197.686 124.578 197.586 124.944 197.434 125.296C197.282 125.644 197.07 125.956 196.798 126.232C196.53 126.508 196.196 126.726 195.796 126.886C195.396 127.042 194.924 127.12 194.38 127.12ZM200.95 127.12C200.55 127.12 200.194 127.048 199.882 126.904C199.574 126.76 199.332 126.552 199.156 126.28C198.98 126.008 198.892 125.68 198.892 125.296C198.892 124.608 199.134 124.094 199.618 123.754C200.106 123.414 200.886 123.234 201.958 123.214L202.978 123.184V122.734C202.978 122.378 202.872 122.098 202.66 121.894C202.448 121.69 202.12 121.59 201.676 121.594C201.348 121.594 201.054 121.67 200.794 121.822C200.534 121.974 200.364 122.224 200.284 122.572H199.174C199.198 122.16 199.316 121.814 199.528 121.534C199.744 121.25 200.04 121.036 200.416 120.892C200.792 120.748 201.232 120.676 201.736 120.676C202.304 120.676 202.77 120.754 203.134 120.91C203.498 121.062 203.768 121.286 203.944 121.582C204.124 121.878 204.214 122.238 204.214 122.662V127H203.122L203.026 125.86C202.794 126.336 202.5 126.666 202.144 126.85C201.788 127.03 201.39 127.12 200.95 127.12ZM201.352 126.226C201.548 126.226 201.742 126.192 201.934 126.124C202.126 126.052 202.3 125.956 202.456 125.836C202.612 125.712 202.736 125.574 202.828 125.422C202.924 125.27 202.974 125.114 202.978 124.954V123.928L202.138 123.946C201.71 123.95 201.346 123.994 201.046 124.078C200.75 124.162 200.522 124.292 200.362 124.468C200.206 124.644 200.128 124.878 200.128 125.17C200.128 125.502 200.242 125.762 200.47 125.95C200.702 126.134 200.996 126.226 201.352 126.226ZM205.92 127V120.796H207.15V122.068C207.254 121.764 207.398 121.51 207.582 121.306C207.77 121.098 207.988 120.942 208.236 120.838C208.484 120.73 208.746 120.676 209.022 120.676C209.106 120.676 209.186 120.682 209.262 120.694C209.338 120.702 209.398 120.718 209.442 120.742V121.978C209.39 121.954 209.322 121.938 209.238 121.93C209.158 121.922 209.088 121.916 209.028 121.912C208.756 121.892 208.508 121.906 208.284 121.954C208.06 122.002 207.866 122.082 207.702 122.194C207.542 122.306 207.418 122.452 207.33 122.632C207.246 122.812 207.204 123.024 207.204 123.268V127H205.92ZM212.953 127.12C212.141 127.12 211.499 126.842 211.027 126.286C210.559 125.726 210.325 124.92 210.325 123.868C210.325 123.224 210.419 122.664 210.607 122.188C210.799 121.708 211.081 121.336 211.453 121.072C211.825 120.808 212.289 120.676 212.845 120.676C213.121 120.676 213.369 120.71 213.589 120.778C213.809 120.846 214.001 120.934 214.165 121.042C214.329 121.15 214.467 121.266 214.579 121.39C214.691 121.514 214.775 121.63 214.831 121.738V118.084H216.127V127H215.161L215.017 125.728C214.973 125.864 214.905 126.012 214.813 126.172C214.725 126.332 214.601 126.484 214.441 126.628C214.285 126.772 214.085 126.89 213.841 126.982C213.597 127.074 213.301 127.12 212.953 127.12ZM213.199 126.154C213.775 126.154 214.191 125.974 214.447 125.614C214.703 125.25 214.831 124.654 214.831 123.826C214.827 123.358 214.769 122.962 214.657 122.638C214.549 122.314 214.377 122.07 214.141 121.906C213.909 121.738 213.603 121.654 213.223 121.654C212.747 121.654 212.357 121.826 212.053 122.17C211.753 122.51 211.603 123.062 211.603 123.826C211.603 124.578 211.739 125.154 212.011 125.554C212.287 125.954 212.683 126.154 213.199 126.154ZM222.999 127.12C222.187 127.12 221.545 126.842 221.073 126.286C220.605 125.726 220.371 124.92 220.371 123.868C220.371 123.224 220.465 122.664 220.653 122.188C220.845 121.708 221.127 121.336 221.499 121.072C221.871 120.808 222.335 120.676 222.891 120.676C223.167 120.676 223.415 120.71 223.635 120.778C223.855 120.846 224.047 120.934 224.211 121.042C224.375 121.15 224.513 121.266 224.625 121.39C224.737 121.514 224.821 121.63 224.877 121.738V118.084H226.173V127H225.207L225.063 125.728C225.019 125.864 224.951 126.012 224.859 126.172C224.771 126.332 224.647 126.484 224.487 126.628C224.331 126.772 224.131 126.89 223.887 126.982C223.643 127.074 223.347 127.12 222.999 127.12ZM223.245 126.154C223.821 126.154 224.237 125.974 224.493 125.614C224.749 125.25 224.877 124.654 224.877 123.826C224.873 123.358 224.815 122.962 224.703 122.638C224.595 122.314 224.423 122.07 224.187 121.906C223.955 121.738 223.649 121.654 223.269 121.654C222.793 121.654 222.403 121.826 222.099 122.17C221.799 122.51 221.649 123.062 221.649 123.826C221.649 124.578 221.785 125.154 222.057 125.554C222.333 125.954 222.729 126.154 223.245 126.154ZM230.656 127.12C230.068 127.12 229.55 126.994 229.102 126.742C228.654 126.486 228.304 126.122 228.052 125.65C227.804 125.178 227.68 124.616 227.68 123.964C227.68 123.32 227.794 122.752 228.022 122.26C228.25 121.764 228.58 121.376 229.012 121.096C229.444 120.816 229.964 120.676 230.572 120.676C231.168 120.676 231.672 120.804 232.084 121.06C232.496 121.316 232.808 121.676 233.02 122.14C233.232 122.6 233.338 123.144 233.338 123.772V124.198H228.97C228.966 124.57 229.026 124.904 229.15 125.2C229.274 125.492 229.458 125.724 229.702 125.896C229.95 126.064 230.258 126.148 230.626 126.148C230.998 126.148 231.318 126.064 231.586 125.896C231.858 125.728 232.036 125.478 232.12 125.146H233.308C233.236 125.57 233.066 125.93 232.798 126.226C232.53 126.522 232.208 126.746 231.832 126.898C231.456 127.046 231.064 127.12 230.656 127.12ZM228.97 123.364H232.114C232.114 123.04 232.058 122.746 231.946 122.482C231.834 122.214 231.662 122.004 231.43 121.852C231.202 121.696 230.914 121.618 230.566 121.618C230.21 121.618 229.914 121.704 229.678 121.876C229.442 122.048 229.264 122.268 229.144 122.536C229.028 122.804 228.97 123.08 228.97 123.364ZM236.984 127.042C236.524 127.042 236.168 126.98 235.916 126.856C235.664 126.732 235.488 126.554 235.388 126.322C235.288 126.086 235.238 125.802 235.238 125.47V121.72H234.23V120.796H235.28L235.592 118.972H236.528V120.79H237.92V121.72H236.528L236.534 125.422C236.534 125.626 236.554 125.776 236.594 125.872C236.638 125.964 236.71 126.024 236.81 126.052C236.914 126.076 237.054 126.088 237.23 126.088H237.95V126.922C237.874 126.954 237.756 126.982 237.596 127.006C237.44 127.03 237.236 127.042 236.984 127.042ZM241.155 127.12C240.755 127.12 240.399 127.048 240.087 126.904C239.779 126.76 239.537 126.552 239.361 126.28C239.185 126.008 239.097 125.68 239.097 125.296C239.097 124.608 239.339 124.094 239.823 123.754C240.311 123.414 241.091 123.234 242.163 123.214L243.183 123.184V122.734C243.183 122.378 243.077 122.098 242.865 121.894C242.653 121.69 242.325 121.59 241.881 121.594C241.553 121.594 241.259 121.67 240.999 121.822C240.739 121.974 240.569 122.224 240.489 122.572H239.379C239.403 122.16 239.521 121.814 239.733 121.534C239.949 121.25 240.245 121.036 240.621 120.892C240.997 120.748 241.437 120.676 241.941 120.676C242.509 120.676 242.975 120.754 243.339 120.91C243.703 121.062 243.973 121.286 244.149 121.582C244.329 121.878 244.419 122.238 244.419 122.662V127H243.327L243.231 125.86C242.999 126.336 242.705 126.666 242.349 126.85C241.993 127.03 241.595 127.12 241.155 127.12ZM241.557 126.226C241.753 126.226 241.947 126.192 242.139 126.124C242.331 126.052 242.505 125.956 242.661 125.836C242.817 125.712 242.941 125.574 243.033 125.422C243.129 125.27 243.179 125.114 243.183 124.954V123.928L242.343 123.946C241.915 123.95 241.551 123.994 241.251 124.078C240.955 124.162 240.727 124.292 240.567 124.468C240.411 124.644 240.333 124.878 240.333 125.17C240.333 125.502 240.447 125.762 240.675 125.95C240.907 126.134 241.201 126.226 241.557 126.226ZM246.155 127V120.796H247.391V127H246.155ZM246.125 119.596V118.33H247.415V119.596H246.125ZM250.97 127.084C250.602 127.084 250.306 127.036 250.082 126.94C249.862 126.844 249.694 126.716 249.578 126.556C249.462 126.392 249.384 126.208 249.344 126.004C249.308 125.796 249.29 125.582 249.29 125.362V118.084H250.556V125.23C250.556 125.518 250.612 125.738 250.724 125.89C250.84 126.042 251.016 126.128 251.252 126.148L251.576 126.16V126.976C251.476 127.008 251.372 127.034 251.264 127.054C251.16 127.074 251.062 127.084 250.97 127.084ZM255.223 127.12C254.791 127.12 254.385 127.052 254.005 126.916C253.629 126.78 253.313 126.566 253.057 126.274C252.805 125.982 252.647 125.608 252.583 125.152H253.729C253.781 125.388 253.879 125.584 254.023 125.74C254.171 125.892 254.347 126.006 254.551 126.082C254.759 126.154 254.981 126.19 255.217 126.19C255.609 126.19 255.927 126.12 256.171 125.98C256.415 125.836 256.537 125.616 256.537 125.32C256.537 125.108 256.471 124.938 256.339 124.81C256.207 124.682 256.001 124.588 255.721 124.528L254.485 124.234C253.973 124.114 253.563 123.924 253.255 123.664C252.947 123.4 252.791 123.032 252.787 122.56C252.787 122.196 252.877 121.872 253.057 121.588C253.241 121.304 253.513 121.082 253.873 120.922C254.237 120.758 254.685 120.676 255.217 120.676C255.917 120.676 256.479 120.832 256.903 121.144C257.331 121.456 257.551 121.908 257.563 122.5H256.453C256.413 122.216 256.283 121.994 256.063 121.834C255.847 121.67 255.561 121.588 255.205 121.588C254.837 121.588 254.535 121.662 254.299 121.81C254.063 121.954 253.945 122.176 253.945 122.476C253.945 122.68 254.031 122.842 254.203 122.962C254.379 123.078 254.637 123.174 254.977 123.25L256.153 123.544C256.457 123.624 256.707 123.73 256.903 123.862C257.099 123.99 257.253 124.132 257.365 124.288C257.477 124.444 257.555 124.606 257.599 124.774C257.647 124.942 257.671 125.1 257.671 125.248C257.671 125.64 257.571 125.976 257.371 126.256C257.175 126.532 256.895 126.746 256.531 126.898C256.167 127.046 255.731 127.12 255.223 127.12Z" fill="#020617" fill-opacity="0.35"/>
<path d="M190.5 141C190.5 137.962 192.962 135.5 196 135.5H380C383.038 135.5 385.5 137.962 385.5 141V165C385.5 168.038 383.038 170.5 380 170.5H196C192.962 170.5 190.5 168.038 190.5 165V141Z" fill="white"/>
<path d="M190.5 141C190.5 137.962 192.962 135.5 196 135.5H380C383.038 135.5 385.5 137.962 385.5 141V165C385.5 168.038 383.038 170.5 380 170.5H196C192.962 170.5 190.5 168.038 190.5 165V141Z" stroke="url(#paint2_linear_6627_6268)"/>
<g clip-path="url(#clip1_6627_6268)">
<path d="M218 143H198V163H218V143Z" fill="#4F868E"/>
<path d="M210.033 149.737C209.641 149.739 209.253 149.831 208.901 150.005C208.549 150.179 208.241 150.43 208 150.741C207.759 150.431 207.451 150.179 207.099 150.005C206.747 149.831 206.36 149.74 205.968 149.737C204.503 149.737 203.312 150.997 203.312 152.548V155.622C203.312 155.788 203.378 155.947 203.496 156.064C203.613 156.181 203.772 156.247 203.938 156.247C204.103 156.247 204.262 156.181 204.379 156.064C204.497 155.947 204.562 155.788 204.562 155.622V152.546C204.562 151.684 205.195 150.984 205.972 150.984C206.749 150.984 207.381 151.686 207.381 152.546V155.62C207.381 155.786 207.447 155.945 207.564 156.062C207.682 156.179 207.84 156.245 208.006 156.245C208.172 156.245 208.331 156.179 208.448 156.062C208.565 155.945 208.631 155.786 208.631 155.62V152.546C208.631 151.684 209.264 150.984 210.041 150.984C210.818 150.984 211.45 151.686 211.45 152.546V155.62C211.45 155.786 211.516 155.945 211.633 156.062C211.75 156.179 211.909 156.245 212.075 156.245C212.241 156.245 212.4 156.179 212.517 156.062C212.634 155.945 212.7 155.786 212.7 155.62V152.546C212.689 150.997 211.498 149.737 210.033 149.737Z" fill="white"/>
<path d="M208 145.18C205.929 145.183 203.943 146.006 202.478 147.47C201.014 148.935 200.19 150.92 200.188 152.99C200.19 155.061 201.014 157.046 202.478 158.51C203.943 159.974 205.929 160.798 208 160.8C210.071 160.798 212.057 159.974 213.522 158.51C214.986 157.046 215.81 155.061 215.812 152.99C215.81 150.92 214.986 148.935 213.522 147.47C212.057 146.006 210.071 145.183 208 145.18ZM208 160.488C206.012 160.486 204.105 159.695 202.699 158.289C201.293 156.884 200.502 154.978 200.5 152.99C200.502 151.002 201.293 149.097 202.699 147.691C204.105 146.285 206.012 145.495 208 145.493C209.988 145.495 211.895 146.285 213.301 147.691C214.707 149.097 215.498 151.002 215.5 152.99C215.498 154.978 214.707 156.884 213.301 158.289C211.895 159.695 209.988 160.486 208 160.488Z" fill="white"/>
</g>
<path d="M226.581 158L230.242 147.878H231.705L235.366 158H234.043L233.049 155.228H228.898L227.897 158H226.581ZM229.241 154.038H232.692L230.97 149.145L229.241 154.038ZM239.617 158.14C239.239 158.135 238.882 158.082 238.546 157.979C238.215 157.872 237.921 157.715 237.664 157.51C237.408 157.305 237.205 157.05 237.055 156.747C236.911 156.439 236.838 156.082 236.838 155.676V150.762H238.133V155.543C238.133 156.014 238.278 156.397 238.567 156.691C238.861 156.985 239.302 157.132 239.89 157.132C240.422 157.132 240.849 156.994 241.171 156.719C241.498 156.439 241.661 156.024 241.661 155.473V150.762H242.949V158H241.92L241.787 156.614C241.699 156.978 241.547 157.272 241.332 157.496C241.122 157.72 240.868 157.886 240.569 157.993C240.275 158.096 239.958 158.145 239.617 158.14ZM247.801 158.035C247.302 158.035 246.915 157.967 246.639 157.832C246.364 157.697 246.17 157.496 246.058 157.23C245.951 156.964 245.897 156.637 245.897 156.25V151.707H244.721V150.762H245.932L246.247 148.655H247.199V150.755H248.83V151.707H247.199V156.208C247.199 156.465 247.225 156.654 247.276 156.775C247.332 156.892 247.423 156.966 247.549 156.999C247.675 157.032 247.853 157.048 248.081 157.048H248.872V157.916C248.784 157.949 248.648 157.977 248.466 158C248.289 158.023 248.067 158.035 247.801 158.035ZM253.366 158.14C252.699 158.14 252.116 157.998 251.616 157.713C251.122 157.424 250.737 157.001 250.461 156.446C250.186 155.891 250.048 155.212 250.048 154.409C250.048 153.653 250.177 152.99 250.433 152.421C250.69 151.852 251.066 151.411 251.56 151.098C252.055 150.781 252.659 150.622 253.373 150.622C254.041 150.622 254.619 150.769 255.109 151.063C255.599 151.352 255.98 151.779 256.25 152.344C256.526 152.909 256.663 153.597 256.663 154.409C256.663 155.146 256.537 155.795 256.285 156.355C256.033 156.915 255.662 157.354 255.172 157.671C254.687 157.984 254.085 158.14 253.366 158.14ZM253.373 157.118C253.803 157.118 254.167 157.008 254.465 156.789C254.764 156.57 254.99 156.255 255.144 155.844C255.303 155.433 255.382 154.946 255.382 154.381C255.382 153.863 255.312 153.399 255.172 152.988C255.037 152.573 254.822 152.244 254.528 152.001C254.234 151.758 253.849 151.637 253.373 151.637C252.935 151.637 252.564 151.747 252.26 151.966C251.957 152.181 251.726 152.493 251.567 152.904C251.413 153.315 251.336 153.807 251.336 154.381C251.336 154.89 251.404 155.352 251.539 155.767C251.679 156.182 251.899 156.511 252.197 156.754C252.501 156.997 252.893 157.118 253.373 157.118ZM259.092 158V151.707H257.559V150.762H259.092V149.642C259.092 149.068 259.237 148.632 259.526 148.333C259.82 148.03 260.259 147.878 260.842 147.878H262.207L262.214 148.795H261.136C260.838 148.795 260.635 148.874 260.527 149.033C260.42 149.192 260.366 149.432 260.366 149.754V150.762H262.144V151.707H260.387V158H259.092ZM263.705 158V150.762H264.958V158H263.705ZM263.67 149.229V147.885H264.993V149.229H263.67ZM269.115 158.091C268.723 158.091 268.406 158.037 268.163 157.93C267.925 157.823 267.741 157.678 267.61 157.496C267.484 157.314 267.398 157.106 267.351 156.873C267.309 156.635 267.288 156.39 267.288 156.138V147.598H268.562V156.012C268.562 156.376 268.632 156.649 268.772 156.831C268.917 157.013 269.118 157.113 269.374 157.132L269.766 157.139V157.979C269.659 158.012 269.547 158.037 269.43 158.056C269.314 158.079 269.209 158.091 269.115 158.091ZM273.218 158.091C272.826 158.091 272.509 158.037 272.266 157.93C272.028 157.823 271.844 157.678 271.713 157.496C271.587 157.314 271.501 157.106 271.454 156.873C271.412 156.635 271.391 156.39 271.391 156.138V147.598H272.665V156.012C272.665 156.376 272.735 156.649 272.875 156.831C273.02 157.013 273.221 157.113 273.477 157.132L273.869 157.139V157.979C273.762 158.012 273.65 158.037 273.533 158.056C273.417 158.079 273.312 158.091 273.218 158.091ZM278.417 158.14C277.745 158.14 277.152 157.993 276.639 157.699C276.126 157.405 275.724 156.983 275.435 156.432C275.146 155.881 275.001 155.221 275.001 154.451C275.001 153.69 275.132 153.023 275.393 152.449C275.654 151.875 276.032 151.427 276.527 151.105C277.026 150.783 277.626 150.622 278.326 150.622C279.007 150.622 279.584 150.769 280.055 151.063C280.526 151.357 280.883 151.772 281.126 152.309C281.373 152.841 281.497 153.473 281.497 154.206V154.682H276.31C276.31 155.139 276.385 155.555 276.534 155.928C276.688 156.297 276.919 156.591 277.227 156.81C277.535 157.029 277.925 157.139 278.396 157.139C278.858 157.139 279.255 157.032 279.586 156.817C279.922 156.602 280.137 156.292 280.23 155.886H281.448C281.364 156.376 281.168 156.789 280.86 157.125C280.557 157.461 280.19 157.715 279.761 157.888C279.336 158.056 278.888 158.14 278.417 158.14ZM276.317 153.807H280.251C280.251 153.392 280.181 153.018 280.041 152.687C279.901 152.351 279.686 152.087 279.397 151.896C279.112 151.7 278.753 151.602 278.319 151.602C277.866 151.602 277.491 151.712 277.192 151.931C276.893 152.146 276.672 152.423 276.527 152.764C276.382 153.1 276.312 153.448 276.317 153.807ZM285.997 158.14C285.054 158.14 284.307 157.818 283.757 157.174C283.211 156.53 282.938 155.59 282.938 154.353C282.938 153.602 283.047 152.946 283.267 152.386C283.486 151.826 283.815 151.392 284.254 151.084C284.692 150.776 285.238 150.622 285.892 150.622C286.242 150.622 286.55 150.666 286.816 150.755C287.082 150.844 287.313 150.956 287.509 151.091C287.705 151.226 287.863 151.366 287.985 151.511C288.111 151.656 288.204 151.789 288.265 151.91V147.598H289.574V158H288.58L288.44 156.516C288.393 156.656 288.318 156.819 288.216 157.006C288.113 157.188 287.968 157.368 287.782 157.545C287.6 157.718 287.362 157.86 287.068 157.972C286.774 158.084 286.417 158.14 285.997 158.14ZM286.228 157.146C286.956 157.146 287.476 156.924 287.789 156.481C288.106 156.033 288.265 155.303 288.265 154.29C288.26 153.725 288.19 153.245 288.055 152.848C287.919 152.451 287.705 152.15 287.411 151.945C287.121 151.735 286.734 151.63 286.249 151.63C285.656 151.63 285.173 151.842 284.8 152.267C284.426 152.692 284.24 153.366 284.24 154.29C284.24 155.195 284.408 155.898 284.744 156.397C285.08 156.896 285.574 157.146 286.228 157.146ZM296.706 158L294.466 150.762H295.67L297.322 156.327H297.434L299.065 150.762H300.045L301.739 156.313H301.858L303.44 150.762H304.658L302.46 158H301.186L299.541 152.659L297.966 158H296.706ZM306.202 158V150.762H307.455V158H306.202ZM306.167 149.229V147.885H307.49V149.229H306.167ZM312.349 158.035C311.85 158.035 311.462 157.967 311.187 157.832C310.912 157.697 310.718 157.496 310.606 157.23C310.499 156.964 310.445 156.637 310.445 156.25V151.707H309.269V150.762H310.48L310.795 148.655H311.747V150.755H313.378V151.707H311.747V156.208C311.747 156.465 311.773 156.654 311.824 156.775C311.88 156.892 311.971 156.966 312.097 156.999C312.223 157.032 312.4 157.048 312.629 157.048H313.42V157.916C313.331 157.949 313.196 157.977 313.014 158C312.837 158.023 312.615 158.035 312.349 158.035ZM315.208 158V147.598H316.468V151.826C316.589 151.625 316.752 151.439 316.958 151.266C317.163 151.089 317.413 150.946 317.707 150.839C318.001 150.727 318.341 150.671 318.729 150.671C319.2 150.671 319.627 150.76 320.01 150.937C320.392 151.11 320.696 151.357 320.92 151.679C321.144 152.001 321.256 152.384 321.256 152.827V158H319.961V153.086C319.961 152.652 319.811 152.318 319.513 152.085C319.219 151.847 318.834 151.728 318.358 151.728C318.036 151.728 317.732 151.782 317.448 151.889C317.163 151.992 316.932 152.15 316.755 152.365C316.582 152.575 316.496 152.843 316.496 153.17V158H315.208ZM327.084 158V147.878H328.876L331.928 156.236L335.022 147.878H336.807V158H335.47V149.817L332.537 158H331.326L328.414 149.894V158H327.084ZM342.252 158.14C341.58 158.14 340.987 157.993 340.474 157.699C339.961 157.405 339.559 156.983 339.27 156.432C338.981 155.881 338.836 155.221 338.836 154.451C338.836 153.69 338.967 153.023 339.228 152.449C339.489 151.875 339.867 151.427 340.362 151.105C340.861 150.783 341.461 150.622 342.161 150.622C342.842 150.622 343.419 150.769 343.89 151.063C344.361 151.357 344.718 151.772 344.961 152.309C345.208 152.841 345.332 153.473 345.332 154.206V154.682H340.145C340.145 155.139 340.22 155.555 340.369 155.928C340.523 156.297 340.754 156.591 341.062 156.81C341.37 157.029 341.76 157.139 342.231 157.139C342.693 157.139 343.09 157.032 343.421 156.817C343.757 156.602 343.972 156.292 344.065 155.886H345.283C345.199 156.376 345.003 156.789 344.695 157.125C344.392 157.461 344.025 157.715 343.596 157.888C343.171 158.056 342.723 158.14 342.252 158.14ZM340.152 153.807H344.086C344.086 153.392 344.016 153.018 343.876 152.687C343.736 152.351 343.521 152.087 343.232 151.896C342.947 151.7 342.588 151.602 342.154 151.602C341.701 151.602 341.326 151.712 341.027 151.931C340.728 152.146 340.507 152.423 340.362 152.764C340.217 153.1 340.147 153.448 340.152 153.807ZM350.252 158.14C349.58 158.14 348.987 157.993 348.474 157.699C347.96 157.405 347.559 156.983 347.27 156.432C346.98 155.881 346.836 155.221 346.836 154.451C346.836 153.69 346.966 153.023 347.228 152.449C347.489 151.875 347.867 151.427 348.362 151.105C348.861 150.783 349.461 150.622 350.161 150.622C350.842 150.622 351.418 150.769 351.89 151.063C352.361 151.357 352.718 151.772 352.961 152.309C353.208 152.841 353.332 153.473 353.332 154.206V154.682H348.145C348.145 155.139 348.219 155.555 348.369 155.928C348.523 156.297 348.754 156.591 349.062 156.81C349.37 157.029 349.759 157.139 350.231 157.139C350.693 157.139 351.089 157.032 351.421 156.817C351.757 156.602 351.971 156.292 352.065 155.886H353.283C353.199 156.376 353.003 156.789 352.695 157.125C352.391 157.461 352.025 157.715 351.596 157.888C351.171 158.056 350.723 158.14 350.252 158.14ZM348.152 153.807H352.086C352.086 153.392 352.016 153.018 351.876 152.687C351.736 152.351 351.521 152.087 351.232 151.896C350.947 151.7 350.588 151.602 350.154 151.602C349.701 151.602 349.325 151.712 349.027 151.931C348.728 152.146 348.506 152.423 348.362 152.764C348.217 153.1 348.147 153.448 348.152 153.807Z" fill="#475569"/>
<path d="M190.5 195C190.5 190.858 193.858 187.5 198 187.5H378C382.142 187.5 385.5 190.858 385.5 195V213C385.5 217.142 382.142 220.5 378 220.5H198C193.858 220.5 190.5 217.142 190.5 213V195Z" stroke="#020617" stroke-opacity="0.15"/>
<path d="M276.725 209V198.878H280.316C281.044 198.878 281.695 199.004 282.269 199.256C282.848 199.503 283.303 199.87 283.634 200.355C283.965 200.84 284.131 201.438 284.131 202.147C284.131 202.814 283.979 203.386 283.676 203.862C283.377 204.338 282.96 204.702 282.423 204.954C281.886 205.206 281.259 205.332 280.54 205.332H278.454V209H276.725ZM278.44 203.967H280.498C281.091 203.967 281.574 203.79 281.947 203.435C282.325 203.08 282.514 202.618 282.514 202.049C282.514 201.47 282.318 201.022 281.926 200.705C281.534 200.383 281.042 200.222 280.449 200.222H278.44V203.967ZM287.488 209.14C287.026 209.14 286.611 209.056 286.242 208.888C285.878 208.715 285.591 208.47 285.381 208.153C285.176 207.831 285.073 207.441 285.073 206.984C285.073 206.186 285.36 205.584 285.934 205.178C286.513 204.772 287.432 204.56 288.692 204.541L289.777 204.513V204.023C289.777 203.64 289.663 203.342 289.434 203.127C289.21 202.908 288.86 202.8 288.384 202.805C288.03 202.81 287.708 202.894 287.418 203.057C287.129 203.216 286.938 203.484 286.844 203.862H285.395C285.423 203.367 285.566 202.954 285.822 202.623C286.084 202.287 286.441 202.037 286.893 201.874C287.346 201.706 287.869 201.622 288.461 201.622C289.152 201.622 289.714 201.713 290.148 201.895C290.582 202.077 290.902 202.341 291.107 202.686C291.313 203.027 291.415 203.44 291.415 203.925V209H289.98L289.84 207.698C289.584 208.244 289.255 208.622 288.853 208.832C288.457 209.037 288.002 209.14 287.488 209.14ZM288.041 207.985C288.251 207.985 288.459 207.948 288.664 207.873C288.87 207.794 289.054 207.689 289.217 207.558C289.385 207.423 289.518 207.273 289.616 207.11C289.719 206.947 289.773 206.776 289.777 206.599V205.458L288.888 205.472C288.45 205.477 288.065 205.523 287.733 205.612C287.407 205.701 287.152 205.843 286.97 206.039C286.788 206.23 286.697 206.487 286.697 206.809C286.697 207.178 286.826 207.467 287.082 207.677C287.339 207.882 287.659 207.985 288.041 207.985ZM293.998 211.31C293.532 211.31 293.207 211.273 293.025 211.198C292.843 211.128 292.752 211.093 292.752 211.093V210.001L293.48 210.022C293.774 210.036 294.012 210.02 294.194 209.973C294.381 209.926 294.526 209.861 294.628 209.777C294.731 209.698 294.806 209.611 294.852 209.518C294.904 209.429 294.943 209.352 294.971 209.287L295.16 208.755L292.339 201.762H294.033L295.958 206.879L297.876 201.762H299.542L296.56 209.266C296.336 209.812 296.094 210.232 295.832 210.526C295.576 210.825 295.293 211.03 294.985 211.142C294.682 211.254 294.353 211.31 293.998 211.31Z" fill="#94A3B8"/>
<rect y="161" width="405" height="259" fill="url(#paint3_linear_6627_6268)"/>
<path d="M168 154H138.101C133.683 154 130.101 150.419 130.101 146V146C130.101 141.582 126.52 138 122.101 138H89" stroke="url(#paint4_linear_6627_6268)" stroke-dasharray="2 2"/>
<path d="M168 128L154.176 128C149.758 128 146.176 124.418 146.176 120L146.176 53C146.176 48.5817 142.595 45 138.176 45L62 45" stroke="url(#paint5_linear_6627_6268)" stroke-dasharray="2 2"/>
<g filter="url(#filter0_f_6627_6268)">
<path d="M112.288 180.712L109.695 178.119C109.536 177.96 109.278 177.96 109.119 178.119C108.96 178.278 108.96 178.536 109.119 178.695L111.016 180.593C111.285 180.911 111.302 181.087 111.016 181.407L109.119 183.305C108.96 183.464 108.96 183.722 109.119 183.881C109.278 184.04 109.536 184.04 109.695 183.881L112.288 181.288C112.447 181.129 112.447 180.871 112.288 180.712Z" fill="#4F868E"/>
</g>
<path d="M112.288 180.712L109.695 178.119C109.536 177.96 109.278 177.96 109.119 178.119C108.96 178.278 108.96 178.536 109.119 178.695L111.016 180.593C111.285 180.911 111.302 181.087 111.016 181.407L109.119 183.305C108.96 183.464 108.96 183.722 109.119 183.881C109.278 184.04 109.536 184.04 109.695 183.881L112.288 181.288C112.447 181.129 112.447 180.871 112.288 180.712Z" fill="#4F868E"/>
<g filter="url(#filter1_f_6627_6268)">
<path d="M153.384 153.616L149.927 150.159C149.715 149.947 149.371 149.947 149.159 150.159C148.947 150.371 148.947 150.715 149.159 150.927L151.689 153.457C152.046 153.882 152.07 154.116 151.689 154.543L149.159 157.073C148.947 157.285 148.947 157.629 149.159 157.841C149.371 158.053 149.715 158.053 149.927 157.841L153.384 154.384C153.596 154.172 153.596 153.828 153.384 153.616Z" fill="#4F868E"/>
</g>
<path d="M153.384 153.616L149.927 150.159C149.715 149.947 149.371 149.947 149.159 150.159C148.947 150.371 148.947 150.715 149.159 150.927L151.689 153.457C152.046 153.882 152.07 154.116 151.689 154.543L149.159 157.073C148.947 157.285 148.947 157.629 149.159 157.841C149.371 158.053 149.715 158.053 149.927 157.841L153.384 154.384C153.596 154.172 153.596 153.828 153.384 153.616Z" fill="#4F868E"/>
<g filter="url(#filter2_f_6627_6268)">
<path d="M88.8361 44.1639L85.8114 41.1392C85.6258 40.9536 85.3248 40.9536 85.1392 41.1392C84.9536 41.3248 84.9536 41.6258 85.1392 41.8114L87.3526 44.0247C87.6654 44.3967 87.6858 44.6015 87.3526 44.9753L85.1392 47.1886C84.9536 47.3742 84.9536 47.6752 85.1392 47.8608C85.3248 48.0464 85.6258 48.0464 85.8114 47.8608L88.8361 44.8361C89.0217 44.6505 89.0217 44.3495 88.8361 44.1639Z" fill="#4F868E"/>
</g>
<path d="M88.8361 44.1639L85.8114 41.1392C85.6258 40.9536 85.3248 40.9536 85.1392 41.1392C84.9536 41.3248 84.9536 41.6258 85.1392 41.8114L87.3526 44.0247C87.6654 44.3967 87.6858 44.6015 87.3526 44.9753L85.1392 47.1886C84.9536 47.3742 84.9536 47.6752 85.1392 47.8608C85.3248 48.0464 85.6258 48.0464 85.8114 47.8608L88.8361 44.8361C89.0217 44.6505 89.0217 44.3495 88.8361 44.1639Z" fill="#4F868E"/>
<path d="M50 225H72C76.4183 225 80 221.418 80 217V189C80 184.582 83.5817 181 88 181H168" stroke="url(#paint6_linear_6627_6268)" stroke-dasharray="2 2"/>
<path d="M79 134C79 130.686 81.6863 128 85 128H93C96.3137 128 99 130.686 99 134V142C99 145.314 96.3137 148 93 148H85C81.6863 148 79 145.314 79 142V134Z" fill="url(#paint7_linear_6627_6268)"/>
<path d="M85 125.5C80.3056 125.5 76.5 129.306 76.5 134V142C76.5 146.694 80.3056 150.5 85 150.5H93C97.6944 150.5 101.5 146.694 101.5 142V134C101.5 129.306 97.6944 125.5 93 125.5H85Z" stroke="url(#paint8_linear_6627_6268)" stroke-opacity="0.1" stroke-width="5"/>
<path d="M79.5 134C79.5 130.962 81.9624 128.5 85 128.5H93C96.0376 128.5 98.5 130.962 98.5 134V142C98.5 145.038 96.0376 147.5 93 147.5H85C81.9624 147.5 79.5 145.038 79.5 142V134Z" stroke="url(#paint9_linear_6627_6268)"/>
<path d="M44 41C44 37.6863 46.6863 35 50 35H58C61.3137 35 64 37.6863 64 41V49C64 52.3137 61.3137 55 58 55H50C46.6863 55 44 52.3137 44 49V41Z" fill="url(#paint10_linear_6627_6268)"/>
<path d="M50 32.5C45.3056 32.5 41.5 36.3056 41.5 41V49C41.5 53.6944 45.3056 57.5 50 57.5H58C62.6944 57.5 66.5 53.6944 66.5 49V41C66.5 36.3056 62.6944 32.5 58 32.5H50Z" stroke="url(#paint11_linear_6627_6268)" stroke-opacity="0.1" stroke-width="5"/>
<path d="M44.5 41C44.5 37.9624 46.9624 35.5 50 35.5H58C61.0376 35.5 63.5 37.9624 63.5 41V49C63.5 52.0376 61.0376 54.5 58 54.5H50C46.9624 54.5 44.5 52.0376 44.5 49V41Z" stroke="url(#paint12_linear_6627_6268)"/>
<path d="M32 221C32 217.686 34.6863 215 38 215H46C49.3137 215 52 217.686 52 221V229C52 232.314 49.3137 235 46 235H38C34.6863 235 32 232.314 32 229V221Z" fill="url(#paint13_linear_6627_6268)"/>
<path d="M38 212.5C33.3056 212.5 29.5 216.306 29.5 221V229C29.5 233.694 33.3056 237.5 38 237.5H46C50.6944 237.5 54.5 233.694 54.5 229V221C54.5 216.306 50.6944 212.5 46 212.5H38Z" stroke="url(#paint14_linear_6627_6268)" stroke-opacity="0.1" stroke-width="5"/>
<path d="M32.5 221C32.5 217.962 34.9624 215.5 38 215.5H46C49.0376 215.5 51.5 217.962 51.5 221V229C51.5 232.038 49.0376 234.5 46 234.5H38C34.9624 234.5 32.5 232.038 32.5 229V221Z" stroke="url(#paint15_linear_6627_6268)"/>
</g>
<defs>
<filter id="filter0_f_6627_6268" x="106" y="175" width="9.40723" height="12" filterUnits="userSpaceOnUse" color-interpolation-filters="sRGB">
<feFlood flood-opacity="0" result="BackgroundImageFix"/>
<feBlend mode="normal" in="SourceGraphic" in2="BackgroundImageFix" result="shape"/>
<feGaussianBlur stdDeviation="1.5" result="effect1_foregroundBlur_6627_6268"/>
</filter>
<filter id="filter1_f_6627_6268" x="146" y="147" width="10.543" height="14" filterUnits="userSpaceOnUse" color-interpolation-filters="sRGB">
<feFlood flood-opacity="0" result="BackgroundImageFix"/>
<feBlend mode="normal" in="SourceGraphic" in2="BackgroundImageFix" result="shape"/>
<feGaussianBlur stdDeviation="1.5" result="effect1_foregroundBlur_6627_6268"/>
</filter>
<filter id="filter2_f_6627_6268" x="82" y="38" width="9.97559" height="13" filterUnits="userSpaceOnUse" color-interpolation-filters="sRGB">
<feFlood flood-opacity="0" result="BackgroundImageFix"/>
<feBlend mode="normal" in="SourceGraphic" in2="BackgroundImageFix" result="shape"/>
<feGaussianBlur stdDeviation="1.5" result="effect1_foregroundBlur_6627_6268"/>
</filter>
<linearGradient id="paint0_linear_6627_6268" x1="215.361" y1="98.6884" x2="388.031" y2="266.51" gradientUnits="userSpaceOnUse">
<stop stop-color="#F8FAFC"/>
<stop offset="1" stop-color="white"/>
</linearGradient>
<linearGradient id="paint1_linear_6627_6268" x1="168.242" y1="53" x2="428.028" y2="74.1621" gradientUnits="userSpaceOnUse">
<stop stop-color="#F4B62B"/>
<stop offset="0.5" stop-color="#BC52AD"/>
<stop offset="1" stop-color="#4F868E"/>
</linearGradient>
<linearGradient id="paint2_linear_6627_6268" x1="190.198" y1="135" x2="361.196" y2="220.318" gradientUnits="userSpaceOnUse">
<stop stop-color="#F4B62B"/>
<stop offset="0.5" stop-color="#BC52AD"/>
<stop offset="1" stop-color="#4F868E"/>
</linearGradient>
<linearGradient id="paint3_linear_6627_6268" x1="202.5" y1="210.397" x2="202.5" y2="287.162" gradientUnits="userSpaceOnUse">
<stop stop-color="white" stop-opacity="0"/>
<stop offset="1" stop-color="white"/>
</linearGradient>
<linearGradient id="paint4_linear_6627_6268" x1="163.282" y1="147.977" x2="157.767" y2="139.97" gradientUnits="userSpaceOnUse">
<stop offset="0.17" stop-color="#4F868E"/>
<stop offset="1" stop-color="#BC52AD"/>
</linearGradient>
<linearGradient id="paint5_linear_6627_6268" x1="156.42" y1="115.575" x2="169.512" y2="91.9358" gradientUnits="userSpaceOnUse">
<stop stop-color="#4F868E"/>
<stop offset="1" stop-color="#F4B62B"/>
</linearGradient>
<linearGradient id="paint6_linear_6627_6268" x1="39.5026" y1="222.556" x2="38.6645" y2="196.068" gradientUnits="userSpaceOnUse">
<stop stop-color="#86AD6E"/>
<stop offset="1" stop-color="#4F868E"/>
</linearGradient>
<linearGradient id="paint7_linear_6627_6268" x1="82.9467" y1="131.384" x2="95.6915" y2="145.32" gradientUnits="userSpaceOnUse">
<stop stop-color="#E2E8F0"/>
<stop offset="1" stop-color="white"/>
</linearGradient>
<linearGradient id="paint8_linear_6627_6268" x1="79.0202" y1="128" x2="100.631" y2="129.98" gradientUnits="userSpaceOnUse">
<stop stop-color="#F4B62B"/>
<stop offset="0.5" stop-color="#BC52AD"/>
<stop offset="1" stop-color="#4F868E"/>
</linearGradient>
<linearGradient id="paint9_linear_6627_6268" x1="79.0202" y1="128" x2="100.631" y2="129.98" gradientUnits="userSpaceOnUse">
<stop stop-color="#F4B62B"/>
<stop offset="0.5" stop-color="#BC52AD"/>
<stop offset="1" stop-color="#4F868E"/>
</linearGradient>
<linearGradient id="paint10_linear_6627_6268" x1="47.9467" y1="38.3843" x2="60.6915" y2="52.3195" gradientUnits="userSpaceOnUse">
<stop stop-color="#E2E8F0"/>
<stop offset="1" stop-color="white"/>
</linearGradient>
<linearGradient id="paint11_linear_6627_6268" x1="44.0202" y1="35" x2="65.6312" y2="36.9805" gradientUnits="userSpaceOnUse">
<stop stop-color="#F4B62B"/>
<stop offset="0.5" stop-color="#BC52AD"/>
<stop offset="1" stop-color="#4F868E"/>
</linearGradient>
<linearGradient id="paint12_linear_6627_6268" x1="44.0202" y1="35" x2="65.6312" y2="36.9805" gradientUnits="userSpaceOnUse">
<stop stop-color="#F4B62B"/>
<stop offset="0.5" stop-color="#BC52AD"/>
<stop offset="1" stop-color="#4F868E"/>
</linearGradient>
<linearGradient id="paint13_linear_6627_6268" x1="35.9467" y1="218.384" x2="48.6915" y2="232.32" gradientUnits="userSpaceOnUse">
<stop stop-color="#E2E8F0"/>
<stop offset="1" stop-color="white"/>
</linearGradient>
<linearGradient id="paint14_linear_6627_6268" x1="32.0202" y1="215" x2="53.6312" y2="216.98" gradientUnits="userSpaceOnUse">
<stop stop-color="#F4B62B"/>
<stop offset="0.5" stop-color="#BC52AD"/>
<stop offset="1" stop-color="#4F868E"/>
</linearGradient>
<linearGradient id="paint15_linear_6627_6268" x1="32.0202" y1="215" x2="53.6312" y2="216.98" gradientUnits="userSpaceOnUse">
<stop stop-color="#F4B62B"/>
<stop offset="0.5" stop-color="#BC52AD"/>
<stop offset="1" stop-color="#4F868E"/>
</linearGradient>
<clipPath id="clip0_6627_6268">
<rect width="405" height="420" fill="white"/>
</clipPath>
<clipPath id="clip1_6627_6268">
<rect x="198" y="143" width="20" height="20" rx="3" fill="white"/>
</clipPath>
</defs>
</svg>
